M48
;Layer_Color=9474304
;FILE_FORMAT=2:4
INCH,TZ
;TYPE=PLATED
T1F00S00C0.0079
T2F00S00C0.0098
T3F00S00C0.0256
T6F00S00C0.0394
T7F00S00C0.1063
%
T01
X-10364Y-8947
X-10108Y-8691
X-10108Y-7923
X-10364
X-10620Y-7411
X-10108Y-7156
X-9852
X-9852Y-7667
Y-7923
Y-8179
X-9596
X-9852Y-8435
X-9852Y-8691
X-9852Y-8947
X-9596Y-8947
X-9085Y-8691
X-9085Y-8435
X-9085Y-7411
X-9341Y-7411
X-9262Y-6791
Y-6545
T02
X-15310Y-33311
X-14793Y-33800
X-14311Y-32860
X-13592Y-34947
X-12667Y-35467
X-7721Y-33800
X-6219Y-34959
X-5207Y-33310
X-4961Y-32860
X-5994Y-32311
X-6861Y-31817
X-5453Y-31309
X-5735Y-30817
X-9371Y-27519
X-9951Y-27405
X-9360Y-25150
X-9070Y-25090
X-9266Y-24553
X-7864Y-24518
X-8131Y-24193
X-8701Y-21526
Y-21152
X-6447Y-20079
X-6014Y-22244
X-5719Y-22037
Y-23031
X-1744Y-22170
X-1150
X-10910Y-22230
X-11270
X-12746Y-22451
X-13022Y-22657
X-13435Y-22687
X-13248Y-23100
X-12854Y-23514
X-13524Y-23720
X-14508Y-23917
Y-23524
X-14498Y-23130
X-14518Y-24311
X-14568Y-21763
X-15138Y-21880
X-16024Y-22264
X-16033Y-22815
X-15719Y-21171
X-13091Y-21417
X-12844Y-21644
X-12697Y-21211
X-12215Y-21250
X-11909Y-21142
X-12451Y-20039
X-12451Y-19163
X-11821Y-19282
X-11447Y-19577
X-11122Y-19331
X-10768Y-19596
X-13189Y-17323
X-15443Y-17234
X-13238Y-21850
X-12106Y-24514
X-12500Y-25512
X-12820Y-26040
X-13140Y-26309
X-12500Y-26654
X-13140Y-27333
X-11516Y-27815
X-11585Y-28317
X-11014Y-28829
X-11231Y-29311
X-12077Y-29813
X-12311Y-30315
X-13050Y-30820
X-13310Y-31310
X-13878Y-31817
X-19193Y-31526
X-19590Y-26000
X-20620Y-24970
Y-27030
X-10709Y-25679
X-11388Y-16722
X-12594Y-16161
X-12382Y-15915
X-12116Y-15640
X-10197Y-13829
X-10138Y-12667
Y-11102
Y-10807
X-10856Y-10305
X-11383Y-10837
X-11161Y-11211
X-11663Y-9970
X-12156Y-9124
X-11516Y-8681
X-11752Y-7972
X-12008Y-7008
X-12352
X-12982Y-7441
X-12904Y-8248
X-12707Y-5984
X-13337Y-6102
X-13494Y-5591
X-14419Y-4508
X-14877Y-3273
X-17628Y-3543
X-17648Y-3937
X-19557Y-4272
X-19941Y-3189
X-19324Y-2244
X-19980Y-5630
X-20482Y-6289
X-21378Y-5896
X-21900Y-4774
X-22864Y-5610
X-21870Y-7057
X-22244Y-8573
X-20325Y-8858
X-20039Y-8593
X-19705Y-9459
X-19656Y-10502
X-20335Y-10335
X-20768Y-10689
X-20807Y-11309
X-20748Y-12854
X-21190Y-13800
X-20295Y-15177
X-19902Y-15197
X-18780Y-15906
X-18484Y-16959
X-16785Y-15567
X-17303Y-13593
X-17244Y-13169
Y-12854
Y-12539
Y-12224
X-16102Y-12096
X-16191Y-11388
X-15817Y-10502
X-15167Y-10640
X-15118Y-12067
X-14370Y-11722
X-14370Y-11368
X-14282Y-9823
X-14547Y-9360
X-15256Y-8937
X-15965Y-8927
X-15856Y-8120
X-17402Y-7963
X-17234Y-8602
X-18327Y-9409
X-18248Y-10502
X-17215
X-16850
X-18297Y-11978
X-18111Y-13169
X-17855Y-13022
X-17529Y-13327
X-15030Y-13622
X-15039Y-14094
X-14341Y-14045
X-14163Y-13829
X-10266Y-9715
X-10551Y-5945
X-10748Y-5394
X-10994
X-11004Y-6368
X-11713Y-4636
X-11535Y-3878
X-10522Y-3209
Y-2894
X-10188Y-2529
X-10109Y-3534
X-10739Y-1959
X-11319Y-1633
X-11623Y-1634
X-11467Y-2234
X-19843Y-7333
X-22933Y-11388
X-22677Y-12165
X-22992Y-15000
X-9715Y-14045
X-8406Y-13799
X-8012Y-13406
X-7963Y-12874
X-7146Y-12823
X-6644Y-13622
X-6142Y-13632
X-6447Y-15423
X-4902Y-14734
X-3524Y-15879
X-3366Y-11358
X-5089Y-10620
Y-10138
Y-9656
X-6142Y-10315
X-6644Y-10315
X-7146
X-7648Y-10315
X-8898Y-10551
X-8907Y-10915
X-9094Y-11171
X-9715Y-11063
X-9469Y-10394
X-8878Y-12441
X-8711Y-13150
X-7648Y-11988
X-7461Y-8691
X-7293Y-8425
X-8307Y-8435
X-7717Y-7165
X-7514Y-6850
X-7008Y-7520
X-6348Y-7982
X-6339Y-6467
X-5699Y-6644
X-4370Y-6339
X-4508Y-4980
X-4065Y-4508
X-3907Y-3622
X-4675Y-3848
X-5226Y-2913
X-4380Y-2648
X-2500Y-3445
Y-3957
X-1791Y-3858
X-1526Y-2766
X-512Y-2854
X-305Y-4370
X-1063Y-4823
X-2087Y-9734
X-6732Y-6024
X-8701Y-5945
Y-6289
X-9646Y-5659
X-9695Y-4882
X-9813Y-4203
X-8868Y-4488
X-8399Y-4754
X-7710Y-4754
X-7372Y-3474
X-9095Y-3543
X-8976Y-3238
X-9183Y-1742
X-9813Y-591
X-2992Y-598
X-11467Y-600
X-11841
X-11457Y-1083
X-13435Y-846
X-15945Y-591
T03
X-14187Y-18553
X-13187
X-12687
X-10677Y-14675
X-10177
X-3244Y-9059
Y-8559
X-2744
Y-9059
X-2244
X-1744
X-1244
Y-8559
X-1744
X-2244
T06
X-16311Y-37626
Y-36626
X-15311
Y-37626
X-14311
Y-36626
X-13311
Y-37626
X-12311
X-11311
X-10311
Y-36626
X-11311
X-12311
X-9311
X-8311
Y-37626
X-7311
Y-36626
X-9311Y-37626
X-2744Y-34311
X-1744
Y-33311
X-2744
Y-32311
Y-31311
Y-30311
X-1744
Y-31311
Y-32311
Y-29311
X-2744
Y-28311
X-1744
Y-27311
X-2744
Y-26311
Y-25311
X-1744
Y-26311
Y-20311
Y-19311
Y-18311
Y-17311
X-2744
Y-18311
Y-19311
Y-20311
X-18566Y-20418
Y-21418
Y-19418
X-15589Y-26201
X-14589
X-14447Y-7811
Y-6811
Y-5811
X-16447
Y-6811
Y-7811
X-16248Y-4311
X-15248
X-2744Y-5311
Y-6311
X-1744
Y-5311
Y-11311
X-2744
Y-12311
Y-13311
Y-14311
Y-15311
Y-16311
X-1744
Y-15311
Y-14311
Y-13311
Y-12311
T07
X-22697Y-38445
X-925
Y-925
X-22697
M30
