G75*
%MOIN*%
%OFA0B0*%
%FSLAX25Y25*%
%IPPOS*%
%LPD*%
%AMOC8*
5,1,8,0,0,1.08239X$1,22.5*
%
%ADD10C,0.04537*%
%ADD11C,0.08000*%
%ADD12R,0.04931X0.04537*%
%ADD13C,0.05100*%
%ADD14C,0.13100*%
%ADD15OC8,0.06600*%
%ADD16R,0.07200X0.07200*%
%ADD17C,0.07200*%
%ADD18R,0.06506X0.05718*%
%ADD19R,0.05718X0.06506*%
%ADD20R,0.06600X0.06600*%
%ADD21C,0.06600*%
%ADD22C,0.04200*%
%ADD23C,0.05200*%
D10*
X0108583Y0073750D03*
X0116583Y0073750D03*
X0112583Y0103750D03*
D11*
X0153683Y0101550D03*
X0171483Y0101550D03*
X0171483Y0075950D03*
X0153683Y0075950D03*
X0203683Y0075950D03*
X0221483Y0075950D03*
X0221483Y0101550D03*
X0203683Y0101550D03*
D12*
X0168430Y0148250D03*
X0168430Y0153750D03*
X0161737Y0153750D03*
X0161737Y0148250D03*
X0161737Y0163750D03*
X0168430Y0163750D03*
X0138430Y0176250D03*
X0131737Y0176250D03*
X0114583Y0132096D03*
X0114583Y0125404D03*
X0105583Y0125404D03*
X0105583Y0132096D03*
D13*
X0132583Y0139650D03*
X0132583Y0158850D03*
D14*
X0077583Y0073750D03*
X0077583Y0243750D03*
X0247583Y0243750D03*
X0247583Y0073750D03*
D15*
X0237583Y0148750D03*
X0237583Y0163750D03*
X0197583Y0153750D03*
D16*
X0212583Y0128750D03*
X0148083Y0128750D03*
X0122583Y0193750D03*
D17*
X0122583Y0183750D03*
X0158083Y0128750D03*
X0212583Y0138750D03*
D18*
X0144583Y0182510D03*
X0144583Y0189990D03*
D19*
X0161343Y0170250D03*
X0168823Y0170250D03*
D20*
X0092583Y0113750D03*
D21*
X0092583Y0123750D03*
X0092583Y0133750D03*
X0092583Y0143750D03*
X0092583Y0153750D03*
X0092583Y0163750D03*
X0082583Y0163750D03*
X0082583Y0153750D03*
X0082583Y0143750D03*
X0082583Y0133750D03*
X0082583Y0123750D03*
X0082583Y0113750D03*
X0082583Y0173750D03*
X0082583Y0183750D03*
X0082583Y0193750D03*
X0082583Y0203750D03*
X0092583Y0203750D03*
X0092583Y0193750D03*
X0092583Y0183750D03*
X0092583Y0173750D03*
D22*
X0121583Y0149250D03*
X0110083Y0121250D03*
X0127583Y0108750D03*
X0122583Y0093750D03*
X0102583Y0088750D03*
X0099083Y0083750D03*
X0102583Y0078750D03*
X0102583Y0098750D03*
X0155083Y0161250D03*
X0150583Y0166750D03*
X0172083Y0200250D03*
X0185619Y0157250D03*
X0187583Y0146250D03*
X0187583Y0123750D03*
X0180083Y0116250D03*
X0185083Y0088750D03*
X0231083Y0118750D03*
X0246083Y0128750D03*
X0247583Y0198750D03*
X0247583Y0208750D03*
D23*
X0256583Y0181250D03*
X0256583Y0136250D03*
X0174083Y0153750D03*
X0174083Y0163750D03*
X0144583Y0173750D03*
M02*
