G75*
%MOIN*%
%OFA0B0*%
%FSLAX25Y25*%
%IPPOS*%
%LPD*%
%AMOC8*
5,1,8,0,0,1.08239X$1,22.5*
%
%ADD10R,0.04331X0.03937*%
%ADD11R,0.03937X0.04331*%
%ADD12R,0.01575X0.04724*%
%ADD13R,0.04724X0.01575*%
%ADD14R,0.03937X0.07087*%
%ADD15R,0.03937X0.02362*%
%ADD16R,0.05512X0.01575*%
%ADD17R,0.07480X0.09055*%
%ADD18R,0.07480X0.07087*%
D10*
X0126237Y0145250D03*
X0132930Y0145250D03*
X0132930Y0153250D03*
X0126237Y0153250D03*
X0131737Y0176250D03*
X0138430Y0176250D03*
X0187583Y0177096D03*
X0187583Y0170404D03*
X0224237Y0143750D03*
X0230930Y0143750D03*
X0239237Y0133750D03*
X0245930Y0133750D03*
X0230930Y0123750D03*
X0224237Y0123750D03*
X0192583Y0102096D03*
X0192583Y0095404D03*
X0162583Y0110404D03*
X0162583Y0117096D03*
X0155083Y0117096D03*
X0155083Y0110404D03*
D11*
X0170083Y0110404D03*
X0170083Y0117096D03*
X0185083Y0102096D03*
X0185083Y0095404D03*
X0190583Y0153904D03*
X0190583Y0160596D03*
X0177083Y0193404D03*
X0177083Y0200096D03*
X0167083Y0200096D03*
X0167083Y0193404D03*
X0219237Y0198750D03*
X0225930Y0198750D03*
X0234237Y0198750D03*
X0240930Y0198750D03*
X0240930Y0208750D03*
X0234237Y0208750D03*
X0225930Y0208750D03*
X0219237Y0208750D03*
D12*
X0173607Y0176467D03*
X0170457Y0176467D03*
X0167308Y0176467D03*
X0164158Y0176467D03*
X0161009Y0176467D03*
X0157859Y0176467D03*
X0154709Y0176467D03*
X0151560Y0176467D03*
X0151560Y0141033D03*
X0154709Y0141033D03*
X0157859Y0141033D03*
X0161009Y0141033D03*
X0164158Y0141033D03*
X0167308Y0141033D03*
X0170457Y0141033D03*
X0173607Y0141033D03*
D13*
X0180300Y0147726D03*
X0180300Y0150876D03*
X0180300Y0154026D03*
X0180300Y0157175D03*
X0180300Y0160325D03*
X0180300Y0163474D03*
X0180300Y0166624D03*
X0180300Y0169774D03*
X0144867Y0169774D03*
X0144867Y0166624D03*
X0144867Y0163474D03*
X0144867Y0160325D03*
X0144867Y0157175D03*
X0144867Y0154026D03*
X0144867Y0150876D03*
X0144867Y0147726D03*
D14*
X0167064Y0186250D03*
X0177103Y0186250D03*
D15*
X0222268Y0137490D03*
X0222268Y0130010D03*
X0232898Y0133750D03*
D16*
X0245583Y0153632D03*
X0245583Y0156191D03*
X0245583Y0158750D03*
X0245583Y0161309D03*
X0245583Y0163868D03*
D17*
X0256804Y0173514D03*
X0256804Y0143986D03*
D18*
X0256804Y0154222D03*
X0256804Y0163278D03*
M02*
