G75*
%MOIN*%
%OFA0B0*%
%FSLAX25Y25*%
%IPPOS*%
%LPD*%
%AMOC8*
5,1,8,0,0,1.08239X$1,22.5*
%
%ADD10C,0.03100*%
%ADD11C,0.07400*%
%ADD12C,0.04500*%
%ADD13R,0.04331X0.03937*%
%ADD14R,0.03937X0.04331*%
%ADD15C,0.02500*%
%ADD16OC8,0.06000*%
%ADD17R,0.06600X0.06600*%
%ADD18C,0.06600*%
%ADD19R,0.01575X0.04724*%
%ADD20R,0.04724X0.01575*%
%ADD21R,0.03937X0.07087*%
%ADD22R,0.06000X0.06000*%
%ADD23C,0.06000*%
%ADD24R,0.03937X0.02362*%
%ADD25R,0.05512X0.01575*%
%ADD26R,0.07480X0.09055*%
%ADD27R,0.07480X0.07087*%
%ADD28C,0.01200*%
%ADD29C,0.03600*%
%ADD30C,0.01400*%
%ADD31C,0.01600*%
%ADD32C,0.04600*%
%ADD33C,0.00600*%
%ADD34C,0.00800*%
D10*
X0110083Y0078750D03*
X0115083Y0078750D03*
X0115083Y0083750D03*
X0110083Y0083750D03*
X0110083Y0088750D03*
X0115083Y0088750D03*
X0115083Y0093750D03*
X0110083Y0093750D03*
X0110083Y0098750D03*
X0115083Y0098750D03*
D11*
X0153683Y0101550D03*
X0171483Y0101550D03*
X0171483Y0075950D03*
X0153683Y0075950D03*
X0203683Y0075950D03*
X0221483Y0075950D03*
X0221483Y0101550D03*
X0203683Y0101550D03*
D12*
X0132583Y0139650D03*
X0132583Y0158850D03*
D13*
X0132930Y0153250D03*
X0126237Y0153250D03*
X0126237Y0145250D03*
X0132930Y0145250D03*
X0131737Y0176250D03*
X0138430Y0176250D03*
X0187583Y0177096D03*
X0187583Y0170404D03*
X0224237Y0143750D03*
X0230930Y0143750D03*
X0239237Y0133750D03*
X0245930Y0133750D03*
X0230930Y0123750D03*
X0224237Y0123750D03*
X0192583Y0102096D03*
X0192583Y0095404D03*
X0162583Y0110404D03*
X0162583Y0117096D03*
X0155083Y0117096D03*
X0155083Y0110404D03*
D14*
X0170083Y0110404D03*
X0170083Y0117096D03*
X0185083Y0102096D03*
X0185083Y0095404D03*
X0190583Y0153904D03*
X0190583Y0160596D03*
X0177083Y0193404D03*
X0177083Y0200096D03*
X0167083Y0200096D03*
X0167083Y0193404D03*
X0219237Y0198750D03*
X0225930Y0198750D03*
X0234237Y0198750D03*
X0240930Y0198750D03*
X0240930Y0208750D03*
X0234237Y0208750D03*
X0225930Y0208750D03*
X0219237Y0208750D03*
D15*
X0217583Y0243750D03*
X0077583Y0223750D03*
D16*
X0197583Y0153750D03*
X0237583Y0148750D03*
X0237583Y0163750D03*
D17*
X0212583Y0128750D03*
X0148083Y0128750D03*
X0122583Y0193750D03*
D18*
X0122583Y0183750D03*
X0158083Y0128750D03*
X0212583Y0138750D03*
D19*
X0173607Y0141033D03*
X0170457Y0141033D03*
X0167308Y0141033D03*
X0164158Y0141033D03*
X0161009Y0141033D03*
X0157859Y0141033D03*
X0154709Y0141033D03*
X0151560Y0141033D03*
X0151560Y0176467D03*
X0154709Y0176467D03*
X0157859Y0176467D03*
X0161009Y0176467D03*
X0164158Y0176467D03*
X0167308Y0176467D03*
X0170457Y0176467D03*
X0173607Y0176467D03*
D20*
X0180300Y0169774D03*
X0180300Y0166624D03*
X0180300Y0163474D03*
X0180300Y0160325D03*
X0180300Y0157175D03*
X0180300Y0154026D03*
X0180300Y0150876D03*
X0180300Y0147726D03*
X0144867Y0147726D03*
X0144867Y0150876D03*
X0144867Y0154026D03*
X0144867Y0157175D03*
X0144867Y0160325D03*
X0144867Y0163474D03*
X0144867Y0166624D03*
X0144867Y0169774D03*
D21*
X0167064Y0186250D03*
X0177103Y0186250D03*
D22*
X0092583Y0113750D03*
D23*
X0092583Y0123750D03*
X0092583Y0133750D03*
X0092583Y0143750D03*
X0092583Y0153750D03*
X0092583Y0163750D03*
X0082583Y0163750D03*
X0082583Y0153750D03*
X0082583Y0143750D03*
X0082583Y0133750D03*
X0082583Y0123750D03*
X0082583Y0113750D03*
X0082583Y0173750D03*
X0082583Y0183750D03*
X0082583Y0193750D03*
X0082583Y0203750D03*
X0092583Y0203750D03*
X0092583Y0193750D03*
X0092583Y0183750D03*
X0092583Y0173750D03*
D24*
X0222268Y0137490D03*
X0222268Y0130010D03*
X0232898Y0133750D03*
D25*
X0245583Y0153632D03*
X0245583Y0156191D03*
X0245583Y0158750D03*
X0245583Y0161309D03*
X0245583Y0163868D03*
D26*
X0256804Y0173514D03*
X0256804Y0143986D03*
D27*
X0256804Y0154222D03*
X0256804Y0163278D03*
D28*
X0122583Y0093750D02*
X0115083Y0093750D01*
X0110083Y0098750D02*
X0102583Y0098750D01*
X0102583Y0088750D02*
X0110083Y0088750D01*
X0110083Y0078750D02*
X0102583Y0078750D01*
D29*
X0102583Y0078750D03*
X0099083Y0083750D03*
X0102583Y0088750D03*
X0102583Y0098750D03*
X0122583Y0093750D03*
X0127583Y0108750D03*
X0110083Y0121250D03*
X0121583Y0149250D03*
X0150583Y0166750D03*
X0155083Y0161250D03*
X0185619Y0157250D03*
X0187583Y0146250D03*
X0187583Y0123750D03*
X0180083Y0116250D03*
X0185083Y0088750D03*
X0231083Y0118750D03*
X0246083Y0128750D03*
X0247583Y0198750D03*
X0247583Y0208750D03*
X0172083Y0200250D03*
D30*
X0144867Y0173467D02*
X0144867Y0169774D01*
X0144867Y0166624D02*
X0150457Y0166624D01*
X0150583Y0166750D01*
X0144867Y0173467D02*
X0144583Y0173750D01*
X0142083Y0176250D01*
X0138430Y0176250D01*
X0126237Y0153250D02*
X0125583Y0153250D01*
X0121583Y0149250D01*
X0125583Y0145250D01*
X0126237Y0145250D01*
X0174083Y0153750D02*
X0174359Y0154026D01*
X0180300Y0154026D01*
X0183808Y0154026D01*
X0184083Y0153750D01*
X0190430Y0153750D01*
X0190583Y0153904D01*
X0185619Y0157250D02*
X0185544Y0157175D01*
X0180300Y0157175D01*
X0180300Y0160325D02*
X0184027Y0160325D01*
X0184252Y0160550D01*
X0190537Y0160550D01*
X0190583Y0160596D01*
X0180300Y0163474D02*
X0174359Y0163474D01*
X0174083Y0163750D01*
X0212583Y0138750D02*
X0213843Y0137490D01*
X0222268Y0137490D01*
X0222268Y0141781D01*
X0224237Y0143750D01*
X0230930Y0143750D02*
X0235930Y0148750D01*
X0237583Y0148750D01*
X0242465Y0153632D01*
X0245583Y0153632D01*
X0245583Y0163868D02*
X0237701Y0163868D01*
X0237583Y0163750D01*
X0256804Y0163278D02*
X0256804Y0173514D01*
X0256583Y0173734D01*
X0256583Y0181250D01*
X0256804Y0154222D02*
X0256804Y0143986D01*
X0256583Y0143766D01*
X0256583Y0136250D01*
X0246083Y0128750D02*
X0245930Y0128904D01*
X0245930Y0133750D01*
X0239237Y0133750D02*
X0232898Y0133750D01*
X0232898Y0141781D01*
X0230930Y0143750D01*
X0222268Y0130010D02*
X0222268Y0125719D01*
X0224237Y0123750D01*
X0222268Y0130010D02*
X0213843Y0130010D01*
X0212583Y0128750D01*
X0230930Y0123750D02*
X0230930Y0118904D01*
X0231083Y0118750D01*
X0185083Y0095404D02*
X0185083Y0088750D01*
D31*
X0171483Y0101550D02*
X0170083Y0102950D01*
X0170083Y0110404D01*
X0190583Y0153904D02*
X0197430Y0153904D01*
X0197583Y0153750D01*
X0177083Y0200096D02*
X0176930Y0200250D01*
X0172083Y0200250D01*
X0167237Y0200250D01*
X0167083Y0200096D01*
D32*
X0144583Y0173750D03*
X0174083Y0163750D03*
X0174083Y0153750D03*
X0256583Y0136250D03*
X0256583Y0181250D03*
D33*
X0064383Y0256950D02*
X0064383Y0060550D01*
X0260783Y0060550D01*
X0260783Y0138359D01*
X0259283Y0138359D01*
X0259466Y0138176D01*
X0259983Y0136926D01*
X0259983Y0135574D01*
X0259466Y0134324D01*
X0258509Y0133368D01*
X0257260Y0132850D01*
X0255907Y0132850D01*
X0254657Y0133368D01*
X0253701Y0134324D01*
X0253183Y0135574D01*
X0253183Y0136926D01*
X0253701Y0138176D01*
X0253884Y0138359D01*
X0252608Y0138359D01*
X0251964Y0139003D01*
X0251964Y0148969D01*
X0252591Y0149596D01*
X0251964Y0150223D01*
X0251964Y0158221D01*
X0252492Y0158750D01*
X0251964Y0159279D01*
X0251964Y0167277D01*
X0252591Y0167904D01*
X0251964Y0168531D01*
X0251964Y0178497D01*
X0252608Y0179141D01*
X0253884Y0179141D01*
X0253701Y0179324D01*
X0253183Y0180574D01*
X0253183Y0181926D01*
X0253701Y0183176D01*
X0254657Y0184132D01*
X0255907Y0184650D01*
X0257260Y0184650D01*
X0258509Y0184132D01*
X0259466Y0183176D01*
X0259983Y0181926D01*
X0259983Y0180574D01*
X0259466Y0179324D01*
X0259283Y0179141D01*
X0260783Y0179141D01*
X0260783Y0256950D01*
X0064383Y0256950D01*
X0064383Y0256857D02*
X0260783Y0256857D01*
X0260783Y0256259D02*
X0064383Y0256259D01*
X0064383Y0255660D02*
X0260783Y0255660D01*
X0260783Y0255062D02*
X0064383Y0255062D01*
X0064383Y0254463D02*
X0260783Y0254463D01*
X0260783Y0253865D02*
X0064383Y0253865D01*
X0064383Y0253266D02*
X0260783Y0253266D01*
X0260783Y0252668D02*
X0064383Y0252668D01*
X0064383Y0252069D02*
X0260783Y0252069D01*
X0260783Y0251471D02*
X0249980Y0251471D01*
X0249185Y0251800D02*
X0245982Y0251800D01*
X0243023Y0250574D01*
X0240759Y0248310D01*
X0239533Y0245351D01*
X0239533Y0242149D01*
X0240759Y0239190D01*
X0243023Y0236926D01*
X0245982Y0235700D01*
X0249185Y0235700D01*
X0252143Y0236926D01*
X0254408Y0239190D01*
X0255633Y0242149D01*
X0255633Y0245351D01*
X0254408Y0248310D01*
X0252143Y0250574D01*
X0249185Y0251800D01*
X0251425Y0250872D02*
X0260783Y0250872D01*
X0260783Y0250274D02*
X0252444Y0250274D01*
X0253043Y0249675D02*
X0260783Y0249675D01*
X0260783Y0249077D02*
X0253641Y0249077D01*
X0254240Y0248478D02*
X0260783Y0248478D01*
X0260783Y0247880D02*
X0254586Y0247880D01*
X0254834Y0247281D02*
X0260783Y0247281D01*
X0260783Y0246683D02*
X0255082Y0246683D01*
X0255330Y0246084D02*
X0260783Y0246084D01*
X0260783Y0245486D02*
X0255578Y0245486D01*
X0255633Y0244887D02*
X0260783Y0244887D01*
X0260783Y0244289D02*
X0255633Y0244289D01*
X0255633Y0243690D02*
X0260783Y0243690D01*
X0260783Y0243091D02*
X0255633Y0243091D01*
X0255633Y0242493D02*
X0260783Y0242493D01*
X0260783Y0241894D02*
X0255528Y0241894D01*
X0255280Y0241296D02*
X0260783Y0241296D01*
X0260783Y0240697D02*
X0255032Y0240697D01*
X0254784Y0240099D02*
X0260783Y0240099D01*
X0260783Y0239500D02*
X0254536Y0239500D01*
X0254120Y0238902D02*
X0260783Y0238902D01*
X0260783Y0238303D02*
X0253521Y0238303D01*
X0252923Y0237705D02*
X0260783Y0237705D01*
X0260783Y0237106D02*
X0252324Y0237106D01*
X0251135Y0236508D02*
X0260783Y0236508D01*
X0260783Y0235909D02*
X0249690Y0235909D01*
X0245477Y0235909D02*
X0079690Y0235909D01*
X0079185Y0235700D02*
X0082143Y0236926D01*
X0084408Y0239190D01*
X0085633Y0242149D01*
X0085633Y0245351D01*
X0084408Y0248310D01*
X0082143Y0250574D01*
X0079185Y0251800D01*
X0075982Y0251800D01*
X0073023Y0250574D01*
X0070759Y0248310D01*
X0069533Y0245351D01*
X0069533Y0242149D01*
X0070759Y0239190D01*
X0073023Y0236926D01*
X0075982Y0235700D01*
X0079185Y0235700D01*
X0081135Y0236508D02*
X0244032Y0236508D01*
X0242843Y0237106D02*
X0082324Y0237106D01*
X0082923Y0237705D02*
X0242244Y0237705D01*
X0241646Y0238303D02*
X0083521Y0238303D01*
X0084120Y0238902D02*
X0241047Y0238902D01*
X0240630Y0239500D02*
X0084536Y0239500D01*
X0084784Y0240099D02*
X0240382Y0240099D01*
X0240134Y0240697D02*
X0085032Y0240697D01*
X0085280Y0241296D02*
X0239887Y0241296D01*
X0239639Y0241894D02*
X0219051Y0241894D01*
X0218557Y0241400D02*
X0219933Y0242777D01*
X0219933Y0244723D01*
X0218557Y0246100D01*
X0216610Y0246100D01*
X0215233Y0244723D01*
X0215233Y0242777D01*
X0216610Y0241400D01*
X0218557Y0241400D01*
X0219650Y0242493D02*
X0239533Y0242493D01*
X0239533Y0243091D02*
X0219933Y0243091D01*
X0219933Y0243690D02*
X0239533Y0243690D01*
X0239533Y0244289D02*
X0219933Y0244289D01*
X0219770Y0244887D02*
X0239533Y0244887D01*
X0239589Y0245486D02*
X0219171Y0245486D01*
X0218573Y0246084D02*
X0239837Y0246084D01*
X0240085Y0246683D02*
X0085082Y0246683D01*
X0084834Y0247281D02*
X0240333Y0247281D01*
X0240581Y0247880D02*
X0084586Y0247880D01*
X0084240Y0248478D02*
X0240927Y0248478D01*
X0241526Y0249077D02*
X0083641Y0249077D01*
X0083043Y0249675D02*
X0242124Y0249675D01*
X0242723Y0250274D02*
X0082444Y0250274D01*
X0081425Y0250872D02*
X0243742Y0250872D01*
X0245187Y0251471D02*
X0079980Y0251471D01*
X0075187Y0251471D02*
X0064383Y0251471D01*
X0064383Y0250872D02*
X0073742Y0250872D01*
X0072723Y0250274D02*
X0064383Y0250274D01*
X0064383Y0249675D02*
X0072124Y0249675D01*
X0071526Y0249077D02*
X0064383Y0249077D01*
X0064383Y0248478D02*
X0070927Y0248478D01*
X0070581Y0247880D02*
X0064383Y0247880D01*
X0064383Y0247281D02*
X0070333Y0247281D01*
X0070085Y0246683D02*
X0064383Y0246683D01*
X0064383Y0246084D02*
X0069837Y0246084D01*
X0069589Y0245486D02*
X0064383Y0245486D01*
X0064383Y0244887D02*
X0069533Y0244887D01*
X0069533Y0244289D02*
X0064383Y0244289D01*
X0064383Y0243690D02*
X0069533Y0243690D01*
X0069533Y0243091D02*
X0064383Y0243091D01*
X0064383Y0242493D02*
X0069533Y0242493D01*
X0069639Y0241894D02*
X0064383Y0241894D01*
X0064383Y0241296D02*
X0069887Y0241296D01*
X0070134Y0240697D02*
X0064383Y0240697D01*
X0064383Y0240099D02*
X0070382Y0240099D01*
X0070630Y0239500D02*
X0064383Y0239500D01*
X0064383Y0238902D02*
X0071047Y0238902D01*
X0071646Y0238303D02*
X0064383Y0238303D01*
X0064383Y0237705D02*
X0072244Y0237705D01*
X0072843Y0237106D02*
X0064383Y0237106D01*
X0064383Y0236508D02*
X0074032Y0236508D01*
X0075477Y0235909D02*
X0064383Y0235909D01*
X0064383Y0235311D02*
X0260783Y0235311D01*
X0260783Y0234712D02*
X0064383Y0234712D01*
X0064383Y0234114D02*
X0260783Y0234114D01*
X0260783Y0233515D02*
X0064383Y0233515D01*
X0064383Y0232917D02*
X0260783Y0232917D01*
X0260783Y0232318D02*
X0064383Y0232318D01*
X0064383Y0231720D02*
X0260783Y0231720D01*
X0260783Y0231121D02*
X0064383Y0231121D01*
X0064383Y0230523D02*
X0260783Y0230523D01*
X0260783Y0229924D02*
X0064383Y0229924D01*
X0064383Y0229326D02*
X0260783Y0229326D01*
X0260783Y0228727D02*
X0064383Y0228727D01*
X0064383Y0228129D02*
X0260783Y0228129D01*
X0260783Y0227530D02*
X0064383Y0227530D01*
X0064383Y0226932D02*
X0260783Y0226932D01*
X0260783Y0226333D02*
X0064383Y0226333D01*
X0064383Y0225735D02*
X0076245Y0225735D01*
X0076610Y0226100D02*
X0075233Y0224723D01*
X0075233Y0222777D01*
X0076610Y0221400D01*
X0078557Y0221400D01*
X0079933Y0222777D01*
X0079933Y0224723D01*
X0078557Y0226100D01*
X0076610Y0226100D01*
X0075646Y0225136D02*
X0064383Y0225136D01*
X0064383Y0224538D02*
X0075233Y0224538D01*
X0075233Y0223939D02*
X0064383Y0223939D01*
X0064383Y0223341D02*
X0075233Y0223341D01*
X0075268Y0222742D02*
X0064383Y0222742D01*
X0064383Y0222144D02*
X0075866Y0222144D01*
X0076465Y0221545D02*
X0064383Y0221545D01*
X0064383Y0220947D02*
X0260783Y0220947D01*
X0260783Y0221545D02*
X0078702Y0221545D01*
X0079300Y0222144D02*
X0260783Y0222144D01*
X0260783Y0222742D02*
X0079899Y0222742D01*
X0079933Y0223341D02*
X0260783Y0223341D01*
X0260783Y0223939D02*
X0079933Y0223939D01*
X0079933Y0224538D02*
X0260783Y0224538D01*
X0260783Y0225136D02*
X0079521Y0225136D01*
X0078922Y0225735D02*
X0260783Y0225735D01*
X0260783Y0220348D02*
X0064383Y0220348D01*
X0064383Y0219750D02*
X0260783Y0219750D01*
X0260783Y0219151D02*
X0064383Y0219151D01*
X0064383Y0218553D02*
X0260783Y0218553D01*
X0260783Y0217954D02*
X0064383Y0217954D01*
X0064383Y0217355D02*
X0260783Y0217355D01*
X0260783Y0216757D02*
X0064383Y0216757D01*
X0064383Y0216158D02*
X0260783Y0216158D01*
X0260783Y0215560D02*
X0064383Y0215560D01*
X0064383Y0214961D02*
X0260783Y0214961D01*
X0260783Y0214363D02*
X0064383Y0214363D01*
X0064383Y0213764D02*
X0260783Y0213764D01*
X0260783Y0213166D02*
X0064383Y0213166D01*
X0064383Y0212567D02*
X0260783Y0212567D01*
X0260783Y0211969D02*
X0243400Y0211969D01*
X0243354Y0212015D02*
X0238506Y0212015D01*
X0237861Y0211371D01*
X0237861Y0206129D01*
X0238506Y0205485D01*
X0243354Y0205485D01*
X0243998Y0206129D01*
X0243998Y0207350D01*
X0245024Y0207350D01*
X0245125Y0207107D01*
X0245941Y0206291D01*
X0247006Y0205850D01*
X0248160Y0205850D01*
X0249226Y0206291D01*
X0250042Y0207107D01*
X0250483Y0208173D01*
X0250483Y0209327D01*
X0250042Y0210393D01*
X0249226Y0211208D01*
X0248160Y0211650D01*
X0247006Y0211650D01*
X0245941Y0211208D01*
X0245125Y0210393D01*
X0245024Y0210150D01*
X0243998Y0210150D01*
X0243998Y0211371D01*
X0243354Y0212015D01*
X0243998Y0211370D02*
X0246331Y0211370D01*
X0245504Y0210772D02*
X0243998Y0210772D01*
X0243998Y0210173D02*
X0245034Y0210173D01*
X0247583Y0208750D02*
X0240930Y0208750D01*
X0237861Y0208976D02*
X0237305Y0208976D01*
X0237305Y0208378D02*
X0237861Y0208378D01*
X0237861Y0207779D02*
X0237305Y0207779D01*
X0237305Y0207181D02*
X0237861Y0207181D01*
X0237861Y0206582D02*
X0237305Y0206582D01*
X0237305Y0206129D02*
X0237305Y0211371D01*
X0236661Y0212015D01*
X0231813Y0212015D01*
X0231168Y0211371D01*
X0231168Y0210150D01*
X0228998Y0210150D01*
X0228998Y0211371D01*
X0228354Y0212015D01*
X0223506Y0212015D01*
X0222861Y0211371D01*
X0222861Y0206129D01*
X0223506Y0205485D01*
X0228354Y0205485D01*
X0228998Y0206129D01*
X0228998Y0207350D01*
X0231168Y0207350D01*
X0231168Y0206129D01*
X0231813Y0205485D01*
X0236661Y0205485D01*
X0237305Y0206129D01*
X0237160Y0205984D02*
X0238006Y0205984D01*
X0237861Y0209575D02*
X0237305Y0209575D01*
X0237305Y0210173D02*
X0237861Y0210173D01*
X0237861Y0210772D02*
X0237305Y0210772D01*
X0237305Y0211370D02*
X0237861Y0211370D01*
X0238459Y0211969D02*
X0236707Y0211969D01*
X0234237Y0208750D02*
X0225930Y0208750D01*
X0222861Y0208976D02*
X0222305Y0208976D01*
X0222305Y0208378D02*
X0222861Y0208378D01*
X0222861Y0207779D02*
X0222305Y0207779D01*
X0222305Y0207181D02*
X0222861Y0207181D01*
X0222861Y0206582D02*
X0222305Y0206582D01*
X0222305Y0206129D02*
X0222305Y0211371D01*
X0221661Y0212015D01*
X0216813Y0212015D01*
X0216168Y0211371D01*
X0216168Y0207661D01*
X0212003Y0203496D01*
X0211183Y0202676D01*
X0211183Y0162830D01*
X0201683Y0153330D01*
X0201683Y0155448D01*
X0199282Y0157850D01*
X0195885Y0157850D01*
X0193839Y0155804D01*
X0193652Y0155804D01*
X0193652Y0156525D01*
X0193007Y0157169D01*
X0188519Y0157169D01*
X0188519Y0157331D01*
X0193007Y0157331D01*
X0193652Y0157975D01*
X0193652Y0163217D01*
X0193007Y0163862D01*
X0188159Y0163862D01*
X0187515Y0163217D01*
X0187515Y0162350D01*
X0183918Y0162350D01*
X0183962Y0162516D01*
X0183962Y0163381D01*
X0180394Y0163381D01*
X0180394Y0163568D01*
X0183962Y0163568D01*
X0183962Y0164433D01*
X0183873Y0164764D01*
X0183702Y0165060D01*
X0183572Y0165191D01*
X0183605Y0165224D01*
X0184384Y0165224D01*
X0186495Y0167335D01*
X0190204Y0167335D01*
X0190849Y0167979D01*
X0190849Y0172828D01*
X0190204Y0173472D01*
X0184962Y0173472D01*
X0184318Y0172828D01*
X0184318Y0169118D01*
X0183762Y0168562D01*
X0183762Y0171017D01*
X0183118Y0171661D01*
X0177482Y0171661D01*
X0176995Y0171174D01*
X0171527Y0171174D01*
X0148329Y0147976D01*
X0148329Y0148969D01*
X0147997Y0149301D01*
X0148329Y0149633D01*
X0148329Y0152119D01*
X0147997Y0152451D01*
X0148329Y0152783D01*
X0148329Y0155269D01*
X0147997Y0155600D01*
X0148329Y0155932D01*
X0148329Y0158418D01*
X0147997Y0158750D01*
X0148329Y0159082D01*
X0148329Y0161568D01*
X0147997Y0161900D01*
X0148329Y0162231D01*
X0148329Y0164717D01*
X0148222Y0164824D01*
X0148408Y0164824D01*
X0148941Y0164291D01*
X0150006Y0163850D01*
X0151160Y0163850D01*
X0152226Y0164291D01*
X0153042Y0165107D01*
X0153483Y0166173D01*
X0153483Y0167327D01*
X0153042Y0168393D01*
X0152226Y0169208D01*
X0151160Y0169650D01*
X0150006Y0169650D01*
X0148941Y0169208D01*
X0148329Y0168597D01*
X0148329Y0171017D01*
X0147685Y0171661D01*
X0147303Y0171661D01*
X0147466Y0171824D01*
X0147983Y0173074D01*
X0147983Y0174426D01*
X0147466Y0175676D01*
X0146509Y0176632D01*
X0145260Y0177150D01*
X0143907Y0177150D01*
X0143781Y0177098D01*
X0142829Y0178050D01*
X0141695Y0178050D01*
X0141695Y0178674D01*
X0141051Y0179318D01*
X0135809Y0179318D01*
X0135164Y0178674D01*
X0135164Y0178531D01*
X0135114Y0178720D01*
X0134942Y0179017D01*
X0134700Y0179259D01*
X0134404Y0179430D01*
X0134073Y0179518D01*
X0132037Y0179518D01*
X0132037Y0176550D01*
X0131437Y0176550D01*
X0131437Y0179518D01*
X0129400Y0179518D01*
X0129070Y0179430D01*
X0128773Y0179259D01*
X0128531Y0179017D01*
X0128360Y0178720D01*
X0128272Y0178390D01*
X0128272Y0176550D01*
X0131437Y0176550D01*
X0131437Y0175950D01*
X0132037Y0175950D01*
X0132037Y0172981D01*
X0134073Y0172981D01*
X0134404Y0173070D01*
X0134700Y0173241D01*
X0134942Y0173483D01*
X0135114Y0173780D01*
X0135164Y0173969D01*
X0135164Y0173826D01*
X0135809Y0173181D01*
X0141051Y0173181D01*
X0141183Y0173314D01*
X0141183Y0173074D01*
X0141701Y0171824D01*
X0141956Y0171569D01*
X0141405Y0171017D01*
X0141405Y0168531D01*
X0141736Y0168199D01*
X0141405Y0167867D01*
X0141405Y0165381D01*
X0141736Y0165049D01*
X0141562Y0164874D01*
X0140939Y0164874D01*
X0133983Y0171830D01*
X0133163Y0172650D01*
X0120663Y0172650D01*
X0108983Y0184330D01*
X0108983Y0199330D01*
X0098983Y0209330D01*
X0098163Y0210150D01*
X0089503Y0210150D01*
X0086183Y0206830D01*
X0086183Y0206111D01*
X0085863Y0206551D01*
X0085385Y0207030D01*
X0084837Y0207428D01*
X0084234Y0207735D01*
X0083590Y0207944D01*
X0082922Y0208050D01*
X0082883Y0208050D01*
X0082883Y0204050D01*
X0082283Y0204050D01*
X0082283Y0203450D01*
X0078283Y0203450D01*
X0078283Y0203412D01*
X0078389Y0202743D01*
X0078598Y0202099D01*
X0078906Y0201496D01*
X0079303Y0200949D01*
X0079782Y0200470D01*
X0080223Y0200150D01*
X0079503Y0200150D01*
X0076183Y0196830D01*
X0076183Y0188170D01*
X0078865Y0185488D01*
X0078483Y0184566D01*
X0078483Y0182934D01*
X0079108Y0181428D01*
X0080261Y0180274D01*
X0081768Y0179650D01*
X0083399Y0179650D01*
X0084906Y0180274D01*
X0086059Y0181428D01*
X0086183Y0181727D01*
X0086183Y0181170D01*
X0087003Y0180350D01*
X0090003Y0177350D01*
X0090561Y0177350D01*
X0090261Y0177226D01*
X0089108Y0176072D01*
X0088483Y0174566D01*
X0088483Y0172934D01*
X0089108Y0171428D01*
X0090261Y0170274D01*
X0091768Y0169650D01*
X0093399Y0169650D01*
X0094906Y0170274D01*
X0096059Y0171428D01*
X0096683Y0172934D01*
X0096683Y0174566D01*
X0096059Y0176072D01*
X0094906Y0177226D01*
X0094606Y0177350D01*
X0097003Y0177350D01*
X0112003Y0162350D01*
X0132003Y0162350D01*
X0132153Y0162200D01*
X0131917Y0162200D01*
X0130686Y0161690D01*
X0129743Y0160748D01*
X0129233Y0159516D01*
X0129233Y0158184D01*
X0129743Y0156952D01*
X0130377Y0156318D01*
X0130309Y0156318D01*
X0129664Y0155674D01*
X0129664Y0150826D01*
X0130309Y0150181D01*
X0135551Y0150181D01*
X0136195Y0150826D01*
X0136195Y0151658D01*
X0137557Y0150296D01*
X0138377Y0149476D01*
X0141562Y0149476D01*
X0141736Y0149301D01*
X0141562Y0149126D01*
X0138480Y0149126D01*
X0137660Y0148306D01*
X0136195Y0146842D01*
X0136195Y0147674D01*
X0135551Y0148318D01*
X0130309Y0148318D01*
X0129664Y0147674D01*
X0129664Y0142826D01*
X0130309Y0142181D01*
X0130377Y0142181D01*
X0129743Y0141548D01*
X0129233Y0140316D01*
X0129233Y0138984D01*
X0129743Y0137752D01*
X0130686Y0136810D01*
X0131917Y0136300D01*
X0133250Y0136300D01*
X0134481Y0136810D01*
X0135423Y0137752D01*
X0135933Y0138984D01*
X0135933Y0140316D01*
X0135423Y0141548D01*
X0134789Y0142181D01*
X0135551Y0142181D01*
X0136195Y0142826D01*
X0136195Y0143850D01*
X0137163Y0143850D01*
X0139640Y0146326D01*
X0141562Y0146326D01*
X0142049Y0145839D01*
X0146192Y0145839D01*
X0115503Y0115150D01*
X0107003Y0115150D01*
X0097003Y0105150D01*
X0096183Y0104330D01*
X0096183Y0095670D01*
X0097003Y0094850D01*
X0099503Y0092350D01*
X0107795Y0092350D01*
X0107837Y0092249D01*
X0108582Y0091503D01*
X0109194Y0091250D01*
X0108582Y0090997D01*
X0108036Y0090450D01*
X0104985Y0090450D01*
X0104226Y0091208D01*
X0103160Y0091650D01*
X0102006Y0091650D01*
X0100941Y0091208D01*
X0100125Y0090393D01*
X0099683Y0089327D01*
X0099683Y0088173D01*
X0100125Y0087107D01*
X0100941Y0086291D01*
X0102006Y0085850D01*
X0103160Y0085850D01*
X0104226Y0086291D01*
X0104985Y0087050D01*
X0108036Y0087050D01*
X0108582Y0086503D01*
X0109194Y0086250D01*
X0108582Y0085997D01*
X0107837Y0085251D01*
X0107795Y0085150D01*
X0101642Y0085150D01*
X0101542Y0085393D01*
X0100726Y0086208D01*
X0099660Y0086650D01*
X0098506Y0086650D01*
X0097441Y0086208D01*
X0096625Y0085393D01*
X0096183Y0084327D01*
X0096183Y0083173D01*
X0096625Y0082107D01*
X0097441Y0081291D01*
X0098506Y0080850D01*
X0099660Y0080850D01*
X0100726Y0081291D01*
X0101542Y0082107D01*
X0101642Y0082350D01*
X0107795Y0082350D01*
X0107837Y0082249D01*
X0108582Y0081503D01*
X0109194Y0081250D01*
X0108582Y0080997D01*
X0108036Y0080450D01*
X0104985Y0080450D01*
X0104226Y0081208D01*
X0103160Y0081650D01*
X0102006Y0081650D01*
X0100941Y0081208D01*
X0100125Y0080393D01*
X0099683Y0079327D01*
X0099683Y0078173D01*
X0100125Y0077107D01*
X0100941Y0076291D01*
X0102006Y0075850D01*
X0103160Y0075850D01*
X0104226Y0076291D01*
X0104985Y0077050D01*
X0106703Y0077050D01*
X0106449Y0076945D01*
X0105389Y0075885D01*
X0104815Y0074500D01*
X0104815Y0073000D01*
X0105389Y0071615D01*
X0106449Y0070555D01*
X0107834Y0069981D01*
X0109333Y0069981D01*
X0110718Y0070555D01*
X0111778Y0071615D01*
X0112352Y0073000D01*
X0112352Y0074500D01*
X0111778Y0075885D01*
X0111284Y0076379D01*
X0111584Y0076503D01*
X0112330Y0077249D01*
X0112583Y0077861D01*
X0112837Y0077249D01*
X0113582Y0076503D01*
X0113883Y0076379D01*
X0113389Y0075885D01*
X0112815Y0074500D01*
X0112815Y0073000D01*
X0113389Y0071615D01*
X0114449Y0070555D01*
X0115834Y0069981D01*
X0117333Y0069981D01*
X0118718Y0070555D01*
X0119778Y0071615D01*
X0120352Y0073000D01*
X0120352Y0074500D01*
X0119778Y0075885D01*
X0118718Y0076945D01*
X0117426Y0077480D01*
X0117733Y0078223D01*
X0117733Y0079277D01*
X0117330Y0080251D01*
X0116584Y0080997D01*
X0115973Y0081250D01*
X0116584Y0081503D01*
X0117330Y0082249D01*
X0117733Y0083223D01*
X0117733Y0084277D01*
X0117330Y0085251D01*
X0116584Y0085997D01*
X0115973Y0086250D01*
X0116584Y0086503D01*
X0117330Y0087249D01*
X0117733Y0088223D01*
X0117733Y0089277D01*
X0117330Y0090251D01*
X0116584Y0090997D01*
X0115973Y0091250D01*
X0116584Y0091503D01*
X0117131Y0092050D01*
X0120182Y0092050D01*
X0120941Y0091291D01*
X0122006Y0090850D01*
X0123160Y0090850D01*
X0124226Y0091291D01*
X0125042Y0092107D01*
X0125483Y0093173D01*
X0125483Y0094327D01*
X0125042Y0095393D01*
X0124226Y0096208D01*
X0123160Y0096650D01*
X0122006Y0096650D01*
X0120941Y0096208D01*
X0120182Y0095450D01*
X0117131Y0095450D01*
X0116584Y0095997D01*
X0115973Y0096250D01*
X0116584Y0096503D01*
X0117330Y0097249D01*
X0117372Y0097350D01*
X0128163Y0097350D01*
X0146510Y0115696D01*
X0151818Y0115696D01*
X0151818Y0114672D01*
X0152462Y0114028D01*
X0157704Y0114028D01*
X0158349Y0114672D01*
X0158349Y0115696D01*
X0159318Y0115696D01*
X0159318Y0114672D01*
X0159962Y0114028D01*
X0165204Y0114028D01*
X0165849Y0114672D01*
X0165849Y0115696D01*
X0167015Y0115696D01*
X0167015Y0114475D01*
X0167659Y0113831D01*
X0172507Y0113831D01*
X0173152Y0114475D01*
X0173152Y0118185D01*
X0177317Y0122350D01*
X0185024Y0122350D01*
X0185125Y0122107D01*
X0185941Y0121291D01*
X0187006Y0120850D01*
X0188160Y0120850D01*
X0189226Y0121291D01*
X0190042Y0122107D01*
X0190483Y0123173D01*
X0190483Y0124327D01*
X0190042Y0125393D01*
X0189226Y0126208D01*
X0188160Y0126650D01*
X0187006Y0126650D01*
X0185941Y0126208D01*
X0185125Y0125393D01*
X0185024Y0125150D01*
X0176157Y0125150D01*
X0171369Y0120362D01*
X0167659Y0120362D01*
X0167015Y0119717D01*
X0167015Y0118496D01*
X0165849Y0118496D01*
X0165849Y0119521D01*
X0165204Y0120165D01*
X0159962Y0120165D01*
X0159318Y0119521D01*
X0159318Y0118496D01*
X0158349Y0118496D01*
X0158349Y0119521D01*
X0157704Y0120165D01*
X0152462Y0120165D01*
X0151818Y0119521D01*
X0151818Y0118496D01*
X0145350Y0118496D01*
X0127003Y0100150D01*
X0117372Y0100150D01*
X0117330Y0100251D01*
X0116584Y0100997D01*
X0115610Y0101400D01*
X0115563Y0101400D01*
X0115778Y0101615D01*
X0116352Y0103000D01*
X0116352Y0104500D01*
X0115778Y0105885D01*
X0114718Y0106945D01*
X0113333Y0107518D01*
X0111834Y0107518D01*
X0110449Y0106945D01*
X0109389Y0105885D01*
X0108815Y0104500D01*
X0108815Y0103000D01*
X0109389Y0101615D01*
X0109470Y0101534D01*
X0109252Y0101490D01*
X0108733Y0101276D01*
X0108267Y0100964D01*
X0107870Y0100567D01*
X0107558Y0100100D01*
X0107343Y0099581D01*
X0107237Y0099050D01*
X0109783Y0099050D01*
X0109783Y0098450D01*
X0107237Y0098450D01*
X0107343Y0097919D01*
X0107558Y0097400D01*
X0107870Y0096933D01*
X0108267Y0096536D01*
X0108733Y0096224D01*
X0108933Y0096142D01*
X0108582Y0095997D01*
X0107837Y0095251D01*
X0107795Y0095150D01*
X0100663Y0095150D01*
X0098983Y0096830D01*
X0098983Y0103170D01*
X0108163Y0112350D01*
X0116663Y0112350D01*
X0126183Y0121870D01*
X0126183Y0111309D01*
X0125941Y0111208D01*
X0125125Y0110393D01*
X0124683Y0109327D01*
X0124683Y0108173D01*
X0125125Y0107107D01*
X0125941Y0106291D01*
X0127006Y0105850D01*
X0128160Y0105850D01*
X0129226Y0106291D01*
X0130042Y0107107D01*
X0130483Y0108173D01*
X0130483Y0109327D01*
X0130042Y0110393D01*
X0129226Y0111208D01*
X0128983Y0111309D01*
X0128983Y0121670D01*
X0149672Y0142359D01*
X0149672Y0138216D01*
X0150160Y0137728D01*
X0150160Y0133150D01*
X0144328Y0133150D01*
X0143683Y0132506D01*
X0143683Y0124994D01*
X0144328Y0124350D01*
X0151839Y0124350D01*
X0152483Y0124994D01*
X0152483Y0131170D01*
X0152960Y0131646D01*
X0152960Y0137728D01*
X0153134Y0137903D01*
X0153309Y0137728D01*
X0153309Y0131544D01*
X0154136Y0130718D01*
X0153683Y0129625D01*
X0153683Y0127875D01*
X0154353Y0126258D01*
X0155591Y0125020D01*
X0157208Y0124350D01*
X0158959Y0124350D01*
X0160576Y0125020D01*
X0161813Y0126258D01*
X0162483Y0127875D01*
X0162483Y0129625D01*
X0161813Y0131242D01*
X0160576Y0132480D01*
X0158959Y0133150D01*
X0157208Y0133150D01*
X0156116Y0132698D01*
X0156109Y0132704D01*
X0156109Y0137728D01*
X0156284Y0137903D01*
X0156616Y0137571D01*
X0159102Y0137571D01*
X0159434Y0137903D01*
X0159765Y0137571D01*
X0162252Y0137571D01*
X0162583Y0137903D01*
X0162915Y0137571D01*
X0165401Y0137571D01*
X0165733Y0137903D01*
X0166065Y0137571D01*
X0168551Y0137571D01*
X0168883Y0137903D01*
X0169057Y0137728D01*
X0169057Y0137596D01*
X0169983Y0136670D01*
X0169983Y0133380D01*
X0170803Y0132560D01*
X0176713Y0126650D01*
X0188453Y0126650D01*
X0189273Y0127470D01*
X0217453Y0155650D01*
X0240503Y0155650D01*
X0241221Y0154933D01*
X0239138Y0152850D01*
X0235885Y0152850D01*
X0233483Y0150448D01*
X0233483Y0148849D01*
X0231453Y0146818D01*
X0228309Y0146818D01*
X0227664Y0146174D01*
X0227664Y0141326D01*
X0228309Y0140681D01*
X0231098Y0140681D01*
X0231098Y0136031D01*
X0230474Y0136031D01*
X0229830Y0135387D01*
X0229830Y0132113D01*
X0230474Y0131469D01*
X0235322Y0131469D01*
X0235804Y0131950D01*
X0235972Y0131950D01*
X0235972Y0131326D01*
X0236616Y0130681D01*
X0241858Y0130681D01*
X0242502Y0131326D01*
X0242502Y0136174D01*
X0241858Y0136818D01*
X0236616Y0136818D01*
X0235972Y0136174D01*
X0235972Y0135550D01*
X0235804Y0135550D01*
X0235322Y0136031D01*
X0234698Y0136031D01*
X0234698Y0142527D01*
X0234195Y0143030D01*
X0234195Y0144470D01*
X0235130Y0145405D01*
X0235885Y0144650D01*
X0239282Y0144650D01*
X0241683Y0147052D01*
X0241683Y0150304D01*
X0243123Y0151744D01*
X0248795Y0151744D01*
X0249439Y0152389D01*
X0249439Y0154875D01*
X0249403Y0154911D01*
X0249439Y0154948D01*
X0249439Y0157434D01*
X0249403Y0157470D01*
X0249439Y0157507D01*
X0249439Y0159993D01*
X0249403Y0160030D01*
X0249439Y0160066D01*
X0249439Y0162552D01*
X0249403Y0162589D01*
X0249439Y0162625D01*
X0249439Y0165111D01*
X0248795Y0165755D01*
X0242372Y0165755D01*
X0242284Y0165668D01*
X0241463Y0165668D01*
X0239282Y0167850D01*
X0235885Y0167850D01*
X0233483Y0165448D01*
X0233483Y0162052D01*
X0235685Y0159850D01*
X0215713Y0159850D01*
X0214893Y0159030D01*
X0186713Y0130850D01*
X0178453Y0130850D01*
X0174183Y0135120D01*
X0174183Y0136670D01*
X0175007Y0137494D01*
X0175007Y0137728D01*
X0175494Y0138216D01*
X0175494Y0142359D01*
X0180503Y0137350D01*
X0193163Y0137350D01*
X0193983Y0138170D01*
X0220637Y0164824D01*
X0220637Y0195485D01*
X0221661Y0195485D01*
X0222305Y0196129D01*
X0222305Y0201371D01*
X0221661Y0202015D01*
X0216813Y0202015D01*
X0216168Y0201371D01*
X0216168Y0196129D01*
X0216813Y0195485D01*
X0217837Y0195485D01*
X0217837Y0165983D01*
X0213983Y0162130D01*
X0213983Y0201517D01*
X0217951Y0205485D01*
X0221661Y0205485D01*
X0222305Y0206129D01*
X0222160Y0205984D02*
X0223006Y0205984D01*
X0222861Y0209575D02*
X0222305Y0209575D01*
X0222305Y0210173D02*
X0222861Y0210173D01*
X0222861Y0210772D02*
X0222305Y0210772D01*
X0222305Y0211370D02*
X0222861Y0211370D01*
X0223459Y0211969D02*
X0221707Y0211969D01*
X0219237Y0208750D02*
X0212583Y0202096D01*
X0212583Y0162250D01*
X0191583Y0141250D01*
X0181583Y0141250D01*
X0175083Y0147750D01*
X0162083Y0147750D01*
X0157859Y0143526D01*
X0157859Y0141033D01*
X0161009Y0141033D02*
X0161009Y0143675D01*
X0163083Y0145750D01*
X0172583Y0145750D01*
X0173596Y0145750D01*
X0174083Y0145750D01*
X0181083Y0138750D01*
X0192583Y0138750D01*
X0219237Y0165404D01*
X0219237Y0198750D01*
X0216168Y0198802D02*
X0213983Y0198802D01*
X0213983Y0199400D02*
X0216168Y0199400D01*
X0216168Y0199999D02*
X0213983Y0199999D01*
X0213983Y0200597D02*
X0216168Y0200597D01*
X0216168Y0201196D02*
X0213983Y0201196D01*
X0214261Y0201794D02*
X0216592Y0201794D01*
X0215458Y0202991D02*
X0260783Y0202991D01*
X0260783Y0202393D02*
X0214859Y0202393D01*
X0216057Y0203590D02*
X0260783Y0203590D01*
X0260783Y0204188D02*
X0216655Y0204188D01*
X0217254Y0204787D02*
X0260783Y0204787D01*
X0260783Y0205385D02*
X0217852Y0205385D01*
X0215688Y0207181D02*
X0101132Y0207181D01*
X0100534Y0207779D02*
X0216168Y0207779D01*
X0216168Y0208378D02*
X0099935Y0208378D01*
X0099337Y0208976D02*
X0216168Y0208976D01*
X0216168Y0209575D02*
X0098738Y0209575D01*
X0097583Y0208750D02*
X0090083Y0208750D01*
X0087583Y0206250D01*
X0087583Y0201250D01*
X0085083Y0198750D01*
X0080083Y0198750D01*
X0077583Y0196250D01*
X0077583Y0188750D01*
X0082583Y0183750D01*
X0079689Y0180846D02*
X0064383Y0180846D01*
X0064383Y0180248D02*
X0080325Y0180248D01*
X0079100Y0181445D02*
X0064383Y0181445D01*
X0064383Y0182043D02*
X0078852Y0182043D01*
X0078605Y0182642D02*
X0064383Y0182642D01*
X0064383Y0183240D02*
X0078483Y0183240D01*
X0078483Y0183839D02*
X0064383Y0183839D01*
X0064383Y0184437D02*
X0078483Y0184437D01*
X0078678Y0185036D02*
X0064383Y0185036D01*
X0064383Y0185634D02*
X0078719Y0185634D01*
X0078121Y0186233D02*
X0064383Y0186233D01*
X0064383Y0186831D02*
X0077522Y0186831D01*
X0076923Y0187430D02*
X0064383Y0187430D01*
X0064383Y0188028D02*
X0076325Y0188028D01*
X0076183Y0188627D02*
X0064383Y0188627D01*
X0064383Y0189225D02*
X0076183Y0189225D01*
X0076183Y0189824D02*
X0064383Y0189824D01*
X0064383Y0190422D02*
X0076183Y0190422D01*
X0076183Y0191021D02*
X0064383Y0191021D01*
X0064383Y0191620D02*
X0076183Y0191620D01*
X0076183Y0192218D02*
X0064383Y0192218D01*
X0064383Y0192817D02*
X0076183Y0192817D01*
X0076183Y0193415D02*
X0064383Y0193415D01*
X0064383Y0194014D02*
X0076183Y0194014D01*
X0076183Y0194612D02*
X0064383Y0194612D01*
X0064383Y0195211D02*
X0076183Y0195211D01*
X0076183Y0195809D02*
X0064383Y0195809D01*
X0064383Y0196408D02*
X0076183Y0196408D01*
X0076360Y0197006D02*
X0064383Y0197006D01*
X0064383Y0197605D02*
X0076958Y0197605D01*
X0077557Y0198203D02*
X0064383Y0198203D01*
X0064383Y0198802D02*
X0078155Y0198802D01*
X0078754Y0199400D02*
X0064383Y0199400D01*
X0064383Y0199999D02*
X0079352Y0199999D01*
X0079655Y0200597D02*
X0064383Y0200597D01*
X0064383Y0201196D02*
X0079124Y0201196D01*
X0078754Y0201794D02*
X0064383Y0201794D01*
X0064383Y0202393D02*
X0078503Y0202393D01*
X0078350Y0202991D02*
X0064383Y0202991D01*
X0064383Y0203590D02*
X0082283Y0203590D01*
X0082283Y0204050D02*
X0078283Y0204050D01*
X0078283Y0204088D01*
X0078389Y0204757D01*
X0078598Y0205401D01*
X0078906Y0206004D01*
X0079303Y0206551D01*
X0079782Y0207030D01*
X0080330Y0207428D01*
X0080933Y0207735D01*
X0081576Y0207944D01*
X0082245Y0208050D01*
X0082283Y0208050D01*
X0082283Y0204050D01*
X0082283Y0204188D02*
X0082883Y0204188D01*
X0082883Y0204787D02*
X0082283Y0204787D01*
X0082283Y0205385D02*
X0082883Y0205385D01*
X0082883Y0205984D02*
X0082283Y0205984D01*
X0082283Y0206582D02*
X0082883Y0206582D01*
X0082883Y0207181D02*
X0082283Y0207181D01*
X0082283Y0207779D02*
X0082883Y0207779D01*
X0084097Y0207779D02*
X0087133Y0207779D01*
X0086534Y0207181D02*
X0085177Y0207181D01*
X0085832Y0206582D02*
X0086183Y0206582D01*
X0087731Y0208378D02*
X0064383Y0208378D01*
X0064383Y0208976D02*
X0088330Y0208976D01*
X0088928Y0209575D02*
X0064383Y0209575D01*
X0064383Y0210173D02*
X0216168Y0210173D01*
X0216168Y0210772D02*
X0064383Y0210772D01*
X0064383Y0211370D02*
X0216168Y0211370D01*
X0216766Y0211969D02*
X0064383Y0211969D01*
X0064383Y0207779D02*
X0081069Y0207779D01*
X0079990Y0207181D02*
X0064383Y0207181D01*
X0064383Y0206582D02*
X0079335Y0206582D01*
X0078896Y0205984D02*
X0064383Y0205984D01*
X0064383Y0205385D02*
X0078593Y0205385D01*
X0078399Y0204787D02*
X0064383Y0204787D01*
X0064383Y0204188D02*
X0078299Y0204188D01*
X0082583Y0193750D02*
X0085083Y0193750D01*
X0090083Y0198750D01*
X0097583Y0198750D01*
X0102583Y0193750D01*
X0102583Y0183750D01*
X0117583Y0168750D01*
X0132583Y0168750D01*
X0141009Y0160325D01*
X0144867Y0160325D01*
X0144867Y0163474D02*
X0140359Y0163474D01*
X0132583Y0171250D01*
X0120083Y0171250D01*
X0107583Y0183750D01*
X0107583Y0198750D01*
X0097583Y0208750D01*
X0101731Y0206582D02*
X0215089Y0206582D01*
X0214491Y0205984D02*
X0102329Y0205984D01*
X0102928Y0205385D02*
X0213892Y0205385D01*
X0213294Y0204787D02*
X0103526Y0204787D01*
X0104125Y0204188D02*
X0212695Y0204188D01*
X0212097Y0203590D02*
X0104723Y0203590D01*
X0105322Y0202991D02*
X0164289Y0202991D01*
X0164015Y0202717D02*
X0164015Y0197475D01*
X0164659Y0196831D01*
X0169507Y0196831D01*
X0170152Y0197475D01*
X0170152Y0198080D01*
X0170441Y0197791D01*
X0171506Y0197350D01*
X0172660Y0197350D01*
X0173726Y0197791D01*
X0174015Y0198080D01*
X0174015Y0197475D01*
X0174659Y0196831D01*
X0179507Y0196831D01*
X0180152Y0197475D01*
X0180152Y0202717D01*
X0179507Y0203362D01*
X0174659Y0203362D01*
X0174015Y0202717D01*
X0174015Y0202420D01*
X0173726Y0202708D01*
X0172660Y0203150D01*
X0171506Y0203150D01*
X0170441Y0202708D01*
X0170152Y0202420D01*
X0170152Y0202717D01*
X0169507Y0203362D01*
X0164659Y0203362D01*
X0164015Y0202717D01*
X0164015Y0202393D02*
X0105920Y0202393D01*
X0106519Y0201794D02*
X0164015Y0201794D01*
X0164015Y0201196D02*
X0107118Y0201196D01*
X0107716Y0200597D02*
X0164015Y0200597D01*
X0164015Y0199999D02*
X0108315Y0199999D01*
X0108913Y0199400D02*
X0164015Y0199400D01*
X0164015Y0198802D02*
X0108983Y0198802D01*
X0108983Y0198203D02*
X0164015Y0198203D01*
X0164015Y0197605D02*
X0126884Y0197605D01*
X0126983Y0197506D02*
X0126339Y0198150D01*
X0118828Y0198150D01*
X0118183Y0197506D01*
X0118183Y0189994D01*
X0118828Y0189350D01*
X0126339Y0189350D01*
X0126983Y0189994D01*
X0126983Y0192350D01*
X0148503Y0192350D01*
X0159609Y0181245D01*
X0159609Y0179772D01*
X0159434Y0179597D01*
X0159259Y0179772D01*
X0159259Y0181554D01*
X0156483Y0184330D01*
X0155663Y0185150D01*
X0126766Y0185150D01*
X0126313Y0186242D01*
X0125076Y0187480D01*
X0123459Y0188150D01*
X0121708Y0188150D01*
X0120091Y0187480D01*
X0118853Y0186242D01*
X0118183Y0184625D01*
X0118183Y0182875D01*
X0118853Y0181258D01*
X0120091Y0180020D01*
X0121708Y0179350D01*
X0123459Y0179350D01*
X0125076Y0180020D01*
X0126313Y0181258D01*
X0126766Y0182350D01*
X0154503Y0182350D01*
X0156459Y0180395D01*
X0156459Y0179772D01*
X0156284Y0179597D01*
X0155952Y0179929D01*
X0153466Y0179929D01*
X0153135Y0179597D01*
X0152803Y0179929D01*
X0150317Y0179929D01*
X0149672Y0179284D01*
X0149672Y0173649D01*
X0150317Y0173004D01*
X0152803Y0173004D01*
X0153135Y0173336D01*
X0153466Y0173004D01*
X0155952Y0173004D01*
X0156284Y0173336D01*
X0156616Y0173004D01*
X0159102Y0173004D01*
X0159434Y0173336D01*
X0159765Y0173004D01*
X0162252Y0173004D01*
X0162583Y0173336D01*
X0162758Y0173161D01*
X0162758Y0170905D01*
X0155903Y0164049D01*
X0155660Y0164150D01*
X0154506Y0164150D01*
X0153441Y0163708D01*
X0152625Y0162893D01*
X0152183Y0161827D01*
X0152183Y0160673D01*
X0152625Y0159607D01*
X0153441Y0158791D01*
X0154506Y0158350D01*
X0155660Y0158350D01*
X0156726Y0158791D01*
X0157542Y0159607D01*
X0157983Y0160673D01*
X0157983Y0161827D01*
X0157883Y0162070D01*
X0165558Y0169745D01*
X0165558Y0173161D01*
X0165733Y0173336D01*
X0166065Y0173004D01*
X0168551Y0173004D01*
X0168883Y0173336D01*
X0169214Y0173004D01*
X0171700Y0173004D01*
X0172032Y0173336D01*
X0172364Y0173004D01*
X0174850Y0173004D01*
X0175494Y0173649D01*
X0175494Y0179284D01*
X0175007Y0179772D01*
X0175007Y0180194D01*
X0176420Y0181607D01*
X0179527Y0181607D01*
X0180172Y0182251D01*
X0180172Y0190249D01*
X0179895Y0190526D01*
X0180152Y0190783D01*
X0180152Y0196025D01*
X0179507Y0196669D01*
X0174659Y0196669D01*
X0174015Y0196025D01*
X0174015Y0190783D01*
X0174291Y0190506D01*
X0174035Y0190249D01*
X0174035Y0183181D01*
X0172207Y0181354D01*
X0172207Y0179772D01*
X0172032Y0179597D01*
X0171857Y0179772D01*
X0171857Y0181456D01*
X0170132Y0183181D01*
X0170132Y0190249D01*
X0169875Y0190506D01*
X0170152Y0190783D01*
X0170152Y0196025D01*
X0169507Y0196669D01*
X0164659Y0196669D01*
X0164015Y0196025D01*
X0164015Y0190783D01*
X0164272Y0190526D01*
X0163995Y0190249D01*
X0163995Y0182251D01*
X0164639Y0181607D01*
X0167747Y0181607D01*
X0169057Y0180296D01*
X0169057Y0179772D01*
X0168883Y0179597D01*
X0168551Y0179929D01*
X0166065Y0179929D01*
X0165733Y0179597D01*
X0165401Y0179929D01*
X0162915Y0179929D01*
X0162583Y0179597D01*
X0162409Y0179772D01*
X0162409Y0182405D01*
X0150483Y0194330D01*
X0149663Y0195150D01*
X0126983Y0195150D01*
X0126983Y0197506D01*
X0126983Y0197006D02*
X0164484Y0197006D01*
X0164398Y0196408D02*
X0126983Y0196408D01*
X0126983Y0195809D02*
X0164015Y0195809D01*
X0164015Y0195211D02*
X0126983Y0195211D01*
X0126983Y0192218D02*
X0148635Y0192218D01*
X0149234Y0191620D02*
X0126983Y0191620D01*
X0126983Y0191021D02*
X0149832Y0191021D01*
X0150431Y0190422D02*
X0126983Y0190422D01*
X0126813Y0189824D02*
X0151029Y0189824D01*
X0151628Y0189225D02*
X0108983Y0189225D01*
X0108983Y0188627D02*
X0152226Y0188627D01*
X0152825Y0188028D02*
X0123752Y0188028D01*
X0125126Y0187430D02*
X0153423Y0187430D01*
X0154022Y0186831D02*
X0125724Y0186831D01*
X0126317Y0186233D02*
X0154621Y0186233D01*
X0155219Y0185634D02*
X0126565Y0185634D01*
X0126639Y0182043D02*
X0154810Y0182043D01*
X0155409Y0181445D02*
X0126391Y0181445D01*
X0125902Y0180846D02*
X0156007Y0180846D01*
X0156459Y0180248D02*
X0125304Y0180248D01*
X0124181Y0179649D02*
X0150037Y0179649D01*
X0149672Y0179051D02*
X0141318Y0179051D01*
X0141695Y0178452D02*
X0149672Y0178452D01*
X0149672Y0177854D02*
X0143025Y0177854D01*
X0143624Y0177255D02*
X0149672Y0177255D01*
X0149672Y0176657D02*
X0146450Y0176657D01*
X0147083Y0176058D02*
X0149672Y0176058D01*
X0149672Y0175460D02*
X0147555Y0175460D01*
X0147803Y0174861D02*
X0149672Y0174861D01*
X0149672Y0174263D02*
X0147983Y0174263D01*
X0147983Y0173664D02*
X0149672Y0173664D01*
X0150255Y0173066D02*
X0147980Y0173066D01*
X0147732Y0172467D02*
X0162758Y0172467D01*
X0162758Y0171869D02*
X0147484Y0171869D01*
X0148076Y0171270D02*
X0162758Y0171270D01*
X0162525Y0170672D02*
X0148329Y0170672D01*
X0148329Y0170073D02*
X0161927Y0170073D01*
X0161328Y0169475D02*
X0151584Y0169475D01*
X0152558Y0168876D02*
X0160730Y0168876D01*
X0160131Y0168278D02*
X0153090Y0168278D01*
X0153337Y0167679D02*
X0159533Y0167679D01*
X0158934Y0167081D02*
X0153483Y0167081D01*
X0153483Y0166482D02*
X0158335Y0166482D01*
X0157737Y0165884D02*
X0153363Y0165884D01*
X0153115Y0165285D02*
X0157138Y0165285D01*
X0156540Y0164687D02*
X0152621Y0164687D01*
X0151735Y0164088D02*
X0154357Y0164088D01*
X0153222Y0163489D02*
X0148329Y0163489D01*
X0148329Y0162891D02*
X0152624Y0162891D01*
X0152376Y0162292D02*
X0148329Y0162292D01*
X0148203Y0161694D02*
X0152183Y0161694D01*
X0152183Y0161095D02*
X0148329Y0161095D01*
X0148329Y0160497D02*
X0152256Y0160497D01*
X0152504Y0159898D02*
X0148329Y0159898D01*
X0148329Y0159300D02*
X0152932Y0159300D01*
X0153658Y0158701D02*
X0148046Y0158701D01*
X0148329Y0158103D02*
X0158456Y0158103D01*
X0157858Y0157504D02*
X0148329Y0157504D01*
X0148329Y0156906D02*
X0157259Y0156906D01*
X0156661Y0156307D02*
X0148329Y0156307D01*
X0148106Y0155709D02*
X0156062Y0155709D01*
X0155464Y0155110D02*
X0148329Y0155110D01*
X0148329Y0154512D02*
X0154865Y0154512D01*
X0154267Y0153913D02*
X0148329Y0153913D01*
X0148329Y0153315D02*
X0153668Y0153315D01*
X0153070Y0152716D02*
X0148263Y0152716D01*
X0148329Y0152118D02*
X0152471Y0152118D01*
X0151873Y0151519D02*
X0148329Y0151519D01*
X0148329Y0150921D02*
X0151274Y0150921D01*
X0150676Y0150322D02*
X0148329Y0150322D01*
X0148329Y0149724D02*
X0150077Y0149724D01*
X0149479Y0149125D02*
X0148173Y0149125D01*
X0148329Y0148527D02*
X0148880Y0148527D01*
X0145888Y0145534D02*
X0138847Y0145534D01*
X0138249Y0144936D02*
X0145289Y0144936D01*
X0144691Y0144337D02*
X0137650Y0144337D01*
X0136583Y0145250D02*
X0139060Y0147726D01*
X0144867Y0147726D01*
X0144867Y0150876D02*
X0138957Y0150876D01*
X0136583Y0153250D01*
X0132930Y0153250D01*
X0132583Y0153596D01*
X0132583Y0158850D01*
X0129515Y0157504D02*
X0094233Y0157504D01*
X0094906Y0157226D02*
X0093399Y0157850D01*
X0091768Y0157850D01*
X0090261Y0157226D01*
X0089108Y0156072D01*
X0088483Y0154566D01*
X0088483Y0152934D01*
X0089108Y0151428D01*
X0090261Y0150274D01*
X0091768Y0149650D01*
X0093399Y0149650D01*
X0094906Y0150274D01*
X0096059Y0151428D01*
X0096683Y0152934D01*
X0096683Y0154566D01*
X0096059Y0156072D01*
X0094906Y0157226D01*
X0095226Y0156906D02*
X0129790Y0156906D01*
X0130298Y0156307D02*
X0128869Y0156307D01*
X0128858Y0156318D02*
X0123616Y0156318D01*
X0122972Y0155674D01*
X0122972Y0153184D01*
X0121938Y0152150D01*
X0121006Y0152150D01*
X0119941Y0151708D01*
X0119125Y0150893D01*
X0118683Y0149827D01*
X0118683Y0148673D01*
X0119125Y0147607D01*
X0119941Y0146791D01*
X0121006Y0146350D01*
X0121938Y0146350D01*
X0122972Y0145316D01*
X0122972Y0142826D01*
X0123616Y0142181D01*
X0128858Y0142181D01*
X0129502Y0142826D01*
X0129502Y0147674D01*
X0128858Y0148318D01*
X0125060Y0148318D01*
X0124483Y0148896D01*
X0124483Y0149604D01*
X0125060Y0150181D01*
X0128858Y0150181D01*
X0129502Y0150826D01*
X0129502Y0155674D01*
X0128858Y0156318D01*
X0129468Y0155709D02*
X0129699Y0155709D01*
X0129664Y0155110D02*
X0129502Y0155110D01*
X0129502Y0154512D02*
X0129664Y0154512D01*
X0129664Y0153913D02*
X0129502Y0153913D01*
X0129502Y0153315D02*
X0129664Y0153315D01*
X0129664Y0152716D02*
X0129502Y0152716D01*
X0129502Y0152118D02*
X0129664Y0152118D01*
X0129664Y0151519D02*
X0129502Y0151519D01*
X0129502Y0150921D02*
X0129664Y0150921D01*
X0130168Y0150322D02*
X0128999Y0150322D01*
X0129248Y0147928D02*
X0129918Y0147928D01*
X0129664Y0147330D02*
X0129502Y0147330D01*
X0129502Y0146731D02*
X0129664Y0146731D01*
X0129664Y0146133D02*
X0129502Y0146133D01*
X0129502Y0145534D02*
X0129664Y0145534D01*
X0129664Y0144936D02*
X0129502Y0144936D01*
X0129502Y0144337D02*
X0129664Y0144337D01*
X0129664Y0143739D02*
X0129502Y0143739D01*
X0129502Y0143140D02*
X0129664Y0143140D01*
X0129949Y0142542D02*
X0129218Y0142542D01*
X0130139Y0141943D02*
X0096273Y0141943D01*
X0096059Y0141428D02*
X0096683Y0142934D01*
X0096683Y0144566D01*
X0096059Y0146072D01*
X0094906Y0147226D01*
X0093399Y0147850D01*
X0091768Y0147850D01*
X0090261Y0147226D01*
X0089108Y0146072D01*
X0088483Y0144566D01*
X0088483Y0142934D01*
X0089108Y0141428D01*
X0090261Y0140274D01*
X0091768Y0139650D01*
X0093399Y0139650D01*
X0094906Y0140274D01*
X0096059Y0141428D01*
X0095976Y0141345D02*
X0129659Y0141345D01*
X0129411Y0140746D02*
X0095378Y0140746D01*
X0094600Y0140148D02*
X0129233Y0140148D01*
X0129233Y0139549D02*
X0064383Y0139549D01*
X0064383Y0138951D02*
X0129247Y0138951D01*
X0129495Y0138352D02*
X0064383Y0138352D01*
X0064383Y0137753D02*
X0081535Y0137753D01*
X0081768Y0137850D02*
X0080261Y0137226D01*
X0079108Y0136072D01*
X0078483Y0134566D01*
X0078483Y0132934D01*
X0079108Y0131428D01*
X0080261Y0130274D01*
X0081768Y0129650D01*
X0083399Y0129650D01*
X0084906Y0130274D01*
X0086059Y0131428D01*
X0086683Y0132934D01*
X0086683Y0134566D01*
X0086059Y0136072D01*
X0084906Y0137226D01*
X0083399Y0137850D01*
X0081768Y0137850D01*
X0080190Y0137155D02*
X0064383Y0137155D01*
X0064383Y0136556D02*
X0079592Y0136556D01*
X0079060Y0135958D02*
X0064383Y0135958D01*
X0064383Y0135359D02*
X0078812Y0135359D01*
X0078564Y0134761D02*
X0064383Y0134761D01*
X0064383Y0134162D02*
X0078483Y0134162D01*
X0078483Y0133564D02*
X0064383Y0133564D01*
X0064383Y0132965D02*
X0078483Y0132965D01*
X0078718Y0132367D02*
X0064383Y0132367D01*
X0064383Y0131768D02*
X0078966Y0131768D01*
X0079365Y0131170D02*
X0064383Y0131170D01*
X0064383Y0130571D02*
X0079964Y0130571D01*
X0080988Y0129973D02*
X0064383Y0129973D01*
X0064383Y0129374D02*
X0129728Y0129374D01*
X0129129Y0128776D02*
X0064383Y0128776D01*
X0064383Y0128177D02*
X0128531Y0128177D01*
X0127932Y0127579D02*
X0094054Y0127579D01*
X0093399Y0127850D02*
X0091768Y0127850D01*
X0090261Y0127226D01*
X0089108Y0126072D01*
X0088483Y0124566D01*
X0088483Y0122934D01*
X0089108Y0121428D01*
X0090261Y0120274D01*
X0091768Y0119650D01*
X0093399Y0119650D01*
X0094906Y0120274D01*
X0096059Y0121428D01*
X0096683Y0122934D01*
X0096683Y0124566D01*
X0096059Y0126072D01*
X0094906Y0127226D01*
X0093399Y0127850D01*
X0093399Y0129650D02*
X0091768Y0129650D01*
X0090261Y0130274D01*
X0089108Y0131428D01*
X0088483Y0132934D01*
X0088483Y0134566D01*
X0089108Y0136072D01*
X0090261Y0137226D01*
X0091768Y0137850D01*
X0093399Y0137850D01*
X0094906Y0137226D01*
X0096059Y0136072D01*
X0096683Y0134566D01*
X0096683Y0132934D01*
X0096059Y0131428D01*
X0094906Y0130274D01*
X0093399Y0129650D01*
X0094178Y0129973D02*
X0130326Y0129973D01*
X0130925Y0130571D02*
X0095203Y0130571D01*
X0095801Y0131170D02*
X0131523Y0131170D01*
X0132122Y0131768D02*
X0096200Y0131768D01*
X0096448Y0132367D02*
X0132720Y0132367D01*
X0133319Y0132965D02*
X0096683Y0132965D01*
X0096683Y0133564D02*
X0133917Y0133564D01*
X0134516Y0134162D02*
X0096683Y0134162D01*
X0096602Y0134761D02*
X0135114Y0134761D01*
X0135713Y0135359D02*
X0096354Y0135359D01*
X0096107Y0135958D02*
X0136311Y0135958D01*
X0136910Y0136556D02*
X0133869Y0136556D01*
X0134826Y0137155D02*
X0137508Y0137155D01*
X0138107Y0137753D02*
X0135424Y0137753D01*
X0135672Y0138352D02*
X0138705Y0138352D01*
X0139304Y0138951D02*
X0135920Y0138951D01*
X0135933Y0139549D02*
X0139902Y0139549D01*
X0140501Y0140148D02*
X0135933Y0140148D01*
X0135755Y0140746D02*
X0141099Y0140746D01*
X0141698Y0141345D02*
X0135507Y0141345D01*
X0135028Y0141943D02*
X0142297Y0141943D01*
X0142895Y0142542D02*
X0135911Y0142542D01*
X0136195Y0143140D02*
X0143494Y0143140D01*
X0144092Y0143739D02*
X0136195Y0143739D01*
X0136583Y0145250D02*
X0132930Y0145250D01*
X0132583Y0144904D01*
X0132583Y0139650D01*
X0131298Y0136556D02*
X0095575Y0136556D01*
X0094977Y0137155D02*
X0130341Y0137155D01*
X0129743Y0137753D02*
X0093632Y0137753D01*
X0091535Y0137753D02*
X0083632Y0137753D01*
X0084977Y0137155D02*
X0090190Y0137155D01*
X0089592Y0136556D02*
X0085575Y0136556D01*
X0086107Y0135958D02*
X0089060Y0135958D01*
X0088812Y0135359D02*
X0086354Y0135359D01*
X0086602Y0134761D02*
X0088564Y0134761D01*
X0088483Y0134162D02*
X0086683Y0134162D01*
X0086683Y0133564D02*
X0088483Y0133564D01*
X0088483Y0132965D02*
X0086683Y0132965D01*
X0086448Y0132367D02*
X0088718Y0132367D01*
X0088966Y0131768D02*
X0086200Y0131768D01*
X0085801Y0131170D02*
X0089365Y0131170D01*
X0089964Y0130571D02*
X0085203Y0130571D01*
X0084178Y0129973D02*
X0090988Y0129973D01*
X0091113Y0127579D02*
X0084054Y0127579D01*
X0083399Y0127850D02*
X0081768Y0127850D01*
X0080261Y0127226D01*
X0079108Y0126072D01*
X0078483Y0124566D01*
X0078483Y0122934D01*
X0079108Y0121428D01*
X0080261Y0120274D01*
X0081768Y0119650D01*
X0083399Y0119650D01*
X0084906Y0120274D01*
X0086059Y0121428D01*
X0086683Y0122934D01*
X0086683Y0124566D01*
X0086059Y0126072D01*
X0084906Y0127226D01*
X0083399Y0127850D01*
X0085151Y0126980D02*
X0090015Y0126980D01*
X0089417Y0126382D02*
X0085750Y0126382D01*
X0086179Y0125783D02*
X0088988Y0125783D01*
X0088740Y0125185D02*
X0086427Y0125185D01*
X0086675Y0124586D02*
X0088492Y0124586D01*
X0088483Y0123988D02*
X0086683Y0123988D01*
X0086683Y0123389D02*
X0088483Y0123389D01*
X0088543Y0122791D02*
X0086624Y0122791D01*
X0086376Y0122192D02*
X0088791Y0122192D01*
X0089039Y0121594D02*
X0086128Y0121594D01*
X0085627Y0120995D02*
X0089540Y0120995D01*
X0090138Y0120397D02*
X0085028Y0120397D01*
X0083757Y0119798D02*
X0091410Y0119798D01*
X0093757Y0119798D02*
X0107329Y0119798D01*
X0107336Y0119782D02*
X0107675Y0119274D01*
X0108107Y0118842D01*
X0108615Y0118503D01*
X0109179Y0118269D01*
X0109778Y0118150D01*
X0109883Y0118150D01*
X0109883Y0121050D01*
X0106983Y0121050D01*
X0106983Y0120945D01*
X0107102Y0120346D01*
X0107336Y0119782D01*
X0107092Y0120397D02*
X0095028Y0120397D01*
X0095627Y0120995D02*
X0106983Y0120995D01*
X0106983Y0121450D02*
X0109883Y0121450D01*
X0109883Y0121050D01*
X0110283Y0121050D01*
X0110283Y0118150D01*
X0110389Y0118150D01*
X0110988Y0118269D01*
X0111552Y0118503D01*
X0112059Y0118842D01*
X0112491Y0119274D01*
X0112830Y0119782D01*
X0113064Y0120346D01*
X0113183Y0120945D01*
X0113183Y0121050D01*
X0110283Y0121050D01*
X0110283Y0121450D01*
X0109883Y0121450D01*
X0109883Y0124350D01*
X0109778Y0124350D01*
X0109179Y0124231D01*
X0108615Y0123997D01*
X0108107Y0123658D01*
X0107675Y0123226D01*
X0107336Y0122718D01*
X0107102Y0122154D01*
X0106983Y0121555D01*
X0106983Y0121450D01*
X0106991Y0121594D02*
X0096128Y0121594D01*
X0096376Y0122192D02*
X0107118Y0122192D01*
X0107384Y0122791D02*
X0096624Y0122791D01*
X0096683Y0123389D02*
X0107838Y0123389D01*
X0108601Y0123988D02*
X0096683Y0123988D01*
X0096675Y0124586D02*
X0124940Y0124586D01*
X0125538Y0125185D02*
X0096427Y0125185D01*
X0096179Y0125783D02*
X0126137Y0125783D01*
X0126735Y0126382D02*
X0095750Y0126382D01*
X0095151Y0126980D02*
X0127334Y0126980D01*
X0124341Y0123988D02*
X0111566Y0123988D01*
X0111552Y0123997D02*
X0110988Y0124231D01*
X0110389Y0124350D01*
X0110283Y0124350D01*
X0110283Y0121450D01*
X0113183Y0121450D01*
X0113183Y0121555D01*
X0113064Y0122154D01*
X0112830Y0122718D01*
X0112491Y0123226D01*
X0112059Y0123658D01*
X0111552Y0123997D01*
X0112328Y0123389D02*
X0123743Y0123389D01*
X0123144Y0122791D02*
X0112782Y0122791D01*
X0113048Y0122192D02*
X0122546Y0122192D01*
X0121947Y0121594D02*
X0113176Y0121594D01*
X0113183Y0120995D02*
X0121349Y0120995D01*
X0120750Y0120397D02*
X0113074Y0120397D01*
X0112837Y0119798D02*
X0120152Y0119798D01*
X0119553Y0119200D02*
X0112417Y0119200D01*
X0111699Y0118601D02*
X0118955Y0118601D01*
X0118356Y0118003D02*
X0064383Y0118003D01*
X0064383Y0118601D02*
X0108468Y0118601D01*
X0107750Y0119200D02*
X0064383Y0119200D01*
X0064383Y0119798D02*
X0081410Y0119798D01*
X0080138Y0120397D02*
X0064383Y0120397D01*
X0064383Y0120995D02*
X0079540Y0120995D01*
X0079039Y0121594D02*
X0064383Y0121594D01*
X0064383Y0122192D02*
X0078791Y0122192D01*
X0078543Y0122791D02*
X0064383Y0122791D01*
X0064383Y0123389D02*
X0078483Y0123389D01*
X0078483Y0123988D02*
X0064383Y0123988D01*
X0064383Y0124586D02*
X0078492Y0124586D01*
X0078740Y0125185D02*
X0064383Y0125185D01*
X0064383Y0125783D02*
X0078988Y0125783D01*
X0079417Y0126382D02*
X0064383Y0126382D01*
X0064383Y0126980D02*
X0080015Y0126980D01*
X0081113Y0127579D02*
X0064383Y0127579D01*
X0064383Y0117404D02*
X0080691Y0117404D01*
X0080261Y0117226D02*
X0079108Y0116072D01*
X0078483Y0114566D01*
X0078483Y0112934D01*
X0079108Y0111428D01*
X0080261Y0110274D01*
X0081768Y0109650D01*
X0083399Y0109650D01*
X0084906Y0110274D01*
X0086059Y0111428D01*
X0086683Y0112934D01*
X0086683Y0114566D01*
X0086059Y0116072D01*
X0084906Y0117226D01*
X0083399Y0117850D01*
X0081768Y0117850D01*
X0080261Y0117226D01*
X0079841Y0116806D02*
X0064383Y0116806D01*
X0064383Y0116207D02*
X0079242Y0116207D01*
X0078915Y0115609D02*
X0064383Y0115609D01*
X0064383Y0115010D02*
X0078667Y0115010D01*
X0078483Y0114412D02*
X0064383Y0114412D01*
X0064383Y0113813D02*
X0078483Y0113813D01*
X0078483Y0113215D02*
X0064383Y0113215D01*
X0064383Y0112616D02*
X0078615Y0112616D01*
X0078863Y0112018D02*
X0064383Y0112018D01*
X0064383Y0111419D02*
X0079116Y0111419D01*
X0079715Y0110820D02*
X0064383Y0110820D01*
X0064383Y0110222D02*
X0080387Y0110222D01*
X0084780Y0110222D02*
X0088556Y0110222D01*
X0088483Y0110294D02*
X0089128Y0109650D01*
X0096039Y0109650D01*
X0096683Y0110294D01*
X0096683Y0117206D01*
X0096039Y0117850D01*
X0089128Y0117850D01*
X0088483Y0117206D01*
X0088483Y0110294D01*
X0088483Y0110820D02*
X0085452Y0110820D01*
X0086051Y0111419D02*
X0088483Y0111419D01*
X0088483Y0112018D02*
X0086303Y0112018D01*
X0086551Y0112616D02*
X0088483Y0112616D01*
X0088483Y0113215D02*
X0086683Y0113215D01*
X0086683Y0113813D02*
X0088483Y0113813D01*
X0088483Y0114412D02*
X0086683Y0114412D01*
X0086499Y0115010D02*
X0088483Y0115010D01*
X0088483Y0115609D02*
X0086251Y0115609D01*
X0085924Y0116207D02*
X0088483Y0116207D01*
X0088483Y0116806D02*
X0085326Y0116806D01*
X0084475Y0117404D02*
X0088682Y0117404D01*
X0096485Y0117404D02*
X0117758Y0117404D01*
X0117159Y0116806D02*
X0096683Y0116806D01*
X0096683Y0116207D02*
X0116561Y0116207D01*
X0115962Y0115609D02*
X0096683Y0115609D01*
X0096683Y0115010D02*
X0106863Y0115010D01*
X0106265Y0114412D02*
X0096683Y0114412D01*
X0096683Y0113813D02*
X0105666Y0113813D01*
X0105068Y0113215D02*
X0096683Y0113215D01*
X0096683Y0112616D02*
X0104469Y0112616D01*
X0103871Y0112018D02*
X0096683Y0112018D01*
X0096683Y0111419D02*
X0103272Y0111419D01*
X0102674Y0110820D02*
X0096683Y0110820D01*
X0096611Y0110222D02*
X0102075Y0110222D01*
X0101477Y0109623D02*
X0064383Y0109623D01*
X0064383Y0109025D02*
X0100878Y0109025D01*
X0100280Y0108426D02*
X0064383Y0108426D01*
X0064383Y0107828D02*
X0099681Y0107828D01*
X0099083Y0107229D02*
X0064383Y0107229D01*
X0064383Y0106631D02*
X0098484Y0106631D01*
X0097886Y0106032D02*
X0064383Y0106032D01*
X0064383Y0105434D02*
X0097287Y0105434D01*
X0096689Y0104835D02*
X0064383Y0104835D01*
X0064383Y0104237D02*
X0096183Y0104237D01*
X0096183Y0103638D02*
X0064383Y0103638D01*
X0064383Y0103040D02*
X0096183Y0103040D01*
X0096183Y0102441D02*
X0064383Y0102441D01*
X0064383Y0101843D02*
X0096183Y0101843D01*
X0096183Y0101244D02*
X0064383Y0101244D01*
X0064383Y0100646D02*
X0096183Y0100646D01*
X0096183Y0100047D02*
X0064383Y0100047D01*
X0064383Y0099449D02*
X0096183Y0099449D01*
X0096183Y0098850D02*
X0064383Y0098850D01*
X0064383Y0098252D02*
X0096183Y0098252D01*
X0096183Y0097653D02*
X0064383Y0097653D01*
X0064383Y0097055D02*
X0096183Y0097055D01*
X0096183Y0096456D02*
X0064383Y0096456D01*
X0064383Y0095858D02*
X0096183Y0095858D01*
X0096594Y0095259D02*
X0064383Y0095259D01*
X0064383Y0094661D02*
X0097193Y0094661D01*
X0097791Y0094062D02*
X0064383Y0094062D01*
X0064383Y0093464D02*
X0098390Y0093464D01*
X0098988Y0092865D02*
X0064383Y0092865D01*
X0064383Y0092267D02*
X0107829Y0092267D01*
X0108418Y0091668D02*
X0064383Y0091668D01*
X0064383Y0091070D02*
X0100802Y0091070D01*
X0100203Y0090471D02*
X0064383Y0090471D01*
X0064383Y0089873D02*
X0099909Y0089873D01*
X0099683Y0089274D02*
X0064383Y0089274D01*
X0064383Y0088676D02*
X0099683Y0088676D01*
X0099723Y0088077D02*
X0064383Y0088077D01*
X0064383Y0087479D02*
X0099971Y0087479D01*
X0100352Y0086880D02*
X0064383Y0086880D01*
X0064383Y0086282D02*
X0097617Y0086282D01*
X0096915Y0085683D02*
X0064383Y0085683D01*
X0064383Y0085084D02*
X0096497Y0085084D01*
X0096249Y0084486D02*
X0064383Y0084486D01*
X0064383Y0083887D02*
X0096183Y0083887D01*
X0096183Y0083289D02*
X0064383Y0083289D01*
X0064383Y0082690D02*
X0096383Y0082690D01*
X0096640Y0082092D02*
X0064383Y0082092D01*
X0064383Y0081493D02*
X0075242Y0081493D01*
X0075982Y0081800D02*
X0073023Y0080574D01*
X0070759Y0078310D01*
X0069533Y0075351D01*
X0069533Y0072149D01*
X0070759Y0069190D01*
X0073023Y0066926D01*
X0075982Y0065700D01*
X0079185Y0065700D01*
X0082143Y0066926D01*
X0084408Y0069190D01*
X0085633Y0072149D01*
X0085633Y0075351D01*
X0084408Y0078310D01*
X0082143Y0080574D01*
X0079185Y0081800D01*
X0075982Y0081800D01*
X0073797Y0080895D02*
X0064383Y0080895D01*
X0064383Y0080296D02*
X0072745Y0080296D01*
X0072147Y0079698D02*
X0064383Y0079698D01*
X0064383Y0079099D02*
X0071548Y0079099D01*
X0070950Y0078501D02*
X0064383Y0078501D01*
X0064383Y0077902D02*
X0070590Y0077902D01*
X0070342Y0077304D02*
X0064383Y0077304D01*
X0064383Y0076705D02*
X0070094Y0076705D01*
X0069846Y0076107D02*
X0064383Y0076107D01*
X0064383Y0075508D02*
X0069598Y0075508D01*
X0069533Y0074910D02*
X0064383Y0074910D01*
X0064383Y0074311D02*
X0069533Y0074311D01*
X0069533Y0073713D02*
X0064383Y0073713D01*
X0064383Y0073114D02*
X0069533Y0073114D01*
X0069533Y0072516D02*
X0064383Y0072516D01*
X0064383Y0071917D02*
X0069629Y0071917D01*
X0069877Y0071319D02*
X0064383Y0071319D01*
X0064383Y0070720D02*
X0070125Y0070720D01*
X0070373Y0070122D02*
X0064383Y0070122D01*
X0064383Y0069523D02*
X0070621Y0069523D01*
X0071024Y0068925D02*
X0064383Y0068925D01*
X0064383Y0068326D02*
X0071623Y0068326D01*
X0072221Y0067728D02*
X0064383Y0067728D01*
X0064383Y0067129D02*
X0072820Y0067129D01*
X0073977Y0066531D02*
X0064383Y0066531D01*
X0064383Y0065932D02*
X0075422Y0065932D01*
X0079745Y0065932D02*
X0245422Y0065932D01*
X0245982Y0065700D02*
X0243023Y0066926D01*
X0240759Y0069190D01*
X0239533Y0072149D01*
X0239533Y0075351D01*
X0240759Y0078310D01*
X0243023Y0080574D01*
X0245982Y0081800D01*
X0249185Y0081800D01*
X0252143Y0080574D01*
X0254408Y0078310D01*
X0255633Y0075351D01*
X0255633Y0072149D01*
X0254408Y0069190D01*
X0252143Y0066926D01*
X0249185Y0065700D01*
X0245982Y0065700D01*
X0243977Y0066531D02*
X0081190Y0066531D01*
X0082347Y0067129D02*
X0242820Y0067129D01*
X0242221Y0067728D02*
X0082945Y0067728D01*
X0083544Y0068326D02*
X0241623Y0068326D01*
X0241024Y0068925D02*
X0084142Y0068925D01*
X0084546Y0069523D02*
X0240621Y0069523D01*
X0240373Y0070122D02*
X0117671Y0070122D01*
X0118883Y0070720D02*
X0240125Y0070720D01*
X0239877Y0071319D02*
X0222845Y0071319D01*
X0222438Y0071150D02*
X0224202Y0071881D01*
X0225553Y0073231D01*
X0226283Y0074995D01*
X0226283Y0076905D01*
X0225553Y0078669D01*
X0224202Y0080019D01*
X0222438Y0080750D01*
X0220529Y0080750D01*
X0218764Y0080019D01*
X0217414Y0078669D01*
X0216683Y0076905D01*
X0216683Y0074995D01*
X0217414Y0073231D01*
X0218764Y0071881D01*
X0220529Y0071150D01*
X0222438Y0071150D01*
X0224239Y0071917D02*
X0239629Y0071917D01*
X0239533Y0072516D02*
X0224837Y0072516D01*
X0225436Y0073114D02*
X0239533Y0073114D01*
X0239533Y0073713D02*
X0225752Y0073713D01*
X0226000Y0074311D02*
X0239533Y0074311D01*
X0239533Y0074910D02*
X0226248Y0074910D01*
X0226283Y0075508D02*
X0239598Y0075508D01*
X0239846Y0076107D02*
X0226283Y0076107D01*
X0226283Y0076705D02*
X0240094Y0076705D01*
X0240342Y0077304D02*
X0226118Y0077304D01*
X0225870Y0077902D02*
X0240590Y0077902D01*
X0240950Y0078501D02*
X0225622Y0078501D01*
X0225122Y0079099D02*
X0241548Y0079099D01*
X0242147Y0079698D02*
X0224524Y0079698D01*
X0223533Y0080296D02*
X0242745Y0080296D01*
X0243797Y0080895D02*
X0116686Y0080895D01*
X0116560Y0081493D02*
X0245242Y0081493D01*
X0249925Y0081493D02*
X0260783Y0081493D01*
X0260783Y0080895D02*
X0251370Y0080895D01*
X0252421Y0080296D02*
X0260783Y0080296D01*
X0260783Y0079698D02*
X0253020Y0079698D01*
X0253618Y0079099D02*
X0260783Y0079099D01*
X0260783Y0078501D02*
X0254217Y0078501D01*
X0254577Y0077902D02*
X0260783Y0077902D01*
X0260783Y0077304D02*
X0254825Y0077304D01*
X0255072Y0076705D02*
X0260783Y0076705D01*
X0260783Y0076107D02*
X0255320Y0076107D01*
X0255568Y0075508D02*
X0260783Y0075508D01*
X0260783Y0074910D02*
X0255633Y0074910D01*
X0255633Y0074311D02*
X0260783Y0074311D01*
X0260783Y0073713D02*
X0255633Y0073713D01*
X0255633Y0073114D02*
X0260783Y0073114D01*
X0260783Y0072516D02*
X0255633Y0072516D01*
X0255537Y0071917D02*
X0260783Y0071917D01*
X0260783Y0071319D02*
X0255290Y0071319D01*
X0255042Y0070720D02*
X0260783Y0070720D01*
X0260783Y0070122D02*
X0254794Y0070122D01*
X0254546Y0069523D02*
X0260783Y0069523D01*
X0260783Y0068925D02*
X0254142Y0068925D01*
X0253544Y0068326D02*
X0260783Y0068326D01*
X0260783Y0067728D02*
X0252945Y0067728D01*
X0252347Y0067129D02*
X0260783Y0067129D01*
X0260783Y0066531D02*
X0251190Y0066531D01*
X0249745Y0065932D02*
X0260783Y0065932D01*
X0260783Y0065334D02*
X0064383Y0065334D01*
X0064383Y0064735D02*
X0260783Y0064735D01*
X0260783Y0064137D02*
X0064383Y0064137D01*
X0064383Y0063538D02*
X0260783Y0063538D01*
X0260783Y0062940D02*
X0064383Y0062940D01*
X0064383Y0062341D02*
X0260783Y0062341D01*
X0260783Y0061743D02*
X0064383Y0061743D01*
X0064383Y0061144D02*
X0260783Y0061144D01*
X0260783Y0082092D02*
X0117173Y0082092D01*
X0117513Y0082690D02*
X0260783Y0082690D01*
X0260783Y0083289D02*
X0117733Y0083289D01*
X0117733Y0083887D02*
X0260783Y0083887D01*
X0260783Y0084486D02*
X0117647Y0084486D01*
X0117399Y0085084D02*
X0260783Y0085084D01*
X0260783Y0085683D02*
X0116898Y0085683D01*
X0116049Y0086282D02*
X0183465Y0086282D01*
X0183441Y0086291D02*
X0184506Y0085850D01*
X0185660Y0085850D01*
X0186726Y0086291D01*
X0187542Y0087107D01*
X0187983Y0088173D01*
X0187983Y0089327D01*
X0187542Y0090393D01*
X0186883Y0091051D01*
X0186883Y0092138D01*
X0187507Y0092138D01*
X0188152Y0092783D01*
X0188152Y0098025D01*
X0187507Y0098669D01*
X0182659Y0098669D01*
X0182015Y0098025D01*
X0182015Y0092783D01*
X0182659Y0092138D01*
X0183283Y0092138D01*
X0183283Y0091051D01*
X0182625Y0090393D01*
X0182183Y0089327D01*
X0182183Y0088173D01*
X0182625Y0087107D01*
X0183441Y0086291D01*
X0182852Y0086880D02*
X0116961Y0086880D01*
X0117425Y0087479D02*
X0182471Y0087479D01*
X0182223Y0088077D02*
X0117673Y0088077D01*
X0117733Y0088676D02*
X0182183Y0088676D01*
X0182183Y0089274D02*
X0117733Y0089274D01*
X0117487Y0089873D02*
X0182409Y0089873D01*
X0182703Y0090471D02*
X0117110Y0090471D01*
X0116408Y0091070D02*
X0121476Y0091070D01*
X0120564Y0091668D02*
X0116749Y0091668D01*
X0116723Y0095858D02*
X0120590Y0095858D01*
X0121539Y0096456D02*
X0116470Y0096456D01*
X0117136Y0097055D02*
X0151993Y0097055D01*
X0152729Y0096750D02*
X0154638Y0096750D01*
X0156402Y0097481D01*
X0157753Y0098831D01*
X0158483Y0100595D01*
X0158483Y0102505D01*
X0157753Y0104269D01*
X0156483Y0105538D01*
X0156483Y0107335D01*
X0157704Y0107335D01*
X0158349Y0107979D01*
X0158349Y0112828D01*
X0157704Y0113472D01*
X0152462Y0113472D01*
X0151818Y0112828D01*
X0151818Y0107979D01*
X0152462Y0107335D01*
X0153683Y0107335D01*
X0153683Y0106350D01*
X0152729Y0106350D01*
X0150964Y0105619D01*
X0149614Y0104269D01*
X0148883Y0102505D01*
X0148883Y0100595D01*
X0149614Y0098831D01*
X0150964Y0097481D01*
X0152729Y0096750D01*
X0150792Y0097653D02*
X0128466Y0097653D01*
X0129065Y0098252D02*
X0150193Y0098252D01*
X0149606Y0098850D02*
X0129663Y0098850D01*
X0130262Y0099449D02*
X0149358Y0099449D01*
X0149110Y0100047D02*
X0130861Y0100047D01*
X0131459Y0100646D02*
X0148883Y0100646D01*
X0148883Y0101244D02*
X0132058Y0101244D01*
X0132656Y0101843D02*
X0148883Y0101843D01*
X0148883Y0102441D02*
X0133255Y0102441D01*
X0133853Y0103040D02*
X0149105Y0103040D01*
X0149353Y0103638D02*
X0134452Y0103638D01*
X0135050Y0104237D02*
X0149601Y0104237D01*
X0150180Y0104835D02*
X0135649Y0104835D01*
X0136247Y0105434D02*
X0150779Y0105434D01*
X0151962Y0106032D02*
X0136846Y0106032D01*
X0137444Y0106631D02*
X0153683Y0106631D01*
X0153683Y0107229D02*
X0138043Y0107229D01*
X0138641Y0107828D02*
X0151969Y0107828D01*
X0151818Y0108426D02*
X0139240Y0108426D01*
X0139838Y0109025D02*
X0151818Y0109025D01*
X0151818Y0109623D02*
X0140437Y0109623D01*
X0141035Y0110222D02*
X0151818Y0110222D01*
X0151818Y0110820D02*
X0141634Y0110820D01*
X0142232Y0111419D02*
X0151818Y0111419D01*
X0151818Y0112018D02*
X0142831Y0112018D01*
X0143429Y0112616D02*
X0151818Y0112616D01*
X0152205Y0113215D02*
X0144028Y0113215D01*
X0144626Y0113813D02*
X0178419Y0113813D01*
X0178441Y0113791D02*
X0179506Y0113350D01*
X0180660Y0113350D01*
X0180903Y0113451D01*
X0183683Y0110670D01*
X0183683Y0105362D01*
X0182659Y0105362D01*
X0182015Y0104717D01*
X0182015Y0099475D01*
X0182659Y0098831D01*
X0187507Y0098831D01*
X0188152Y0099475D01*
X0188152Y0100696D01*
X0189318Y0100696D01*
X0189318Y0099672D01*
X0189962Y0099028D01*
X0195204Y0099028D01*
X0195849Y0099672D01*
X0195849Y0100696D01*
X0198883Y0100696D01*
X0198883Y0100595D01*
X0199614Y0098831D01*
X0200964Y0097481D01*
X0202729Y0096750D01*
X0204638Y0096750D01*
X0206402Y0097481D01*
X0207753Y0098831D01*
X0208483Y0100595D01*
X0208483Y0102505D01*
X0207753Y0104269D01*
X0206402Y0105619D01*
X0204638Y0106350D01*
X0202729Y0106350D01*
X0200964Y0105619D01*
X0199614Y0104269D01*
X0199294Y0103496D01*
X0195849Y0103496D01*
X0195849Y0104521D01*
X0195204Y0105165D01*
X0189962Y0105165D01*
X0189318Y0104521D01*
X0189318Y0103496D01*
X0188152Y0103496D01*
X0188152Y0104717D01*
X0187507Y0105362D01*
X0186483Y0105362D01*
X0186483Y0111830D01*
X0182883Y0115430D01*
X0182983Y0115673D01*
X0182983Y0116827D01*
X0182542Y0117893D01*
X0181726Y0118708D01*
X0180660Y0119150D01*
X0179506Y0119150D01*
X0178441Y0118708D01*
X0177625Y0117893D01*
X0177183Y0116827D01*
X0177183Y0115673D01*
X0177625Y0114607D01*
X0178441Y0113791D01*
X0177821Y0114412D02*
X0173088Y0114412D01*
X0173152Y0115010D02*
X0177458Y0115010D01*
X0177210Y0115609D02*
X0173152Y0115609D01*
X0173152Y0116207D02*
X0177183Y0116207D01*
X0177183Y0116806D02*
X0173152Y0116806D01*
X0173152Y0117404D02*
X0177422Y0117404D01*
X0177735Y0118003D02*
X0173152Y0118003D01*
X0173568Y0118601D02*
X0178333Y0118601D01*
X0180083Y0116250D02*
X0185083Y0111250D01*
X0185083Y0102096D01*
X0192583Y0102096D01*
X0203137Y0102096D01*
X0203683Y0101550D01*
X0201962Y0106032D02*
X0186483Y0106032D01*
X0186483Y0105434D02*
X0200779Y0105434D01*
X0200180Y0104835D02*
X0195534Y0104835D01*
X0195849Y0104237D02*
X0199601Y0104237D01*
X0199353Y0103638D02*
X0195849Y0103638D01*
X0195849Y0100646D02*
X0198883Y0100646D01*
X0199110Y0100047D02*
X0195849Y0100047D01*
X0195625Y0099449D02*
X0199358Y0099449D01*
X0199606Y0098850D02*
X0187527Y0098850D01*
X0187925Y0098252D02*
X0189459Y0098252D01*
X0189378Y0098170D02*
X0189207Y0097874D01*
X0189118Y0097543D01*
X0189118Y0095704D01*
X0192283Y0095704D01*
X0192283Y0098672D01*
X0190247Y0098672D01*
X0189916Y0098583D01*
X0189620Y0098412D01*
X0189378Y0098170D01*
X0189147Y0097653D02*
X0188152Y0097653D01*
X0188152Y0097055D02*
X0189118Y0097055D01*
X0189118Y0096456D02*
X0188152Y0096456D01*
X0188152Y0095858D02*
X0189118Y0095858D01*
X0189118Y0095104D02*
X0189118Y0093264D01*
X0189207Y0092933D01*
X0189378Y0092637D01*
X0189620Y0092395D01*
X0189916Y0092224D01*
X0190247Y0092135D01*
X0192283Y0092135D01*
X0192283Y0095103D01*
X0192883Y0095103D01*
X0192883Y0092135D01*
X0194920Y0092135D01*
X0195250Y0092224D01*
X0195547Y0092395D01*
X0195789Y0092637D01*
X0195960Y0092933D01*
X0196049Y0093264D01*
X0196049Y0095104D01*
X0192883Y0095104D01*
X0192883Y0095704D01*
X0192283Y0095704D01*
X0192283Y0095104D01*
X0189118Y0095104D01*
X0189118Y0094661D02*
X0188152Y0094661D01*
X0188152Y0095259D02*
X0192283Y0095259D01*
X0192283Y0094661D02*
X0192883Y0094661D01*
X0192883Y0095259D02*
X0260783Y0095259D01*
X0260783Y0094661D02*
X0196049Y0094661D01*
X0196049Y0094062D02*
X0260783Y0094062D01*
X0260783Y0093464D02*
X0196049Y0093464D01*
X0195921Y0092865D02*
X0260783Y0092865D01*
X0260783Y0092267D02*
X0195325Y0092267D01*
X0192883Y0092267D02*
X0192283Y0092267D01*
X0192283Y0092865D02*
X0192883Y0092865D01*
X0192883Y0093464D02*
X0192283Y0093464D01*
X0192283Y0094062D02*
X0192883Y0094062D01*
X0192883Y0095704D02*
X0196049Y0095704D01*
X0196049Y0097543D01*
X0195960Y0097874D01*
X0195789Y0098170D01*
X0195547Y0098412D01*
X0195250Y0098583D01*
X0194920Y0098672D01*
X0192883Y0098672D01*
X0192883Y0095704D01*
X0192883Y0095858D02*
X0192283Y0095858D01*
X0192283Y0096456D02*
X0192883Y0096456D01*
X0192883Y0097055D02*
X0192283Y0097055D01*
X0192283Y0097653D02*
X0192883Y0097653D01*
X0192883Y0098252D02*
X0192283Y0098252D01*
X0189542Y0099449D02*
X0188125Y0099449D01*
X0188152Y0100047D02*
X0189318Y0100047D01*
X0189318Y0100646D02*
X0188152Y0100646D01*
X0188152Y0103638D02*
X0189318Y0103638D01*
X0189318Y0104237D02*
X0188152Y0104237D01*
X0188034Y0104835D02*
X0189633Y0104835D01*
X0186483Y0106631D02*
X0260783Y0106631D01*
X0260783Y0107229D02*
X0186483Y0107229D01*
X0186483Y0107828D02*
X0260783Y0107828D01*
X0260783Y0108426D02*
X0186483Y0108426D01*
X0186483Y0109025D02*
X0260783Y0109025D01*
X0260783Y0109623D02*
X0186483Y0109623D01*
X0186483Y0110222D02*
X0260783Y0110222D01*
X0260783Y0110820D02*
X0186483Y0110820D01*
X0186483Y0111419D02*
X0260783Y0111419D01*
X0260783Y0112018D02*
X0186296Y0112018D01*
X0185697Y0112616D02*
X0260783Y0112616D01*
X0260783Y0113215D02*
X0185099Y0113215D01*
X0184500Y0113813D02*
X0260783Y0113813D01*
X0260783Y0114412D02*
X0183902Y0114412D01*
X0183303Y0115010D02*
X0260783Y0115010D01*
X0260783Y0115609D02*
X0182957Y0115609D01*
X0182983Y0116207D02*
X0229644Y0116207D01*
X0229441Y0116291D02*
X0230506Y0115850D01*
X0231660Y0115850D01*
X0232726Y0116291D01*
X0233542Y0117107D01*
X0233983Y0118173D01*
X0233983Y0119327D01*
X0233542Y0120393D01*
X0233253Y0120681D01*
X0233551Y0120681D01*
X0234195Y0121326D01*
X0234195Y0126174D01*
X0233551Y0126818D01*
X0228309Y0126818D01*
X0227664Y0126174D01*
X0227664Y0126031D01*
X0227614Y0126220D01*
X0227442Y0126517D01*
X0227200Y0126759D01*
X0226904Y0126930D01*
X0226573Y0127018D01*
X0224537Y0127018D01*
X0224537Y0124050D01*
X0223937Y0124050D01*
X0223937Y0127018D01*
X0221900Y0127018D01*
X0221570Y0126930D01*
X0221273Y0126759D01*
X0221031Y0126517D01*
X0220860Y0126220D01*
X0220772Y0125890D01*
X0220772Y0124050D01*
X0223937Y0124050D01*
X0223937Y0123450D01*
X0224537Y0123450D01*
X0224537Y0120481D01*
X0226573Y0120481D01*
X0226904Y0120570D01*
X0227200Y0120741D01*
X0227442Y0120983D01*
X0227614Y0121280D01*
X0227664Y0121469D01*
X0227664Y0121326D01*
X0228309Y0120681D01*
X0228914Y0120681D01*
X0228625Y0120393D01*
X0228183Y0119327D01*
X0228183Y0118173D01*
X0228625Y0117107D01*
X0229441Y0116291D01*
X0228927Y0116806D02*
X0182983Y0116806D01*
X0182744Y0117404D02*
X0228502Y0117404D01*
X0228254Y0118003D02*
X0182432Y0118003D01*
X0181833Y0118601D02*
X0228183Y0118601D01*
X0228183Y0119200D02*
X0174166Y0119200D01*
X0174765Y0119798D02*
X0228379Y0119798D01*
X0228629Y0120397D02*
X0175363Y0120397D01*
X0175962Y0120995D02*
X0186656Y0120995D01*
X0185638Y0121594D02*
X0176560Y0121594D01*
X0177159Y0122192D02*
X0185090Y0122192D01*
X0187583Y0123750D02*
X0176737Y0123750D01*
X0170083Y0117096D01*
X0162583Y0117096D01*
X0155083Y0117096D01*
X0145930Y0117096D01*
X0127583Y0098750D01*
X0115083Y0098750D01*
X0116935Y0100646D02*
X0127499Y0100646D01*
X0128098Y0101244D02*
X0115986Y0101244D01*
X0115872Y0101843D02*
X0128696Y0101843D01*
X0129295Y0102441D02*
X0116120Y0102441D01*
X0116352Y0103040D02*
X0129893Y0103040D01*
X0130492Y0103638D02*
X0116352Y0103638D01*
X0116352Y0104237D02*
X0131090Y0104237D01*
X0131689Y0104835D02*
X0116213Y0104835D01*
X0115965Y0105434D02*
X0132287Y0105434D01*
X0132886Y0106032D02*
X0128601Y0106032D01*
X0129565Y0106631D02*
X0133484Y0106631D01*
X0134083Y0107229D02*
X0130092Y0107229D01*
X0130340Y0107828D02*
X0134681Y0107828D01*
X0135280Y0108426D02*
X0130483Y0108426D01*
X0130483Y0109025D02*
X0135878Y0109025D01*
X0136477Y0109623D02*
X0130360Y0109623D01*
X0130113Y0110222D02*
X0137075Y0110222D01*
X0137674Y0110820D02*
X0129614Y0110820D01*
X0128983Y0111419D02*
X0138272Y0111419D01*
X0138871Y0112018D02*
X0128983Y0112018D01*
X0128983Y0112616D02*
X0139469Y0112616D01*
X0140068Y0113215D02*
X0128983Y0113215D01*
X0128983Y0113813D02*
X0140666Y0113813D01*
X0141265Y0114412D02*
X0128983Y0114412D01*
X0128983Y0115010D02*
X0141863Y0115010D01*
X0142462Y0115609D02*
X0128983Y0115609D01*
X0128983Y0116207D02*
X0143061Y0116207D01*
X0143659Y0116806D02*
X0128983Y0116806D01*
X0128983Y0117404D02*
X0144258Y0117404D01*
X0144856Y0118003D02*
X0128983Y0118003D01*
X0128983Y0118601D02*
X0151818Y0118601D01*
X0151818Y0119200D02*
X0128983Y0119200D01*
X0128983Y0119798D02*
X0152096Y0119798D01*
X0152075Y0124586D02*
X0156638Y0124586D01*
X0155426Y0125185D02*
X0152483Y0125185D01*
X0152483Y0125783D02*
X0154828Y0125783D01*
X0154302Y0126382D02*
X0152483Y0126382D01*
X0152483Y0126980D02*
X0154054Y0126980D01*
X0153806Y0127579D02*
X0152483Y0127579D01*
X0152483Y0128177D02*
X0153683Y0128177D01*
X0153683Y0128776D02*
X0152483Y0128776D01*
X0152483Y0129374D02*
X0153683Y0129374D01*
X0153827Y0129973D02*
X0152483Y0129973D01*
X0152483Y0130571D02*
X0154075Y0130571D01*
X0153684Y0131170D02*
X0152483Y0131170D01*
X0152960Y0131768D02*
X0153309Y0131768D01*
X0153309Y0132367D02*
X0152960Y0132367D01*
X0152960Y0132965D02*
X0153309Y0132965D01*
X0153309Y0133564D02*
X0152960Y0133564D01*
X0152960Y0134162D02*
X0153309Y0134162D01*
X0153309Y0134761D02*
X0152960Y0134761D01*
X0152960Y0135359D02*
X0153309Y0135359D01*
X0153309Y0135958D02*
X0152960Y0135958D01*
X0152960Y0136556D02*
X0153309Y0136556D01*
X0153309Y0137155D02*
X0152960Y0137155D01*
X0152985Y0137753D02*
X0153284Y0137753D01*
X0156135Y0137753D02*
X0156434Y0137753D01*
X0156109Y0137155D02*
X0169498Y0137155D01*
X0169032Y0137753D02*
X0168733Y0137753D01*
X0169983Y0136556D02*
X0156109Y0136556D01*
X0156109Y0135958D02*
X0169983Y0135958D01*
X0169983Y0135359D02*
X0156109Y0135359D01*
X0156109Y0134761D02*
X0169983Y0134761D01*
X0169983Y0134162D02*
X0156109Y0134162D01*
X0156109Y0133564D02*
X0169983Y0133564D01*
X0170398Y0132965D02*
X0159404Y0132965D01*
X0160689Y0132367D02*
X0170997Y0132367D01*
X0171595Y0131768D02*
X0161287Y0131768D01*
X0161844Y0131170D02*
X0172194Y0131170D01*
X0172792Y0130571D02*
X0162091Y0130571D01*
X0162339Y0129973D02*
X0173391Y0129973D01*
X0173989Y0129374D02*
X0162483Y0129374D01*
X0162483Y0128776D02*
X0174588Y0128776D01*
X0175186Y0128177D02*
X0162483Y0128177D01*
X0162361Y0127579D02*
X0175785Y0127579D01*
X0176383Y0126980D02*
X0162113Y0126980D01*
X0161865Y0126382D02*
X0186359Y0126382D01*
X0185515Y0125783D02*
X0161339Y0125783D01*
X0160741Y0125185D02*
X0185039Y0125185D01*
X0188808Y0126382D02*
X0207983Y0126382D01*
X0207983Y0126980D02*
X0188783Y0126980D01*
X0189382Y0127579D02*
X0207983Y0127579D01*
X0207983Y0128177D02*
X0189980Y0128177D01*
X0190579Y0128776D02*
X0212283Y0128776D01*
X0212283Y0129050D02*
X0212283Y0128450D01*
X0207983Y0128450D01*
X0207983Y0125279D01*
X0208072Y0124948D01*
X0208243Y0124652D01*
X0208485Y0124410D01*
X0208782Y0124239D01*
X0209112Y0124150D01*
X0212283Y0124150D01*
X0212283Y0128450D01*
X0212883Y0128450D01*
X0212883Y0124150D01*
X0216054Y0124150D01*
X0216385Y0124239D01*
X0216682Y0124410D01*
X0216924Y0124652D01*
X0217095Y0124948D01*
X0217183Y0125279D01*
X0217183Y0128450D01*
X0212883Y0128450D01*
X0212883Y0129050D01*
X0212283Y0129050D01*
X0207983Y0129050D01*
X0207983Y0132221D01*
X0208072Y0132552D01*
X0208243Y0132848D01*
X0208485Y0133090D01*
X0208782Y0133261D01*
X0209112Y0133350D01*
X0212283Y0133350D01*
X0212283Y0129050D01*
X0212283Y0129374D02*
X0212883Y0129374D01*
X0212883Y0129050D02*
X0212883Y0133350D01*
X0216054Y0133350D01*
X0216385Y0133261D01*
X0216682Y0133090D01*
X0216924Y0132848D01*
X0217095Y0132552D01*
X0217183Y0132221D01*
X0217183Y0129050D01*
X0212883Y0129050D01*
X0212883Y0128776D02*
X0219000Y0128776D01*
X0219000Y0128658D02*
X0219088Y0128327D01*
X0219260Y0128031D01*
X0219502Y0127788D01*
X0219798Y0127617D01*
X0220129Y0127529D01*
X0221978Y0127529D01*
X0221978Y0129719D01*
X0222559Y0129719D01*
X0222559Y0127529D01*
X0224408Y0127529D01*
X0224739Y0127617D01*
X0225035Y0127788D01*
X0225277Y0128031D01*
X0225448Y0128327D01*
X0225537Y0128658D01*
X0225537Y0129719D01*
X0222559Y0129719D01*
X0222559Y0130300D01*
X0225537Y0130300D01*
X0225537Y0131362D01*
X0225448Y0131693D01*
X0225277Y0131989D01*
X0225035Y0132231D01*
X0224739Y0132402D01*
X0224408Y0132491D01*
X0222559Y0132491D01*
X0222559Y0130300D01*
X0221978Y0130300D01*
X0221978Y0129719D01*
X0219000Y0129719D01*
X0219000Y0128658D01*
X0219175Y0128177D02*
X0217183Y0128177D01*
X0217183Y0127579D02*
X0219942Y0127579D01*
X0220953Y0126382D02*
X0217183Y0126382D01*
X0217183Y0126980D02*
X0221758Y0126980D01*
X0221978Y0127579D02*
X0222559Y0127579D01*
X0222559Y0128177D02*
X0221978Y0128177D01*
X0221978Y0128776D02*
X0222559Y0128776D01*
X0222559Y0129374D02*
X0221978Y0129374D01*
X0221978Y0129973D02*
X0217183Y0129973D01*
X0217183Y0130571D02*
X0219000Y0130571D01*
X0219000Y0130300D02*
X0221978Y0130300D01*
X0221978Y0132491D01*
X0220129Y0132491D01*
X0219798Y0132402D01*
X0219502Y0132231D01*
X0219260Y0131989D01*
X0219088Y0131693D01*
X0219000Y0131362D01*
X0219000Y0130300D01*
X0219000Y0131170D02*
X0217183Y0131170D01*
X0217183Y0131768D02*
X0219132Y0131768D01*
X0219737Y0132367D02*
X0217144Y0132367D01*
X0216806Y0132965D02*
X0229830Y0132965D01*
X0229830Y0132367D02*
X0224800Y0132367D01*
X0225405Y0131768D02*
X0230175Y0131768D01*
X0229830Y0133564D02*
X0195367Y0133564D01*
X0194769Y0132965D02*
X0208360Y0132965D01*
X0208022Y0132367D02*
X0194170Y0132367D01*
X0193572Y0131768D02*
X0207983Y0131768D01*
X0207983Y0131170D02*
X0192973Y0131170D01*
X0192375Y0130571D02*
X0207983Y0130571D01*
X0207983Y0129973D02*
X0191776Y0129973D01*
X0191178Y0129374D02*
X0207983Y0129374D01*
X0207983Y0125783D02*
X0189651Y0125783D01*
X0190128Y0125185D02*
X0208009Y0125185D01*
X0208309Y0124586D02*
X0190376Y0124586D01*
X0190483Y0123988D02*
X0223937Y0123988D01*
X0223937Y0123450D02*
X0220772Y0123450D01*
X0220772Y0121610D01*
X0220860Y0121280D01*
X0221031Y0120983D01*
X0221273Y0120741D01*
X0221570Y0120570D01*
X0221900Y0120481D01*
X0223937Y0120481D01*
X0223937Y0123450D01*
X0223937Y0123389D02*
X0224537Y0123389D01*
X0224537Y0122791D02*
X0223937Y0122791D01*
X0223937Y0122192D02*
X0224537Y0122192D01*
X0224537Y0121594D02*
X0223937Y0121594D01*
X0223937Y0120995D02*
X0224537Y0120995D01*
X0227449Y0120995D02*
X0227995Y0120995D01*
X0224537Y0124586D02*
X0223937Y0124586D01*
X0223937Y0125185D02*
X0224537Y0125185D01*
X0224537Y0125783D02*
X0223937Y0125783D01*
X0223937Y0126382D02*
X0224537Y0126382D01*
X0224537Y0126980D02*
X0223937Y0126980D01*
X0224595Y0127579D02*
X0243430Y0127579D01*
X0243625Y0127107D02*
X0244441Y0126291D01*
X0245506Y0125850D01*
X0246660Y0125850D01*
X0247726Y0126291D01*
X0248542Y0127107D01*
X0248983Y0128173D01*
X0248983Y0129327D01*
X0248542Y0130393D01*
X0248253Y0130681D01*
X0248551Y0130681D01*
X0249195Y0131326D01*
X0249195Y0136174D01*
X0248551Y0136818D01*
X0243309Y0136818D01*
X0242664Y0136174D01*
X0242664Y0131326D01*
X0243309Y0130681D01*
X0243914Y0130681D01*
X0243625Y0130393D01*
X0243183Y0129327D01*
X0243183Y0128173D01*
X0243625Y0127107D01*
X0243752Y0126980D02*
X0226716Y0126980D01*
X0227520Y0126382D02*
X0227872Y0126382D01*
X0225362Y0128177D02*
X0243183Y0128177D01*
X0243183Y0128776D02*
X0225537Y0128776D01*
X0225537Y0129374D02*
X0243203Y0129374D01*
X0243451Y0129973D02*
X0222559Y0129973D01*
X0222559Y0130571D02*
X0221978Y0130571D01*
X0221978Y0131170D02*
X0222559Y0131170D01*
X0222559Y0131768D02*
X0221978Y0131768D01*
X0221978Y0132367D02*
X0222559Y0132367D01*
X0225537Y0131170D02*
X0236127Y0131170D01*
X0235972Y0131768D02*
X0235622Y0131768D01*
X0235396Y0135958D02*
X0235972Y0135958D01*
X0236354Y0136556D02*
X0234698Y0136556D01*
X0234698Y0137155D02*
X0253278Y0137155D01*
X0253183Y0136556D02*
X0248813Y0136556D01*
X0249195Y0135958D02*
X0253183Y0135958D01*
X0253272Y0135359D02*
X0249195Y0135359D01*
X0249195Y0134761D02*
X0253520Y0134761D01*
X0253863Y0134162D02*
X0249195Y0134162D01*
X0249195Y0133564D02*
X0254461Y0133564D01*
X0255628Y0132965D02*
X0249195Y0132965D01*
X0249195Y0132367D02*
X0260783Y0132367D01*
X0260783Y0132965D02*
X0257538Y0132965D01*
X0258706Y0133564D02*
X0260783Y0133564D01*
X0260783Y0134162D02*
X0259304Y0134162D01*
X0259647Y0134761D02*
X0260783Y0134761D01*
X0260783Y0135359D02*
X0259895Y0135359D01*
X0259983Y0135958D02*
X0260783Y0135958D01*
X0260783Y0136556D02*
X0259983Y0136556D01*
X0259889Y0137155D02*
X0260783Y0137155D01*
X0260783Y0137753D02*
X0259641Y0137753D01*
X0259290Y0138352D02*
X0260783Y0138352D01*
X0260783Y0131768D02*
X0249195Y0131768D01*
X0249039Y0131170D02*
X0260783Y0131170D01*
X0260783Y0130571D02*
X0248363Y0130571D01*
X0248716Y0129973D02*
X0260783Y0129973D01*
X0260783Y0129374D02*
X0248964Y0129374D01*
X0248983Y0128776D02*
X0260783Y0128776D01*
X0260783Y0128177D02*
X0248983Y0128177D01*
X0248737Y0127579D02*
X0260783Y0127579D01*
X0260783Y0126980D02*
X0248415Y0126980D01*
X0247816Y0126382D02*
X0260783Y0126382D01*
X0260783Y0125783D02*
X0234195Y0125783D01*
X0234195Y0125185D02*
X0260783Y0125185D01*
X0260783Y0124586D02*
X0234195Y0124586D01*
X0234195Y0123988D02*
X0260783Y0123988D01*
X0260783Y0123389D02*
X0234195Y0123389D01*
X0234195Y0122791D02*
X0260783Y0122791D01*
X0260783Y0122192D02*
X0234195Y0122192D01*
X0234195Y0121594D02*
X0260783Y0121594D01*
X0260783Y0120995D02*
X0233864Y0120995D01*
X0233538Y0120397D02*
X0260783Y0120397D01*
X0260783Y0119798D02*
X0233788Y0119798D01*
X0233983Y0119200D02*
X0260783Y0119200D01*
X0260783Y0118601D02*
X0233983Y0118601D01*
X0233913Y0118003D02*
X0260783Y0118003D01*
X0260783Y0117404D02*
X0233665Y0117404D01*
X0233240Y0116806D02*
X0260783Y0116806D01*
X0260783Y0116207D02*
X0232522Y0116207D01*
X0233987Y0126382D02*
X0244350Y0126382D01*
X0243803Y0130571D02*
X0225537Y0130571D01*
X0229830Y0134162D02*
X0195966Y0134162D01*
X0196564Y0134761D02*
X0210716Y0134761D01*
X0210091Y0135020D02*
X0211708Y0134350D01*
X0213459Y0134350D01*
X0215076Y0135020D01*
X0215746Y0135690D01*
X0219363Y0135690D01*
X0219844Y0135209D01*
X0224693Y0135209D01*
X0225337Y0135853D01*
X0225337Y0139127D01*
X0224693Y0139771D01*
X0224068Y0139771D01*
X0224068Y0140681D01*
X0226858Y0140681D01*
X0227502Y0141326D01*
X0227502Y0146174D01*
X0226858Y0146818D01*
X0221616Y0146818D01*
X0220972Y0146174D01*
X0220972Y0143030D01*
X0220468Y0142527D01*
X0220468Y0139771D01*
X0219844Y0139771D01*
X0219363Y0139290D01*
X0216983Y0139290D01*
X0216983Y0139625D01*
X0216313Y0141242D01*
X0215076Y0142480D01*
X0213459Y0143150D01*
X0211708Y0143150D01*
X0210091Y0142480D01*
X0208853Y0141242D01*
X0208183Y0139625D01*
X0208183Y0137875D01*
X0208853Y0136258D01*
X0210091Y0135020D01*
X0209751Y0135359D02*
X0197163Y0135359D01*
X0197761Y0135958D02*
X0209153Y0135958D01*
X0208729Y0136556D02*
X0198360Y0136556D01*
X0198958Y0137155D02*
X0208481Y0137155D01*
X0208234Y0137753D02*
X0199557Y0137753D01*
X0200155Y0138352D02*
X0208183Y0138352D01*
X0208183Y0138951D02*
X0200754Y0138951D01*
X0201352Y0139549D02*
X0208183Y0139549D01*
X0208400Y0140148D02*
X0201951Y0140148D01*
X0202549Y0140746D02*
X0208648Y0140746D01*
X0208955Y0141345D02*
X0203148Y0141345D01*
X0203746Y0141943D02*
X0209554Y0141943D01*
X0210239Y0142542D02*
X0204345Y0142542D01*
X0204943Y0143140D02*
X0211684Y0143140D01*
X0213482Y0143140D02*
X0220972Y0143140D01*
X0220972Y0143739D02*
X0205542Y0143739D01*
X0206140Y0144337D02*
X0220972Y0144337D01*
X0220972Y0144936D02*
X0206739Y0144936D01*
X0207337Y0145534D02*
X0220972Y0145534D01*
X0220972Y0146133D02*
X0207936Y0146133D01*
X0208534Y0146731D02*
X0221529Y0146731D01*
X0220483Y0142542D02*
X0214927Y0142542D01*
X0215613Y0141943D02*
X0220468Y0141943D01*
X0220468Y0141345D02*
X0216211Y0141345D01*
X0216519Y0140746D02*
X0220468Y0140746D01*
X0220468Y0140148D02*
X0216767Y0140148D01*
X0216983Y0139549D02*
X0219622Y0139549D01*
X0219694Y0135359D02*
X0215415Y0135359D01*
X0214451Y0134761D02*
X0229830Y0134761D01*
X0229830Y0135359D02*
X0224843Y0135359D01*
X0225337Y0135958D02*
X0230401Y0135958D01*
X0231098Y0136556D02*
X0225337Y0136556D01*
X0225337Y0137155D02*
X0231098Y0137155D01*
X0231098Y0137753D02*
X0225337Y0137753D01*
X0225337Y0138352D02*
X0231098Y0138352D01*
X0231098Y0138951D02*
X0225337Y0138951D01*
X0224915Y0139549D02*
X0231098Y0139549D01*
X0231098Y0140148D02*
X0224068Y0140148D01*
X0226922Y0140746D02*
X0228244Y0140746D01*
X0227664Y0141345D02*
X0227502Y0141345D01*
X0227502Y0141943D02*
X0227664Y0141943D01*
X0227664Y0142542D02*
X0227502Y0142542D01*
X0227502Y0143140D02*
X0227664Y0143140D01*
X0227664Y0143739D02*
X0227502Y0143739D01*
X0227502Y0144337D02*
X0227664Y0144337D01*
X0227664Y0144936D02*
X0227502Y0144936D01*
X0227502Y0145534D02*
X0227664Y0145534D01*
X0227664Y0146133D02*
X0227502Y0146133D01*
X0226945Y0146731D02*
X0228221Y0146731D01*
X0231964Y0147330D02*
X0209133Y0147330D01*
X0209731Y0147928D02*
X0232562Y0147928D01*
X0233161Y0148527D02*
X0210330Y0148527D01*
X0210928Y0149125D02*
X0233483Y0149125D01*
X0233483Y0149724D02*
X0211527Y0149724D01*
X0212125Y0150322D02*
X0233483Y0150322D01*
X0233956Y0150921D02*
X0212724Y0150921D01*
X0213322Y0151519D02*
X0234554Y0151519D01*
X0235153Y0152118D02*
X0213921Y0152118D01*
X0214519Y0152716D02*
X0235751Y0152716D01*
X0239603Y0153315D02*
X0215118Y0153315D01*
X0215716Y0153913D02*
X0240201Y0153913D01*
X0240800Y0154512D02*
X0216315Y0154512D01*
X0216914Y0155110D02*
X0241043Y0155110D01*
X0241942Y0156191D02*
X0241083Y0157050D01*
X0216873Y0157050D01*
X0187873Y0128050D01*
X0177293Y0128050D01*
X0171383Y0133960D01*
X0171383Y0137250D01*
X0170457Y0138176D01*
X0170457Y0141033D01*
X0173607Y0141033D02*
X0173607Y0138074D01*
X0172783Y0137250D01*
X0172783Y0134540D01*
X0177873Y0129450D01*
X0187293Y0129450D01*
X0216293Y0158450D01*
X0241083Y0158450D01*
X0241383Y0158750D01*
X0245583Y0158750D01*
X0245583Y0156191D02*
X0241942Y0156191D01*
X0242898Y0151519D02*
X0251964Y0151519D01*
X0251964Y0150921D02*
X0242300Y0150921D01*
X0241701Y0150322D02*
X0251964Y0150322D01*
X0252463Y0149724D02*
X0241683Y0149724D01*
X0241683Y0149125D02*
X0252119Y0149125D01*
X0251964Y0148527D02*
X0241683Y0148527D01*
X0241683Y0147928D02*
X0251964Y0147928D01*
X0251964Y0147330D02*
X0241683Y0147330D01*
X0241363Y0146731D02*
X0251964Y0146731D01*
X0251964Y0146133D02*
X0240764Y0146133D01*
X0240166Y0145534D02*
X0251964Y0145534D01*
X0251964Y0144936D02*
X0239567Y0144936D01*
X0235599Y0144936D02*
X0234661Y0144936D01*
X0234195Y0144337D02*
X0251964Y0144337D01*
X0251964Y0143739D02*
X0234195Y0143739D01*
X0234195Y0143140D02*
X0251964Y0143140D01*
X0251964Y0142542D02*
X0234684Y0142542D01*
X0234698Y0141943D02*
X0251964Y0141943D01*
X0251964Y0141345D02*
X0234698Y0141345D01*
X0234698Y0140746D02*
X0251964Y0140746D01*
X0251964Y0140148D02*
X0234698Y0140148D01*
X0234698Y0139549D02*
X0251964Y0139549D01*
X0252016Y0138951D02*
X0234698Y0138951D01*
X0234698Y0138352D02*
X0253877Y0138352D01*
X0253526Y0137753D02*
X0234698Y0137753D01*
X0242120Y0136556D02*
X0243047Y0136556D01*
X0242664Y0135958D02*
X0242502Y0135958D01*
X0242502Y0135359D02*
X0242664Y0135359D01*
X0242664Y0134761D02*
X0242502Y0134761D01*
X0242502Y0134162D02*
X0242664Y0134162D01*
X0242664Y0133564D02*
X0242502Y0133564D01*
X0242502Y0132965D02*
X0242664Y0132965D01*
X0242664Y0132367D02*
X0242502Y0132367D01*
X0242502Y0131768D02*
X0242664Y0131768D01*
X0242820Y0131170D02*
X0242346Y0131170D01*
X0249168Y0152118D02*
X0251964Y0152118D01*
X0251964Y0152716D02*
X0249439Y0152716D01*
X0249439Y0153315D02*
X0251964Y0153315D01*
X0251964Y0153913D02*
X0249439Y0153913D01*
X0249439Y0154512D02*
X0251964Y0154512D01*
X0251964Y0155110D02*
X0249439Y0155110D01*
X0249439Y0155709D02*
X0251964Y0155709D01*
X0251964Y0156307D02*
X0249439Y0156307D01*
X0249439Y0156906D02*
X0251964Y0156906D01*
X0251964Y0157504D02*
X0249437Y0157504D01*
X0249439Y0158103D02*
X0251964Y0158103D01*
X0252444Y0158701D02*
X0249439Y0158701D01*
X0249439Y0159300D02*
X0251964Y0159300D01*
X0251964Y0159898D02*
X0249439Y0159898D01*
X0249439Y0160497D02*
X0251964Y0160497D01*
X0251964Y0161095D02*
X0249439Y0161095D01*
X0249439Y0161694D02*
X0251964Y0161694D01*
X0251964Y0162292D02*
X0249439Y0162292D01*
X0249439Y0162891D02*
X0251964Y0162891D01*
X0251964Y0163489D02*
X0249439Y0163489D01*
X0249439Y0164088D02*
X0251964Y0164088D01*
X0251964Y0164687D02*
X0249439Y0164687D01*
X0249265Y0165285D02*
X0251964Y0165285D01*
X0251964Y0165884D02*
X0241248Y0165884D01*
X0240650Y0166482D02*
X0251964Y0166482D01*
X0251964Y0167081D02*
X0240051Y0167081D01*
X0239453Y0167679D02*
X0252366Y0167679D01*
X0252217Y0168278D02*
X0220637Y0168278D01*
X0220637Y0168876D02*
X0251964Y0168876D01*
X0251964Y0169475D02*
X0220637Y0169475D01*
X0220637Y0170073D02*
X0251964Y0170073D01*
X0251964Y0170672D02*
X0220637Y0170672D01*
X0220637Y0171270D02*
X0251964Y0171270D01*
X0251964Y0171869D02*
X0220637Y0171869D01*
X0220637Y0172467D02*
X0251964Y0172467D01*
X0251964Y0173066D02*
X0220637Y0173066D01*
X0220637Y0173664D02*
X0251964Y0173664D01*
X0251964Y0174263D02*
X0220637Y0174263D01*
X0220637Y0174861D02*
X0251964Y0174861D01*
X0251964Y0175460D02*
X0220637Y0175460D01*
X0220637Y0176058D02*
X0251964Y0176058D01*
X0251964Y0176657D02*
X0220637Y0176657D01*
X0220637Y0177255D02*
X0251964Y0177255D01*
X0251964Y0177854D02*
X0220637Y0177854D01*
X0220637Y0178452D02*
X0251964Y0178452D01*
X0252517Y0179051D02*
X0220637Y0179051D01*
X0220637Y0179649D02*
X0253566Y0179649D01*
X0253318Y0180248D02*
X0220637Y0180248D01*
X0220637Y0180846D02*
X0253183Y0180846D01*
X0253183Y0181445D02*
X0220637Y0181445D01*
X0220637Y0182043D02*
X0253232Y0182043D01*
X0253480Y0182642D02*
X0220637Y0182642D01*
X0220637Y0183240D02*
X0253765Y0183240D01*
X0254364Y0183839D02*
X0220637Y0183839D01*
X0220637Y0184437D02*
X0255394Y0184437D01*
X0257773Y0184437D02*
X0260783Y0184437D01*
X0260783Y0183839D02*
X0258803Y0183839D01*
X0259401Y0183240D02*
X0260783Y0183240D01*
X0260783Y0182642D02*
X0259687Y0182642D01*
X0259935Y0182043D02*
X0260783Y0182043D01*
X0260783Y0181445D02*
X0259983Y0181445D01*
X0259983Y0180846D02*
X0260783Y0180846D01*
X0260783Y0180248D02*
X0259848Y0180248D01*
X0259600Y0179649D02*
X0260783Y0179649D01*
X0260783Y0185036D02*
X0220637Y0185036D01*
X0220637Y0185634D02*
X0260783Y0185634D01*
X0260783Y0186233D02*
X0220637Y0186233D01*
X0220637Y0186831D02*
X0260783Y0186831D01*
X0260783Y0187430D02*
X0220637Y0187430D01*
X0220637Y0188028D02*
X0260783Y0188028D01*
X0260783Y0188627D02*
X0220637Y0188627D01*
X0220637Y0189225D02*
X0260783Y0189225D01*
X0260783Y0189824D02*
X0220637Y0189824D01*
X0220637Y0190422D02*
X0260783Y0190422D01*
X0260783Y0191021D02*
X0220637Y0191021D01*
X0220637Y0191620D02*
X0260783Y0191620D01*
X0260783Y0192218D02*
X0220637Y0192218D01*
X0220637Y0192817D02*
X0260783Y0192817D01*
X0260783Y0193415D02*
X0220637Y0193415D01*
X0220637Y0194014D02*
X0260783Y0194014D01*
X0260783Y0194612D02*
X0220637Y0194612D01*
X0220637Y0195211D02*
X0260783Y0195211D01*
X0260783Y0195809D02*
X0243678Y0195809D01*
X0243998Y0196129D02*
X0243354Y0195485D01*
X0238506Y0195485D01*
X0237861Y0196129D01*
X0237861Y0201371D01*
X0238506Y0202015D01*
X0243354Y0202015D01*
X0243998Y0201371D01*
X0243998Y0200150D01*
X0245024Y0200150D01*
X0245125Y0200393D01*
X0245941Y0201208D01*
X0247006Y0201650D01*
X0248160Y0201650D01*
X0249226Y0201208D01*
X0250042Y0200393D01*
X0250483Y0199327D01*
X0250483Y0198173D01*
X0250042Y0197107D01*
X0249226Y0196291D01*
X0248160Y0195850D01*
X0247006Y0195850D01*
X0245941Y0196291D01*
X0245125Y0197107D01*
X0245024Y0197350D01*
X0243998Y0197350D01*
X0243998Y0196129D01*
X0243998Y0196408D02*
X0245824Y0196408D01*
X0245226Y0197006D02*
X0243998Y0197006D01*
X0240930Y0198750D02*
X0247583Y0198750D01*
X0250248Y0197605D02*
X0260783Y0197605D01*
X0260783Y0198203D02*
X0250483Y0198203D01*
X0250483Y0198802D02*
X0260783Y0198802D01*
X0260783Y0199400D02*
X0250453Y0199400D01*
X0250205Y0199999D02*
X0260783Y0199999D01*
X0260783Y0200597D02*
X0249837Y0200597D01*
X0249239Y0201196D02*
X0260783Y0201196D01*
X0260783Y0201794D02*
X0243575Y0201794D01*
X0243998Y0201196D02*
X0245928Y0201196D01*
X0245329Y0200597D02*
X0243998Y0200597D01*
X0243853Y0205984D02*
X0246683Y0205984D01*
X0245650Y0206582D02*
X0243998Y0206582D01*
X0243998Y0207181D02*
X0245094Y0207181D01*
X0248483Y0205984D02*
X0260783Y0205984D01*
X0260783Y0206582D02*
X0249517Y0206582D01*
X0250072Y0207181D02*
X0260783Y0207181D01*
X0260783Y0207779D02*
X0250320Y0207779D01*
X0250483Y0208378D02*
X0260783Y0208378D01*
X0260783Y0208976D02*
X0250483Y0208976D01*
X0250381Y0209575D02*
X0260783Y0209575D01*
X0260783Y0210173D02*
X0250133Y0210173D01*
X0249663Y0210772D02*
X0260783Y0210772D01*
X0260783Y0211370D02*
X0248835Y0211370D01*
X0238284Y0201794D02*
X0236882Y0201794D01*
X0236661Y0202015D02*
X0231813Y0202015D01*
X0231168Y0201371D01*
X0231168Y0200150D01*
X0228998Y0200150D01*
X0228998Y0201371D01*
X0228354Y0202015D01*
X0223506Y0202015D01*
X0222861Y0201371D01*
X0222861Y0196129D01*
X0223506Y0195485D01*
X0228354Y0195485D01*
X0228998Y0196129D01*
X0228998Y0197350D01*
X0231168Y0197350D01*
X0231168Y0196129D01*
X0231813Y0195485D01*
X0236661Y0195485D01*
X0237305Y0196129D01*
X0237305Y0201371D01*
X0236661Y0202015D01*
X0237305Y0201196D02*
X0237861Y0201196D01*
X0237861Y0200597D02*
X0237305Y0200597D01*
X0237305Y0199999D02*
X0237861Y0199999D01*
X0237861Y0199400D02*
X0237305Y0199400D01*
X0237305Y0198802D02*
X0237861Y0198802D01*
X0237861Y0198203D02*
X0237305Y0198203D01*
X0237305Y0197605D02*
X0237861Y0197605D01*
X0237861Y0197006D02*
X0237305Y0197006D01*
X0237305Y0196408D02*
X0237861Y0196408D01*
X0238181Y0195809D02*
X0236985Y0195809D01*
X0234237Y0198750D02*
X0225930Y0198750D01*
X0222861Y0198802D02*
X0222305Y0198802D01*
X0222305Y0199400D02*
X0222861Y0199400D01*
X0222861Y0199999D02*
X0222305Y0199999D01*
X0222305Y0200597D02*
X0222861Y0200597D01*
X0222861Y0201196D02*
X0222305Y0201196D01*
X0221882Y0201794D02*
X0223284Y0201794D01*
X0222861Y0198203D02*
X0222305Y0198203D01*
X0222305Y0197605D02*
X0222861Y0197605D01*
X0222861Y0197006D02*
X0222305Y0197006D01*
X0222305Y0196408D02*
X0222861Y0196408D01*
X0223181Y0195809D02*
X0221985Y0195809D01*
X0217837Y0195211D02*
X0213983Y0195211D01*
X0213983Y0195809D02*
X0216488Y0195809D01*
X0216168Y0196408D02*
X0213983Y0196408D01*
X0213983Y0197006D02*
X0216168Y0197006D01*
X0216168Y0197605D02*
X0213983Y0197605D01*
X0213983Y0198203D02*
X0216168Y0198203D01*
X0217837Y0194612D02*
X0213983Y0194612D01*
X0213983Y0194014D02*
X0217837Y0194014D01*
X0217837Y0193415D02*
X0213983Y0193415D01*
X0213983Y0192817D02*
X0217837Y0192817D01*
X0217837Y0192218D02*
X0213983Y0192218D01*
X0213983Y0191620D02*
X0217837Y0191620D01*
X0217837Y0191021D02*
X0213983Y0191021D01*
X0213983Y0190422D02*
X0217837Y0190422D01*
X0217837Y0189824D02*
X0213983Y0189824D01*
X0213983Y0189225D02*
X0217837Y0189225D01*
X0217837Y0188627D02*
X0213983Y0188627D01*
X0213983Y0188028D02*
X0217837Y0188028D01*
X0217837Y0187430D02*
X0213983Y0187430D01*
X0213983Y0186831D02*
X0217837Y0186831D01*
X0217837Y0186233D02*
X0213983Y0186233D01*
X0213983Y0185634D02*
X0217837Y0185634D01*
X0217837Y0185036D02*
X0213983Y0185036D01*
X0213983Y0184437D02*
X0217837Y0184437D01*
X0217837Y0183839D02*
X0213983Y0183839D01*
X0213983Y0183240D02*
X0217837Y0183240D01*
X0217837Y0182642D02*
X0213983Y0182642D01*
X0213983Y0182043D02*
X0217837Y0182043D01*
X0217837Y0181445D02*
X0213983Y0181445D01*
X0213983Y0180846D02*
X0217837Y0180846D01*
X0217837Y0180248D02*
X0213983Y0180248D01*
X0213983Y0179649D02*
X0217837Y0179649D01*
X0217837Y0179051D02*
X0213983Y0179051D01*
X0213983Y0178452D02*
X0217837Y0178452D01*
X0217837Y0177854D02*
X0213983Y0177854D01*
X0213983Y0177255D02*
X0217837Y0177255D01*
X0217837Y0176657D02*
X0213983Y0176657D01*
X0213983Y0176058D02*
X0217837Y0176058D01*
X0217837Y0175460D02*
X0213983Y0175460D01*
X0213983Y0174861D02*
X0217837Y0174861D01*
X0217837Y0174263D02*
X0213983Y0174263D01*
X0213983Y0173664D02*
X0217837Y0173664D01*
X0217837Y0173066D02*
X0213983Y0173066D01*
X0213983Y0172467D02*
X0217837Y0172467D01*
X0217837Y0171869D02*
X0213983Y0171869D01*
X0213983Y0171270D02*
X0217837Y0171270D01*
X0217837Y0170672D02*
X0213983Y0170672D01*
X0213983Y0170073D02*
X0217837Y0170073D01*
X0217837Y0169475D02*
X0213983Y0169475D01*
X0213983Y0168876D02*
X0217837Y0168876D01*
X0217837Y0168278D02*
X0213983Y0168278D01*
X0213983Y0167679D02*
X0217837Y0167679D01*
X0217837Y0167081D02*
X0213983Y0167081D01*
X0213983Y0166482D02*
X0217837Y0166482D01*
X0217737Y0165884D02*
X0213983Y0165884D01*
X0213983Y0165285D02*
X0217138Y0165285D01*
X0216540Y0164687D02*
X0213983Y0164687D01*
X0213983Y0164088D02*
X0215941Y0164088D01*
X0215343Y0163489D02*
X0213983Y0163489D01*
X0213983Y0162891D02*
X0214744Y0162891D01*
X0214146Y0162292D02*
X0213983Y0162292D01*
X0211183Y0162891D02*
X0193652Y0162891D01*
X0193652Y0162292D02*
X0210646Y0162292D01*
X0210047Y0161694D02*
X0193652Y0161694D01*
X0193652Y0161095D02*
X0209449Y0161095D01*
X0208850Y0160497D02*
X0193652Y0160497D01*
X0193652Y0159898D02*
X0208252Y0159898D01*
X0207653Y0159300D02*
X0193652Y0159300D01*
X0193652Y0158701D02*
X0207055Y0158701D01*
X0206456Y0158103D02*
X0193652Y0158103D01*
X0193181Y0157504D02*
X0195539Y0157504D01*
X0194941Y0156906D02*
X0193270Y0156906D01*
X0193652Y0156307D02*
X0194342Y0156307D01*
X0199627Y0157504D02*
X0205858Y0157504D01*
X0205259Y0156906D02*
X0200226Y0156906D01*
X0200824Y0156307D02*
X0204661Y0156307D01*
X0204062Y0155709D02*
X0201423Y0155709D01*
X0201683Y0155110D02*
X0203464Y0155110D01*
X0202865Y0154512D02*
X0201683Y0154512D01*
X0201683Y0153913D02*
X0202267Y0153913D01*
X0206135Y0150322D02*
X0206186Y0150322D01*
X0206734Y0150921D02*
X0206784Y0150921D01*
X0207332Y0151519D02*
X0207383Y0151519D01*
X0207931Y0152118D02*
X0207981Y0152118D01*
X0208530Y0152716D02*
X0208580Y0152716D01*
X0209128Y0153315D02*
X0209178Y0153315D01*
X0209727Y0153913D02*
X0209777Y0153913D01*
X0210325Y0154512D02*
X0210375Y0154512D01*
X0210924Y0155110D02*
X0210974Y0155110D01*
X0211522Y0155709D02*
X0211572Y0155709D01*
X0212121Y0156307D02*
X0212171Y0156307D01*
X0212719Y0156906D02*
X0212769Y0156906D01*
X0213318Y0157504D02*
X0213368Y0157504D01*
X0213916Y0158103D02*
X0213966Y0158103D01*
X0214515Y0158701D02*
X0214565Y0158701D01*
X0214893Y0159030D02*
X0214893Y0159030D01*
X0215113Y0159300D02*
X0215163Y0159300D01*
X0215712Y0159898D02*
X0235637Y0159898D01*
X0235038Y0160497D02*
X0216310Y0160497D01*
X0216909Y0161095D02*
X0234440Y0161095D01*
X0233841Y0161694D02*
X0217507Y0161694D01*
X0218106Y0162292D02*
X0233483Y0162292D01*
X0233483Y0162891D02*
X0218704Y0162891D01*
X0219303Y0163489D02*
X0233483Y0163489D01*
X0233483Y0164088D02*
X0219901Y0164088D01*
X0220500Y0164687D02*
X0233483Y0164687D01*
X0233483Y0165285D02*
X0220637Y0165285D01*
X0220637Y0165884D02*
X0233919Y0165884D01*
X0234517Y0166482D02*
X0220637Y0166482D01*
X0220637Y0167081D02*
X0235116Y0167081D01*
X0235714Y0167679D02*
X0220637Y0167679D01*
X0211183Y0167679D02*
X0190548Y0167679D01*
X0190849Y0168278D02*
X0211183Y0168278D01*
X0211183Y0168876D02*
X0190849Y0168876D01*
X0190849Y0169475D02*
X0211183Y0169475D01*
X0211183Y0170073D02*
X0190849Y0170073D01*
X0190849Y0170672D02*
X0211183Y0170672D01*
X0211183Y0171270D02*
X0190849Y0171270D01*
X0190849Y0171869D02*
X0211183Y0171869D01*
X0211183Y0172467D02*
X0190849Y0172467D01*
X0190611Y0173066D02*
X0211183Y0173066D01*
X0211183Y0173664D02*
X0175494Y0173664D01*
X0175494Y0174263D02*
X0184445Y0174263D01*
X0184378Y0174330D02*
X0184620Y0174088D01*
X0184916Y0173917D01*
X0185247Y0173828D01*
X0187283Y0173828D01*
X0187283Y0176796D01*
X0187883Y0176796D01*
X0187883Y0173828D01*
X0189920Y0173828D01*
X0190250Y0173917D01*
X0190547Y0174088D01*
X0190789Y0174330D01*
X0190960Y0174626D01*
X0191049Y0174957D01*
X0191049Y0176796D01*
X0187883Y0176796D01*
X0187883Y0177396D01*
X0191049Y0177396D01*
X0191049Y0179236D01*
X0190960Y0179567D01*
X0190789Y0179863D01*
X0190547Y0180105D01*
X0190250Y0180276D01*
X0189920Y0180365D01*
X0187883Y0180365D01*
X0187883Y0177396D01*
X0187283Y0177396D01*
X0187283Y0176796D01*
X0184118Y0176796D01*
X0184118Y0174957D01*
X0184207Y0174626D01*
X0184378Y0174330D01*
X0184144Y0174861D02*
X0175494Y0174861D01*
X0175494Y0175460D02*
X0184118Y0175460D01*
X0184118Y0176058D02*
X0175494Y0176058D01*
X0175494Y0176657D02*
X0184118Y0176657D01*
X0184118Y0177396D02*
X0184118Y0179236D01*
X0184207Y0179567D01*
X0184378Y0179863D01*
X0184620Y0180105D01*
X0184916Y0180276D01*
X0185247Y0180365D01*
X0187283Y0180365D01*
X0187283Y0177396D01*
X0184118Y0177396D01*
X0184118Y0177854D02*
X0175494Y0177854D01*
X0175494Y0178452D02*
X0184118Y0178452D01*
X0184118Y0179051D02*
X0175494Y0179051D01*
X0175129Y0179649D02*
X0184254Y0179649D01*
X0184867Y0180248D02*
X0175061Y0180248D01*
X0175660Y0180846D02*
X0211183Y0180846D01*
X0211183Y0180248D02*
X0190300Y0180248D01*
X0190912Y0179649D02*
X0211183Y0179649D01*
X0211183Y0179051D02*
X0191049Y0179051D01*
X0191049Y0178452D02*
X0211183Y0178452D01*
X0211183Y0177854D02*
X0191049Y0177854D01*
X0191049Y0176657D02*
X0211183Y0176657D01*
X0211183Y0177255D02*
X0187883Y0177255D01*
X0187883Y0176657D02*
X0187283Y0176657D01*
X0187283Y0177255D02*
X0175494Y0177255D01*
X0173607Y0176467D02*
X0173607Y0180774D01*
X0177103Y0184270D01*
X0177103Y0186250D01*
X0177083Y0186270D01*
X0177083Y0193404D01*
X0174015Y0193415D02*
X0170152Y0193415D01*
X0170152Y0192817D02*
X0174015Y0192817D01*
X0174015Y0192218D02*
X0170152Y0192218D01*
X0170152Y0191620D02*
X0174015Y0191620D01*
X0174015Y0191021D02*
X0170152Y0191021D01*
X0169959Y0190422D02*
X0174208Y0190422D01*
X0174035Y0189824D02*
X0170132Y0189824D01*
X0170132Y0189225D02*
X0174035Y0189225D01*
X0174035Y0188627D02*
X0170132Y0188627D01*
X0170132Y0188028D02*
X0174035Y0188028D01*
X0174035Y0187430D02*
X0170132Y0187430D01*
X0170132Y0186831D02*
X0174035Y0186831D01*
X0174035Y0186233D02*
X0170132Y0186233D01*
X0170132Y0185634D02*
X0174035Y0185634D01*
X0174035Y0185036D02*
X0170132Y0185036D01*
X0170132Y0184437D02*
X0174035Y0184437D01*
X0174035Y0183839D02*
X0170132Y0183839D01*
X0170132Y0183240D02*
X0174035Y0183240D01*
X0173495Y0182642D02*
X0170671Y0182642D01*
X0171270Y0182043D02*
X0172897Y0182043D01*
X0172298Y0181445D02*
X0171857Y0181445D01*
X0171857Y0180846D02*
X0172207Y0180846D01*
X0172207Y0180248D02*
X0171857Y0180248D01*
X0171980Y0179649D02*
X0172084Y0179649D01*
X0170457Y0180876D02*
X0170457Y0176467D01*
X0168935Y0179649D02*
X0168830Y0179649D01*
X0169057Y0180248D02*
X0162409Y0180248D01*
X0162409Y0180846D02*
X0168507Y0180846D01*
X0167909Y0181445D02*
X0162409Y0181445D01*
X0162409Y0182043D02*
X0164203Y0182043D01*
X0163995Y0182642D02*
X0162171Y0182642D01*
X0161573Y0183240D02*
X0163995Y0183240D01*
X0163995Y0183839D02*
X0160974Y0183839D01*
X0160376Y0184437D02*
X0163995Y0184437D01*
X0163995Y0185036D02*
X0159777Y0185036D01*
X0159179Y0185634D02*
X0163995Y0185634D01*
X0163995Y0186233D02*
X0158580Y0186233D01*
X0157982Y0186831D02*
X0163995Y0186831D01*
X0163995Y0187430D02*
X0157383Y0187430D01*
X0156785Y0188028D02*
X0163995Y0188028D01*
X0163995Y0188627D02*
X0156186Y0188627D01*
X0155588Y0189225D02*
X0163995Y0189225D01*
X0163995Y0189824D02*
X0154989Y0189824D01*
X0154391Y0190422D02*
X0164169Y0190422D01*
X0164015Y0191021D02*
X0153792Y0191021D01*
X0153194Y0191620D02*
X0164015Y0191620D01*
X0164015Y0192218D02*
X0152595Y0192218D01*
X0151997Y0192817D02*
X0164015Y0192817D01*
X0164015Y0193415D02*
X0151398Y0193415D01*
X0150800Y0194014D02*
X0164015Y0194014D01*
X0164015Y0194612D02*
X0150201Y0194612D01*
X0149083Y0193750D02*
X0122583Y0193750D01*
X0118183Y0194014D02*
X0108983Y0194014D01*
X0108983Y0194612D02*
X0118183Y0194612D01*
X0118183Y0195211D02*
X0108983Y0195211D01*
X0108983Y0195809D02*
X0118183Y0195809D01*
X0118183Y0196408D02*
X0108983Y0196408D01*
X0108983Y0197006D02*
X0118183Y0197006D01*
X0118282Y0197605D02*
X0108983Y0197605D01*
X0108983Y0193415D02*
X0118183Y0193415D01*
X0118183Y0192817D02*
X0108983Y0192817D01*
X0108983Y0192218D02*
X0118183Y0192218D01*
X0118183Y0191620D02*
X0108983Y0191620D01*
X0108983Y0191021D02*
X0118183Y0191021D01*
X0118183Y0190422D02*
X0108983Y0190422D01*
X0108983Y0189824D02*
X0118354Y0189824D01*
X0120041Y0187430D02*
X0108983Y0187430D01*
X0108983Y0188028D02*
X0121415Y0188028D01*
X0119442Y0186831D02*
X0108983Y0186831D01*
X0108983Y0186233D02*
X0118849Y0186233D01*
X0118601Y0185634D02*
X0108983Y0185634D01*
X0108983Y0185036D02*
X0118353Y0185036D01*
X0118183Y0184437D02*
X0108983Y0184437D01*
X0109474Y0183839D02*
X0118183Y0183839D01*
X0118183Y0183240D02*
X0110073Y0183240D01*
X0110671Y0182642D02*
X0118280Y0182642D01*
X0118528Y0182043D02*
X0111270Y0182043D01*
X0111868Y0181445D02*
X0118776Y0181445D01*
X0119264Y0180846D02*
X0112467Y0180846D01*
X0113065Y0180248D02*
X0119863Y0180248D01*
X0120986Y0179649D02*
X0113664Y0179649D01*
X0114262Y0179051D02*
X0128565Y0179051D01*
X0128288Y0178452D02*
X0114861Y0178452D01*
X0115459Y0177854D02*
X0128272Y0177854D01*
X0128272Y0177255D02*
X0116058Y0177255D01*
X0116656Y0176657D02*
X0128272Y0176657D01*
X0128272Y0175950D02*
X0128272Y0174110D01*
X0128360Y0173780D01*
X0128531Y0173483D01*
X0128773Y0173241D01*
X0129070Y0173070D01*
X0129400Y0172981D01*
X0131437Y0172981D01*
X0131437Y0175950D01*
X0128272Y0175950D01*
X0128272Y0175460D02*
X0117854Y0175460D01*
X0118452Y0174861D02*
X0128272Y0174861D01*
X0128272Y0174263D02*
X0119051Y0174263D01*
X0119649Y0173664D02*
X0128427Y0173664D01*
X0129086Y0173066D02*
X0120248Y0173066D01*
X0117255Y0176058D02*
X0131437Y0176058D01*
X0131437Y0175460D02*
X0132037Y0175460D01*
X0132037Y0174861D02*
X0131437Y0174861D01*
X0131437Y0174263D02*
X0132037Y0174263D01*
X0132037Y0173664D02*
X0131437Y0173664D01*
X0131437Y0173066D02*
X0132037Y0173066D01*
X0133346Y0172467D02*
X0141435Y0172467D01*
X0141682Y0171869D02*
X0133945Y0171869D01*
X0134543Y0171270D02*
X0141658Y0171270D01*
X0141405Y0170672D02*
X0135142Y0170672D01*
X0135740Y0170073D02*
X0141405Y0170073D01*
X0141405Y0169475D02*
X0136339Y0169475D01*
X0136937Y0168876D02*
X0141405Y0168876D01*
X0141658Y0168278D02*
X0137536Y0168278D01*
X0138134Y0167679D02*
X0141405Y0167679D01*
X0141405Y0167081D02*
X0138733Y0167081D01*
X0139331Y0166482D02*
X0141405Y0166482D01*
X0141405Y0165884D02*
X0139930Y0165884D01*
X0140528Y0165285D02*
X0141501Y0165285D01*
X0141187Y0173066D02*
X0134387Y0173066D01*
X0135047Y0173664D02*
X0135326Y0173664D01*
X0132037Y0176657D02*
X0131437Y0176657D01*
X0131437Y0177255D02*
X0132037Y0177255D01*
X0132037Y0177854D02*
X0131437Y0177854D01*
X0131437Y0178452D02*
X0132037Y0178452D01*
X0132037Y0179051D02*
X0131437Y0179051D01*
X0134908Y0179051D02*
X0135541Y0179051D01*
X0132583Y0166250D02*
X0115083Y0166250D01*
X0097583Y0183750D01*
X0092583Y0183750D01*
X0090583Y0178750D02*
X0087583Y0181750D01*
X0087583Y0188750D01*
X0092583Y0193750D01*
X0086183Y0181445D02*
X0086066Y0181445D01*
X0086507Y0180846D02*
X0085478Y0180846D01*
X0084842Y0180248D02*
X0087106Y0180248D01*
X0087704Y0179649D02*
X0064383Y0179649D01*
X0064383Y0179051D02*
X0088303Y0179051D01*
X0088901Y0178452D02*
X0064383Y0178452D01*
X0064383Y0177854D02*
X0089500Y0177854D01*
X0090332Y0177255D02*
X0084835Y0177255D01*
X0084906Y0177226D02*
X0083399Y0177850D01*
X0081768Y0177850D01*
X0080261Y0177226D01*
X0079108Y0176072D01*
X0078483Y0174566D01*
X0078483Y0172934D01*
X0079108Y0171428D01*
X0080261Y0170274D01*
X0081768Y0169650D01*
X0083399Y0169650D01*
X0084906Y0170274D01*
X0086059Y0171428D01*
X0086683Y0172934D01*
X0086683Y0174566D01*
X0086059Y0176072D01*
X0084906Y0177226D01*
X0085475Y0176657D02*
X0089692Y0176657D01*
X0089102Y0176058D02*
X0086065Y0176058D01*
X0086313Y0175460D02*
X0088854Y0175460D01*
X0088606Y0174861D02*
X0086561Y0174861D01*
X0086683Y0174263D02*
X0088483Y0174263D01*
X0088483Y0173664D02*
X0086683Y0173664D01*
X0086683Y0173066D02*
X0088483Y0173066D01*
X0088677Y0172467D02*
X0086490Y0172467D01*
X0086242Y0171869D02*
X0088925Y0171869D01*
X0089265Y0171270D02*
X0085902Y0171270D01*
X0085303Y0170672D02*
X0089863Y0170672D01*
X0090746Y0170073D02*
X0084420Y0170073D01*
X0083399Y0167850D02*
X0081768Y0167850D01*
X0080261Y0167226D01*
X0079108Y0166072D01*
X0078483Y0164566D01*
X0078483Y0162934D01*
X0079108Y0161428D01*
X0080261Y0160274D01*
X0081768Y0159650D01*
X0083399Y0159650D01*
X0084906Y0160274D01*
X0086059Y0161428D01*
X0086683Y0162934D01*
X0086683Y0164566D01*
X0086059Y0166072D01*
X0084906Y0167226D01*
X0083399Y0167850D01*
X0083812Y0167679D02*
X0091355Y0167679D01*
X0091768Y0167850D02*
X0090261Y0167226D01*
X0089108Y0166072D01*
X0088483Y0164566D01*
X0088483Y0162934D01*
X0089108Y0161428D01*
X0090261Y0160274D01*
X0091768Y0159650D01*
X0093399Y0159650D01*
X0094906Y0160274D01*
X0096059Y0161428D01*
X0096683Y0162934D01*
X0096683Y0164566D01*
X0096059Y0166072D01*
X0094906Y0167226D01*
X0093399Y0167850D01*
X0091768Y0167850D01*
X0090116Y0167081D02*
X0085051Y0167081D01*
X0085650Y0166482D02*
X0089517Y0166482D01*
X0089029Y0165884D02*
X0086137Y0165884D01*
X0086385Y0165285D02*
X0088781Y0165285D01*
X0088533Y0164687D02*
X0086633Y0164687D01*
X0086683Y0164088D02*
X0088483Y0164088D01*
X0088483Y0163489D02*
X0086683Y0163489D01*
X0086665Y0162891D02*
X0088501Y0162891D01*
X0088749Y0162292D02*
X0086417Y0162292D01*
X0086169Y0161694D02*
X0088997Y0161694D01*
X0089440Y0161095D02*
X0085727Y0161095D01*
X0085129Y0160497D02*
X0090038Y0160497D01*
X0091168Y0159898D02*
X0083999Y0159898D01*
X0083399Y0157850D02*
X0081768Y0157850D01*
X0080261Y0157226D01*
X0079108Y0156072D01*
X0078483Y0154566D01*
X0078483Y0152934D01*
X0079108Y0151428D01*
X0080261Y0150274D01*
X0081768Y0149650D01*
X0083399Y0149650D01*
X0084906Y0150274D01*
X0086059Y0151428D01*
X0086683Y0152934D01*
X0086683Y0154566D01*
X0086059Y0156072D01*
X0084906Y0157226D01*
X0083399Y0157850D01*
X0084233Y0157504D02*
X0090933Y0157504D01*
X0089941Y0156906D02*
X0085226Y0156906D01*
X0085824Y0156307D02*
X0089342Y0156307D01*
X0088957Y0155709D02*
X0086210Y0155709D01*
X0086458Y0155110D02*
X0088709Y0155110D01*
X0088483Y0154512D02*
X0086683Y0154512D01*
X0086683Y0153913D02*
X0088483Y0153913D01*
X0088483Y0153315D02*
X0086683Y0153315D01*
X0086593Y0152716D02*
X0088574Y0152716D01*
X0088822Y0152118D02*
X0086345Y0152118D01*
X0086097Y0151519D02*
X0089070Y0151519D01*
X0089614Y0150921D02*
X0085552Y0150921D01*
X0084954Y0150322D02*
X0090213Y0150322D01*
X0091590Y0149724D02*
X0083577Y0149724D01*
X0083399Y0147850D02*
X0081768Y0147850D01*
X0080261Y0147226D01*
X0079108Y0146072D01*
X0078483Y0144566D01*
X0078483Y0142934D01*
X0079108Y0141428D01*
X0080261Y0140274D01*
X0081768Y0139650D01*
X0083399Y0139650D01*
X0084906Y0140274D01*
X0086059Y0141428D01*
X0086683Y0142934D01*
X0086683Y0144566D01*
X0086059Y0146072D01*
X0084906Y0147226D01*
X0083399Y0147850D01*
X0084655Y0147330D02*
X0090512Y0147330D01*
X0089766Y0146731D02*
X0085400Y0146731D01*
X0085999Y0146133D02*
X0089168Y0146133D01*
X0088885Y0145534D02*
X0086282Y0145534D01*
X0086530Y0144936D02*
X0088637Y0144936D01*
X0088483Y0144337D02*
X0086683Y0144337D01*
X0086683Y0143739D02*
X0088483Y0143739D01*
X0088483Y0143140D02*
X0086683Y0143140D01*
X0086521Y0142542D02*
X0088646Y0142542D01*
X0088894Y0141943D02*
X0086273Y0141943D01*
X0085976Y0141345D02*
X0089190Y0141345D01*
X0089789Y0140746D02*
X0085378Y0140746D01*
X0084600Y0140148D02*
X0090567Y0140148D01*
X0096521Y0142542D02*
X0123256Y0142542D01*
X0122972Y0143140D02*
X0096683Y0143140D01*
X0096683Y0143739D02*
X0122972Y0143739D01*
X0122972Y0144337D02*
X0096683Y0144337D01*
X0096530Y0144936D02*
X0122972Y0144936D01*
X0122754Y0145534D02*
X0096282Y0145534D01*
X0095999Y0146133D02*
X0122155Y0146133D01*
X0120086Y0146731D02*
X0095400Y0146731D01*
X0094655Y0147330D02*
X0119402Y0147330D01*
X0118992Y0147928D02*
X0064383Y0147928D01*
X0064383Y0147330D02*
X0080512Y0147330D01*
X0079766Y0146731D02*
X0064383Y0146731D01*
X0064383Y0146133D02*
X0079168Y0146133D01*
X0078885Y0145534D02*
X0064383Y0145534D01*
X0064383Y0144936D02*
X0078637Y0144936D01*
X0078483Y0144337D02*
X0064383Y0144337D01*
X0064383Y0143739D02*
X0078483Y0143739D01*
X0078483Y0143140D02*
X0064383Y0143140D01*
X0064383Y0142542D02*
X0078646Y0142542D01*
X0078894Y0141943D02*
X0064383Y0141943D01*
X0064383Y0141345D02*
X0079190Y0141345D01*
X0079789Y0140746D02*
X0064383Y0140746D01*
X0064383Y0140148D02*
X0080567Y0140148D01*
X0081590Y0149724D02*
X0064383Y0149724D01*
X0064383Y0150322D02*
X0080213Y0150322D01*
X0079614Y0150921D02*
X0064383Y0150921D01*
X0064383Y0151519D02*
X0079070Y0151519D01*
X0078822Y0152118D02*
X0064383Y0152118D01*
X0064383Y0152716D02*
X0078574Y0152716D01*
X0078483Y0153315D02*
X0064383Y0153315D01*
X0064383Y0153913D02*
X0078483Y0153913D01*
X0078483Y0154512D02*
X0064383Y0154512D01*
X0064383Y0155110D02*
X0078709Y0155110D01*
X0078957Y0155709D02*
X0064383Y0155709D01*
X0064383Y0156307D02*
X0079342Y0156307D01*
X0079941Y0156906D02*
X0064383Y0156906D01*
X0064383Y0157504D02*
X0080933Y0157504D01*
X0081168Y0159898D02*
X0064383Y0159898D01*
X0064383Y0159300D02*
X0129233Y0159300D01*
X0129233Y0158701D02*
X0064383Y0158701D01*
X0064383Y0158103D02*
X0129267Y0158103D01*
X0129392Y0159898D02*
X0093999Y0159898D01*
X0095129Y0160497D02*
X0129640Y0160497D01*
X0130091Y0161095D02*
X0095727Y0161095D01*
X0096169Y0161694D02*
X0130695Y0161694D01*
X0132061Y0162292D02*
X0096417Y0162292D01*
X0096665Y0162891D02*
X0111462Y0162891D01*
X0110864Y0163489D02*
X0096683Y0163489D01*
X0096683Y0164088D02*
X0110265Y0164088D01*
X0109667Y0164687D02*
X0096633Y0164687D01*
X0096385Y0165285D02*
X0109068Y0165285D01*
X0108470Y0165884D02*
X0096137Y0165884D01*
X0095650Y0166482D02*
X0107871Y0166482D01*
X0107273Y0167081D02*
X0095051Y0167081D01*
X0093812Y0167679D02*
X0106674Y0167679D01*
X0106076Y0168278D02*
X0064383Y0168278D01*
X0064383Y0168876D02*
X0105477Y0168876D01*
X0104879Y0169475D02*
X0064383Y0169475D01*
X0064383Y0170073D02*
X0080746Y0170073D01*
X0079863Y0170672D02*
X0064383Y0170672D01*
X0064383Y0171270D02*
X0079265Y0171270D01*
X0078925Y0171869D02*
X0064383Y0171869D01*
X0064383Y0172467D02*
X0078677Y0172467D01*
X0078483Y0173066D02*
X0064383Y0173066D01*
X0064383Y0173664D02*
X0078483Y0173664D01*
X0078483Y0174263D02*
X0064383Y0174263D01*
X0064383Y0174861D02*
X0078606Y0174861D01*
X0078854Y0175460D02*
X0064383Y0175460D01*
X0064383Y0176058D02*
X0079102Y0176058D01*
X0079692Y0176657D02*
X0064383Y0176657D01*
X0064383Y0177255D02*
X0080332Y0177255D01*
X0081355Y0167679D02*
X0064383Y0167679D01*
X0064383Y0167081D02*
X0080116Y0167081D01*
X0079517Y0166482D02*
X0064383Y0166482D01*
X0064383Y0165884D02*
X0079029Y0165884D01*
X0078781Y0165285D02*
X0064383Y0165285D01*
X0064383Y0164687D02*
X0078533Y0164687D01*
X0078483Y0164088D02*
X0064383Y0164088D01*
X0064383Y0163489D02*
X0078483Y0163489D01*
X0078501Y0162891D02*
X0064383Y0162891D01*
X0064383Y0162292D02*
X0078749Y0162292D01*
X0078997Y0161694D02*
X0064383Y0161694D01*
X0064383Y0161095D02*
X0079440Y0161095D01*
X0080038Y0160497D02*
X0064383Y0160497D01*
X0064383Y0149125D02*
X0118683Y0149125D01*
X0118683Y0149724D02*
X0093577Y0149724D01*
X0094954Y0150322D02*
X0118889Y0150322D01*
X0119153Y0150921D02*
X0095552Y0150921D01*
X0096097Y0151519D02*
X0119751Y0151519D01*
X0120929Y0152118D02*
X0096345Y0152118D01*
X0096593Y0152716D02*
X0122504Y0152716D01*
X0122972Y0153315D02*
X0096683Y0153315D01*
X0096683Y0153913D02*
X0122972Y0153913D01*
X0122972Y0154512D02*
X0096683Y0154512D01*
X0096458Y0155110D02*
X0122972Y0155110D01*
X0123006Y0155709D02*
X0096210Y0155709D01*
X0095824Y0156307D02*
X0123605Y0156307D01*
X0124603Y0149724D02*
X0138130Y0149724D01*
X0138479Y0149125D02*
X0124483Y0149125D01*
X0124852Y0148527D02*
X0137880Y0148527D01*
X0137282Y0147928D02*
X0135941Y0147928D01*
X0136195Y0147330D02*
X0136683Y0147330D01*
X0139446Y0146133D02*
X0141755Y0146133D01*
X0137531Y0150322D02*
X0135692Y0150322D01*
X0136195Y0150921D02*
X0136933Y0150921D01*
X0136334Y0151519D02*
X0136195Y0151519D01*
X0132737Y0153250D02*
X0132583Y0153404D01*
X0142308Y0154026D02*
X0132583Y0163750D01*
X0112583Y0163750D01*
X0097583Y0178750D01*
X0090583Y0178750D01*
X0094835Y0177255D02*
X0097098Y0177255D01*
X0097697Y0176657D02*
X0095475Y0176657D01*
X0096065Y0176058D02*
X0098295Y0176058D01*
X0098894Y0175460D02*
X0096313Y0175460D01*
X0096561Y0174861D02*
X0099492Y0174861D01*
X0100091Y0174263D02*
X0096683Y0174263D01*
X0096683Y0173664D02*
X0100689Y0173664D01*
X0101288Y0173066D02*
X0096683Y0173066D01*
X0096490Y0172467D02*
X0101886Y0172467D01*
X0102485Y0171869D02*
X0096242Y0171869D01*
X0095902Y0171270D02*
X0103083Y0171270D01*
X0103682Y0170672D02*
X0095303Y0170672D01*
X0094420Y0170073D02*
X0104280Y0170073D01*
X0122583Y0183750D02*
X0155083Y0183750D01*
X0157859Y0180974D01*
X0157859Y0176467D01*
X0161009Y0176467D02*
X0161009Y0181825D01*
X0149083Y0193750D01*
X0155777Y0185036D02*
X0155818Y0185036D01*
X0156376Y0184437D02*
X0156416Y0184437D01*
X0156974Y0183839D02*
X0157015Y0183839D01*
X0157573Y0183240D02*
X0157613Y0183240D01*
X0158171Y0182642D02*
X0158212Y0182642D01*
X0158770Y0182043D02*
X0158810Y0182043D01*
X0159259Y0181445D02*
X0159409Y0181445D01*
X0159259Y0180846D02*
X0159609Y0180846D01*
X0159609Y0180248D02*
X0159259Y0180248D01*
X0159381Y0179649D02*
X0159486Y0179649D01*
X0162531Y0179649D02*
X0162636Y0179649D01*
X0165681Y0179649D02*
X0165785Y0179649D01*
X0164158Y0176467D02*
X0164158Y0170325D01*
X0155083Y0161250D01*
X0157234Y0159300D02*
X0159653Y0159300D01*
X0159055Y0158701D02*
X0156509Y0158701D01*
X0157662Y0159898D02*
X0160252Y0159898D01*
X0160850Y0160497D02*
X0157910Y0160497D01*
X0157983Y0161095D02*
X0161449Y0161095D01*
X0162047Y0161694D02*
X0157983Y0161694D01*
X0158106Y0162292D02*
X0162646Y0162292D01*
X0163244Y0162891D02*
X0158704Y0162891D01*
X0159303Y0163489D02*
X0163843Y0163489D01*
X0164441Y0164088D02*
X0159901Y0164088D01*
X0160500Y0164687D02*
X0165040Y0164687D01*
X0165638Y0165285D02*
X0161098Y0165285D01*
X0161697Y0165884D02*
X0166237Y0165884D01*
X0166835Y0166482D02*
X0162295Y0166482D01*
X0162894Y0167081D02*
X0167434Y0167081D01*
X0168033Y0167679D02*
X0163492Y0167679D01*
X0164091Y0168278D02*
X0168631Y0168278D01*
X0169230Y0168876D02*
X0164689Y0168876D01*
X0165288Y0169475D02*
X0169828Y0169475D01*
X0170427Y0170073D02*
X0165558Y0170073D01*
X0165558Y0170672D02*
X0171025Y0170672D01*
X0172107Y0169774D02*
X0116083Y0113750D01*
X0107583Y0113750D01*
X0097583Y0103750D01*
X0097583Y0096250D01*
X0100083Y0093750D01*
X0110083Y0093750D01*
X0108443Y0095858D02*
X0103701Y0095858D01*
X0103488Y0095769D02*
X0104052Y0096003D01*
X0104559Y0096342D01*
X0104991Y0096774D01*
X0105330Y0097282D01*
X0105564Y0097846D01*
X0105683Y0098445D01*
X0105683Y0098550D01*
X0102783Y0098550D01*
X0102783Y0095650D01*
X0102889Y0095650D01*
X0103488Y0095769D01*
X0102783Y0095858D02*
X0102383Y0095858D01*
X0102383Y0095650D02*
X0102383Y0098550D01*
X0099483Y0098550D01*
X0099483Y0098445D01*
X0099602Y0097846D01*
X0099836Y0097282D01*
X0100175Y0096774D01*
X0100607Y0096342D01*
X0101115Y0096003D01*
X0101679Y0095769D01*
X0102278Y0095650D01*
X0102383Y0095650D01*
X0102383Y0096456D02*
X0102783Y0096456D01*
X0102783Y0097055D02*
X0102383Y0097055D01*
X0102383Y0097653D02*
X0102783Y0097653D01*
X0102783Y0098252D02*
X0102383Y0098252D01*
X0102383Y0098550D02*
X0102783Y0098550D01*
X0102783Y0098950D01*
X0102383Y0098950D01*
X0102383Y0098550D01*
X0102383Y0098850D02*
X0098983Y0098850D01*
X0099483Y0098950D02*
X0102383Y0098950D01*
X0102383Y0101850D01*
X0102278Y0101850D01*
X0101679Y0101731D01*
X0101115Y0101497D01*
X0100607Y0101158D01*
X0100175Y0100726D01*
X0099836Y0100218D01*
X0099602Y0099654D01*
X0099483Y0099055D01*
X0099483Y0098950D01*
X0099562Y0099449D02*
X0098983Y0099449D01*
X0098983Y0100047D02*
X0099765Y0100047D01*
X0100122Y0100646D02*
X0098983Y0100646D01*
X0098983Y0101244D02*
X0100736Y0101244D01*
X0102242Y0101843D02*
X0098983Y0101843D01*
X0098983Y0102441D02*
X0109046Y0102441D01*
X0108815Y0103040D02*
X0098983Y0103040D01*
X0099452Y0103638D02*
X0108815Y0103638D01*
X0108815Y0104237D02*
X0100050Y0104237D01*
X0100649Y0104835D02*
X0108954Y0104835D01*
X0109202Y0105434D02*
X0101247Y0105434D01*
X0101846Y0106032D02*
X0109536Y0106032D01*
X0110135Y0106631D02*
X0102444Y0106631D01*
X0103043Y0107229D02*
X0111136Y0107229D01*
X0114031Y0107229D02*
X0125074Y0107229D01*
X0124826Y0107828D02*
X0103641Y0107828D01*
X0104240Y0108426D02*
X0124683Y0108426D01*
X0124683Y0109025D02*
X0104838Y0109025D01*
X0105437Y0109623D02*
X0124806Y0109623D01*
X0125054Y0110222D02*
X0106035Y0110222D01*
X0106634Y0110820D02*
X0125553Y0110820D01*
X0126183Y0111419D02*
X0107232Y0111419D01*
X0107831Y0112018D02*
X0126183Y0112018D01*
X0126183Y0112616D02*
X0116929Y0112616D01*
X0117528Y0113215D02*
X0126183Y0113215D01*
X0126183Y0113813D02*
X0118126Y0113813D01*
X0118725Y0114412D02*
X0126183Y0114412D01*
X0126183Y0115010D02*
X0119323Y0115010D01*
X0119922Y0115609D02*
X0126183Y0115609D01*
X0126183Y0116207D02*
X0120520Y0116207D01*
X0121119Y0116806D02*
X0126183Y0116806D01*
X0126183Y0117404D02*
X0121717Y0117404D01*
X0122316Y0118003D02*
X0126183Y0118003D01*
X0126183Y0118601D02*
X0122914Y0118601D01*
X0123513Y0119200D02*
X0126183Y0119200D01*
X0126183Y0119798D02*
X0124111Y0119798D01*
X0124710Y0120397D02*
X0126183Y0120397D01*
X0126183Y0120995D02*
X0125308Y0120995D01*
X0125907Y0121594D02*
X0126183Y0121594D01*
X0127583Y0122250D02*
X0173083Y0167750D01*
X0175583Y0167750D01*
X0176709Y0166624D01*
X0180300Y0166624D01*
X0183804Y0166624D01*
X0187583Y0170404D01*
X0184318Y0170672D02*
X0183762Y0170672D01*
X0183762Y0170073D02*
X0184318Y0170073D01*
X0184318Y0169475D02*
X0183762Y0169475D01*
X0183762Y0168876D02*
X0184076Y0168876D01*
X0184318Y0171270D02*
X0183509Y0171270D01*
X0184318Y0171869D02*
X0165558Y0171869D01*
X0165558Y0172467D02*
X0184318Y0172467D01*
X0184556Y0173066D02*
X0174911Y0173066D01*
X0172303Y0173066D02*
X0171762Y0173066D01*
X0169153Y0173066D02*
X0168612Y0173066D01*
X0166003Y0173066D02*
X0165558Y0173066D01*
X0165558Y0171270D02*
X0177091Y0171270D01*
X0180300Y0169774D02*
X0172107Y0169774D01*
X0174383Y0164050D02*
X0176638Y0164050D01*
X0176638Y0163568D01*
X0180206Y0163568D01*
X0180206Y0163381D01*
X0177680Y0163381D01*
X0177683Y0163395D01*
X0177683Y0163450D01*
X0174383Y0163450D01*
X0174383Y0160150D01*
X0174438Y0160150D01*
X0175133Y0160288D01*
X0175789Y0160560D01*
X0176378Y0160954D01*
X0176838Y0161413D01*
X0176838Y0159082D01*
X0177169Y0158750D01*
X0176838Y0158418D01*
X0176838Y0155932D01*
X0176944Y0155826D01*
X0176816Y0155826D01*
X0176009Y0156632D01*
X0174760Y0157150D01*
X0173407Y0157150D01*
X0172157Y0156632D01*
X0171201Y0155676D01*
X0170683Y0154426D01*
X0170683Y0153074D01*
X0171201Y0151824D01*
X0172157Y0150868D01*
X0173407Y0150350D01*
X0174760Y0150350D01*
X0176009Y0150868D01*
X0176838Y0151696D01*
X0176838Y0149633D01*
X0177169Y0149301D01*
X0176838Y0148969D01*
X0176838Y0147976D01*
X0175663Y0149150D01*
X0174503Y0149150D01*
X0161503Y0149150D01*
X0160683Y0148330D01*
X0156849Y0144496D01*
X0156616Y0144496D01*
X0156284Y0144164D01*
X0155952Y0144496D01*
X0153466Y0144496D01*
X0153134Y0144164D01*
X0152803Y0144496D01*
X0151809Y0144496D01*
X0170521Y0163208D01*
X0170622Y0162700D01*
X0170893Y0162045D01*
X0171287Y0161455D01*
X0171788Y0160954D01*
X0172378Y0160560D01*
X0173033Y0160288D01*
X0173729Y0160150D01*
X0173783Y0160150D01*
X0173783Y0163450D01*
X0174383Y0163450D01*
X0174383Y0164050D01*
X0174383Y0163489D02*
X0180206Y0163489D01*
X0180394Y0163489D02*
X0187787Y0163489D01*
X0187515Y0162891D02*
X0183962Y0162891D01*
X0183962Y0164088D02*
X0211183Y0164088D01*
X0211183Y0164687D02*
X0183894Y0164687D01*
X0184445Y0165285D02*
X0211183Y0165285D01*
X0211183Y0165884D02*
X0185043Y0165884D01*
X0185642Y0166482D02*
X0211183Y0166482D01*
X0211183Y0167081D02*
X0186240Y0167081D01*
X0187283Y0174263D02*
X0187883Y0174263D01*
X0187883Y0174861D02*
X0187283Y0174861D01*
X0187283Y0175460D02*
X0187883Y0175460D01*
X0187883Y0176058D02*
X0187283Y0176058D01*
X0187283Y0177854D02*
X0187883Y0177854D01*
X0187883Y0178452D02*
X0187283Y0178452D01*
X0187283Y0179051D02*
X0187883Y0179051D01*
X0187883Y0179649D02*
X0187283Y0179649D01*
X0187283Y0180248D02*
X0187883Y0180248D01*
X0191049Y0176058D02*
X0211183Y0176058D01*
X0211183Y0175460D02*
X0191049Y0175460D01*
X0191023Y0174861D02*
X0211183Y0174861D01*
X0211183Y0174263D02*
X0190722Y0174263D01*
X0193380Y0163489D02*
X0211183Y0163489D01*
X0205587Y0149724D02*
X0205537Y0149724D01*
X0204989Y0149125D02*
X0204938Y0149125D01*
X0204390Y0148527D02*
X0204340Y0148527D01*
X0203792Y0147928D02*
X0203741Y0147928D01*
X0203193Y0147330D02*
X0203143Y0147330D01*
X0202595Y0146731D02*
X0202544Y0146731D01*
X0201996Y0146133D02*
X0201946Y0146133D01*
X0201398Y0145534D02*
X0201347Y0145534D01*
X0200799Y0144936D02*
X0200749Y0144936D01*
X0200201Y0144337D02*
X0200150Y0144337D01*
X0199602Y0143739D02*
X0199552Y0143739D01*
X0199004Y0143140D02*
X0198953Y0143140D01*
X0198405Y0142542D02*
X0198355Y0142542D01*
X0197807Y0141943D02*
X0197756Y0141943D01*
X0197208Y0141345D02*
X0197158Y0141345D01*
X0196610Y0140746D02*
X0196559Y0140746D01*
X0196011Y0140148D02*
X0195961Y0140148D01*
X0195413Y0139549D02*
X0195362Y0139549D01*
X0194814Y0138951D02*
X0194764Y0138951D01*
X0194215Y0138352D02*
X0194165Y0138352D01*
X0193617Y0137753D02*
X0193567Y0137753D01*
X0193018Y0137155D02*
X0174668Y0137155D01*
X0175032Y0137753D02*
X0180100Y0137753D01*
X0179501Y0138352D02*
X0175494Y0138352D01*
X0175494Y0138951D02*
X0178903Y0138951D01*
X0178304Y0139549D02*
X0175494Y0139549D01*
X0175494Y0140148D02*
X0177706Y0140148D01*
X0177107Y0140746D02*
X0175494Y0140746D01*
X0175494Y0141345D02*
X0176509Y0141345D01*
X0175910Y0141943D02*
X0175494Y0141943D01*
X0174183Y0136556D02*
X0192420Y0136556D01*
X0191821Y0135958D02*
X0174183Y0135958D01*
X0174183Y0135359D02*
X0191223Y0135359D01*
X0190624Y0134761D02*
X0174542Y0134761D01*
X0175141Y0134162D02*
X0190026Y0134162D01*
X0189427Y0133564D02*
X0175739Y0133564D01*
X0176338Y0132965D02*
X0188829Y0132965D01*
X0188230Y0132367D02*
X0176936Y0132367D01*
X0177535Y0131768D02*
X0187632Y0131768D01*
X0187033Y0131170D02*
X0178133Y0131170D01*
X0175593Y0124586D02*
X0159529Y0124586D01*
X0159596Y0119798D02*
X0158071Y0119798D01*
X0158349Y0119200D02*
X0159318Y0119200D01*
X0159318Y0118601D02*
X0158349Y0118601D01*
X0158349Y0115609D02*
X0159318Y0115609D01*
X0159318Y0115010D02*
X0158349Y0115010D01*
X0158088Y0114412D02*
X0159579Y0114412D01*
X0159916Y0113583D02*
X0159620Y0113412D01*
X0159378Y0113170D01*
X0159207Y0112874D01*
X0159118Y0112543D01*
X0159118Y0110704D01*
X0162283Y0110704D01*
X0162283Y0113672D01*
X0160247Y0113672D01*
X0159916Y0113583D01*
X0159422Y0113215D02*
X0157962Y0113215D01*
X0158349Y0112616D02*
X0159138Y0112616D01*
X0159118Y0112018D02*
X0158349Y0112018D01*
X0158349Y0111419D02*
X0159118Y0111419D01*
X0159118Y0110820D02*
X0158349Y0110820D01*
X0158349Y0110222D02*
X0162283Y0110222D01*
X0162283Y0110104D02*
X0159118Y0110104D01*
X0159118Y0108264D01*
X0159207Y0107933D01*
X0159378Y0107637D01*
X0159620Y0107395D01*
X0159916Y0107224D01*
X0160247Y0107135D01*
X0162283Y0107135D01*
X0162283Y0110103D01*
X0162883Y0110103D01*
X0162883Y0107135D01*
X0164920Y0107135D01*
X0165250Y0107224D01*
X0165547Y0107395D01*
X0165789Y0107637D01*
X0165960Y0107933D01*
X0166049Y0108264D01*
X0166049Y0110104D01*
X0162883Y0110104D01*
X0162883Y0110704D01*
X0162283Y0110704D01*
X0162283Y0110104D01*
X0162283Y0109623D02*
X0162883Y0109623D01*
X0162883Y0109025D02*
X0162283Y0109025D01*
X0162283Y0108426D02*
X0162883Y0108426D01*
X0162883Y0107828D02*
X0162283Y0107828D01*
X0162283Y0107229D02*
X0162883Y0107229D01*
X0165260Y0107229D02*
X0167568Y0107229D01*
X0167659Y0107138D02*
X0167015Y0107783D01*
X0167015Y0113025D01*
X0167659Y0113669D01*
X0172507Y0113669D01*
X0173152Y0113025D01*
X0173152Y0107783D01*
X0172507Y0107138D01*
X0171983Y0107138D01*
X0171983Y0106350D01*
X0172438Y0106350D01*
X0174202Y0105619D01*
X0175553Y0104269D01*
X0176283Y0102505D01*
X0176283Y0100595D01*
X0175553Y0098831D01*
X0174202Y0097481D01*
X0172438Y0096750D01*
X0170529Y0096750D01*
X0168764Y0097481D01*
X0167414Y0098831D01*
X0166683Y0100595D01*
X0166683Y0102505D01*
X0167414Y0104269D01*
X0168183Y0105038D01*
X0168183Y0107138D01*
X0167659Y0107138D01*
X0168183Y0106631D02*
X0156483Y0106631D01*
X0156483Y0107229D02*
X0159906Y0107229D01*
X0159267Y0107828D02*
X0158197Y0107828D01*
X0158349Y0108426D02*
X0159118Y0108426D01*
X0159118Y0109025D02*
X0158349Y0109025D01*
X0158349Y0109623D02*
X0159118Y0109623D01*
X0162283Y0110820D02*
X0162883Y0110820D01*
X0162883Y0110704D02*
X0162883Y0113672D01*
X0164920Y0113672D01*
X0165250Y0113583D01*
X0165547Y0113412D01*
X0165789Y0113170D01*
X0165960Y0112874D01*
X0166049Y0112543D01*
X0166049Y0110704D01*
X0162883Y0110704D01*
X0162883Y0110222D02*
X0167015Y0110222D01*
X0167015Y0110820D02*
X0166049Y0110820D01*
X0166049Y0111419D02*
X0167015Y0111419D01*
X0167015Y0112018D02*
X0166049Y0112018D01*
X0166029Y0112616D02*
X0167015Y0112616D01*
X0167205Y0113215D02*
X0165745Y0113215D01*
X0165588Y0114412D02*
X0167079Y0114412D01*
X0167015Y0115010D02*
X0165849Y0115010D01*
X0165849Y0115609D02*
X0167015Y0115609D01*
X0167015Y0118601D02*
X0165849Y0118601D01*
X0165849Y0119200D02*
X0167015Y0119200D01*
X0167096Y0119798D02*
X0165571Y0119798D01*
X0171404Y0120397D02*
X0128983Y0120397D01*
X0128983Y0120995D02*
X0172002Y0120995D01*
X0172601Y0121594D02*
X0128983Y0121594D01*
X0129505Y0122192D02*
X0173199Y0122192D01*
X0173798Y0122791D02*
X0130104Y0122791D01*
X0130702Y0123389D02*
X0174396Y0123389D01*
X0174995Y0123988D02*
X0131301Y0123988D01*
X0131899Y0124586D02*
X0144091Y0124586D01*
X0143683Y0125185D02*
X0132498Y0125185D01*
X0133096Y0125783D02*
X0143683Y0125783D01*
X0143683Y0126382D02*
X0133695Y0126382D01*
X0134294Y0126980D02*
X0143683Y0126980D01*
X0143683Y0127579D02*
X0134892Y0127579D01*
X0135491Y0128177D02*
X0143683Y0128177D01*
X0143683Y0128776D02*
X0136089Y0128776D01*
X0136688Y0129374D02*
X0143683Y0129374D01*
X0143683Y0129973D02*
X0137286Y0129973D01*
X0137885Y0130571D02*
X0143683Y0130571D01*
X0143683Y0131170D02*
X0138483Y0131170D01*
X0139082Y0131768D02*
X0143683Y0131768D01*
X0143683Y0132367D02*
X0139680Y0132367D01*
X0140279Y0132965D02*
X0144143Y0132965D01*
X0142074Y0134761D02*
X0150160Y0134761D01*
X0150160Y0135359D02*
X0142673Y0135359D01*
X0143271Y0135958D02*
X0150160Y0135958D01*
X0150160Y0136556D02*
X0143870Y0136556D01*
X0144468Y0137155D02*
X0150160Y0137155D01*
X0150134Y0137753D02*
X0145067Y0137753D01*
X0145665Y0138352D02*
X0149672Y0138352D01*
X0149672Y0138951D02*
X0146264Y0138951D01*
X0146862Y0139549D02*
X0149672Y0139549D01*
X0149672Y0140148D02*
X0147461Y0140148D01*
X0148059Y0140746D02*
X0149672Y0140746D01*
X0149672Y0141345D02*
X0148658Y0141345D01*
X0149256Y0141943D02*
X0149672Y0141943D01*
X0151560Y0141033D02*
X0151560Y0132226D01*
X0148083Y0128750D01*
X0150160Y0133564D02*
X0140877Y0133564D01*
X0141476Y0134162D02*
X0150160Y0134162D01*
X0154709Y0132124D02*
X0154709Y0141033D01*
X0153308Y0144337D02*
X0152961Y0144337D01*
X0152249Y0144936D02*
X0157289Y0144936D01*
X0157888Y0145534D02*
X0152847Y0145534D01*
X0153446Y0146133D02*
X0158486Y0146133D01*
X0159085Y0146731D02*
X0154044Y0146731D01*
X0154643Y0147330D02*
X0159683Y0147330D01*
X0160282Y0147928D02*
X0155241Y0147928D01*
X0155840Y0148527D02*
X0160880Y0148527D01*
X0161479Y0149125D02*
X0156438Y0149125D01*
X0157037Y0149724D02*
X0176838Y0149724D01*
X0176838Y0150322D02*
X0157635Y0150322D01*
X0158234Y0150921D02*
X0172104Y0150921D01*
X0171506Y0151519D02*
X0158832Y0151519D01*
X0159431Y0152118D02*
X0171079Y0152118D01*
X0170831Y0152716D02*
X0160029Y0152716D01*
X0160628Y0153315D02*
X0170683Y0153315D01*
X0170683Y0153913D02*
X0161227Y0153913D01*
X0161825Y0154512D02*
X0170719Y0154512D01*
X0170967Y0155110D02*
X0162424Y0155110D01*
X0163022Y0155709D02*
X0171234Y0155709D01*
X0171832Y0156307D02*
X0163621Y0156307D01*
X0164219Y0156906D02*
X0172818Y0156906D01*
X0175349Y0156906D02*
X0176838Y0156906D01*
X0176838Y0157504D02*
X0164818Y0157504D01*
X0165416Y0158103D02*
X0176838Y0158103D01*
X0177121Y0158701D02*
X0166015Y0158701D01*
X0166613Y0159300D02*
X0176838Y0159300D01*
X0176838Y0159898D02*
X0167212Y0159898D01*
X0167810Y0160497D02*
X0172530Y0160497D01*
X0171647Y0161095D02*
X0168409Y0161095D01*
X0169007Y0161694D02*
X0171127Y0161694D01*
X0170790Y0162292D02*
X0169606Y0162292D01*
X0170204Y0162891D02*
X0170584Y0162891D01*
X0173783Y0162891D02*
X0174383Y0162891D01*
X0174383Y0162292D02*
X0173783Y0162292D01*
X0173783Y0161694D02*
X0174383Y0161694D01*
X0174383Y0161095D02*
X0173783Y0161095D01*
X0173783Y0160497D02*
X0174383Y0160497D01*
X0175637Y0160497D02*
X0176838Y0160497D01*
X0176838Y0161095D02*
X0176520Y0161095D01*
X0176334Y0156307D02*
X0176838Y0156307D01*
X0176838Y0151519D02*
X0176661Y0151519D01*
X0176838Y0150921D02*
X0176062Y0150921D01*
X0175688Y0149125D02*
X0176993Y0149125D01*
X0176838Y0148527D02*
X0176287Y0148527D01*
X0180300Y0150876D02*
X0182957Y0150876D01*
X0185457Y0150876D01*
X0187583Y0148750D01*
X0187583Y0146250D01*
X0190483Y0123389D02*
X0220772Y0123389D01*
X0220772Y0122791D02*
X0190325Y0122791D01*
X0190077Y0122192D02*
X0220772Y0122192D01*
X0220776Y0121594D02*
X0189528Y0121594D01*
X0188511Y0120995D02*
X0221024Y0120995D01*
X0220772Y0124586D02*
X0216858Y0124586D01*
X0217158Y0125185D02*
X0220772Y0125185D01*
X0220772Y0125783D02*
X0217183Y0125783D01*
X0217183Y0129374D02*
X0219000Y0129374D01*
X0212883Y0129973D02*
X0212283Y0129973D01*
X0212283Y0130571D02*
X0212883Y0130571D01*
X0212883Y0131170D02*
X0212283Y0131170D01*
X0212283Y0131768D02*
X0212883Y0131768D01*
X0212883Y0132367D02*
X0212283Y0132367D01*
X0212283Y0132965D02*
X0212883Y0132965D01*
X0212883Y0128177D02*
X0212283Y0128177D01*
X0212283Y0127579D02*
X0212883Y0127579D01*
X0212883Y0126980D02*
X0212283Y0126980D01*
X0212283Y0126382D02*
X0212883Y0126382D01*
X0212883Y0125783D02*
X0212283Y0125783D01*
X0212283Y0125185D02*
X0212883Y0125185D01*
X0212883Y0124586D02*
X0212283Y0124586D01*
X0220529Y0106350D02*
X0218764Y0105619D01*
X0217414Y0104269D01*
X0216683Y0102505D01*
X0216683Y0100595D01*
X0217414Y0098831D01*
X0218764Y0097481D01*
X0220529Y0096750D01*
X0222438Y0096750D01*
X0224202Y0097481D01*
X0225553Y0098831D01*
X0226283Y0100595D01*
X0226283Y0102505D01*
X0225553Y0104269D01*
X0224202Y0105619D01*
X0222438Y0106350D01*
X0220529Y0106350D01*
X0219762Y0106032D02*
X0205405Y0106032D01*
X0206588Y0105434D02*
X0218579Y0105434D01*
X0217980Y0104835D02*
X0207186Y0104835D01*
X0207766Y0104237D02*
X0217401Y0104237D01*
X0217153Y0103638D02*
X0208014Y0103638D01*
X0208262Y0103040D02*
X0216905Y0103040D01*
X0216683Y0102441D02*
X0208483Y0102441D01*
X0208483Y0101843D02*
X0216683Y0101843D01*
X0216683Y0101244D02*
X0208483Y0101244D01*
X0208483Y0100646D02*
X0216683Y0100646D01*
X0216910Y0100047D02*
X0208256Y0100047D01*
X0208008Y0099449D02*
X0217158Y0099449D01*
X0217406Y0098850D02*
X0207761Y0098850D01*
X0207173Y0098252D02*
X0217993Y0098252D01*
X0218592Y0097653D02*
X0206575Y0097653D01*
X0205374Y0097055D02*
X0219793Y0097055D01*
X0223174Y0097055D02*
X0260783Y0097055D01*
X0260783Y0097653D02*
X0224375Y0097653D01*
X0224973Y0098252D02*
X0260783Y0098252D01*
X0260783Y0098850D02*
X0225561Y0098850D01*
X0225808Y0099449D02*
X0260783Y0099449D01*
X0260783Y0100047D02*
X0226056Y0100047D01*
X0226283Y0100646D02*
X0260783Y0100646D01*
X0260783Y0101244D02*
X0226283Y0101244D01*
X0226283Y0101843D02*
X0260783Y0101843D01*
X0260783Y0102441D02*
X0226283Y0102441D01*
X0226062Y0103040D02*
X0260783Y0103040D01*
X0260783Y0103638D02*
X0225814Y0103638D01*
X0225566Y0104237D02*
X0260783Y0104237D01*
X0260783Y0104835D02*
X0224986Y0104835D01*
X0224388Y0105434D02*
X0260783Y0105434D01*
X0260783Y0106032D02*
X0223205Y0106032D01*
X0201993Y0097055D02*
X0196049Y0097055D01*
X0196049Y0096456D02*
X0260783Y0096456D01*
X0260783Y0095858D02*
X0196049Y0095858D01*
X0196019Y0097653D02*
X0200792Y0097653D01*
X0200193Y0098252D02*
X0195707Y0098252D01*
X0189842Y0092267D02*
X0187636Y0092267D01*
X0188152Y0092865D02*
X0189246Y0092865D01*
X0189118Y0093464D02*
X0188152Y0093464D01*
X0188152Y0094062D02*
X0189118Y0094062D01*
X0186883Y0091668D02*
X0260783Y0091668D01*
X0260783Y0091070D02*
X0186883Y0091070D01*
X0187463Y0090471D02*
X0260783Y0090471D01*
X0260783Y0089873D02*
X0187757Y0089873D01*
X0187983Y0089274D02*
X0260783Y0089274D01*
X0260783Y0088676D02*
X0187983Y0088676D01*
X0187944Y0088077D02*
X0260783Y0088077D01*
X0260783Y0087479D02*
X0187696Y0087479D01*
X0187315Y0086880D02*
X0260783Y0086880D01*
X0260783Y0086282D02*
X0186702Y0086282D01*
X0183283Y0091070D02*
X0123690Y0091070D01*
X0124603Y0091668D02*
X0183283Y0091668D01*
X0182531Y0092267D02*
X0125108Y0092267D01*
X0125356Y0092865D02*
X0182015Y0092865D01*
X0182015Y0093464D02*
X0125483Y0093464D01*
X0125483Y0094062D02*
X0182015Y0094062D01*
X0182015Y0094661D02*
X0125345Y0094661D01*
X0125097Y0095259D02*
X0182015Y0095259D01*
X0182015Y0095858D02*
X0124577Y0095858D01*
X0123628Y0096456D02*
X0182015Y0096456D01*
X0182015Y0097055D02*
X0173174Y0097055D01*
X0174375Y0097653D02*
X0182015Y0097653D01*
X0182242Y0098252D02*
X0174973Y0098252D01*
X0175561Y0098850D02*
X0182640Y0098850D01*
X0182042Y0099449D02*
X0175808Y0099449D01*
X0176056Y0100047D02*
X0182015Y0100047D01*
X0182015Y0100646D02*
X0176283Y0100646D01*
X0176283Y0101244D02*
X0182015Y0101244D01*
X0182015Y0101843D02*
X0176283Y0101843D01*
X0176283Y0102441D02*
X0182015Y0102441D01*
X0182015Y0103040D02*
X0176062Y0103040D01*
X0175814Y0103638D02*
X0182015Y0103638D01*
X0182015Y0104237D02*
X0175566Y0104237D01*
X0174986Y0104835D02*
X0182133Y0104835D01*
X0183683Y0105434D02*
X0174388Y0105434D01*
X0173205Y0106032D02*
X0183683Y0106032D01*
X0183683Y0106631D02*
X0171983Y0106631D01*
X0172599Y0107229D02*
X0183683Y0107229D01*
X0183683Y0107828D02*
X0173152Y0107828D01*
X0173152Y0108426D02*
X0183683Y0108426D01*
X0183683Y0109025D02*
X0173152Y0109025D01*
X0173152Y0109623D02*
X0183683Y0109623D01*
X0183683Y0110222D02*
X0173152Y0110222D01*
X0173152Y0110820D02*
X0183533Y0110820D01*
X0182934Y0111419D02*
X0173152Y0111419D01*
X0173152Y0112018D02*
X0182336Y0112018D01*
X0181737Y0112616D02*
X0173152Y0112616D01*
X0172962Y0113215D02*
X0181139Y0113215D01*
X0167015Y0109623D02*
X0166049Y0109623D01*
X0166049Y0109025D02*
X0167015Y0109025D01*
X0167015Y0108426D02*
X0166049Y0108426D01*
X0165899Y0107828D02*
X0167015Y0107828D01*
X0168183Y0106032D02*
X0156483Y0106032D01*
X0156588Y0105434D02*
X0168183Y0105434D01*
X0167980Y0104835D02*
X0157186Y0104835D01*
X0157766Y0104237D02*
X0167401Y0104237D01*
X0167153Y0103638D02*
X0158014Y0103638D01*
X0158262Y0103040D02*
X0166905Y0103040D01*
X0166683Y0102441D02*
X0158483Y0102441D01*
X0158483Y0101843D02*
X0166683Y0101843D01*
X0166683Y0101244D02*
X0158483Y0101244D01*
X0158483Y0100646D02*
X0166683Y0100646D01*
X0166910Y0100047D02*
X0158256Y0100047D01*
X0158008Y0099449D02*
X0167158Y0099449D01*
X0167406Y0098850D02*
X0157761Y0098850D01*
X0157173Y0098252D02*
X0167993Y0098252D01*
X0168592Y0097653D02*
X0156575Y0097653D01*
X0155374Y0097055D02*
X0169793Y0097055D01*
X0162883Y0111419D02*
X0162283Y0111419D01*
X0162283Y0112018D02*
X0162883Y0112018D01*
X0162883Y0112616D02*
X0162283Y0112616D01*
X0162283Y0113215D02*
X0162883Y0113215D01*
X0155083Y0110404D02*
X0155083Y0102950D01*
X0153683Y0101550D01*
X0152079Y0114412D02*
X0145225Y0114412D01*
X0145823Y0115010D02*
X0151818Y0115010D01*
X0151818Y0115609D02*
X0146422Y0115609D01*
X0158083Y0128750D02*
X0154709Y0132124D01*
X0156109Y0132965D02*
X0156762Y0132965D01*
X0159284Y0137753D02*
X0159583Y0137753D01*
X0162434Y0137753D02*
X0162733Y0137753D01*
X0165583Y0137753D02*
X0165882Y0137753D01*
X0156457Y0144337D02*
X0156111Y0144337D01*
X0144867Y0154026D02*
X0142308Y0154026D01*
X0141658Y0157175D02*
X0132583Y0166250D01*
X0141658Y0157175D02*
X0144867Y0157175D01*
X0148329Y0164088D02*
X0149432Y0164088D01*
X0148546Y0164687D02*
X0148329Y0164687D01*
X0148329Y0168876D02*
X0148608Y0168876D01*
X0148329Y0169475D02*
X0149583Y0169475D01*
X0152864Y0173066D02*
X0153405Y0173066D01*
X0156014Y0173066D02*
X0156555Y0173066D01*
X0159163Y0173066D02*
X0159704Y0173066D01*
X0162313Y0173066D02*
X0162758Y0173066D01*
X0156336Y0179649D02*
X0156232Y0179649D01*
X0153187Y0179649D02*
X0153082Y0179649D01*
X0155810Y0164088D02*
X0155941Y0164088D01*
X0170457Y0180876D02*
X0167583Y0183750D01*
X0167583Y0185730D01*
X0167064Y0186250D01*
X0167083Y0186270D01*
X0167083Y0193404D01*
X0170152Y0194014D02*
X0174015Y0194014D01*
X0174015Y0194612D02*
X0170152Y0194612D01*
X0170152Y0195211D02*
X0174015Y0195211D01*
X0174015Y0195809D02*
X0170152Y0195809D01*
X0169769Y0196408D02*
X0174398Y0196408D01*
X0174484Y0197006D02*
X0169682Y0197006D01*
X0170152Y0197605D02*
X0170892Y0197605D01*
X0173275Y0197605D02*
X0174015Y0197605D01*
X0174289Y0202991D02*
X0173043Y0202991D01*
X0171123Y0202991D02*
X0169878Y0202991D01*
X0179878Y0202991D02*
X0211498Y0202991D01*
X0211183Y0202393D02*
X0180152Y0202393D01*
X0180152Y0201794D02*
X0211183Y0201794D01*
X0211183Y0201196D02*
X0180152Y0201196D01*
X0180152Y0200597D02*
X0211183Y0200597D01*
X0211183Y0199999D02*
X0180152Y0199999D01*
X0180152Y0199400D02*
X0211183Y0199400D01*
X0211183Y0198802D02*
X0180152Y0198802D01*
X0180152Y0198203D02*
X0211183Y0198203D01*
X0211183Y0197605D02*
X0180152Y0197605D01*
X0179682Y0197006D02*
X0211183Y0197006D01*
X0211183Y0196408D02*
X0179769Y0196408D01*
X0180152Y0195809D02*
X0211183Y0195809D01*
X0211183Y0195211D02*
X0180152Y0195211D01*
X0180152Y0194612D02*
X0211183Y0194612D01*
X0211183Y0194014D02*
X0180152Y0194014D01*
X0180152Y0193415D02*
X0211183Y0193415D01*
X0211183Y0192817D02*
X0180152Y0192817D01*
X0180152Y0192218D02*
X0211183Y0192218D01*
X0211183Y0191620D02*
X0180152Y0191620D01*
X0180152Y0191021D02*
X0211183Y0191021D01*
X0211183Y0190422D02*
X0179998Y0190422D01*
X0180172Y0189824D02*
X0211183Y0189824D01*
X0211183Y0189225D02*
X0180172Y0189225D01*
X0180172Y0188627D02*
X0211183Y0188627D01*
X0211183Y0188028D02*
X0180172Y0188028D01*
X0180172Y0187430D02*
X0211183Y0187430D01*
X0211183Y0186831D02*
X0180172Y0186831D01*
X0180172Y0186233D02*
X0211183Y0186233D01*
X0211183Y0185634D02*
X0180172Y0185634D01*
X0180172Y0185036D02*
X0211183Y0185036D01*
X0211183Y0184437D02*
X0180172Y0184437D01*
X0180172Y0183839D02*
X0211183Y0183839D01*
X0211183Y0183240D02*
X0180172Y0183240D01*
X0180172Y0182642D02*
X0211183Y0182642D01*
X0211183Y0182043D02*
X0179964Y0182043D01*
X0176258Y0181445D02*
X0211183Y0181445D01*
X0228678Y0195809D02*
X0231488Y0195809D01*
X0231168Y0196408D02*
X0228998Y0196408D01*
X0228998Y0197006D02*
X0231168Y0197006D01*
X0231168Y0200597D02*
X0228998Y0200597D01*
X0228998Y0201196D02*
X0231168Y0201196D01*
X0231592Y0201794D02*
X0228575Y0201794D01*
X0228853Y0205984D02*
X0231314Y0205984D01*
X0231168Y0206582D02*
X0228998Y0206582D01*
X0228998Y0207181D02*
X0231168Y0207181D01*
X0231168Y0210173D02*
X0228998Y0210173D01*
X0228998Y0210772D02*
X0231168Y0210772D01*
X0231168Y0211370D02*
X0228998Y0211370D01*
X0228400Y0211969D02*
X0231766Y0211969D01*
X0249342Y0196408D02*
X0260783Y0196408D01*
X0260783Y0197006D02*
X0249941Y0197006D01*
X0216115Y0241894D02*
X0085528Y0241894D01*
X0085633Y0242493D02*
X0215517Y0242493D01*
X0215233Y0243091D02*
X0085633Y0243091D01*
X0085633Y0243690D02*
X0215233Y0243690D01*
X0215233Y0244289D02*
X0085633Y0244289D01*
X0085633Y0244887D02*
X0215397Y0244887D01*
X0215995Y0245486D02*
X0085578Y0245486D01*
X0085330Y0246084D02*
X0216594Y0246084D01*
X0118744Y0148527D02*
X0064383Y0148527D01*
X0102383Y0101843D02*
X0102783Y0101843D01*
X0102783Y0101850D02*
X0102889Y0101850D01*
X0103488Y0101731D01*
X0104052Y0101497D01*
X0104559Y0101158D01*
X0104991Y0100726D01*
X0105330Y0100218D01*
X0105564Y0099654D01*
X0105683Y0099055D01*
X0105683Y0098950D01*
X0102783Y0098950D01*
X0102783Y0101850D01*
X0102925Y0101843D02*
X0109294Y0101843D01*
X0108686Y0101244D02*
X0104430Y0101244D01*
X0105045Y0100646D02*
X0107949Y0100646D01*
X0107536Y0100047D02*
X0105401Y0100047D01*
X0105605Y0099449D02*
X0107316Y0099449D01*
X0107277Y0098252D02*
X0105645Y0098252D01*
X0105484Y0097653D02*
X0107453Y0097653D01*
X0107788Y0097055D02*
X0105179Y0097055D01*
X0104674Y0096456D02*
X0108386Y0096456D01*
X0107845Y0095259D02*
X0100554Y0095259D01*
X0099956Y0095858D02*
X0101465Y0095858D01*
X0100493Y0096456D02*
X0099357Y0096456D01*
X0098983Y0097055D02*
X0099988Y0097055D01*
X0099682Y0097653D02*
X0098983Y0097653D01*
X0098983Y0098252D02*
X0099522Y0098252D01*
X0102383Y0099449D02*
X0102783Y0099449D01*
X0102783Y0100047D02*
X0102383Y0100047D01*
X0102383Y0100646D02*
X0102783Y0100646D01*
X0102783Y0101244D02*
X0102383Y0101244D01*
X0102783Y0098850D02*
X0109783Y0098850D01*
X0108759Y0091070D02*
X0104365Y0091070D01*
X0104963Y0090471D02*
X0108057Y0090471D01*
X0108206Y0086880D02*
X0104815Y0086880D01*
X0104202Y0086282D02*
X0109118Y0086282D01*
X0108269Y0085683D02*
X0101252Y0085683D01*
X0100965Y0086282D02*
X0100550Y0086282D01*
X0099083Y0083750D02*
X0110083Y0083750D01*
X0107994Y0082092D02*
X0101526Y0082092D01*
X0101629Y0081493D02*
X0100928Y0081493D01*
X0100627Y0080895D02*
X0099769Y0080895D01*
X0100085Y0080296D02*
X0082421Y0080296D01*
X0083020Y0079698D02*
X0099837Y0079698D01*
X0099683Y0079099D02*
X0083618Y0079099D01*
X0084217Y0078501D02*
X0099683Y0078501D01*
X0099795Y0077902D02*
X0084577Y0077902D01*
X0084825Y0077304D02*
X0100043Y0077304D01*
X0100527Y0076705D02*
X0085072Y0076705D01*
X0085320Y0076107D02*
X0101386Y0076107D01*
X0103780Y0076107D02*
X0105611Y0076107D01*
X0105233Y0075508D02*
X0085568Y0075508D01*
X0085633Y0074910D02*
X0104985Y0074910D01*
X0104815Y0074311D02*
X0085633Y0074311D01*
X0085633Y0073713D02*
X0104815Y0073713D01*
X0104815Y0073114D02*
X0085633Y0073114D01*
X0085633Y0072516D02*
X0105016Y0072516D01*
X0105263Y0071917D02*
X0085537Y0071917D01*
X0085290Y0071319D02*
X0105685Y0071319D01*
X0106284Y0070720D02*
X0085042Y0070720D01*
X0084794Y0070122D02*
X0107495Y0070122D01*
X0109671Y0070122D02*
X0115495Y0070122D01*
X0114284Y0070720D02*
X0110883Y0070720D01*
X0111482Y0071319D02*
X0113685Y0071319D01*
X0113263Y0071917D02*
X0111903Y0071917D01*
X0112151Y0072516D02*
X0113016Y0072516D01*
X0112815Y0073114D02*
X0112352Y0073114D01*
X0112352Y0073713D02*
X0112815Y0073713D01*
X0112815Y0074311D02*
X0112352Y0074311D01*
X0112182Y0074910D02*
X0112985Y0074910D01*
X0113233Y0075508D02*
X0111934Y0075508D01*
X0111556Y0076107D02*
X0113611Y0076107D01*
X0113380Y0076705D02*
X0111786Y0076705D01*
X0112353Y0077304D02*
X0112814Y0077304D01*
X0117601Y0077902D02*
X0149297Y0077902D01*
X0149049Y0077304D02*
X0117851Y0077304D01*
X0117733Y0078501D02*
X0149544Y0078501D01*
X0149614Y0078669D02*
X0148883Y0076905D01*
X0148883Y0074995D01*
X0149614Y0073231D01*
X0150964Y0071881D01*
X0152729Y0071150D01*
X0154638Y0071150D01*
X0156402Y0071881D01*
X0157753Y0073231D01*
X0158483Y0074995D01*
X0158483Y0076905D01*
X0157753Y0078669D01*
X0156402Y0080019D01*
X0154638Y0080750D01*
X0152729Y0080750D01*
X0150964Y0080019D01*
X0149614Y0078669D01*
X0150045Y0079099D02*
X0117733Y0079099D01*
X0117559Y0079698D02*
X0150643Y0079698D01*
X0151634Y0080296D02*
X0117285Y0080296D01*
X0118957Y0076705D02*
X0148883Y0076705D01*
X0148883Y0076107D02*
X0119556Y0076107D01*
X0119934Y0075508D02*
X0148883Y0075508D01*
X0148919Y0074910D02*
X0120182Y0074910D01*
X0120352Y0074311D02*
X0149167Y0074311D01*
X0149415Y0073713D02*
X0120352Y0073713D01*
X0120352Y0073114D02*
X0149731Y0073114D01*
X0150329Y0072516D02*
X0120151Y0072516D01*
X0119903Y0071917D02*
X0150928Y0071917D01*
X0152321Y0071319D02*
X0119482Y0071319D01*
X0108481Y0080895D02*
X0104540Y0080895D01*
X0103538Y0081493D02*
X0108606Y0081493D01*
X0106209Y0076705D02*
X0104640Y0076705D01*
X0098398Y0080895D02*
X0081370Y0080895D01*
X0079925Y0081493D02*
X0097239Y0081493D01*
X0115630Y0106032D02*
X0126566Y0106032D01*
X0125601Y0106631D02*
X0115032Y0106631D01*
X0110283Y0118601D02*
X0109883Y0118601D01*
X0109883Y0119200D02*
X0110283Y0119200D01*
X0110283Y0119798D02*
X0109883Y0119798D01*
X0109883Y0120397D02*
X0110283Y0120397D01*
X0110283Y0120995D02*
X0109883Y0120995D01*
X0109883Y0121594D02*
X0110283Y0121594D01*
X0110283Y0122192D02*
X0109883Y0122192D01*
X0109883Y0122791D02*
X0110283Y0122791D01*
X0110283Y0123389D02*
X0109883Y0123389D01*
X0109883Y0123988D02*
X0110283Y0123988D01*
X0127583Y0122250D02*
X0127583Y0108750D01*
X0155733Y0080296D02*
X0169434Y0080296D01*
X0168764Y0080019D02*
X0170529Y0080750D01*
X0172438Y0080750D01*
X0174202Y0080019D01*
X0175553Y0078669D01*
X0176283Y0076905D01*
X0176283Y0074995D01*
X0175553Y0073231D01*
X0174202Y0071881D01*
X0172438Y0071150D01*
X0170529Y0071150D01*
X0168764Y0071881D01*
X0167414Y0073231D01*
X0166683Y0074995D01*
X0166683Y0076905D01*
X0167414Y0078669D01*
X0168764Y0080019D01*
X0168443Y0079698D02*
X0156724Y0079698D01*
X0157322Y0079099D02*
X0167845Y0079099D01*
X0167344Y0078501D02*
X0157822Y0078501D01*
X0158070Y0077902D02*
X0167097Y0077902D01*
X0166849Y0077304D02*
X0158318Y0077304D01*
X0158483Y0076705D02*
X0166683Y0076705D01*
X0166683Y0076107D02*
X0158483Y0076107D01*
X0158483Y0075508D02*
X0166683Y0075508D01*
X0166719Y0074910D02*
X0158448Y0074910D01*
X0158200Y0074311D02*
X0166967Y0074311D01*
X0167215Y0073713D02*
X0157952Y0073713D01*
X0157636Y0073114D02*
X0167531Y0073114D01*
X0168129Y0072516D02*
X0157037Y0072516D01*
X0156439Y0071917D02*
X0168728Y0071917D01*
X0170121Y0071319D02*
X0155045Y0071319D01*
X0172845Y0071319D02*
X0202321Y0071319D01*
X0202729Y0071150D02*
X0204638Y0071150D01*
X0206402Y0071881D01*
X0207753Y0073231D01*
X0208483Y0074995D01*
X0208483Y0076905D01*
X0207753Y0078669D01*
X0206402Y0080019D01*
X0204638Y0080750D01*
X0202729Y0080750D01*
X0200964Y0080019D01*
X0199614Y0078669D01*
X0198883Y0076905D01*
X0198883Y0074995D01*
X0199614Y0073231D01*
X0200964Y0071881D01*
X0202729Y0071150D01*
X0200928Y0071917D02*
X0174239Y0071917D01*
X0174837Y0072516D02*
X0200329Y0072516D01*
X0199731Y0073114D02*
X0175436Y0073114D01*
X0175752Y0073713D02*
X0199415Y0073713D01*
X0199167Y0074311D02*
X0176000Y0074311D01*
X0176248Y0074910D02*
X0198919Y0074910D01*
X0198883Y0075508D02*
X0176283Y0075508D01*
X0176283Y0076107D02*
X0198883Y0076107D01*
X0198883Y0076705D02*
X0176283Y0076705D01*
X0176118Y0077304D02*
X0199049Y0077304D01*
X0199297Y0077902D02*
X0175870Y0077902D01*
X0175622Y0078501D02*
X0199544Y0078501D01*
X0200045Y0079099D02*
X0175122Y0079099D01*
X0174524Y0079698D02*
X0200643Y0079698D01*
X0201634Y0080296D02*
X0173533Y0080296D01*
X0205733Y0080296D02*
X0219434Y0080296D01*
X0218443Y0079698D02*
X0206724Y0079698D01*
X0207322Y0079099D02*
X0217845Y0079099D01*
X0217344Y0078501D02*
X0207822Y0078501D01*
X0208070Y0077902D02*
X0217097Y0077902D01*
X0216849Y0077304D02*
X0208318Y0077304D01*
X0208483Y0076705D02*
X0216683Y0076705D01*
X0216683Y0076107D02*
X0208483Y0076107D01*
X0208483Y0075508D02*
X0216683Y0075508D01*
X0216719Y0074910D02*
X0208448Y0074910D01*
X0208200Y0074311D02*
X0216967Y0074311D01*
X0217215Y0073713D02*
X0207952Y0073713D01*
X0207636Y0073114D02*
X0217531Y0073114D01*
X0218129Y0072516D02*
X0207037Y0072516D01*
X0206439Y0071917D02*
X0218728Y0071917D01*
X0220121Y0071319D02*
X0205045Y0071319D01*
D34*
X0132930Y0153250D02*
X0132583Y0153404D01*
M02*
