%
M48
M72
T01C0.0200
T02C0.0250
T03C0.0300
T04C0.0394
T05C0.0400
T06C0.1250
%
T01
X9908Y8375
X10258Y8875
X10258Y7875
X10258Y9875
X12258Y9375
X12758Y10875
X11008Y12125
X12158Y14925
X15058Y16675
X15508Y16125
X18562Y15725
X18758Y14625
X18758Y12375
X18008Y11625
X18508Y8875
X23108Y11875
X24608Y12875
X24758Y19875
X24758Y20875
X17208Y20025
T02
X13258Y15885
X13258Y13965
T03
X14458Y17375
X17408Y16375
X17408Y15375
X25658Y13625
X25658Y18125
T04
X11658Y7375
X10858Y7375
X11258Y10375
T05
X9258Y11375
X9258Y12375
X9258Y13375
X9258Y14375
X9258Y15375
X9258Y16375
X8258Y16375
X8258Y15375
X8258Y14375
X8258Y13375
X8258Y12375
X8258Y11375
X8258Y17375
X8258Y18375
X8258Y19375
X8258Y20375
X9258Y20375
X9258Y19375
X9258Y18375
X9258Y17375
X12258Y18375
X12258Y19375
X14808Y12875
X15808Y12875
X15368Y10155
X17148Y10155
X17148Y7595
X15368Y7595
X20368Y7595
X22148Y7595
X22148Y10155
X20368Y10155
X21258Y12875
X21258Y13875
X19758Y15375
X23758Y14875
X23758Y16375
T06
X7758Y7375
X7758Y24375
X24758Y24375
X24758Y7375
M30
