G04 Layer_Color=8421504*
%FSLAX43Y43*%
%MOMM*%
G71*
G01*
G75*
%ADD13R,0.400X1.350*%
%ADD14R,3.200X3.200*%
%ADD15R,4.000X4.000*%
%ADD16R,1.000X2.250*%
%ADD17R,1.000X1.600*%
%ADD18R,3.000X2.500*%
%ADD19O,0.300X1.650*%
%ADD20O,1.650X0.300*%
%ADD21R,1.200X1.200*%
%ADD22R,1.100X0.600*%
%ADD23R,1.100X1.000*%
%ADD24R,0.700X3.300*%
%ADD28R,0.500X0.650*%
%ADD29R,0.550X0.600*%
%ADD30R,0.850X0.800*%
%ADD31R,0.600X0.550*%
%ADD32R,0.650X0.500*%
%ADD33R,0.700X0.700*%
%ADD34R,1.200X1.200*%
%ADD35R,0.700X0.700*%
%ADD36R,0.800X0.850*%
G04:AMPARAMS|DCode=105|XSize=2.1mm|YSize=1.9mm|CornerRadius=0.494mm|HoleSize=0mm|Usage=FLASHONLY|Rotation=180.000|XOffset=0mm|YOffset=0mm|HoleType=Round|Shape=RoundedRectangle|*
%AMROUNDEDRECTD105*
21,1,2.100,0.912,0,0,180.0*
21,1,1.112,1.900,0,0,180.0*
1,1,0.988,-0.556,0.456*
1,1,0.988,0.556,0.456*
1,1,0.988,0.556,-0.456*
1,1,0.988,-0.556,-0.456*
%
%ADD105ROUNDEDRECTD105*%
G04:AMPARAMS|DCode=106|XSize=1.05mm|YSize=1.25mm|CornerRadius=0.525mm|HoleSize=0mm|Usage=FLASHONLY|Rotation=180.000|XOffset=0mm|YOffset=0mm|HoleType=Round|Shape=RoundedRectangle|*
%AMROUNDEDRECTD106*
21,1,1.050,0.200,0,0,180.0*
21,1,0.000,1.250,0,0,180.0*
1,1,1.050,0.000,0.100*
1,1,1.050,0.000,0.100*
1,1,1.050,0.000,-0.100*
1,1,1.050,0.000,-0.100*
%
%ADD106ROUNDEDRECTD106*%
%ADD107R,2.100X2.100*%
%ADD108R,2.100X2.100*%
%ADD109C,1.050*%
%ADD110R,1.700X1.700*%
%ADD111R,1.300X1.400*%
G36*
X-51034Y-2625D02*
X-52634D01*
X-52682Y-2621D01*
X-52735Y-2614D01*
X-52788Y-2599D01*
X-52831Y-2583D01*
X-52873Y-2563D01*
X-52917Y-2535D01*
X-52955Y-2506D01*
X-52994Y-2472D01*
X-53023Y-2436D01*
X-53051Y-2399D01*
X-53075Y-2358D01*
X-53095Y-2316D01*
X-53111Y-2274D01*
X-53123Y-2223D01*
X-53130Y-2178D01*
X-53134Y-2125D01*
Y-1225D01*
X-53130Y-1170D01*
X-53122Y-1125D01*
X-53110Y-1075D01*
X-53094Y-1035D01*
X-53081Y-1002D01*
X-53056Y-959D01*
X-53030Y-922D01*
X-52999Y-884D01*
X-52954Y-843D01*
X-52914Y-813D01*
X-52868Y-784D01*
X-52815Y-760D01*
X-52728Y-734D01*
X-52634Y-725D01*
X-51034D01*
Y-2625D01*
D02*
G37*
G36*
X-26650Y-46175D02*
Y-47975D01*
X-27100Y-48725D01*
X-27800D01*
Y-45425D01*
X-27100D01*
X-26650Y-46175D01*
D02*
G37*
G36*
X-28800Y-48725D02*
X-29500D01*
X-29950Y-47975D01*
Y-46175D01*
X-29500Y-45425D01*
X-28800D01*
Y-48725D01*
D02*
G37*
G36*
X-11352Y-729D02*
X-11299Y-736D01*
X-11246Y-751D01*
X-11203Y-767D01*
X-11161Y-787D01*
X-11117Y-815D01*
X-11079Y-844D01*
X-11040Y-878D01*
X-11011Y-914D01*
X-10983Y-951D01*
X-10959Y-992D01*
X-10939Y-1034D01*
X-10923Y-1076D01*
X-10911Y-1127D01*
X-10904Y-1172D01*
X-10900Y-1225D01*
Y-2125D01*
X-10904Y-2180D01*
X-10912Y-2225D01*
X-10924Y-2275D01*
X-10940Y-2315D01*
X-10953Y-2348D01*
X-10978Y-2391D01*
X-11004Y-2428D01*
X-11035Y-2466D01*
X-11080Y-2507D01*
X-11120Y-2537D01*
X-11166Y-2566D01*
X-11219Y-2590D01*
X-11306Y-2616D01*
X-11400Y-2625D01*
X-13000D01*
Y-725D01*
X-11400D01*
X-11352Y-729D01*
D02*
G37*
G36*
X-18200Y-2625D02*
X-19800D01*
X-19848Y-2621D01*
X-19901Y-2614D01*
X-19954Y-2599D01*
X-19997Y-2583D01*
X-20039Y-2563D01*
X-20083Y-2535D01*
X-20121Y-2506D01*
X-20160Y-2472D01*
X-20189Y-2436D01*
X-20217Y-2399D01*
X-20241Y-2358D01*
X-20261Y-2316D01*
X-20277Y-2274D01*
X-20289Y-2223D01*
X-20296Y-2178D01*
X-20300Y-2125D01*
Y-1225D01*
X-20296Y-1170D01*
X-20288Y-1125D01*
X-20276Y-1075D01*
X-20260Y-1035D01*
X-20247Y-1002D01*
X-20222Y-959D01*
X-20196Y-922D01*
X-20165Y-884D01*
X-20120Y-843D01*
X-20080Y-813D01*
X-20034Y-784D01*
X-19981Y-760D01*
X-19894Y-734D01*
X-19800Y-725D01*
X-18200D01*
Y-2625D01*
D02*
G37*
G36*
X-44186Y-729D02*
X-44133Y-736D01*
X-44080Y-751D01*
X-44037Y-767D01*
X-43995Y-787D01*
X-43951Y-815D01*
X-43913Y-844D01*
X-43874Y-878D01*
X-43845Y-914D01*
X-43817Y-951D01*
X-43793Y-992D01*
X-43773Y-1034D01*
X-43757Y-1076D01*
X-43745Y-1127D01*
X-43738Y-1172D01*
X-43734Y-1225D01*
Y-2125D01*
X-43738Y-2180D01*
X-43746Y-2225D01*
X-43758Y-2275D01*
X-43774Y-2315D01*
X-43787Y-2348D01*
X-43812Y-2391D01*
X-43838Y-2428D01*
X-43869Y-2466D01*
X-43914Y-2507D01*
X-43954Y-2537D01*
X-44000Y-2566D01*
X-44053Y-2590D01*
X-44140Y-2616D01*
X-44234Y-2625D01*
X-45834D01*
Y-725D01*
X-44234D01*
X-44186Y-729D01*
D02*
G37*
D13*
X-48434Y-4475D02*
D03*
X-47784D02*
D03*
X-49734D02*
D03*
X-49084D02*
D03*
X-47134D02*
D03*
X-15600D02*
D03*
X-14950D02*
D03*
X-16900D02*
D03*
X-16250D02*
D03*
X-14300D02*
D03*
D14*
X-52375Y-73940D02*
D03*
Y-58140D02*
D03*
D15*
Y-66040D02*
D03*
D16*
X-28000Y-7650D02*
D03*
Y-2150D02*
D03*
X-24000D02*
D03*
Y-7650D02*
D03*
X-35000D02*
D03*
Y-2150D02*
D03*
X-31000D02*
D03*
Y-7650D02*
D03*
D17*
X-37925Y-52075D02*
D03*
X-40525D02*
D03*
D18*
X-39225Y-45825D02*
D03*
D19*
X-33750Y-52425D02*
D03*
X-33250D02*
D03*
X-32750D02*
D03*
X-32250D02*
D03*
X-31750D02*
D03*
X-31250D02*
D03*
X-30750D02*
D03*
X-30250D02*
D03*
X-29750D02*
D03*
X-29250D02*
D03*
X-28750D02*
D03*
X-28250D02*
D03*
X-27750D02*
D03*
X-27250D02*
D03*
X-26750D02*
D03*
X-26250D02*
D03*
Y-63575D02*
D03*
X-26750D02*
D03*
X-27250D02*
D03*
X-27750D02*
D03*
X-28250D02*
D03*
X-28750D02*
D03*
X-29250D02*
D03*
X-29750D02*
D03*
X-30250D02*
D03*
X-30750D02*
D03*
X-31250D02*
D03*
X-31750D02*
D03*
X-32250D02*
D03*
X-32750D02*
D03*
X-33250D02*
D03*
X-33750D02*
D03*
D20*
X-24425Y-54250D02*
D03*
Y-54750D02*
D03*
Y-56250D02*
D03*
Y-56750D02*
D03*
Y-57250D02*
D03*
Y-57750D02*
D03*
Y-58250D02*
D03*
Y-58750D02*
D03*
Y-59250D02*
D03*
Y-59750D02*
D03*
Y-60250D02*
D03*
Y-60750D02*
D03*
Y-61250D02*
D03*
Y-61750D02*
D03*
X-35575D02*
D03*
Y-61250D02*
D03*
Y-60750D02*
D03*
Y-60250D02*
D03*
Y-59750D02*
D03*
Y-59250D02*
D03*
Y-58750D02*
D03*
Y-58250D02*
D03*
Y-57750D02*
D03*
Y-57250D02*
D03*
Y-56750D02*
D03*
Y-56250D02*
D03*
Y-55750D02*
D03*
Y-55250D02*
D03*
Y-54750D02*
D03*
Y-54250D02*
D03*
X-24425Y-55250D02*
D03*
Y-55750D02*
D03*
D21*
X-8750Y-1450D02*
D03*
Y-3550D02*
D03*
X-6500Y-1450D02*
D03*
Y-3550D02*
D03*
D22*
X-49150Y-8878D02*
D03*
X-47050D02*
D03*
Y-6978D02*
D03*
X-16316Y-9300D02*
D03*
X-14216D02*
D03*
Y-7400D02*
D03*
D23*
X-49150Y-7178D02*
D03*
X-16316Y-7600D02*
D03*
D24*
X-29150Y-47075D02*
D03*
X-27450D02*
D03*
D28*
X-22775Y-62300D02*
D03*
Y-61350D02*
D03*
X-11225Y-9575D02*
D03*
Y-8625D02*
D03*
X-12525Y-9575D02*
D03*
Y-8625D02*
D03*
X-17825Y-6425D02*
D03*
Y-7375D02*
D03*
X-31750Y-66525D02*
D03*
Y-65575D02*
D03*
X-22800Y-54675D02*
D03*
Y-53725D02*
D03*
X-28250Y-49850D02*
D03*
Y-50800D02*
D03*
X-37225Y-56775D02*
D03*
Y-57725D02*
D03*
X-50650Y-6228D02*
D03*
Y-7178D02*
D03*
D29*
X-33495Y-44825D02*
D03*
Y-45825D02*
D03*
X-4430Y-58440D02*
D03*
Y-57440D02*
D03*
X-2921Y-58440D02*
D03*
Y-57440D02*
D03*
X-18725Y-7400D02*
D03*
Y-6400D02*
D03*
X-35675Y-11450D02*
D03*
Y-12450D02*
D03*
X-51550Y-7203D02*
D03*
Y-6203D02*
D03*
X-33375Y-68700D02*
D03*
Y-67700D02*
D03*
X-45650Y-10000D02*
D03*
Y-9000D02*
D03*
Y-7975D02*
D03*
Y-6975D02*
D03*
D30*
X-38450Y-56575D02*
D03*
Y-57975D02*
D03*
X-21600Y-62850D02*
D03*
Y-61450D02*
D03*
D31*
X-31150Y-9850D02*
D03*
X-30150D02*
D03*
X-24100Y-9800D02*
D03*
X-23100D02*
D03*
X-20811D02*
D03*
X-21811D02*
D03*
Y-10700D02*
D03*
X-20811D02*
D03*
D32*
X-24075Y-10675D02*
D03*
X-23125D02*
D03*
X-38950Y-53775D02*
D03*
X-38000D02*
D03*
X-40900D02*
D03*
X-41850D02*
D03*
X-30950Y-50900D02*
D03*
X-30000D02*
D03*
D33*
X-11125Y-7500D02*
D03*
X-12525D02*
D03*
D34*
X-34150Y-12000D02*
D03*
X-32050D02*
D03*
D35*
X-39700Y-56550D02*
D03*
Y-57950D02*
D03*
D36*
X-31425Y-49800D02*
D03*
X-30025D02*
D03*
D105*
X-44784Y-1675D02*
D03*
X-52084D02*
D03*
X-11950D02*
D03*
X-19250D02*
D03*
D106*
X-46209Y-4800D02*
D03*
X-50659D02*
D03*
X-13375D02*
D03*
X-17825D02*
D03*
D107*
X-39595Y-66550D02*
D03*
X-37055D02*
D03*
X-28730Y-95570D02*
D03*
Y-93030D02*
D03*
X-26190Y-95570D02*
D03*
Y-93030D02*
D03*
X-23650Y-95570D02*
D03*
Y-93030D02*
D03*
X-21110Y-95570D02*
D03*
Y-93030D02*
D03*
X-18570Y-95570D02*
D03*
X-31270Y-93030D02*
D03*
Y-95570D02*
D03*
X-33810Y-93030D02*
D03*
Y-95570D02*
D03*
X-36350Y-93030D02*
D03*
Y-95570D02*
D03*
X-38890Y-93030D02*
D03*
Y-95570D02*
D03*
X-41430Y-93030D02*
D03*
Y-95570D02*
D03*
X-18570Y-93030D02*
D03*
D108*
X-6970Y-13490D02*
D03*
X-4430D02*
D03*
X-6970Y-16030D02*
D03*
X-4430D02*
D03*
X-6970Y-64290D02*
D03*
X-4430Y-87150D02*
D03*
X-6970D02*
D03*
X-4430Y-84610D02*
D03*
X-6970D02*
D03*
X-4430Y-82070D02*
D03*
X-6970D02*
D03*
X-4430Y-79530D02*
D03*
X-6970D02*
D03*
X-4430Y-76990D02*
D03*
X-6970D02*
D03*
X-4430Y-64290D02*
D03*
X-6970Y-66830D02*
D03*
X-4430D02*
D03*
X-6970Y-69370D02*
D03*
X-4430D02*
D03*
X-6970Y-71910D02*
D03*
X-4430D02*
D03*
X-6970Y-74450D02*
D03*
X-4430D02*
D03*
X-6970Y-28730D02*
D03*
X-4430Y-51590D02*
D03*
X-6970D02*
D03*
X-4430Y-49050D02*
D03*
X-6970D02*
D03*
X-4430Y-46510D02*
D03*
X-6970D02*
D03*
X-4430Y-43970D02*
D03*
X-6970D02*
D03*
X-4430Y-41430D02*
D03*
X-6970D02*
D03*
X-4430Y-28730D02*
D03*
X-6970Y-31270D02*
D03*
X-4430D02*
D03*
X-6970Y-33810D02*
D03*
X-4430D02*
D03*
X-6970Y-36350D02*
D03*
X-4430D02*
D03*
X-6970Y-38890D02*
D03*
X-4430D02*
D03*
X-47156Y-54401D02*
D03*
Y-51861D02*
D03*
Y-49321D02*
D03*
X-41776Y-14760D02*
D03*
Y-17300D02*
D03*
Y-19840D02*
D03*
X-36696Y-14760D02*
D03*
Y-17300D02*
D03*
Y-19840D02*
D03*
D109*
X-8240Y-21740D02*
D03*
X-6970D02*
D03*
X-5700D02*
D03*
X-4430D02*
D03*
X-3160D02*
D03*
Y-23010D02*
D03*
X-4430D02*
D03*
X-5700D02*
D03*
X-6970D02*
D03*
X-8240D02*
D03*
D110*
X-41270Y-10950D02*
D03*
X-38730D02*
D03*
D111*
X-47284Y-1675D02*
D03*
X-49584D02*
D03*
X-14450D02*
D03*
X-16750D02*
D03*
M02*
