G04 Layer_Physical_Order=1*
G04 Layer_Color=255*
%FSLAX43Y43*%
%MOMM*%
G71*
G01*
G75*
%ADD10C,0.180*%
%ADD11C,0.180*%
%ADD12R,0.950X1.000*%
%ADD13R,0.400X1.350*%
%ADD14R,3.200X3.200*%
%ADD15R,4.000X4.000*%
%ADD16R,1.000X2.250*%
%ADD17R,1.000X1.600*%
%ADD18R,3.000X2.500*%
%ADD19O,0.300X1.650*%
%ADD20O,1.650X0.300*%
%ADD21R,1.200X1.200*%
%ADD22R,1.100X0.600*%
%ADD23R,1.100X1.000*%
%ADD24R,0.700X3.300*%
%ADD25R,0.900X0.600*%
%ADD26R,1.000X0.950*%
%ADD27R,1.600X1.300*%
%ADD28R,0.500X0.650*%
%ADD29R,0.550X0.600*%
%ADD30R,0.850X0.800*%
%ADD31R,0.600X0.550*%
%ADD32R,0.650X0.500*%
%ADD33R,0.700X0.700*%
%ADD34R,1.200X1.200*%
%ADD35R,0.700X0.700*%
%ADD36R,0.800X0.850*%
%ADD37C,0.300*%
%ADD38C,0.200*%
%ADD39C,0.250*%
%ADD40C,0.400*%
%ADD41R,0.300X0.900*%
%ADD42R,1.800X1.900*%
%ADD43R,0.900X0.300*%
G04:AMPARAMS|DCode=44|XSize=2.1mm|YSize=1.9mm|CornerRadius=0.494mm|HoleSize=0mm|Usage=FLASHONLY|Rotation=0.000|XOffset=0mm|YOffset=0mm|HoleType=Round|Shape=RoundedRectangle|*
%AMROUNDEDRECTD44*
21,1,2.100,0.912,0,0,0.0*
21,1,1.112,1.900,0,0,0.0*
1,1,0.988,0.556,-0.456*
1,1,0.988,-0.556,-0.456*
1,1,0.988,-0.556,0.456*
1,1,0.988,0.556,0.456*
%
%ADD44ROUNDEDRECTD44*%
G04:AMPARAMS|DCode=45|XSize=1.05mm|YSize=1.25mm|CornerRadius=0.525mm|HoleSize=0mm|Usage=FLASHONLY|Rotation=180.000|XOffset=0mm|YOffset=0mm|HoleType=Round|Shape=RoundedRectangle|*
%AMROUNDEDRECTD45*
21,1,1.050,0.200,0,0,180.0*
21,1,0.000,1.250,0,0,180.0*
1,1,1.050,0.000,0.100*
1,1,1.050,0.000,0.100*
1,1,1.050,0.000,-0.100*
1,1,1.050,0.000,-0.100*
%
%ADD45ROUNDEDRECTD45*%
G04:AMPARAMS|DCode=46|XSize=1.05mm|YSize=1.25mm|CornerRadius=0.525mm|HoleSize=0mm|Usage=FLASHONLY|Rotation=180.000|XOffset=0mm|YOffset=0mm|HoleType=Round|Shape=RoundedRectangle|*
%AMROUNDEDRECTD46*
21,1,1.050,0.200,0,0,180.0*
21,1,0.000,1.250,0,0,180.0*
1,1,1.050,0.000,0.100*
1,1,1.050,0.000,0.100*
1,1,1.050,0.000,-0.100*
1,1,1.050,0.000,-0.100*
%
%ADD46ROUNDEDRECTD46*%
%ADD47C,1.700*%
%ADD48R,1.700X1.700*%
%ADD49R,1.700X1.700*%
%ADD50C,1.700*%
%ADD51R,1.700X1.700*%
%ADD52C,1.050*%
%ADD53C,1.050*%
%ADD54C,3.600*%
%ADD55O,1.050X1.040*%
%ADD56R,1.700X1.700*%
%ADD57C,0.550*%
%ADD58C,0.550*%
%ADD59C,0.400*%
G36*
X-24959Y-66238D02*
Y-71837D01*
X-25590Y-72467D01*
X-25651Y-72558D01*
X-25672Y-72665D01*
Y-73436D01*
X-26087D01*
Y-74736D01*
X-23972D01*
Y-90122D01*
X-23951Y-90229D01*
X-23890Y-90320D01*
X-22627Y-91582D01*
Y-92444D01*
X-22652Y-92458D01*
X-22777Y-92483D01*
X-22919Y-92299D01*
X-23133Y-92135D01*
X-23382Y-92031D01*
X-23650Y-91996D01*
X-23918Y-92031D01*
X-24167Y-92135D01*
X-24381Y-92299D01*
X-24487Y-92437D01*
X-24637Y-92386D01*
Y-90195D01*
X-24658Y-90088D01*
X-24719Y-89997D01*
X-26545Y-88172D01*
Y-77867D01*
X-26566Y-77760D01*
X-26627Y-77669D01*
X-29970Y-74326D01*
Y-72190D01*
X-29820Y-72144D01*
X-29749Y-72249D01*
X-29601Y-72349D01*
X-29425Y-72384D01*
X-29249Y-72349D01*
X-29101Y-72249D01*
X-29001Y-72101D01*
X-28966Y-71925D01*
X-29001Y-71749D01*
X-29101Y-71601D01*
X-29249Y-71501D01*
X-29425Y-71466D01*
X-29495Y-71327D01*
Y-71194D01*
X-29345Y-71090D01*
X-29250Y-71109D01*
X-29074Y-71074D01*
X-28956Y-70995D01*
X-28847Y-71032D01*
X-28806Y-71061D01*
Y-74096D01*
X-28850Y-74126D01*
X-28950Y-74274D01*
X-28985Y-74450D01*
X-28950Y-74626D01*
X-28850Y-74774D01*
X-28701Y-74874D01*
X-28526Y-74909D01*
X-28350Y-74874D01*
X-28201Y-74774D01*
X-28102Y-74626D01*
X-28067Y-74450D01*
X-28102Y-74274D01*
X-28201Y-74126D01*
X-28246Y-74096D01*
Y-73752D01*
X-28096Y-73660D01*
X-27975Y-73684D01*
X-27799Y-73649D01*
X-27651Y-73549D01*
X-27551Y-73401D01*
X-27516Y-73225D01*
X-27551Y-73049D01*
X-27651Y-72901D01*
X-27695Y-72871D01*
Y-70307D01*
X-27556Y-70250D01*
X-27437Y-70369D01*
Y-71683D01*
X-25487D01*
Y-70033D01*
X-26980D01*
X-27326Y-69687D01*
Y-69408D01*
X-26562D01*
Y-68558D01*
Y-67708D01*
X-26924D01*
X-27001Y-67558D01*
X-26973Y-67519D01*
X-26412D01*
Y-67544D01*
X-25862D01*
Y-67044D01*
Y-66544D01*
X-26412D01*
Y-66569D01*
X-26920D01*
Y-65579D01*
X-26876Y-65549D01*
X-26776Y-65401D01*
X-26741Y-65225D01*
X-26752Y-65173D01*
X-26552Y-64973D01*
X-26505Y-64904D01*
X-26401Y-64871D01*
X-26334Y-64863D01*
X-24959Y-66238D01*
D02*
G37*
G36*
X-31030Y-64753D02*
Y-74729D01*
X-31022Y-74769D01*
X-31161Y-74843D01*
X-33745Y-72259D01*
Y-69900D01*
X-33595Y-69819D01*
X-33551Y-69849D01*
X-33375Y-69884D01*
X-33199Y-69849D01*
X-33051Y-69749D01*
X-32951Y-69601D01*
X-32916Y-69425D01*
X-32936Y-69325D01*
X-32925Y-69175D01*
X-32925Y-69175D01*
X-32925Y-69175D01*
Y-68225D01*
X-32925D01*
Y-68175D01*
X-32925D01*
Y-67225D01*
X-32925Y-67225D01*
X-32925D01*
X-33001Y-67075D01*
X-32951Y-67001D01*
X-32916Y-66825D01*
X-32951Y-66649D01*
X-33013Y-66558D01*
X-33011Y-66550D01*
X-32980Y-66530D01*
X-32842Y-66496D01*
X-32738Y-66565D01*
X-32563Y-66600D01*
X-32387Y-66565D01*
X-32350Y-66541D01*
X-32200Y-66621D01*
Y-67050D01*
X-31850D01*
Y-66525D01*
X-31750D01*
Y-66425D01*
X-31300D01*
Y-66000D01*
X-31325D01*
Y-65075D01*
X-31325Y-65075D01*
X-31317Y-64928D01*
X-31291Y-64800D01*
X-31301Y-64750D01*
X-31281Y-64692D01*
X-31166Y-64656D01*
X-31030Y-64753D01*
D02*
G37*
G36*
X-21235Y-715D02*
X-20928Y-842D01*
X-20599Y-885D01*
X-20552Y-879D01*
X-20446Y-1017D01*
X-20458Y-1044D01*
X-20466Y-1107D01*
X-20472Y-1139D01*
X-20471Y-1148D01*
X-20474Y-1157D01*
X-20476Y-1180D01*
X-20481Y-1219D01*
Y-2131D01*
X-20475Y-2172D01*
X-20474Y-2191D01*
X-20472Y-2198D01*
X-20472Y-2205D01*
X-20465Y-2250D01*
X-20465Y-2252D01*
X-20458Y-2306D01*
X-20434Y-2363D01*
X-20428Y-2380D01*
X-20459Y-2421D01*
X-20466Y-2429D01*
X-20476Y-2436D01*
X-20489Y-2455D01*
X-20505Y-2473D01*
X-20508Y-2484D01*
X-20515Y-2494D01*
X-20519Y-2517D01*
X-20527Y-2539D01*
X-20526Y-2551D01*
X-20528Y-2562D01*
Y-5475D01*
X-20515Y-5543D01*
X-20476Y-5601D01*
X-20418Y-5640D01*
X-20350Y-5653D01*
X-18321D01*
X-18205Y-5778D01*
X-18219Y-5889D01*
X-18275Y-5925D01*
Y-5925D01*
X-19175D01*
Y-6760D01*
X-19200Y-6900D01*
X-19200Y-6900D01*
X-19200Y-7050D01*
Y-7300D01*
X-18725D01*
Y-7400D01*
X-18625D01*
Y-7900D01*
X-18275D01*
Y-7900D01*
X-17925D01*
Y-7375D01*
X-17825D01*
Y-7275D01*
X-17375D01*
Y-6850D01*
X-17400D01*
Y-5925D01*
X-17494D01*
Y-5520D01*
X-17472Y-5511D01*
X-17326Y-5399D01*
X-17288Y-5350D01*
X-17000D01*
Y-4475D01*
X-16800D01*
Y-5350D01*
X-16500D01*
X-16400Y-5459D01*
Y-5750D01*
X-16161D01*
Y-6900D01*
X-16216D01*
Y-7600D01*
X-16316D01*
Y-7700D01*
X-17066D01*
Y-8300D01*
X-17175Y-8400D01*
X-17466D01*
Y-10200D01*
X-16161D01*
Y-11176D01*
X-16160Y-11185D01*
X-16197Y-11374D01*
X-16304Y-11534D01*
X-16312Y-11540D01*
X-19348Y-14577D01*
X-19351Y-14574D01*
X-19681Y-14960D01*
X-19947Y-15394D01*
X-20020Y-15569D01*
X-20170Y-15540D01*
Y-11061D01*
X-20191Y-10953D01*
X-20252Y-10862D01*
X-20336Y-10778D01*
Y-10250D01*
X-20336D01*
X-20336D01*
Y-10250D01*
X-20336D01*
X-20336Y-10250D01*
Y-9350D01*
X-20530D01*
Y-9288D01*
X-20552Y-9181D01*
X-20612Y-9090D01*
X-20900Y-8802D01*
X-20991Y-8741D01*
X-21099Y-8720D01*
X-22747D01*
X-22777Y-8676D01*
X-22926Y-8577D01*
X-23101Y-8542D01*
X-23175Y-8556D01*
X-23325Y-8442D01*
Y-6350D01*
X-23720D01*
Y-3450D01*
X-23325D01*
Y-850D01*
X-24675D01*
Y-959D01*
X-24825Y-1061D01*
X-24925Y-1041D01*
X-25101Y-1076D01*
X-25249Y-1176D01*
X-25349Y-1324D01*
X-25384Y-1500D01*
X-25349Y-1676D01*
X-25249Y-1824D01*
X-25101Y-1924D01*
X-24925Y-1959D01*
X-24825Y-1939D01*
X-24675Y-2041D01*
Y-3450D01*
X-24280D01*
Y-6350D01*
X-24675D01*
Y-8950D01*
X-24280D01*
Y-9350D01*
X-24575D01*
Y-10225D01*
X-24600D01*
Y-11069D01*
X-25488D01*
X-26216Y-10341D01*
X-26323Y-10269D01*
X-26450Y-10244D01*
X-28841D01*
X-28922Y-10094D01*
X-28876Y-10026D01*
X-28841Y-9850D01*
X-28876Y-9674D01*
X-28976Y-9526D01*
X-29124Y-9426D01*
X-29300Y-9391D01*
X-29476Y-9426D01*
X-29525Y-9459D01*
X-29543Y-9452D01*
X-29546Y-9451D01*
X-29640Y-9414D01*
X-29675Y-9400D01*
X-29675Y-9400D01*
X-29675D01*
D01*
Y-9400D01*
X-29675Y-9400D01*
Y-9400D01*
X-30625D01*
Y-9400D01*
X-30720Y-9289D01*
Y-8950D01*
X-30325D01*
Y-6350D01*
X-30720D01*
Y-3450D01*
X-30325D01*
Y-2066D01*
X-30175Y-1964D01*
X-30075Y-1984D01*
X-29899Y-1949D01*
X-29751Y-1849D01*
X-29651Y-1701D01*
X-29616Y-1525D01*
X-29651Y-1349D01*
X-29751Y-1201D01*
X-29899Y-1101D01*
X-30075Y-1066D01*
X-30175Y-1086D01*
X-30325Y-984D01*
Y-850D01*
X-31675D01*
Y-3450D01*
X-31280D01*
Y-6350D01*
X-31675D01*
Y-8950D01*
X-31280D01*
Y-9400D01*
X-31625D01*
Y-10244D01*
X-31988D01*
X-33191Y-9041D01*
X-33298Y-8969D01*
X-33425Y-8944D01*
X-34300D01*
Y-7750D01*
X-35700D01*
Y-8944D01*
X-42038D01*
X-44241Y-6741D01*
X-44348Y-6669D01*
X-44475Y-6644D01*
X-45200D01*
Y-6500D01*
X-46100D01*
Y-6644D01*
X-46325D01*
Y-6503D01*
X-46803D01*
Y-5513D01*
X-46653Y-5442D01*
X-46562Y-5511D01*
X-46392Y-5582D01*
X-46209Y-5606D01*
X-46026Y-5582D01*
X-45933Y-5543D01*
X-45932Y-5543D01*
X-45919Y-5563D01*
X-45909Y-5584D01*
X-45900Y-5591D01*
X-45894Y-5601D01*
X-45874Y-5614D01*
X-45857Y-5630D01*
X-45845Y-5633D01*
X-45836Y-5640D01*
X-45813Y-5644D01*
X-45791Y-5652D01*
X-45779Y-5651D01*
X-45767Y-5653D01*
X-43684D01*
X-43616Y-5640D01*
X-43558Y-5601D01*
X-43519Y-5543D01*
X-43506Y-5475D01*
X-43506Y-2562D01*
X-43508Y-2551D01*
X-43507Y-2539D01*
X-43515Y-2517D01*
X-43519Y-2494D01*
X-43526Y-2484D01*
X-43529Y-2473D01*
X-43545Y-2455D01*
X-43558Y-2436D01*
X-43568Y-2429D01*
X-43575Y-2421D01*
X-43596Y-2410D01*
X-43614Y-2398D01*
X-43576Y-2306D01*
X-43568Y-2243D01*
X-43562Y-2211D01*
X-43563Y-2202D01*
X-43560Y-2193D01*
X-43558Y-2170D01*
X-43553Y-2131D01*
Y-1219D01*
X-43559Y-1178D01*
X-43560Y-1159D01*
X-43562Y-1152D01*
X-43562Y-1145D01*
X-43569Y-1100D01*
X-43569Y-1098D01*
X-43576Y-1044D01*
X-43588Y-1016D01*
X-43535Y-912D01*
X-43531Y-906D01*
X-43527Y-903D01*
X-43482Y-879D01*
X-43434Y-885D01*
X-43105Y-842D01*
X-42798Y-715D01*
X-42556Y-529D01*
X-21477D01*
X-21235Y-715D01*
D02*
G37*
G36*
X-18468Y-67728D02*
Y-84313D01*
X-19559Y-85404D01*
X-19611Y-85393D01*
X-19786Y-85428D01*
X-19935Y-85528D01*
X-20035Y-85676D01*
X-20070Y-85852D01*
X-20035Y-86028D01*
X-19935Y-86176D01*
X-19786Y-86276D01*
X-19611Y-86311D01*
X-19435Y-86276D01*
X-19286Y-86176D01*
X-19187Y-86028D01*
X-19152Y-85852D01*
X-19162Y-85800D01*
X-17990Y-84627D01*
X-17929Y-84536D01*
X-17907Y-84429D01*
Y-81174D01*
X-17757Y-81129D01*
X-17750Y-81140D01*
X-17601Y-81239D01*
X-17426Y-81274D01*
X-17279Y-81245D01*
X-17129Y-81324D01*
Y-84339D01*
X-21308Y-88519D01*
X-21369Y-88610D01*
X-21390Y-88717D01*
Y-92037D01*
X-21627Y-92135D01*
X-21841Y-92299D01*
X-21917Y-92397D01*
X-22067Y-92346D01*
Y-91466D01*
X-22088Y-91359D01*
X-22149Y-91268D01*
X-23411Y-90006D01*
Y-74736D01*
X-23037D01*
Y-73436D01*
X-25111D01*
Y-72782D01*
X-24480Y-72151D01*
X-24420Y-72060D01*
X-24398Y-71953D01*
Y-67557D01*
X-23902D01*
Y-67057D01*
X-23702D01*
Y-67557D01*
X-23152D01*
Y-67532D01*
X-22077D01*
Y-67337D01*
X-21279D01*
Y-67954D01*
Y-68304D01*
Y-68699D01*
X-21687D01*
Y-67733D01*
X-23637D01*
Y-69383D01*
X-21687D01*
Y-69260D01*
X-21279D01*
Y-69654D01*
X-19979D01*
Y-67954D01*
Y-66604D01*
X-21279D01*
Y-66777D01*
X-22077D01*
Y-66582D01*
X-22421D01*
Y-66476D01*
X-22443Y-66369D01*
X-22503Y-66278D01*
X-22503Y-66278D01*
X-22753Y-66028D01*
X-22691Y-65878D01*
X-20318D01*
X-18468Y-67728D01*
D02*
G37*
G36*
X-53180Y-2568D02*
X-53156Y-2596D01*
X-53131Y-2622D01*
X-53105Y-2647D01*
X-53077Y-2671D01*
X-53048Y-2693D01*
X-53018Y-2713D01*
X-52987Y-2732D01*
X-52955Y-2750D01*
X-52922Y-2765D01*
X-52889Y-2779D01*
X-52855Y-2791D01*
X-52820Y-2802D01*
X-52784Y-2810D01*
X-52749Y-2817D01*
X-52713Y-2821D01*
X-52676Y-2824D01*
X-52640Y-2825D01*
X-52184D01*
Y-3650D01*
X-50109D01*
Y-4228D01*
X-50120Y-4215D01*
X-50146Y-4187D01*
X-50174Y-4161D01*
X-50203Y-4136D01*
X-50233Y-4113D01*
X-50264Y-4092D01*
X-50296Y-4072D01*
X-50330Y-4054D01*
X-50364Y-4037D01*
X-50399Y-4023D01*
X-50435Y-4010D01*
X-50471Y-3999D01*
X-50508Y-3991D01*
X-50546Y-3984D01*
X-50559Y-3982D01*
Y-4800D01*
X-50659D01*
Y-4900D01*
X-51384D01*
X-51383Y-4938D01*
X-51380Y-4976D01*
X-51375Y-5013D01*
X-51368Y-5051D01*
X-51360Y-5088D01*
X-51349Y-5124D01*
X-51336Y-5160D01*
X-51322Y-5195D01*
X-51305Y-5229D01*
X-51287Y-5263D01*
X-51267Y-5295D01*
X-51246Y-5326D01*
X-51223Y-5356D01*
X-51198Y-5385D01*
X-51172Y-5413D01*
X-51144Y-5439D01*
X-51115Y-5464D01*
X-51101Y-5475D01*
X-53184D01*
Y-2562D01*
X-53180Y-2568D01*
D02*
G37*
G36*
X-10850Y-5475D02*
X-12933D01*
X-12919Y-5464D01*
X-12890Y-5439D01*
X-12862Y-5413D01*
X-12836Y-5385D01*
X-12811Y-5356D01*
X-12788Y-5326D01*
X-12767Y-5295D01*
X-12747Y-5263D01*
X-12729Y-5229D01*
X-12712Y-5195D01*
X-12698Y-5160D01*
X-12685Y-5124D01*
X-12674Y-5088D01*
X-12666Y-5051D01*
X-12659Y-5013D01*
X-12654Y-4976D01*
X-12651Y-4938D01*
X-12650Y-4900D01*
X-13375D01*
Y-4800D01*
X-13475D01*
Y-3982D01*
X-13488Y-3984D01*
X-13526Y-3991D01*
X-13563Y-3999D01*
X-13599Y-4010D01*
X-13635Y-4023D01*
X-13670Y-4037D01*
X-13704Y-4054D01*
X-13738Y-4072D01*
X-13770Y-4092D01*
X-13801Y-4113D01*
X-13831Y-4136D01*
X-13860Y-4161D01*
X-13888Y-4187D01*
X-13914Y-4215D01*
X-13925Y-4228D01*
Y-3650D01*
X-11850D01*
Y-2825D01*
X-11394D01*
X-11358Y-2824D01*
X-11321Y-2821D01*
X-11285Y-2817D01*
X-11250Y-2810D01*
X-11214Y-2802D01*
X-11179Y-2791D01*
X-11145Y-2779D01*
X-11112Y-2765D01*
X-11079Y-2750D01*
X-11047Y-2732D01*
X-11016Y-2713D01*
X-10986Y-2693D01*
X-10957Y-2671D01*
X-10929Y-2647D01*
X-10903Y-2622D01*
X-10878Y-2596D01*
X-10854Y-2568D01*
X-10850Y-2562D01*
X-10850Y-5475D01*
D02*
G37*
G36*
X-43684D02*
X-45767D01*
X-45753Y-5464D01*
X-45724Y-5439D01*
X-45696Y-5413D01*
X-45670Y-5385D01*
X-45645Y-5356D01*
X-45622Y-5326D01*
X-45601Y-5295D01*
X-45581Y-5263D01*
X-45563Y-5229D01*
X-45546Y-5195D01*
X-45532Y-5160D01*
X-45519Y-5124D01*
X-45508Y-5088D01*
X-45500Y-5051D01*
X-45493Y-5013D01*
X-45488Y-4976D01*
X-45485Y-4938D01*
X-45484Y-4900D01*
X-46209D01*
Y-4800D01*
X-46309D01*
Y-3982D01*
X-46322Y-3984D01*
X-46360Y-3991D01*
X-46397Y-3999D01*
X-46433Y-4010D01*
X-46469Y-4023D01*
X-46504Y-4037D01*
X-46538Y-4054D01*
X-46572Y-4072D01*
X-46604Y-4092D01*
X-46635Y-4113D01*
X-46665Y-4136D01*
X-46694Y-4161D01*
X-46722Y-4187D01*
X-46748Y-4215D01*
X-46759Y-4228D01*
Y-3650D01*
X-44684D01*
Y-2825D01*
X-44228D01*
X-44192Y-2824D01*
X-44155Y-2821D01*
X-44119Y-2817D01*
X-44084Y-2810D01*
X-44048Y-2802D01*
X-44013Y-2791D01*
X-43979Y-2779D01*
X-43946Y-2765D01*
X-43913Y-2750D01*
X-43881Y-2732D01*
X-43850Y-2713D01*
X-43820Y-2693D01*
X-43791Y-2671D01*
X-43763Y-2647D01*
X-43737Y-2622D01*
X-43712Y-2596D01*
X-43688Y-2568D01*
X-43684Y-2562D01*
X-43684Y-5475D01*
D02*
G37*
G36*
X-20730Y-13498D02*
Y-18536D01*
X-20880Y-18598D01*
X-23052Y-16427D01*
X-23084Y-16405D01*
X-23038Y-16255D01*
X-22454D01*
X-22424Y-16299D01*
X-22276Y-16399D01*
X-22100Y-16434D01*
X-21924Y-16399D01*
X-21776Y-16299D01*
X-21676Y-16151D01*
X-21641Y-15975D01*
X-21676Y-15799D01*
X-21776Y-15651D01*
X-21924Y-15551D01*
X-22100Y-15516D01*
X-22276Y-15551D01*
X-22424Y-15651D01*
X-22454Y-15695D01*
X-24800D01*
X-24907Y-15716D01*
X-24998Y-15777D01*
X-29287Y-20065D01*
X-29459Y-20025D01*
X-29526Y-19926D01*
X-29610Y-19869D01*
X-29644Y-19691D01*
X-25359Y-15405D01*
X-22950D01*
X-22843Y-15384D01*
X-22752Y-15323D01*
X-20869Y-13440D01*
X-20730Y-13498D01*
D02*
G37*
G36*
X-28650Y-53437D02*
X-28613Y-53430D01*
X-28509Y-53360D01*
X-28377Y-53406D01*
X-28377Y-53406D01*
X-28377D01*
X-28377Y-53406D01*
X-28250Y-53431D01*
X-28240Y-53429D01*
X-28240D01*
X-28240D01*
X-28123Y-53406D01*
X-28105Y-53394D01*
X-28016Y-53334D01*
X-27984D01*
X-27877Y-53406D01*
X-27750Y-53431D01*
X-27749Y-53431D01*
X-27606Y-53534D01*
X-27596Y-53640D01*
X-30881Y-56926D01*
X-30942Y-57017D01*
X-30964Y-57125D01*
Y-59042D01*
X-31256Y-59334D01*
X-31395Y-59277D01*
Y-54450D01*
X-31245Y-54369D01*
X-31201Y-54399D01*
X-31025Y-54434D01*
X-30849Y-54399D01*
X-30701Y-54299D01*
X-30612Y-54166D01*
X-30601Y-54151D01*
X-30441Y-54114D01*
X-30426Y-54124D01*
X-30250Y-54159D01*
X-30074Y-54124D01*
X-29926Y-54024D01*
X-29826Y-53876D01*
X-29791Y-53700D01*
X-29817Y-53571D01*
X-29771Y-53476D01*
X-29713Y-53424D01*
X-29623Y-53406D01*
X-29619Y-53403D01*
X-29500Y-53342D01*
X-29396Y-53396D01*
X-29381Y-53403D01*
X-29381D01*
X-29377Y-53406D01*
X-29260Y-53429D01*
X-29260D01*
X-29260D01*
X-29260D01*
X-29250Y-53431D01*
X-29123Y-53406D01*
X-29123Y-53406D01*
D01*
X-29120Y-53405D01*
X-28991Y-53360D01*
X-28887Y-53430D01*
X-28850Y-53437D01*
Y-52425D01*
X-28650D01*
Y-53437D01*
D02*
G37*
G36*
X-28800Y-48725D02*
X-29500D01*
X-29950Y-47975D01*
X-30650D01*
Y-46175D01*
X-29950D01*
X-29500Y-45425D01*
X-28800D01*
Y-48725D01*
D02*
G37*
G36*
X-26650Y-46175D02*
X-25950D01*
Y-47975D01*
X-26650D01*
X-27100Y-48725D01*
X-27800D01*
Y-45425D01*
X-27100D01*
X-26650Y-46175D01*
D02*
G37*
G36*
X-22855Y-21896D02*
Y-23050D01*
X-22834Y-23157D01*
X-22773Y-23248D01*
X-19873Y-26148D01*
X-19884Y-26200D01*
X-19850Y-26370D01*
X-19847Y-26396D01*
X-19926Y-26520D01*
X-22246D01*
X-22276Y-26476D01*
X-22424Y-26376D01*
X-22600Y-26341D01*
X-22720Y-26365D01*
X-22870Y-26272D01*
Y-25625D01*
X-22870Y-25625D01*
X-22891Y-25518D01*
X-22952Y-25427D01*
X-23245Y-25134D01*
Y-21991D01*
X-23057Y-21804D01*
X-23005Y-21794D01*
X-22855Y-21896D01*
D02*
G37*
G36*
Y-20716D02*
Y-20954D01*
X-23005Y-21056D01*
X-23075Y-21043D01*
X-23221Y-21072D01*
X-23345Y-21155D01*
X-23428Y-21279D01*
X-23445Y-21361D01*
X-23595Y-21346D01*
Y-21275D01*
X-23616Y-21168D01*
X-23677Y-21077D01*
X-23996Y-20757D01*
X-24022Y-20629D01*
X-24105Y-20505D01*
X-24229Y-20422D01*
X-24375Y-20393D01*
X-24521Y-20422D01*
X-24645Y-20505D01*
X-24728Y-20629D01*
X-24757Y-20775D01*
X-24728Y-20921D01*
X-24645Y-21045D01*
X-24521Y-21128D01*
X-24393Y-21154D01*
X-24155Y-21391D01*
Y-25475D01*
X-24134Y-25582D01*
X-24073Y-25673D01*
X-23780Y-25966D01*
Y-27975D01*
X-23759Y-28082D01*
X-23698Y-28173D01*
X-23548Y-28323D01*
X-23559Y-28375D01*
X-23540Y-28470D01*
X-23644Y-28620D01*
X-24373D01*
X-24418Y-28470D01*
X-24351Y-28424D01*
X-24251Y-28276D01*
X-24216Y-28100D01*
X-24251Y-27924D01*
X-24351Y-27776D01*
X-24395Y-27746D01*
Y-24150D01*
X-24395Y-24150D01*
X-24416Y-24043D01*
X-24477Y-23952D01*
X-24477Y-23952D01*
X-24745Y-23684D01*
Y-22980D01*
X-24672Y-22871D01*
X-24643Y-22725D01*
X-24672Y-22579D01*
X-24722Y-22504D01*
X-24755Y-22345D01*
X-24672Y-22221D01*
X-24643Y-22075D01*
X-24672Y-21929D01*
X-24755Y-21805D01*
X-24722Y-21646D01*
X-24672Y-21571D01*
X-24643Y-21425D01*
X-24672Y-21279D01*
X-24755Y-21155D01*
X-24879Y-21072D01*
X-25025Y-21043D01*
X-25171Y-21072D01*
X-25295Y-21155D01*
X-25378Y-21279D01*
X-25407Y-21425D01*
X-25378Y-21571D01*
X-25361Y-21597D01*
X-25397Y-21703D01*
X-25503Y-21739D01*
X-25529Y-21722D01*
X-25675Y-21693D01*
X-25821Y-21722D01*
X-25945Y-21805D01*
X-26028Y-21929D01*
X-26054Y-22057D01*
X-26073Y-22077D01*
X-26134Y-22168D01*
X-26155Y-22275D01*
Y-24100D01*
X-26251Y-24251D01*
X-26370Y-24331D01*
X-26476Y-24295D01*
X-26520Y-24264D01*
Y-21366D01*
X-25657Y-20504D01*
X-25529Y-20478D01*
X-25454Y-20428D01*
X-25295Y-20395D01*
X-25171Y-20478D01*
X-25025Y-20507D01*
X-24879Y-20478D01*
X-24755Y-20395D01*
X-24672Y-20271D01*
X-24643Y-20125D01*
X-24672Y-19979D01*
X-24721Y-19905D01*
X-24654Y-19755D01*
X-23816D01*
X-22855Y-20716D01*
D02*
G37*
G36*
X-23829Y-16405D02*
X-23878Y-16479D01*
X-23907Y-16625D01*
X-23878Y-16771D01*
X-23795Y-16895D01*
Y-16980D01*
X-23878Y-17104D01*
X-23907Y-17250D01*
X-23878Y-17396D01*
X-23795Y-17520D01*
X-23671Y-17603D01*
X-23543Y-17629D01*
X-20555Y-20616D01*
Y-21160D01*
X-20705Y-21206D01*
X-20776Y-21101D01*
X-20924Y-21001D01*
X-21100Y-20966D01*
X-21276Y-21001D01*
X-21424Y-21101D01*
X-21524Y-21249D01*
X-21559Y-21425D01*
X-21524Y-21601D01*
X-21424Y-21749D01*
X-21276Y-21849D01*
X-21100Y-21884D01*
X-20924Y-21849D01*
X-20776Y-21749D01*
X-20705Y-21644D01*
X-20555Y-21690D01*
Y-22800D01*
X-20534Y-22907D01*
X-20473Y-22998D01*
X-17323Y-26148D01*
X-17334Y-26200D01*
X-17300Y-26370D01*
X-17297Y-26396D01*
X-17376Y-26520D01*
X-17649D01*
X-17728Y-26396D01*
X-17725Y-26370D01*
X-17691Y-26200D01*
X-17726Y-26024D01*
X-17826Y-25876D01*
X-17974Y-25776D01*
X-18150Y-25741D01*
X-18202Y-25752D01*
X-21820Y-22134D01*
Y-20450D01*
X-21841Y-20343D01*
X-21902Y-20252D01*
X-23346Y-18807D01*
X-23372Y-18679D01*
X-23455Y-18555D01*
X-23579Y-18472D01*
X-23725Y-18443D01*
X-23871Y-18472D01*
X-23995Y-18555D01*
X-24078Y-18679D01*
X-24107Y-18825D01*
X-24078Y-18971D01*
X-24029Y-19045D01*
X-24096Y-19195D01*
X-24770D01*
X-24879Y-19122D01*
X-25025Y-19093D01*
X-25171Y-19122D01*
X-25295Y-19205D01*
X-25378Y-19329D01*
X-25407Y-19475D01*
X-25378Y-19621D01*
X-25328Y-19696D01*
X-25347Y-19736D01*
X-25497Y-19793D01*
X-25529Y-19772D01*
X-25675Y-19743D01*
X-25821Y-19772D01*
X-25938Y-19850D01*
X-26082Y-19810D01*
X-26100Y-19646D01*
X-25007Y-18554D01*
X-24879Y-18528D01*
X-24755Y-18445D01*
X-24672Y-18321D01*
X-24643Y-18175D01*
X-24672Y-18029D01*
X-24755Y-17905D01*
X-24879Y-17822D01*
X-25025Y-17793D01*
X-25171Y-17822D01*
X-25295Y-17905D01*
X-25405D01*
X-25529Y-17822D01*
X-25675Y-17793D01*
X-25821Y-17822D01*
X-25945Y-17905D01*
X-26028Y-18029D01*
X-26054Y-18157D01*
X-28548Y-20652D01*
X-28609Y-20743D01*
X-28630Y-20850D01*
Y-23361D01*
X-28780Y-23423D01*
X-30320Y-21884D01*
Y-20627D01*
X-30199Y-20583D01*
X-30170Y-20578D01*
X-30026Y-20674D01*
X-29850Y-20709D01*
X-29680Y-20675D01*
X-29654Y-20672D01*
X-29530Y-20751D01*
Y-21696D01*
X-29574Y-21726D01*
X-29674Y-21874D01*
X-29709Y-22050D01*
X-29674Y-22226D01*
X-29574Y-22374D01*
X-29426Y-22474D01*
X-29250Y-22509D01*
X-29074Y-22474D01*
X-28926Y-22374D01*
X-28826Y-22226D01*
X-28791Y-22050D01*
X-28826Y-21874D01*
X-28926Y-21726D01*
X-28970Y-21696D01*
Y-20541D01*
X-24684Y-16255D01*
X-23896D01*
X-23829Y-16405D01*
D02*
G37*
G36*
X-23232Y-61628D02*
X-23225Y-61775D01*
X-23225D01*
Y-62200D01*
X-22775D01*
Y-62300D01*
X-22675D01*
Y-62825D01*
X-22325D01*
X-22225Y-62934D01*
Y-63448D01*
X-22684D01*
X-22713Y-63404D01*
X-22862Y-63305D01*
X-23038Y-63270D01*
X-23213Y-63305D01*
X-23362Y-63404D01*
X-23460Y-63550D01*
X-23599Y-63457D01*
X-23774Y-63422D01*
X-23950Y-63457D01*
X-24099Y-63557D01*
X-24168Y-63661D01*
X-24318Y-63615D01*
Y-63101D01*
X-24340Y-62994D01*
X-24401Y-62903D01*
X-25047Y-62257D01*
X-24984Y-62107D01*
X-24525D01*
Y-61750D01*
X-24425D01*
Y-61650D01*
X-23320D01*
X-23286Y-61612D01*
X-23232Y-61628D01*
D02*
G37*
G36*
X-11352Y-729D02*
X-11299Y-736D01*
X-11246Y-751D01*
X-11203Y-767D01*
X-11161Y-787D01*
X-11117Y-815D01*
X-11079Y-844D01*
X-11040Y-878D01*
X-11011Y-914D01*
X-10983Y-951D01*
X-10959Y-992D01*
X-10939Y-1034D01*
X-10923Y-1076D01*
X-10911Y-1127D01*
X-10904Y-1172D01*
X-10900Y-1225D01*
Y-2125D01*
X-10904Y-2180D01*
X-10912Y-2225D01*
X-10924Y-2275D01*
X-10940Y-2315D01*
X-10953Y-2348D01*
X-10978Y-2391D01*
X-11004Y-2428D01*
X-11035Y-2466D01*
X-11080Y-2507D01*
X-11120Y-2537D01*
X-11166Y-2566D01*
X-11219Y-2590D01*
X-11306Y-2616D01*
X-11400Y-2625D01*
X-13000D01*
Y-725D01*
X-11400D01*
X-11352Y-729D01*
D02*
G37*
G36*
X-18200Y-2625D02*
X-19800D01*
X-19848Y-2621D01*
X-19901Y-2614D01*
X-19954Y-2599D01*
X-19997Y-2583D01*
X-20039Y-2563D01*
X-20083Y-2535D01*
X-20121Y-2506D01*
X-20160Y-2472D01*
X-20189Y-2436D01*
X-20217Y-2399D01*
X-20241Y-2358D01*
X-20261Y-2316D01*
X-20277Y-2274D01*
X-20289Y-2223D01*
X-20296Y-2178D01*
X-20300Y-2125D01*
Y-1225D01*
X-20296Y-1170D01*
X-20288Y-1125D01*
X-20276Y-1075D01*
X-20260Y-1035D01*
X-20247Y-1002D01*
X-20222Y-959D01*
X-20196Y-922D01*
X-20165Y-884D01*
X-20120Y-843D01*
X-20080Y-813D01*
X-20034Y-784D01*
X-19981Y-760D01*
X-19894Y-734D01*
X-19800Y-725D01*
X-18200D01*
Y-2625D01*
D02*
G37*
G36*
X-44186Y-729D02*
X-44133Y-736D01*
X-44080Y-751D01*
X-44037Y-767D01*
X-43995Y-787D01*
X-43951Y-815D01*
X-43913Y-844D01*
X-43874Y-878D01*
X-43845Y-914D01*
X-43817Y-951D01*
X-43793Y-992D01*
X-43773Y-1034D01*
X-43757Y-1076D01*
X-43745Y-1127D01*
X-43738Y-1172D01*
X-43734Y-1225D01*
Y-2125D01*
X-43738Y-2180D01*
X-43746Y-2225D01*
X-43758Y-2275D01*
X-43774Y-2315D01*
X-43787Y-2348D01*
X-43812Y-2391D01*
X-43838Y-2428D01*
X-43869Y-2466D01*
X-43914Y-2507D01*
X-43954Y-2537D01*
X-44000Y-2566D01*
X-44053Y-2590D01*
X-44140Y-2616D01*
X-44234Y-2625D01*
X-45834D01*
Y-725D01*
X-44234D01*
X-44186Y-729D01*
D02*
G37*
G36*
X-51034Y-2625D02*
X-52634D01*
X-52682Y-2621D01*
X-52735Y-2614D01*
X-52788Y-2599D01*
X-52831Y-2583D01*
X-52873Y-2563D01*
X-52917Y-2535D01*
X-52955Y-2506D01*
X-52994Y-2472D01*
X-53023Y-2436D01*
X-53051Y-2399D01*
X-53075Y-2358D01*
X-53095Y-2316D01*
X-53111Y-2274D01*
X-53123Y-2223D01*
X-53130Y-2178D01*
X-53134Y-2125D01*
Y-1225D01*
X-53130Y-1170D01*
X-53122Y-1125D01*
X-53110Y-1075D01*
X-53094Y-1035D01*
X-53081Y-1002D01*
X-53056Y-959D01*
X-53030Y-922D01*
X-52999Y-884D01*
X-52954Y-843D01*
X-52914Y-813D01*
X-52868Y-784D01*
X-52815Y-760D01*
X-52728Y-734D01*
X-52634Y-725D01*
X-51034D01*
Y-2625D01*
D02*
G37*
G36*
X-20346Y-2568D02*
X-20322Y-2596D01*
X-20297Y-2622D01*
X-20271Y-2647D01*
X-20243Y-2671D01*
X-20214Y-2693D01*
X-20184Y-2713D01*
X-20153Y-2732D01*
X-20121Y-2750D01*
X-20088Y-2765D01*
X-20055Y-2779D01*
X-20021Y-2791D01*
X-19986Y-2802D01*
X-19950Y-2810D01*
X-19915Y-2817D01*
X-19879Y-2821D01*
X-19842Y-2824D01*
X-19806Y-2825D01*
X-19350D01*
Y-3650D01*
X-17275D01*
Y-4228D01*
X-17286Y-4215D01*
X-17312Y-4187D01*
X-17340Y-4161D01*
X-17369Y-4136D01*
X-17399Y-4113D01*
X-17430Y-4092D01*
X-17462Y-4072D01*
X-17496Y-4054D01*
X-17530Y-4037D01*
X-17565Y-4023D01*
X-17601Y-4010D01*
X-17637Y-3999D01*
X-17674Y-3991D01*
X-17712Y-3984D01*
X-17725Y-3982D01*
Y-4800D01*
X-17825D01*
Y-4900D01*
X-18550D01*
X-18549Y-4938D01*
X-18546Y-4976D01*
X-18541Y-5013D01*
X-18534Y-5051D01*
X-18526Y-5088D01*
X-18515Y-5124D01*
X-18502Y-5160D01*
X-18488Y-5195D01*
X-18471Y-5229D01*
X-18453Y-5263D01*
X-18433Y-5295D01*
X-18412Y-5326D01*
X-18389Y-5356D01*
X-18364Y-5385D01*
X-18338Y-5413D01*
X-18310Y-5439D01*
X-18281Y-5464D01*
X-18267Y-5475D01*
X-20350D01*
Y-2562D01*
X-20346Y-2568D01*
D02*
G37*
G36*
X-529Y-99471D02*
X-59471D01*
Y-529D01*
X-54311D01*
X-54069Y-715D01*
X-53762Y-842D01*
X-53433Y-885D01*
X-53386Y-879D01*
X-53280Y-1017D01*
X-53292Y-1044D01*
X-53300Y-1107D01*
X-53306Y-1139D01*
X-53305Y-1148D01*
X-53308Y-1157D01*
X-53310Y-1180D01*
X-53315Y-1219D01*
Y-2131D01*
X-53309Y-2172D01*
X-53308Y-2191D01*
X-53306Y-2198D01*
X-53306Y-2205D01*
X-53299Y-2250D01*
X-53299Y-2252D01*
X-53292Y-2306D01*
X-53268Y-2363D01*
X-53262Y-2380D01*
X-53293Y-2421D01*
X-53300Y-2429D01*
X-53310Y-2436D01*
X-53323Y-2455D01*
X-53339Y-2473D01*
X-53342Y-2484D01*
X-53349Y-2494D01*
X-53353Y-2517D01*
X-53361Y-2539D01*
X-53360Y-2551D01*
X-53362Y-2562D01*
Y-5475D01*
X-53349Y-5543D01*
X-53310Y-5601D01*
X-53252Y-5640D01*
X-53184Y-5653D01*
X-52119D01*
X-52000Y-5728D01*
Y-6563D01*
X-52025Y-6703D01*
X-52025Y-6703D01*
X-52025Y-6853D01*
Y-7103D01*
X-51550D01*
Y-7203D01*
X-51450D01*
Y-7703D01*
X-51100D01*
Y-7703D01*
X-50750D01*
Y-7178D01*
X-50650D01*
Y-7078D01*
X-50200D01*
Y-6653D01*
X-50225D01*
Y-5728D01*
X-50379D01*
Y-5542D01*
X-50306Y-5511D01*
X-50160Y-5399D01*
X-50122Y-5350D01*
X-49834D01*
Y-4475D01*
X-49634D01*
Y-5350D01*
X-49572D01*
X-49492Y-5500D01*
X-49508Y-5524D01*
X-49543Y-5700D01*
X-49508Y-5876D01*
X-49408Y-6024D01*
X-49260Y-6124D01*
X-49084Y-6159D01*
X-48995Y-6232D01*
Y-6478D01*
X-49050D01*
Y-7178D01*
X-49150D01*
Y-7278D01*
X-49900D01*
Y-7878D01*
X-50009Y-7978D01*
X-50300D01*
Y-9778D01*
X-48995D01*
Y-32867D01*
X-48998D01*
X-48961Y-33542D01*
X-48847Y-34209D01*
X-48660Y-34859D01*
X-48401Y-35484D01*
X-48074Y-36076D01*
X-47682Y-36628D01*
X-47232Y-37133D01*
X-46727Y-37583D01*
X-46175Y-37975D01*
X-45583Y-38302D01*
X-44958Y-38561D01*
X-44308Y-38748D01*
X-43641Y-38862D01*
X-42966Y-38899D01*
Y-38896D01*
X-30227D01*
X-30218Y-38895D01*
X-29867Y-38929D01*
X-29521Y-39034D01*
X-29201Y-39205D01*
X-28929Y-39429D01*
X-28923Y-39436D01*
X-21267Y-47092D01*
X-21257Y-47100D01*
X-21076Y-47335D01*
X-20958Y-47621D01*
X-20919Y-47915D01*
X-20921Y-47928D01*
Y-54221D01*
X-20920Y-54232D01*
X-20959Y-54326D01*
X-20967Y-54333D01*
X-20971Y-54337D01*
X-21165Y-54487D01*
X-21397Y-54583D01*
X-21640Y-54615D01*
X-21646Y-54614D01*
X-22350D01*
Y-54275D01*
X-22341Y-54259D01*
X-22200Y-54164D01*
X-22100Y-54184D01*
X-21924Y-54149D01*
X-21776Y-54049D01*
X-21676Y-53901D01*
X-21641Y-53725D01*
X-21676Y-53549D01*
X-21776Y-53401D01*
X-21924Y-53301D01*
X-22100Y-53266D01*
X-22225Y-53291D01*
X-22375Y-53225D01*
Y-53225D01*
X-22375Y-53225D01*
X-23225D01*
Y-53753D01*
X-23441Y-53970D01*
X-23585D01*
X-23623Y-53944D01*
X-23750Y-53919D01*
X-25100D01*
X-25227Y-53944D01*
X-25334Y-54016D01*
X-25345Y-54031D01*
X-25495Y-53986D01*
Y-51366D01*
X-23827Y-49698D01*
X-23766Y-49607D01*
X-23745Y-49500D01*
X-23745Y-49500D01*
Y-45360D01*
X-23766Y-45253D01*
X-23827Y-45162D01*
X-29462Y-39527D01*
X-29553Y-39466D01*
X-29660Y-39445D01*
X-30421D01*
X-30451Y-39401D01*
X-30599Y-39301D01*
X-30775Y-39266D01*
X-30951Y-39301D01*
X-31099Y-39401D01*
X-31199Y-39549D01*
X-31234Y-39725D01*
X-31204Y-39874D01*
X-31220Y-39902D01*
X-31260Y-39948D01*
X-31318Y-39992D01*
X-31450Y-39966D01*
X-31626Y-40001D01*
X-31774Y-40101D01*
X-31874Y-40249D01*
X-31909Y-40425D01*
X-31903Y-40455D01*
X-31989Y-40591D01*
X-32165Y-40626D01*
X-32313Y-40726D01*
X-32413Y-40874D01*
X-32448Y-41050D01*
X-32413Y-41226D01*
X-32313Y-41374D01*
X-32165Y-41474D01*
X-31989Y-41509D01*
X-31813Y-41474D01*
X-31665Y-41374D01*
X-31635Y-41330D01*
X-29641D01*
X-29060Y-41912D01*
X-29120Y-42064D01*
X-29249Y-42151D01*
X-29349Y-42299D01*
X-29384Y-42475D01*
X-29349Y-42651D01*
X-29249Y-42799D01*
X-29101Y-42899D01*
X-28925Y-42934D01*
X-28873Y-42923D01*
X-25950Y-45847D01*
X-26012Y-45997D01*
X-26549D01*
X-26925Y-45370D01*
Y-45250D01*
X-27083D01*
X-27100Y-45247D01*
X-27800D01*
X-27817Y-45250D01*
X-27975D01*
Y-45408D01*
X-27978Y-45425D01*
Y-48725D01*
X-27975Y-48742D01*
Y-48900D01*
X-27817D01*
X-27800Y-48903D01*
X-27630D01*
Y-49283D01*
X-27656Y-49311D01*
X-27800Y-49325D01*
Y-49325D01*
X-28150D01*
Y-49850D01*
X-28350D01*
Y-49325D01*
X-28700D01*
X-28770Y-49204D01*
Y-48900D01*
X-28625D01*
Y-48742D01*
X-28622Y-48725D01*
Y-45425D01*
X-28625Y-45408D01*
Y-45250D01*
X-28783D01*
X-28800Y-45247D01*
X-29500D01*
X-29517Y-45250D01*
X-29675D01*
Y-45370D01*
X-30051Y-45997D01*
X-30650D01*
X-30718Y-46010D01*
X-30776Y-46049D01*
X-30815Y-46107D01*
X-30828Y-46175D01*
Y-47975D01*
X-30815Y-48043D01*
X-30776Y-48101D01*
X-30718Y-48140D01*
X-30650Y-48153D01*
X-30051D01*
X-29912Y-48386D01*
X-30006Y-48520D01*
X-30025Y-48516D01*
X-30201Y-48551D01*
X-30349Y-48651D01*
X-30449Y-48799D01*
X-30484Y-48975D01*
X-30469Y-49050D01*
X-30583Y-49200D01*
X-30600D01*
Y-50322D01*
X-30729Y-50404D01*
X-30825Y-50358D01*
Y-49900D01*
X-31425D01*
Y-49800D01*
X-31525D01*
Y-49175D01*
X-31945D01*
Y-47763D01*
X-31869Y-47732D01*
X-31724Y-47621D01*
X-31613Y-47475D01*
X-31543Y-47306D01*
X-31519Y-47125D01*
X-31543Y-46944D01*
X-31613Y-46775D01*
X-31724Y-46629D01*
X-31869Y-46518D01*
X-32039Y-46448D01*
X-32220Y-46424D01*
X-32230D01*
X-32411Y-46448D01*
X-32581Y-46518D01*
X-32726Y-46629D01*
X-32765Y-46681D01*
X-32955D01*
X-32994Y-46629D01*
X-33139Y-46518D01*
X-33215Y-46487D01*
Y-46300D01*
X-33045D01*
Y-45450D01*
X-33045Y-45350D01*
Y-45325D01*
Y-45300D01*
X-33045Y-45200D01*
Y-44350D01*
X-33045Y-44350D01*
X-33045D01*
X-33092Y-44200D01*
X-33076Y-44176D01*
X-33041Y-44000D01*
X-33076Y-43824D01*
X-33176Y-43676D01*
X-33324Y-43576D01*
X-33500Y-43541D01*
X-33676Y-43576D01*
X-33824Y-43676D01*
X-33924Y-43824D01*
X-33959Y-44000D01*
X-33924Y-44176D01*
X-33908Y-44200D01*
X-33945Y-44350D01*
X-33945D01*
X-33945Y-44350D01*
Y-45200D01*
X-33945Y-45300D01*
Y-45325D01*
Y-45350D01*
X-33945Y-45450D01*
Y-46300D01*
X-33775D01*
Y-46487D01*
X-33850Y-46518D01*
X-33996Y-46629D01*
X-34107Y-46775D01*
X-34177Y-46944D01*
X-34201Y-47125D01*
X-34177Y-47306D01*
X-34107Y-47475D01*
X-33996Y-47621D01*
X-33850Y-47732D01*
X-33775Y-47763D01*
Y-47780D01*
X-33754Y-47887D01*
X-33693Y-47978D01*
X-33530Y-48141D01*
Y-51339D01*
X-33680Y-51432D01*
X-33750Y-51419D01*
X-33877Y-51444D01*
X-33984Y-51516D01*
X-34056Y-51623D01*
X-34081Y-51750D01*
Y-52119D01*
X-34923D01*
X-38434Y-48609D01*
X-38533Y-48542D01*
X-38650Y-48519D01*
X-38650Y-48519D01*
X-42700D01*
X-42700Y-48519D01*
X-42817Y-48542D01*
X-42916Y-48609D01*
X-42916Y-48609D01*
X-45863Y-51555D01*
X-46174D01*
X-46261Y-51344D01*
X-46425Y-51130D01*
X-46639Y-50966D01*
X-46889Y-50862D01*
X-47156Y-50827D01*
X-47424Y-50862D01*
X-47673Y-50966D01*
X-47887Y-51130D01*
X-48052Y-51344D01*
X-48155Y-51593D01*
X-48190Y-51861D01*
X-48155Y-52129D01*
X-48052Y-52378D01*
X-47887Y-52592D01*
X-47673Y-52756D01*
X-47424Y-52860D01*
X-47156Y-52895D01*
X-46889Y-52860D01*
X-46639Y-52756D01*
X-46425Y-52592D01*
X-46261Y-52378D01*
X-46174Y-52167D01*
X-45736D01*
X-45736Y-52167D01*
X-45619Y-52144D01*
X-45520Y-52077D01*
X-42573Y-49131D01*
X-38777D01*
X-35266Y-52641D01*
X-35266Y-52641D01*
X-35207Y-52681D01*
X-35167Y-52708D01*
X-35050Y-52731D01*
X-34081D01*
Y-53100D01*
X-34056Y-53227D01*
X-33984Y-53334D01*
X-33877Y-53406D01*
X-33750Y-53431D01*
X-33623Y-53406D01*
X-33619Y-53403D01*
X-33550Y-53368D01*
X-33430Y-53424D01*
X-33398Y-53577D01*
X-33448Y-53627D01*
X-33509Y-53718D01*
X-33530Y-53825D01*
Y-54046D01*
X-33574Y-54076D01*
X-33674Y-54224D01*
X-33709Y-54400D01*
X-33694Y-54475D01*
X-33797Y-54640D01*
X-33853Y-54648D01*
X-34006Y-54711D01*
X-34032Y-54716D01*
X-34055Y-54731D01*
X-34066Y-54736D01*
X-34096Y-54759D01*
X-34123Y-54777D01*
X-34135Y-54788D01*
X-34249Y-54876D01*
X-34321Y-54970D01*
X-34489D01*
X-34582Y-54820D01*
X-34569Y-54750D01*
X-34594Y-54623D01*
X-34597Y-54619D01*
X-34658Y-54500D01*
X-34597Y-54381D01*
X-34594Y-54377D01*
X-34569Y-54250D01*
X-34594Y-54123D01*
X-34666Y-54016D01*
X-34773Y-53944D01*
X-34900Y-53919D01*
X-36250D01*
X-36377Y-53944D01*
X-36415Y-53970D01*
X-37409D01*
X-37500Y-53878D01*
Y-53350D01*
X-37645D01*
Y-53050D01*
X-37250D01*
Y-51100D01*
X-38600D01*
Y-53050D01*
X-38205D01*
Y-53350D01*
X-38425D01*
Y-53325D01*
X-38850D01*
Y-53775D01*
Y-54225D01*
X-38425D01*
Y-54200D01*
X-37972D01*
X-37852Y-54320D01*
X-37914Y-54470D01*
X-40759D01*
X-40865Y-54364D01*
X-40807Y-54225D01*
X-40375D01*
Y-53875D01*
X-40900D01*
Y-53775D01*
X-41000D01*
Y-53325D01*
X-41425D01*
Y-53350D01*
X-41645D01*
Y-53106D01*
X-41539Y-53000D01*
X-41329D01*
X-41200Y-53050D01*
X-41200Y-53050D01*
X-41200Y-53050D01*
X-41200Y-53050D01*
X-39850D01*
Y-51100D01*
X-40245D01*
Y-51075D01*
X-40266Y-50968D01*
X-40327Y-50877D01*
X-40777Y-50427D01*
X-40868Y-50366D01*
X-40975Y-50345D01*
X-41275D01*
Y-49950D01*
X-42575D01*
Y-51300D01*
X-42253D01*
Y-51650D01*
X-42575D01*
Y-53000D01*
X-42205D01*
Y-53350D01*
X-42350D01*
Y-54200D01*
X-41822D01*
X-41073Y-54948D01*
X-40982Y-55009D01*
X-40875Y-55030D01*
X-37544D01*
X-37441Y-55180D01*
X-37461Y-55278D01*
X-37426Y-55453D01*
X-37326Y-55602D01*
X-37177Y-55702D01*
X-37005Y-55736D01*
X-37006Y-55750D01*
X-36981Y-55946D01*
X-36958Y-56000D01*
X-36981Y-56054D01*
X-37006Y-56250D01*
X-37125D01*
Y-56775D01*
X-37225D01*
Y-56875D01*
X-37675D01*
Y-57300D01*
X-37650D01*
Y-57545D01*
X-37850D01*
Y-57400D01*
X-39035D01*
X-39050Y-57400D01*
Y-57400D01*
X-39050Y-57400D01*
Y-57400D01*
X-39175Y-57425D01*
X-39175D01*
Y-57425D01*
X-39175Y-57425D01*
X-40225D01*
Y-57670D01*
X-40371D01*
X-40401Y-57626D01*
X-40549Y-57526D01*
X-40725Y-57491D01*
X-40901Y-57526D01*
X-41049Y-57626D01*
X-41149Y-57774D01*
X-41184Y-57950D01*
X-41149Y-58126D01*
X-41049Y-58274D01*
X-40901Y-58374D01*
X-40725Y-58409D01*
X-40549Y-58374D01*
X-40401Y-58274D01*
X-40371Y-58230D01*
X-40225D01*
Y-58475D01*
X-39175D01*
X-39175Y-58475D01*
Y-58475D01*
X-39175Y-58475D01*
X-39050Y-58535D01*
Y-58550D01*
X-37850D01*
Y-58186D01*
X-37700Y-58143D01*
X-37650Y-58225D01*
X-37650D01*
D01*
X-37617Y-58375D01*
X-37677Y-58522D01*
X-37708Y-58750D01*
X-37677Y-58978D01*
X-37589Y-59191D01*
X-37557Y-59234D01*
X-37614Y-59309D01*
X-37702Y-59522D01*
X-37733Y-59750D01*
X-37702Y-59978D01*
X-37614Y-60191D01*
X-37569Y-60250D01*
X-37614Y-60309D01*
X-37702Y-60522D01*
X-37733Y-60750D01*
X-37702Y-60978D01*
X-37614Y-61191D01*
X-37582Y-61234D01*
X-37639Y-61309D01*
X-37727Y-61522D01*
X-37758Y-61750D01*
X-37727Y-61978D01*
X-37639Y-62191D01*
X-37499Y-62374D01*
X-37316Y-62514D01*
X-37103Y-62602D01*
X-36875Y-62633D01*
X-36647Y-62602D01*
X-36434Y-62514D01*
X-36398Y-62487D01*
X-36250Y-62506D01*
X-35249D01*
X-35192Y-62645D01*
X-35648Y-63102D01*
X-35709Y-63193D01*
X-35730Y-63300D01*
Y-75350D01*
X-35709Y-75457D01*
X-35648Y-75548D01*
X-34804Y-76392D01*
Y-80405D01*
X-34851Y-80438D01*
X-34954Y-80472D01*
X-35074Y-80391D01*
X-35250Y-80356D01*
X-35426Y-80391D01*
X-35574Y-80491D01*
X-35674Y-80640D01*
X-35709Y-80815D01*
X-35674Y-80991D01*
X-35574Y-81140D01*
X-35530Y-81169D01*
Y-92178D01*
X-35680Y-92252D01*
X-35833Y-92135D01*
X-36070Y-92037D01*
Y-83818D01*
X-36026Y-83789D01*
X-35926Y-83640D01*
X-35891Y-83464D01*
X-35926Y-83289D01*
X-36026Y-83140D01*
X-36174Y-83041D01*
X-36350Y-83006D01*
X-36526Y-83041D01*
X-36674Y-83140D01*
X-36774Y-83289D01*
X-36809Y-83464D01*
X-36774Y-83640D01*
X-36674Y-83789D01*
X-36630Y-83818D01*
Y-92037D01*
X-36867Y-92135D01*
X-37081Y-92299D01*
X-37145Y-92382D01*
X-37295Y-92331D01*
Y-86206D01*
X-37251Y-86176D01*
X-37151Y-86028D01*
X-37116Y-85852D01*
X-37151Y-85676D01*
X-37251Y-85528D01*
X-37399Y-85428D01*
X-37575Y-85393D01*
X-37751Y-85428D01*
X-37899Y-85528D01*
X-37999Y-85676D01*
X-38034Y-85852D01*
X-37999Y-86028D01*
X-37899Y-86176D01*
X-37855Y-86206D01*
Y-92457D01*
X-37958Y-92499D01*
X-38005Y-92499D01*
X-38159Y-92299D01*
X-38373Y-92135D01*
X-38607Y-92038D01*
Y-84964D01*
X-38563Y-84934D01*
X-38464Y-84786D01*
X-38429Y-84610D01*
X-38464Y-84434D01*
X-38563Y-84286D01*
X-38712Y-84186D01*
X-38887Y-84151D01*
X-39063Y-84186D01*
X-39212Y-84286D01*
X-39311Y-84434D01*
X-39346Y-84610D01*
X-39311Y-84786D01*
X-39212Y-84934D01*
X-39168Y-84964D01*
Y-92036D01*
X-39407Y-92135D01*
X-39621Y-92299D01*
X-39785Y-92513D01*
X-39889Y-92762D01*
X-39924Y-93030D01*
X-39889Y-93298D01*
X-39785Y-93547D01*
X-39621Y-93761D01*
X-39407Y-93925D01*
X-39158Y-94029D01*
X-38890Y-94064D01*
X-38622Y-94029D01*
X-38373Y-93925D01*
X-38159Y-93761D01*
X-38005Y-93561D01*
X-37958Y-93561D01*
X-37855Y-93603D01*
Y-94139D01*
X-38386Y-94669D01*
X-38622Y-94571D01*
X-38890Y-94536D01*
X-39158Y-94571D01*
X-39407Y-94675D01*
X-39621Y-94839D01*
X-39785Y-95053D01*
X-39889Y-95302D01*
X-39924Y-95570D01*
X-39889Y-95838D01*
X-39785Y-96087D01*
X-39621Y-96301D01*
X-39407Y-96465D01*
X-39158Y-96569D01*
X-38890Y-96604D01*
X-38622Y-96569D01*
X-38373Y-96465D01*
X-38159Y-96301D01*
X-37995Y-96087D01*
X-37891Y-95838D01*
X-37856Y-95570D01*
X-37891Y-95302D01*
X-37989Y-95066D01*
X-37377Y-94453D01*
X-37316Y-94362D01*
X-37295Y-94255D01*
Y-93729D01*
X-37145Y-93678D01*
X-37081Y-93761D01*
X-36867Y-93925D01*
X-36618Y-94029D01*
X-36350Y-94064D01*
X-36082Y-94029D01*
X-35833Y-93925D01*
X-35680Y-93808D01*
X-35530Y-93882D01*
Y-94354D01*
X-35846Y-94669D01*
X-36082Y-94571D01*
X-36350Y-94536D01*
X-36618Y-94571D01*
X-36867Y-94675D01*
X-37081Y-94839D01*
X-37245Y-95053D01*
X-37349Y-95302D01*
X-37384Y-95570D01*
X-37349Y-95838D01*
X-37245Y-96087D01*
X-37081Y-96301D01*
X-36867Y-96465D01*
X-36618Y-96569D01*
X-36350Y-96604D01*
X-36082Y-96569D01*
X-35833Y-96465D01*
X-35619Y-96301D01*
X-35455Y-96087D01*
X-35351Y-95838D01*
X-35316Y-95570D01*
X-35351Y-95302D01*
X-35449Y-95066D01*
X-35052Y-94668D01*
X-34991Y-94577D01*
X-34970Y-94470D01*
Y-93224D01*
X-34820Y-93214D01*
X-34809Y-93298D01*
X-34705Y-93547D01*
X-34541Y-93761D01*
X-34327Y-93925D01*
X-34078Y-94029D01*
X-33810Y-94064D01*
X-33542Y-94029D01*
X-33293Y-93925D01*
X-33079Y-93761D01*
X-32993Y-93649D01*
X-32843Y-93700D01*
Y-94207D01*
X-33306Y-94669D01*
X-33542Y-94571D01*
X-33810Y-94536D01*
X-34078Y-94571D01*
X-34327Y-94675D01*
X-34541Y-94839D01*
X-34705Y-95053D01*
X-34809Y-95302D01*
X-34844Y-95570D01*
X-34809Y-95838D01*
X-34705Y-96087D01*
X-34541Y-96301D01*
X-34327Y-96465D01*
X-34078Y-96569D01*
X-33810Y-96604D01*
X-33542Y-96569D01*
X-33293Y-96465D01*
X-33079Y-96301D01*
X-32915Y-96087D01*
X-32811Y-95838D01*
X-32776Y-95570D01*
X-32811Y-95302D01*
X-32909Y-95066D01*
X-32365Y-94521D01*
X-32304Y-94430D01*
X-32282Y-94323D01*
Y-93641D01*
X-32132Y-93590D01*
X-32001Y-93761D01*
X-31787Y-93925D01*
X-31538Y-94029D01*
X-31270Y-94064D01*
X-31002Y-94029D01*
X-30753Y-93925D01*
X-30539Y-93761D01*
X-30455Y-93652D01*
X-30305Y-93703D01*
Y-94209D01*
X-30766Y-94669D01*
X-31002Y-94571D01*
X-31270Y-94536D01*
X-31538Y-94571D01*
X-31787Y-94675D01*
X-32001Y-94839D01*
X-32165Y-95053D01*
X-32269Y-95302D01*
X-32304Y-95570D01*
X-32269Y-95838D01*
X-32165Y-96087D01*
X-32001Y-96301D01*
X-31787Y-96465D01*
X-31538Y-96569D01*
X-31270Y-96604D01*
X-31002Y-96569D01*
X-30753Y-96465D01*
X-30539Y-96301D01*
X-30375Y-96087D01*
X-30271Y-95838D01*
X-30236Y-95570D01*
X-30271Y-95302D01*
X-30369Y-95066D01*
X-29827Y-94523D01*
X-29766Y-94432D01*
X-29745Y-94325D01*
Y-93637D01*
X-29595Y-93587D01*
X-29461Y-93761D01*
X-29247Y-93925D01*
X-28998Y-94029D01*
X-28730Y-94064D01*
X-28462Y-94029D01*
X-28213Y-93925D01*
X-27999Y-93761D01*
X-27835Y-93547D01*
X-27731Y-93298D01*
X-27696Y-93030D01*
X-27731Y-92762D01*
X-27835Y-92513D01*
X-27999Y-92299D01*
X-28213Y-92135D01*
X-28462Y-92031D01*
X-28730Y-91996D01*
X-28998Y-92031D01*
X-29247Y-92135D01*
X-29461Y-92299D01*
X-29513Y-92367D01*
X-29715Y-92387D01*
X-29748Y-92359D01*
Y-76372D01*
X-29748Y-76372D01*
X-29756Y-76331D01*
X-29618Y-76257D01*
X-27580Y-78295D01*
Y-88958D01*
X-27559Y-89066D01*
X-27498Y-89157D01*
X-26470Y-90185D01*
Y-92037D01*
X-26707Y-92135D01*
X-26921Y-92299D01*
X-27085Y-92513D01*
X-27189Y-92762D01*
X-27224Y-93030D01*
X-27189Y-93298D01*
X-27085Y-93547D01*
X-26921Y-93761D01*
X-26707Y-93925D01*
X-26458Y-94029D01*
X-26190Y-94064D01*
X-25922Y-94029D01*
X-25673Y-93925D01*
X-25459Y-93761D01*
X-25348Y-93616D01*
X-25198Y-93667D01*
Y-94181D01*
X-25686Y-94669D01*
X-25922Y-94571D01*
X-26190Y-94536D01*
X-26458Y-94571D01*
X-26707Y-94675D01*
X-26921Y-94839D01*
X-27085Y-95053D01*
X-27189Y-95302D01*
X-27224Y-95570D01*
X-27189Y-95838D01*
X-27085Y-96087D01*
X-26921Y-96301D01*
X-26707Y-96465D01*
X-26458Y-96569D01*
X-26190Y-96604D01*
X-25922Y-96569D01*
X-25673Y-96465D01*
X-25459Y-96301D01*
X-25295Y-96087D01*
X-25191Y-95838D01*
X-25156Y-95570D01*
X-25191Y-95302D01*
X-25289Y-95066D01*
X-24719Y-94496D01*
X-24658Y-94405D01*
X-24637Y-94297D01*
Y-93674D01*
X-24487Y-93623D01*
X-24381Y-93761D01*
X-24167Y-93925D01*
X-23918Y-94029D01*
X-23650Y-94064D01*
X-23382Y-94029D01*
X-23133Y-93925D01*
X-22919Y-93761D01*
X-22777Y-93577D01*
X-22652Y-93602D01*
X-22627Y-93616D01*
Y-94151D01*
X-23146Y-94669D01*
X-23382Y-94571D01*
X-23650Y-94536D01*
X-23918Y-94571D01*
X-24167Y-94675D01*
X-24381Y-94839D01*
X-24545Y-95053D01*
X-24649Y-95302D01*
X-24684Y-95570D01*
X-24649Y-95838D01*
X-24545Y-96087D01*
X-24381Y-96301D01*
X-24167Y-96465D01*
X-23918Y-96569D01*
X-23650Y-96604D01*
X-23382Y-96569D01*
X-23133Y-96465D01*
X-22919Y-96301D01*
X-22755Y-96087D01*
X-22651Y-95838D01*
X-22616Y-95570D01*
X-22651Y-95302D01*
X-22749Y-95066D01*
X-22149Y-94465D01*
X-22088Y-94374D01*
X-22067Y-94267D01*
Y-93714D01*
X-21917Y-93663D01*
X-21841Y-93761D01*
X-21627Y-93925D01*
X-21378Y-94029D01*
X-21110Y-94064D01*
X-20842Y-94029D01*
X-20593Y-93925D01*
X-20379Y-93761D01*
X-20242Y-93583D01*
X-20092Y-93626D01*
Y-94156D01*
X-20606Y-94669D01*
X-20842Y-94571D01*
X-21110Y-94536D01*
X-21378Y-94571D01*
X-21627Y-94675D01*
X-21841Y-94839D01*
X-22005Y-95053D01*
X-22109Y-95302D01*
X-22144Y-95570D01*
X-22109Y-95838D01*
X-22005Y-96087D01*
X-21841Y-96301D01*
X-21627Y-96465D01*
X-21378Y-96569D01*
X-21110Y-96604D01*
X-20842Y-96569D01*
X-20593Y-96465D01*
X-20379Y-96301D01*
X-20215Y-96087D01*
X-20111Y-95838D01*
X-20076Y-95570D01*
X-20111Y-95302D01*
X-20209Y-95066D01*
X-19614Y-94470D01*
X-19553Y-94379D01*
X-19532Y-94272D01*
Y-94055D01*
X-17545D01*
Y-92005D01*
X-19532D01*
Y-89116D01*
X-16215Y-85799D01*
X-16076Y-85856D01*
Y-88441D01*
X-16120Y-88471D01*
X-16220Y-88620D01*
X-16254Y-88795D01*
X-16220Y-88971D01*
X-16120Y-89120D01*
X-15971Y-89219D01*
X-15796Y-89254D01*
X-15620Y-89219D01*
X-15471Y-89120D01*
X-15372Y-88971D01*
X-15337Y-88795D01*
X-15372Y-88620D01*
X-15471Y-88471D01*
X-15515Y-88441D01*
Y-82584D01*
X-15365Y-82501D01*
X-15225Y-82529D01*
X-15050Y-82494D01*
X-14901Y-82394D01*
X-14801Y-82246D01*
X-14766Y-82070D01*
X-14801Y-81894D01*
X-14901Y-81746D01*
X-14945Y-81716D01*
Y-78744D01*
X-14795Y-78664D01*
X-14743Y-78699D01*
X-14567Y-78734D01*
X-14392Y-78699D01*
X-14280Y-78624D01*
X-14154Y-78671D01*
X-14130Y-78691D01*
Y-79170D01*
X-14174Y-79199D01*
X-14274Y-79348D01*
X-14309Y-79524D01*
X-14274Y-79699D01*
X-14174Y-79848D01*
X-14026Y-79948D01*
X-13850Y-79983D01*
X-13674Y-79948D01*
X-13655Y-79935D01*
X-13505Y-80015D01*
Y-84252D01*
X-13549Y-84282D01*
X-13649Y-84431D01*
X-13684Y-84606D01*
X-13649Y-84782D01*
X-13549Y-84931D01*
X-13401Y-85030D01*
X-13225Y-85065D01*
X-13049Y-85030D01*
X-12901Y-84931D01*
X-12801Y-84782D01*
X-12766Y-84606D01*
X-12801Y-84431D01*
X-12901Y-84282D01*
X-12945Y-84252D01*
Y-83956D01*
X-12795Y-83876D01*
X-12776Y-83888D01*
X-12600Y-83923D01*
X-12424Y-83888D01*
X-12276Y-83789D01*
X-12176Y-83640D01*
X-12141Y-83464D01*
X-12176Y-83289D01*
X-12276Y-83140D01*
X-12320Y-83111D01*
Y-65200D01*
X-12341Y-65093D01*
X-12402Y-65002D01*
X-19223Y-58180D01*
X-19161Y-58030D01*
X-18504D01*
X-18502Y-58030D01*
X-18501Y-58030D01*
X-15391D01*
X-14973Y-58448D01*
X-14984Y-58500D01*
X-14949Y-58676D01*
X-14849Y-58824D01*
X-14805Y-58854D01*
Y-61815D01*
X-14784Y-61922D01*
X-14723Y-62013D01*
X-7871Y-68866D01*
X-7969Y-69102D01*
X-8004Y-69370D01*
X-7969Y-69638D01*
X-7865Y-69887D01*
X-7701Y-70101D01*
X-7487Y-70265D01*
X-7238Y-70369D01*
X-6970Y-70404D01*
X-6702Y-70369D01*
X-6453Y-70265D01*
X-6239Y-70101D01*
X-6075Y-69887D01*
X-5971Y-69638D01*
X-5936Y-69370D01*
X-5971Y-69102D01*
X-6075Y-68853D01*
X-6239Y-68639D01*
X-6315Y-68580D01*
X-6264Y-68430D01*
X-5766D01*
X-5331Y-68866D01*
X-5429Y-69102D01*
X-5464Y-69370D01*
X-5429Y-69638D01*
X-5325Y-69887D01*
X-5161Y-70101D01*
X-4947Y-70265D01*
X-4698Y-70369D01*
X-4430Y-70404D01*
X-4162Y-70369D01*
X-3913Y-70265D01*
X-3699Y-70101D01*
X-3535Y-69887D01*
X-3431Y-69638D01*
X-3396Y-69370D01*
X-3431Y-69102D01*
X-3535Y-68853D01*
X-3699Y-68639D01*
X-3913Y-68475D01*
X-4162Y-68371D01*
X-4430Y-68336D01*
X-4698Y-68371D01*
X-4934Y-68469D01*
X-5452Y-67952D01*
X-5543Y-67891D01*
X-5650Y-67870D01*
X-6385D01*
X-6447Y-67735D01*
X-6446Y-67720D01*
X-6239Y-67561D01*
X-6075Y-67347D01*
X-5971Y-67098D01*
X-5936Y-66830D01*
X-5971Y-66562D01*
X-6075Y-66313D01*
X-6239Y-66099D01*
X-6453Y-65935D01*
X-6702Y-65831D01*
X-6970Y-65796D01*
X-7238Y-65831D01*
X-7487Y-65935D01*
X-7701Y-66099D01*
X-7865Y-66313D01*
X-7969Y-66562D01*
X-8004Y-66830D01*
X-7969Y-67098D01*
X-7956Y-67128D01*
X-8083Y-67213D01*
X-13690Y-61607D01*
Y-57680D01*
X-13690Y-57680D01*
X-13711Y-57573D01*
X-13772Y-57482D01*
X-14003Y-57250D01*
X-13746Y-56993D01*
X-13686Y-56902D01*
X-13664Y-56795D01*
Y-36280D01*
X-13686Y-36173D01*
X-13746Y-36082D01*
X-15152Y-34677D01*
X-15141Y-34625D01*
X-15176Y-34449D01*
X-15276Y-34301D01*
X-15424Y-34201D01*
X-15600Y-34166D01*
X-15776Y-34201D01*
X-15924Y-34301D01*
X-16024Y-34449D01*
X-16059Y-34625D01*
X-16024Y-34801D01*
X-15940Y-34927D01*
X-16056Y-35022D01*
X-16427Y-34652D01*
X-16416Y-34600D01*
X-16451Y-34424D01*
X-16551Y-34276D01*
X-16699Y-34176D01*
X-16875Y-34141D01*
X-17051Y-34176D01*
X-17199Y-34276D01*
X-17299Y-34424D01*
X-17334Y-34600D01*
X-17299Y-34776D01*
X-17199Y-34924D01*
X-17051Y-35024D01*
X-16875Y-35059D01*
X-16823Y-35048D01*
X-14805Y-37066D01*
Y-55507D01*
X-14812Y-55521D01*
X-14845Y-55541D01*
X-14995Y-55459D01*
Y-37575D01*
X-15016Y-37468D01*
X-15077Y-37377D01*
X-17870Y-34584D01*
Y-32925D01*
X-17826Y-32896D01*
X-17726Y-32747D01*
X-17691Y-32572D01*
X-17726Y-32396D01*
X-17826Y-32247D01*
X-17974Y-32148D01*
X-18150Y-32113D01*
X-18202Y-32123D01*
X-19296Y-31029D01*
X-19263Y-30887D01*
X-19243Y-30870D01*
X-19101Y-30774D01*
X-19001Y-30626D01*
X-18966Y-30450D01*
X-19001Y-30274D01*
X-19101Y-30126D01*
X-19249Y-30026D01*
X-19425Y-29991D01*
X-19477Y-30002D01*
X-19577Y-29902D01*
X-19668Y-29841D01*
X-19775Y-29820D01*
X-35159D01*
X-36052Y-28927D01*
X-36041Y-28875D01*
X-36076Y-28699D01*
X-36176Y-28551D01*
X-36324Y-28451D01*
X-36500Y-28416D01*
X-36676Y-28451D01*
X-36824Y-28551D01*
X-36924Y-28699D01*
X-36959Y-28875D01*
X-36924Y-29051D01*
X-36824Y-29199D01*
X-36772Y-29235D01*
Y-29415D01*
X-36824Y-29451D01*
X-36924Y-29599D01*
X-36959Y-29775D01*
X-36924Y-29951D01*
X-36824Y-30099D01*
X-36676Y-30199D01*
X-36500Y-30234D01*
X-36448Y-30223D01*
X-36023Y-30648D01*
X-35932Y-30709D01*
X-35825Y-30730D01*
X-20388D01*
X-18598Y-32520D01*
X-18609Y-32572D01*
X-18574Y-32747D01*
X-18474Y-32896D01*
X-18430Y-32925D01*
Y-34700D01*
X-18409Y-34807D01*
X-18348Y-34898D01*
X-15555Y-37691D01*
Y-56146D01*
X-15599Y-56176D01*
X-15699Y-56324D01*
X-15734Y-56500D01*
X-15699Y-56676D01*
X-15603Y-56820D01*
X-15608Y-56849D01*
X-15652Y-56970D01*
X-17976D01*
X-18038Y-56820D01*
X-16752Y-55533D01*
X-16752Y-55533D01*
X-16691Y-55442D01*
X-16670Y-55335D01*
X-16670Y-55335D01*
Y-51511D01*
X-16520Y-51430D01*
X-16375Y-51459D01*
X-16199Y-51424D01*
X-16051Y-51324D01*
X-15951Y-51176D01*
X-15916Y-51000D01*
X-15951Y-50824D01*
X-16051Y-50676D01*
X-16095Y-50646D01*
Y-39529D01*
X-16051Y-39499D01*
X-15951Y-39351D01*
X-15916Y-39175D01*
X-15951Y-38999D01*
X-16051Y-38851D01*
X-16199Y-38751D01*
X-16375Y-38716D01*
X-16551Y-38751D01*
X-16699Y-38851D01*
X-16799Y-38999D01*
X-16834Y-39175D01*
X-16799Y-39351D01*
X-16699Y-39499D01*
X-16655Y-39529D01*
Y-44767D01*
X-16805Y-44829D01*
X-25328Y-36307D01*
X-25419Y-36246D01*
X-25526Y-36225D01*
X-26174D01*
X-26281Y-36246D01*
X-26372Y-36307D01*
X-26747Y-36681D01*
X-26764Y-36668D01*
X-26934Y-36598D01*
X-27115Y-36574D01*
X-27125D01*
X-27306Y-36598D01*
X-27476Y-36668D01*
X-27621Y-36779D01*
X-27732Y-36924D01*
X-27802Y-37094D01*
X-27826Y-37275D01*
X-27802Y-37456D01*
X-27732Y-37625D01*
X-27621Y-37771D01*
X-27476Y-37882D01*
X-27306Y-37952D01*
X-27125Y-37976D01*
X-27115D01*
X-26934Y-37952D01*
X-26764Y-37882D01*
X-26619Y-37771D01*
X-26580Y-37719D01*
X-26390D01*
X-26351Y-37771D01*
X-26205Y-37882D01*
X-26036Y-37952D01*
X-25855Y-37976D01*
X-25845D01*
X-25664Y-37952D01*
X-25597Y-37925D01*
X-17730Y-45791D01*
Y-54984D01*
X-18716Y-55970D01*
X-19929D01*
X-19984Y-55820D01*
X-19712Y-55588D01*
X-19712Y-55588D01*
X-19471Y-55295D01*
X-19293Y-54961D01*
X-19183Y-54599D01*
X-19146Y-54221D01*
X-19149D01*
Y-47928D01*
X-19146D01*
X-19182Y-47465D01*
X-19291Y-47014D01*
X-19468Y-46585D01*
X-19711Y-46190D01*
X-20012Y-45837D01*
X-20014Y-45839D01*
X-27670Y-38183D01*
X-27667Y-38179D01*
X-27668Y-38178D01*
X-27779Y-38083D01*
X-28099Y-37810D01*
X-28583Y-37514D01*
X-29108Y-37296D01*
X-29661Y-37163D01*
X-30227Y-37119D01*
Y-37124D01*
X-42966D01*
X-42978Y-37126D01*
X-43522Y-37090D01*
X-44068Y-36981D01*
X-44596Y-36802D01*
X-45096Y-36556D01*
X-45559Y-36246D01*
X-45978Y-35879D01*
X-46345Y-35460D01*
X-46655Y-34997D01*
X-46901Y-34497D01*
X-47080Y-33969D01*
X-47189Y-33423D01*
X-47225Y-32879D01*
X-47223Y-32867D01*
Y-9778D01*
X-46125D01*
Y-9900D01*
X-45175D01*
Y-9500D01*
X-45175Y-9500D01*
Y-9500D01*
X-45089Y-9374D01*
X-45050Y-9357D01*
X-44951Y-9424D01*
X-44775Y-9459D01*
X-44599Y-9424D01*
X-44451Y-9324D01*
X-44351Y-9176D01*
X-44316Y-9000D01*
X-44351Y-8824D01*
X-44451Y-8676D01*
X-44599Y-8576D01*
X-44775Y-8541D01*
X-44951Y-8576D01*
X-45050Y-8643D01*
X-45091Y-8624D01*
X-45200Y-8525D01*
Y-8450D01*
X-45200D01*
Y-7500D01*
X-45200D01*
Y-7456D01*
X-45185Y-7306D01*
X-44612D01*
X-42409Y-9509D01*
X-42302Y-9581D01*
X-42175Y-9606D01*
X-36715D01*
X-36653Y-9756D01*
X-37423Y-10527D01*
X-37484Y-10618D01*
X-37505Y-10725D01*
Y-12009D01*
X-38298Y-12802D01*
X-38359Y-12893D01*
X-38380Y-13000D01*
Y-15896D01*
X-38359Y-16003D01*
X-38298Y-16094D01*
X-37597Y-16796D01*
X-37695Y-17032D01*
X-37730Y-17300D01*
X-37695Y-17568D01*
X-37591Y-17817D01*
X-37427Y-18031D01*
X-37213Y-18195D01*
X-36964Y-18299D01*
X-36696Y-18334D01*
X-36428Y-18299D01*
X-36179Y-18195D01*
X-35965Y-18031D01*
X-35801Y-17817D01*
X-35697Y-17568D01*
X-35662Y-17300D01*
X-35697Y-17032D01*
X-35801Y-16783D01*
X-35965Y-16569D01*
X-36179Y-16405D01*
X-36428Y-16301D01*
X-36696Y-16266D01*
X-36964Y-16301D01*
X-37200Y-16399D01*
X-37820Y-15780D01*
Y-15118D01*
X-37670Y-15088D01*
X-37591Y-15277D01*
X-37427Y-15491D01*
X-37213Y-15655D01*
X-36964Y-15759D01*
X-36696Y-15794D01*
X-36428Y-15759D01*
X-36179Y-15655D01*
X-35965Y-15491D01*
X-35801Y-15277D01*
X-35697Y-15028D01*
X-35662Y-14760D01*
X-35697Y-14492D01*
X-35801Y-14243D01*
X-35965Y-14029D01*
X-36179Y-13865D01*
X-36428Y-13761D01*
X-36696Y-13726D01*
X-36964Y-13761D01*
X-37213Y-13865D01*
X-37427Y-14029D01*
X-37591Y-14243D01*
X-37670Y-14432D01*
X-37820Y-14402D01*
Y-13116D01*
X-37213Y-12509D01*
X-37073Y-12648D01*
X-37073Y-12648D01*
X-36982Y-12709D01*
X-36875Y-12730D01*
X-36875Y-12730D01*
X-36125D01*
Y-12925D01*
X-35225D01*
Y-11975D01*
X-35225D01*
Y-11925D01*
X-35225D01*
Y-11730D01*
X-34925D01*
Y-12775D01*
X-33375D01*
Y-11225D01*
X-34542D01*
X-34593Y-11191D01*
X-34700Y-11170D01*
X-35225D01*
Y-10975D01*
X-36125D01*
Y-11170D01*
X-36271D01*
X-36301Y-11126D01*
X-36449Y-11026D01*
X-36625Y-10991D01*
X-36789Y-11024D01*
X-36822Y-11003D01*
X-36917Y-10926D01*
X-36927Y-10824D01*
X-36209Y-10105D01*
X-33741D01*
X-32772Y-11075D01*
X-32825Y-11225D01*
X-32825D01*
X-32825Y-11225D01*
Y-12775D01*
X-32618D01*
X-32560Y-12914D01*
X-32766Y-13120D01*
X-33475D01*
X-33582Y-13141D01*
X-33673Y-13202D01*
X-34223Y-13752D01*
X-34275Y-13741D01*
X-34451Y-13776D01*
X-34599Y-13876D01*
X-34699Y-14024D01*
X-34734Y-14200D01*
X-34699Y-14376D01*
X-34599Y-14524D01*
X-34451Y-14624D01*
X-34275Y-14659D01*
X-34099Y-14624D01*
X-33951Y-14524D01*
X-33851Y-14376D01*
X-33816Y-14200D01*
X-33827Y-14148D01*
X-33359Y-13680D01*
X-32650D01*
X-32543Y-13659D01*
X-32452Y-13598D01*
X-31852Y-12998D01*
X-31791Y-12907D01*
X-31770Y-12800D01*
Y-12775D01*
X-31359D01*
X-31297Y-12925D01*
X-32391Y-14020D01*
X-32675D01*
X-32782Y-14041D01*
X-32873Y-14102D01*
X-32873Y-14102D01*
X-33823Y-15052D01*
X-33875Y-15041D01*
X-34051Y-15076D01*
X-34199Y-15176D01*
X-34299Y-15324D01*
X-34334Y-15500D01*
X-34299Y-15676D01*
X-34199Y-15824D01*
X-34051Y-15924D01*
X-33875Y-15959D01*
X-33699Y-15924D01*
X-33551Y-15824D01*
X-33451Y-15676D01*
X-33416Y-15500D01*
X-33427Y-15448D01*
X-32559Y-14580D01*
X-32407D01*
X-32323Y-14730D01*
X-32337Y-14754D01*
X-32451Y-14776D01*
X-32599Y-14876D01*
X-32699Y-15024D01*
X-32734Y-15200D01*
X-32699Y-15376D01*
X-32599Y-15524D01*
X-32451Y-15624D01*
X-32275Y-15659D01*
X-32099Y-15624D01*
X-31951Y-15524D01*
X-31851Y-15376D01*
X-31816Y-15200D01*
X-31827Y-15148D01*
X-28434Y-11755D01*
X-27241D01*
X-25848Y-13148D01*
X-25757Y-13209D01*
X-25650Y-13230D01*
X-24125D01*
X-24018Y-13209D01*
X-23927Y-13148D01*
X-23134Y-12355D01*
X-21688D01*
X-21659Y-12399D01*
X-21510Y-12499D01*
X-21334Y-12534D01*
X-21230Y-12513D01*
X-21080Y-12613D01*
Y-12859D01*
X-23066Y-14845D01*
X-24123D01*
X-24167Y-14724D01*
X-24172Y-14695D01*
X-24076Y-14551D01*
X-24041Y-14375D01*
X-24076Y-14199D01*
X-24176Y-14051D01*
X-24324Y-13951D01*
X-24500Y-13916D01*
X-24676Y-13951D01*
X-24824Y-14051D01*
X-24924Y-14199D01*
X-24959Y-14375D01*
X-24924Y-14551D01*
X-24828Y-14695D01*
X-24833Y-14724D01*
X-24877Y-14845D01*
X-25475D01*
X-25582Y-14866D01*
X-25673Y-14927D01*
X-30798Y-20052D01*
X-30859Y-20143D01*
X-30880Y-20250D01*
Y-22000D01*
X-30859Y-22107D01*
X-30798Y-22198D01*
X-29193Y-23804D01*
Y-24906D01*
X-29206Y-24918D01*
X-29343Y-24972D01*
X-29449Y-24901D01*
X-29625Y-24866D01*
X-29801Y-24901D01*
X-29949Y-25001D01*
X-30049Y-25149D01*
X-30084Y-25325D01*
X-30073Y-25377D01*
X-30291Y-25595D01*
X-39765D01*
X-39822Y-25456D01*
X-38552Y-24186D01*
X-38552Y-24186D01*
X-38491Y-24095D01*
X-38470Y-23988D01*
X-38470Y-23988D01*
Y-23054D01*
X-38426Y-23024D01*
X-38396Y-22980D01*
X-37175D01*
X-37068Y-22959D01*
X-36977Y-22898D01*
X-34777Y-20698D01*
X-34716Y-20607D01*
X-34695Y-20500D01*
Y-20191D01*
X-31659Y-17155D01*
X-28650D01*
X-28543Y-17134D01*
X-28452Y-17073D01*
X-28002Y-16623D01*
X-27950Y-16634D01*
X-27774Y-16599D01*
X-27626Y-16499D01*
X-27526Y-16351D01*
X-27491Y-16175D01*
X-27526Y-15999D01*
X-27626Y-15851D01*
X-27774Y-15751D01*
X-27950Y-15716D01*
X-28126Y-15751D01*
X-28274Y-15851D01*
X-28374Y-15999D01*
X-28409Y-16175D01*
X-28398Y-16227D01*
X-28766Y-16595D01*
X-31098D01*
X-31143Y-16506D01*
X-31151Y-16445D01*
X-28738Y-14031D01*
X-28239D01*
X-28101Y-14124D01*
X-27925Y-14159D01*
X-27749Y-14124D01*
X-27612Y-14032D01*
X-27476Y-14124D01*
X-27300Y-14159D01*
X-27124Y-14124D01*
X-26976Y-14024D01*
X-26876Y-13876D01*
X-26841Y-13700D01*
X-26876Y-13524D01*
X-26976Y-13376D01*
X-27124Y-13276D01*
X-27300Y-13241D01*
X-27476Y-13276D01*
X-27612Y-13368D01*
X-27749Y-13276D01*
X-27925Y-13241D01*
X-28101Y-13276D01*
X-28239Y-13369D01*
X-28875D01*
X-29002Y-13394D01*
X-29109Y-13466D01*
X-31537Y-15894D01*
X-31850D01*
X-31977Y-15919D01*
X-32084Y-15991D01*
X-35521Y-19427D01*
X-35671Y-19365D01*
Y-18815D01*
X-37721D01*
Y-20865D01*
X-35933D01*
X-35875Y-21004D01*
X-37291Y-22420D01*
X-38396D01*
X-38426Y-22376D01*
X-38574Y-22276D01*
X-38750Y-22241D01*
X-38926Y-22276D01*
X-39074Y-22376D01*
X-39174Y-22524D01*
X-39209Y-22700D01*
X-39174Y-22876D01*
X-39074Y-23024D01*
X-39030Y-23054D01*
Y-23871D01*
X-43306Y-28147D01*
X-43445Y-28090D01*
Y-27029D01*
X-43401Y-26999D01*
X-43350Y-26924D01*
X-43175D01*
X-43124Y-26999D01*
X-42976Y-27099D01*
X-42800Y-27134D01*
X-42624Y-27099D01*
X-42476Y-26999D01*
X-42376Y-26851D01*
X-42341Y-26675D01*
X-42376Y-26499D01*
X-42476Y-26351D01*
X-42624Y-26251D01*
X-42800Y-26216D01*
X-42976Y-26251D01*
X-43124Y-26351D01*
X-43175Y-26426D01*
X-43350D01*
X-43401Y-26351D01*
X-43549Y-26251D01*
X-43725Y-26216D01*
X-43901Y-26251D01*
X-44049Y-26351D01*
X-44149Y-26499D01*
X-44184Y-26675D01*
X-44149Y-26851D01*
X-44049Y-26999D01*
X-44005Y-27029D01*
Y-28351D01*
X-44245Y-28591D01*
X-44395Y-28529D01*
Y-20816D01*
X-44252Y-20673D01*
X-44200Y-20684D01*
X-44024Y-20649D01*
X-43876Y-20549D01*
X-43776Y-20401D01*
X-43741Y-20225D01*
X-43776Y-20049D01*
X-43876Y-19901D01*
X-44024Y-19801D01*
X-44200Y-19766D01*
X-44376Y-19801D01*
X-44524Y-19901D01*
X-44624Y-20049D01*
X-44659Y-20225D01*
X-44648Y-20277D01*
X-44873Y-20502D01*
X-44934Y-20593D01*
X-44955Y-20700D01*
Y-28509D01*
X-46423Y-29977D01*
X-46475Y-29966D01*
X-46651Y-30001D01*
X-46799Y-30101D01*
X-46899Y-30249D01*
X-46934Y-30425D01*
X-46899Y-30601D01*
X-46799Y-30749D01*
X-46689Y-30823D01*
X-46645Y-30991D01*
X-46848Y-31194D01*
X-46909Y-31285D01*
X-46930Y-31393D01*
Y-33725D01*
X-46909Y-33832D01*
X-46848Y-33923D01*
X-46048Y-34723D01*
X-46048Y-34723D01*
X-45957Y-34784D01*
X-45850Y-34805D01*
X-45850Y-34805D01*
X-44304D01*
X-44274Y-34849D01*
X-44126Y-34949D01*
X-43950Y-34984D01*
X-43774Y-34949D01*
X-43626Y-34849D01*
X-43526Y-34701D01*
X-43491Y-34525D01*
X-43526Y-34349D01*
X-43584Y-34263D01*
X-43475Y-34155D01*
X-43432Y-34184D01*
X-43325Y-34205D01*
X-38633D01*
X-38553Y-34355D01*
X-38599Y-34424D01*
X-38634Y-34600D01*
X-38599Y-34776D01*
X-38499Y-34924D01*
X-38351Y-35024D01*
X-38175Y-35059D01*
X-37999Y-35024D01*
X-37851Y-34924D01*
X-37751Y-34776D01*
X-37716Y-34600D01*
X-37751Y-34424D01*
X-37797Y-34355D01*
X-37717Y-34205D01*
X-23136D01*
X-22093Y-35248D01*
X-22002Y-35309D01*
X-21895Y-35330D01*
X-21704D01*
X-21674Y-35374D01*
X-21526Y-35474D01*
X-21350Y-35509D01*
X-21174Y-35474D01*
X-21026Y-35374D01*
X-20926Y-35226D01*
X-20891Y-35050D01*
X-20926Y-34874D01*
X-21026Y-34726D01*
X-21174Y-34626D01*
X-21350Y-34591D01*
X-21526Y-34626D01*
X-21674Y-34726D01*
X-21834Y-34714D01*
X-22079Y-34469D01*
X-22022Y-34330D01*
X-20704D01*
X-20674Y-34374D01*
X-20526Y-34474D01*
X-20350Y-34509D01*
X-20174Y-34474D01*
X-20026Y-34374D01*
X-19926Y-34226D01*
X-19891Y-34050D01*
X-19926Y-33874D01*
X-20026Y-33726D01*
X-20174Y-33626D01*
X-20350Y-33591D01*
X-20526Y-33626D01*
X-20674Y-33726D01*
X-20704Y-33770D01*
X-21650D01*
X-21731Y-33620D01*
X-21701Y-33576D01*
X-21666Y-33400D01*
X-21701Y-33224D01*
X-21764Y-33130D01*
X-21694Y-32980D01*
X-20579D01*
X-20549Y-33024D01*
X-20401Y-33124D01*
X-20225Y-33159D01*
X-20049Y-33124D01*
X-19901Y-33024D01*
X-19801Y-32876D01*
X-19766Y-32700D01*
X-19801Y-32524D01*
X-19901Y-32376D01*
X-20049Y-32276D01*
X-20225Y-32241D01*
X-20401Y-32276D01*
X-20549Y-32376D01*
X-20579Y-32420D01*
X-25206D01*
X-25310Y-32270D01*
X-25291Y-32175D01*
X-25326Y-31999D01*
X-25426Y-31851D01*
X-25574Y-31751D01*
X-25750Y-31716D01*
X-25926Y-31751D01*
X-26074Y-31851D01*
X-26104Y-31895D01*
X-39334D01*
X-40452Y-30777D01*
X-40441Y-30725D01*
X-40476Y-30549D01*
X-40576Y-30401D01*
X-40724Y-30301D01*
X-40900Y-30266D01*
X-41076Y-30301D01*
X-41224Y-30401D01*
X-41324Y-30549D01*
X-41359Y-30725D01*
X-41324Y-30901D01*
X-41224Y-31049D01*
X-41076Y-31149D01*
X-40900Y-31184D01*
X-40848Y-31173D01*
X-39752Y-32270D01*
X-39814Y-32420D01*
X-42034D01*
X-43352Y-31102D01*
X-43341Y-31050D01*
X-43376Y-30874D01*
X-43476Y-30726D01*
X-43560Y-30669D01*
X-43594Y-30491D01*
X-40227Y-27123D01*
X-40175Y-27134D01*
X-39999Y-27099D01*
X-39851Y-26999D01*
X-39751Y-26851D01*
X-39716Y-26675D01*
X-39751Y-26499D01*
X-39851Y-26351D01*
X-39918Y-26305D01*
X-39873Y-26155D01*
X-30175D01*
X-30068Y-26134D01*
X-29977Y-26073D01*
X-29677Y-25773D01*
X-29625Y-25784D01*
X-29449Y-25749D01*
X-29343Y-25678D01*
X-29206Y-25732D01*
X-29193Y-25744D01*
Y-27171D01*
X-29237Y-27201D01*
X-29336Y-27349D01*
X-29371Y-27525D01*
X-29336Y-27701D01*
X-29237Y-27849D01*
X-29088Y-27949D01*
X-28913Y-27984D01*
X-28809Y-27963D01*
X-28697Y-28068D01*
X-28691Y-28176D01*
X-28774Y-28299D01*
X-28809Y-28475D01*
X-28774Y-28651D01*
X-28674Y-28799D01*
X-28526Y-28899D01*
X-28350Y-28934D01*
X-28174Y-28899D01*
X-28026Y-28799D01*
X-27926Y-28651D01*
X-27891Y-28475D01*
X-27926Y-28299D01*
X-28026Y-28151D01*
X-28070Y-28121D01*
Y-26515D01*
X-27920Y-26469D01*
X-27899Y-26499D01*
X-27751Y-26599D01*
X-27575Y-26634D01*
X-27399Y-26599D01*
X-27280Y-26519D01*
X-27174Y-26555D01*
X-27130Y-26586D01*
Y-28475D01*
X-27109Y-28582D01*
X-27048Y-28673D01*
X-26273Y-29448D01*
X-26182Y-29509D01*
X-26075Y-29530D01*
X-15841D01*
X-9630Y-35741D01*
Y-39043D01*
X-9645Y-39057D01*
X-9770Y-39116D01*
X-11659Y-37227D01*
X-11750Y-37166D01*
X-11858Y-37145D01*
X-12096D01*
X-12126Y-37101D01*
X-12274Y-37001D01*
X-12450Y-36966D01*
X-12626Y-37001D01*
X-12774Y-37101D01*
X-12874Y-37249D01*
X-12909Y-37425D01*
X-12874Y-37601D01*
X-12774Y-37749D01*
X-12626Y-37849D01*
X-12450Y-37884D01*
X-12274Y-37849D01*
X-12126Y-37749D01*
X-12113Y-37731D01*
X-11958Y-37721D01*
X-9398Y-40281D01*
X-9409Y-40333D01*
X-9374Y-40508D01*
X-9274Y-40657D01*
X-9126Y-40756D01*
X-8950Y-40791D01*
X-8774Y-40756D01*
X-8626Y-40657D01*
X-8526Y-40508D01*
X-8522Y-40487D01*
X-8359Y-40437D01*
X-7871Y-40926D01*
X-7969Y-41162D01*
X-8004Y-41430D01*
X-7969Y-41698D01*
X-7865Y-41947D01*
X-7701Y-42161D01*
X-7487Y-42325D01*
X-7306Y-42400D01*
X-7326Y-42554D01*
X-7349Y-42557D01*
X-7701Y-42703D01*
X-8004Y-42936D01*
X-8237Y-43239D01*
X-8383Y-43591D01*
X-8433Y-43970D01*
X-8383Y-44349D01*
X-8237Y-44701D01*
X-8004Y-45004D01*
X-7820Y-45145D01*
Y-45335D01*
X-8004Y-45476D01*
X-8237Y-45779D01*
X-8383Y-46131D01*
X-8433Y-46510D01*
X-8383Y-46889D01*
X-8237Y-47241D01*
X-8004Y-47544D01*
X-7820Y-47685D01*
Y-47875D01*
X-8004Y-48016D01*
X-8237Y-48319D01*
X-8383Y-48671D01*
X-8433Y-49050D01*
X-8383Y-49429D01*
X-8237Y-49781D01*
X-8004Y-50084D01*
X-7701Y-50317D01*
X-7366Y-50455D01*
X-7351Y-50513D01*
X-7355Y-50613D01*
X-7500Y-50673D01*
X-7719Y-50841D01*
X-7887Y-51060D01*
X-7993Y-51316D01*
X-8016Y-51490D01*
X-5924D01*
X-5947Y-51316D01*
X-6053Y-51060D01*
X-6221Y-50841D01*
X-6440Y-50673D01*
X-6585Y-50613D01*
X-6589Y-50513D01*
X-6574Y-50455D01*
X-6239Y-50317D01*
X-5936Y-50084D01*
X-5795Y-49900D01*
X-5605D01*
X-5464Y-50084D01*
X-5161Y-50317D01*
X-4809Y-50463D01*
X-4786Y-50466D01*
X-4766Y-50620D01*
X-4947Y-50695D01*
X-5161Y-50859D01*
X-5325Y-51073D01*
X-5429Y-51322D01*
X-5464Y-51590D01*
X-5429Y-51858D01*
X-5325Y-52107D01*
X-5161Y-52321D01*
X-4947Y-52485D01*
X-4698Y-52589D01*
X-4430Y-52624D01*
X-4162Y-52589D01*
X-3913Y-52485D01*
X-3699Y-52321D01*
X-3535Y-52107D01*
X-3431Y-51858D01*
X-3396Y-51590D01*
X-3431Y-51322D01*
X-3535Y-51073D01*
X-3699Y-50859D01*
X-3913Y-50695D01*
X-4094Y-50620D01*
X-4074Y-50466D01*
X-4051Y-50463D01*
X-3699Y-50317D01*
X-3396Y-50084D01*
X-3174Y-49794D01*
X-3096Y-49795D01*
X-3024Y-49809D01*
Y-55053D01*
X-3823Y-55852D01*
X-3884Y-55943D01*
X-3900Y-56025D01*
X-3971Y-56056D01*
X-4055Y-56062D01*
X-4106Y-55987D01*
X-4254Y-55888D01*
X-4430Y-55853D01*
X-4606Y-55888D01*
X-4754Y-55987D01*
X-4854Y-56136D01*
X-4889Y-56312D01*
X-4854Y-56487D01*
X-4754Y-56636D01*
X-4710Y-56666D01*
Y-56965D01*
X-4880D01*
Y-57915D01*
X-4880Y-57915D01*
Y-57915D01*
Y-57959D01*
X-4880Y-57965D01*
X-4880Y-58005D01*
X-4880Y-58065D01*
D01*
Y-58065D01*
X-4880D01*
Y-58915D01*
X-4452D01*
X-3024Y-60343D01*
Y-74585D01*
X-3349Y-74911D01*
X-3476Y-74826D01*
X-3431Y-74718D01*
X-3396Y-74450D01*
X-3431Y-74182D01*
X-3535Y-73933D01*
X-3699Y-73719D01*
X-3913Y-73555D01*
X-4162Y-73451D01*
X-4430Y-73416D01*
X-4698Y-73451D01*
X-4947Y-73555D01*
X-5161Y-73719D01*
X-5325Y-73933D01*
X-5429Y-74182D01*
X-5464Y-74450D01*
X-5429Y-74718D01*
X-5325Y-74967D01*
X-5161Y-75181D01*
X-5046Y-75270D01*
X-5097Y-75420D01*
X-5680D01*
X-5787Y-75441D01*
X-5878Y-75502D01*
X-6466Y-76089D01*
X-6702Y-75991D01*
X-6970Y-75956D01*
X-7238Y-75991D01*
X-7487Y-76095D01*
X-7701Y-76259D01*
X-7865Y-76473D01*
X-7969Y-76722D01*
X-8004Y-76990D01*
X-7969Y-77258D01*
X-7865Y-77507D01*
X-7701Y-77721D01*
X-7487Y-77885D01*
X-7238Y-77989D01*
X-6970Y-78024D01*
X-6702Y-77989D01*
X-6453Y-77885D01*
X-6239Y-77721D01*
X-6075Y-77507D01*
X-5971Y-77258D01*
X-5936Y-76990D01*
X-5971Y-76722D01*
X-6069Y-76486D01*
X-5564Y-75980D01*
X-5044D01*
X-4993Y-76130D01*
X-5161Y-76259D01*
X-5325Y-76473D01*
X-5429Y-76722D01*
X-5464Y-76990D01*
X-5429Y-77258D01*
X-5325Y-77507D01*
X-5161Y-77721D01*
X-4947Y-77885D01*
X-4698Y-77989D01*
X-4430Y-78024D01*
X-4162Y-77989D01*
X-3913Y-77885D01*
X-3699Y-77721D01*
X-3535Y-77507D01*
X-3431Y-77258D01*
X-3396Y-76990D01*
X-3431Y-76722D01*
X-3529Y-76486D01*
X-2102Y-75058D01*
X-2102Y-75058D01*
X-2041Y-74967D01*
X-2020Y-74860D01*
Y-59131D01*
X-2020Y-59131D01*
X-2041Y-59024D01*
X-2102Y-58933D01*
X-2471Y-58563D01*
Y-58457D01*
X-2102Y-58087D01*
X-2041Y-57996D01*
X-2020Y-57889D01*
X-2020Y-57889D01*
Y-42175D01*
X-2041Y-42068D01*
X-2102Y-41977D01*
X-2847Y-41232D01*
X-2938Y-41171D01*
X-3045Y-41150D01*
X-3437D01*
X-3535Y-40913D01*
X-3699Y-40699D01*
X-3913Y-40535D01*
X-4162Y-40431D01*
X-4430Y-40396D01*
X-4698Y-40431D01*
X-4934Y-40529D01*
X-5462Y-40002D01*
X-5553Y-39941D01*
X-5660Y-39920D01*
X-5763D01*
X-5829Y-39785D01*
X-5703Y-39621D01*
X-5557Y-39269D01*
X-5554Y-39246D01*
X-5400Y-39226D01*
X-5325Y-39407D01*
X-5161Y-39621D01*
X-4947Y-39785D01*
X-4698Y-39889D01*
X-4430Y-39924D01*
X-4162Y-39889D01*
X-3913Y-39785D01*
X-3699Y-39621D01*
X-3535Y-39407D01*
X-3431Y-39158D01*
X-3396Y-38890D01*
X-3431Y-38622D01*
X-3535Y-38373D01*
X-3699Y-38159D01*
X-3913Y-37995D01*
X-4162Y-37891D01*
X-4430Y-37856D01*
X-4698Y-37891D01*
X-4947Y-37995D01*
X-5161Y-38159D01*
X-5325Y-38373D01*
X-5400Y-38554D01*
X-5554Y-38534D01*
X-5557Y-38511D01*
X-5703Y-38159D01*
X-5936Y-37856D01*
X-6239Y-37623D01*
X-6591Y-37477D01*
X-6614Y-37474D01*
X-6634Y-37320D01*
X-6453Y-37245D01*
X-6239Y-37081D01*
X-6075Y-36867D01*
X-5971Y-36618D01*
X-5936Y-36350D01*
X-5971Y-36082D01*
X-6075Y-35833D01*
X-6239Y-35619D01*
X-6453Y-35455D01*
X-6634Y-35380D01*
X-6614Y-35226D01*
X-6591Y-35223D01*
X-6239Y-35077D01*
X-5936Y-34844D01*
X-5795Y-34660D01*
X-5605D01*
X-5464Y-34844D01*
X-5161Y-35077D01*
X-4809Y-35223D01*
X-4786Y-35226D01*
X-4766Y-35380D01*
X-4947Y-35455D01*
X-5161Y-35619D01*
X-5325Y-35833D01*
X-5429Y-36082D01*
X-5464Y-36350D01*
X-5429Y-36618D01*
X-5325Y-36867D01*
X-5161Y-37081D01*
X-4947Y-37245D01*
X-4698Y-37349D01*
X-4430Y-37384D01*
X-4162Y-37349D01*
X-3913Y-37245D01*
X-3699Y-37081D01*
X-3535Y-36867D01*
X-3431Y-36618D01*
X-3396Y-36350D01*
X-3431Y-36082D01*
X-3535Y-35833D01*
X-3699Y-35619D01*
X-3913Y-35455D01*
X-4094Y-35380D01*
X-4074Y-35226D01*
X-4051Y-35223D01*
X-3699Y-35077D01*
X-3396Y-34844D01*
X-3163Y-34541D01*
X-3017Y-34189D01*
X-2967Y-33810D01*
X-3017Y-33431D01*
X-3163Y-33079D01*
X-3396Y-32776D01*
X-3580Y-32635D01*
Y-32445D01*
X-3396Y-32304D01*
X-3163Y-32001D01*
X-3017Y-31649D01*
X-2967Y-31270D01*
X-3017Y-30891D01*
X-3163Y-30539D01*
X-3396Y-30236D01*
X-3699Y-30003D01*
X-4034Y-29865D01*
X-4049Y-29807D01*
X-4045Y-29707D01*
X-3900Y-29647D01*
X-3681Y-29479D01*
X-3513Y-29260D01*
X-3407Y-29004D01*
X-3384Y-28830D01*
X-5476D01*
X-5453Y-29004D01*
X-5347Y-29260D01*
X-5179Y-29479D01*
X-4960Y-29647D01*
X-4815Y-29707D01*
X-4811Y-29807D01*
X-4826Y-29865D01*
X-5161Y-30003D01*
X-5464Y-30236D01*
X-5697Y-30539D01*
X-5843Y-30891D01*
X-5846Y-30914D01*
X-6000Y-30934D01*
X-6075Y-30753D01*
X-6239Y-30539D01*
X-6453Y-30375D01*
X-6702Y-30271D01*
X-6970Y-30236D01*
X-7238Y-30271D01*
X-7487Y-30375D01*
X-7701Y-30539D01*
X-7865Y-30753D01*
X-7969Y-31002D01*
X-8004Y-31270D01*
X-7969Y-31538D01*
X-7865Y-31787D01*
X-7701Y-32001D01*
X-7487Y-32165D01*
X-7306Y-32240D01*
X-7326Y-32394D01*
X-7349Y-32397D01*
X-7701Y-32543D01*
X-8004Y-32776D01*
X-8237Y-33079D01*
X-8383Y-33431D01*
X-8433Y-33810D01*
X-8383Y-34189D01*
X-8237Y-34541D01*
X-8004Y-34844D01*
X-7701Y-35077D01*
X-7349Y-35223D01*
X-7326Y-35226D01*
X-7306Y-35380D01*
X-7487Y-35455D01*
X-7701Y-35619D01*
X-7865Y-35833D01*
X-7969Y-36082D01*
X-8004Y-36350D01*
X-7969Y-36618D01*
X-7865Y-36867D01*
X-7701Y-37081D01*
X-7487Y-37245D01*
X-7306Y-37320D01*
X-7326Y-37474D01*
X-7349Y-37477D01*
X-7701Y-37623D01*
X-8004Y-37856D01*
X-8237Y-38159D01*
X-8383Y-38511D01*
X-8417Y-38774D01*
X-8576Y-38828D01*
X-8720Y-38684D01*
Y-35480D01*
X-8741Y-35373D01*
X-8802Y-35282D01*
X-15278Y-28805D01*
X-15216Y-28655D01*
X-10604D01*
X-10496Y-28634D01*
X-10405Y-28573D01*
X-7387Y-25555D01*
X-5025D01*
X-4918Y-25534D01*
X-4827Y-25473D01*
X-4232Y-24878D01*
X-4171Y-24787D01*
X-4150Y-24680D01*
Y-23652D01*
X-4077Y-23621D01*
X-3931Y-23509D01*
X-3890Y-23456D01*
X-3700D01*
X-3659Y-23509D01*
X-3513Y-23621D01*
X-3343Y-23692D01*
X-3160Y-23716D01*
X-2977Y-23692D01*
X-2807Y-23621D01*
X-2661Y-23509D01*
X-2549Y-23363D01*
X-2478Y-23193D01*
X-2454Y-23010D01*
X-2478Y-22827D01*
X-2549Y-22657D01*
X-2661Y-22511D01*
X-2714Y-22470D01*
Y-22280D01*
X-2661Y-22239D01*
X-2549Y-22093D01*
X-2478Y-21923D01*
X-2454Y-21740D01*
X-2478Y-21557D01*
X-2549Y-21387D01*
X-2661Y-21241D01*
X-2807Y-21129D01*
X-2977Y-21058D01*
X-3160Y-21034D01*
X-3343Y-21058D01*
X-3513Y-21129D01*
X-3659Y-21241D01*
X-3685Y-21274D01*
X-3874Y-21274D01*
X-3913Y-21223D01*
X-4064Y-21107D01*
X-4241Y-21034D01*
X-4330Y-21022D01*
Y-21740D01*
X-4530D01*
Y-21022D01*
X-4619Y-21034D01*
X-4796Y-21107D01*
X-4947Y-21223D01*
X-4970Y-21253D01*
X-5160D01*
X-5183Y-21223D01*
X-5334Y-21107D01*
X-5511Y-21034D01*
X-5600Y-21022D01*
Y-21740D01*
X-5800D01*
Y-21022D01*
X-5889Y-21034D01*
X-6066Y-21107D01*
X-6217Y-21223D01*
X-6256Y-21274D01*
X-6445Y-21274D01*
X-6471Y-21241D01*
X-6617Y-21129D01*
X-6787Y-21058D01*
X-6970Y-21034D01*
X-7153Y-21058D01*
X-7323Y-21129D01*
X-7469Y-21241D01*
X-7495Y-21274D01*
X-7684Y-21274D01*
X-7723Y-21223D01*
X-7874Y-21107D01*
X-8051Y-21034D01*
X-8140Y-21022D01*
Y-21740D01*
X-8240D01*
Y-21840D01*
X-8958D01*
X-8946Y-21929D01*
X-8873Y-22106D01*
X-8757Y-22257D01*
X-8706Y-22296D01*
X-8706Y-22485D01*
X-8739Y-22511D01*
X-8851Y-22657D01*
X-8922Y-22827D01*
X-8946Y-23010D01*
X-8922Y-23193D01*
X-8851Y-23363D01*
X-8739Y-23509D01*
X-8593Y-23621D01*
X-8423Y-23692D01*
X-8240Y-23716D01*
X-8057Y-23692D01*
X-7887Y-23621D01*
X-7741Y-23509D01*
X-7700Y-23456D01*
X-7510D01*
X-7469Y-23509D01*
X-7323Y-23621D01*
X-7153Y-23692D01*
X-6970Y-23716D01*
X-6787Y-23692D01*
X-6617Y-23621D01*
X-6471Y-23509D01*
X-6430Y-23456D01*
X-6240D01*
X-6199Y-23509D01*
X-6053Y-23621D01*
X-5883Y-23692D01*
X-5700Y-23716D01*
X-5517Y-23692D01*
X-5347Y-23621D01*
X-5201Y-23509D01*
X-5160Y-23456D01*
X-4970D01*
X-4929Y-23509D01*
X-4783Y-23621D01*
X-4710Y-23652D01*
Y-24439D01*
X-4759Y-24472D01*
X-4954Y-24432D01*
X-4976Y-24401D01*
X-5124Y-24301D01*
X-5300Y-24266D01*
X-5476Y-24301D01*
X-5624Y-24401D01*
X-5654Y-24445D01*
X-7700D01*
X-7807Y-24466D01*
X-7898Y-24527D01*
X-7898Y-24527D01*
X-10816Y-27445D01*
X-12548D01*
X-12592Y-27324D01*
X-12597Y-27295D01*
X-12501Y-27151D01*
X-12466Y-26975D01*
X-12501Y-26799D01*
X-12601Y-26651D01*
X-12749Y-26551D01*
X-12925Y-26516D01*
X-13101Y-26551D01*
X-13249Y-26651D01*
X-13349Y-26799D01*
X-13384Y-26975D01*
X-13349Y-27151D01*
X-13253Y-27295D01*
X-13258Y-27324D01*
X-13302Y-27445D01*
X-22260D01*
X-22295Y-27409D01*
X-22301Y-27401D01*
X-22309Y-27395D01*
X-22369Y-27335D01*
X-22360Y-27181D01*
X-22276Y-27124D01*
X-22246Y-27080D01*
X-14700D01*
X-14593Y-27059D01*
X-14502Y-26998D01*
X-14177Y-26673D01*
X-14116Y-26582D01*
X-14095Y-26475D01*
Y-18491D01*
X-8145Y-12542D01*
X-7995Y-12604D01*
Y-14515D01*
X-5945D01*
Y-12465D01*
X-7856D01*
X-7918Y-12315D01*
X-7484Y-11880D01*
X-3466D01*
X-3148Y-12198D01*
X-3159Y-12250D01*
X-3124Y-12426D01*
X-3024Y-12574D01*
X-2876Y-12674D01*
X-2700Y-12709D01*
X-2524Y-12674D01*
X-2376Y-12574D01*
X-2276Y-12426D01*
X-2241Y-12250D01*
X-2276Y-12074D01*
X-2376Y-11926D01*
X-2524Y-11826D01*
X-2700Y-11791D01*
X-2752Y-11802D01*
X-3152Y-11402D01*
X-3243Y-11341D01*
X-3350Y-11320D01*
X-7600D01*
X-7707Y-11341D01*
X-7798Y-11402D01*
X-14573Y-18177D01*
X-14634Y-18268D01*
X-14655Y-18375D01*
Y-26359D01*
X-14816Y-26520D01*
X-15099D01*
X-15178Y-26396D01*
X-15175Y-26370D01*
X-15141Y-26200D01*
X-15176Y-26024D01*
X-15276Y-25876D01*
X-15424Y-25776D01*
X-15600Y-25741D01*
X-15652Y-25752D01*
X-18765Y-22638D01*
X-18725Y-22466D01*
X-18626Y-22399D01*
X-18526Y-22251D01*
X-18491Y-22075D01*
X-18526Y-21899D01*
X-18626Y-21751D01*
X-18774Y-21651D01*
X-18950Y-21616D01*
X-19002Y-21627D01*
X-19170Y-21459D01*
Y-19730D01*
X-19191Y-19623D01*
X-19252Y-19532D01*
X-19556Y-19228D01*
X-19502Y-19070D01*
X-19372Y-19052D01*
X-19159Y-18964D01*
X-18976Y-18824D01*
X-18836Y-18641D01*
X-18748Y-18428D01*
X-18717Y-18200D01*
X-18718Y-18195D01*
X-18644Y-18164D01*
X-18461Y-18024D01*
X-18321Y-17841D01*
X-18233Y-17628D01*
X-18202Y-17400D01*
X-18233Y-17172D01*
X-18321Y-16959D01*
X-18389Y-16870D01*
Y-16687D01*
X-18392Y-16668D01*
X-18347Y-16334D01*
X-18211Y-16004D01*
X-18005Y-15736D01*
X-17990Y-15725D01*
X-17764Y-15498D01*
X-15170Y-12905D01*
X-15169Y-12906D01*
X-14897Y-12588D01*
X-14678Y-12230D01*
X-14517Y-11843D01*
X-14420Y-11436D01*
X-14387Y-11018D01*
X-14389D01*
Y-10200D01*
X-13066D01*
X-13066Y-10200D01*
X-13066Y-10200D01*
X-13066Y-10200D01*
X-12957Y-10100D01*
X-12625D01*
Y-9575D01*
X-12525D01*
Y-9475D01*
X-12075D01*
Y-9050D01*
X-12075D01*
X-12100Y-9025D01*
Y-8125D01*
X-12000Y-8025D01*
X-12000D01*
Y-6975D01*
X-13050D01*
X-13050Y-6975D01*
X-13193Y-6958D01*
X-13275Y-6941D01*
X-13341Y-6954D01*
X-13491Y-6925D01*
Y-6925D01*
X-13491Y-6925D01*
X-13969D01*
Y-5513D01*
X-13819Y-5442D01*
X-13728Y-5511D01*
X-13558Y-5582D01*
X-13375Y-5606D01*
X-13192Y-5582D01*
X-13099Y-5543D01*
X-13098Y-5543D01*
X-13085Y-5563D01*
X-13075Y-5584D01*
X-13066Y-5591D01*
X-13060Y-5601D01*
X-13040Y-5614D01*
X-13023Y-5630D01*
X-13011Y-5633D01*
X-13002Y-5640D01*
X-12979Y-5644D01*
X-12957Y-5652D01*
X-12945Y-5651D01*
X-12933Y-5653D01*
X-10850D01*
X-10782Y-5640D01*
X-10724Y-5601D01*
X-10685Y-5543D01*
X-10672Y-5475D01*
X-10672Y-2562D01*
X-10674Y-2551D01*
X-10673Y-2539D01*
X-10681Y-2517D01*
X-10685Y-2494D01*
X-10692Y-2484D01*
X-10695Y-2473D01*
X-10711Y-2455D01*
X-10724Y-2436D01*
X-10734Y-2429D01*
X-10741Y-2421D01*
X-10762Y-2410D01*
X-10780Y-2398D01*
X-10742Y-2306D01*
X-10734Y-2243D01*
X-10728Y-2211D01*
X-10729Y-2202D01*
X-10726Y-2193D01*
X-10724Y-2170D01*
X-10719Y-2131D01*
Y-1219D01*
X-10725Y-1178D01*
X-10726Y-1159D01*
X-10728Y-1152D01*
X-10728Y-1145D01*
X-10735Y-1100D01*
X-10735Y-1098D01*
X-10742Y-1044D01*
X-10754Y-1016D01*
X-10701Y-912D01*
X-10697Y-906D01*
X-10693Y-903D01*
X-10648Y-879D01*
X-10600Y-885D01*
X-10271Y-842D01*
X-9964Y-715D01*
X-9722Y-529D01*
X-9536D01*
X-9525Y-675D01*
X-9525Y-679D01*
Y-2225D01*
X-7975D01*
Y-1989D01*
X-7825Y-1909D01*
X-7776Y-1942D01*
X-7600Y-1977D01*
X-7424Y-1942D01*
X-7275Y-2022D01*
Y-2225D01*
X-5725D01*
Y-679D01*
X-5725Y-675D01*
X-5714Y-529D01*
X-529D01*
Y-99471D01*
D02*
G37*
%LPC*%
G36*
X-4530Y-63244D02*
X-4704Y-63267D01*
X-4960Y-63373D01*
X-5179Y-63541D01*
X-5347Y-63760D01*
X-5453Y-64016D01*
X-5476Y-64190D01*
X-4530D01*
Y-63244D01*
D02*
G37*
G36*
X-5945Y-63265D02*
X-7995D01*
Y-65315D01*
X-5945D01*
Y-63265D01*
D02*
G37*
G36*
X-22875Y-62400D02*
X-23225D01*
Y-62825D01*
X-22875D01*
Y-62400D01*
D02*
G37*
G36*
X-4330Y-63244D02*
Y-64190D01*
X-3384D01*
X-3407Y-64016D01*
X-3513Y-63760D01*
X-3681Y-63541D01*
X-3900Y-63373D01*
X-4156Y-63267D01*
X-4330Y-63244D01*
D02*
G37*
G36*
X-25112Y-66544D02*
X-25662D01*
Y-66944D01*
X-25112D01*
Y-66544D01*
D02*
G37*
G36*
X-31300Y-66625D02*
X-31650D01*
Y-67050D01*
X-31300D01*
Y-66625D01*
D02*
G37*
G36*
X-18670Y-94524D02*
X-18844Y-94547D01*
X-19100Y-94653D01*
X-19319Y-94821D01*
X-19487Y-95040D01*
X-19593Y-95296D01*
X-19616Y-95470D01*
X-18670D01*
Y-94524D01*
D02*
G37*
G36*
X-52475Y-63840D02*
X-54575D01*
Y-65940D01*
X-52475D01*
Y-63840D01*
D02*
G37*
G36*
X-3384Y-64390D02*
X-4330D01*
Y-65336D01*
X-4156Y-65313D01*
X-3900Y-65207D01*
X-3681Y-65039D01*
X-3513Y-64820D01*
X-3407Y-64564D01*
X-3384Y-64390D01*
D02*
G37*
G36*
X-4530D02*
X-5476D01*
X-5453Y-64564D01*
X-5347Y-64820D01*
X-5179Y-65039D01*
X-4960Y-65207D01*
X-4704Y-65313D01*
X-4530Y-65336D01*
Y-64390D01*
D02*
G37*
G36*
X-50175Y-63840D02*
X-52275D01*
Y-65940D01*
X-50175D01*
Y-63840D01*
D02*
G37*
G36*
X-23413Y-61850D02*
X-24325D01*
Y-62107D01*
X-23750D01*
X-23613Y-62080D01*
X-23498Y-62002D01*
X-23420Y-61887D01*
X-23413Y-61850D01*
D02*
G37*
G36*
X-7070Y-51690D02*
X-8016D01*
X-7993Y-51864D01*
X-7887Y-52120D01*
X-7719Y-52339D01*
X-7500Y-52507D01*
X-7244Y-52613D01*
X-7070Y-52636D01*
Y-51690D01*
D02*
G37*
G36*
X-5924D02*
X-6870D01*
Y-52636D01*
X-6696Y-52613D01*
X-6440Y-52507D01*
X-6221Y-52339D01*
X-6053Y-52120D01*
X-5947Y-51864D01*
X-5924Y-51690D01*
D02*
G37*
G36*
X-39050Y-53325D02*
X-39475D01*
Y-53675D01*
X-39050D01*
Y-53325D01*
D02*
G37*
G36*
X-41430Y-94536D02*
X-41698Y-94571D01*
X-41947Y-94675D01*
X-42161Y-94839D01*
X-42325Y-95053D01*
X-42429Y-95302D01*
X-42464Y-95570D01*
X-42429Y-95838D01*
X-42325Y-96087D01*
X-42161Y-96301D01*
X-41947Y-96465D01*
X-41698Y-96569D01*
X-41430Y-96604D01*
X-41162Y-96569D01*
X-40913Y-96465D01*
X-40699Y-96301D01*
X-40535Y-96087D01*
X-40431Y-95838D01*
X-40396Y-95570D01*
X-40431Y-95302D01*
X-40535Y-95053D01*
X-40699Y-94839D01*
X-40913Y-94675D01*
X-41162Y-94571D01*
X-41430Y-94536D01*
D02*
G37*
G36*
X-18670Y-95670D02*
X-19616D01*
X-19593Y-95844D01*
X-19487Y-96100D01*
X-19319Y-96319D01*
X-19100Y-96487D01*
X-18844Y-96593D01*
X-18670Y-96616D01*
Y-95670D01*
D02*
G37*
G36*
X-36030Y-46424D02*
X-36040D01*
X-36221Y-46448D01*
X-36390Y-46518D01*
X-36536Y-46629D01*
X-36647Y-46775D01*
X-36717Y-46944D01*
X-36741Y-47125D01*
X-36717Y-47306D01*
X-36647Y-47475D01*
X-36536Y-47621D01*
X-36390Y-47732D01*
X-36221Y-47802D01*
X-36040Y-47826D01*
X-36030D01*
X-35849Y-47802D01*
X-35680Y-47732D01*
X-35534Y-47621D01*
X-35423Y-47475D01*
X-35353Y-47306D01*
X-35329Y-47125D01*
X-35353Y-46944D01*
X-35423Y-46775D01*
X-35534Y-46629D01*
X-35680Y-46518D01*
X-35849Y-46448D01*
X-36030Y-46424D01*
D02*
G37*
G36*
X-30825Y-49175D02*
X-31325D01*
Y-49700D01*
X-30825D01*
Y-49175D01*
D02*
G37*
G36*
X-17524Y-95670D02*
X-18470D01*
Y-96616D01*
X-18296Y-96593D01*
X-18040Y-96487D01*
X-17821Y-96319D01*
X-17653Y-96100D01*
X-17547Y-95844D01*
X-17524Y-95670D01*
D02*
G37*
G36*
X-37325Y-56250D02*
X-37675D01*
Y-56675D01*
X-37325D01*
Y-56250D01*
D02*
G37*
G36*
X-38350Y-55975D02*
Y-56475D01*
X-37825D01*
Y-55975D01*
X-38350D01*
D02*
G37*
G36*
X-37825Y-56675D02*
X-38350D01*
Y-57175D01*
X-37825D01*
Y-56675D01*
D02*
G37*
G36*
X-28730Y-94536D02*
X-28998Y-94571D01*
X-29247Y-94675D01*
X-29461Y-94839D01*
X-29625Y-95053D01*
X-29729Y-95302D01*
X-29764Y-95570D01*
X-29729Y-95838D01*
X-29625Y-96087D01*
X-29461Y-96301D01*
X-29247Y-96465D01*
X-28998Y-96569D01*
X-28730Y-96604D01*
X-28462Y-96569D01*
X-28213Y-96465D01*
X-27999Y-96301D01*
X-27835Y-96087D01*
X-27731Y-95838D01*
X-27696Y-95570D01*
X-27731Y-95302D01*
X-27835Y-95053D01*
X-27999Y-94839D01*
X-28213Y-94675D01*
X-28462Y-94571D01*
X-28730Y-94536D01*
D02*
G37*
G36*
X-39050Y-53875D02*
X-39475D01*
Y-54225D01*
X-39050D01*
Y-53875D01*
D02*
G37*
G36*
X-40375Y-53325D02*
X-40800D01*
Y-53675D01*
X-40375D01*
Y-53325D01*
D02*
G37*
G36*
X-39075Y-55975D02*
X-39204Y-56025D01*
X-39225Y-56025D01*
X-40225D01*
Y-56181D01*
X-40375Y-56226D01*
X-40376Y-56226D01*
X-40524Y-56126D01*
X-40700Y-56091D01*
X-40876Y-56126D01*
X-41024Y-56226D01*
X-41124Y-56374D01*
X-41159Y-56550D01*
X-41124Y-56726D01*
X-41024Y-56874D01*
X-40876Y-56974D01*
X-40700Y-57009D01*
X-40524Y-56974D01*
X-40376Y-56874D01*
X-40375Y-56874D01*
X-40225Y-56919D01*
Y-57075D01*
X-39225D01*
X-39184Y-57075D01*
X-39075Y-57175D01*
X-39073D01*
X-39066Y-57175D01*
X-38550D01*
Y-56575D01*
Y-55975D01*
X-39046D01*
X-39073Y-55975D01*
X-39075D01*
D02*
G37*
G36*
X-47156Y-53367D02*
X-47424Y-53402D01*
X-47673Y-53506D01*
X-47887Y-53670D01*
X-48052Y-53884D01*
X-48155Y-54133D01*
X-48190Y-54401D01*
X-48155Y-54669D01*
X-48052Y-54918D01*
X-47887Y-55132D01*
X-47673Y-55296D01*
X-47424Y-55400D01*
X-47156Y-55435D01*
X-46889Y-55400D01*
X-46639Y-55296D01*
X-46425Y-55132D01*
X-46261Y-54918D01*
X-46158Y-54669D01*
X-46123Y-54401D01*
X-46158Y-54133D01*
X-46261Y-53884D01*
X-46425Y-53670D01*
X-46639Y-53506D01*
X-46889Y-53402D01*
X-47156Y-53367D01*
D02*
G37*
G36*
X-4430Y-83576D02*
X-4698Y-83611D01*
X-4947Y-83715D01*
X-5161Y-83879D01*
X-5325Y-84093D01*
X-5429Y-84342D01*
X-5464Y-84610D01*
X-5429Y-84878D01*
X-5325Y-85127D01*
X-5161Y-85341D01*
X-4947Y-85505D01*
X-4698Y-85609D01*
X-4430Y-85644D01*
X-4162Y-85609D01*
X-3913Y-85505D01*
X-3699Y-85341D01*
X-3535Y-85127D01*
X-3431Y-84878D01*
X-3396Y-84610D01*
X-3431Y-84342D01*
X-3535Y-84093D01*
X-3699Y-83879D01*
X-3913Y-83715D01*
X-4162Y-83611D01*
X-4430Y-83576D01*
D02*
G37*
G36*
X-6970Y-81036D02*
X-7238Y-81071D01*
X-7487Y-81175D01*
X-7701Y-81339D01*
X-7865Y-81553D01*
X-7969Y-81802D01*
X-8004Y-82070D01*
X-7969Y-82338D01*
X-7865Y-82587D01*
X-7701Y-82801D01*
X-7487Y-82965D01*
X-7238Y-83069D01*
X-6970Y-83104D01*
X-6702Y-83069D01*
X-6453Y-82965D01*
X-6239Y-82801D01*
X-6075Y-82587D01*
X-5971Y-82338D01*
X-5936Y-82070D01*
X-5971Y-81802D01*
X-6075Y-81553D01*
X-6239Y-81339D01*
X-6453Y-81175D01*
X-6702Y-81071D01*
X-6970Y-81036D01*
D02*
G37*
G36*
X-6870Y-86104D02*
Y-87050D01*
X-5924D01*
X-5947Y-86876D01*
X-6053Y-86620D01*
X-6221Y-86401D01*
X-6440Y-86233D01*
X-6696Y-86127D01*
X-6870Y-86104D01*
D02*
G37*
G36*
X-6970Y-83576D02*
X-7238Y-83611D01*
X-7487Y-83715D01*
X-7701Y-83879D01*
X-7865Y-84093D01*
X-7969Y-84342D01*
X-8004Y-84610D01*
X-7969Y-84878D01*
X-7865Y-85127D01*
X-7701Y-85341D01*
X-7487Y-85505D01*
X-7238Y-85609D01*
X-6970Y-85644D01*
X-6702Y-85609D01*
X-6453Y-85505D01*
X-6239Y-85341D01*
X-6075Y-85127D01*
X-5971Y-84878D01*
X-5936Y-84610D01*
X-5971Y-84342D01*
X-6075Y-84093D01*
X-6239Y-83879D01*
X-6453Y-83715D01*
X-6702Y-83611D01*
X-6970Y-83576D01*
D02*
G37*
G36*
X-4430Y-78496D02*
X-4698Y-78531D01*
X-4947Y-78635D01*
X-5161Y-78799D01*
X-5325Y-79013D01*
X-5429Y-79262D01*
X-5464Y-79530D01*
X-5429Y-79798D01*
X-5325Y-80047D01*
X-5161Y-80261D01*
X-4947Y-80425D01*
X-4698Y-80529D01*
X-4430Y-80564D01*
X-4162Y-80529D01*
X-3913Y-80425D01*
X-3699Y-80261D01*
X-3535Y-80047D01*
X-3431Y-79798D01*
X-3396Y-79530D01*
X-3431Y-79262D01*
X-3535Y-79013D01*
X-3699Y-78799D01*
X-3913Y-78635D01*
X-4162Y-78531D01*
X-4430Y-78496D01*
D02*
G37*
G36*
X-46131Y-48296D02*
X-48181D01*
Y-49877D01*
X-52609Y-54305D01*
X-52681Y-54413D01*
X-52706Y-54539D01*
Y-56365D01*
X-54150D01*
Y-59915D01*
X-51068D01*
X-46280Y-64703D01*
Y-67377D01*
X-51068Y-72165D01*
X-54150D01*
Y-75715D01*
X-50600D01*
Y-72634D01*
X-45714Y-67748D01*
X-45642Y-67641D01*
X-45617Y-67514D01*
Y-64566D01*
X-45642Y-64439D01*
X-45714Y-64332D01*
X-50600Y-59446D01*
Y-56365D01*
X-52043D01*
Y-54677D01*
X-47713Y-50346D01*
X-46131D01*
Y-48296D01*
D02*
G37*
G36*
X-4430Y-81036D02*
X-4698Y-81071D01*
X-4947Y-81175D01*
X-5161Y-81339D01*
X-5325Y-81553D01*
X-5429Y-81802D01*
X-5464Y-82070D01*
X-5429Y-82338D01*
X-5325Y-82587D01*
X-5161Y-82801D01*
X-4947Y-82965D01*
X-4698Y-83069D01*
X-4430Y-83104D01*
X-4162Y-83069D01*
X-3913Y-82965D01*
X-3699Y-82801D01*
X-3535Y-82587D01*
X-3431Y-82338D01*
X-3396Y-82070D01*
X-3431Y-81802D01*
X-3535Y-81553D01*
X-3699Y-81339D01*
X-3913Y-81175D01*
X-4162Y-81071D01*
X-4430Y-81036D01*
D02*
G37*
G36*
X-6970Y-78496D02*
X-7238Y-78531D01*
X-7487Y-78635D01*
X-7701Y-78799D01*
X-7865Y-79013D01*
X-7969Y-79262D01*
X-8004Y-79530D01*
X-7969Y-79798D01*
X-7865Y-80047D01*
X-7701Y-80261D01*
X-7487Y-80425D01*
X-7238Y-80529D01*
X-6970Y-80564D01*
X-6702Y-80529D01*
X-6453Y-80425D01*
X-6239Y-80261D01*
X-6075Y-80047D01*
X-5971Y-79798D01*
X-5936Y-79530D01*
X-5971Y-79262D01*
X-6075Y-79013D01*
X-6239Y-78799D01*
X-6453Y-78635D01*
X-6702Y-78531D01*
X-6970Y-78496D01*
D02*
G37*
G36*
X-7070Y-87250D02*
X-8016D01*
X-7993Y-87424D01*
X-7887Y-87680D01*
X-7719Y-87899D01*
X-7500Y-88067D01*
X-7244Y-88173D01*
X-7070Y-88196D01*
Y-87250D01*
D02*
G37*
G36*
X-5924D02*
X-6870D01*
Y-88196D01*
X-6696Y-88173D01*
X-6440Y-88067D01*
X-6221Y-87899D01*
X-6053Y-87680D01*
X-5947Y-87424D01*
X-5924Y-87250D01*
D02*
G37*
G36*
X-41330Y-91984D02*
Y-92930D01*
X-40384D01*
X-40407Y-92756D01*
X-40513Y-92500D01*
X-40681Y-92281D01*
X-40900Y-92113D01*
X-41156Y-92007D01*
X-41330Y-91984D01*
D02*
G37*
G36*
X-46250Y-77575D02*
X-58250D01*
Y-89575D01*
X-46250D01*
X-46250Y-77575D01*
D02*
G37*
G36*
X-4430Y-86116D02*
X-4698Y-86151D01*
X-4947Y-86255D01*
X-5161Y-86419D01*
X-5325Y-86633D01*
X-5429Y-86882D01*
X-5464Y-87150D01*
X-5429Y-87418D01*
X-5325Y-87667D01*
X-5161Y-87881D01*
X-4947Y-88045D01*
X-4698Y-88149D01*
X-4430Y-88184D01*
X-4162Y-88149D01*
X-3913Y-88045D01*
X-3699Y-87881D01*
X-3535Y-87667D01*
X-3431Y-87418D01*
X-3396Y-87150D01*
X-3431Y-86882D01*
X-3535Y-86633D01*
X-3699Y-86419D01*
X-3913Y-86255D01*
X-4162Y-86151D01*
X-4430Y-86116D01*
D02*
G37*
G36*
X-7070Y-86104D02*
X-7244Y-86127D01*
X-7500Y-86233D01*
X-7719Y-86401D01*
X-7887Y-86620D01*
X-7993Y-86876D01*
X-8016Y-87050D01*
X-7070D01*
Y-86104D01*
D02*
G37*
G36*
X-41530Y-91984D02*
X-41704Y-92007D01*
X-41960Y-92113D01*
X-42179Y-92281D01*
X-42347Y-92500D01*
X-42453Y-92756D01*
X-42476Y-92930D01*
X-41530D01*
Y-91984D01*
D02*
G37*
G36*
X-40384Y-93130D02*
X-41330D01*
Y-94076D01*
X-41156Y-94053D01*
X-40900Y-93947D01*
X-40681Y-93779D01*
X-40513Y-93560D01*
X-40407Y-93304D01*
X-40384Y-93130D01*
D02*
G37*
G36*
X-6970Y-73416D02*
X-7238Y-73451D01*
X-7487Y-73555D01*
X-7701Y-73719D01*
X-7865Y-73933D01*
X-7969Y-74182D01*
X-8004Y-74450D01*
X-7969Y-74718D01*
X-7865Y-74967D01*
X-7701Y-75181D01*
X-7487Y-75345D01*
X-7238Y-75449D01*
X-6970Y-75484D01*
X-6702Y-75449D01*
X-6453Y-75345D01*
X-6239Y-75181D01*
X-6075Y-74967D01*
X-5971Y-74718D01*
X-5936Y-74450D01*
X-5971Y-74182D01*
X-6075Y-73933D01*
X-6239Y-73719D01*
X-6453Y-73555D01*
X-6702Y-73451D01*
X-6970Y-73416D01*
D02*
G37*
G36*
X-50175Y-66140D02*
X-52275D01*
Y-68240D01*
X-50175D01*
Y-66140D01*
D02*
G37*
G36*
X-4430Y-65796D02*
X-4698Y-65831D01*
X-4947Y-65935D01*
X-5161Y-66099D01*
X-5325Y-66313D01*
X-5429Y-66562D01*
X-5464Y-66830D01*
X-5429Y-67098D01*
X-5325Y-67347D01*
X-5161Y-67561D01*
X-4947Y-67725D01*
X-4698Y-67829D01*
X-4430Y-67864D01*
X-4162Y-67829D01*
X-3913Y-67725D01*
X-3699Y-67561D01*
X-3535Y-67347D01*
X-3431Y-67098D01*
X-3396Y-66830D01*
X-3431Y-66562D01*
X-3535Y-66313D01*
X-3699Y-66099D01*
X-3913Y-65935D01*
X-4162Y-65831D01*
X-4430Y-65796D01*
D02*
G37*
G36*
X-25462Y-67708D02*
X-26362D01*
Y-68458D01*
X-25462D01*
Y-67708D01*
D02*
G37*
G36*
X-52475Y-66140D02*
X-54575D01*
Y-68240D01*
X-52475D01*
Y-66140D01*
D02*
G37*
G36*
X-18470Y-94524D02*
Y-95470D01*
X-17524D01*
X-17547Y-95296D01*
X-17653Y-95040D01*
X-17821Y-94821D01*
X-18040Y-94653D01*
X-18296Y-94547D01*
X-18470Y-94524D01*
D02*
G37*
G36*
X-25112Y-67144D02*
X-25662D01*
Y-67544D01*
X-25112D01*
Y-67144D01*
D02*
G37*
G36*
X-37055Y-65516D02*
X-37323Y-65551D01*
X-37572Y-65655D01*
X-37786Y-65819D01*
X-37950Y-66033D01*
X-38054Y-66282D01*
X-38089Y-66550D01*
X-38054Y-66818D01*
X-37950Y-67067D01*
X-37786Y-67281D01*
X-37572Y-67445D01*
X-37323Y-67549D01*
X-37055Y-67584D01*
X-36787Y-67549D01*
X-36538Y-67445D01*
X-36324Y-67281D01*
X-36160Y-67067D01*
X-36056Y-66818D01*
X-36021Y-66550D01*
X-36056Y-66282D01*
X-36160Y-66033D01*
X-36324Y-65819D01*
X-36538Y-65655D01*
X-36787Y-65551D01*
X-37055Y-65516D01*
D02*
G37*
G36*
X-38570Y-65525D02*
X-40620D01*
Y-67575D01*
X-38570D01*
Y-65525D01*
D02*
G37*
G36*
X-22762Y-70958D02*
X-23662D01*
Y-71708D01*
X-22762D01*
Y-70958D01*
D02*
G37*
G36*
X-21662D02*
X-22562D01*
Y-71708D01*
X-21662D01*
Y-70958D01*
D02*
G37*
G36*
X-6970Y-70876D02*
X-7238Y-70911D01*
X-7487Y-71015D01*
X-7701Y-71179D01*
X-7865Y-71393D01*
X-7969Y-71642D01*
X-8004Y-71910D01*
X-7969Y-72178D01*
X-7865Y-72427D01*
X-7701Y-72641D01*
X-7487Y-72805D01*
X-7238Y-72909D01*
X-6970Y-72944D01*
X-6702Y-72909D01*
X-6453Y-72805D01*
X-6239Y-72641D01*
X-6075Y-72427D01*
X-5971Y-72178D01*
X-5936Y-71910D01*
X-5971Y-71642D01*
X-6075Y-71393D01*
X-6239Y-71179D01*
X-6453Y-71015D01*
X-6702Y-70911D01*
X-6970Y-70876D01*
D02*
G37*
G36*
X-4430D02*
X-4698Y-70911D01*
X-4947Y-71015D01*
X-5161Y-71179D01*
X-5325Y-71393D01*
X-5429Y-71642D01*
X-5464Y-71910D01*
X-5429Y-72178D01*
X-5325Y-72427D01*
X-5161Y-72641D01*
X-4947Y-72805D01*
X-4698Y-72909D01*
X-4430Y-72944D01*
X-4162Y-72909D01*
X-3913Y-72805D01*
X-3699Y-72641D01*
X-3535Y-72427D01*
X-3431Y-72178D01*
X-3396Y-71910D01*
X-3431Y-71642D01*
X-3535Y-71393D01*
X-3699Y-71179D01*
X-3913Y-71015D01*
X-4162Y-70911D01*
X-4430Y-70876D01*
D02*
G37*
G36*
X-25462Y-68658D02*
X-26362D01*
Y-69408D01*
X-25462D01*
Y-68658D01*
D02*
G37*
G36*
X-41530Y-93130D02*
X-42476D01*
X-42453Y-93304D01*
X-42347Y-93560D01*
X-42179Y-93779D01*
X-41960Y-93947D01*
X-41704Y-94053D01*
X-41530Y-94076D01*
Y-93130D01*
D02*
G37*
G36*
X-22762Y-70008D02*
X-23662D01*
Y-70758D01*
X-22762D01*
Y-70008D01*
D02*
G37*
G36*
X-21662D02*
X-22562D01*
Y-70758D01*
X-21662D01*
Y-70008D01*
D02*
G37*
G36*
X-39325Y-45925D02*
X-40925D01*
Y-47275D01*
X-39325D01*
Y-45925D01*
D02*
G37*
G36*
X-18825Y-7500D02*
X-19200D01*
Y-7900D01*
X-18825D01*
Y-7500D01*
D02*
G37*
G36*
X-5725Y-2775D02*
X-7275D01*
Y-4325D01*
X-6122D01*
X-2998Y-7448D01*
X-2907Y-7509D01*
X-2800Y-7530D01*
X-2800Y-7530D01*
X-1654D01*
X-1624Y-7574D01*
X-1476Y-7674D01*
X-1300Y-7709D01*
X-1124Y-7674D01*
X-976Y-7574D01*
X-876Y-7426D01*
X-841Y-7250D01*
X-876Y-7074D01*
X-976Y-6926D01*
X-1124Y-6826D01*
X-1300Y-6791D01*
X-1476Y-6826D01*
X-1624Y-6926D01*
X-1654Y-6970D01*
X-2684D01*
X-5725Y-3928D01*
Y-2775D01*
D02*
G37*
G36*
X-37787Y-7854D02*
X-37963Y-7889D01*
X-38112Y-7988D01*
X-38211Y-8137D01*
X-38246Y-8312D01*
X-38211Y-8488D01*
X-38112Y-8637D01*
X-37963Y-8736D01*
X-37787Y-8771D01*
X-37612Y-8736D01*
X-37463Y-8637D01*
X-37364Y-8488D01*
X-37329Y-8312D01*
X-37364Y-8137D01*
X-37463Y-7988D01*
X-37612Y-7889D01*
X-37787Y-7854D01*
D02*
G37*
G36*
X-17375Y-7475D02*
X-17725D01*
Y-7900D01*
X-17375D01*
Y-7475D01*
D02*
G37*
G36*
X-35100Y-6325D02*
X-35700D01*
Y-7550D01*
X-35100D01*
Y-6325D01*
D02*
G37*
G36*
X-34300D02*
X-34900D01*
Y-7550D01*
X-34300D01*
Y-6325D01*
D02*
G37*
G36*
X-50200Y-7278D02*
X-50550D01*
Y-7703D01*
X-50200D01*
Y-7278D01*
D02*
G37*
G36*
X-51650Y-7303D02*
X-52025D01*
Y-7703D01*
X-51650D01*
Y-7303D01*
D02*
G37*
G36*
X-27300Y-7750D02*
X-27900D01*
Y-8975D01*
X-27300D01*
Y-7750D01*
D02*
G37*
G36*
X-12075Y-9675D02*
X-12425D01*
Y-10100D01*
X-12075D01*
Y-9675D01*
D02*
G37*
G36*
X-11325D02*
X-11675D01*
Y-10100D01*
X-11325D01*
Y-9675D01*
D02*
G37*
G36*
X-45175Y-10100D02*
X-45550D01*
Y-10500D01*
X-45175D01*
Y-10100D01*
D02*
G37*
G36*
X-4550Y-9341D02*
X-4726Y-9376D01*
X-4874Y-9476D01*
X-4974Y-9624D01*
X-5009Y-9800D01*
X-4974Y-9976D01*
X-4874Y-10124D01*
X-4726Y-10224D01*
X-4550Y-10259D01*
X-4374Y-10224D01*
X-4226Y-10124D01*
X-4126Y-9976D01*
X-4091Y-9800D01*
X-4126Y-9624D01*
X-4226Y-9476D01*
X-4374Y-9376D01*
X-4550Y-9341D01*
D02*
G37*
G36*
X-6350Y-8291D02*
X-6526Y-8326D01*
X-6674Y-8426D01*
X-6774Y-8574D01*
X-6809Y-8750D01*
X-6798Y-8802D01*
X-14423Y-16427D01*
X-14475Y-16416D01*
X-14651Y-16451D01*
X-14799Y-16551D01*
X-14899Y-16699D01*
X-14934Y-16875D01*
X-14899Y-17051D01*
X-14799Y-17199D01*
X-14651Y-17299D01*
X-14475Y-17334D01*
X-14299Y-17299D01*
X-14151Y-17199D01*
X-14051Y-17051D01*
X-14016Y-16875D01*
X-14027Y-16823D01*
X-6402Y-9198D01*
X-6350Y-9209D01*
X-6174Y-9174D01*
X-6026Y-9074D01*
X-5926Y-8926D01*
X-5891Y-8750D01*
X-5926Y-8574D01*
X-6026Y-8426D01*
X-6174Y-8326D01*
X-6350Y-8291D01*
D02*
G37*
G36*
X-28100Y-7750D02*
X-28700D01*
Y-8975D01*
X-28100D01*
Y-7750D01*
D02*
G37*
G36*
X-7975Y-2775D02*
X-9525D01*
Y-4325D01*
X-8372D01*
X-5613Y-7084D01*
Y-8916D01*
X-6298Y-9602D01*
X-6350Y-9591D01*
X-6526Y-9626D01*
X-6674Y-9726D01*
X-6774Y-9874D01*
X-6809Y-10050D01*
X-6774Y-10226D01*
X-6674Y-10374D01*
X-6526Y-10474D01*
X-6350Y-10509D01*
X-6174Y-10474D01*
X-6026Y-10374D01*
X-5926Y-10226D01*
X-5891Y-10050D01*
X-5902Y-9998D01*
X-5134Y-9231D01*
X-5073Y-9140D01*
X-5052Y-9032D01*
Y-6968D01*
X-5073Y-6860D01*
X-5134Y-6769D01*
X-7975Y-3928D01*
Y-2775D01*
D02*
G37*
G36*
X-25876Y-5965D02*
X-26052Y-6000D01*
X-26201Y-6099D01*
X-26300Y-6248D01*
X-26335Y-6424D01*
X-26300Y-6599D01*
X-26208Y-6738D01*
Y-7623D01*
X-26183Y-7750D01*
X-26111Y-7858D01*
X-26006Y-7962D01*
Y-8660D01*
X-26100Y-8800D01*
X-26135Y-8975D01*
X-26100Y-9151D01*
X-26001Y-9300D01*
X-25852Y-9399D01*
X-25676Y-9434D01*
X-25501Y-9399D01*
X-25352Y-9300D01*
X-25252Y-9151D01*
X-25217Y-8975D01*
X-25252Y-8800D01*
X-25344Y-8663D01*
Y-7825D01*
X-25369Y-7698D01*
X-25441Y-7591D01*
X-25545Y-7486D01*
Y-6738D01*
X-25453Y-6599D01*
X-25418Y-6424D01*
X-25453Y-6248D01*
X-25552Y-6099D01*
X-25701Y-6000D01*
X-25876Y-5965D01*
D02*
G37*
G36*
X-28100Y-2250D02*
X-28700D01*
Y-3475D01*
X-28100D01*
Y-2250D01*
D02*
G37*
G36*
X-27300D02*
X-27900D01*
Y-3475D01*
X-27300D01*
Y-2250D01*
D02*
G37*
G36*
X-35100D02*
X-35700D01*
Y-3475D01*
X-35100D01*
Y-2250D01*
D02*
G37*
G36*
X-34300D02*
X-34900D01*
Y-3475D01*
X-34300D01*
Y-2250D01*
D02*
G37*
G36*
X-28100Y-825D02*
X-28700D01*
Y-2050D01*
X-28100D01*
Y-825D01*
D02*
G37*
G36*
X-27300D02*
X-27900D01*
Y-2050D01*
X-27300D01*
Y-825D01*
D02*
G37*
G36*
X-35100D02*
X-35700D01*
Y-2050D01*
X-35100D01*
Y-825D01*
D02*
G37*
G36*
X-34300D02*
X-34900D01*
Y-2050D01*
X-34300D01*
Y-825D01*
D02*
G37*
G36*
X-28751Y-3690D02*
X-28927Y-3725D01*
X-29076Y-3824D01*
X-29239Y-3798D01*
X-29346Y-3726D01*
X-29522Y-3691D01*
X-29698Y-3726D01*
X-29846Y-3826D01*
X-29946Y-3974D01*
X-29981Y-4150D01*
X-29946Y-4326D01*
X-29846Y-4474D01*
X-29698Y-4574D01*
X-29522Y-4609D01*
X-29346Y-4574D01*
X-29198Y-4474D01*
X-29035Y-4501D01*
X-28927Y-4572D01*
X-28751Y-4607D01*
X-28576Y-4572D01*
X-28427Y-4473D01*
X-28328Y-4324D01*
X-28293Y-4148D01*
X-28328Y-3973D01*
X-28427Y-3824D01*
X-28576Y-3725D01*
X-28751Y-3690D01*
D02*
G37*
G36*
X-16416Y-6900D02*
X-17066D01*
Y-7500D01*
X-16416D01*
Y-6900D01*
D02*
G37*
G36*
X-49250Y-6478D02*
X-49900D01*
Y-7078D01*
X-49250D01*
Y-6478D01*
D02*
G37*
G36*
X-28100Y-6325D02*
X-28700D01*
Y-7550D01*
X-28100D01*
Y-6325D01*
D02*
G37*
G36*
X-27300D02*
X-27900D01*
Y-7550D01*
X-27300D01*
Y-6325D01*
D02*
G37*
G36*
X-17925Y-3982D02*
X-17938Y-3984D01*
X-17976Y-3991D01*
X-18013Y-3999D01*
X-18049Y-4010D01*
X-18085Y-4023D01*
X-18120Y-4037D01*
X-18154Y-4054D01*
X-18188Y-4072D01*
X-18220Y-4092D01*
X-18251Y-4113D01*
X-18281Y-4136D01*
X-18310Y-4161D01*
X-18338Y-4187D01*
X-18364Y-4215D01*
X-18389Y-4244D01*
X-18412Y-4274D01*
X-18433Y-4305D01*
X-18453Y-4337D01*
X-18471Y-4371D01*
X-18488Y-4405D01*
X-18502Y-4440D01*
X-18515Y-4476D01*
X-18526Y-4512D01*
X-18534Y-4549D01*
X-18541Y-4587D01*
X-18546Y-4624D01*
X-18549Y-4662D01*
X-18550Y-4700D01*
X-17925D01*
Y-3982D01*
D02*
G37*
G36*
X-13275D02*
Y-4700D01*
X-12650D01*
X-12651Y-4662D01*
X-12654Y-4624D01*
X-12659Y-4587D01*
X-12666Y-4549D01*
X-12674Y-4512D01*
X-12685Y-4476D01*
X-12698Y-4440D01*
X-12712Y-4405D01*
X-12729Y-4371D01*
X-12747Y-4337D01*
X-12767Y-4305D01*
X-12788Y-4274D01*
X-12811Y-4244D01*
X-12836Y-4215D01*
X-12862Y-4187D01*
X-12890Y-4161D01*
X-12919Y-4136D01*
X-12949Y-4113D01*
X-12980Y-4092D01*
X-13012Y-4072D01*
X-13046Y-4054D01*
X-13080Y-4037D01*
X-13115Y-4023D01*
X-13151Y-4010D01*
X-13187Y-3999D01*
X-13224Y-3991D01*
X-13262Y-3984D01*
X-13275Y-3982D01*
D02*
G37*
G36*
X-50759D02*
X-50772Y-3984D01*
X-50810Y-3991D01*
X-50847Y-3999D01*
X-50883Y-4010D01*
X-50919Y-4023D01*
X-50954Y-4037D01*
X-50988Y-4054D01*
X-51022Y-4072D01*
X-51054Y-4092D01*
X-51085Y-4113D01*
X-51115Y-4136D01*
X-51144Y-4161D01*
X-51172Y-4187D01*
X-51198Y-4215D01*
X-51223Y-4244D01*
X-51246Y-4274D01*
X-51267Y-4305D01*
X-51287Y-4337D01*
X-51305Y-4371D01*
X-51322Y-4405D01*
X-51336Y-4440D01*
X-51349Y-4476D01*
X-51360Y-4512D01*
X-51368Y-4549D01*
X-51375Y-4587D01*
X-51380Y-4624D01*
X-51383Y-4662D01*
X-51384Y-4700D01*
X-50759D01*
Y-3982D01*
D02*
G37*
G36*
X-46109D02*
Y-4700D01*
X-45484D01*
X-45485Y-4662D01*
X-45488Y-4624D01*
X-45493Y-4587D01*
X-45500Y-4549D01*
X-45508Y-4512D01*
X-45519Y-4476D01*
X-45532Y-4440D01*
X-45546Y-4405D01*
X-45563Y-4371D01*
X-45581Y-4337D01*
X-45601Y-4305D01*
X-45622Y-4274D01*
X-45645Y-4244D01*
X-45670Y-4215D01*
X-45696Y-4187D01*
X-45724Y-4161D01*
X-45753Y-4136D01*
X-45783Y-4113D01*
X-45814Y-4092D01*
X-45846Y-4072D01*
X-45880Y-4054D01*
X-45914Y-4037D01*
X-45949Y-4023D01*
X-45985Y-4010D01*
X-46021Y-3999D01*
X-46058Y-3991D01*
X-46096Y-3984D01*
X-46109Y-3982D01*
D02*
G37*
G36*
X-38525Y-26566D02*
X-38701Y-26601D01*
X-38849Y-26701D01*
X-38949Y-26849D01*
X-38984Y-27025D01*
X-38949Y-27201D01*
X-38849Y-27349D01*
X-38701Y-27449D01*
X-38525Y-27484D01*
X-38349Y-27449D01*
X-38201Y-27349D01*
X-38101Y-27201D01*
X-38066Y-27025D01*
X-38101Y-26849D01*
X-38201Y-26701D01*
X-38349Y-26601D01*
X-38525Y-26566D01*
D02*
G37*
G36*
X-49925Y-26216D02*
X-50101Y-26251D01*
X-50249Y-26351D01*
X-50349Y-26499D01*
X-50384Y-26675D01*
X-50349Y-26851D01*
X-50249Y-26999D01*
X-50101Y-27099D01*
X-49925Y-27134D01*
X-49749Y-27099D01*
X-49601Y-26999D01*
X-49501Y-26851D01*
X-49466Y-26675D01*
X-49501Y-26499D01*
X-49601Y-26351D01*
X-49749Y-26251D01*
X-49925Y-26216D01*
D02*
G37*
G36*
X-4530Y-27684D02*
X-4704Y-27707D01*
X-4960Y-27813D01*
X-5179Y-27981D01*
X-5347Y-28200D01*
X-5453Y-28456D01*
X-5476Y-28630D01*
X-4530D01*
Y-27684D01*
D02*
G37*
G36*
X-4330D02*
Y-28630D01*
X-3384D01*
X-3407Y-28456D01*
X-3513Y-28200D01*
X-3681Y-27981D01*
X-3900Y-27813D01*
X-4156Y-27707D01*
X-4330Y-27684D01*
D02*
G37*
G36*
X-12925Y-24066D02*
X-13101Y-24101D01*
X-13249Y-24201D01*
X-13349Y-24349D01*
X-13384Y-24525D01*
X-13349Y-24701D01*
X-13249Y-24849D01*
X-13101Y-24949D01*
X-12925Y-24984D01*
X-12749Y-24949D01*
X-12601Y-24849D01*
X-12501Y-24701D01*
X-12466Y-24525D01*
X-12501Y-24349D01*
X-12601Y-24201D01*
X-12749Y-24101D01*
X-12925Y-24066D01*
D02*
G37*
G36*
X-50750Y-13841D02*
X-50926Y-13876D01*
X-51074Y-13976D01*
X-51174Y-14124D01*
X-51209Y-14300D01*
X-51198Y-14352D01*
X-51298Y-14452D01*
X-51359Y-14543D01*
X-51380Y-14650D01*
Y-20525D01*
X-51359Y-20632D01*
X-51298Y-20723D01*
X-50330Y-21691D01*
Y-23671D01*
X-50374Y-23701D01*
X-50474Y-23849D01*
X-50509Y-24025D01*
X-50474Y-24201D01*
X-50374Y-24349D01*
X-50226Y-24449D01*
X-50050Y-24484D01*
X-49874Y-24449D01*
X-49726Y-24349D01*
X-49626Y-24201D01*
X-49591Y-24025D01*
X-49626Y-23849D01*
X-49726Y-23701D01*
X-49770Y-23671D01*
Y-21575D01*
X-49770Y-21575D01*
X-49791Y-21468D01*
X-49852Y-21377D01*
X-49852Y-21377D01*
X-50820Y-20409D01*
Y-14898D01*
X-50750Y-14759D01*
X-50574Y-14724D01*
X-50426Y-14624D01*
X-50326Y-14476D01*
X-50291Y-14300D01*
X-50326Y-14124D01*
X-50426Y-13976D01*
X-50574Y-13876D01*
X-50750Y-13841D01*
D02*
G37*
G36*
X-46350Y-26216D02*
X-46526Y-26251D01*
X-46674Y-26351D01*
X-46774Y-26499D01*
X-46809Y-26675D01*
X-46774Y-26851D01*
X-46674Y-26999D01*
X-46526Y-27099D01*
X-46350Y-27134D01*
X-46174Y-27099D01*
X-46026Y-26999D01*
X-45926Y-26851D01*
X-45891Y-26675D01*
X-45926Y-26499D01*
X-46026Y-26351D01*
X-46174Y-26251D01*
X-46350Y-26216D01*
D02*
G37*
G36*
X-12925Y-25291D02*
X-13101Y-25326D01*
X-13249Y-25426D01*
X-13349Y-25574D01*
X-13384Y-25750D01*
X-13349Y-25926D01*
X-13249Y-26074D01*
X-13101Y-26174D01*
X-12925Y-26209D01*
X-12749Y-26174D01*
X-12601Y-26074D01*
X-12501Y-25926D01*
X-12466Y-25750D01*
X-12501Y-25574D01*
X-12601Y-25426D01*
X-12749Y-25326D01*
X-12925Y-25291D01*
D02*
G37*
G36*
X-5945Y-27705D02*
X-7995D01*
Y-29755D01*
X-5945D01*
Y-27705D01*
D02*
G37*
G36*
X-37525Y-44375D02*
X-39125D01*
Y-45725D01*
X-37525D01*
Y-44375D01*
D02*
G37*
G36*
X-58400Y-37641D02*
X-58576Y-37676D01*
X-58724Y-37776D01*
X-58824Y-37924D01*
X-58859Y-38100D01*
X-58824Y-38276D01*
X-58724Y-38424D01*
X-58576Y-38524D01*
X-58400Y-38559D01*
X-58224Y-38524D01*
X-58076Y-38424D01*
X-57976Y-38276D01*
X-57941Y-38100D01*
X-57976Y-37924D01*
X-58076Y-37776D01*
X-58224Y-37676D01*
X-58400Y-37641D01*
D02*
G37*
G36*
X-37525Y-45925D02*
X-39125D01*
Y-47275D01*
X-37525D01*
Y-45925D01*
D02*
G37*
G36*
X-39325Y-44375D02*
X-40925D01*
Y-45725D01*
X-39325D01*
Y-44375D01*
D02*
G37*
G36*
X-54300Y-14516D02*
X-54476Y-14551D01*
X-54624Y-14651D01*
X-54724Y-14799D01*
X-54759Y-14975D01*
X-54724Y-15151D01*
X-54624Y-15299D01*
X-54580Y-15329D01*
Y-31050D01*
X-54559Y-31157D01*
X-54498Y-31248D01*
X-53148Y-32598D01*
X-53159Y-32650D01*
X-53124Y-32826D01*
X-53024Y-32974D01*
X-52876Y-33074D01*
X-52700Y-33109D01*
X-52524Y-33074D01*
X-52376Y-32974D01*
X-52276Y-32826D01*
X-52241Y-32650D01*
X-52276Y-32474D01*
X-52376Y-32326D01*
X-52524Y-32226D01*
X-52700Y-32191D01*
X-52752Y-32202D01*
X-54020Y-30934D01*
Y-15329D01*
X-53976Y-15299D01*
X-53876Y-15151D01*
X-53841Y-14975D01*
X-53876Y-14799D01*
X-53976Y-14651D01*
X-54124Y-14551D01*
X-54300Y-14516D01*
D02*
G37*
G36*
X-41125Y-28467D02*
X-41301Y-28502D01*
X-41449Y-28602D01*
X-41549Y-28751D01*
X-41584Y-28926D01*
X-41549Y-29102D01*
X-41449Y-29251D01*
X-41301Y-29350D01*
X-41125Y-29385D01*
X-41073Y-29375D01*
X-38974Y-31473D01*
X-38883Y-31534D01*
X-38776Y-31555D01*
X-23045D01*
X-23009Y-31600D01*
X-22974Y-31776D01*
X-22874Y-31924D01*
X-22726Y-32024D01*
X-22550Y-32059D01*
X-22374Y-32024D01*
X-22226Y-31924D01*
X-22126Y-31776D01*
X-22091Y-31600D01*
X-22126Y-31424D01*
X-22226Y-31276D01*
X-22374Y-31176D01*
X-22550Y-31141D01*
X-22602Y-31152D01*
X-22677Y-31077D01*
X-22768Y-31016D01*
X-22875Y-30995D01*
X-38660D01*
X-40677Y-28978D01*
X-40666Y-28926D01*
X-40701Y-28751D01*
X-40801Y-28602D01*
X-40949Y-28502D01*
X-41125Y-28467D01*
D02*
G37*
G36*
X-52850Y-28266D02*
X-53026Y-28301D01*
X-53174Y-28401D01*
X-53274Y-28549D01*
X-53309Y-28725D01*
X-53274Y-28901D01*
X-53174Y-29049D01*
X-53130Y-29079D01*
Y-31000D01*
X-53109Y-31107D01*
X-53048Y-31198D01*
X-50830Y-33416D01*
Y-38246D01*
X-50874Y-38276D01*
X-50966Y-38412D01*
X-51015Y-38417D01*
X-51121Y-38398D01*
X-51126Y-38374D01*
X-51226Y-38226D01*
X-51374Y-38126D01*
X-51550Y-38091D01*
X-51726Y-38126D01*
X-51874Y-38226D01*
X-51974Y-38374D01*
X-52009Y-38550D01*
X-51974Y-38726D01*
X-51874Y-38874D01*
X-51726Y-38974D01*
X-51550Y-39009D01*
X-51374Y-38974D01*
X-51226Y-38874D01*
X-51134Y-38738D01*
X-51085Y-38733D01*
X-50979Y-38752D01*
X-50974Y-38776D01*
X-50874Y-38924D01*
X-50726Y-39024D01*
X-50550Y-39059D01*
X-50374Y-39024D01*
X-50226Y-38924D01*
X-50126Y-38776D01*
X-50091Y-38600D01*
X-50126Y-38424D01*
X-50226Y-38276D01*
X-50270Y-38246D01*
Y-33300D01*
X-50291Y-33193D01*
X-50352Y-33102D01*
X-52570Y-30884D01*
Y-29079D01*
X-52526Y-29049D01*
X-52426Y-28901D01*
X-52391Y-28725D01*
X-52426Y-28549D01*
X-52526Y-28401D01*
X-52674Y-28301D01*
X-52850Y-28266D01*
D02*
G37*
G36*
X-25900Y-34666D02*
X-26076Y-34701D01*
X-26224Y-34801D01*
X-26254Y-34845D01*
X-35621D01*
X-35651Y-34801D01*
X-35799Y-34701D01*
X-35975Y-34666D01*
X-36151Y-34701D01*
X-36299Y-34801D01*
X-36399Y-34949D01*
X-36434Y-35125D01*
X-36417Y-35208D01*
X-36425Y-35216D01*
X-36601Y-35251D01*
X-36749Y-35351D01*
X-36849Y-35499D01*
X-36884Y-35675D01*
X-36849Y-35851D01*
X-36749Y-35999D01*
X-36601Y-36099D01*
X-36425Y-36134D01*
X-36249Y-36099D01*
X-36101Y-35999D01*
X-36071Y-35955D01*
X-25029D01*
X-24999Y-35999D01*
X-24851Y-36099D01*
X-24675Y-36134D01*
X-24499Y-36099D01*
X-24351Y-35999D01*
X-24251Y-35851D01*
X-24216Y-35675D01*
X-24251Y-35499D01*
X-24351Y-35351D01*
X-24499Y-35251D01*
X-24675Y-35216D01*
X-24851Y-35251D01*
X-24999Y-35351D01*
X-25029Y-35395D01*
X-25372D01*
X-25465Y-35245D01*
X-25441Y-35125D01*
X-25476Y-34949D01*
X-25576Y-34801D01*
X-25724Y-34701D01*
X-25900Y-34666D01*
D02*
G37*
G36*
X-4530Y-12444D02*
X-4704Y-12467D01*
X-4960Y-12573D01*
X-5179Y-12741D01*
X-5347Y-12960D01*
X-5453Y-13216D01*
X-5476Y-13390D01*
X-4530D01*
Y-12444D01*
D02*
G37*
G36*
X-4330D02*
Y-13390D01*
X-3384D01*
X-3407Y-13216D01*
X-3513Y-12960D01*
X-3681Y-12741D01*
X-3900Y-12573D01*
X-4156Y-12467D01*
X-4330Y-12444D01*
D02*
G37*
G36*
X-4530Y-13590D02*
X-5476D01*
X-5453Y-13764D01*
X-5347Y-14020D01*
X-5179Y-14239D01*
X-4960Y-14407D01*
X-4704Y-14513D01*
X-4530Y-14536D01*
Y-13590D01*
D02*
G37*
G36*
X-3384D02*
X-4330D01*
Y-14536D01*
X-4156Y-14513D01*
X-3900Y-14407D01*
X-3681Y-14239D01*
X-3513Y-14020D01*
X-3407Y-13764D01*
X-3384Y-13590D01*
D02*
G37*
G36*
X-49675Y-10391D02*
X-49851Y-10426D01*
X-49999Y-10526D01*
X-50099Y-10674D01*
X-50134Y-10850D01*
X-50099Y-11026D01*
X-49999Y-11174D01*
X-49851Y-11274D01*
X-49675Y-11309D01*
X-49499Y-11274D01*
X-49351Y-11174D01*
X-49251Y-11026D01*
X-49216Y-10850D01*
X-49251Y-10674D01*
X-49351Y-10526D01*
X-49499Y-10426D01*
X-49675Y-10391D01*
D02*
G37*
G36*
X-45750Y-10100D02*
X-46125D01*
Y-10500D01*
X-45750D01*
Y-10100D01*
D02*
G37*
G36*
X-40245Y-9925D02*
X-42295D01*
Y-11975D01*
X-40245D01*
Y-9925D01*
D02*
G37*
G36*
X-11125Y-6266D02*
X-11301Y-6301D01*
X-11449Y-6401D01*
X-11549Y-6549D01*
X-11584Y-6725D01*
X-11564Y-6825D01*
X-11650Y-6975D01*
X-11650D01*
X-11650Y-6975D01*
Y-8025D01*
X-11650D01*
X-11650Y-8125D01*
X-11650D01*
Y-9050D01*
X-11675D01*
Y-9475D01*
X-11225D01*
Y-9575D01*
X-11125D01*
Y-10100D01*
X-10905D01*
Y-10834D01*
X-16048Y-15977D01*
X-16100Y-15966D01*
X-16276Y-16001D01*
X-16424Y-16101D01*
X-16524Y-16249D01*
X-16559Y-16425D01*
X-16524Y-16601D01*
X-16424Y-16749D01*
X-16276Y-16849D01*
X-16100Y-16884D01*
X-15924Y-16849D01*
X-15776Y-16749D01*
X-15676Y-16601D01*
X-15641Y-16425D01*
X-15652Y-16373D01*
X-10892Y-11614D01*
X-10726Y-11660D01*
X-10649Y-11774D01*
X-10501Y-11874D01*
X-10325Y-11909D01*
X-10149Y-11874D01*
X-10001Y-11774D01*
X-9901Y-11626D01*
X-9866Y-11450D01*
X-9877Y-11398D01*
X-9727Y-11248D01*
X-9666Y-11157D01*
X-9645Y-11050D01*
Y-11045D01*
Y-9554D01*
X-9601Y-9524D01*
X-9501Y-9376D01*
X-9466Y-9200D01*
X-9501Y-9024D01*
X-9601Y-8876D01*
X-9749Y-8776D01*
X-9925Y-8741D01*
X-10101Y-8776D01*
X-10249Y-8876D01*
X-10298Y-8949D01*
X-10316Y-8960D01*
X-10479Y-8973D01*
X-10481Y-8973D01*
X-10800Y-8653D01*
Y-8557D01*
X-10794Y-8525D01*
Y-8025D01*
X-10600D01*
Y-6975D01*
X-10600Y-6975D01*
X-10600D01*
X-10686Y-6825D01*
X-10666Y-6725D01*
X-10701Y-6549D01*
X-10801Y-6401D01*
X-10949Y-6301D01*
X-11125Y-6266D01*
D02*
G37*
G36*
X-58075Y-13791D02*
X-58251Y-13826D01*
X-58399Y-13926D01*
X-58499Y-14074D01*
X-58534Y-14250D01*
X-58499Y-14426D01*
X-58399Y-14574D01*
X-58251Y-14674D01*
X-58075Y-14709D01*
X-57899Y-14674D01*
X-57751Y-14574D01*
X-57651Y-14426D01*
X-57616Y-14250D01*
X-57651Y-14074D01*
X-57751Y-13926D01*
X-57899Y-13826D01*
X-58075Y-13791D01*
D02*
G37*
G36*
X-40751Y-18815D02*
X-42801D01*
Y-20865D01*
X-40751D01*
Y-18815D01*
D02*
G37*
G36*
X-30500Y-17341D02*
X-30676Y-17376D01*
X-30824Y-17476D01*
X-30847Y-17510D01*
X-31028D01*
X-31051Y-17476D01*
X-31199Y-17376D01*
X-31375Y-17341D01*
X-31551Y-17376D01*
X-31699Y-17476D01*
X-31799Y-17624D01*
X-31834Y-17800D01*
X-31799Y-17976D01*
X-31706Y-18115D01*
X-36915Y-23323D01*
X-36950Y-23316D01*
X-37126Y-23351D01*
X-37274Y-23451D01*
X-37374Y-23599D01*
X-37409Y-23775D01*
X-37374Y-23951D01*
X-37274Y-24099D01*
X-37126Y-24199D01*
X-36950Y-24234D01*
X-36774Y-24199D01*
X-36705Y-24153D01*
X-36555Y-24233D01*
Y-24596D01*
X-36599Y-24626D01*
X-36699Y-24774D01*
X-36734Y-24950D01*
X-36699Y-25126D01*
X-36599Y-25274D01*
X-36451Y-25374D01*
X-36275Y-25409D01*
X-36099Y-25374D01*
X-35951Y-25274D01*
X-35851Y-25126D01*
X-35816Y-24950D01*
X-35851Y-24774D01*
X-35951Y-24626D01*
X-35995Y-24596D01*
Y-23691D01*
X-33365Y-21061D01*
X-33202Y-21111D01*
X-33199Y-21126D01*
X-33099Y-21274D01*
X-32951Y-21374D01*
X-32775Y-21409D01*
X-32599Y-21374D01*
X-32451Y-21274D01*
X-32351Y-21126D01*
X-32316Y-20950D01*
X-32351Y-20774D01*
X-32451Y-20626D01*
X-32599Y-20526D01*
X-32614Y-20523D01*
X-32664Y-20360D01*
X-30552Y-18248D01*
X-30500Y-18259D01*
X-30324Y-18224D01*
X-30176Y-18124D01*
X-30076Y-17976D01*
X-30041Y-17800D01*
X-30076Y-17624D01*
X-30176Y-17476D01*
X-30324Y-17376D01*
X-30500Y-17341D01*
D02*
G37*
G36*
X-51625Y-22041D02*
X-51801Y-22076D01*
X-51949Y-22176D01*
X-52049Y-22324D01*
X-52084Y-22500D01*
X-52049Y-22676D01*
X-51949Y-22824D01*
X-51801Y-22924D01*
X-51625Y-22959D01*
X-51449Y-22924D01*
X-51301Y-22824D01*
X-51201Y-22676D01*
X-51166Y-22500D01*
X-51201Y-22324D01*
X-51301Y-22176D01*
X-51449Y-22076D01*
X-51625Y-22041D01*
D02*
G37*
G36*
X-8340Y-21022D02*
X-8429Y-21034D01*
X-8606Y-21107D01*
X-8757Y-21223D01*
X-8873Y-21374D01*
X-8946Y-21551D01*
X-8958Y-21640D01*
X-8340D01*
Y-21022D01*
D02*
G37*
G36*
X-37705Y-9925D02*
X-39755D01*
Y-11975D01*
X-39495D01*
Y-12854D01*
X-40270Y-13630D01*
X-40353Y-13754D01*
X-40382Y-13900D01*
Y-15536D01*
X-41254Y-16408D01*
X-41259Y-16405D01*
X-41508Y-16301D01*
X-41776Y-16266D01*
X-42044Y-16301D01*
X-42293Y-16405D01*
X-42507Y-16569D01*
X-42671Y-16783D01*
X-42775Y-17032D01*
X-42810Y-17300D01*
X-42775Y-17568D01*
X-42671Y-17817D01*
X-42507Y-18031D01*
X-42293Y-18195D01*
X-42044Y-18299D01*
X-41776Y-18334D01*
X-41508Y-18299D01*
X-41259Y-18195D01*
X-41045Y-18031D01*
X-40881Y-17817D01*
X-40777Y-17568D01*
X-40742Y-17300D01*
X-40777Y-17032D01*
X-40783Y-17019D01*
X-39730Y-15965D01*
X-39647Y-15841D01*
X-39618Y-15695D01*
Y-14058D01*
X-38842Y-13283D01*
X-38759Y-13159D01*
X-38730Y-13012D01*
Y-11975D01*
X-37705D01*
Y-9925D01*
D02*
G37*
G36*
X-41776Y-13726D02*
X-42044Y-13761D01*
X-42293Y-13865D01*
X-42507Y-14029D01*
X-42671Y-14243D01*
X-42775Y-14492D01*
X-42810Y-14760D01*
X-42775Y-15028D01*
X-42671Y-15277D01*
X-42507Y-15491D01*
X-42293Y-15655D01*
X-42044Y-15759D01*
X-41776Y-15794D01*
X-41508Y-15759D01*
X-41259Y-15655D01*
X-41045Y-15491D01*
X-40881Y-15277D01*
X-40777Y-15028D01*
X-40742Y-14760D01*
X-40777Y-14492D01*
X-40881Y-14243D01*
X-41045Y-14029D01*
X-41259Y-13865D01*
X-41508Y-13761D01*
X-41776Y-13726D01*
D02*
G37*
G36*
X-6970Y-14996D02*
X-7238Y-15031D01*
X-7487Y-15135D01*
X-7701Y-15299D01*
X-7865Y-15513D01*
X-7969Y-15762D01*
X-8004Y-16030D01*
X-7969Y-16298D01*
X-7865Y-16547D01*
X-7701Y-16761D01*
X-7487Y-16925D01*
X-7238Y-17029D01*
X-6970Y-17064D01*
X-6702Y-17029D01*
X-6453Y-16925D01*
X-6239Y-16761D01*
X-6075Y-16547D01*
X-5971Y-16298D01*
X-5936Y-16030D01*
X-5971Y-15762D01*
X-6075Y-15513D01*
X-6239Y-15299D01*
X-6453Y-15135D01*
X-6702Y-15031D01*
X-6970Y-14996D01*
D02*
G37*
G36*
X-4430D02*
X-4698Y-15031D01*
X-4947Y-15135D01*
X-5161Y-15299D01*
X-5325Y-15513D01*
X-5429Y-15762D01*
X-5464Y-16030D01*
X-5429Y-16298D01*
X-5325Y-16547D01*
X-5161Y-16761D01*
X-4947Y-16925D01*
X-4698Y-17029D01*
X-4430Y-17064D01*
X-4162Y-17029D01*
X-3913Y-16925D01*
X-3699Y-16761D01*
X-3535Y-16547D01*
X-3431Y-16298D01*
X-3396Y-16030D01*
X-3431Y-15762D01*
X-3535Y-15513D01*
X-3699Y-15299D01*
X-3913Y-15135D01*
X-4162Y-15031D01*
X-4430Y-14996D01*
D02*
G37*
%LPD*%
D10*
X-49168Y-8881D02*
G03*
X-49094Y-8878I0J913D01*
G01*
X-23435Y-55310D02*
G03*
X-23580Y-55250I-145J-145D01*
G01*
X-21646Y-55310D02*
G03*
X-20475Y-54825I0J1656D01*
G01*
X-20225Y-47928D02*
G03*
X-20775Y-46600I-1878J0D01*
G01*
X-49094Y-8878D02*
G03*
X-49168Y-8875I-74J-910D01*
G01*
X-48523Y-9142D02*
G03*
X-49094Y-8878I-645J-645D01*
G01*
X-48299Y-9464D02*
G03*
X-48368Y-9297I-236J0D01*
G01*
X-49094Y-8878D02*
G03*
X-48523Y-8614I-74J910D01*
G01*
X-48368Y-8459D02*
G03*
X-48299Y-8292I-167J166D01*
G01*
Y-32867D02*
G03*
X-42966Y-38200I5333J0D01*
G01*
X-28431Y-38944D02*
G03*
X-30227Y-38200I-1796J-1796D01*
G01*
X-23580Y-55750D02*
G03*
X-23435Y-55690I0J205D01*
G01*
X-21646D02*
G03*
X-20206Y-55094I0J2036D01*
G01*
X-19845Y-47928D02*
G03*
X-20506Y-46331I-2258J0D01*
G01*
X-47919Y-8289D02*
G03*
X-47850Y-8456I236J0D01*
G01*
X-47695Y-8611D02*
G03*
X-47050Y-8878I645J645D01*
G01*
D02*
G03*
X-47695Y-9145I0J-913D01*
G01*
X-47850Y-9300D02*
G03*
X-47919Y-9467I167J-166D01*
G01*
Y-32867D02*
G03*
X-42966Y-37820I4953J0D01*
G01*
X-28164Y-38674D02*
G03*
X-30227Y-37820I-2063J-2066D01*
G01*
X-28162Y-38675D02*
G03*
X-28164Y-38674I-2065J-2065D01*
G01*
X-20475Y-54825D02*
G03*
X-20225Y-54221I-604J604D01*
G01*
X-20206Y-55094D02*
G03*
X-19845Y-54221I-872J872D01*
G01*
X-18482Y-15232D02*
G03*
X-19085Y-16687I1455J-1455D01*
G01*
X-18255Y-15005D02*
G03*
X-18256Y-15006I2065J-2065D01*
G01*
X-15663Y-12413D02*
G03*
X-15085Y-11018I-1394J1394D01*
G01*
X-15016Y-9722D02*
G03*
X-15085Y-9889I167J-166D01*
G01*
X-14216Y-9300D02*
G03*
X-14861Y-9567I0J-913D01*
G01*
X-15085Y-8711D02*
G03*
X-15016Y-8878I236J0D01*
G01*
X-14861Y-9033D02*
G03*
X-14216Y-9300I645J645D01*
G01*
X-18856Y-15069D02*
G03*
X-19600Y-16865I1796J-1796D01*
G01*
X-15689Y-9564D02*
G03*
X-16260Y-9300I-645J-645D01*
G01*
D02*
G03*
X-16334Y-9297I-74J-910D01*
G01*
X-15820Y-12033D02*
G03*
X-15465Y-11176I-857J857D01*
G01*
Y-9886D02*
G03*
X-15534Y-9719I-236J0D01*
G01*
X-16334Y-9303D02*
G03*
X-16260Y-9300I0J913D01*
G01*
D02*
G03*
X-15689Y-9036I-74J910D01*
G01*
X-15534Y-8881D02*
G03*
X-15465Y-8714I-167J166D01*
G01*
X-24425Y-55250D02*
X-23580D01*
X-23435Y-55310D02*
X-21646D01*
X-20225Y-54221D02*
Y-47928D01*
X-48523Y-9142D02*
X-48368Y-9297D01*
X-48523Y-8614D02*
X-48368Y-8459D01*
X-48299Y-32867D02*
Y-9464D01*
X-42966Y-38200D02*
X-30227D01*
X-28431Y-38944D02*
X-20775Y-46600D01*
X-47919Y-8289D02*
Y-5380D01*
X-24425Y-55750D02*
X-23580D01*
X-23435Y-55690D02*
X-21646D01*
X-19845Y-54221D02*
Y-47928D01*
X-47850Y-8456D02*
X-47695Y-8611D01*
X-47919Y-32867D02*
Y-9467D01*
X-47850Y-9300D02*
X-47695Y-9145D01*
X-47850Y-9300D02*
X-47850Y-9300D01*
X-42966Y-37820D02*
X-30227D01*
X-48434Y-5245D02*
Y-4475D01*
X-48299Y-8292D02*
Y-5380D01*
X-48434Y-5245D02*
X-48299Y-5380D01*
X-47919Y-5380D02*
X-47784Y-5245D01*
Y-4475D01*
X-28162Y-38675D02*
X-20506Y-46331D01*
X-15085Y-5380D02*
X-14950Y-5245D01*
Y-4475D01*
X-14475Y-9300D02*
X-14475D01*
X-15600Y-5245D02*
Y-4475D01*
X-15465Y-8714D02*
Y-5380D01*
X-15600Y-5245D02*
X-15465Y-5380D01*
X-19085Y-17400D02*
Y-16687D01*
X-18482Y-15232D02*
X-18256Y-15006D01*
X-15663Y-12413D01*
X-15085Y-11018D02*
Y-9889D01*
X-15016Y-9722D02*
X-14861Y-9567D01*
X-15085Y-8711D02*
Y-5380D01*
X-15016Y-8878D02*
X-14861Y-9033D01*
X-19600Y-16865D02*
Y-16865D01*
Y-18200D02*
Y-16865D01*
X-18856Y-15069D02*
X-15820Y-12033D01*
X-15465Y-11176D02*
Y-9886D01*
X-15689Y-9564D02*
X-15534Y-9719D01*
X-15689Y-9036D02*
X-15534Y-8881D01*
D11*
X-47850Y-9300D02*
D03*
D12*
X-41925Y-50625D02*
D03*
Y-52325D02*
D03*
X-20629Y-67279D02*
D03*
Y-68979D02*
D03*
D13*
X-48434Y-4475D02*
D03*
X-47784D02*
D03*
X-49734D02*
D03*
X-49084D02*
D03*
X-47134D02*
D03*
X-15600D02*
D03*
X-14950D02*
D03*
X-16900D02*
D03*
X-16250D02*
D03*
X-14300D02*
D03*
D14*
X-52375Y-73940D02*
D03*
Y-58140D02*
D03*
D15*
Y-66040D02*
D03*
D16*
X-28000Y-7650D02*
D03*
Y-2150D02*
D03*
X-24000D02*
D03*
Y-7650D02*
D03*
X-35000D02*
D03*
Y-2150D02*
D03*
X-31000D02*
D03*
Y-7650D02*
D03*
D17*
X-37925Y-52075D02*
D03*
X-40525D02*
D03*
D18*
X-39225Y-45825D02*
D03*
D19*
X-33750Y-52425D02*
D03*
X-33250D02*
D03*
X-32750D02*
D03*
X-32250D02*
D03*
X-31750D02*
D03*
X-31250D02*
D03*
X-30750D02*
D03*
X-30250D02*
D03*
X-29750D02*
D03*
X-29250D02*
D03*
X-28750D02*
D03*
X-28250D02*
D03*
X-27750D02*
D03*
X-27250D02*
D03*
X-26750D02*
D03*
X-26250D02*
D03*
Y-63575D02*
D03*
X-26750D02*
D03*
X-27250D02*
D03*
X-27750D02*
D03*
X-28250D02*
D03*
X-28750D02*
D03*
X-29250D02*
D03*
X-29750D02*
D03*
X-30250D02*
D03*
X-30750D02*
D03*
X-31250D02*
D03*
X-31750D02*
D03*
X-32250D02*
D03*
X-32750D02*
D03*
X-33250D02*
D03*
X-33750D02*
D03*
D20*
X-24425Y-54250D02*
D03*
Y-54750D02*
D03*
Y-56250D02*
D03*
Y-56750D02*
D03*
Y-57250D02*
D03*
Y-57750D02*
D03*
Y-58250D02*
D03*
Y-58750D02*
D03*
Y-59250D02*
D03*
Y-59750D02*
D03*
Y-60250D02*
D03*
Y-60750D02*
D03*
Y-61250D02*
D03*
Y-61750D02*
D03*
X-35575D02*
D03*
Y-61250D02*
D03*
Y-60750D02*
D03*
Y-60250D02*
D03*
Y-59750D02*
D03*
Y-59250D02*
D03*
Y-58750D02*
D03*
Y-58250D02*
D03*
Y-57750D02*
D03*
Y-57250D02*
D03*
Y-56750D02*
D03*
Y-56250D02*
D03*
Y-55750D02*
D03*
Y-55250D02*
D03*
Y-54750D02*
D03*
Y-54250D02*
D03*
X-24425Y-55250D02*
D03*
Y-55750D02*
D03*
D21*
X-8750Y-1450D02*
D03*
Y-3550D02*
D03*
X-6500Y-1450D02*
D03*
Y-3550D02*
D03*
D22*
X-49150Y-8878D02*
D03*
X-47050D02*
D03*
Y-6978D02*
D03*
X-16316Y-9300D02*
D03*
X-14216D02*
D03*
Y-7400D02*
D03*
D23*
X-49150Y-7178D02*
D03*
X-16316Y-7600D02*
D03*
D24*
X-29150Y-47075D02*
D03*
X-27450D02*
D03*
D25*
X-23802Y-67057D02*
D03*
X-22702D02*
D03*
X-25762Y-67044D02*
D03*
X-26862D02*
D03*
D26*
X-23712Y-74086D02*
D03*
X-25412D02*
D03*
D27*
X-22662Y-70858D02*
D03*
X-26462D02*
D03*
Y-68558D02*
D03*
X-22662D02*
D03*
D28*
X-22775Y-62300D02*
D03*
Y-61350D02*
D03*
X-11225Y-9575D02*
D03*
Y-8625D02*
D03*
X-12525Y-9575D02*
D03*
Y-8625D02*
D03*
X-17825Y-6425D02*
D03*
Y-7375D02*
D03*
X-31750Y-66525D02*
D03*
Y-65575D02*
D03*
X-22800Y-54675D02*
D03*
Y-53725D02*
D03*
X-28250Y-49850D02*
D03*
Y-50800D02*
D03*
X-37225Y-56775D02*
D03*
Y-57725D02*
D03*
X-50650Y-6228D02*
D03*
Y-7178D02*
D03*
D29*
X-33495Y-44825D02*
D03*
Y-45825D02*
D03*
X-4430Y-58440D02*
D03*
Y-57440D02*
D03*
X-2921Y-58440D02*
D03*
Y-57440D02*
D03*
X-18725Y-7400D02*
D03*
Y-6400D02*
D03*
X-35675Y-11450D02*
D03*
Y-12450D02*
D03*
X-51550Y-7203D02*
D03*
Y-6203D02*
D03*
X-33375Y-68700D02*
D03*
Y-67700D02*
D03*
X-45650Y-10000D02*
D03*
Y-9000D02*
D03*
Y-7975D02*
D03*
Y-6975D02*
D03*
D30*
X-38450Y-56575D02*
D03*
Y-57975D02*
D03*
X-21600Y-62850D02*
D03*
Y-61450D02*
D03*
D31*
X-31150Y-9850D02*
D03*
X-30150D02*
D03*
X-24100Y-9800D02*
D03*
X-23100D02*
D03*
X-20811D02*
D03*
X-21811D02*
D03*
Y-10700D02*
D03*
X-20811D02*
D03*
D32*
X-24075Y-10675D02*
D03*
X-23125D02*
D03*
X-38950Y-53775D02*
D03*
X-38000D02*
D03*
X-40900D02*
D03*
X-41850D02*
D03*
X-30950Y-50900D02*
D03*
X-30000D02*
D03*
D33*
X-11125Y-7500D02*
D03*
X-12525D02*
D03*
D34*
X-34150Y-12000D02*
D03*
X-32050D02*
D03*
D35*
X-39700Y-56550D02*
D03*
Y-57950D02*
D03*
D36*
X-31425Y-49800D02*
D03*
X-30025D02*
D03*
D37*
X-31850Y-16225D02*
X-31400D01*
X-35465Y-19840D02*
X-31850Y-16225D01*
X-36696Y-19840D02*
X-35465D01*
X-31400Y-16225D02*
X-28875Y-13700D01*
X-25625Y-11400D02*
X-22525D01*
X-26450Y-10575D02*
X-25625Y-11400D01*
X-32125Y-10575D02*
X-26450D01*
X-33425Y-9275D02*
X-32125Y-10575D01*
X-42175Y-9275D02*
X-33425D01*
X-45949Y-67514D02*
Y-64566D01*
X-52375Y-73940D02*
X-45949Y-67514D01*
X-52375Y-58140D02*
X-45949Y-64566D01*
X-52375Y-58140D02*
Y-54539D01*
X-47156Y-49321D01*
X-49150Y-7178D02*
Y-6500D01*
X-49734Y-5916D02*
X-49150Y-6500D01*
X-49734Y-5916D02*
Y-4475D01*
X-17850Y-6400D02*
X-17825Y-6375D01*
Y-4800D01*
Y-6425D02*
Y-6375D01*
X-18725Y-6400D02*
X-17850D01*
X-25676Y-8975D02*
X-25675Y-8974D01*
Y-7825D01*
X-25876Y-7623D02*
X-25675Y-7825D01*
X-25876Y-7623D02*
Y-6424D01*
X-45650Y-6975D02*
X-44475D01*
X-42175Y-9275D01*
X-47047Y-6975D02*
X-45650D01*
X-47134Y-6894D02*
Y-4475D01*
X-13275Y-7400D02*
X-12625D01*
X-14225D02*
X-13275D01*
X-11225Y-8625D02*
X-11125Y-8525D01*
Y-7500D01*
X-11125Y-7500D02*
X-11125Y-7500D01*
X-11125Y-7500D02*
Y-6725D01*
X-12525Y-8625D02*
Y-7500D01*
X-14300Y-7400D02*
Y-5150D01*
X-19688Y-1675D02*
X-11512D01*
X-52521D02*
X-44347D01*
X-28875Y-13700D02*
X-27925D01*
X-27300D01*
D38*
X-11858Y-37425D02*
X-8950Y-40333D01*
X-22800Y-54675D02*
X-22100D01*
X-35575Y-55250D02*
X-34200D01*
X-33925Y-54975D01*
X-32625D01*
X-12450Y-37425D02*
X-11858D01*
X-34650Y-58750D02*
X-34125Y-58225D01*
X-34125D01*
Y-57625D01*
X-32550Y-57025D02*
X-32375D01*
X-33325Y-56250D02*
X-32550Y-57025D01*
X-35575Y-56750D02*
X-33875D01*
X-33075Y-57550D01*
X-16375Y-51000D02*
Y-39175D01*
X-9000Y-38800D02*
X-7600Y-40200D01*
X-9000Y-38800D02*
Y-35480D01*
X-7600Y-40200D02*
X-5660D01*
X-4430Y-41430D01*
X-15580Y-28900D02*
X-9000Y-35480D01*
X-3045Y-41430D02*
X-2300Y-42175D01*
X-4430Y-41430D02*
X-3045D01*
X-2300Y-57889D02*
Y-42175D01*
X-37002Y-55278D02*
X-36974Y-55250D01*
X-35575D01*
X-33475Y-13400D02*
X-32650D01*
X-34275Y-14200D02*
X-33475Y-13400D01*
X-32275Y-14300D02*
X-29750Y-11775D01*
X-32675Y-14300D02*
X-32275D01*
X-33875Y-15500D02*
X-32675Y-14300D01*
X-32650Y-13400D02*
X-32050Y-12800D01*
X-36875Y-12450D02*
X-35675D01*
X-37225Y-12100D02*
X-36875Y-12450D01*
X-37225Y-12100D02*
Y-10725D01*
X-38100Y-13000D02*
X-37213Y-12113D01*
X-44524Y-33850D02*
Y-31024D01*
X-40175Y-26675D01*
X-45352Y-31085D02*
X-40142Y-25875D01*
X-46001Y-31239D02*
X-38750Y-23988D01*
X-43725Y-28468D02*
Y-26675D01*
X-46650Y-31393D02*
X-43725Y-28468D01*
X-45352Y-33077D02*
Y-31085D01*
X-40142Y-25875D02*
X-30175D01*
X-46001Y-33450D02*
Y-31239D01*
X-46650Y-33725D02*
Y-31393D01*
X-44675Y-28625D02*
Y-20700D01*
X-46475Y-30425D02*
X-44675Y-28625D01*
X-30175Y-25875D02*
X-29625Y-25325D01*
X-38776Y-31275D02*
X-22875D01*
X-41125Y-28926D02*
X-38776Y-31275D01*
X-36275Y-24950D02*
Y-23575D01*
X-36950Y-23755D02*
X-31375Y-18180D01*
X-36950Y-23775D02*
Y-23755D01*
X-19775Y-30100D02*
X-19425Y-30450D01*
X-35275Y-30100D02*
X-19775D01*
X-20272Y-30450D02*
X-18348Y-32373D01*
X-18150Y-34700D02*
Y-32572D01*
X-35825Y-30450D02*
X-20272D01*
X-15725Y-29250D02*
X-9350Y-35625D01*
X-26075Y-29250D02*
X-15725D01*
X-26850Y-28475D02*
X-26075Y-29250D01*
X-25930Y-28900D02*
X-15580D01*
X-26450Y-28380D02*
X-25930Y-28900D01*
X-28350Y-20850D02*
X-25675Y-18175D01*
X-28350Y-28475D02*
Y-20850D01*
X-28913Y-27525D02*
Y-23688D01*
X-30600Y-22000D02*
X-28913Y-23688D01*
X-25475Y-15125D02*
X-22950D01*
X-30600Y-20250D02*
X-25475Y-15125D01*
X-30600Y-22000D02*
Y-20250D01*
X-36275Y-23575D02*
X-30500Y-17800D01*
X-31375Y-18180D02*
Y-17800D01*
X-28650Y-16875D02*
X-27950Y-16175D01*
X-26850Y-10975D02*
X-25425Y-12400D01*
X-32475Y-10975D02*
X-26850D01*
X-33625Y-9825D02*
X-32475Y-10975D01*
X-36325Y-9825D02*
X-33625D01*
X-37225Y-10725D02*
X-36325Y-9825D01*
X-15275Y-56500D02*
Y-37575D01*
X-18150Y-34700D02*
X-15275Y-37575D01*
X-36500Y-28875D02*
X-35275Y-30100D01*
X-36500Y-29775D02*
X-35825Y-30450D01*
X-22875Y-31275D02*
X-22550Y-31600D01*
X-9350Y-39050D02*
X-6970Y-41430D01*
X-9350Y-39050D02*
Y-35625D01*
X-45850Y-34525D02*
X-43950D01*
X-40900Y-30725D02*
X-39450Y-32175D01*
X-25750D01*
X-42150Y-32700D02*
X-20225D01*
X-42550Y-33100D02*
X-22425D01*
X-43800Y-31050D02*
X-42150Y-32700D01*
X-43800Y-31850D02*
X-42550Y-33100D01*
X-42925Y-33525D02*
X-22925D01*
X-43325Y-33925D02*
X-23020D01*
X-43800Y-32650D02*
X-42925Y-33525D01*
X-43800Y-33450D02*
X-43325Y-33925D01*
X-22925Y-33525D02*
X-22400Y-34050D01*
X-22425Y-33100D02*
X-22125Y-33400D01*
X-22400Y-34050D02*
X-20350D01*
X-23020Y-33925D02*
X-21895Y-35050D01*
X-21350D01*
X-36425Y-35675D02*
X-24675D01*
X-35975Y-35125D02*
X-25900D01*
X-23100Y-28375D02*
X-10604D01*
X-46650Y-33725D02*
X-45850Y-34525D01*
X-51100Y-14650D02*
X-50750Y-14300D01*
X-51100Y-20525D02*
Y-14650D01*
Y-20525D02*
X-50050Y-21575D01*
X-31850Y-66525D02*
X-31232D01*
X-31750Y-67700D02*
Y-66525D01*
X-33375Y-69425D02*
Y-68700D01*
Y-67700D02*
Y-66825D01*
X-34025Y-65250D02*
X-33250Y-64475D01*
X-34025Y-72375D02*
Y-65250D01*
Y-72375D02*
X-30675Y-75725D01*
X-18365Y-56750D02*
X-16950Y-55335D01*
X-10604Y-28375D02*
X-7504Y-25275D01*
X-23500Y-27975D02*
X-23100Y-28375D01*
X-52850Y-31000D02*
Y-28725D01*
X-8750Y-3550D02*
X-5332Y-6968D01*
Y-9032D02*
Y-6968D01*
X-6350Y-10050D02*
X-5332Y-9032D01*
X-27200Y-65225D02*
X-26750Y-64775D01*
Y-63575D01*
X-7504Y-25275D02*
X-5025D01*
X-7700Y-24725D02*
X-5300D01*
X-10700Y-27725D02*
X-7700Y-24725D01*
X-22625Y-27725D02*
X-10700D01*
X-54300Y-31050D02*
X-52700Y-32650D01*
X-29250Y-52425D02*
Y-50275D01*
X-29075Y-50100D01*
Y-49725D01*
X-28750Y-50350D02*
X-28250Y-49850D01*
X-28750Y-52425D02*
Y-50350D01*
X-29250Y-47075D02*
Y-47050D01*
X-29075Y-49725D02*
X-29050Y-49700D01*
Y-47075D01*
X-27350Y-49775D02*
Y-47075D01*
Y-50350D02*
Y-49775D01*
X-32275Y-15200D02*
X-28550Y-11475D01*
X-32050Y-12800D02*
Y-12000D01*
X-23150Y-27200D02*
X-22625Y-27725D01*
X-23500Y-27975D02*
Y-25850D01*
X-23525Y-21875D02*
X-23075Y-21425D01*
X-25525Y-23840D02*
Y-22575D01*
X-25025Y-22075D01*
X-25875Y-22275D02*
X-25675Y-22075D01*
X-27575Y-20725D02*
X-25025Y-18175D01*
X-27575Y-26175D02*
Y-20725D01*
X-40875Y-54750D02*
X-35575D01*
X-41925Y-53775D02*
Y-52325D01*
X-41850Y-53775D02*
X-40875Y-54750D01*
X-37525Y-54250D02*
X-35575D01*
X-37925Y-53850D02*
Y-52075D01*
Y-53850D02*
X-37525Y-54250D01*
X-38000Y-53775D02*
X-37925Y-53850D01*
X-39225Y-45825D02*
Y-43775D01*
X-27800Y-50800D02*
X-27350Y-50350D01*
X-28250Y-50800D02*
X-27800D01*
X-30000Y-50900D02*
Y-49826D01*
X-30000Y-50900D02*
X-29750Y-51150D01*
X-30000Y-50900D02*
X-30000Y-50900D01*
X-30027Y-50874D02*
X-30000Y-50900D01*
X-29750Y-52425D02*
Y-51150D01*
X-30027Y-50874D02*
Y-48977D01*
X-28750Y-52425D02*
X-28750Y-52425D01*
X-27750Y-52425D02*
Y-51375D01*
X-30027Y-48977D02*
X-30025Y-48975D01*
X-28250Y-49850D02*
Y-49100D01*
Y-52425D02*
Y-50800D01*
X-30250Y-53700D02*
Y-52425D01*
X-35575Y-56250D02*
X-33325D01*
X-33250Y-54400D02*
Y-53825D01*
X-32750Y-53325D01*
Y-52425D01*
X-32250Y-53875D02*
Y-52425D01*
X-40700Y-56550D02*
X-39700D01*
X-40725Y-57950D02*
X-39700D01*
X-37188Y-57763D02*
X-37175Y-57750D01*
X-38450Y-57973D02*
X-38301Y-57825D01*
X-37325D01*
X-37225Y-57725D01*
X-18725Y-8825D02*
Y-7400D01*
X-9925Y-11045D02*
Y-9200D01*
Y-11050D02*
Y-11045D01*
X-10325Y-11450D02*
X-9925Y-11050D01*
X-10625Y-10950D02*
Y-9225D01*
X-16100Y-16425D02*
X-10625Y-10950D01*
X-12525Y-9775D02*
X-11875D01*
X-11225D01*
X-21099Y-9000D02*
X-20811Y-9288D01*
X-23101Y-9000D02*
X-21099D01*
X-23250Y-12075D02*
X-21334D01*
X-24125Y-12950D02*
X-23250Y-12075D01*
X-21811Y-10700D02*
X-20800Y-11711D01*
Y-12975D02*
Y-11711D01*
X-22950Y-15125D02*
X-20800Y-12975D01*
X-25650Y-12950D02*
X-24125D01*
X-27125Y-11475D02*
X-25650Y-12950D01*
X-28550Y-11475D02*
X-27125D01*
X-25425Y-12400D02*
X-24625D01*
X-5025Y-25275D02*
X-4430Y-24680D01*
Y-23010D01*
X-10305Y-11425D02*
X-9925Y-11045D01*
X-45650Y-10000D02*
X-44825D01*
X-18725Y-7400D02*
X-17850D01*
X-24000Y-9700D02*
Y-7650D01*
X-27276Y-4975D02*
Y-4951D01*
X-30800Y-1525D02*
X-30075D01*
X-31000Y-1725D02*
X-30800Y-1525D01*
X-31000Y-2150D02*
Y-1725D01*
X-35000Y-2150D02*
X-34125D01*
X-36625Y-11450D02*
X-35675D01*
X-34700D01*
X-34150Y-12000D01*
X-50650Y-8100D02*
Y-7178D01*
X-28000Y-7650D02*
Y-2150D01*
X-31232Y-66525D02*
X-31182Y-66475D01*
X-28626Y-61392D02*
Y-56464D01*
Y-61392D02*
X-27750Y-62268D01*
X-27711Y-61722D02*
Y-56464D01*
Y-61722D02*
X-27250Y-62183D01*
X-27750Y-63575D02*
Y-62268D01*
X-27250Y-63575D02*
Y-62183D01*
X-30150Y-9850D02*
X-29300D01*
X-31000Y-9700D02*
Y-7650D01*
X-45650Y-9000D02*
X-44775D01*
X-45650D02*
Y-7975D01*
X-50659Y-6219D02*
Y-4800D01*
X-50675Y-6203D02*
X-50659Y-6219D01*
X-51550Y-6203D02*
X-50675D01*
X-50650Y-7178D02*
X-49150D01*
X-51525D02*
X-50650D01*
X-51550Y-7203D02*
X-51525Y-7178D01*
X-49084Y-5700D02*
Y-4475D01*
X-23125Y-10675D02*
X-21836D01*
X-20811Y-9800D02*
Y-9288D01*
X-23125Y-9825D02*
X-23050Y-9900D01*
X-23100Y-9800D02*
X-21911D01*
X-38450Y-56576D02*
X-38326Y-56700D01*
X-12625Y-8725D02*
Y-8625D01*
X-24925Y-10675D02*
X-24075D01*
X-35575Y-58750D02*
X-34650D01*
X-36825D02*
X-36375Y-58300D01*
X-35625D01*
X-35575Y-58250D01*
X-23725Y-18825D02*
X-22100Y-20450D01*
X-23700Y-19475D02*
X-22575Y-20600D01*
X-11225Y-8625D02*
X-10625Y-9225D01*
X-15275Y-57750D02*
X-14525Y-58500D01*
X-36825Y-56950D02*
X-36525Y-57250D01*
X-36975Y-56950D02*
X-36825D01*
X-37225Y-56700D02*
X-36975Y-56950D01*
X-36525Y-57250D02*
X-35575D01*
X-24425Y-57750D02*
X-18504D01*
X-35575Y-60250D02*
X-34350D01*
X-36850Y-59750D02*
X-35575D01*
X-36875Y-61750D02*
X-35575D01*
X-6500Y-3550D02*
X-2800Y-7250D01*
X-31150Y-9850D02*
X-31000Y-9700D01*
X-7600Y-1518D02*
X-6470D01*
X-8756D02*
X-7600D01*
X-31000Y-7650D02*
Y-2150D01*
X-41925Y-53775D02*
X-41925Y-53775D01*
X-40525Y-52075D02*
Y-51075D01*
X-40975Y-50625D02*
X-40525Y-51075D01*
X-41925Y-50625D02*
X-40975D01*
X-37925Y-52075D02*
X-37925Y-52075D01*
X-40825Y-53775D02*
X-39925D01*
X-39025D01*
X-38890Y-95570D02*
X-37575Y-94255D01*
X-34500Y-12350D02*
X-34150Y-12000D01*
X-35000Y-7650D02*
Y-2150D01*
X-23125Y-10675D02*
Y-9825D01*
X-24925Y-1500D02*
X-24300D01*
X-24000Y-1800D01*
Y-2150D02*
Y-1800D01*
Y-7650D02*
Y-2150D01*
X-24100Y-9800D02*
X-24000Y-9700D01*
X-25025Y-19475D02*
X-23700D01*
X-6970Y-41430D02*
X-5825Y-42575D01*
X-4430Y-76990D02*
X-2300Y-74860D01*
X-36850Y-60750D02*
X-35575D01*
X-18501Y-57750D02*
X-15275D01*
X-6970Y-76990D02*
X-5680Y-75700D01*
X-37175Y-57750D02*
X-35575D01*
X-31270Y-95570D02*
X-30025Y-94325D01*
X-5825Y-42575D02*
X-3180D01*
X-30025Y-94325D02*
Y-92475D01*
X-39699Y-57973D02*
X-38450D01*
X-14400Y-57250D02*
X-13945Y-56795D01*
X-14400Y-57250D02*
X-13970Y-57680D01*
X-5650Y-68150D02*
X-4430Y-69370D01*
X-3180Y-42575D02*
X-2743Y-43012D01*
X-5680Y-75700D02*
X-3742D01*
X-2743Y-74701D01*
X-37575Y-94255D02*
Y-85852D01*
X-27250Y-53691D02*
Y-52425D01*
X-24917Y-94297D02*
Y-90195D01*
X-26190Y-95570D02*
X-24917Y-94297D01*
X-52375Y-66040D02*
X-49759D01*
X-52375D02*
Y-63424D01*
Y-68656D02*
Y-66040D01*
X-30683Y-57125D02*
X-27250Y-53691D01*
X-36350Y-95570D02*
X-35250Y-94470D01*
X-21110Y-95570D02*
X-19812Y-94272D01*
X-30750Y-63575D02*
Y-62265D01*
X-2921Y-58510D02*
X-2300Y-57889D01*
X-2921Y-57340D02*
Y-56312D01*
X-4430Y-57340D02*
Y-56312D01*
X-2743Y-55169D02*
Y-43012D01*
X-21800Y-10700D02*
Y-9900D01*
X-38450Y-56576D02*
Y-55575D01*
X-38326Y-56700D02*
X-37225D01*
X-33875Y-55750D02*
X-33625Y-55500D01*
X-35575Y-55750D02*
X-33875D01*
X-35575Y-59250D02*
X-34225D01*
X-33650Y-58675D01*
X-28750Y-63575D02*
X-28740Y-63585D01*
X-28250Y-69375D02*
Y-63575D01*
X-34500Y-73770D02*
X-31270Y-77000D01*
X-24425Y-61250D02*
X-22875D01*
X-22775Y-61350D01*
X-21701D01*
X-21600Y-61451D01*
X-24425Y-60750D02*
X-20600D01*
X-21600Y-61451D02*
X-20652D01*
X-22800Y-53725D02*
X-22100D01*
X-31750Y-65642D02*
Y-64800D01*
Y-63575D01*
X-35575Y-61250D02*
X-34175D01*
X-32650Y-59725D01*
X-24425Y-62300D02*
Y-61750D01*
Y-62300D02*
X-22775D01*
X-35250Y-94470D02*
Y-80815D01*
X-31270Y-93030D02*
Y-77000D01*
X-26190Y-93030D02*
Y-90068D01*
X-34524Y-88766D02*
Y-76276D01*
X-32175Y-90087D02*
Y-77756D01*
X-35037Y-74894D02*
X-32175Y-77756D01*
X-29250Y-22050D02*
Y-20425D01*
X-24800Y-15975D01*
X-22100D01*
X-24375Y-20775D02*
X-23875Y-21275D01*
X-23150Y-27200D02*
Y-25625D01*
X-35450Y-75350D02*
X-34524Y-76276D01*
X-35450Y-75350D02*
Y-63300D01*
X-31675Y-59525D01*
X-34500Y-64000D02*
X-34075Y-63575D01*
X-33750D01*
X-35037Y-74894D02*
Y-63513D01*
X-30683Y-59158D01*
Y-57125D01*
X-20811Y-10700D02*
X-20450Y-11061D01*
X-27175Y-25600D02*
X-26850Y-25925D01*
X-27175Y-25600D02*
Y-20975D01*
X-26325Y-20125D01*
X-26800Y-25315D02*
X-26450Y-25665D01*
X-26800Y-25315D02*
Y-21250D01*
X-25675Y-20125D01*
X-25875Y-24100D02*
Y-22275D01*
Y-24100D02*
X-25475Y-24500D01*
Y-27175D02*
Y-24500D01*
X-25025Y-23800D02*
Y-22725D01*
X-54300Y-31050D02*
Y-14975D01*
X-50050Y-24025D02*
Y-21575D01*
X-24425Y-57250D02*
X-14400D01*
X-24425Y-54250D02*
X-23325D01*
X-22800Y-53725D01*
X-24425Y-54750D02*
X-22875D01*
X-24425Y-56750D02*
X-18365D01*
X-18600Y-56250D02*
X-17450Y-55100D01*
X-24425Y-56250D02*
X-18600D01*
X-44675Y-20700D02*
X-44200Y-20225D01*
X-26825Y-88288D02*
X-24917Y-90195D01*
X-27300Y-88958D02*
X-26190Y-90068D01*
X-26750Y-61525D02*
Y-52425D01*
X-26250Y-61450D02*
Y-52425D01*
Y-61450D02*
X-24599Y-63101D01*
X-31182Y-66475D02*
Y-64516D01*
X-34500Y-73770D02*
Y-64000D01*
X-33375Y-66825D02*
Y-65150D01*
X-32563Y-66142D02*
Y-64863D01*
X-33250Y-64475D02*
Y-63575D01*
X-33375Y-65150D02*
X-32750Y-64525D01*
Y-63575D01*
X-32563Y-64863D02*
X-32250Y-64550D01*
Y-63575D01*
X-31250Y-64449D02*
X-31182Y-64516D01*
X-31250Y-64449D02*
Y-63575D01*
X-30950Y-50900D02*
Y-50488D01*
X-30700Y-50238D01*
Y-49828D01*
X-30728Y-49800D02*
X-30700Y-49828D01*
X-14700Y-26800D02*
X-14375Y-26475D01*
X-22600Y-26800D02*
X-14700D01*
X-22100Y-22250D02*
Y-20450D01*
Y-22250D02*
X-18150Y-26200D01*
X-23875Y-25475D02*
X-23500Y-25850D01*
X-23525Y-25250D02*
X-23150Y-25625D01*
X-23875Y-25475D02*
Y-21275D01*
X-23525Y-25250D02*
Y-21875D01*
X-22575Y-23050D02*
X-19425Y-26200D01*
X-22575Y-23050D02*
Y-20600D01*
X-19450Y-21575D02*
X-18950Y-22075D01*
X-20275Y-22800D02*
X-16875Y-26200D01*
X-23525Y-17250D02*
X-20275Y-20500D01*
Y-22800D02*
Y-20500D01*
X-19875Y-21925D02*
X-15600Y-26200D01*
X-20450Y-18730D02*
Y-11061D01*
X-23525Y-16625D02*
X-23250D01*
X-19875Y-20000D01*
Y-21925D02*
Y-20000D01*
X-19450Y-21575D02*
Y-19730D01*
X-20450Y-18730D02*
X-19450Y-19730D01*
X-13945Y-56795D02*
Y-36280D01*
X-15600Y-34625D02*
X-13945Y-36280D01*
X-14525Y-55975D02*
Y-36950D01*
X-16875Y-34600D02*
X-14525Y-36950D01*
X-25025Y-23800D02*
X-24675Y-24150D01*
X-25525Y-23840D02*
X-25050Y-24315D01*
X-25750Y-28200D02*
X-25050Y-27500D01*
Y-24315D01*
X-24675Y-28100D02*
Y-24150D01*
X-26850Y-28475D02*
Y-25925D01*
X-26450Y-28380D02*
Y-25665D01*
X-14375Y-26475D02*
Y-18375D01*
X-14475Y-16875D02*
X-6350Y-8750D01*
X-31025Y-54075D02*
X-30975Y-54025D01*
X-31675Y-59525D02*
Y-53750D01*
X-31250Y-53325D01*
Y-52425D01*
X-31025Y-53975D02*
Y-53600D01*
X-30750Y-53325D01*
Y-52425D01*
X-28925Y-42475D02*
Y-42475D01*
X-26750Y-52425D02*
Y-51025D01*
X-26250Y-52425D02*
Y-51075D01*
X-31989Y-41050D02*
X-29525D01*
X-31450Y-40425D02*
X-29500D01*
X-2800Y-7250D02*
X-1200D01*
X-50550Y-38600D02*
Y-33300D01*
X-52850Y-31000D02*
X-50550Y-33300D01*
X-31425Y-49800D02*
Y-48900D01*
Y-49800D02*
X-30728D01*
X-33500Y-44820D02*
Y-44000D01*
Y-44820D02*
X-33495Y-44825D01*
Y-47125D02*
Y-45825D01*
X-27120Y-37275D02*
X-26944D01*
X-26174Y-36505D01*
X-25850Y-37075D02*
X-25750Y-37175D01*
X-25850Y-37275D02*
X-17450Y-45675D01*
Y-55100D02*
Y-45675D01*
X-25526Y-36505D02*
X-16950Y-45081D01*
X-26174Y-36505D02*
X-25526D01*
X-16950Y-55335D02*
Y-45081D01*
X-25750Y-27450D02*
X-25475Y-27175D01*
X-31650Y-48675D02*
X-31625D01*
X-31650D02*
X-31425Y-48900D01*
X-31625Y-50900D02*
X-30950D01*
X-32225Y-51075D02*
Y-47125D01*
Y-51075D02*
X-31750Y-51550D01*
Y-52425D02*
Y-51550D01*
X-33495Y-47780D02*
Y-47125D01*
Y-47780D02*
X-33250Y-48025D01*
Y-52425D02*
Y-48025D01*
X-3625Y-56051D02*
X-2743Y-55169D01*
Y-74701D02*
Y-60227D01*
X-4485Y-58485D02*
X-2743Y-60227D01*
X-4485Y-58485D02*
X-3625Y-57625D01*
Y-56051D01*
X-2300Y-74860D02*
Y-59131D01*
X-2921Y-58510D02*
X-2300Y-59131D01*
X-22775Y-62300D02*
X-22650Y-62175D01*
X-27750Y-51375D02*
X-25350Y-48975D01*
Y-46050D01*
X-28925Y-42475D02*
X-25350Y-46050D01*
X-26750Y-51025D02*
X-24925Y-49200D01*
Y-45650D01*
X-29525Y-41050D02*
X-24925Y-45650D01*
X-26250Y-51075D02*
X-24475Y-49300D01*
Y-45450D01*
X-29500Y-40425D02*
X-24475Y-45450D01*
X-14375Y-18375D02*
X-7600Y-11600D01*
X-3350D01*
X-2700Y-12250D01*
X-38100Y-15896D02*
X-36696Y-17300D01*
X-38100Y-15896D02*
Y-13000D01*
X-38750Y-23988D02*
Y-22700D01*
X-34975Y-20075D02*
X-31775Y-16875D01*
X-28650D01*
X-34975Y-20500D02*
Y-20075D01*
X-37175Y-22700D02*
X-34975Y-20500D01*
X-38750Y-22700D02*
X-37175D01*
X-30028Y-92472D02*
X-30025Y-92475D01*
X-30028Y-92472D02*
Y-76372D01*
X-30675Y-75725D02*
X-30028Y-76372D01*
X-30750Y-74729D02*
Y-63575D01*
X-27300Y-88958D02*
Y-78179D01*
X-30250Y-74442D02*
X-26825Y-77867D01*
Y-88288D02*
Y-77867D01*
X-23650Y-95570D02*
X-22347Y-94267D01*
Y-91466D01*
X-26750Y-61525D02*
X-25049Y-63226D01*
X-30750Y-74729D02*
X-27300Y-78179D01*
X-29250Y-70625D02*
X-29225Y-70650D01*
X-29250Y-70625D02*
Y-63575D01*
X-30250Y-74442D02*
Y-63575D01*
X-29775Y-63600D02*
X-29750Y-63575D01*
X-29775Y-71575D02*
X-29425Y-71925D01*
X-29775Y-71575D02*
Y-63600D01*
X-28250Y-69375D02*
X-27975Y-69650D01*
X-28740Y-69660D02*
Y-63585D01*
Y-69660D02*
X-28526Y-69874D01*
Y-74450D02*
Y-69874D01*
X-27975Y-73225D02*
Y-69650D01*
X-26551Y-70858D02*
X-26462D01*
X-27607Y-69803D02*
X-26551Y-70858D01*
X-27607Y-69803D02*
Y-67666D01*
X-26984Y-67044D01*
X-27200D02*
Y-65225D01*
Y-67044D02*
X-26984D01*
X-26862D01*
X-22702Y-67057D02*
Y-66476D01*
Y-67057D02*
X-20851D01*
X-20629Y-67279D01*
X-22241Y-68979D02*
X-20629D01*
X-22662Y-68558D02*
X-22241Y-68979D01*
X-19975Y-62275D02*
Y-61375D01*
X-20600Y-60750D02*
X-19975Y-61375D01*
X-24425Y-59250D02*
X-20000D01*
X-33807Y-93027D02*
Y-79527D01*
X-33810Y-93030D02*
X-33807Y-93027D01*
X-24425Y-59750D02*
X-24400Y-59725D01*
X-20275D01*
X-33810Y-95570D02*
X-32563Y-94323D01*
Y-92100D01*
X-33147Y-91516D02*
X-32563Y-92100D01*
X-33147Y-91516D02*
Y-78283D01*
X-24425Y-60250D02*
X-20500D01*
X-29660Y-39725D02*
X-24025Y-45360D01*
X-30775Y-39725D02*
X-29660D01*
X-25550Y-58750D02*
X-24425D01*
X-25775Y-58525D02*
X-25550Y-58750D01*
X-25775Y-58525D02*
Y-51250D01*
X-24025Y-49500D02*
Y-45360D01*
X-25775Y-51250D02*
X-24025Y-49500D01*
X-24425Y-58750D02*
X-19725D01*
X-38900Y-93020D02*
X-38890Y-93030D01*
X-38887Y-93027D02*
Y-84610D01*
X-24425Y-58250D02*
X-19550D01*
X-36350Y-93030D02*
Y-83464D01*
X-14525Y-61815D02*
Y-58500D01*
Y-61815D02*
X-6970Y-69370D01*
X-13970Y-61723D02*
Y-57680D01*
Y-61723D02*
X-7543Y-68150D01*
X-5650D01*
X-23038Y-63729D02*
X-19442D01*
X-16280Y-66891D01*
Y-85452D02*
Y-66891D01*
X-23774Y-63881D02*
X-23245Y-64411D01*
X-19619D01*
X-16848Y-67182D01*
Y-84456D02*
Y-67182D01*
X-25392Y-74086D02*
Y-72665D01*
X-23692Y-90122D02*
Y-74086D01*
Y-90122D02*
X-22347Y-91466D01*
X-24599Y-64317D02*
Y-63101D01*
Y-64317D02*
X-23821Y-65095D01*
X-19871D01*
X-25049Y-64670D02*
Y-63226D01*
X-19871Y-65095D02*
X-17426Y-67540D01*
X-21110Y-88717D02*
X-16848Y-84456D01*
X-21110Y-93030D02*
Y-88717D01*
X-19812Y-94272D02*
Y-88999D01*
X-16272Y-85460D01*
X-16280Y-85452D02*
X-16272Y-85460D01*
X-17426Y-80815D02*
Y-67540D01*
X-15796Y-88795D02*
Y-66454D01*
X-19975Y-62275D02*
X-15796Y-66454D01*
X-15225Y-82070D02*
Y-65525D01*
X-20500Y-60250D02*
X-15225Y-65525D01*
X-14567Y-78275D02*
Y-65433D01*
X-20275Y-59725D02*
X-14567Y-65433D01*
X-13850Y-79524D02*
Y-65400D01*
X-20000Y-59250D02*
X-13850Y-65400D01*
X-13225Y-84606D02*
Y-65250D01*
X-19725Y-58750D02*
X-13225Y-65250D01*
X-12600Y-83464D02*
Y-65200D01*
X-19550Y-58250D02*
X-12600Y-65200D01*
X-18188Y-84429D02*
Y-67612D01*
X-19611Y-85852D02*
X-18188Y-84429D01*
X-23802Y-69898D02*
Y-67057D01*
Y-69898D02*
X-22837Y-70863D01*
X-22666D01*
X-25392Y-72665D02*
X-24679Y-71953D01*
X-26462Y-68558D02*
X-26325D01*
X-25275Y-69608D01*
X-26325Y-68558D02*
X-25762D01*
Y-67044D01*
X-26250Y-64551D02*
Y-63575D01*
Y-64551D02*
X-24679Y-66122D01*
Y-71953D02*
Y-66122D01*
Y-66103D02*
X-23075D01*
X-22702Y-66476D01*
X-25049Y-64670D02*
X-24121Y-65598D01*
X-20202D01*
X-18188Y-67612D01*
X-22650Y-62175D02*
X-22275D01*
X-21600Y-62850D01*
D39*
X-35050Y-52425D02*
X-33750D01*
X-38650Y-48825D02*
X-35050Y-52425D01*
X-42700Y-48825D02*
X-38650D01*
X-45736Y-51861D02*
X-42700Y-48825D01*
X-47156Y-51861D02*
X-45736D01*
D40*
X-41575Y-17270D02*
X-40000Y-15695D01*
Y-13900D01*
X-39112Y-13012D01*
Y-11332D01*
X-38730Y-10950D01*
D41*
X-41925Y-51475D02*
D03*
X-20629Y-68129D02*
D03*
D42*
X-47284Y-1675D02*
D03*
X-49584D02*
D03*
X-14450D02*
D03*
X-16750D02*
D03*
D43*
X-24562Y-74086D02*
D03*
D44*
X-44784Y-1675D02*
D03*
X-52084D02*
D03*
X-11950D02*
D03*
X-19250D02*
D03*
D45*
X-50659Y-4800D02*
D03*
X-13375D02*
D03*
D46*
X-46209D02*
D03*
X-17825D02*
D03*
D47*
X-37055Y-66550D02*
D03*
X-6970Y-16030D02*
D03*
X-4430D02*
D03*
Y-79530D02*
D03*
X-6970D02*
D03*
X-4430Y-82070D02*
D03*
X-6970D02*
D03*
X-4430Y-84610D02*
D03*
X-6970D02*
D03*
Y-74450D02*
D03*
Y-71910D02*
D03*
X-4430D02*
D03*
X-6970Y-69370D02*
D03*
X-4430D02*
D03*
X-6970Y-66830D02*
D03*
X-4430D02*
D03*
Y-74450D02*
D03*
X-6970Y-41430D02*
D03*
X-4430D02*
D03*
Y-43970D02*
D03*
X-6970D02*
D03*
X-4430Y-46510D02*
D03*
X-6970D02*
D03*
X-4430Y-49050D02*
D03*
X-6970D02*
D03*
Y-38890D02*
D03*
Y-36350D02*
D03*
X-4430D02*
D03*
X-6970Y-33810D02*
D03*
X-4430D02*
D03*
X-6970Y-31270D02*
D03*
X-4430D02*
D03*
Y-38890D02*
D03*
X-28730Y-95570D02*
D03*
X-21110D02*
D03*
Y-93030D02*
D03*
X-23650Y-95570D02*
D03*
Y-93030D02*
D03*
X-26190Y-95570D02*
D03*
Y-93030D02*
D03*
X-28730D02*
D03*
X-36350D02*
D03*
X-47156Y-51861D02*
D03*
X-41776Y-14760D02*
D03*
D48*
X-39595Y-66550D02*
D03*
D49*
X-6970Y-13490D02*
D03*
Y-64290D02*
D03*
Y-28730D02*
D03*
X-47156Y-49321D02*
D03*
X-41776Y-19840D02*
D03*
D50*
X-4430Y-13490D02*
D03*
Y-87150D02*
D03*
X-6970Y-76990D02*
D03*
X-4430D02*
D03*
X-6970Y-87150D02*
D03*
X-4430Y-64290D02*
D03*
Y-51590D02*
D03*
X-6970D02*
D03*
X-4430Y-28730D02*
D03*
X-18570Y-95570D02*
D03*
X-41430Y-93030D02*
D03*
X-38890D02*
D03*
Y-95570D02*
D03*
X-36350D02*
D03*
X-33810Y-93030D02*
D03*
Y-95570D02*
D03*
X-31270D02*
D03*
Y-93030D02*
D03*
X-41430Y-95570D02*
D03*
X-47156Y-54401D02*
D03*
X-41776Y-17300D02*
D03*
X-36696Y-14760D02*
D03*
Y-17300D02*
D03*
D51*
X-38730Y-10950D02*
D03*
X-41270D02*
D03*
X-18570Y-93030D02*
D03*
D52*
X-8240Y-21740D02*
D03*
X-5700Y-23010D02*
D03*
X-6970D02*
D03*
Y-21740D02*
D03*
X-5700D02*
D03*
X-4430D02*
D03*
X-3160D02*
D03*
D53*
X-8240Y-23010D02*
D03*
X-3160D02*
D03*
X-4430D02*
D03*
D54*
X-2350Y-2350D02*
D03*
X-57650D02*
D03*
X-2350Y-97650D02*
D03*
X-57650D02*
D03*
D55*
X-33495Y-47125D02*
D03*
X-32225D02*
D03*
X-36035D02*
D03*
X-25850Y-37275D02*
D03*
X-27120D02*
D03*
D56*
X-36696Y-19840D02*
D03*
D57*
X-26725Y-8150D02*
D03*
Y-7350D02*
D03*
X-8950Y-40333D02*
D03*
X-22100Y-54675D02*
D03*
X-32625Y-54975D02*
D03*
X-12450Y-37425D02*
D03*
X-34125Y-57625D02*
D03*
X-32375Y-57025D02*
D03*
X-33075Y-57550D02*
D03*
X-16375Y-51000D02*
D03*
Y-39175D02*
D03*
X-37002Y-55278D02*
D03*
X-33875Y-15500D02*
D03*
X-34275Y-14200D02*
D03*
X-38525Y-27025D02*
D03*
X-41125Y-28926D02*
D03*
X-19425Y-30450D02*
D03*
X-18150Y-32572D02*
D03*
X-38400Y-30650D02*
D03*
X-43950Y-34525D02*
D03*
X-44524Y-33850D02*
D03*
X-28350Y-28475D02*
D03*
X-36500Y-29775D02*
D03*
X-43800Y-31050D02*
D03*
Y-31850D02*
D03*
Y-32650D02*
D03*
Y-33450D02*
D03*
X-36500Y-28875D02*
D03*
X-45352Y-33077D02*
D03*
X-31750Y-67700D02*
D03*
X-33375Y-69425D02*
D03*
X-15275Y-56500D02*
D03*
X-8550Y-28850D02*
D03*
X-23100Y-28375D02*
D03*
X-46550Y-23900D02*
D03*
X-27200Y-65225D02*
D03*
X-26075Y-24675D02*
D03*
X-58075Y-14250D02*
D03*
X-18950Y-22075D02*
D03*
X-50050Y-24025D02*
D03*
X-36425Y-35675D02*
D03*
X-51625Y-22500D02*
D03*
X-50900Y-21825D02*
D03*
X-22625Y-27725D02*
D03*
X-22600Y-26800D02*
D03*
X-35975Y-35125D02*
D03*
X-39225Y-43775D02*
D03*
X-28925Y-42475D02*
D03*
X-30025Y-48975D02*
D03*
X-28250Y-49100D02*
D03*
X-31025Y-53975D02*
D03*
X-32250Y-53875D02*
D03*
X-31989Y-41050D02*
D03*
X-40700Y-56550D02*
D03*
X-18725Y-8825D02*
D03*
X-11875Y-9775D02*
D03*
X-23325Y-4425D02*
D03*
X-23101Y-9000D02*
D03*
X-24625Y-12400D02*
D03*
X-21334Y-12075D02*
D03*
X-22100Y-15975D02*
D03*
X-17100Y-15300D02*
D03*
X-12925Y-25750D02*
D03*
Y-24525D02*
D03*
X-5300Y-24725D02*
D03*
X-12925Y-26975D02*
D03*
X-29522Y-4150D02*
D03*
X-58400Y-38100D02*
D03*
X-52025Y-15975D02*
D03*
X-24050Y-26400D02*
D03*
X-40900Y-30725D02*
D03*
X-44825Y-10000D02*
D03*
X-25676Y-8975D02*
D03*
X-25876Y-6424D02*
D03*
X-28751Y-4148D02*
D03*
X-27276Y-4975D02*
D03*
X-29125Y-5675D02*
D03*
X-32775Y-20950D02*
D03*
X-55625Y-12125D02*
D03*
X-50650Y-8100D02*
D03*
X-54300Y-14975D02*
D03*
X-51650Y-26250D02*
D03*
X-49675Y-10850D02*
D03*
X-49925Y-26675D02*
D03*
X-46350D02*
D03*
X-51550Y-38550D02*
D03*
X-40550Y-22675D02*
D03*
X-43775Y-21850D02*
D03*
X-47700Y-40400D02*
D03*
X-42635Y-39540D02*
D03*
X-57600Y-30900D02*
D03*
X-58250Y-28925D02*
D03*
X-52750Y-27150D02*
D03*
X-56500Y-21775D02*
D03*
X-53824Y-35051D02*
D03*
X-46950Y-43075D02*
D03*
X-27950Y-16175D02*
D03*
X-29300Y-9850D02*
D03*
X-44775Y-9000D02*
D03*
X-49084Y-5700D02*
D03*
X-24925Y-10675D02*
D03*
X-36825Y-58750D02*
D03*
X-18525Y-21400D02*
D03*
X-21100Y-21425D02*
D03*
X-29250Y-22050D02*
D03*
X-14525Y-55975D02*
D03*
Y-58500D02*
D03*
X-31270Y-77000D02*
D03*
X-36850Y-59750D02*
D03*
X-36875Y-61750D02*
D03*
X-775Y-11100D02*
D03*
X-26800Y-15100D02*
D03*
X-30875Y-23175D02*
D03*
X-22100Y-15100D02*
D03*
X-16125Y-20275D02*
D03*
X-10325Y-11450D02*
D03*
X-30075Y-1525D02*
D03*
X-24925Y-1500D02*
D03*
X-34125Y-2150D02*
D03*
X-11125Y-6725D02*
D03*
X-40500Y-1500D02*
D03*
X-11100Y-16100D02*
D03*
X-11450Y-12650D02*
D03*
X-7600Y-1518D02*
D03*
X-3875Y-7025D02*
D03*
X-4550Y-9800D02*
D03*
X-17800Y-19100D02*
D03*
X-39925Y-53775D02*
D03*
X-29125Y-1525D02*
D03*
X-36850Y-60750D02*
D03*
X-30675Y-75725D02*
D03*
X-24500Y-14375D02*
D03*
X-16100Y-16425D02*
D03*
X-19584Y-12075D02*
D03*
X-32175Y-90087D02*
D03*
X-37575Y-85852D02*
D03*
X-35250Y-80815D02*
D03*
X-27711Y-56464D02*
D03*
X-49759Y-66040D02*
D03*
X-52375Y-63424D02*
D03*
Y-68656D02*
D03*
X-12600Y-83464D02*
D03*
X-19611Y-85852D02*
D03*
X-17426Y-80815D02*
D03*
X-28626Y-56464D02*
D03*
X-30750Y-62265D02*
D03*
X-23774Y-63881D02*
D03*
X-23038Y-63729D02*
D03*
X-2921Y-56312D02*
D03*
X-4430D02*
D03*
X-55550Y-17925D02*
D03*
X-50400Y-18625D02*
D03*
X-32975Y-18900D02*
D03*
X-30500Y-17800D02*
D03*
X-31375D02*
D03*
X-42800Y-26675D02*
D03*
X-38450Y-55575D02*
D03*
X-33250Y-54400D02*
D03*
X-33625Y-55500D02*
D03*
X-28526Y-74450D02*
D03*
X-29425Y-71925D02*
D03*
X-33375Y-66825D02*
D03*
X-20652Y-61451D02*
D03*
X-15600Y-34625D02*
D03*
X-16875Y-34600D02*
D03*
X-34350Y-60250D02*
D03*
X-33650Y-58675D02*
D03*
X-32650Y-59725D02*
D03*
X-38200Y-35800D02*
D03*
X-34524Y-88766D02*
D03*
X-31450Y-40425D02*
D03*
X-29750Y-11775D02*
D03*
X-29101Y-2751D02*
D03*
X-22100Y-53725D02*
D03*
X-38175Y-34600D02*
D03*
X-19085Y-17400D02*
D03*
X-19600Y-18200D02*
D03*
X-32563Y-66142D02*
D03*
X-31750Y-64800D02*
D03*
X-37787Y-8312D02*
D03*
X-27925Y-13700D02*
D03*
X-27300D02*
D03*
X-22800Y-8225D02*
D03*
X-24675Y-28100D02*
D03*
X-14475Y-16875D02*
D03*
X-46001Y-33450D02*
D03*
X-46475Y-30425D02*
D03*
X-30250Y-53700D02*
D03*
X-50550Y-38600D02*
D03*
X-33500Y-44000D02*
D03*
X-25750Y-28200D02*
D03*
Y-27450D02*
D03*
X-31625Y-48675D02*
D03*
X-31625Y-50900D02*
D03*
X-40275Y-20625D02*
D03*
X-29250Y-70650D02*
D03*
X-27975Y-73225D02*
D03*
X-19975Y-62275D02*
D03*
X-33807Y-79527D02*
D03*
X-13850Y-79524D02*
D03*
X-33147Y-78283D02*
D03*
X-14567Y-78275D02*
D03*
X-15225Y-82070D02*
D03*
X-30775Y-39725D02*
D03*
X-38887Y-84610D02*
D03*
X-13225Y-84606D02*
D03*
X-36350Y-83464D02*
D03*
X-15796Y-88795D02*
D03*
X-25275Y-69608D02*
D03*
X-23802Y-69898D02*
D03*
X-23535Y-62365D02*
D03*
D58*
X-40175Y-26675D02*
D03*
X-43725D02*
D03*
X-36275Y-24950D02*
D03*
X-36950Y-23775D02*
D03*
X-20225Y-32700D02*
D03*
X-22550Y-31600D02*
D03*
X-25750Y-32175D02*
D03*
X-22125Y-33400D02*
D03*
X-20350Y-34050D02*
D03*
X-21350Y-35050D02*
D03*
X-52850Y-28725D02*
D03*
X-29625Y-25325D02*
D03*
X-29075Y-49725D02*
D03*
X-27350Y-49775D02*
D03*
X-2700Y-12250D02*
D03*
X-32275Y-15200D02*
D03*
X-24675Y-35675D02*
D03*
X-25900Y-35125D02*
D03*
X-28913Y-27525D02*
D03*
X-48750Y-80075D02*
D03*
X-40725Y-57950D02*
D03*
X-9925Y-9200D02*
D03*
X-22525Y-11400D02*
D03*
X-36625Y-11450D02*
D03*
X-52700Y-32650D02*
D03*
X-44200Y-20225D02*
D03*
X-50750Y-14300D02*
D03*
X-15600Y-26200D02*
D03*
X-27575Y-26175D02*
D03*
X-16875Y-26200D02*
D03*
X-18150D02*
D03*
X-19425Y-26200D02*
D03*
X-1300Y-7250D02*
D03*
X-6350Y-8750D02*
D03*
Y-10050D02*
D03*
X-29850Y-20250D02*
D03*
X-13275Y-7400D02*
D03*
X-38750Y-22700D02*
D03*
D59*
X-25025Y-22725D02*
D03*
X-25025Y-22075D02*
D03*
X-25675Y-22075D02*
D03*
X-23525Y-16625D02*
D03*
Y-17250D02*
D03*
X-23075Y-21425D02*
D03*
X-23075Y-22075D02*
D03*
X-23725Y-18825D02*
D03*
X-23075Y-18825D02*
D03*
X-26325Y-22725D02*
D03*
X-25675Y-20125D02*
D03*
X-25675Y-18175D02*
D03*
X-25025D02*
D03*
X-24375Y-22725D02*
D03*
X-24375Y-20775D02*
D03*
X-26325Y-20125D02*
D03*
X-25025Y-19475D02*
D03*
X-25025Y-21425D02*
D03*
X-25025Y-20775D02*
D03*
X-26975Y-18825D02*
D03*
X-25025Y-20125D02*
D03*
M02*
