G04 Layer_Physical_Order=4*
G04 Layer_Color=16711680*
%FSLAX43Y43*%
%MOMM*%
G71*
G01*
G75*
%ADD10C,0.180*%
%ADD17R,1.000X1.600*%
%ADD26R,1.000X0.950*%
%ADD28R,0.500X0.650*%
%ADD29R,0.550X0.600*%
%ADD30R,0.850X0.800*%
%ADD31R,0.600X0.550*%
%ADD32R,0.650X0.500*%
%ADD33R,0.700X0.700*%
%ADD35R,0.700X0.700*%
%ADD36R,0.800X0.850*%
%ADD37C,0.300*%
%ADD38C,0.200*%
%ADD39C,0.250*%
%ADD40C,0.400*%
%ADD43R,0.900X0.300*%
G04:AMPARAMS|DCode=44|XSize=2.1mm|YSize=1.9mm|CornerRadius=0.494mm|HoleSize=0mm|Usage=FLASHONLY|Rotation=0.000|XOffset=0mm|YOffset=0mm|HoleType=Round|Shape=RoundedRectangle|*
%AMROUNDEDRECTD44*
21,1,2.100,0.912,0,0,0.0*
21,1,1.112,1.900,0,0,0.0*
1,1,0.988,0.556,-0.456*
1,1,0.988,-0.556,-0.456*
1,1,0.988,-0.556,0.456*
1,1,0.988,0.556,0.456*
%
%ADD44ROUNDEDRECTD44*%
G04:AMPARAMS|DCode=45|XSize=1.05mm|YSize=1.25mm|CornerRadius=0.525mm|HoleSize=0mm|Usage=FLASHONLY|Rotation=180.000|XOffset=0mm|YOffset=0mm|HoleType=Round|Shape=RoundedRectangle|*
%AMROUNDEDRECTD45*
21,1,1.050,0.200,0,0,180.0*
21,1,0.000,1.250,0,0,180.0*
1,1,1.050,0.000,0.100*
1,1,1.050,0.000,0.100*
1,1,1.050,0.000,-0.100*
1,1,1.050,0.000,-0.100*
%
%ADD45ROUNDEDRECTD45*%
G04:AMPARAMS|DCode=46|XSize=1.05mm|YSize=1.25mm|CornerRadius=0.525mm|HoleSize=0mm|Usage=FLASHONLY|Rotation=180.000|XOffset=0mm|YOffset=0mm|HoleType=Round|Shape=RoundedRectangle|*
%AMROUNDEDRECTD46*
21,1,1.050,0.200,0,0,180.0*
21,1,0.000,1.250,0,0,180.0*
1,1,1.050,0.000,0.100*
1,1,1.050,0.000,0.100*
1,1,1.050,0.000,-0.100*
1,1,1.050,0.000,-0.100*
%
%ADD46ROUNDEDRECTD46*%
%ADD47C,1.700*%
%ADD48R,1.700X1.700*%
%ADD49R,1.700X1.700*%
%ADD50C,1.700*%
%ADD51R,1.700X1.700*%
%ADD52C,1.050*%
%ADD53C,1.050*%
%ADD54C,3.600*%
%ADD55O,1.050X1.040*%
%ADD56R,1.700X1.700*%
%ADD57C,0.550*%
%ADD59C,0.400*%
%ADD77C,1.270*%
%ADD78R,1.300X1.600*%
%ADD79R,0.300X0.850*%
%ADD80R,0.300X0.950*%
%ADD81C,0.280*%
%ADD82R,0.600X0.300*%
%ADD83R,1.600X0.450*%
%ADD84R,0.650X1.050*%
%ADD85O,1.750X0.550*%
%ADD86O,0.550X1.750*%
%ADD87R,1.700X0.350*%
%ADD88R,1.300X0.600*%
%ADD89R,0.350X0.850*%
%ADD90R,0.650X0.800*%
%ADD91R,0.800X0.650*%
%ADD92R,1.350X1.500*%
%ADD93R,1.000X0.950*%
%ADD94R,1.500X1.350*%
%ADD95R,0.600X1.300*%
%ADD96R,0.450X1.600*%
%ADD97C,0.800*%
%ADD98C,0.175*%
%ADD99C,0.125*%
G36*
X-42789Y-14602D02*
X-42810Y-14760D01*
X-42775Y-15028D01*
X-42671Y-15277D01*
X-42507Y-15491D01*
X-42293Y-15655D01*
X-42044Y-15759D01*
X-41776Y-15794D01*
X-41508Y-15759D01*
X-41259Y-15655D01*
X-41045Y-15491D01*
X-40881Y-15277D01*
X-40812Y-15112D01*
X-37660D01*
X-37591Y-15277D01*
X-37427Y-15491D01*
X-37213Y-15655D01*
X-36964Y-15759D01*
X-36696Y-15794D01*
X-36428Y-15759D01*
X-36179Y-15655D01*
X-35965Y-15491D01*
X-35801Y-15277D01*
X-35716Y-15073D01*
X-35589Y-15098D01*
Y-16962D01*
X-35716Y-16987D01*
X-35801Y-16783D01*
X-35965Y-16569D01*
X-36179Y-16405D01*
X-36428Y-16301D01*
X-36696Y-16266D01*
X-36964Y-16301D01*
X-37213Y-16405D01*
X-37427Y-16569D01*
X-37591Y-16783D01*
X-37695Y-17032D01*
X-37730Y-17300D01*
X-37695Y-17568D01*
X-37591Y-17817D01*
X-37427Y-18031D01*
X-37213Y-18195D01*
X-36964Y-18299D01*
X-36696Y-18334D01*
X-36428Y-18299D01*
X-36179Y-18195D01*
X-35965Y-18031D01*
X-35801Y-17817D01*
X-35716Y-17613D01*
X-35589Y-17638D01*
Y-18722D01*
X-35671Y-18815D01*
X-37721D01*
Y-19428D01*
X-40751D01*
Y-18815D01*
X-42801D01*
Y-20495D01*
X-42924Y-20618D01*
X-43636D01*
X-43696Y-20506D01*
X-43658Y-20449D01*
X-43614Y-20225D01*
X-43658Y-20001D01*
X-43741Y-19877D01*
X-43725Y-19750D01*
X-43725D01*
X-43725Y-19750D01*
Y-18850D01*
X-43920D01*
Y-18750D01*
X-43941Y-18643D01*
X-44002Y-18552D01*
X-44200Y-18353D01*
Y-17025D01*
X-45150D01*
Y-18675D01*
X-44722D01*
X-44686Y-18723D01*
X-44710Y-18800D01*
X-44749Y-18850D01*
X-45675D01*
Y-19750D01*
X-45531D01*
Y-20618D01*
X-47217D01*
X-47632Y-20202D01*
X-47580Y-20075D01*
X-47375D01*
Y-18875D01*
X-47743D01*
Y-18600D01*
X-47525D01*
Y-17450D01*
X-48725D01*
Y-18600D01*
X-48507D01*
Y-18875D01*
X-48525D01*
Y-19119D01*
X-49175D01*
Y-18875D01*
X-50325D01*
Y-20075D01*
X-49175D01*
Y-19781D01*
X-48525D01*
Y-20075D01*
X-48482D01*
Y-20275D01*
X-48453Y-20421D01*
X-48370Y-20545D01*
X-47645Y-21270D01*
X-47521Y-21353D01*
X-47375Y-21382D01*
X-47375Y-21382D01*
X-47050D01*
Y-21725D01*
X-46550D01*
Y-21925D01*
X-47050D01*
Y-22300D01*
X-47050Y-22300D01*
X-47050D01*
X-47050Y-22300D01*
X-47105Y-22404D01*
X-47190Y-22460D01*
X-47317Y-22651D01*
X-47361Y-22875D01*
X-47317Y-23099D01*
X-47190Y-23290D01*
X-46999Y-23417D01*
X-46775Y-23461D01*
X-46551Y-23417D01*
X-46360Y-23290D01*
X-46271Y-23155D01*
X-46025D01*
Y-24025D01*
X-46025Y-24025D01*
X-46025D01*
X-46025Y-24025D01*
X-46075Y-24131D01*
X-46419Y-24475D01*
X-46656D01*
X-47091Y-24041D01*
X-47198Y-23969D01*
X-47325Y-23944D01*
X-48535D01*
X-48625Y-23854D01*
Y-22392D01*
X-48625Y-22375D01*
X-48625Y-22375D01*
X-48625D01*
X-48650Y-22275D01*
Y-22275D01*
X-48650Y-22149D01*
Y-21375D01*
X-49508D01*
X-49625Y-21350D01*
X-49625Y-21350D01*
X-49752Y-21350D01*
X-50025D01*
Y-21825D01*
X-50125D01*
Y-21925D01*
X-50625D01*
Y-22300D01*
X-50625Y-22300D01*
X-50625D01*
D01*
X-50667Y-22412D01*
X-50740Y-22460D01*
X-50867Y-22651D01*
X-50911Y-22875D01*
X-50867Y-23099D01*
X-50740Y-23290D01*
X-50549Y-23417D01*
X-50325Y-23461D01*
X-50101Y-23417D01*
X-49910Y-23290D01*
X-49821Y-23155D01*
X-49575D01*
Y-23697D01*
X-49702Y-23736D01*
X-49726Y-23701D01*
X-49874Y-23601D01*
X-50050Y-23566D01*
X-50226Y-23601D01*
X-50374Y-23701D01*
X-50474Y-23849D01*
X-50509Y-24025D01*
X-50474Y-24201D01*
X-50381Y-24339D01*
Y-24475D01*
X-50525D01*
Y-26125D01*
X-50118D01*
X-50101Y-26251D01*
X-50249Y-26351D01*
X-50349Y-26499D01*
X-50384Y-26675D01*
X-50349Y-26851D01*
X-50249Y-26999D01*
X-50101Y-27099D01*
X-49975Y-27124D01*
X-49925Y-27253D01*
Y-27253D01*
X-50491Y-27819D01*
X-50649Y-27788D01*
X-50873Y-27832D01*
X-51063Y-27959D01*
X-51190Y-28149D01*
X-51235Y-28374D01*
X-51190Y-28598D01*
X-51063Y-28788D01*
X-50929Y-28878D01*
Y-29792D01*
X-51249D01*
X-51424Y-29827D01*
X-51573Y-29927D01*
X-51673Y-30076D01*
X-51708Y-30251D01*
X-51673Y-30427D01*
X-51574Y-30575D01*
X-51555Y-30604D01*
Y-30698D01*
X-51574Y-30728D01*
X-51673Y-30876D01*
X-51708Y-31051D01*
X-51673Y-31227D01*
X-51574Y-31375D01*
X-51555Y-31404D01*
Y-31498D01*
X-51574Y-31528D01*
X-51673Y-31676D01*
X-51708Y-31851D01*
X-51673Y-32027D01*
X-51574Y-32175D01*
X-51555Y-32204D01*
Y-32263D01*
X-51652Y-32371D01*
X-52195D01*
X-52285Y-32235D01*
X-52476Y-32108D01*
X-52700Y-32064D01*
X-52924Y-32108D01*
X-53115Y-32235D01*
X-53242Y-32426D01*
X-53286Y-32650D01*
X-53242Y-32874D01*
X-53115Y-33065D01*
X-52924Y-33192D01*
X-52700Y-33236D01*
X-52476Y-33192D01*
X-52285Y-33065D01*
X-52197Y-32932D01*
X-51603D01*
X-51574Y-32975D01*
X-51555Y-33004D01*
Y-33098D01*
X-51574Y-33128D01*
X-51673Y-33276D01*
X-51708Y-33451D01*
X-51673Y-33627D01*
X-51573Y-33776D01*
X-51589Y-33901D01*
X-51652Y-33971D01*
X-52633D01*
X-53695Y-32909D01*
Y-32150D01*
X-53475D01*
Y-31399D01*
X-53474Y-31397D01*
X-53360Y-31343D01*
X-53348Y-31342D01*
X-53199Y-31442D01*
X-52975Y-31486D01*
X-52751Y-31442D01*
X-52560Y-31315D01*
X-52433Y-31124D01*
X-52389Y-30900D01*
X-52433Y-30676D01*
X-52560Y-30485D01*
X-52751Y-30358D01*
X-52975Y-30314D01*
X-53199Y-30358D01*
X-53348Y-30458D01*
X-53475Y-30450D01*
X-53475Y-30450D01*
X-53475Y-30450D01*
X-53670D01*
Y-30300D01*
X-53691Y-30193D01*
X-53752Y-30102D01*
X-53900Y-29953D01*
Y-28400D01*
X-55320D01*
Y-27600D01*
X-55341Y-27493D01*
X-55402Y-27402D01*
X-55970Y-26834D01*
Y-26100D01*
X-55230D01*
Y-26625D01*
X-55209Y-26732D01*
X-55148Y-26823D01*
X-53405Y-28567D01*
X-53436Y-28725D01*
X-53392Y-28949D01*
X-53265Y-29140D01*
X-53074Y-29267D01*
X-52850Y-29311D01*
X-52626Y-29267D01*
X-52435Y-29140D01*
X-52308Y-28949D01*
X-52264Y-28725D01*
X-52308Y-28501D01*
X-52435Y-28310D01*
X-52626Y-28183D01*
X-52850Y-28139D01*
X-53008Y-28170D01*
X-54670Y-26509D01*
Y-26100D01*
X-53900D01*
Y-25405D01*
X-53775D01*
X-53668Y-25384D01*
X-53577Y-25323D01*
X-53467Y-25214D01*
X-53350Y-25262D01*
Y-25300D01*
X-52150D01*
X-52100Y-25406D01*
Y-25408D01*
X-52125Y-25525D01*
X-52227Y-25525D01*
X-52650D01*
Y-26025D01*
X-52111D01*
X-52100Y-25975D01*
X-51998Y-25975D01*
X-51750D01*
Y-25450D01*
X-51650D01*
Y-25350D01*
X-51200D01*
Y-24925D01*
X-51200D01*
X-51225Y-24900D01*
Y-24052D01*
X-51225Y-24000D01*
X-51129Y-23925D01*
X-51129Y-23925D01*
X-51050D01*
Y-22925D01*
X-51227D01*
X-51251Y-22892D01*
X-51283Y-22798D01*
X-51201Y-22676D01*
X-51166Y-22500D01*
X-51201Y-22324D01*
X-51301Y-22176D01*
X-51449Y-22076D01*
X-51625Y-22041D01*
X-51801Y-22076D01*
X-51949Y-22176D01*
X-52049Y-22324D01*
X-52084Y-22500D01*
X-52049Y-22676D01*
X-51967Y-22798D01*
X-51999Y-22892D01*
X-52023Y-22925D01*
X-52123D01*
X-52200Y-22925D01*
X-52218D01*
X-52254Y-22920D01*
X-52345Y-22805D01*
Y-22229D01*
X-52210Y-22140D01*
X-52083Y-21949D01*
X-52039Y-21725D01*
X-52083Y-21501D01*
X-52210Y-21310D01*
X-52401Y-21183D01*
X-52625Y-21139D01*
X-52849Y-21183D01*
X-53040Y-21310D01*
X-53167Y-21501D01*
X-53211Y-21725D01*
X-53167Y-21949D01*
X-53040Y-22140D01*
X-52905Y-22229D01*
Y-22925D01*
X-53400D01*
Y-23925D01*
X-53105D01*
Y-24150D01*
X-53350D01*
Y-24446D01*
X-53376D01*
X-53484Y-24467D01*
X-53575Y-24528D01*
X-53773Y-24726D01*
X-53900Y-24674D01*
Y-24150D01*
X-54060D01*
X-54125Y-24050D01*
Y-23200D01*
Y-22350D01*
X-56025D01*
Y-22075D01*
X-56400D01*
Y-22575D01*
X-56500D01*
Y-22675D01*
X-56975D01*
Y-23031D01*
X-57088Y-23109D01*
X-57201Y-23033D01*
X-57425Y-22989D01*
X-57649Y-23033D01*
X-57767Y-23112D01*
X-57894Y-23044D01*
Y-21595D01*
X-57810Y-21540D01*
X-57683Y-21349D01*
X-57639Y-21125D01*
X-57658Y-21027D01*
X-56781Y-20150D01*
X-56100D01*
Y-19906D01*
X-55875D01*
Y-20050D01*
X-54637D01*
X-54589Y-20167D01*
X-55248Y-20827D01*
X-55309Y-20918D01*
X-55325Y-21000D01*
X-55875D01*
Y-21950D01*
X-54225D01*
Y-21000D01*
X-54463D01*
X-54511Y-20883D01*
X-53892Y-20264D01*
X-53775Y-20312D01*
Y-21000D01*
X-52394D01*
X-52359Y-21034D01*
X-52252Y-21106D01*
X-52125Y-21131D01*
X-51920D01*
X-51865Y-21215D01*
X-51674Y-21342D01*
X-51450Y-21386D01*
X-51226Y-21342D01*
X-51035Y-21215D01*
X-50908Y-21024D01*
X-50864Y-20800D01*
X-50908Y-20576D01*
X-51035Y-20385D01*
X-51119Y-20330D01*
Y-20075D01*
X-50575D01*
Y-18875D01*
X-50969D01*
Y-18449D01*
X-50900Y-18350D01*
X-50000D01*
Y-17925D01*
X-49900D01*
Y-17825D01*
X-48900D01*
Y-17500D01*
X-48925D01*
Y-17025D01*
Y-16956D01*
X-48725D01*
Y-17200D01*
X-47525D01*
Y-16050D01*
X-47794D01*
Y-15895D01*
X-47710Y-15840D01*
X-47583Y-15649D01*
X-47550Y-15480D01*
X-47420D01*
X-47392Y-15624D01*
X-47265Y-15815D01*
X-47181Y-15870D01*
Y-16500D01*
X-47156Y-16627D01*
X-47084Y-16734D01*
X-46921Y-16898D01*
X-46941Y-17025D01*
X-47050D01*
Y-18675D01*
X-46906D01*
Y-18875D01*
X-47125D01*
Y-20075D01*
X-45975D01*
Y-18875D01*
X-46244D01*
Y-18675D01*
X-46100D01*
Y-17025D01*
X-46244D01*
Y-16775D01*
X-46269Y-16648D01*
X-46341Y-16541D01*
X-46519Y-16363D01*
Y-15870D01*
X-46435Y-15815D01*
X-46308Y-15624D01*
X-46264Y-15400D01*
X-46281Y-15313D01*
X-46193Y-15194D01*
X-46100Y-15280D01*
Y-16575D01*
X-45150D01*
Y-14925D01*
X-45456D01*
X-46100Y-14281D01*
Y-13587D01*
X-45983Y-13539D01*
X-45373Y-14148D01*
X-45282Y-14209D01*
X-45175Y-14230D01*
X-45150D01*
Y-14775D01*
X-44200D01*
Y-13357D01*
X-44083Y-13308D01*
X-42789Y-14602D01*
D02*
G37*
G36*
X-44350Y-33296D02*
X-44413Y-33413D01*
X-44524Y-33391D01*
X-44699Y-33426D01*
X-44848Y-33526D01*
X-44948Y-33674D01*
X-44983Y-33850D01*
X-44948Y-34026D01*
X-44848Y-34174D01*
X-44804Y-34204D01*
Y-36222D01*
X-44847Y-36251D01*
X-44877Y-36270D01*
X-44971D01*
X-45000Y-36251D01*
X-45148Y-36152D01*
X-45324Y-36117D01*
X-45499Y-36152D01*
X-45647Y-36251D01*
X-45677Y-36270D01*
X-45771D01*
X-45800Y-36251D01*
X-45948Y-36152D01*
X-46124Y-36117D01*
X-46299Y-36152D01*
X-46447Y-36251D01*
X-46477Y-36270D01*
X-46571D01*
X-46600Y-36251D01*
X-46748Y-36152D01*
X-46924Y-36117D01*
X-47099Y-36152D01*
X-47247Y-36251D01*
X-47277Y-36270D01*
X-47371D01*
X-47400Y-36251D01*
X-47548Y-36152D01*
X-47724Y-36117D01*
X-47899Y-36152D01*
X-48047Y-36251D01*
X-48077Y-36270D01*
X-48171D01*
X-48200Y-36251D01*
X-48348Y-36152D01*
X-48524Y-36117D01*
X-48699Y-36152D01*
X-48847Y-36251D01*
X-48877Y-36270D01*
X-48971D01*
X-49000Y-36251D01*
X-49148Y-36152D01*
X-49324Y-36117D01*
X-49499Y-36152D01*
X-49602Y-36221D01*
X-49693Y-36129D01*
X-49625Y-36027D01*
X-49590Y-35851D01*
X-49625Y-35676D01*
X-49724Y-35527D01*
Y-35431D01*
X-49703Y-35388D01*
X-49601Y-35237D01*
X-49584Y-35151D01*
X-50649D01*
Y-34951D01*
X-49584D01*
X-49601Y-34866D01*
X-49703Y-34714D01*
X-49724Y-34672D01*
Y-34576D01*
X-49625Y-34427D01*
X-49590Y-34251D01*
X-49625Y-34076D01*
X-49724Y-33927D01*
X-49709Y-33802D01*
X-49646Y-33732D01*
X-46354D01*
X-46326Y-33774D01*
X-46177Y-33874D01*
X-46001Y-33909D01*
X-45826Y-33874D01*
X-45677Y-33774D01*
X-45577Y-33626D01*
X-45574Y-33611D01*
X-45427Y-33521D01*
X-45352Y-33535D01*
X-45177Y-33500D01*
X-45028Y-33401D01*
X-44928Y-33252D01*
X-44893Y-33077D01*
X-44928Y-32901D01*
X-44935Y-32891D01*
X-44836Y-32810D01*
X-44350Y-33296D01*
D02*
G37*
G36*
X-32830Y-15042D02*
X-32861Y-15200D01*
X-32827Y-15373D01*
X-33221Y-15767D01*
X-33273Y-15802D01*
X-33698Y-16227D01*
X-33759Y-16318D01*
X-33780Y-16425D01*
Y-43646D01*
X-33824Y-43676D01*
X-33924Y-43824D01*
X-33959Y-44000D01*
X-33924Y-44176D01*
X-33824Y-44324D01*
X-33676Y-44424D01*
X-33500Y-44459D01*
X-33324Y-44424D01*
X-33176Y-44324D01*
X-33076Y-44176D01*
X-33041Y-44000D01*
X-33076Y-43824D01*
X-33176Y-43676D01*
X-33220Y-43646D01*
Y-21323D01*
X-33130Y-21287D01*
X-33093Y-21279D01*
X-32951Y-21374D01*
X-32775Y-21409D01*
X-32723Y-21398D01*
X-32498Y-21623D01*
X-32407Y-21684D01*
X-32300Y-21705D01*
X-31300D01*
Y-21850D01*
X-31325D01*
Y-22275D01*
X-30875D01*
Y-22375D01*
X-30775D01*
Y-22900D01*
X-30100D01*
Y-22375D01*
X-29900D01*
Y-22947D01*
X-29871Y-23017D01*
X-32133Y-25279D01*
X-32187Y-25316D01*
X-32248Y-25407D01*
X-32269Y-25514D01*
Y-40696D01*
X-32313Y-40726D01*
X-32413Y-40874D01*
X-32448Y-41050D01*
X-32413Y-41226D01*
X-32313Y-41374D01*
X-32165Y-41474D01*
X-31989Y-41509D01*
X-31813Y-41474D01*
X-31665Y-41374D01*
X-31565Y-41226D01*
X-31530Y-41050D01*
X-31541Y-40995D01*
X-31450Y-40884D01*
X-31274Y-40849D01*
X-31126Y-40749D01*
X-31026Y-40601D01*
X-30991Y-40425D01*
X-31026Y-40251D01*
X-31003Y-40219D01*
X-30973Y-40179D01*
X-30939Y-40151D01*
X-30775Y-40184D01*
X-30599Y-40149D01*
X-30451Y-40049D01*
X-30382Y-39947D01*
X-30255Y-39986D01*
Y-44759D01*
X-31972Y-46475D01*
X-32039Y-46448D01*
X-32220Y-46424D01*
X-32230D01*
X-32411Y-46448D01*
X-32581Y-46518D01*
X-32726Y-46629D01*
X-32781Y-46701D01*
X-32939D01*
X-32994Y-46629D01*
X-33139Y-46518D01*
X-33309Y-46448D01*
X-33490Y-46424D01*
X-33500D01*
X-33681Y-46448D01*
X-33850Y-46518D01*
X-33996Y-46629D01*
X-34036Y-46682D01*
X-34163Y-46639D01*
Y-16184D01*
X-33927Y-15948D01*
X-33875Y-15959D01*
X-33699Y-15924D01*
X-33551Y-15824D01*
X-33451Y-15676D01*
X-33416Y-15500D01*
X-33451Y-15324D01*
X-33551Y-15176D01*
X-33699Y-15076D01*
X-33875Y-15041D01*
X-34051Y-15076D01*
X-34199Y-15176D01*
X-34299Y-15324D01*
X-34334Y-15500D01*
X-34323Y-15552D01*
X-34457Y-15685D01*
X-34574Y-15636D01*
Y-14895D01*
X-34327Y-14648D01*
X-34275Y-14659D01*
X-34099Y-14624D01*
X-33951Y-14524D01*
X-33851Y-14376D01*
X-33822Y-14229D01*
X-33739Y-14187D01*
X-33692Y-14179D01*
X-32830Y-15042D01*
D02*
G37*
G36*
X-21235Y-715D02*
X-20928Y-842D01*
X-20599Y-885D01*
X-20525Y-876D01*
X-20436Y-992D01*
X-20458Y-1044D01*
X-20466Y-1107D01*
X-20472Y-1139D01*
X-20471Y-1148D01*
X-20474Y-1157D01*
X-20476Y-1180D01*
X-20481Y-1219D01*
Y-2131D01*
X-20475Y-2172D01*
X-20474Y-2191D01*
X-20472Y-2198D01*
X-20472Y-2205D01*
X-20465Y-2250D01*
X-20465Y-2252D01*
X-20458Y-2306D01*
X-20434Y-2363D01*
X-20428Y-2380D01*
X-20459Y-2421D01*
X-20466Y-2429D01*
X-20476Y-2436D01*
X-20489Y-2455D01*
X-20505Y-2473D01*
X-20508Y-2484D01*
X-20515Y-2494D01*
X-20519Y-2517D01*
X-20527Y-2539D01*
X-20526Y-2551D01*
X-20528Y-2562D01*
Y-2977D01*
X-20550Y-2995D01*
X-20725D01*
Y-2825D01*
X-21675D01*
Y-2825D01*
X-21725D01*
Y-2825D01*
X-22675D01*
Y-2995D01*
X-23052D01*
X-23159Y-3016D01*
X-23250Y-3077D01*
X-23788Y-3615D01*
X-23900Y-3727D01*
Y-3575D01*
X-24945D01*
Y-3350D01*
X-24600D01*
Y-2850D01*
X-25125D01*
Y-2903D01*
X-25127Y-2902D01*
X-25218Y-2841D01*
X-25325Y-2820D01*
Y-2737D01*
Y-2500D01*
X-25800D01*
Y-2475D01*
X-26050D01*
Y-3100D01*
X-26250D01*
Y-2475D01*
X-26550D01*
Y-3100D01*
Y-3725D01*
X-26500D01*
Y-3750D01*
X-26975D01*
Y-4044D01*
X-27200D01*
Y-3575D01*
X-28400D01*
Y-3817D01*
X-28437D01*
X-28527Y-3757D01*
D01*
X-28576Y-3725D01*
X-28751Y-3690D01*
X-28927Y-3725D01*
X-29066Y-3817D01*
X-29210D01*
X-29346Y-3726D01*
X-29522Y-3691D01*
X-29698Y-3726D01*
X-29846Y-3826D01*
X-29946Y-3974D01*
X-29981Y-4150D01*
X-29946Y-4326D01*
X-29846Y-4474D01*
X-29825Y-4489D01*
X-29698Y-4574D01*
X-29522Y-4609D01*
X-29346Y-4574D01*
X-29206Y-4480D01*
X-29066D01*
X-28927Y-4572D01*
X-28751Y-4607D01*
X-28576Y-4572D01*
X-28541Y-4549D01*
X-28437Y-4480D01*
X-28400D01*
Y-4725D01*
X-27200D01*
Y-4656D01*
X-26975D01*
Y-4950D01*
X-26500D01*
Y-4975D01*
X-26250D01*
Y-4350D01*
X-26050D01*
Y-4975D01*
X-25800D01*
Y-4950D01*
X-25325D01*
Y-4606D01*
X-25100D01*
Y-4725D01*
X-24831D01*
Y-4825D01*
X-24806Y-4952D01*
X-24734Y-5059D01*
X-24494Y-5300D01*
X-25000D01*
Y-5369D01*
X-25300D01*
Y-5100D01*
X-26450D01*
Y-6300D01*
X-26311D01*
X-26335Y-6424D01*
X-26300Y-6599D01*
X-26201Y-6748D01*
X-26198Y-6750D01*
X-26625D01*
Y-7750D01*
Y-8750D01*
X-26067D01*
X-26100Y-8800D01*
X-26135Y-8975D01*
X-26100Y-9151D01*
X-26051Y-9225D01*
X-26100D01*
Y-10075D01*
X-25325D01*
Y-9260D01*
X-25252Y-9151D01*
X-25217Y-8975D01*
X-25242Y-8852D01*
D01*
X-25252Y-8800D01*
X-25302Y-8725D01*
X-25200D01*
Y-8725D01*
Y-8100D01*
X-25175D01*
Y-7850D01*
X-25675D01*
Y-7650D01*
X-25175D01*
Y-7400D01*
X-25200D01*
Y-6775D01*
X-25369D01*
Y-6625D01*
X-25369Y-6625D01*
X-25392Y-6508D01*
X-25425Y-6459D01*
X-25418Y-6424D01*
X-25423Y-6398D01*
X-25442Y-6300D01*
X-25300D01*
Y-6031D01*
X-25000D01*
Y-6925D01*
X-25025D01*
Y-7700D01*
X-23125D01*
Y-7698D01*
Y-7517D01*
X-23121Y-7522D01*
X-22998Y-7646D01*
X-22734Y-7909D01*
X-22627Y-7981D01*
X-22500Y-8006D01*
X-22375D01*
Y-8025D01*
Y-8600D01*
X-22400D01*
Y-8875D01*
X-21350D01*
Y-8975D01*
X-21250D01*
Y-9350D01*
X-21122D01*
X-21071Y-9477D01*
X-21179Y-9585D01*
X-21221Y-9613D01*
X-21397Y-9789D01*
X-21424Y-9831D01*
X-22427Y-10833D01*
X-22525Y-10814D01*
X-22749Y-10858D01*
X-22940Y-10985D01*
X-23018Y-11102D01*
X-23145Y-11064D01*
Y-9495D01*
X-23101Y-9459D01*
X-22926Y-9424D01*
X-22777Y-9325D01*
X-22677Y-9176D01*
X-22642Y-9000D01*
X-22677Y-8825D01*
X-22777Y-8676D01*
X-22882Y-8606D01*
D01*
X-22926Y-8577D01*
X-23101Y-8542D01*
X-23125Y-8546D01*
Y-8522D01*
Y-7900D01*
X-23975D01*
Y-8675D01*
X-23424D01*
X-23426Y-8676D01*
X-23510Y-8802D01*
D01*
X-23525Y-8824D01*
X-23525Y-8825D01*
X-23560Y-9000D01*
X-23554Y-9029D01*
X-23623Y-9098D01*
X-23684Y-9189D01*
X-23705Y-9297D01*
Y-11125D01*
Y-11950D01*
X-23800D01*
Y-12120D01*
X-24271D01*
X-24301Y-12076D01*
X-24449Y-11976D01*
X-24625Y-11941D01*
X-24801Y-11976D01*
X-24949Y-12076D01*
X-25049Y-12224D01*
X-25084Y-12400D01*
X-25049Y-12576D01*
X-24949Y-12724D01*
X-24801Y-12824D01*
X-24625Y-12859D01*
X-24449Y-12824D01*
X-24301Y-12724D01*
X-24271Y-12680D01*
X-23800D01*
Y-12850D01*
X-23705D01*
Y-13100D01*
X-23800D01*
Y-14000D01*
X-22850D01*
Y-14000D01*
X-22800D01*
Y-14000D01*
X-22122D01*
X-21730Y-14392D01*
X-21761Y-14550D01*
X-21717Y-14774D01*
X-21619Y-14921D01*
X-21590Y-14965D01*
X-21619Y-15098D01*
X-22048Y-15527D01*
X-22100Y-15516D01*
X-22273Y-15551D01*
X-22276Y-15551D01*
X-22400Y-15481D01*
Y-15200D01*
X-22925D01*
Y-15100D01*
X-23025D01*
Y-14650D01*
X-23450D01*
Y-14675D01*
X-23595D01*
Y-14675D01*
X-23616Y-14568D01*
X-23677Y-14477D01*
X-23977Y-14177D01*
X-24068Y-14116D01*
X-24142Y-14101D01*
X-24176Y-14051D01*
X-24324Y-13951D01*
X-24500Y-13916D01*
X-24676Y-13951D01*
X-24824Y-14051D01*
X-24866Y-14113D01*
X-24914Y-14108D01*
X-24994Y-14075D01*
X-25033Y-13876D01*
X-25160Y-13685D01*
X-25351Y-13558D01*
X-25575Y-13514D01*
X-25799Y-13558D01*
X-25990Y-13685D01*
X-26117Y-13876D01*
X-26161Y-14100D01*
X-26117Y-14324D01*
X-25990Y-14515D01*
X-25977Y-14523D01*
X-26015Y-14650D01*
X-26500D01*
Y-15550D01*
X-26500D01*
X-26500D01*
Y-15550D01*
X-26500D01*
X-26500Y-15550D01*
Y-15900D01*
X-25975D01*
Y-16000D01*
X-25875D01*
Y-16450D01*
X-25450D01*
Y-16425D01*
X-25268D01*
Y-17436D01*
X-25350Y-17503D01*
X-25483Y-17530D01*
X-25595Y-17605D01*
X-25649Y-17686D01*
X-25759Y-17699D01*
X-25794Y-17692D01*
X-25813Y-17663D01*
X-25899Y-17606D01*
X-26000Y-17586D01*
X-26101Y-17606D01*
X-26187Y-17663D01*
X-26244Y-17749D01*
X-26264Y-17850D01*
X-26244Y-17951D01*
X-26187Y-18037D01*
X-26101Y-18094D01*
X-26044Y-18105D01*
X-26057Y-18175D01*
X-26044Y-18245D01*
X-26101Y-18256D01*
X-26187Y-18313D01*
X-26244Y-18399D01*
X-26252Y-18440D01*
X-26382D01*
X-26391Y-18393D01*
X-26452Y-18302D01*
X-26541Y-18212D01*
X-26508Y-18066D01*
X-26463Y-18037D01*
X-26406Y-17951D01*
X-26386Y-17850D01*
X-26406Y-17749D01*
X-26463Y-17663D01*
X-26549Y-17606D01*
X-26650Y-17586D01*
X-26696Y-17548D01*
Y-16224D01*
X-26717Y-16116D01*
X-26778Y-16025D01*
X-35420Y-7384D01*
Y-4400D01*
X-35441Y-4293D01*
X-35502Y-4202D01*
X-37864Y-1840D01*
X-37811Y-1711D01*
X-37783Y-1500D01*
X-37811Y-1289D01*
X-37892Y-1092D01*
X-38022Y-922D01*
X-38192Y-792D01*
X-38389Y-711D01*
X-38600Y-683D01*
X-38811Y-711D01*
X-39008Y-792D01*
X-39178Y-922D01*
X-39308Y-1092D01*
X-39389Y-1289D01*
X-39417Y-1500D01*
X-39389Y-1711D01*
X-39308Y-1908D01*
X-39178Y-2078D01*
X-39008Y-2208D01*
X-38811Y-2289D01*
X-38600Y-2317D01*
X-38389Y-2289D01*
X-38260Y-2236D01*
X-35980Y-4516D01*
Y-5557D01*
X-36098Y-5606D01*
X-37864Y-3840D01*
X-37811Y-3711D01*
X-37783Y-3500D01*
X-37811Y-3289D01*
X-37892Y-3092D01*
X-38022Y-2922D01*
X-38192Y-2792D01*
X-38389Y-2711D01*
X-38600Y-2683D01*
X-38811Y-2711D01*
X-39008Y-2792D01*
X-39178Y-2922D01*
X-39308Y-3092D01*
X-39389Y-3289D01*
X-39417Y-3500D01*
X-39389Y-3711D01*
X-39308Y-3908D01*
X-39178Y-4078D01*
X-39158Y-4093D01*
X-39201Y-4220D01*
X-40484D01*
X-40864Y-3840D01*
X-40811Y-3711D01*
X-40783Y-3500D01*
X-40811Y-3289D01*
X-40892Y-3092D01*
X-41022Y-2922D01*
X-41192Y-2792D01*
X-41389Y-2711D01*
X-41600Y-2683D01*
X-41811Y-2711D01*
X-42008Y-2792D01*
X-42178Y-2922D01*
X-42308Y-3092D01*
X-42389Y-3289D01*
X-42417Y-3500D01*
X-42389Y-3711D01*
X-42308Y-3908D01*
X-42178Y-4078D01*
X-42008Y-4208D01*
X-41811Y-4289D01*
X-41600Y-4317D01*
X-41389Y-4289D01*
X-41260Y-4236D01*
X-40798Y-4698D01*
X-40707Y-4759D01*
X-40600Y-4780D01*
X-39201D01*
X-39158Y-4907D01*
X-39178Y-4922D01*
X-39308Y-5091D01*
X-39389Y-5289D01*
X-39417Y-5500D01*
X-39389Y-5711D01*
X-39308Y-5908D01*
X-39185Y-6068D01*
X-39200Y-6143D01*
X-39217Y-6195D01*
X-40509D01*
X-40864Y-5840D01*
X-40811Y-5711D01*
X-40783Y-5500D01*
X-40811Y-5289D01*
X-40892Y-5091D01*
X-41022Y-4922D01*
X-41192Y-4792D01*
X-41389Y-4711D01*
X-41600Y-4683D01*
X-41811Y-4711D01*
X-42008Y-4792D01*
X-42178Y-4922D01*
X-42308Y-5091D01*
X-42389Y-5289D01*
X-42417Y-5500D01*
X-42389Y-5711D01*
X-42308Y-5908D01*
X-42178Y-6078D01*
X-42008Y-6208D01*
X-41811Y-6289D01*
X-41600Y-6317D01*
X-41389Y-6289D01*
X-41260Y-6236D01*
X-40823Y-6673D01*
X-40732Y-6734D01*
X-40625Y-6755D01*
X-40625Y-6755D01*
X-39169D01*
X-39126Y-6882D01*
X-39178Y-6922D01*
X-39308Y-7091D01*
X-39389Y-7289D01*
X-39417Y-7500D01*
X-39389Y-7711D01*
X-39308Y-7909D01*
X-39178Y-8078D01*
X-39008Y-8208D01*
X-38811Y-8289D01*
X-38600Y-8317D01*
X-38389Y-8289D01*
X-38370Y-8281D01*
X-38343Y-8288D01*
X-38236Y-8363D01*
X-38211Y-8488D01*
X-38112Y-8637D01*
X-37991Y-8718D01*
X-38020Y-8845D01*
X-39859D01*
X-40864Y-7840D01*
X-40811Y-7711D01*
X-40783Y-7500D01*
X-40811Y-7289D01*
X-40892Y-7091D01*
X-41022Y-6922D01*
X-41192Y-6792D01*
X-41389Y-6711D01*
X-41600Y-6683D01*
X-41811Y-6711D01*
X-42008Y-6792D01*
X-42178Y-6922D01*
X-42308Y-7091D01*
X-42389Y-7289D01*
X-42417Y-7500D01*
X-42389Y-7711D01*
X-42308Y-7909D01*
X-42178Y-8078D01*
X-42008Y-8208D01*
X-41811Y-8289D01*
X-41600Y-8317D01*
X-41389Y-8289D01*
X-41260Y-8236D01*
X-40173Y-9323D01*
X-40082Y-9384D01*
X-39975Y-9405D01*
X-36756D01*
X-30193Y-15969D01*
Y-17329D01*
X-30305Y-17389D01*
X-30324Y-17376D01*
X-30500Y-17341D01*
X-30676Y-17376D01*
X-30824Y-17476D01*
X-30861Y-17530D01*
X-31014D01*
X-31051Y-17476D01*
X-31199Y-17376D01*
X-31375Y-17341D01*
X-31551Y-17376D01*
X-31699Y-17476D01*
X-31799Y-17624D01*
X-31834Y-17800D01*
X-31799Y-17976D01*
X-31699Y-18124D01*
X-31551Y-18224D01*
X-31375Y-18259D01*
X-31308Y-18245D01*
X-31196Y-18358D01*
X-31244Y-18475D01*
X-31625D01*
Y-18450D01*
X-32050D01*
Y-18900D01*
X-32150D01*
Y-19000D01*
X-32675D01*
Y-19350D01*
X-32675Y-19350D01*
X-32675D01*
X-32680Y-19475D01*
X-33220D01*
Y-16541D01*
X-32912Y-16233D01*
X-32859Y-16198D01*
X-32419Y-15758D01*
X-32275Y-15786D01*
X-32051Y-15742D01*
X-31860Y-15615D01*
X-31733Y-15424D01*
X-31689Y-15200D01*
X-31733Y-14976D01*
X-31860Y-14785D01*
X-32051Y-14658D01*
X-32275Y-14614D01*
X-32433Y-14645D01*
X-34552Y-12527D01*
X-34643Y-12466D01*
X-34750Y-12445D01*
X-41434D01*
X-42620Y-11259D01*
Y-9625D01*
X-42641Y-9518D01*
X-42702Y-9427D01*
X-44127Y-8002D01*
X-44218Y-7941D01*
X-44325Y-7920D01*
X-46468D01*
X-48607Y-5780D01*
X-48567Y-5653D01*
X-46651D01*
X-46639Y-5651D01*
X-46627Y-5652D01*
X-46605Y-5644D01*
X-46582Y-5640D01*
X-46573Y-5633D01*
X-46561Y-5630D01*
X-46544Y-5614D01*
X-46524Y-5601D01*
X-46518Y-5591D01*
X-46509Y-5584D01*
X-46499Y-5563D01*
X-46486Y-5543D01*
X-46485Y-5543D01*
X-46392Y-5582D01*
X-46209Y-5606D01*
X-46026Y-5582D01*
X-45933Y-5543D01*
X-45932Y-5543D01*
X-45919Y-5563D01*
X-45909Y-5584D01*
X-45900Y-5591D01*
X-45894Y-5601D01*
X-45874Y-5614D01*
X-45857Y-5630D01*
X-45845Y-5633D01*
X-45836Y-5640D01*
X-45813Y-5644D01*
X-45791Y-5652D01*
X-45779Y-5651D01*
X-45767Y-5653D01*
X-43684D01*
X-43616Y-5640D01*
X-43558Y-5601D01*
X-43519Y-5543D01*
X-43506Y-5475D01*
X-43506Y-2562D01*
X-43508Y-2551D01*
X-43507Y-2539D01*
X-43515Y-2517D01*
X-43519Y-2494D01*
X-43526Y-2484D01*
X-43529Y-2473D01*
X-43545Y-2455D01*
X-43558Y-2436D01*
X-43568Y-2429D01*
X-43575Y-2421D01*
X-43596Y-2410D01*
X-43614Y-2398D01*
X-43576Y-2306D01*
X-43568Y-2243D01*
X-43562Y-2211D01*
X-43563Y-2202D01*
X-43560Y-2193D01*
X-43558Y-2170D01*
X-43553Y-2131D01*
Y-1219D01*
X-43559Y-1178D01*
X-43560Y-1159D01*
X-43562Y-1152D01*
X-43562Y-1145D01*
X-43569Y-1100D01*
X-43569Y-1098D01*
X-43576Y-1044D01*
X-43600Y-987D01*
X-43560Y-912D01*
X-43509Y-876D01*
X-43434Y-885D01*
X-43105Y-842D01*
X-42798Y-715D01*
X-42556Y-529D01*
X-21477D01*
X-21235Y-715D01*
D02*
G37*
G36*
X-35589Y-25100D02*
Y-34689D01*
X-35716Y-34757D01*
X-35799Y-34701D01*
X-35975Y-34666D01*
X-36151Y-34701D01*
X-36299Y-34801D01*
X-36329Y-34845D01*
X-36650D01*
X-36757Y-34866D01*
X-36848Y-34927D01*
X-38716Y-36795D01*
X-39884D01*
X-40736Y-35942D01*
X-40700Y-35855D01*
Y-35300D01*
X-40600D01*
Y-35200D01*
X-40150D01*
Y-34775D01*
X-40175D01*
Y-34630D01*
X-39925D01*
Y-35075D01*
X-38725D01*
Y-34880D01*
X-38529D01*
X-38499Y-34924D01*
X-38351Y-35024D01*
X-38175Y-35059D01*
X-37999Y-35024D01*
X-37851Y-34924D01*
X-37751Y-34776D01*
X-37716Y-34600D01*
X-37751Y-34424D01*
X-37851Y-34276D01*
X-37999Y-34176D01*
X-38175Y-34141D01*
X-38351Y-34176D01*
X-38499Y-34276D01*
X-38529Y-34320D01*
X-38725D01*
Y-33925D01*
X-39925D01*
Y-34070D01*
X-40175D01*
Y-33850D01*
X-40175D01*
Y-33630D01*
X-39925D01*
Y-33775D01*
X-38725D01*
Y-33380D01*
X-38429D01*
X-38340Y-33515D01*
X-38149Y-33642D01*
X-37925Y-33686D01*
X-37701Y-33642D01*
X-37510Y-33515D01*
X-37383Y-33324D01*
X-37339Y-33100D01*
X-37383Y-32876D01*
X-37510Y-32685D01*
X-37701Y-32558D01*
X-37925Y-32514D01*
X-38149Y-32558D01*
X-38340Y-32685D01*
X-38429Y-32820D01*
X-38725D01*
Y-32625D01*
X-39925D01*
Y-33070D01*
X-40175D01*
Y-32925D01*
X-40150D01*
Y-32500D01*
X-40600D01*
Y-32300D01*
X-40150D01*
Y-31875D01*
X-40638D01*
X-40686Y-31758D01*
X-40041Y-31112D01*
X-39992Y-31160D01*
X-39971Y-31180D01*
X-39969Y-31183D01*
X-39950Y-31298D01*
X-39950Y-31327D01*
Y-31327D01*
Y-31327D01*
Y-31700D01*
X-39425D01*
Y-31200D01*
X-39823D01*
X-39823D01*
X-39823D01*
X-39852Y-31200D01*
X-39967Y-31181D01*
X-39970Y-31179D01*
X-39989Y-31159D01*
X-40038Y-31109D01*
X-39902Y-30973D01*
X-39841Y-30882D01*
X-39820Y-30775D01*
Y-30654D01*
X-39685Y-30565D01*
X-39558Y-30374D01*
X-39529Y-30225D01*
X-38777D01*
X-38700Y-30225D01*
X-38675D01*
X-38650D01*
X-38573Y-30225D01*
X-37700D01*
Y-30055D01*
X-36854D01*
X-36824Y-30099D01*
X-36676Y-30199D01*
X-36500Y-30234D01*
X-36324Y-30199D01*
X-36176Y-30099D01*
X-36076Y-29951D01*
X-36041Y-29775D01*
X-36076Y-29599D01*
X-36176Y-29451D01*
X-36249Y-29401D01*
Y-29249D01*
X-36176Y-29199D01*
X-36076Y-29051D01*
X-36041Y-28875D01*
X-36076Y-28699D01*
X-36176Y-28551D01*
X-36324Y-28451D01*
X-36500Y-28416D01*
X-36676Y-28451D01*
X-36824Y-28551D01*
X-36854Y-28595D01*
X-37700D01*
Y-28425D01*
X-38573D01*
X-38650Y-28425D01*
X-38675D01*
X-38700D01*
X-38777Y-28425D01*
X-39650D01*
X-39650Y-28425D01*
Y-28425D01*
X-39769Y-28405D01*
X-39876Y-28333D01*
X-40100Y-28289D01*
X-40324Y-28333D01*
X-40515Y-28460D01*
X-40628Y-28631D01*
X-40715Y-28649D01*
X-40770Y-28647D01*
X-40801Y-28602D01*
X-40949Y-28502D01*
X-41125Y-28467D01*
X-41301Y-28502D01*
X-41449Y-28602D01*
X-41479Y-28646D01*
X-43265D01*
Y-28326D01*
X-43300Y-28151D01*
X-43346Y-28082D01*
X-43278Y-27955D01*
X-37775D01*
X-37668Y-27934D01*
X-37577Y-27873D01*
X-37327Y-27623D01*
X-37266Y-27532D01*
X-37245Y-27425D01*
Y-26850D01*
X-37050D01*
Y-26680D01*
X-36975D01*
X-36868Y-26659D01*
X-36777Y-26598D01*
X-36077Y-25898D01*
X-36016Y-25807D01*
X-35995Y-25700D01*
Y-25454D01*
X-35860Y-25365D01*
X-35733Y-25174D01*
X-35716Y-25088D01*
X-35589Y-25100D01*
D02*
G37*
G36*
X-21980Y-32011D02*
Y-32742D01*
X-22079Y-32823D01*
X-22125Y-32814D01*
X-22349Y-32858D01*
X-22540Y-32985D01*
X-22667Y-33176D01*
X-22711Y-33400D01*
X-22667Y-33624D01*
X-22540Y-33815D01*
X-22349Y-33942D01*
X-22125Y-33986D01*
X-21901Y-33942D01*
X-21757Y-33846D01*
X-21630Y-33906D01*
Y-34546D01*
X-21765Y-34635D01*
X-21892Y-34826D01*
X-21936Y-35050D01*
X-21892Y-35274D01*
X-21765Y-35465D01*
X-21574Y-35592D01*
X-21350Y-35636D01*
X-21126Y-35592D01*
X-20935Y-35465D01*
X-20808Y-35274D01*
X-20764Y-35050D01*
X-20808Y-34826D01*
X-20935Y-34635D01*
X-21070Y-34546D01*
Y-34010D01*
X-20943Y-33950D01*
X-20920Y-33968D01*
X-20936Y-34050D01*
X-20892Y-34274D01*
X-20765Y-34465D01*
X-20574Y-34592D01*
X-20350Y-34636D01*
X-20126Y-34592D01*
X-19935Y-34465D01*
X-19832Y-34310D01*
X-19705Y-34349D01*
Y-43584D01*
X-29701Y-53579D01*
X-29823Y-53543D01*
X-29826Y-53524D01*
X-29926Y-53376D01*
X-30074Y-53276D01*
X-30250Y-53241D01*
X-30295Y-53205D01*
Y-49477D01*
X-30168Y-49405D01*
X-30025Y-49434D01*
X-29849Y-49399D01*
X-29701Y-49299D01*
X-29601Y-49151D01*
X-29566Y-48975D01*
X-29601Y-48799D01*
X-29701Y-48651D01*
X-29849Y-48551D01*
X-29888Y-48543D01*
X-29925Y-48422D01*
X-23333Y-41830D01*
X-23175Y-41861D01*
X-22951Y-41817D01*
X-22760Y-41690D01*
X-22633Y-41499D01*
X-22589Y-41275D01*
X-22633Y-41051D01*
X-22760Y-40860D01*
X-22895Y-40771D01*
Y-39250D01*
X-22725D01*
Y-38300D01*
X-22725D01*
Y-38250D01*
X-22725D01*
Y-37300D01*
X-22895D01*
Y-37000D01*
X-22916Y-36893D01*
X-22977Y-36802D01*
X-23045Y-36734D01*
Y-32106D01*
X-22918Y-32046D01*
X-22774Y-32142D01*
X-22550Y-32186D01*
X-22326Y-32142D01*
X-22135Y-32015D01*
X-22107Y-31973D01*
X-21980Y-32011D01*
D02*
G37*
G36*
X-26524Y-24725D02*
X-26499Y-24851D01*
X-26399Y-24999D01*
X-26355Y-25029D01*
Y-25275D01*
X-26350Y-25302D01*
Y-25925D01*
X-26350D01*
Y-25975D01*
X-26350D01*
Y-26825D01*
X-25425D01*
Y-26850D01*
X-25000D01*
Y-26400D01*
X-24900D01*
Y-26300D01*
X-24375D01*
Y-26077D01*
X-24375Y-25950D01*
X-24375Y-25950D01*
Y-25950D01*
X-24375D01*
X-24375Y-25950D01*
Y-25569D01*
X-24258Y-25521D01*
X-23045Y-26733D01*
X-23059Y-26800D01*
X-23024Y-26976D01*
X-22924Y-27124D01*
X-22836Y-27184D01*
X-22831Y-27199D01*
X-22844Y-27330D01*
X-22949Y-27401D01*
X-22979Y-27445D01*
X-23275D01*
X-23382Y-27466D01*
X-23473Y-27527D01*
X-23873Y-27927D01*
X-23934Y-28018D01*
X-23955Y-28125D01*
Y-36684D01*
X-24248Y-36977D01*
X-24309Y-37068D01*
X-24330Y-37175D01*
Y-37300D01*
X-24500D01*
Y-38250D01*
X-24500D01*
Y-38300D01*
X-24500D01*
Y-39250D01*
X-24330D01*
Y-39583D01*
X-24465Y-39673D01*
X-24592Y-39863D01*
X-24636Y-40088D01*
X-24592Y-40312D01*
X-24465Y-40502D01*
X-24330Y-40592D01*
Y-41284D01*
X-31223Y-48177D01*
X-31284Y-48268D01*
X-31305Y-48375D01*
Y-53621D01*
X-31349Y-53651D01*
X-31449Y-53799D01*
X-31484Y-53975D01*
X-31460Y-54093D01*
X-31544Y-54220D01*
X-31786D01*
X-31854Y-54093D01*
X-31826Y-54051D01*
X-31791Y-53875D01*
X-31826Y-53699D01*
X-31926Y-53551D01*
X-32074Y-53451D01*
X-32250Y-53416D01*
X-32426Y-53451D01*
X-32574Y-53551D01*
X-32604Y-53595D01*
X-34520D01*
X-34627Y-53616D01*
X-34718Y-53677D01*
X-36437Y-55395D01*
X-36554Y-55333D01*
X-36543Y-55278D01*
X-36578Y-55102D01*
X-36677Y-54953D01*
X-36720Y-54925D01*
Y-53816D01*
X-34245Y-51342D01*
X-34184Y-51251D01*
X-34163Y-51143D01*
Y-47611D01*
X-34036Y-47568D01*
X-33996Y-47621D01*
X-33850Y-47732D01*
X-33681Y-47802D01*
X-33500Y-47826D01*
X-33490D01*
X-33309Y-47802D01*
X-33139Y-47732D01*
X-32994Y-47621D01*
X-32939Y-47549D01*
X-32781D01*
X-32726Y-47621D01*
X-32581Y-47732D01*
X-32411Y-47802D01*
X-32230Y-47826D01*
X-32220D01*
X-32039Y-47802D01*
X-31869Y-47732D01*
X-31724Y-47621D01*
X-31613Y-47475D01*
X-31543Y-47306D01*
X-31519Y-47125D01*
X-31543Y-46944D01*
X-31573Y-46870D01*
X-29777Y-45073D01*
X-29777Y-45073D01*
X-29716Y-44982D01*
X-29695Y-44875D01*
X-29695Y-44875D01*
Y-27016D01*
X-29320Y-26641D01*
X-29193Y-26694D01*
Y-27021D01*
X-29327Y-27110D01*
X-29454Y-27301D01*
X-29499Y-27525D01*
X-29454Y-27749D01*
X-29327Y-27940D01*
X-29193Y-28029D01*
Y-42113D01*
X-29249Y-42151D01*
X-29349Y-42299D01*
X-29384Y-42475D01*
X-29349Y-42651D01*
X-29249Y-42799D01*
X-29101Y-42899D01*
X-28925Y-42934D01*
X-28749Y-42899D01*
X-28601Y-42799D01*
X-28501Y-42651D01*
X-28466Y-42475D01*
X-28501Y-42299D01*
X-28601Y-42151D01*
X-28632Y-42129D01*
Y-36339D01*
X-28505Y-36286D01*
X-27772Y-37020D01*
X-27802Y-37094D01*
X-27826Y-37275D01*
X-27802Y-37456D01*
X-27732Y-37625D01*
X-27621Y-37771D01*
X-27476Y-37882D01*
X-27306Y-37952D01*
X-27125Y-37976D01*
X-27115D01*
X-26934Y-37952D01*
X-26764Y-37882D01*
X-26619Y-37771D01*
X-26564Y-37699D01*
X-26406D01*
X-26351Y-37771D01*
X-26205Y-37882D01*
X-26036Y-37952D01*
X-25855Y-37976D01*
X-25845D01*
X-25664Y-37952D01*
X-25494Y-37882D01*
X-25349Y-37771D01*
X-25238Y-37625D01*
X-25168Y-37456D01*
X-25144Y-37275D01*
X-25168Y-37094D01*
X-25238Y-36924D01*
X-25349Y-36779D01*
X-25494Y-36668D01*
X-25664Y-36598D01*
X-25845Y-36574D01*
X-25855D01*
X-26036Y-36598D01*
X-26103Y-36625D01*
X-27295Y-35434D01*
Y-29150D01*
X-27075D01*
Y-28000D01*
X-27075D01*
Y-27950D01*
X-27075D01*
Y-26800D01*
X-27295D01*
Y-26679D01*
X-27160Y-26590D01*
X-27033Y-26399D01*
X-26989Y-26175D01*
X-27033Y-25951D01*
X-27160Y-25760D01*
X-27351Y-25633D01*
X-27436Y-25616D01*
X-27473Y-25495D01*
X-26653Y-24675D01*
X-26524Y-24725D01*
D02*
G37*
G36*
X-8237Y-39621D02*
X-8004Y-39924D01*
X-8004Y-39928D01*
X-8046Y-40052D01*
X-8596D01*
X-8626Y-40008D01*
X-8774Y-39909D01*
X-8950Y-39874D01*
X-9126Y-39909D01*
X-9274Y-40008D01*
X-9374Y-40157D01*
X-9409Y-40333D01*
X-9374Y-40508D01*
X-9274Y-40657D01*
X-9126Y-40756D01*
X-8950Y-40791D01*
X-8774Y-40756D01*
X-8626Y-40657D01*
X-8596Y-40613D01*
X-7883D01*
X-7775Y-40592D01*
X-7733Y-40563D01*
X-7658Y-40666D01*
X-7701Y-40699D01*
X-7865Y-40913D01*
X-7969Y-41162D01*
X-8004Y-41430D01*
X-7969Y-41698D01*
X-7865Y-41947D01*
X-7701Y-42161D01*
X-7487Y-42325D01*
X-7263Y-42418D01*
X-7262Y-42525D01*
X-7268Y-42547D01*
X-7349Y-42557D01*
X-7701Y-42703D01*
X-8004Y-42936D01*
X-8237Y-43239D01*
X-8247Y-43264D01*
X-8595D01*
X-8778Y-43288D01*
X-8948Y-43359D01*
X-9094Y-43471D01*
X-16200Y-50576D01*
X-16375Y-50541D01*
X-16551Y-50576D01*
X-16699Y-50676D01*
X-16799Y-50824D01*
X-16834Y-51000D01*
X-16823Y-51052D01*
X-23041Y-57270D01*
X-26330D01*
X-26379Y-57152D01*
X-10576Y-41349D01*
X-10464Y-41203D01*
X-10393Y-41033D01*
X-10369Y-40850D01*
Y-40692D01*
X-9480Y-39803D01*
X-9480Y-39803D01*
X-9273Y-39596D01*
X-8247D01*
X-8237Y-39621D01*
D02*
G37*
G36*
X-17431Y-9462D02*
Y-10125D01*
X-17550D01*
Y-10269D01*
X-18131D01*
Y-9973D01*
X-19131D01*
Y-10925D01*
X-19258Y-10992D01*
X-19278Y-10979D01*
Y-9675D01*
Y-8650D01*
X-19303Y-8523D01*
X-19375Y-8416D01*
X-19658Y-8133D01*
X-19605Y-8006D01*
X-18887D01*
X-17431Y-9462D01*
D02*
G37*
G36*
X-22675Y-3725D02*
X-21725D01*
Y-3725D01*
X-21675D01*
Y-3725D01*
X-20725D01*
Y-3676D01*
X-20598Y-3624D01*
X-20380Y-3842D01*
X-20411Y-4000D01*
X-20367Y-4224D01*
X-20240Y-4415D01*
X-20049Y-4542D01*
X-19825Y-4586D01*
X-19667Y-4555D01*
X-19280Y-4941D01*
Y-5139D01*
X-19407Y-5177D01*
X-19435Y-5135D01*
X-19626Y-5008D01*
X-19850Y-4964D01*
X-20074Y-5008D01*
X-20265Y-5135D01*
X-20320Y-5219D01*
X-20725D01*
Y-5125D01*
X-20769D01*
Y-4875D01*
X-20725D01*
Y-3975D01*
X-21573D01*
X-21583D01*
X-21700Y-3950D01*
X-21719D01*
X-21792Y-3950D01*
X-22100D01*
Y-4425D01*
Y-4900D01*
X-21792D01*
X-21719Y-4900D01*
X-21700D01*
X-21583Y-4875D01*
X-21573D01*
X-21431D01*
Y-5125D01*
X-21650D01*
Y-5100D01*
X-22075D01*
Y-5550D01*
Y-6000D01*
X-21650D01*
Y-5975D01*
X-21506D01*
Y-6138D01*
X-21584Y-6216D01*
X-21656Y-6323D01*
X-21681Y-6450D01*
Y-6675D01*
X-22375D01*
Y-7069D01*
X-22502Y-7132D01*
X-22555Y-7092D01*
Y-6463D01*
X-22581Y-6336D01*
X-22653Y-6229D01*
X-22889Y-5992D01*
X-22966Y-5916D01*
X-23073Y-5844D01*
X-23150Y-5829D01*
Y-5300D01*
X-23744D01*
Y-5250D01*
X-23769Y-5123D01*
X-23841Y-5016D01*
X-24014Y-4842D01*
X-24131Y-4725D01*
X-23900D01*
Y-4424D01*
X-23818Y-4408D01*
X-23727Y-4347D01*
X-22935Y-3555D01*
X-22675D01*
Y-3725D01*
D02*
G37*
G36*
X-34724Y-47896D02*
Y-51027D01*
X-37198Y-53502D01*
X-37259Y-53593D01*
X-37280Y-53700D01*
Y-54923D01*
X-37326Y-54953D01*
X-37426Y-55102D01*
X-37461Y-55278D01*
X-37426Y-55453D01*
X-37326Y-55602D01*
X-37177Y-55702D01*
X-37002Y-55737D01*
X-36947Y-55726D01*
X-36884Y-55843D01*
X-38573Y-57532D01*
X-38634Y-57623D01*
X-38655Y-57730D01*
Y-61975D01*
X-38634Y-62082D01*
X-38573Y-62173D01*
X-37673Y-63073D01*
X-37582Y-63134D01*
X-37475Y-63155D01*
X-32998D01*
X-32891Y-63134D01*
X-32800Y-63073D01*
X-31632Y-61906D01*
X-31204D01*
X-31136Y-62033D01*
X-31174Y-62089D01*
X-31209Y-62265D01*
X-31198Y-62317D01*
X-32351Y-63470D01*
X-39409D01*
X-41595Y-61284D01*
Y-54601D01*
X-34841Y-47848D01*
X-34724Y-47896D01*
D02*
G37*
G36*
X-47280Y-12125D02*
X-47259Y-12232D01*
X-47198Y-12323D01*
X-46514Y-13008D01*
X-46562Y-13125D01*
X-47050D01*
Y-13619D01*
X-47475D01*
Y-13550D01*
X-49125D01*
Y-14500D01*
X-48456D01*
Y-14955D01*
X-48540Y-15010D01*
X-48667Y-15201D01*
X-48711Y-15425D01*
X-48667Y-15649D01*
X-48540Y-15840D01*
X-48456Y-15895D01*
Y-16050D01*
X-48725D01*
Y-16294D01*
X-48900D01*
Y-16075D01*
X-50900D01*
Y-16400D01*
X-50875D01*
Y-16944D01*
X-50925D01*
X-51052Y-16969D01*
X-51159Y-17041D01*
X-51534Y-17416D01*
X-51606Y-17523D01*
X-51631Y-17650D01*
Y-18875D01*
X-51725D01*
Y-19452D01*
X-51756Y-19498D01*
X-51781Y-19625D01*
Y-20330D01*
X-51865Y-20385D01*
X-51883Y-20414D01*
X-52031Y-20425D01*
X-52125Y-20331D01*
Y-20050D01*
X-52725D01*
X-52778Y-19925D01*
X-52721Y-19862D01*
X-52600Y-19886D01*
X-52376Y-19842D01*
X-52185Y-19715D01*
X-52058Y-19524D01*
X-52014Y-19300D01*
X-52058Y-19076D01*
X-52185Y-18885D01*
X-52320Y-18796D01*
Y-17725D01*
X-52341Y-17618D01*
X-52402Y-17527D01*
X-52852Y-17077D01*
X-52943Y-17016D01*
X-53050Y-16995D01*
X-53175D01*
Y-16875D01*
Y-16400D01*
X-53150D01*
Y-16075D01*
X-54150D01*
Y-15875D01*
X-53150D01*
Y-15550D01*
X-54233D01*
X-54246Y-15423D01*
X-54124Y-15399D01*
X-53976Y-15299D01*
X-53876Y-15151D01*
X-53841Y-14975D01*
X-53876Y-14799D01*
X-53976Y-14651D01*
X-54020Y-14621D01*
Y-14500D01*
X-53475D01*
Y-13550D01*
X-53624D01*
X-53676Y-13423D01*
X-53142Y-12889D01*
X-53025Y-12937D01*
Y-13550D01*
X-51375D01*
Y-12600D01*
X-51640D01*
X-51689Y-12483D01*
X-51566Y-12359D01*
X-51388Y-12181D01*
X-51220D01*
X-51165Y-12265D01*
X-50974Y-12392D01*
X-50750Y-12436D01*
X-50526Y-12392D01*
X-50335Y-12265D01*
X-50239Y-12255D01*
X-50134Y-12359D01*
X-50027Y-12431D01*
X-49900Y-12456D01*
X-49125D01*
Y-12600D01*
X-47475D01*
Y-11650D01*
X-47620D01*
Y-11300D01*
X-47425D01*
Y-10925D01*
X-47280D01*
Y-12125D01*
D02*
G37*
G36*
X-45996Y-658D02*
X-46002Y-674D01*
X-46006Y-691D01*
X-46008Y-708D01*
X-46009Y-725D01*
Y-1035D01*
X-46011Y-1039D01*
X-46019Y-1075D01*
X-46026Y-1110D01*
X-46030Y-1146D01*
X-46033Y-1183D01*
X-46034Y-1219D01*
Y-1575D01*
X-45834D01*
Y-725D01*
X-44234D01*
X-44186Y-729D01*
X-44133Y-736D01*
X-44080Y-751D01*
X-44037Y-767D01*
X-43995Y-787D01*
X-43951Y-815D01*
X-43913Y-844D01*
X-43874Y-878D01*
X-43845Y-914D01*
X-43817Y-951D01*
X-43793Y-992D01*
X-43773Y-1034D01*
X-43757Y-1076D01*
X-43745Y-1127D01*
X-43738Y-1172D01*
X-43734Y-1225D01*
Y-2125D01*
X-43738Y-2180D01*
X-43746Y-2225D01*
X-43758Y-2275D01*
X-43774Y-2315D01*
X-43787Y-2348D01*
X-43812Y-2391D01*
X-43838Y-2428D01*
X-43869Y-2466D01*
X-43914Y-2507D01*
X-43954Y-2537D01*
X-44000Y-2566D01*
X-44053Y-2590D01*
X-44140Y-2616D01*
X-44234Y-2625D01*
X-44684D01*
Y-2825D01*
X-44228D01*
X-44192Y-2824D01*
X-44155Y-2821D01*
X-44119Y-2817D01*
X-44084Y-2810D01*
X-44048Y-2802D01*
X-44013Y-2791D01*
X-43979Y-2779D01*
X-43946Y-2765D01*
X-43913Y-2750D01*
X-43881Y-2732D01*
X-43850Y-2713D01*
X-43820Y-2693D01*
X-43791Y-2671D01*
X-43763Y-2647D01*
X-43737Y-2622D01*
X-43712Y-2596D01*
X-43688Y-2568D01*
X-43684Y-2562D01*
X-43684Y-5475D01*
X-45767D01*
X-45753Y-5464D01*
X-45724Y-5439D01*
X-45696Y-5413D01*
X-45670Y-5385D01*
X-45645Y-5356D01*
X-45622Y-5326D01*
X-45601Y-5295D01*
X-45581Y-5263D01*
X-45563Y-5229D01*
X-45546Y-5195D01*
X-45532Y-5160D01*
X-45519Y-5124D01*
X-45508Y-5088D01*
X-45500Y-5051D01*
X-45493Y-5013D01*
X-45488Y-4976D01*
X-45485Y-4938D01*
X-45484Y-4900D01*
X-46934D01*
X-46933Y-4938D01*
X-46930Y-4976D01*
X-46925Y-5013D01*
X-46918Y-5051D01*
X-46910Y-5088D01*
X-46899Y-5124D01*
X-46886Y-5160D01*
X-46872Y-5195D01*
X-46855Y-5229D01*
X-46837Y-5263D01*
X-46817Y-5295D01*
X-46796Y-5326D01*
X-46773Y-5356D01*
X-46748Y-5385D01*
X-46722Y-5413D01*
X-46694Y-5439D01*
X-46665Y-5464D01*
X-46651Y-5475D01*
X-48694D01*
X-48694Y-5475D01*
X-48710Y-5450D01*
X-48727Y-5426D01*
X-48745Y-5403D01*
X-48766Y-5382D01*
X-48787Y-5361D01*
X-48810Y-5343D01*
X-48834Y-5326D01*
X-48859Y-5310D01*
X-48885Y-5296D01*
X-48912Y-5284D01*
X-48939Y-5274D01*
X-48967Y-5265D01*
X-48996Y-5258D01*
X-49025Y-5254D01*
X-49055Y-5251D01*
X-49084Y-5250D01*
X-49113Y-5251D01*
X-49143Y-5254D01*
X-49172Y-5258D01*
X-49201Y-5265D01*
X-49229Y-5274D01*
X-49256Y-5284D01*
X-49283Y-5296D01*
X-49309Y-5310D01*
X-49334Y-5326D01*
X-49358Y-5343D01*
X-49381Y-5361D01*
X-49402Y-5382D01*
X-49423Y-5403D01*
X-49441Y-5426D01*
X-49458Y-5450D01*
X-49474Y-5475D01*
X-49474Y-5475D01*
X-50217D01*
X-50203Y-5464D01*
X-50174Y-5439D01*
X-50146Y-5413D01*
X-50120Y-5385D01*
X-50095Y-5356D01*
X-50072Y-5326D01*
X-50051Y-5295D01*
X-50031Y-5263D01*
X-50013Y-5229D01*
X-49996Y-5195D01*
X-49982Y-5160D01*
X-49969Y-5124D01*
X-49958Y-5088D01*
X-49950Y-5051D01*
X-49943Y-5013D01*
X-49938Y-4976D01*
X-49935Y-4938D01*
X-49934Y-4900D01*
X-51384D01*
X-51383Y-4938D01*
X-51380Y-4976D01*
X-51375Y-5013D01*
X-51368Y-5051D01*
X-51360Y-5088D01*
X-51349Y-5124D01*
X-51336Y-5160D01*
X-51322Y-5195D01*
X-51305Y-5229D01*
X-51287Y-5263D01*
X-51267Y-5295D01*
X-51246Y-5326D01*
X-51223Y-5356D01*
X-51198Y-5385D01*
X-51172Y-5413D01*
X-51144Y-5439D01*
X-51115Y-5464D01*
X-51101Y-5475D01*
X-53184D01*
Y-2562D01*
X-53180Y-2568D01*
X-53156Y-2596D01*
X-53131Y-2622D01*
X-53105Y-2647D01*
X-53077Y-2671D01*
X-53048Y-2693D01*
X-53018Y-2713D01*
X-52987Y-2732D01*
X-52955Y-2750D01*
X-52922Y-2765D01*
X-52889Y-2779D01*
X-52855Y-2791D01*
X-52820Y-2802D01*
X-52784Y-2810D01*
X-52749Y-2817D01*
X-52713Y-2821D01*
X-52676Y-2824D01*
X-52640Y-2825D01*
X-52184D01*
Y-2625D01*
X-52634D01*
X-52682Y-2621D01*
X-52735Y-2614D01*
X-52788Y-2599D01*
X-52831Y-2583D01*
X-52873Y-2563D01*
X-52917Y-2535D01*
X-52955Y-2506D01*
X-52994Y-2472D01*
X-53023Y-2436D01*
X-53051Y-2399D01*
X-53075Y-2358D01*
X-53095Y-2316D01*
X-53111Y-2274D01*
X-53123Y-2223D01*
X-53130Y-2178D01*
X-53134Y-2125D01*
Y-1225D01*
X-53130Y-1170D01*
X-53122Y-1125D01*
X-53110Y-1075D01*
X-53094Y-1035D01*
X-53081Y-1002D01*
X-53056Y-959D01*
X-53030Y-922D01*
X-52999Y-884D01*
X-52954Y-843D01*
X-52914Y-813D01*
X-52868Y-784D01*
X-52815Y-760D01*
X-52728Y-734D01*
X-52634Y-725D01*
X-51034D01*
Y-1575D01*
X-50834D01*
Y-1219D01*
X-50835Y-1183D01*
X-50838Y-1146D01*
X-50842Y-1110D01*
X-50849Y-1075D01*
X-50857Y-1039D01*
X-50859Y-1035D01*
Y-725D01*
X-50860Y-708D01*
X-50862Y-691D01*
X-50866Y-674D01*
X-50872Y-658D01*
X-50873Y-657D01*
X-45995D01*
X-45996Y-658D01*
D02*
G37*
G36*
X-40050Y-20282D02*
Y-20525D01*
X-39575D01*
Y-20725D01*
X-40050D01*
Y-21033D01*
X-40050Y-21106D01*
Y-21125D01*
X-40025Y-21242D01*
Y-21252D01*
Y-22100D01*
X-40121Y-22175D01*
X-40225D01*
Y-22575D01*
X-39750D01*
Y-22775D01*
X-40225D01*
Y-23083D01*
X-40225Y-23156D01*
Y-23175D01*
X-40216Y-23217D01*
X-40305Y-23341D01*
X-40310Y-23344D01*
X-40975D01*
X-41102Y-23369D01*
X-41209Y-23441D01*
X-41408Y-23639D01*
X-41525Y-23590D01*
Y-22375D01*
X-41525D01*
X-41525Y-22300D01*
X-41525D01*
Y-21400D01*
X-42388D01*
X-42485Y-21283D01*
X-42481Y-21256D01*
X-42089Y-20865D01*
X-40751D01*
Y-20192D01*
X-40140D01*
X-40050Y-20282D01*
D02*
G37*
G36*
X-43500Y-21472D02*
Y-21750D01*
X-43000D01*
Y-21950D01*
X-43500D01*
Y-22325D01*
X-43578Y-22420D01*
X-43640Y-22460D01*
X-43767Y-22651D01*
X-43811Y-22875D01*
X-43767Y-23099D01*
X-43640Y-23290D01*
X-43449Y-23417D01*
X-43225Y-23461D01*
X-43001Y-23417D01*
X-42810Y-23290D01*
X-42721Y-23155D01*
X-42475D01*
Y-24025D01*
X-41960D01*
X-41911Y-24142D01*
X-42348Y-24579D01*
X-42475Y-24527D01*
Y-24475D01*
X-43031D01*
X-43466Y-24041D01*
X-43573Y-23969D01*
X-43700Y-23944D01*
X-45075D01*
Y-22375D01*
X-45075D01*
X-45075Y-22275D01*
X-45075D01*
Y-21382D01*
X-43590D01*
X-43500Y-21472D01*
D02*
G37*
G36*
X-13162Y-658D02*
X-13168Y-674D01*
X-13172Y-691D01*
X-13174Y-708D01*
X-13175Y-725D01*
Y-1035D01*
X-13177Y-1039D01*
X-13185Y-1075D01*
X-13192Y-1110D01*
X-13196Y-1146D01*
X-13199Y-1183D01*
X-13200Y-1219D01*
Y-1575D01*
X-13000D01*
Y-725D01*
X-11400D01*
X-11352Y-729D01*
X-11299Y-736D01*
X-11246Y-751D01*
X-11203Y-767D01*
X-11161Y-787D01*
X-11117Y-815D01*
X-11079Y-844D01*
X-11040Y-878D01*
X-11011Y-914D01*
X-10983Y-951D01*
X-10959Y-992D01*
X-10939Y-1034D01*
X-10923Y-1076D01*
X-10911Y-1127D01*
X-10904Y-1172D01*
X-10900Y-1225D01*
Y-2125D01*
X-10904Y-2180D01*
X-10912Y-2225D01*
X-10924Y-2275D01*
X-10940Y-2315D01*
X-10953Y-2348D01*
X-10978Y-2391D01*
X-11004Y-2428D01*
X-11035Y-2466D01*
X-11080Y-2507D01*
X-11120Y-2537D01*
X-11166Y-2566D01*
X-11219Y-2590D01*
X-11306Y-2616D01*
X-11400Y-2625D01*
X-11850D01*
Y-2825D01*
X-11394D01*
X-11358Y-2824D01*
X-11321Y-2821D01*
X-11285Y-2817D01*
X-11250Y-2810D01*
X-11214Y-2802D01*
X-11179Y-2791D01*
X-11145Y-2779D01*
X-11112Y-2765D01*
X-11079Y-2750D01*
X-11047Y-2732D01*
X-11016Y-2713D01*
X-10986Y-2693D01*
X-10957Y-2671D01*
X-10929Y-2647D01*
X-10903Y-2622D01*
X-10878Y-2596D01*
X-10854Y-2568D01*
X-10850Y-2562D01*
X-10850Y-5475D01*
X-12933D01*
X-12919Y-5464D01*
X-12890Y-5439D01*
X-12862Y-5413D01*
X-12836Y-5385D01*
X-12811Y-5356D01*
X-12788Y-5326D01*
X-12767Y-5295D01*
X-12747Y-5263D01*
X-12729Y-5229D01*
X-12712Y-5195D01*
X-12698Y-5160D01*
X-12685Y-5124D01*
X-12674Y-5088D01*
X-12666Y-5051D01*
X-12659Y-5013D01*
X-12654Y-4976D01*
X-12651Y-4938D01*
X-12650Y-4900D01*
X-14100D01*
X-14099Y-4938D01*
X-14096Y-4976D01*
X-14091Y-5013D01*
X-14084Y-5051D01*
X-14076Y-5088D01*
X-14065Y-5124D01*
X-14052Y-5160D01*
X-14038Y-5195D01*
X-14021Y-5229D01*
X-14003Y-5263D01*
X-13983Y-5295D01*
X-13962Y-5326D01*
X-13939Y-5356D01*
X-13914Y-5385D01*
X-13888Y-5413D01*
X-13860Y-5439D01*
X-13831Y-5464D01*
X-13817Y-5475D01*
X-17383D01*
X-17369Y-5464D01*
X-17340Y-5439D01*
X-17312Y-5413D01*
X-17286Y-5385D01*
X-17261Y-5356D01*
X-17238Y-5326D01*
X-17217Y-5295D01*
X-17197Y-5263D01*
X-17179Y-5229D01*
X-17162Y-5195D01*
X-17148Y-5160D01*
X-17135Y-5124D01*
X-17124Y-5088D01*
X-17116Y-5051D01*
X-17109Y-5013D01*
X-17104Y-4976D01*
X-17101Y-4938D01*
X-17100Y-4900D01*
X-18550D01*
X-18549Y-4938D01*
X-18546Y-4976D01*
X-18541Y-5013D01*
X-18534Y-5051D01*
X-18526Y-5088D01*
X-18515Y-5124D01*
X-18502Y-5160D01*
X-18488Y-5195D01*
X-18471Y-5229D01*
X-18453Y-5263D01*
X-18433Y-5295D01*
X-18412Y-5326D01*
X-18389Y-5356D01*
X-18364Y-5385D01*
X-18338Y-5413D01*
X-18310Y-5439D01*
X-18281Y-5464D01*
X-18267Y-5475D01*
X-18511D01*
X-18725Y-5261D01*
Y-4825D01*
X-18726Y-4803D01*
X-18728Y-4782D01*
X-18732Y-4761D01*
X-18738Y-4740D01*
X-18741Y-4732D01*
X-18746Y-4720D01*
X-18755Y-4700D01*
X-18765Y-4681D01*
X-18777Y-4663D01*
X-18791Y-4646D01*
X-18805Y-4630D01*
X-19273Y-4162D01*
X-19272Y-4159D01*
X-19264Y-4128D01*
X-19258Y-4096D01*
X-19253Y-4064D01*
X-19251Y-4032D01*
X-19250Y-4000D01*
X-19251Y-3968D01*
X-19253Y-3936D01*
X-19258Y-3904D01*
X-19264Y-3872D01*
X-19272Y-3841D01*
X-19282Y-3810D01*
X-19294Y-3780D01*
X-19307Y-3750D01*
X-19322Y-3722D01*
X-19338Y-3694D01*
X-19356Y-3667D01*
X-19375Y-3641D01*
X-19396Y-3617D01*
X-19418Y-3593D01*
X-19442Y-3571D01*
X-19466Y-3550D01*
X-19492Y-3531D01*
X-19519Y-3513D01*
X-19547Y-3497D01*
X-19575Y-3482D01*
X-19605Y-3469D01*
X-19635Y-3457D01*
X-19666Y-3447D01*
X-19697Y-3439D01*
X-19729Y-3433D01*
X-19761Y-3428D01*
X-19793Y-3426D01*
X-19825Y-3425D01*
X-19857Y-3426D01*
X-19889Y-3428D01*
X-19921Y-3433D01*
X-19953Y-3439D01*
X-19984Y-3447D01*
X-19987Y-3448D01*
X-20350Y-3086D01*
Y-2562D01*
X-20346Y-2568D01*
X-20322Y-2596D01*
X-20297Y-2622D01*
X-20271Y-2647D01*
X-20243Y-2671D01*
X-20214Y-2693D01*
X-20184Y-2713D01*
X-20153Y-2732D01*
X-20121Y-2750D01*
X-20088Y-2765D01*
X-20055Y-2779D01*
X-20021Y-2791D01*
X-19986Y-2802D01*
X-19950Y-2810D01*
X-19915Y-2817D01*
X-19879Y-2821D01*
X-19842Y-2824D01*
X-19806Y-2825D01*
X-19350D01*
Y-2625D01*
X-19800D01*
X-19848Y-2621D01*
X-19901Y-2614D01*
X-19954Y-2599D01*
X-19997Y-2583D01*
X-20039Y-2563D01*
X-20083Y-2535D01*
X-20121Y-2506D01*
X-20160Y-2472D01*
X-20189Y-2436D01*
X-20217Y-2399D01*
X-20241Y-2358D01*
X-20261Y-2316D01*
X-20277Y-2274D01*
X-20289Y-2223D01*
X-20296Y-2178D01*
X-20300Y-2125D01*
Y-1225D01*
X-20296Y-1170D01*
X-20288Y-1125D01*
X-20276Y-1075D01*
X-20260Y-1035D01*
X-20247Y-1002D01*
X-20222Y-959D01*
X-20196Y-922D01*
X-20165Y-884D01*
X-20120Y-843D01*
X-20080Y-813D01*
X-20034Y-784D01*
X-19981Y-760D01*
X-19894Y-734D01*
X-19800Y-725D01*
X-18200D01*
Y-1575D01*
X-18000D01*
Y-1219D01*
X-18001Y-1183D01*
X-18004Y-1146D01*
X-18008Y-1110D01*
X-18015Y-1075D01*
X-18023Y-1039D01*
X-18025Y-1035D01*
Y-725D01*
X-18026Y-708D01*
X-18028Y-691D01*
X-18032Y-674D01*
X-18038Y-658D01*
X-18039Y-657D01*
X-13161D01*
X-13162Y-658D01*
D02*
G37*
G36*
X-17923Y-16623D02*
X-17832Y-16684D01*
X-17725Y-16705D01*
X-16454D01*
X-16424Y-16749D01*
X-16276Y-16849D01*
X-16100Y-16884D01*
X-15924Y-16849D01*
X-15776Y-16749D01*
X-15676Y-16601D01*
X-15641Y-16425D01*
X-15646Y-16402D01*
X-15549Y-16270D01*
X-15483Y-16263D01*
X-14923Y-16823D01*
X-14934Y-16875D01*
X-14899Y-17051D01*
X-14799Y-17199D01*
X-14727Y-17248D01*
X-14765Y-17375D01*
X-16225D01*
Y-19245D01*
X-16475D01*
Y-18900D01*
X-16425D01*
Y-18500D01*
X-16900D01*
Y-18300D01*
X-16425D01*
Y-17900D01*
X-16425D01*
X-16450Y-17875D01*
Y-16925D01*
X-17350D01*
Y-16925D01*
X-17375D01*
Y-16925D01*
X-18225D01*
X-18225Y-16925D01*
X-18350Y-16920D01*
X-18461Y-16776D01*
X-18644Y-16636D01*
X-18857Y-16548D01*
X-19085Y-16517D01*
X-19298Y-16545D01*
X-19346Y-16532D01*
X-19425Y-16479D01*
Y-15880D01*
X-18666D01*
X-17923Y-16623D01*
D02*
G37*
G36*
X-17325Y-22147D02*
Y-22675D01*
X-16475D01*
Y-22455D01*
X-16315D01*
X-16225Y-22545D01*
Y-23125D01*
X-16303Y-23220D01*
X-17409D01*
X-18502Y-22127D01*
X-18491Y-22075D01*
X-18526Y-21899D01*
X-18626Y-21751D01*
X-18774Y-21651D01*
X-18800Y-21646D01*
Y-21400D01*
X-19325D01*
Y-21200D01*
X-18800D01*
Y-21080D01*
X-18391D01*
X-17325Y-22147D01*
D02*
G37*
G36*
X-529Y-99471D02*
X-59471D01*
Y-529D01*
X-54311D01*
X-54069Y-715D01*
X-53762Y-842D01*
X-53433Y-885D01*
X-53359Y-876D01*
X-53270Y-992D01*
X-53292Y-1044D01*
X-53300Y-1107D01*
X-53306Y-1139D01*
X-53305Y-1148D01*
X-53308Y-1157D01*
X-53310Y-1180D01*
X-53315Y-1219D01*
Y-2131D01*
X-53309Y-2172D01*
X-53308Y-2191D01*
X-53306Y-2198D01*
X-53306Y-2205D01*
X-53299Y-2250D01*
X-53299Y-2252D01*
X-53292Y-2306D01*
X-53268Y-2363D01*
X-53262Y-2380D01*
X-53293Y-2421D01*
X-53300Y-2429D01*
X-53310Y-2436D01*
X-53323Y-2455D01*
X-53339Y-2473D01*
X-53342Y-2484D01*
X-53349Y-2494D01*
X-53353Y-2517D01*
X-53361Y-2539D01*
X-53360Y-2551D01*
X-53362Y-2562D01*
Y-5475D01*
X-53349Y-5543D01*
X-53310Y-5601D01*
X-53252Y-5640D01*
X-53184Y-5653D01*
X-51101D01*
X-51089Y-5651D01*
X-51077Y-5652D01*
X-51055Y-5644D01*
X-51032Y-5640D01*
X-51023Y-5633D01*
X-51011Y-5630D01*
X-50994Y-5614D01*
X-50974Y-5601D01*
X-50968Y-5591D01*
X-50959Y-5584D01*
X-50949Y-5563D01*
X-50936Y-5543D01*
X-50935Y-5543D01*
X-50842Y-5582D01*
X-50659Y-5606D01*
X-50476Y-5582D01*
X-50383Y-5543D01*
X-50382Y-5543D01*
X-50369Y-5563D01*
X-50359Y-5584D01*
X-50350Y-5591D01*
X-50344Y-5601D01*
X-50324Y-5614D01*
X-50307Y-5630D01*
X-50295Y-5633D01*
X-50286Y-5640D01*
X-50263Y-5644D01*
X-50241Y-5652D01*
X-50229Y-5651D01*
X-50217Y-5653D01*
X-49581D01*
X-49543Y-5700D01*
X-49508Y-5876D01*
X-49408Y-6024D01*
X-49260Y-6124D01*
X-49084Y-6159D01*
X-49032Y-6148D01*
X-46782Y-8398D01*
X-46782Y-8398D01*
X-46691Y-8459D01*
X-46584Y-8480D01*
X-46584Y-8480D01*
X-45036D01*
X-44997Y-8607D01*
X-45099Y-8676D01*
X-45199Y-8824D01*
X-45234Y-9000D01*
X-45199Y-9176D01*
X-45099Y-9324D01*
X-44951Y-9424D01*
X-44775Y-9459D01*
X-44723Y-9448D01*
X-43630Y-10541D01*
Y-11450D01*
X-43609Y-11557D01*
X-43548Y-11648D01*
X-41923Y-13273D01*
X-41832Y-13334D01*
X-41725Y-13355D01*
X-35966D01*
X-35589Y-13732D01*
Y-14422D01*
X-35716Y-14447D01*
X-35801Y-14243D01*
X-35965Y-14029D01*
X-36179Y-13865D01*
X-36428Y-13761D01*
X-36696Y-13726D01*
X-36964Y-13761D01*
X-37213Y-13865D01*
X-37427Y-14029D01*
X-37591Y-14243D01*
X-37635Y-14348D01*
X-40837D01*
X-40881Y-14243D01*
X-41045Y-14029D01*
X-41259Y-13865D01*
X-41508Y-13761D01*
X-41776Y-13726D01*
X-42044Y-13761D01*
X-42293Y-13865D01*
X-42379Y-13931D01*
X-44730Y-11580D01*
X-44854Y-11497D01*
X-45000Y-11468D01*
X-45150D01*
Y-11025D01*
X-45404D01*
X-45500Y-10950D01*
X-45500Y-10898D01*
Y-10575D01*
X-46000D01*
Y-10475D01*
X-46100D01*
Y-10000D01*
X-46408D01*
X-46481Y-10000D01*
X-46500D01*
X-46617Y-10025D01*
X-46627D01*
X-47053D01*
X-47252Y-9827D01*
X-47343Y-9766D01*
X-47450Y-9745D01*
X-50675D01*
X-50782Y-9766D01*
X-50873Y-9827D01*
X-53333Y-12286D01*
X-53450Y-12238D01*
Y-12225D01*
X-54200D01*
Y-12625D01*
X-53837D01*
X-53789Y-12742D01*
X-54198Y-13152D01*
X-54259Y-13243D01*
X-54280Y-13350D01*
Y-13550D01*
X-55125D01*
Y-14500D01*
X-54580D01*
Y-14621D01*
X-54624Y-14651D01*
X-54724Y-14799D01*
X-54759Y-14975D01*
X-54724Y-15151D01*
X-54624Y-15299D01*
X-54476Y-15399D01*
X-54354Y-15423D01*
X-54367Y-15550D01*
X-55150D01*
X-55200Y-15444D01*
Y-15175D01*
X-55550D01*
Y-15700D01*
X-55750D01*
Y-15175D01*
X-55998D01*
X-56100Y-15175D01*
X-56125Y-15058D01*
Y-15058D01*
Y-14575D01*
X-56650D01*
Y-15175D01*
Y-15775D01*
X-56227D01*
X-56125Y-15775D01*
X-56100Y-15892D01*
Y-15894D01*
X-56150Y-16000D01*
X-57350D01*
Y-16168D01*
X-57485D01*
X-57575Y-16078D01*
Y-15952D01*
X-57575Y-15875D01*
Y-15850D01*
Y-15825D01*
X-57575Y-15748D01*
Y-14675D01*
X-57698D01*
X-57733Y-14548D01*
X-57651Y-14426D01*
X-57616Y-14250D01*
X-57651Y-14074D01*
X-57751Y-13926D01*
X-57899Y-13826D01*
X-58075Y-13791D01*
X-58251Y-13826D01*
X-58399Y-13926D01*
X-58499Y-14074D01*
X-58534Y-14250D01*
X-58499Y-14426D01*
X-58417Y-14548D01*
X-58451Y-14675D01*
X-58575D01*
Y-15748D01*
X-58575Y-15825D01*
Y-15850D01*
Y-15875D01*
X-58575Y-15952D01*
Y-17025D01*
X-58355D01*
Y-17146D01*
X-58490Y-17235D01*
X-58617Y-17426D01*
X-58661Y-17650D01*
X-58617Y-17874D01*
X-58490Y-18065D01*
X-58299Y-18192D01*
X-58075Y-18236D01*
X-57851Y-18192D01*
X-57660Y-18065D01*
X-57533Y-17874D01*
X-57489Y-17650D01*
X-57533Y-17426D01*
X-57660Y-17235D01*
X-57795Y-17146D01*
Y-17025D01*
X-57575D01*
Y-16729D01*
X-57350D01*
Y-17150D01*
X-56150D01*
Y-17150D01*
X-56150Y-17150D01*
X-56075Y-17150D01*
Y-17150D01*
X-56075Y-17150D01*
X-55225D01*
X-55125Y-17215D01*
Y-17500D01*
X-55150D01*
Y-17825D01*
X-53150D01*
Y-17737D01*
X-53033Y-17689D01*
X-52880Y-17841D01*
Y-18796D01*
X-53015Y-18885D01*
X-53142Y-19076D01*
X-53186Y-19300D01*
X-53155Y-19458D01*
X-53241Y-19545D01*
X-53850D01*
X-53957Y-19566D01*
X-54048Y-19627D01*
X-54048Y-19627D01*
X-54108Y-19686D01*
X-54225Y-19638D01*
Y-19100D01*
X-55875D01*
Y-19244D01*
X-56100D01*
Y-19000D01*
X-57300D01*
Y-19731D01*
X-58127Y-20558D01*
X-58225Y-20539D01*
X-58449Y-20583D01*
X-58640Y-20710D01*
X-58767Y-20901D01*
X-58811Y-21125D01*
X-58767Y-21349D01*
X-58640Y-21540D01*
X-58556Y-21595D01*
Y-25275D01*
X-58531Y-25402D01*
X-58459Y-25509D01*
X-58000Y-25969D01*
Y-26425D01*
X-58000D01*
Y-26475D01*
X-58053Y-26504D01*
X-58127Y-26524D01*
X-58301Y-26408D01*
X-58525Y-26364D01*
X-58749Y-26408D01*
X-58940Y-26535D01*
X-59067Y-26726D01*
X-59111Y-26950D01*
X-59067Y-27174D01*
X-58940Y-27365D01*
X-58749Y-27492D01*
X-58525Y-27536D01*
X-58301Y-27492D01*
X-58127Y-27376D01*
X-58062Y-27393D01*
X-57975Y-27475D01*
Y-27475D01*
X-57975Y-27475D01*
X-57975Y-27475D01*
Y-28400D01*
X-58000D01*
Y-28825D01*
X-57100D01*
Y-28400D01*
X-57125D01*
Y-27600D01*
X-57125Y-27475D01*
X-57124Y-27474D01*
X-57124Y-27474D01*
X-57124Y-27474D01*
X-57100Y-27425D01*
X-57100Y-27425D01*
X-57100D01*
X-57100Y-27358D01*
Y-27230D01*
X-56366D01*
X-55880Y-27716D01*
Y-28375D01*
X-56150D01*
Y-29375D01*
X-56250D01*
Y-29475D01*
X-56675D01*
Y-30298D01*
X-56675Y-30375D01*
X-56750Y-30410D01*
Y-30900D01*
Y-31375D01*
X-56442D01*
X-56369Y-31375D01*
X-56350D01*
X-56233Y-31350D01*
X-56223D01*
X-55425D01*
Y-32150D01*
X-55365D01*
X-55327Y-32277D01*
X-55340Y-32285D01*
X-55467Y-32476D01*
X-55511Y-32700D01*
X-55467Y-32924D01*
X-55340Y-33115D01*
X-55149Y-33242D01*
X-54925Y-33286D01*
X-54701Y-33242D01*
X-54510Y-33115D01*
X-54383Y-32924D01*
X-54382Y-32919D01*
X-54255Y-32932D01*
Y-33025D01*
X-54234Y-33132D01*
X-54173Y-33223D01*
X-52999Y-34398D01*
X-53051Y-34525D01*
X-53525D01*
Y-34950D01*
X-53075D01*
Y-35150D01*
X-53525D01*
Y-35575D01*
X-53500D01*
Y-36474D01*
X-53592Y-36585D01*
X-53700Y-36564D01*
X-53924Y-36608D01*
X-54115Y-36735D01*
X-54242Y-36926D01*
X-54286Y-37150D01*
X-54242Y-37374D01*
X-54115Y-37565D01*
X-53924Y-37692D01*
X-53700Y-37736D01*
X-53476Y-37692D01*
X-53285Y-37565D01*
X-53196Y-37430D01*
X-53025D01*
Y-37675D01*
X-51975D01*
Y-37073D01*
X-51944Y-37027D01*
X-51919Y-36900D01*
Y-36500D01*
X-51825D01*
Y-36183D01*
X-51563D01*
X-51424Y-36275D01*
X-51249Y-36310D01*
X-50049D01*
X-49873Y-36275D01*
X-49771Y-36207D01*
X-49679Y-36298D01*
X-49748Y-36401D01*
X-49783Y-36576D01*
Y-37776D01*
X-49748Y-37952D01*
X-49648Y-38101D01*
X-49610Y-38126D01*
X-49578Y-38299D01*
X-49593Y-38320D01*
X-50196D01*
X-50226Y-38276D01*
X-50374Y-38176D01*
X-50550Y-38141D01*
X-50726Y-38176D01*
X-50874Y-38276D01*
X-50974Y-38424D01*
X-50980Y-38457D01*
X-51110D01*
X-51126Y-38374D01*
X-51226Y-38226D01*
X-51374Y-38126D01*
X-51550Y-38091D01*
X-51726Y-38126D01*
X-51848Y-38208D01*
X-51942Y-38176D01*
X-51975Y-38152D01*
Y-38025D01*
X-53025D01*
Y-38967D01*
X-53025Y-39075D01*
X-53144Y-39094D01*
X-56938D01*
X-57944Y-38088D01*
X-57976Y-37924D01*
X-58076Y-37776D01*
X-58224Y-37676D01*
X-58400Y-37641D01*
X-58576Y-37676D01*
X-58724Y-37776D01*
X-58824Y-37924D01*
X-58859Y-38100D01*
X-58824Y-38276D01*
X-58724Y-38424D01*
X-58576Y-38524D01*
X-58412Y-38556D01*
X-57309Y-39659D01*
X-57202Y-39731D01*
X-57075Y-39756D01*
X-49325D01*
Y-39875D01*
X-49278D01*
X-49239Y-40002D01*
X-49290Y-40035D01*
X-49417Y-40226D01*
X-49461Y-40450D01*
X-49417Y-40674D01*
X-49290Y-40865D01*
X-49099Y-40992D01*
X-48875Y-41036D01*
X-48651Y-40992D01*
X-48460Y-40865D01*
X-48333Y-40674D01*
X-48289Y-40450D01*
X-48320Y-40292D01*
X-47903Y-39875D01*
X-47552D01*
X-47425Y-39875D01*
Y-40925D01*
X-47400D01*
Y-41775D01*
X-47425D01*
Y-42200D01*
X-46975D01*
Y-42300D01*
X-46875D01*
Y-42825D01*
X-46525D01*
Y-42825D01*
X-46225D01*
Y-42325D01*
X-46125D01*
Y-42225D01*
X-45650D01*
Y-41889D01*
X-45567Y-41807D01*
X-45533Y-41800D01*
X-45066D01*
Y-42330D01*
X-45150Y-42385D01*
X-45277Y-42576D01*
X-45321Y-42800D01*
X-45277Y-43024D01*
X-45150Y-43215D01*
X-44959Y-43342D01*
X-44735Y-43386D01*
X-44511Y-43342D01*
X-44320Y-43215D01*
X-44193Y-43024D01*
X-44149Y-42800D01*
X-44193Y-42576D01*
X-44320Y-42385D01*
X-44404Y-42330D01*
Y-41800D01*
X-43910D01*
Y-40850D01*
X-45560D01*
X-45560Y-40850D01*
Y-40850D01*
X-45560Y-40850D01*
X-45675Y-40821D01*
Y-40027D01*
X-45574Y-39906D01*
X-45548Y-39900D01*
X-43910D01*
Y-38950D01*
X-45560D01*
Y-38950D01*
X-45675Y-38950D01*
X-45792Y-38927D01*
Y-38113D01*
X-45739Y-38083D01*
X-45677D01*
X-45647Y-38101D01*
X-45499Y-38200D01*
X-45324Y-38235D01*
X-45148Y-38200D01*
X-45000Y-38101D01*
X-44971Y-38083D01*
X-44877D01*
X-44847Y-38101D01*
X-44699Y-38200D01*
X-44524Y-38235D01*
X-44348Y-38200D01*
X-44200Y-38101D01*
X-44171Y-38083D01*
X-44077D01*
X-44047Y-38101D01*
X-43899Y-38200D01*
X-43724Y-38235D01*
X-43548Y-38200D01*
X-43399Y-38101D01*
X-43300Y-37952D01*
X-43265Y-37776D01*
Y-36576D01*
X-43300Y-36401D01*
X-43368Y-36298D01*
X-43277Y-36207D01*
X-43174Y-36275D01*
X-42999Y-36310D01*
X-41799D01*
X-41726Y-36296D01*
X-40298Y-37723D01*
X-40207Y-37784D01*
X-40100Y-37805D01*
X-38275D01*
X-38168Y-37784D01*
X-38077Y-37723D01*
X-36477Y-36123D01*
X-36425Y-36134D01*
X-36249Y-36099D01*
X-36101Y-35999D01*
X-36001Y-35851D01*
X-35966Y-35675D01*
X-35983Y-35592D01*
X-35975Y-35584D01*
X-35799Y-35549D01*
X-35716Y-35493D01*
X-35589Y-35561D01*
Y-46283D01*
X-35782Y-46475D01*
X-35849Y-46448D01*
X-36030Y-46424D01*
X-36040D01*
X-36221Y-46448D01*
X-36390Y-46518D01*
X-36536Y-46629D01*
X-36647Y-46775D01*
X-36717Y-46944D01*
X-36741Y-47125D01*
X-36717Y-47306D01*
X-36687Y-47380D01*
X-42436Y-53129D01*
X-42497Y-53220D01*
X-42518Y-53327D01*
Y-61655D01*
X-42497Y-61762D01*
X-42436Y-61853D01*
X-39891Y-64398D01*
X-39800Y-64459D01*
X-39693Y-64480D01*
X-39693Y-64480D01*
X-32212D01*
X-32152Y-64592D01*
X-32174Y-64624D01*
X-32209Y-64800D01*
X-32174Y-64976D01*
X-32074Y-65124D01*
X-31926Y-65224D01*
X-31750Y-65259D01*
X-31574Y-65224D01*
X-31426Y-65124D01*
X-31326Y-64976D01*
X-31291Y-64800D01*
X-31326Y-64624D01*
X-31348Y-64592D01*
X-31288Y-64480D01*
X-30933D01*
Y-64851D01*
X-27883D01*
Y-64482D01*
X-27600D01*
X-27480Y-64602D01*
Y-64871D01*
X-27524Y-64901D01*
X-27624Y-65049D01*
X-27659Y-65225D01*
X-27624Y-65401D01*
X-27524Y-65549D01*
X-27376Y-65649D01*
X-27200Y-65684D01*
X-27024Y-65649D01*
X-26876Y-65549D01*
X-26776Y-65401D01*
X-26741Y-65225D01*
X-26776Y-65049D01*
X-26876Y-64901D01*
X-26920Y-64871D01*
Y-64486D01*
X-26941Y-64378D01*
X-27002Y-64287D01*
X-27286Y-64003D01*
X-27377Y-63942D01*
X-27484Y-63921D01*
X-27883D01*
Y-63551D01*
X-30933D01*
Y-63920D01*
X-31842D01*
X-31891Y-63802D01*
X-30802Y-62713D01*
X-30750Y-62724D01*
X-30574Y-62689D01*
X-30426Y-62589D01*
X-30326Y-62440D01*
X-30291Y-62265D01*
X-30326Y-62089D01*
X-30364Y-62033D01*
X-30296Y-61906D01*
X-26146D01*
X-24223Y-63829D01*
X-24233Y-63881D01*
X-24198Y-64057D01*
X-24099Y-64205D01*
X-23950Y-64305D01*
X-23774Y-64340D01*
X-23599Y-64305D01*
X-23450Y-64205D01*
X-23352Y-64060D01*
X-23213Y-64152D01*
X-23038Y-64187D01*
X-22862Y-64152D01*
X-22713Y-64053D01*
X-22614Y-63904D01*
X-22579Y-63729D01*
X-22614Y-63553D01*
X-22713Y-63404D01*
X-22862Y-63305D01*
X-23038Y-63270D01*
X-23090Y-63280D01*
X-24747Y-61623D01*
X-24698Y-61506D01*
X-21525D01*
X-21342Y-61482D01*
X-21233Y-61437D01*
X-21219Y-61438D01*
X-21107Y-61501D01*
X-21098Y-61513D01*
X-21075Y-61627D01*
X-20976Y-61776D01*
X-20827Y-61875D01*
X-20652Y-61910D01*
X-20476Y-61875D01*
X-20327Y-61776D01*
X-20228Y-61627D01*
X-20193Y-61451D01*
X-20228Y-61276D01*
X-20327Y-61127D01*
X-20476Y-61028D01*
X-20558Y-61011D01*
X-20600Y-60873D01*
X-10753Y-51026D01*
X-8010D01*
X-7926Y-51153D01*
X-7993Y-51316D01*
X-8016Y-51490D01*
X-5924D01*
X-5947Y-51316D01*
X-6014Y-51153D01*
X-5930Y-51026D01*
X-5700D01*
X-5517Y-51002D01*
X-5391Y-50950D01*
X-5311Y-51054D01*
X-5325Y-51073D01*
X-5429Y-51322D01*
X-5464Y-51590D01*
X-5429Y-51858D01*
X-5325Y-52107D01*
X-5161Y-52321D01*
X-4947Y-52485D01*
X-4698Y-52589D01*
X-4430Y-52624D01*
X-4162Y-52589D01*
X-3913Y-52485D01*
X-3699Y-52321D01*
X-3535Y-52107D01*
X-3431Y-51858D01*
X-3396Y-51590D01*
X-3431Y-51322D01*
X-3535Y-51073D01*
X-3699Y-50859D01*
X-3913Y-50695D01*
X-4137Y-50602D01*
X-4138Y-50495D01*
X-4132Y-50473D01*
X-4051Y-50463D01*
X-3699Y-50317D01*
X-3396Y-50084D01*
X-3163Y-49781D01*
X-3017Y-49429D01*
X-2967Y-49050D01*
X-3017Y-48671D01*
X-3163Y-48319D01*
X-3396Y-48016D01*
X-3599Y-47860D01*
Y-47700D01*
X-3396Y-47544D01*
X-3163Y-47241D01*
X-3017Y-46889D01*
X-2967Y-46510D01*
X-3017Y-46131D01*
X-3163Y-45779D01*
X-3396Y-45476D01*
X-3599Y-45320D01*
Y-45160D01*
X-3396Y-45004D01*
X-3163Y-44701D01*
X-3017Y-44349D01*
X-2967Y-43970D01*
X-3017Y-43591D01*
X-3163Y-43239D01*
X-3396Y-42936D01*
X-3699Y-42703D01*
X-4051Y-42557D01*
X-4132Y-42547D01*
X-4138Y-42525D01*
X-4137Y-42418D01*
X-3913Y-42325D01*
X-3699Y-42161D01*
X-3535Y-41947D01*
X-3431Y-41698D01*
X-3396Y-41430D01*
X-3431Y-41162D01*
X-3535Y-40913D01*
X-3699Y-40699D01*
X-3913Y-40535D01*
X-4162Y-40431D01*
X-4430Y-40396D01*
X-4698Y-40431D01*
X-4947Y-40535D01*
X-5161Y-40699D01*
X-5325Y-40913D01*
X-5429Y-41162D01*
X-5464Y-41430D01*
X-5429Y-41698D01*
X-5325Y-41947D01*
X-5161Y-42161D01*
X-4947Y-42325D01*
X-4723Y-42418D01*
X-4722Y-42525D01*
X-4728Y-42547D01*
X-4809Y-42557D01*
X-5161Y-42703D01*
X-5464Y-42936D01*
X-5620Y-43139D01*
X-5780D01*
X-5936Y-42936D01*
X-6239Y-42703D01*
X-6591Y-42557D01*
X-6672Y-42547D01*
X-6678Y-42525D01*
X-6677Y-42418D01*
X-6453Y-42325D01*
X-6239Y-42161D01*
X-6075Y-41947D01*
X-5971Y-41698D01*
X-5936Y-41430D01*
X-5971Y-41162D01*
X-6075Y-40913D01*
X-6239Y-40699D01*
X-6453Y-40535D01*
X-6459Y-40532D01*
X-6433Y-40405D01*
X-5665D01*
X-5558Y-40384D01*
X-5467Y-40323D01*
X-4934Y-39791D01*
X-4698Y-39889D01*
X-4430Y-39924D01*
X-4162Y-39889D01*
X-3913Y-39785D01*
X-3699Y-39621D01*
X-3535Y-39407D01*
X-3431Y-39158D01*
X-3396Y-38890D01*
X-3431Y-38622D01*
X-3535Y-38373D01*
X-3699Y-38159D01*
X-3913Y-37995D01*
X-4162Y-37891D01*
X-4430Y-37856D01*
X-4698Y-37891D01*
X-4947Y-37995D01*
X-5161Y-38159D01*
X-5325Y-38373D01*
X-5418Y-38597D01*
X-5525Y-38598D01*
X-5547Y-38592D01*
X-5557Y-38511D01*
X-5703Y-38159D01*
X-5935Y-37857D01*
X-5929Y-37809D01*
X-5902Y-37730D01*
X-5530D01*
X-5423Y-37709D01*
X-5332Y-37648D01*
X-4934Y-37251D01*
X-4698Y-37349D01*
X-4430Y-37384D01*
X-4162Y-37349D01*
X-3913Y-37245D01*
X-3699Y-37081D01*
X-3535Y-36867D01*
X-3431Y-36618D01*
X-3396Y-36350D01*
X-3431Y-36082D01*
X-3535Y-35833D01*
X-3699Y-35619D01*
X-3913Y-35455D01*
X-4137Y-35362D01*
X-4138Y-35255D01*
X-4132Y-35233D01*
X-4051Y-35223D01*
X-3699Y-35077D01*
X-3396Y-34844D01*
X-3163Y-34541D01*
X-3017Y-34189D01*
X-2967Y-33810D01*
X-3017Y-33431D01*
X-3163Y-33079D01*
X-3396Y-32776D01*
X-3599Y-32620D01*
Y-32460D01*
X-3396Y-32304D01*
X-3163Y-32001D01*
X-3017Y-31649D01*
X-2967Y-31270D01*
X-3017Y-30891D01*
X-3163Y-30539D01*
X-3396Y-30236D01*
X-3699Y-30003D01*
X-4051Y-29857D01*
X-4070Y-29855D01*
X-4087Y-29725D01*
X-3900Y-29647D01*
X-3681Y-29479D01*
X-3513Y-29260D01*
X-3407Y-29004D01*
X-3384Y-28830D01*
X-5476D01*
X-5453Y-29004D01*
X-5347Y-29260D01*
X-5179Y-29479D01*
X-4960Y-29647D01*
X-4773Y-29725D01*
X-4790Y-29855D01*
X-4809Y-29857D01*
X-5161Y-30003D01*
X-5464Y-30236D01*
X-5697Y-30539D01*
X-5843Y-30891D01*
X-5853Y-30972D01*
X-5875Y-30978D01*
X-5982Y-30977D01*
X-6075Y-30753D01*
X-6239Y-30539D01*
X-6453Y-30375D01*
X-6702Y-30271D01*
X-6970Y-30236D01*
X-7238Y-30271D01*
X-7487Y-30375D01*
X-7701Y-30539D01*
X-7865Y-30753D01*
X-7963Y-30990D01*
X-8470D01*
X-8577Y-31011D01*
X-8668Y-31072D01*
X-16323Y-38727D01*
X-16375Y-38716D01*
X-16551Y-38751D01*
X-16699Y-38851D01*
X-16799Y-38999D01*
X-16834Y-39175D01*
X-16799Y-39351D01*
X-16699Y-39499D01*
X-16551Y-39599D01*
X-16375Y-39634D01*
X-16199Y-39599D01*
X-16051Y-39499D01*
X-15951Y-39351D01*
X-15916Y-39175D01*
X-15927Y-39123D01*
X-8354Y-31550D01*
X-7963D01*
X-7891Y-31726D01*
X-7937Y-31865D01*
X-7952Y-31882D01*
X-8028Y-31914D01*
X-8174Y-32026D01*
X-9224Y-33076D01*
X-9336Y-33222D01*
X-9407Y-33392D01*
X-9431Y-33575D01*
Y-34158D01*
X-12275Y-37001D01*
X-12450Y-36966D01*
X-12626Y-37001D01*
X-12774Y-37101D01*
X-12874Y-37249D01*
X-12909Y-37425D01*
X-12898Y-37477D01*
X-19018Y-43596D01*
X-19145Y-43543D01*
Y-30804D01*
X-19101Y-30774D01*
X-19001Y-30626D01*
X-18966Y-30450D01*
X-19001Y-30274D01*
X-19101Y-30126D01*
X-19145Y-30096D01*
Y-29175D01*
X-18925D01*
Y-28025D01*
X-18925D01*
Y-27975D01*
X-18925D01*
Y-26825D01*
X-19145D01*
Y-26704D01*
X-19010Y-26615D01*
X-18883Y-26424D01*
X-18852Y-26268D01*
X-18723D01*
X-18692Y-26424D01*
X-18565Y-26615D01*
X-18430Y-26704D01*
Y-26825D01*
X-18650D01*
Y-27898D01*
X-18650Y-27975D01*
Y-28000D01*
Y-28025D01*
X-18650Y-28102D01*
Y-29175D01*
X-18430D01*
Y-32218D01*
X-18474Y-32247D01*
X-18574Y-32396D01*
X-18609Y-32572D01*
X-18574Y-32747D01*
X-18474Y-32896D01*
X-18326Y-32995D01*
X-18150Y-33030D01*
X-17974Y-32995D01*
X-17826Y-32896D01*
X-17726Y-32747D01*
X-17691Y-32572D01*
X-17726Y-32396D01*
X-17826Y-32247D01*
X-17870Y-32218D01*
Y-29175D01*
X-17650D01*
Y-28102D01*
X-17650Y-28025D01*
Y-28000D01*
Y-27975D01*
X-17650Y-27898D01*
Y-26825D01*
X-17870D01*
Y-26704D01*
X-17735Y-26615D01*
X-17608Y-26424D01*
X-17577Y-26268D01*
X-17448D01*
X-17417Y-26424D01*
X-17290Y-26615D01*
X-17155Y-26704D01*
Y-26825D01*
X-17375D01*
Y-27898D01*
X-17375Y-27975D01*
Y-28000D01*
Y-28025D01*
X-17375Y-28102D01*
Y-29175D01*
X-17155D01*
Y-34246D01*
X-17199Y-34276D01*
X-17299Y-34424D01*
X-17334Y-34600D01*
X-17299Y-34776D01*
X-17199Y-34924D01*
X-17051Y-35024D01*
X-16875Y-35059D01*
X-16699Y-35024D01*
X-16551Y-34924D01*
X-16451Y-34776D01*
X-16416Y-34600D01*
X-16451Y-34424D01*
X-16551Y-34276D01*
X-16595Y-34246D01*
Y-29175D01*
X-16375D01*
Y-28102D01*
X-16375Y-28025D01*
Y-28000D01*
Y-27975D01*
X-16375Y-27898D01*
Y-26825D01*
X-16595D01*
Y-26704D01*
X-16460Y-26615D01*
X-16333Y-26424D01*
X-16302Y-26268D01*
X-16173D01*
X-16142Y-26424D01*
X-16015Y-26615D01*
X-15880Y-26704D01*
Y-26825D01*
X-16100D01*
Y-27898D01*
X-16100Y-27975D01*
Y-28000D01*
Y-28025D01*
X-16100Y-28102D01*
Y-29175D01*
X-15880D01*
Y-34271D01*
X-15924Y-34301D01*
X-16024Y-34449D01*
X-16059Y-34625D01*
X-16024Y-34801D01*
X-15924Y-34949D01*
X-15776Y-35049D01*
X-15600Y-35084D01*
X-15424Y-35049D01*
X-15276Y-34949D01*
X-15176Y-34801D01*
X-15141Y-34625D01*
X-15176Y-34449D01*
X-15276Y-34301D01*
X-15320Y-34271D01*
Y-29175D01*
X-15100D01*
Y-28102D01*
X-15100Y-28025D01*
Y-28000D01*
Y-27975D01*
X-15100Y-27898D01*
Y-26825D01*
X-15320D01*
Y-26704D01*
X-15185Y-26615D01*
X-15058Y-26424D01*
X-15014Y-26200D01*
X-15058Y-25976D01*
X-15185Y-25785D01*
X-15376Y-25658D01*
X-15600Y-25614D01*
X-15824Y-25658D01*
X-16015Y-25785D01*
X-16142Y-25976D01*
X-16173Y-26132D01*
X-16302D01*
X-16333Y-25976D01*
X-16460Y-25785D01*
X-16651Y-25658D01*
X-16875Y-25614D01*
X-17099Y-25658D01*
X-17290Y-25785D01*
X-17417Y-25976D01*
X-17448Y-26132D01*
X-17577D01*
X-17608Y-25976D01*
X-17735Y-25785D01*
X-17926Y-25658D01*
X-18150Y-25614D01*
X-18374Y-25658D01*
X-18565Y-25785D01*
X-18692Y-25976D01*
X-18723Y-26132D01*
X-18852D01*
X-18883Y-25976D01*
X-19010Y-25785D01*
X-19201Y-25658D01*
X-19425Y-25614D01*
X-19649Y-25658D01*
X-19840Y-25785D01*
X-19939Y-25935D01*
X-20064Y-25964D01*
X-20093Y-25960D01*
X-21731Y-24323D01*
X-21682Y-24205D01*
X-19491D01*
X-18798Y-24898D01*
X-18707Y-24959D01*
X-18600Y-24980D01*
X-15016D01*
X-13423Y-26573D01*
X-13373Y-26607D01*
X-13327Y-26736D01*
X-13326Y-26765D01*
X-13349Y-26799D01*
X-13384Y-26975D01*
X-13349Y-27151D01*
X-13249Y-27299D01*
X-13101Y-27399D01*
X-12925Y-27434D01*
X-12749Y-27399D01*
X-12652Y-27334D01*
X-12525Y-27389D01*
Y-27475D01*
X-11375D01*
X-11375Y-27475D01*
X-11375D01*
X-11331D01*
X-11325Y-27475D01*
X-11294Y-27475D01*
X-11248Y-27475D01*
D01*
X-11248D01*
Y-27475D01*
X-10175D01*
Y-27280D01*
X-8816D01*
X-7995Y-28102D01*
Y-29755D01*
X-5945D01*
Y-27705D01*
X-7598D01*
X-8256Y-27048D01*
X-8207Y-26930D01*
X-4041D01*
X-2199Y-28773D01*
Y-59122D01*
X-6342Y-63265D01*
X-7995D01*
Y-65315D01*
X-7866D01*
X-7814Y-65442D01*
X-8233Y-65861D01*
X-32209D01*
X-32238Y-65817D01*
X-32387Y-65718D01*
X-32563Y-65683D01*
X-32738Y-65718D01*
X-32887Y-65817D01*
X-32987Y-65966D01*
X-33022Y-66142D01*
X-32987Y-66317D01*
X-32975Y-66335D01*
X-32974Y-66352D01*
X-33034Y-66475D01*
X-33081Y-66480D01*
X-33199Y-66401D01*
X-33375Y-66366D01*
X-33551Y-66401D01*
X-33699Y-66501D01*
X-33799Y-66649D01*
X-33834Y-66825D01*
X-33799Y-67001D01*
X-33699Y-67149D01*
X-33551Y-67249D01*
X-33375Y-67284D01*
X-33199Y-67249D01*
X-33051Y-67149D01*
X-33024Y-67110D01*
X-7963D01*
X-7865Y-67347D01*
X-7701Y-67561D01*
X-7487Y-67725D01*
X-7238Y-67829D01*
X-6970Y-67864D01*
X-6702Y-67829D01*
X-6453Y-67725D01*
X-6239Y-67561D01*
X-6075Y-67347D01*
X-5971Y-67098D01*
X-5936Y-66830D01*
X-5971Y-66562D01*
X-6075Y-66313D01*
X-6239Y-66099D01*
X-6358Y-66007D01*
X-6315Y-65880D01*
X-5776D01*
X-5331Y-66326D01*
X-5429Y-66562D01*
X-5464Y-66830D01*
X-5429Y-67098D01*
X-5325Y-67347D01*
X-5161Y-67561D01*
X-4947Y-67725D01*
X-4698Y-67829D01*
X-4430Y-67864D01*
X-4162Y-67829D01*
X-3913Y-67725D01*
X-3699Y-67561D01*
X-3535Y-67347D01*
X-3431Y-67098D01*
X-3396Y-66830D01*
X-3431Y-66562D01*
X-3535Y-66313D01*
X-3699Y-66099D01*
X-3913Y-65935D01*
X-4162Y-65831D01*
X-4430Y-65796D01*
X-4698Y-65831D01*
X-4934Y-65929D01*
X-5462Y-65402D01*
X-5553Y-65341D01*
X-5660Y-65320D01*
X-5820D01*
X-5945Y-65315D01*
X-5945Y-65193D01*
Y-63662D01*
X-1898Y-59614D01*
X-1780Y-59663D01*
Y-91184D01*
X-3346Y-92750D01*
X-17545D01*
Y-92005D01*
X-19595D01*
Y-94055D01*
X-17545D01*
Y-93310D01*
X-3230D01*
X-3123Y-93289D01*
X-3032Y-93228D01*
X-1302Y-91498D01*
X-1241Y-91407D01*
X-1220Y-91300D01*
Y-28400D01*
X-1241Y-28293D01*
X-1302Y-28202D01*
X-3502Y-26002D01*
X-3593Y-25941D01*
X-3700Y-25920D01*
X-8259D01*
X-9852Y-24327D01*
X-9943Y-24266D01*
X-10050Y-24245D01*
X-10175D01*
Y-24025D01*
X-10853D01*
X-11152Y-23727D01*
X-11243Y-23666D01*
X-11350Y-23645D01*
X-11457D01*
X-11506Y-23527D01*
X-11269Y-23290D01*
X-8882D01*
X-8851Y-23363D01*
X-8739Y-23509D01*
X-8593Y-23621D01*
X-8423Y-23692D01*
X-8240Y-23716D01*
X-8057Y-23692D01*
X-7887Y-23621D01*
X-7741Y-23509D01*
X-7684Y-23435D01*
X-7526D01*
X-7469Y-23509D01*
X-7323Y-23621D01*
X-7153Y-23692D01*
X-6970Y-23716D01*
X-6787Y-23692D01*
X-6617Y-23621D01*
X-6471Y-23509D01*
X-6414Y-23435D01*
X-6256D01*
X-6199Y-23509D01*
X-6053Y-23621D01*
X-5883Y-23692D01*
X-5700Y-23716D01*
X-5517Y-23692D01*
X-5347Y-23621D01*
X-5201Y-23509D01*
X-5144Y-23435D01*
X-4986D01*
X-4929Y-23509D01*
X-4783Y-23621D01*
X-4613Y-23692D01*
X-4430Y-23716D01*
X-4247Y-23692D01*
X-4077Y-23621D01*
X-3931Y-23509D01*
X-3874Y-23435D01*
X-3716D01*
X-3659Y-23509D01*
X-3513Y-23621D01*
X-3440Y-23652D01*
Y-24119D01*
X-3766Y-24445D01*
X-4946D01*
X-4976Y-24401D01*
X-5124Y-24301D01*
X-5300Y-24266D01*
X-5476Y-24301D01*
X-5624Y-24401D01*
X-5724Y-24549D01*
X-5759Y-24725D01*
X-5724Y-24901D01*
X-5624Y-25049D01*
X-5476Y-25149D01*
X-5300Y-25184D01*
X-5124Y-25149D01*
X-4976Y-25049D01*
X-4946Y-25005D01*
X-3650D01*
X-3543Y-24984D01*
X-3452Y-24923D01*
X-2962Y-24433D01*
X-2901Y-24342D01*
X-2880Y-24235D01*
X-2880Y-24235D01*
Y-23652D01*
X-2807Y-23621D01*
X-2661Y-23509D01*
X-2549Y-23363D01*
X-2478Y-23193D01*
X-2454Y-23010D01*
X-2478Y-22827D01*
X-2549Y-22657D01*
X-2661Y-22511D01*
X-2735Y-22454D01*
Y-22296D01*
X-2661Y-22239D01*
X-2549Y-22093D01*
X-2478Y-21923D01*
X-2454Y-21740D01*
X-2478Y-21557D01*
X-2549Y-21387D01*
X-2661Y-21241D01*
X-2807Y-21129D01*
X-2977Y-21058D01*
X-3160Y-21034D01*
X-3343Y-21058D01*
X-3513Y-21129D01*
X-3659Y-21241D01*
X-3699Y-21293D01*
X-3859D01*
X-3913Y-21223D01*
X-4064Y-21107D01*
X-4241Y-21034D01*
X-4330Y-21022D01*
Y-21740D01*
X-4530D01*
Y-21022D01*
X-4619Y-21034D01*
X-4796Y-21107D01*
X-4947Y-21223D01*
X-4985Y-21272D01*
X-5145D01*
X-5183Y-21223D01*
X-5334Y-21107D01*
X-5511Y-21034D01*
X-5600Y-21022D01*
Y-21740D01*
X-5800D01*
Y-21022D01*
X-5889Y-21034D01*
X-6066Y-21107D01*
X-6217Y-21223D01*
X-6271Y-21293D01*
X-6431D01*
X-6471Y-21241D01*
X-6617Y-21129D01*
X-6787Y-21058D01*
X-6970Y-21034D01*
X-7153Y-21058D01*
X-7323Y-21129D01*
X-7469Y-21241D01*
X-7509Y-21293D01*
X-7669D01*
X-7723Y-21223D01*
X-7874Y-21107D01*
X-8051Y-21034D01*
X-8140Y-21022D01*
Y-21740D01*
X-8240D01*
Y-21840D01*
X-8958D01*
X-8946Y-21929D01*
X-8873Y-22106D01*
X-8757Y-22257D01*
X-8687Y-22311D01*
Y-22471D01*
X-8739Y-22511D01*
X-8851Y-22657D01*
X-8882Y-22730D01*
X-11385D01*
X-11385Y-22730D01*
X-11492Y-22751D01*
X-11583Y-22812D01*
X-11991Y-23220D01*
X-12197D01*
X-12275Y-23125D01*
X-12275Y-23093D01*
Y-21175D01*
X-13925D01*
Y-23093D01*
X-13925Y-23125D01*
X-14003Y-23220D01*
X-14497D01*
X-14575Y-23125D01*
Y-21175D01*
X-16225D01*
Y-21895D01*
X-16475D01*
Y-21750D01*
X-16450D01*
Y-21325D01*
X-16900D01*
Y-21125D01*
X-16450D01*
Y-20800D01*
Y-20375D01*
X-16900D01*
Y-20175D01*
X-16450D01*
Y-19805D01*
X-14125D01*
X-14018Y-19784D01*
X-13927Y-19723D01*
X-13528Y-19325D01*
X-12275D01*
Y-17375D01*
X-13925D01*
Y-18928D01*
X-14241Y-19245D01*
X-14575D01*
Y-17443D01*
X-14478Y-17337D01*
X-14466Y-17332D01*
X-14299Y-17299D01*
X-14151Y-17199D01*
X-14051Y-17051D01*
X-14016Y-16875D01*
X-14051Y-16699D01*
X-14133Y-16577D01*
X-14101Y-16483D01*
X-14077Y-16450D01*
X-13550D01*
Y-16050D01*
X-14300D01*
Y-16322D01*
X-14427Y-16426D01*
X-14475Y-16416D01*
X-14527Y-16427D01*
X-15252Y-15702D01*
X-15343Y-15641D01*
X-15450Y-15620D01*
X-17584D01*
X-18101Y-15102D01*
X-18050Y-14975D01*
X-18050D01*
X-18050Y-14975D01*
Y-14075D01*
X-18300D01*
Y-13823D01*
X-18131D01*
Y-13506D01*
X-17525D01*
Y-13675D01*
X-17550D01*
Y-14100D01*
X-16650D01*
Y-13675D01*
X-16675D01*
Y-12750D01*
X-17525D01*
Y-12844D01*
X-18131D01*
Y-12423D01*
X-18300D01*
Y-12190D01*
X-18325Y-12063D01*
X-18397Y-11956D01*
X-18863Y-11490D01*
X-18814Y-11373D01*
X-18131D01*
Y-10931D01*
X-17649D01*
X-17550Y-11058D01*
Y-11075D01*
Y-11100D01*
Y-11125D01*
X-17550Y-11202D01*
Y-12075D01*
X-17122D01*
X-16598Y-12598D01*
X-16507Y-12659D01*
X-16400Y-12680D01*
X-16375D01*
Y-12875D01*
X-16180D01*
Y-13271D01*
X-16315Y-13360D01*
X-16442Y-13551D01*
X-16486Y-13775D01*
X-16442Y-13999D01*
X-16315Y-14190D01*
X-16180Y-14279D01*
Y-14525D01*
X-16375D01*
Y-15475D01*
X-14725D01*
Y-14525D01*
X-15620D01*
Y-14279D01*
X-15485Y-14190D01*
X-15358Y-13999D01*
X-15314Y-13775D01*
X-15358Y-13551D01*
X-15485Y-13360D01*
X-15620Y-13271D01*
Y-12875D01*
X-14725D01*
Y-11925D01*
X-16375D01*
X-16375Y-11925D01*
Y-11925D01*
X-16500Y-11904D01*
X-16650Y-11753D01*
Y-11202D01*
X-16650Y-11125D01*
Y-11100D01*
Y-11075D01*
X-16650Y-10998D01*
Y-10831D01*
X-16375D01*
Y-10975D01*
X-14725D01*
Y-10831D01*
X-7737D01*
X-6221Y-12348D01*
X-6270Y-12465D01*
X-7534D01*
X-7834Y-12166D01*
X-7941Y-12094D01*
X-8068Y-12069D01*
X-8525D01*
Y-11925D01*
X-10045D01*
Y-11804D01*
X-10001Y-11774D01*
X-9901Y-11626D01*
X-9866Y-11450D01*
X-9901Y-11274D01*
X-10001Y-11126D01*
X-10149Y-11026D01*
X-10325Y-10991D01*
X-10498Y-11026D01*
X-10522Y-11030D01*
X-10625Y-10975D01*
Y-10975D01*
X-10625Y-10975D01*
X-12275D01*
Y-11119D01*
X-12625D01*
Y-10975D01*
X-14275D01*
Y-11925D01*
X-12625D01*
Y-11781D01*
X-12275D01*
Y-11925D01*
X-10625D01*
X-10605Y-12044D01*
Y-12850D01*
X-11350D01*
Y-13350D01*
Y-13850D01*
X-10600D01*
Y-13471D01*
X-10473Y-13419D01*
X-9707Y-14185D01*
Y-14338D01*
X-9752Y-14384D01*
X-9880D01*
X-9957Y-14384D01*
X-9982D01*
X-10007D01*
X-10084Y-14384D01*
X-10957D01*
Y-14620D01*
X-11350D01*
Y-14525D01*
X-12206D01*
X-12625Y-14106D01*
Y-13575D01*
X-14275D01*
Y-14525D01*
X-12999D01*
X-12425Y-15098D01*
X-12425Y-15098D01*
X-12335Y-15159D01*
X-12250Y-15176D01*
Y-15373D01*
Y-15383D01*
X-12275Y-15500D01*
Y-15519D01*
X-12275Y-15592D01*
Y-15900D01*
X-11325D01*
Y-15592D01*
X-11325Y-15519D01*
Y-15500D01*
X-11350Y-15383D01*
Y-15373D01*
Y-15180D01*
X-10957D01*
Y-15284D01*
X-10763D01*
Y-16879D01*
X-10897Y-16969D01*
X-11024Y-17159D01*
X-11068Y-17383D01*
X-11024Y-17608D01*
X-10897Y-17798D01*
X-10707Y-17925D01*
X-10482Y-17970D01*
X-10258Y-17925D01*
X-10068Y-17798D01*
X-9941Y-17608D01*
X-9896Y-17383D01*
X-9941Y-17159D01*
X-10068Y-16969D01*
X-10202Y-16879D01*
Y-15373D01*
X-10120Y-15292D01*
X-10075Y-15284D01*
X-10007Y-15284D01*
X-9982D01*
X-9957D01*
X-9880Y-15284D01*
X-9007D01*
Y-14384D01*
X-9102D01*
Y-14113D01*
X-9102Y-14113D01*
X-9123Y-14005D01*
X-9184Y-13915D01*
X-10045Y-13054D01*
Y-12875D01*
X-8525D01*
Y-12731D01*
X-8205D01*
X-7995Y-12942D01*
Y-14515D01*
X-6097D01*
X-6059Y-14642D01*
X-6523Y-15106D01*
X-6702Y-15031D01*
X-6970Y-14996D01*
X-7238Y-15031D01*
X-7487Y-15135D01*
X-7701Y-15299D01*
X-7865Y-15513D01*
X-7969Y-15762D01*
X-8004Y-16030D01*
X-7969Y-16298D01*
X-7865Y-16547D01*
X-7701Y-16761D01*
X-7487Y-16925D01*
X-7238Y-17029D01*
X-6970Y-17064D01*
X-6702Y-17029D01*
X-6453Y-16925D01*
X-6239Y-16761D01*
X-6075Y-16547D01*
X-5971Y-16298D01*
X-5936Y-16030D01*
X-5971Y-15762D01*
X-6051Y-15571D01*
X-5466Y-14986D01*
X-5394Y-14879D01*
X-5369Y-14752D01*
Y-14200D01*
X-5242Y-14157D01*
X-5179Y-14239D01*
X-4960Y-14407D01*
X-4704Y-14513D01*
X-4530Y-14536D01*
Y-13490D01*
X-4430D01*
Y-13390D01*
X-3384D01*
X-3407Y-13216D01*
X-3513Y-12960D01*
X-3681Y-12741D01*
X-3787Y-12660D01*
X-3782Y-12504D01*
X-3685Y-12440D01*
X-3558Y-12249D01*
X-3514Y-12025D01*
X-3558Y-11801D01*
X-3659Y-11650D01*
X-3725Y-11550D01*
X-3725D01*
Y-11122D01*
X-3677Y-11073D01*
X-3616Y-10982D01*
X-3595Y-10875D01*
Y-10728D01*
X-3594Y-10728D01*
X-3468Y-10707D01*
X-3423Y-10773D01*
X-3175Y-11022D01*
Y-11550D01*
X-2980D01*
Y-11746D01*
X-3115Y-11835D01*
X-3242Y-12026D01*
X-3286Y-12250D01*
X-3242Y-12474D01*
X-3115Y-12665D01*
X-2924Y-12792D01*
X-2700Y-12836D01*
X-2476Y-12792D01*
X-2285Y-12665D01*
X-2158Y-12474D01*
X-2114Y-12250D01*
X-2158Y-12026D01*
X-2285Y-11835D01*
X-2400Y-11759D01*
X-2408Y-11628D01*
X-2385Y-11605D01*
X-2379Y-11600D01*
X-2293Y-11555D01*
X-2200Y-11575D01*
X-2181D01*
X-2108Y-11575D01*
X-1800D01*
Y-11100D01*
Y-10625D01*
X-2108D01*
X-2181Y-10625D01*
X-2200D01*
X-2317Y-10650D01*
X-2327D01*
X-2753D01*
X-2926Y-10477D01*
X-2901Y-10350D01*
X-2675D01*
Y-9725D01*
X-2575D01*
Y-9625D01*
X-2200D01*
Y-9362D01*
X-2083Y-9314D01*
X-1650Y-9747D01*
Y-10175D01*
X-750D01*
Y-9302D01*
X-750Y-9225D01*
X-750Y-9225D01*
Y-9175D01*
X-750D01*
X-750Y-9175D01*
Y-8225D01*
X-1020D01*
Y-7754D01*
X-885Y-7665D01*
X-758Y-7474D01*
X-714Y-7250D01*
X-758Y-7026D01*
X-885Y-6835D01*
X-1076Y-6708D01*
X-1300Y-6664D01*
X-1524Y-6708D01*
X-1715Y-6835D01*
X-1842Y-7026D01*
X-1886Y-7250D01*
X-1842Y-7474D01*
X-1715Y-7665D01*
X-1580Y-7754D01*
Y-8225D01*
X-1650D01*
Y-8788D01*
X-1767Y-8836D01*
X-2225Y-8378D01*
Y-7275D01*
X-2295D01*
Y-7054D01*
X-2160Y-6965D01*
X-2033Y-6774D01*
X-1989Y-6550D01*
X-2033Y-6326D01*
X-2160Y-6135D01*
X-2351Y-6008D01*
X-2575Y-5964D01*
X-2799Y-6008D01*
X-2990Y-6135D01*
X-3117Y-6326D01*
X-3161Y-6550D01*
X-3117Y-6774D01*
X-2990Y-6965D01*
X-2855Y-7054D01*
Y-7275D01*
X-3500D01*
Y-7250D01*
X-3775D01*
Y-7875D01*
X-3875D01*
Y-7975D01*
X-4250D01*
Y-8320D01*
X-4750D01*
Y-8225D01*
X-5650D01*
Y-8470D01*
X-5846D01*
X-5935Y-8335D01*
X-6126Y-8208D01*
X-6350Y-8164D01*
X-6574Y-8208D01*
X-6765Y-8335D01*
X-6892Y-8526D01*
X-6936Y-8750D01*
X-6892Y-8974D01*
X-6765Y-9165D01*
X-6574Y-9292D01*
X-6350Y-9336D01*
X-6126Y-9292D01*
X-5935Y-9165D01*
X-5846Y-9030D01*
X-5650D01*
Y-9175D01*
X-5650D01*
Y-9225D01*
X-5650D01*
Y-9971D01*
X-5777Y-9983D01*
X-5808Y-9826D01*
X-5935Y-9635D01*
X-6126Y-9508D01*
X-6350Y-9464D01*
X-6574Y-9508D01*
X-6765Y-9635D01*
X-6892Y-9826D01*
X-6936Y-10050D01*
X-6892Y-10274D01*
X-6765Y-10465D01*
X-6574Y-10592D01*
X-6350Y-10636D01*
X-6192Y-10605D01*
X-5675Y-11122D01*
Y-11550D01*
X-4802D01*
X-4725Y-11550D01*
X-4700D01*
X-4675D01*
X-4627D01*
X-4559Y-11677D01*
X-4642Y-11801D01*
X-4686Y-12025D01*
X-4642Y-12249D01*
X-4592Y-12324D01*
X-4653Y-12460D01*
X-4704Y-12467D01*
X-4960Y-12573D01*
X-5179Y-12741D01*
X-5242Y-12823D01*
X-5369Y-12780D01*
Y-12400D01*
X-5394Y-12273D01*
X-5466Y-12166D01*
X-7366Y-10266D01*
X-7473Y-10194D01*
X-7600Y-10169D01*
X-14725D01*
Y-10025D01*
X-16375D01*
Y-10169D01*
X-16650D01*
Y-10125D01*
X-16769D01*
Y-9406D01*
X-16675Y-9325D01*
Y-9325D01*
X-14625D01*
Y-9325D01*
X-14579Y-9368D01*
X-14565Y-9390D01*
X-14374Y-9517D01*
X-14150Y-9561D01*
X-13926Y-9517D01*
X-13735Y-9390D01*
X-13646Y-9255D01*
X-13225D01*
Y-9425D01*
X-12377D01*
X-12367D01*
X-12250Y-9450D01*
X-12231D01*
X-12158Y-9450D01*
X-11850D01*
Y-8975D01*
Y-8500D01*
X-12158D01*
X-12231Y-8500D01*
X-12250D01*
X-12264Y-8503D01*
X-12295Y-8470D01*
X-12280Y-8344D01*
X-12266Y-8334D01*
X-11113Y-7181D01*
X-10949Y-7149D01*
X-10801Y-7049D01*
X-10701Y-6901D01*
X-10668Y-6733D01*
X-10635Y-6712D01*
X-10547Y-6675D01*
X-10205Y-7016D01*
Y-8696D01*
X-10340Y-8785D01*
X-10467Y-8976D01*
X-10511Y-9200D01*
X-10467Y-9424D01*
X-10340Y-9615D01*
X-10149Y-9742D01*
X-9925Y-9786D01*
X-9701Y-9742D01*
X-9510Y-9615D01*
X-9383Y-9424D01*
X-9339Y-9200D01*
X-9383Y-8976D01*
X-9510Y-8785D01*
X-9645Y-8696D01*
Y-6900D01*
X-9645Y-6900D01*
X-9666Y-6793D01*
X-9727Y-6702D01*
X-9727Y-6702D01*
X-10427Y-6002D01*
X-10518Y-5941D01*
X-10625Y-5920D01*
X-13200D01*
X-13200Y-5920D01*
X-13307Y-5941D01*
X-13398Y-6002D01*
X-13398Y-6002D01*
X-14508Y-7111D01*
X-14625Y-7063D01*
Y-6675D01*
X-16675D01*
Y-6745D01*
X-17234D01*
X-18207Y-5772D01*
X-18210Y-5742D01*
X-18209Y-5730D01*
X-18197Y-5673D01*
X-18178Y-5632D01*
X-18173Y-5626D01*
X-18160Y-5614D01*
X-18140Y-5601D01*
X-18134Y-5591D01*
X-18125Y-5584D01*
X-18115Y-5563D01*
X-18102Y-5543D01*
X-18101Y-5543D01*
X-18008Y-5582D01*
X-17825Y-5606D01*
X-17642Y-5582D01*
X-17549Y-5543D01*
X-17548Y-5543D01*
X-17535Y-5563D01*
X-17525Y-5584D01*
X-17516Y-5591D01*
X-17510Y-5601D01*
X-17490Y-5614D01*
X-17473Y-5630D01*
X-17461Y-5633D01*
X-17452Y-5640D01*
X-17429Y-5644D01*
X-17407Y-5652D01*
X-17395Y-5651D01*
X-17383Y-5653D01*
X-13817D01*
X-13805Y-5651D01*
X-13793Y-5652D01*
X-13771Y-5644D01*
X-13748Y-5640D01*
X-13739Y-5633D01*
X-13727Y-5630D01*
X-13710Y-5614D01*
X-13690Y-5601D01*
X-13684Y-5591D01*
X-13675Y-5584D01*
X-13665Y-5563D01*
X-13652Y-5543D01*
X-13651Y-5543D01*
X-13558Y-5582D01*
X-13375Y-5606D01*
X-13192Y-5582D01*
X-13099Y-5543D01*
X-13098Y-5543D01*
X-13085Y-5563D01*
X-13075Y-5584D01*
X-13066Y-5591D01*
X-13060Y-5601D01*
X-13040Y-5614D01*
X-13023Y-5630D01*
X-13011Y-5633D01*
X-13002Y-5640D01*
X-12979Y-5644D01*
X-12957Y-5652D01*
X-12945Y-5651D01*
X-12933Y-5653D01*
X-10850D01*
X-10782Y-5640D01*
X-10724Y-5601D01*
X-10685Y-5543D01*
X-10672Y-5475D01*
X-10672Y-2562D01*
X-10674Y-2551D01*
X-10673Y-2539D01*
X-10681Y-2517D01*
X-10685Y-2494D01*
X-10692Y-2484D01*
X-10695Y-2473D01*
X-10711Y-2455D01*
X-10724Y-2436D01*
X-10734Y-2429D01*
X-10741Y-2421D01*
X-10762Y-2410D01*
X-10780Y-2398D01*
X-10742Y-2306D01*
X-10734Y-2243D01*
X-10728Y-2211D01*
X-10729Y-2202D01*
X-10726Y-2193D01*
X-10724Y-2170D01*
X-10719Y-2131D01*
Y-1219D01*
X-10725Y-1178D01*
X-10726Y-1159D01*
X-10728Y-1152D01*
X-10728Y-1145D01*
X-10735Y-1100D01*
X-10735Y-1098D01*
X-10742Y-1044D01*
X-10766Y-987D01*
X-10726Y-912D01*
X-10675Y-876D01*
X-10600Y-885D01*
X-10271Y-842D01*
X-9964Y-715D01*
X-9722Y-529D01*
X-529D01*
Y-99471D01*
D02*
G37*
%LPC*%
G36*
X-39425Y-35300D02*
X-39950D01*
Y-35800D01*
X-39425D01*
Y-35300D01*
D02*
G37*
G36*
X-40150Y-35400D02*
X-40500D01*
Y-35825D01*
X-40150D01*
Y-35400D01*
D02*
G37*
G36*
X-24675Y-27641D02*
X-24851Y-27676D01*
X-24999Y-27776D01*
X-25099Y-27924D01*
X-25134Y-28100D01*
X-25099Y-28276D01*
X-24999Y-28424D01*
X-24955Y-28454D01*
Y-35171D01*
X-25090Y-35260D01*
X-25217Y-35451D01*
X-25261Y-35675D01*
X-25217Y-35899D01*
X-25090Y-36090D01*
X-24899Y-36217D01*
X-24675Y-36261D01*
X-24451Y-36217D01*
X-24260Y-36090D01*
X-24133Y-35899D01*
X-24089Y-35675D01*
X-24133Y-35451D01*
X-24260Y-35260D01*
X-24395Y-35171D01*
Y-28454D01*
X-24351Y-28424D01*
X-24251Y-28276D01*
X-24216Y-28100D01*
X-24251Y-27924D01*
X-24351Y-27776D01*
X-24499Y-27676D01*
X-24675Y-27641D01*
D02*
G37*
G36*
X-56600Y-22075D02*
X-56975D01*
Y-22475D01*
X-56600D01*
Y-22075D01*
D02*
G37*
G36*
X-38700Y-36000D02*
X-39225D01*
Y-36500D01*
X-38700D01*
Y-36000D01*
D02*
G37*
G36*
X-45650Y-42425D02*
X-46025D01*
Y-42825D01*
X-45650D01*
Y-42425D01*
D02*
G37*
G36*
X-42735Y-40475D02*
X-43485D01*
Y-40875D01*
X-42735D01*
Y-40475D01*
D02*
G37*
G36*
X-29075Y-49139D02*
X-29299Y-49183D01*
X-29490Y-49310D01*
X-29617Y-49501D01*
X-29661Y-49725D01*
X-29617Y-49949D01*
X-29490Y-50140D01*
X-29299Y-50267D01*
X-29075Y-50311D01*
X-28851Y-50267D01*
X-28660Y-50140D01*
X-28533Y-49949D01*
X-28489Y-49725D01*
X-28533Y-49501D01*
X-28660Y-49310D01*
X-28851Y-49183D01*
X-29075Y-49139D01*
D02*
G37*
G36*
X-47075Y-42400D02*
X-47425D01*
Y-42825D01*
X-47075D01*
Y-42400D01*
D02*
G37*
G36*
X-41785Y-40475D02*
X-42535D01*
Y-40875D01*
X-41785D01*
Y-40475D01*
D02*
G37*
G36*
X-50225Y-21350D02*
X-50625D01*
Y-21725D01*
X-50225D01*
Y-21350D01*
D02*
G37*
G36*
X-39425Y-36000D02*
X-39950D01*
Y-36500D01*
X-39425D01*
Y-36000D01*
D02*
G37*
G36*
X-42735Y-39875D02*
X-43485D01*
Y-40275D01*
X-42735D01*
Y-39875D01*
D02*
G37*
G36*
X-41785D02*
X-42535D01*
Y-40275D01*
X-41785D01*
Y-39875D01*
D02*
G37*
G36*
X-52850Y-25525D02*
X-53375D01*
Y-26025D01*
X-52850D01*
Y-25525D01*
D02*
G37*
G36*
X-56350Y-28375D02*
X-56675D01*
Y-29275D01*
X-56350D01*
Y-28375D01*
D02*
G37*
G36*
X-57650Y-29025D02*
X-58000D01*
Y-29450D01*
X-57650D01*
Y-29025D01*
D02*
G37*
G36*
X-57100D02*
X-57450D01*
Y-29450D01*
X-57100D01*
Y-29025D01*
D02*
G37*
G36*
X-4530Y-27684D02*
X-4704Y-27707D01*
X-4960Y-27813D01*
X-5179Y-27981D01*
X-5347Y-28200D01*
X-5453Y-28456D01*
X-5476Y-28630D01*
X-4530D01*
Y-27684D01*
D02*
G37*
G36*
X-52850Y-26225D02*
X-53375D01*
Y-26725D01*
X-52850D01*
Y-26225D01*
D02*
G37*
G36*
X-52125D02*
X-52650D01*
Y-26725D01*
X-52125D01*
Y-26225D01*
D02*
G37*
G36*
X-4330Y-27684D02*
Y-28630D01*
X-3384D01*
X-3407Y-28456D01*
X-3513Y-28200D01*
X-3681Y-27981D01*
X-3900Y-27813D01*
X-4156Y-27707D01*
X-4330Y-27684D01*
D02*
G37*
G36*
X-24375Y-26500D02*
X-24800D01*
Y-26850D01*
X-24375D01*
Y-26500D01*
D02*
G37*
G36*
X-25750Y-26991D02*
X-25926Y-27026D01*
X-26074Y-27126D01*
X-26174Y-27274D01*
X-26209Y-27450D01*
X-26198Y-27502D01*
X-26723Y-28027D01*
X-26784Y-28118D01*
X-26805Y-28225D01*
Y-34500D01*
X-26784Y-34607D01*
X-26723Y-34698D01*
X-26455Y-34967D01*
X-26486Y-35125D01*
X-26442Y-35349D01*
X-26315Y-35540D01*
X-26124Y-35667D01*
X-25900Y-35711D01*
X-25676Y-35667D01*
X-25485Y-35540D01*
X-25358Y-35349D01*
X-25314Y-35125D01*
X-25358Y-34901D01*
X-25485Y-34710D01*
X-25676Y-34583D01*
X-25900Y-34539D01*
X-26058Y-34570D01*
X-26245Y-34384D01*
Y-32681D01*
X-26118Y-32621D01*
X-25974Y-32717D01*
X-25750Y-32761D01*
X-25526Y-32717D01*
X-25335Y-32590D01*
X-25208Y-32399D01*
X-25164Y-32175D01*
X-25208Y-31951D01*
X-25335Y-31760D01*
X-25470Y-31671D01*
Y-28554D01*
X-25426Y-28524D01*
X-25326Y-28376D01*
X-25291Y-28200D01*
X-25326Y-28024D01*
X-25426Y-27876D01*
Y-27774D01*
X-25326Y-27626D01*
X-25291Y-27450D01*
X-25326Y-27274D01*
X-25426Y-27126D01*
X-25574Y-27026D01*
X-25750Y-26991D01*
D02*
G37*
G36*
X-39425Y-31900D02*
X-39950D01*
Y-32400D01*
X-39425D01*
Y-31900D01*
D02*
G37*
G36*
X-38700Y-35300D02*
X-39225D01*
Y-35800D01*
X-38700D01*
Y-35300D01*
D02*
G37*
G36*
X-30975Y-22475D02*
X-31325D01*
Y-22900D01*
X-30975D01*
Y-22475D01*
D02*
G37*
G36*
X-38700Y-31900D02*
X-39225D01*
Y-32400D01*
X-38700D01*
Y-31900D01*
D02*
G37*
G36*
X-56950Y-30425D02*
X-57350D01*
Y-30800D01*
X-56950D01*
Y-30425D01*
D02*
G37*
G36*
X-51200Y-25550D02*
X-51550D01*
Y-25975D01*
X-51200D01*
Y-25550D01*
D02*
G37*
G36*
X-39225Y-31200D02*
Y-31700D01*
X-38700D01*
Y-31200D01*
X-39225D01*
D02*
G37*
G36*
X-56950Y-31000D02*
X-57350D01*
Y-31375D01*
X-56950D01*
Y-31000D01*
D02*
G37*
G36*
X-33810Y-91996D02*
X-34078Y-92031D01*
X-34327Y-92135D01*
X-34541Y-92299D01*
X-34705Y-92513D01*
X-34809Y-92762D01*
X-34844Y-93030D01*
X-34809Y-93298D01*
X-34705Y-93547D01*
X-34541Y-93761D01*
X-34327Y-93925D01*
X-34078Y-94029D01*
X-33810Y-94064D01*
X-33542Y-94029D01*
X-33293Y-93925D01*
X-33079Y-93761D01*
X-32915Y-93547D01*
X-32811Y-93298D01*
X-32776Y-93030D01*
X-32811Y-92762D01*
X-32915Y-92513D01*
X-33079Y-92299D01*
X-33293Y-92135D01*
X-33542Y-92031D01*
X-33810Y-91996D01*
D02*
G37*
G36*
X-41530Y-91984D02*
X-41704Y-92007D01*
X-41960Y-92113D01*
X-42179Y-92281D01*
X-42347Y-92500D01*
X-42453Y-92756D01*
X-42476Y-92930D01*
X-41530D01*
Y-91984D01*
D02*
G37*
G36*
X-36350Y-91996D02*
X-36618Y-92031D01*
X-36867Y-92135D01*
X-37081Y-92299D01*
X-37245Y-92513D01*
X-37349Y-92762D01*
X-37384Y-93030D01*
X-37349Y-93298D01*
X-37245Y-93547D01*
X-37081Y-93761D01*
X-36867Y-93925D01*
X-36618Y-94029D01*
X-36350Y-94064D01*
X-36082Y-94029D01*
X-35833Y-93925D01*
X-35619Y-93761D01*
X-35455Y-93547D01*
X-35351Y-93298D01*
X-35316Y-93030D01*
X-35351Y-92762D01*
X-35455Y-92513D01*
X-35619Y-92299D01*
X-35833Y-92135D01*
X-36082Y-92031D01*
X-36350Y-91996D01*
D02*
G37*
G36*
X-40384Y-93130D02*
X-41330D01*
Y-94076D01*
X-41156Y-94053D01*
X-40900Y-93947D01*
X-40681Y-93779D01*
X-40513Y-93560D01*
X-40407Y-93304D01*
X-40384Y-93130D01*
D02*
G37*
G36*
X-38890Y-91996D02*
X-39158Y-92031D01*
X-39407Y-92135D01*
X-39621Y-92299D01*
X-39785Y-92513D01*
X-39889Y-92762D01*
X-39924Y-93030D01*
X-39889Y-93298D01*
X-39785Y-93547D01*
X-39621Y-93761D01*
X-39407Y-93925D01*
X-39158Y-94029D01*
X-38890Y-94064D01*
X-38622Y-94029D01*
X-38373Y-93925D01*
X-38159Y-93761D01*
X-37995Y-93547D01*
X-37891Y-93298D01*
X-37856Y-93030D01*
X-37891Y-92762D01*
X-37995Y-92513D01*
X-38159Y-92299D01*
X-38373Y-92135D01*
X-38622Y-92031D01*
X-38890Y-91996D01*
D02*
G37*
G36*
X-41330Y-91984D02*
Y-92930D01*
X-40384D01*
X-40407Y-92756D01*
X-40513Y-92500D01*
X-40681Y-92281D01*
X-40900Y-92113D01*
X-41156Y-92007D01*
X-41330Y-91984D01*
D02*
G37*
G36*
X-4430Y-86116D02*
X-4698Y-86151D01*
X-4947Y-86255D01*
X-5161Y-86419D01*
X-5325Y-86633D01*
X-5429Y-86882D01*
X-5464Y-87150D01*
X-5429Y-87418D01*
X-5325Y-87667D01*
X-5161Y-87881D01*
X-4947Y-88045D01*
X-4698Y-88149D01*
X-4430Y-88184D01*
X-4162Y-88149D01*
X-3913Y-88045D01*
X-3699Y-87881D01*
X-3535Y-87667D01*
X-3431Y-87418D01*
X-3396Y-87150D01*
X-3431Y-86882D01*
X-3535Y-86633D01*
X-3699Y-86419D01*
X-3913Y-86255D01*
X-4162Y-86151D01*
X-4430Y-86116D01*
D02*
G37*
G36*
Y-83576D02*
X-4698Y-83611D01*
X-4947Y-83715D01*
X-5161Y-83879D01*
X-5325Y-84093D01*
X-5429Y-84342D01*
X-5464Y-84610D01*
X-5429Y-84878D01*
X-5331Y-85114D01*
X-5788Y-85572D01*
X-6331D01*
X-6374Y-85445D01*
X-6239Y-85341D01*
X-6075Y-85127D01*
X-5971Y-84878D01*
X-5936Y-84610D01*
X-5971Y-84342D01*
X-6075Y-84093D01*
X-6239Y-83879D01*
X-6453Y-83715D01*
X-6702Y-83611D01*
X-6970Y-83576D01*
X-7238Y-83611D01*
X-7487Y-83715D01*
X-7701Y-83879D01*
X-7865Y-84093D01*
X-7963Y-84330D01*
X-12869D01*
X-12901Y-84282D01*
X-13049Y-84182D01*
X-13225Y-84147D01*
X-13401Y-84182D01*
X-13549Y-84282D01*
X-13581Y-84330D01*
X-38534D01*
X-38563Y-84286D01*
X-38712Y-84186D01*
X-38887Y-84151D01*
X-39063Y-84186D01*
X-39212Y-84286D01*
X-39311Y-84434D01*
X-39346Y-84610D01*
X-39311Y-84786D01*
X-39212Y-84934D01*
X-39063Y-85034D01*
X-38887Y-85069D01*
X-38712Y-85034D01*
X-38563Y-84934D01*
X-38534Y-84890D01*
X-13576D01*
X-13549Y-84931D01*
X-13401Y-85030D01*
X-13225Y-85065D01*
X-13049Y-85030D01*
X-12901Y-84931D01*
X-12874Y-84890D01*
X-7963D01*
X-7865Y-85127D01*
X-7701Y-85341D01*
X-7566Y-85445D01*
X-7609Y-85572D01*
X-19257D01*
X-19286Y-85528D01*
X-19435Y-85428D01*
X-19611Y-85393D01*
X-19786Y-85428D01*
X-19935Y-85528D01*
X-19965Y-85572D01*
X-37221D01*
X-37251Y-85528D01*
X-37399Y-85428D01*
X-37575Y-85393D01*
X-37751Y-85428D01*
X-37899Y-85528D01*
X-37999Y-85676D01*
X-38034Y-85852D01*
X-37999Y-86028D01*
X-37899Y-86176D01*
X-37751Y-86276D01*
X-37575Y-86311D01*
X-37399Y-86276D01*
X-37251Y-86176D01*
X-37221Y-86132D01*
X-19965D01*
X-19935Y-86176D01*
X-19786Y-86276D01*
X-19611Y-86311D01*
X-19435Y-86276D01*
X-19286Y-86176D01*
X-19257Y-86132D01*
X-7577D01*
X-7534Y-86259D01*
X-7719Y-86401D01*
X-7887Y-86620D01*
X-7993Y-86876D01*
X-8016Y-87050D01*
X-5924D01*
X-5947Y-86876D01*
X-6053Y-86620D01*
X-6221Y-86401D01*
X-6406Y-86259D01*
X-6363Y-86132D01*
X-5672D01*
X-5565Y-86111D01*
X-5474Y-86050D01*
X-4934Y-85511D01*
X-4698Y-85609D01*
X-4430Y-85644D01*
X-4162Y-85609D01*
X-3913Y-85505D01*
X-3699Y-85341D01*
X-3535Y-85127D01*
X-3431Y-84878D01*
X-3396Y-84610D01*
X-3431Y-84342D01*
X-3535Y-84093D01*
X-3699Y-83879D01*
X-3913Y-83715D01*
X-4162Y-83611D01*
X-4430Y-83576D01*
D02*
G37*
G36*
X-5924Y-87250D02*
X-6870D01*
Y-88196D01*
X-6696Y-88173D01*
X-6440Y-88067D01*
X-6221Y-87899D01*
X-6053Y-87680D01*
X-5947Y-87424D01*
X-5924Y-87250D01*
D02*
G37*
G36*
X-34524Y-88307D02*
X-34699Y-88342D01*
X-34848Y-88442D01*
X-34948Y-88591D01*
X-34983Y-88766D01*
X-34948Y-88942D01*
X-34848Y-89091D01*
X-34699Y-89190D01*
X-34524Y-89225D01*
X-34348Y-89190D01*
X-34199Y-89091D01*
X-34170Y-89047D01*
X-28030D01*
X-24551Y-92526D01*
X-24649Y-92762D01*
X-24684Y-93030D01*
X-24649Y-93298D01*
X-24545Y-93547D01*
X-24381Y-93761D01*
X-24210Y-93893D01*
X-24253Y-94020D01*
X-25587D01*
X-25630Y-93893D01*
X-25459Y-93761D01*
X-25295Y-93547D01*
X-25191Y-93298D01*
X-25156Y-93030D01*
X-25191Y-92762D01*
X-25295Y-92513D01*
X-25459Y-92299D01*
X-25673Y-92135D01*
X-25922Y-92031D01*
X-26190Y-91996D01*
X-26458Y-92031D01*
X-26707Y-92135D01*
X-26921Y-92299D01*
X-27085Y-92513D01*
X-27189Y-92762D01*
X-27224Y-93030D01*
X-27189Y-93298D01*
X-27085Y-93547D01*
X-26921Y-93761D01*
X-26750Y-93893D01*
X-26793Y-94020D01*
X-27344D01*
X-27829Y-93534D01*
X-27731Y-93298D01*
X-27696Y-93030D01*
X-27731Y-92762D01*
X-27835Y-92513D01*
X-27999Y-92299D01*
X-28213Y-92135D01*
X-28462Y-92031D01*
X-28730Y-91996D01*
X-28998Y-92031D01*
X-29247Y-92135D01*
X-29461Y-92299D01*
X-29593Y-92470D01*
X-29720Y-92427D01*
Y-92262D01*
X-29720Y-92262D01*
X-29741Y-92155D01*
X-29802Y-92064D01*
X-31727Y-90139D01*
X-31716Y-90087D01*
X-31751Y-89911D01*
X-31851Y-89763D01*
X-31999Y-89663D01*
X-32175Y-89628D01*
X-32351Y-89663D01*
X-32499Y-89763D01*
X-32599Y-89911D01*
X-32634Y-90087D01*
X-32599Y-90263D01*
X-32499Y-90411D01*
X-32351Y-90511D01*
X-32175Y-90546D01*
X-32123Y-90535D01*
X-30344Y-92315D01*
X-30349Y-92338D01*
X-30486Y-92367D01*
X-30539Y-92299D01*
X-30753Y-92135D01*
X-31002Y-92031D01*
X-31270Y-91996D01*
X-31538Y-92031D01*
X-31787Y-92135D01*
X-32001Y-92299D01*
X-32165Y-92513D01*
X-32269Y-92762D01*
X-32304Y-93030D01*
X-32269Y-93298D01*
X-32165Y-93547D01*
X-32001Y-93761D01*
X-31787Y-93925D01*
X-31538Y-94029D01*
X-31270Y-94064D01*
X-31002Y-94029D01*
X-30753Y-93925D01*
X-30539Y-93761D01*
X-30407Y-93590D01*
X-30280Y-93633D01*
Y-94300D01*
X-30259Y-94407D01*
X-30198Y-94498D01*
X-29631Y-95066D01*
X-29729Y-95302D01*
X-29764Y-95570D01*
X-29729Y-95838D01*
X-29625Y-96087D01*
X-29461Y-96301D01*
X-29247Y-96465D01*
X-28998Y-96569D01*
X-28730Y-96604D01*
X-28462Y-96569D01*
X-28213Y-96465D01*
X-27999Y-96301D01*
X-27835Y-96087D01*
X-27731Y-95838D01*
X-27696Y-95570D01*
X-27731Y-95302D01*
X-27835Y-95053D01*
X-27999Y-94839D01*
X-28213Y-94675D01*
X-28462Y-94571D01*
X-28730Y-94536D01*
X-28998Y-94571D01*
X-29234Y-94669D01*
X-29720Y-94184D01*
Y-93633D01*
X-29593Y-93590D01*
X-29461Y-93761D01*
X-29247Y-93925D01*
X-28998Y-94029D01*
X-28730Y-94064D01*
X-28462Y-94029D01*
X-28226Y-93931D01*
X-27658Y-94498D01*
X-27567Y-94559D01*
X-27460Y-94580D01*
X-26793D01*
X-26750Y-94707D01*
X-26921Y-94839D01*
X-27085Y-95053D01*
X-27189Y-95302D01*
X-27224Y-95570D01*
X-27189Y-95838D01*
X-27085Y-96087D01*
X-26921Y-96301D01*
X-26707Y-96465D01*
X-26458Y-96569D01*
X-26190Y-96604D01*
X-25922Y-96569D01*
X-25673Y-96465D01*
X-25459Y-96301D01*
X-25295Y-96087D01*
X-25191Y-95838D01*
X-25156Y-95570D01*
X-25191Y-95302D01*
X-25295Y-95053D01*
X-25459Y-94839D01*
X-25630Y-94707D01*
X-25587Y-94580D01*
X-24253D01*
X-24210Y-94707D01*
X-24381Y-94839D01*
X-24545Y-95053D01*
X-24649Y-95302D01*
X-24684Y-95570D01*
X-24649Y-95838D01*
X-24545Y-96087D01*
X-24381Y-96301D01*
X-24167Y-96465D01*
X-23918Y-96569D01*
X-23650Y-96604D01*
X-23382Y-96569D01*
X-23133Y-96465D01*
X-22919Y-96301D01*
X-22755Y-96087D01*
X-22651Y-95838D01*
X-22616Y-95570D01*
X-22651Y-95302D01*
X-22755Y-95053D01*
X-22919Y-94839D01*
X-23090Y-94707D01*
X-23047Y-94580D01*
X-22900D01*
X-22793Y-94559D01*
X-22702Y-94498D01*
X-22177Y-93973D01*
X-22116Y-93882D01*
X-22095Y-93775D01*
Y-93639D01*
X-21968Y-93596D01*
X-21841Y-93761D01*
X-21627Y-93925D01*
X-21378Y-94029D01*
X-21110Y-94064D01*
X-20842Y-94029D01*
X-20593Y-93925D01*
X-20379Y-93761D01*
X-20215Y-93547D01*
X-20111Y-93298D01*
X-20076Y-93030D01*
X-20111Y-92762D01*
X-20215Y-92513D01*
X-20379Y-92299D01*
X-20593Y-92135D01*
X-20842Y-92031D01*
X-21110Y-91996D01*
X-21378Y-92031D01*
X-21627Y-92135D01*
X-21841Y-92299D01*
X-21968Y-92464D01*
X-22095Y-92421D01*
Y-91916D01*
X-19254Y-89076D01*
X-16150D01*
X-16120Y-89120D01*
X-15971Y-89219D01*
X-15796Y-89254D01*
X-15620Y-89219D01*
X-15471Y-89120D01*
X-15372Y-88971D01*
X-15337Y-88795D01*
X-15372Y-88620D01*
X-15471Y-88471D01*
X-15620Y-88371D01*
X-15796Y-88336D01*
X-15971Y-88371D01*
X-16120Y-88471D01*
X-16150Y-88515D01*
X-19370D01*
X-19477Y-88536D01*
X-19568Y-88597D01*
X-22573Y-91602D01*
X-22634Y-91693D01*
X-22655Y-91800D01*
Y-92434D01*
X-22782Y-92477D01*
X-22919Y-92299D01*
X-23133Y-92135D01*
X-23382Y-92031D01*
X-23650Y-91996D01*
X-23918Y-92031D01*
X-24154Y-92129D01*
X-27716Y-88568D01*
X-27807Y-88507D01*
X-27914Y-88486D01*
X-34170D01*
X-34199Y-88442D01*
X-34348Y-88342D01*
X-34524Y-88307D01*
D02*
G37*
G36*
X-7070Y-87250D02*
X-8016D01*
X-7993Y-87424D01*
X-7887Y-87680D01*
X-7719Y-87899D01*
X-7500Y-88067D01*
X-7244Y-88173D01*
X-7070Y-88196D01*
Y-87250D01*
D02*
G37*
G36*
X-38890Y-94536D02*
X-39158Y-94571D01*
X-39407Y-94675D01*
X-39621Y-94839D01*
X-39785Y-95053D01*
X-39889Y-95302D01*
X-39924Y-95570D01*
X-39889Y-95838D01*
X-39785Y-96087D01*
X-39621Y-96301D01*
X-39407Y-96465D01*
X-39158Y-96569D01*
X-38890Y-96604D01*
X-38622Y-96569D01*
X-38373Y-96465D01*
X-38159Y-96301D01*
X-37995Y-96087D01*
X-37891Y-95838D01*
X-37856Y-95570D01*
X-37891Y-95302D01*
X-37995Y-95053D01*
X-38159Y-94839D01*
X-38373Y-94675D01*
X-38622Y-94571D01*
X-38890Y-94536D01*
D02*
G37*
G36*
X-36350D02*
X-36618Y-94571D01*
X-36867Y-94675D01*
X-37081Y-94839D01*
X-37245Y-95053D01*
X-37349Y-95302D01*
X-37384Y-95570D01*
X-37349Y-95838D01*
X-37245Y-96087D01*
X-37081Y-96301D01*
X-36867Y-96465D01*
X-36618Y-96569D01*
X-36350Y-96604D01*
X-36082Y-96569D01*
X-35833Y-96465D01*
X-35619Y-96301D01*
X-35455Y-96087D01*
X-35351Y-95838D01*
X-35316Y-95570D01*
X-35351Y-95302D01*
X-35455Y-95053D01*
X-35619Y-94839D01*
X-35833Y-94675D01*
X-36082Y-94571D01*
X-36350Y-94536D01*
D02*
G37*
G36*
X-41430D02*
X-41698Y-94571D01*
X-41947Y-94675D01*
X-42161Y-94839D01*
X-42325Y-95053D01*
X-42429Y-95302D01*
X-42464Y-95570D01*
X-42429Y-95838D01*
X-42325Y-96087D01*
X-42161Y-96301D01*
X-41947Y-96465D01*
X-41698Y-96569D01*
X-41430Y-96604D01*
X-41162Y-96569D01*
X-40913Y-96465D01*
X-40699Y-96301D01*
X-40535Y-96087D01*
X-40431Y-95838D01*
X-40396Y-95570D01*
X-40431Y-95302D01*
X-40535Y-95053D01*
X-40699Y-94839D01*
X-40913Y-94675D01*
X-41162Y-94571D01*
X-41430Y-94536D01*
D02*
G37*
G36*
X-18670Y-95670D02*
X-19616D01*
X-19593Y-95844D01*
X-19487Y-96100D01*
X-19319Y-96319D01*
X-19100Y-96487D01*
X-18844Y-96593D01*
X-18670Y-96616D01*
Y-95670D01*
D02*
G37*
G36*
X-17524D02*
X-18470D01*
Y-96616D01*
X-18296Y-96593D01*
X-18040Y-96487D01*
X-17821Y-96319D01*
X-17653Y-96100D01*
X-17547Y-95844D01*
X-17524Y-95670D01*
D02*
G37*
G36*
X-33810Y-94536D02*
X-34078Y-94571D01*
X-34327Y-94675D01*
X-34541Y-94839D01*
X-34705Y-95053D01*
X-34809Y-95302D01*
X-34844Y-95570D01*
X-34809Y-95838D01*
X-34705Y-96087D01*
X-34541Y-96301D01*
X-34327Y-96465D01*
X-34078Y-96569D01*
X-33810Y-96604D01*
X-33542Y-96569D01*
X-33293Y-96465D01*
X-33079Y-96301D01*
X-32915Y-96087D01*
X-32811Y-95838D01*
X-32776Y-95570D01*
X-32811Y-95302D01*
X-32915Y-95053D01*
X-33079Y-94839D01*
X-33293Y-94675D01*
X-33542Y-94571D01*
X-33810Y-94536D01*
D02*
G37*
G36*
X-18470Y-94524D02*
Y-95470D01*
X-17524D01*
X-17547Y-95296D01*
X-17653Y-95040D01*
X-17821Y-94821D01*
X-18040Y-94653D01*
X-18296Y-94547D01*
X-18470Y-94524D01*
D02*
G37*
G36*
X-41530Y-93130D02*
X-42476D01*
X-42453Y-93304D01*
X-42347Y-93560D01*
X-42179Y-93779D01*
X-41960Y-93947D01*
X-41704Y-94053D01*
X-41530Y-94076D01*
Y-93130D01*
D02*
G37*
G36*
X-18670Y-94524D02*
X-18844Y-94547D01*
X-19100Y-94653D01*
X-19319Y-94821D01*
X-19487Y-95040D01*
X-19593Y-95296D01*
X-19616Y-95470D01*
X-18670D01*
Y-94524D01*
D02*
G37*
G36*
X-31270Y-94536D02*
X-31538Y-94571D01*
X-31787Y-94675D01*
X-32001Y-94839D01*
X-32165Y-95053D01*
X-32269Y-95302D01*
X-32304Y-95570D01*
X-32269Y-95838D01*
X-32165Y-96087D01*
X-32001Y-96301D01*
X-31787Y-96465D01*
X-31538Y-96569D01*
X-31270Y-96604D01*
X-31002Y-96569D01*
X-30753Y-96465D01*
X-30539Y-96301D01*
X-30375Y-96087D01*
X-30271Y-95838D01*
X-30236Y-95570D01*
X-30271Y-95302D01*
X-30375Y-95053D01*
X-30539Y-94839D01*
X-30753Y-94675D01*
X-31002Y-94571D01*
X-31270Y-94536D01*
D02*
G37*
G36*
X-21110D02*
X-21378Y-94571D01*
X-21627Y-94675D01*
X-21841Y-94839D01*
X-22005Y-95053D01*
X-22109Y-95302D01*
X-22144Y-95570D01*
X-22109Y-95838D01*
X-22005Y-96087D01*
X-21841Y-96301D01*
X-21627Y-96465D01*
X-21378Y-96569D01*
X-21110Y-96604D01*
X-20842Y-96569D01*
X-20593Y-96465D01*
X-20379Y-96301D01*
X-20215Y-96087D01*
X-20111Y-95838D01*
X-20076Y-95570D01*
X-20111Y-95302D01*
X-20215Y-95053D01*
X-20379Y-94839D01*
X-20593Y-94675D01*
X-20842Y-94571D01*
X-21110Y-94536D01*
D02*
G37*
G36*
X-14525Y-55516D02*
X-14701Y-55551D01*
X-14849Y-55651D01*
X-14949Y-55799D01*
X-14984Y-55975D01*
X-14978Y-56005D01*
X-15092Y-56081D01*
X-15099Y-56076D01*
X-15275Y-56041D01*
X-15451Y-56076D01*
X-15599Y-56176D01*
X-15699Y-56324D01*
X-15734Y-56500D01*
X-15699Y-56676D01*
X-15599Y-56824D01*
X-15555Y-56854D01*
Y-59639D01*
X-17911Y-61995D01*
X-19621D01*
X-19651Y-61951D01*
X-19799Y-61851D01*
X-19975Y-61816D01*
X-20151Y-61851D01*
X-20299Y-61951D01*
X-20399Y-62099D01*
X-20434Y-62275D01*
X-20399Y-62451D01*
X-20299Y-62599D01*
X-20151Y-62699D01*
X-19975Y-62734D01*
X-19799Y-62699D01*
X-19651Y-62599D01*
X-19621Y-62555D01*
X-17795D01*
X-17687Y-62534D01*
X-17596Y-62473D01*
X-15077Y-59954D01*
X-15016Y-59863D01*
X-14995Y-59755D01*
X-14995Y-59755D01*
Y-58836D01*
X-14868Y-58797D01*
X-14849Y-58824D01*
X-14701Y-58924D01*
X-14525Y-58959D01*
X-14349Y-58924D01*
X-14201Y-58824D01*
X-14101Y-58676D01*
X-14066Y-58500D01*
X-14101Y-58324D01*
X-14201Y-58176D01*
X-14245Y-58146D01*
Y-56329D01*
X-14201Y-56299D01*
X-14101Y-56151D01*
X-14066Y-55975D01*
X-14101Y-55799D01*
X-14201Y-55651D01*
X-14349Y-55551D01*
X-14525Y-55516D01*
D02*
G37*
G36*
X-47156Y-53367D02*
X-47424Y-53402D01*
X-47673Y-53506D01*
X-47887Y-53670D01*
X-48052Y-53884D01*
X-48155Y-54133D01*
X-48190Y-54401D01*
X-48155Y-54669D01*
X-48052Y-54918D01*
X-47887Y-55132D01*
X-47673Y-55296D01*
X-47424Y-55400D01*
X-47156Y-55435D01*
X-46889Y-55400D01*
X-46639Y-55296D01*
X-46425Y-55132D01*
X-46261Y-54918D01*
X-46158Y-54669D01*
X-46123Y-54401D01*
X-46158Y-54133D01*
X-46261Y-53884D01*
X-46425Y-53670D01*
X-46639Y-53506D01*
X-46889Y-53402D01*
X-47156Y-53367D01*
D02*
G37*
G36*
X-2921Y-55853D02*
X-3097Y-55888D01*
X-3245Y-55987D01*
X-3345Y-56136D01*
X-3380Y-56312D01*
X-3345Y-56487D01*
X-3245Y-56636D01*
X-3097Y-56736D01*
X-2921Y-56771D01*
X-2745Y-56736D01*
X-2597Y-56636D01*
X-2497Y-56487D01*
X-2462Y-56312D01*
X-2497Y-56136D01*
X-2597Y-55987D01*
X-2745Y-55888D01*
X-2921Y-55853D01*
D02*
G37*
G36*
X-40700Y-56091D02*
X-40876Y-56126D01*
X-41024Y-56226D01*
X-41124Y-56374D01*
X-41159Y-56550D01*
X-41124Y-56726D01*
X-41024Y-56874D01*
X-40876Y-56974D01*
X-40700Y-57009D01*
X-40524Y-56974D01*
X-40376Y-56874D01*
X-40276Y-56726D01*
X-40241Y-56550D01*
X-40276Y-56374D01*
X-40376Y-56226D01*
X-40524Y-56126D01*
X-40700Y-56091D01*
D02*
G37*
G36*
X-4430Y-55853D02*
X-4606Y-55888D01*
X-4754Y-55987D01*
X-4854Y-56136D01*
X-4889Y-56312D01*
X-4854Y-56487D01*
X-4754Y-56636D01*
X-4606Y-56736D01*
X-4430Y-56771D01*
X-4254Y-56736D01*
X-4106Y-56636D01*
X-4006Y-56487D01*
X-3971Y-56312D01*
X-4006Y-56136D01*
X-4106Y-55987D01*
X-4254Y-55888D01*
X-4430Y-55853D01*
D02*
G37*
G36*
X-22100Y-53266D02*
X-22276Y-53301D01*
X-22424Y-53401D01*
X-22524Y-53549D01*
X-22559Y-53725D01*
X-22524Y-53901D01*
X-22424Y-54049D01*
X-22276Y-54149D01*
X-22100Y-54184D01*
X-21924Y-54149D01*
X-21776Y-54049D01*
X-21676Y-53901D01*
X-21641Y-53725D01*
X-21676Y-53549D01*
X-21776Y-53401D01*
X-21924Y-53301D01*
X-22100Y-53266D01*
D02*
G37*
G36*
X-27350Y-49189D02*
X-27574Y-49233D01*
X-27765Y-49360D01*
X-27892Y-49551D01*
X-27936Y-49775D01*
X-27892Y-49999D01*
X-27765Y-50190D01*
X-27574Y-50317D01*
X-27350Y-50361D01*
X-27126Y-50317D01*
X-26935Y-50190D01*
X-26808Y-49999D01*
X-26764Y-49775D01*
X-26808Y-49551D01*
X-26935Y-49360D01*
X-27126Y-49233D01*
X-27350Y-49189D01*
D02*
G37*
G36*
X-46131Y-48296D02*
X-48181D01*
Y-50346D01*
X-46131D01*
Y-48296D01*
D02*
G37*
G36*
X-5924Y-51690D02*
X-6870D01*
Y-52636D01*
X-6696Y-52613D01*
X-6440Y-52507D01*
X-6221Y-52339D01*
X-6053Y-52120D01*
X-5947Y-51864D01*
X-5924Y-51690D01*
D02*
G37*
G36*
X-47156Y-50827D02*
X-47424Y-50862D01*
X-47673Y-50966D01*
X-47887Y-51130D01*
X-48052Y-51344D01*
X-48155Y-51593D01*
X-48190Y-51861D01*
X-48155Y-52129D01*
X-48052Y-52378D01*
X-47887Y-52592D01*
X-47673Y-52756D01*
X-47424Y-52860D01*
X-47156Y-52895D01*
X-46889Y-52860D01*
X-46639Y-52756D01*
X-46425Y-52592D01*
X-46261Y-52378D01*
X-46158Y-52129D01*
X-46123Y-51861D01*
X-46158Y-51593D01*
X-46261Y-51344D01*
X-46425Y-51130D01*
X-46639Y-50966D01*
X-46889Y-50862D01*
X-47156Y-50827D01*
D02*
G37*
G36*
X-7070Y-51690D02*
X-8016D01*
X-7993Y-51864D01*
X-7887Y-52120D01*
X-7719Y-52339D01*
X-7500Y-52507D01*
X-7244Y-52613D01*
X-7070Y-52636D01*
Y-51690D01*
D02*
G37*
G36*
X-33375Y-68966D02*
X-33551Y-69001D01*
X-33699Y-69101D01*
X-33799Y-69249D01*
X-33834Y-69425D01*
X-33823Y-69477D01*
X-44141Y-79795D01*
X-46150D01*
Y-77475D01*
X-58350D01*
Y-89675D01*
X-46150D01*
Y-80355D01*
X-44025D01*
X-43918Y-80334D01*
X-43827Y-80273D01*
X-33427Y-69873D01*
X-33375Y-69884D01*
X-33199Y-69849D01*
X-33051Y-69749D01*
X-32951Y-69601D01*
X-32916Y-69425D01*
X-32951Y-69249D01*
X-33051Y-69101D01*
X-33199Y-69001D01*
X-33375Y-68966D01*
D02*
G37*
G36*
X-37055Y-65516D02*
X-37323Y-65551D01*
X-37572Y-65655D01*
X-37786Y-65819D01*
X-37950Y-66033D01*
X-38054Y-66282D01*
X-38089Y-66550D01*
X-38054Y-66818D01*
X-37950Y-67067D01*
X-37786Y-67281D01*
X-37572Y-67445D01*
X-37323Y-67549D01*
X-37055Y-67584D01*
X-36787Y-67549D01*
X-36538Y-67445D01*
X-36324Y-67281D01*
X-36160Y-67067D01*
X-36056Y-66818D01*
X-36021Y-66550D01*
X-36056Y-66282D01*
X-36160Y-66033D01*
X-36324Y-65819D01*
X-36538Y-65655D01*
X-36787Y-65551D01*
X-37055Y-65516D01*
D02*
G37*
G36*
X-6970Y-68336D02*
X-7238Y-68371D01*
X-7487Y-68475D01*
X-7701Y-68639D01*
X-7865Y-68853D01*
X-7969Y-69102D01*
X-8004Y-69370D01*
X-7969Y-69638D01*
X-7865Y-69887D01*
X-7701Y-70101D01*
X-7517Y-70243D01*
X-7551Y-70370D01*
X-28896D01*
X-28926Y-70326D01*
X-29074Y-70226D01*
X-29250Y-70191D01*
X-29426Y-70226D01*
X-29574Y-70326D01*
X-29674Y-70474D01*
X-29709Y-70650D01*
X-29674Y-70826D01*
X-29574Y-70974D01*
X-29426Y-71074D01*
X-29250Y-71109D01*
X-29074Y-71074D01*
X-28926Y-70974D01*
X-28896Y-70930D01*
X-7586D01*
X-7543Y-71057D01*
X-7701Y-71179D01*
X-7865Y-71393D01*
X-7963Y-71630D01*
X-29081D01*
X-29101Y-71601D01*
X-29249Y-71501D01*
X-29425Y-71466D01*
X-29601Y-71501D01*
X-29749Y-71601D01*
X-29849Y-71749D01*
X-29884Y-71925D01*
X-29849Y-72101D01*
X-29749Y-72249D01*
X-29601Y-72349D01*
X-29425Y-72384D01*
X-29249Y-72349D01*
X-29101Y-72249D01*
X-29061Y-72190D01*
X-7963D01*
X-7865Y-72427D01*
X-7701Y-72641D01*
X-7487Y-72805D01*
X-7457Y-72818D01*
X-7483Y-72945D01*
X-27621D01*
X-27651Y-72901D01*
X-27799Y-72801D01*
X-27975Y-72766D01*
X-28151Y-72801D01*
X-28299Y-72901D01*
X-28399Y-73049D01*
X-28434Y-73225D01*
X-28399Y-73401D01*
X-28299Y-73549D01*
X-28151Y-73649D01*
X-27975Y-73684D01*
X-27799Y-73649D01*
X-27651Y-73549D01*
X-27621Y-73505D01*
X-7631D01*
X-7588Y-73632D01*
X-7701Y-73719D01*
X-7865Y-73933D01*
X-7963Y-74170D01*
X-28172D01*
X-28201Y-74126D01*
X-28350Y-74026D01*
X-28526Y-73991D01*
X-28701Y-74026D01*
X-28850Y-74126D01*
X-28950Y-74274D01*
X-28985Y-74450D01*
X-28950Y-74626D01*
X-28850Y-74774D01*
X-28701Y-74874D01*
X-28526Y-74909D01*
X-28350Y-74874D01*
X-28201Y-74774D01*
X-28172Y-74730D01*
X-7963D01*
X-7865Y-74967D01*
X-7701Y-75181D01*
X-7523Y-75318D01*
X-7566Y-75445D01*
X-30321D01*
X-30351Y-75401D01*
X-30499Y-75301D01*
X-30675Y-75266D01*
X-30851Y-75301D01*
X-30999Y-75401D01*
X-31099Y-75549D01*
X-31134Y-75725D01*
X-31099Y-75901D01*
X-30999Y-76049D01*
X-30851Y-76149D01*
X-30675Y-76184D01*
X-30499Y-76149D01*
X-30351Y-76049D01*
X-30321Y-76005D01*
X-7579D01*
X-7536Y-76132D01*
X-7701Y-76259D01*
X-7865Y-76473D01*
X-7963Y-76710D01*
X-30923D01*
X-30946Y-76676D01*
X-31094Y-76576D01*
X-31270Y-76541D01*
X-31446Y-76576D01*
X-31594Y-76676D01*
X-31694Y-76824D01*
X-31729Y-77000D01*
X-31694Y-77176D01*
X-31594Y-77324D01*
X-31446Y-77424D01*
X-31270Y-77459D01*
X-31094Y-77424D01*
X-30946Y-77324D01*
X-30909Y-77270D01*
X-7963D01*
X-7865Y-77507D01*
X-7701Y-77721D01*
X-7510Y-77868D01*
X-7527Y-77962D01*
X-7544Y-77995D01*
X-14214D01*
X-14243Y-77951D01*
X-14392Y-77851D01*
X-14567Y-77816D01*
X-14743Y-77851D01*
X-14892Y-77951D01*
X-14921Y-77995D01*
X-32798D01*
X-32823Y-77958D01*
X-32971Y-77859D01*
X-33147Y-77824D01*
X-33323Y-77859D01*
X-33471Y-77958D01*
X-33571Y-78107D01*
X-33606Y-78283D01*
X-33571Y-78458D01*
X-33471Y-78607D01*
X-33323Y-78707D01*
X-33147Y-78742D01*
X-32971Y-78707D01*
X-32823Y-78607D01*
X-32788Y-78555D01*
X-14921D01*
X-14892Y-78599D01*
X-14743Y-78699D01*
X-14567Y-78734D01*
X-14392Y-78699D01*
X-14243Y-78599D01*
X-14214Y-78555D01*
X-7592D01*
X-7549Y-78682D01*
X-7701Y-78799D01*
X-7865Y-79013D01*
X-7963Y-79250D01*
X-13492D01*
X-13526Y-79199D01*
X-13674Y-79100D01*
X-13850Y-79065D01*
X-14026Y-79100D01*
X-14174Y-79199D01*
X-14208Y-79250D01*
X-33452D01*
X-33483Y-79203D01*
X-33632Y-79104D01*
X-33807Y-79069D01*
X-33983Y-79104D01*
X-34132Y-79203D01*
X-34231Y-79352D01*
X-34266Y-79527D01*
X-34231Y-79703D01*
X-34132Y-79852D01*
X-33983Y-79951D01*
X-33807Y-79986D01*
X-33632Y-79951D01*
X-33483Y-79852D01*
X-33455Y-79810D01*
X-14200D01*
X-14174Y-79848D01*
X-14026Y-79948D01*
X-13850Y-79983D01*
X-13674Y-79948D01*
X-13526Y-79848D01*
X-13500Y-79810D01*
X-7963D01*
X-7865Y-80047D01*
X-7701Y-80261D01*
X-7510Y-80408D01*
X-7526Y-80501D01*
X-7543Y-80535D01*
X-17072D01*
X-17101Y-80491D01*
X-17250Y-80391D01*
X-17426Y-80356D01*
X-17601Y-80391D01*
X-17750Y-80491D01*
X-17780Y-80535D01*
X-34896D01*
X-34926Y-80491D01*
X-35074Y-80391D01*
X-35250Y-80356D01*
X-35426Y-80391D01*
X-35574Y-80491D01*
X-35674Y-80640D01*
X-35709Y-80815D01*
X-35674Y-80991D01*
X-35574Y-81140D01*
X-35426Y-81239D01*
X-35250Y-81274D01*
X-35074Y-81239D01*
X-34926Y-81140D01*
X-34896Y-81096D01*
X-17780D01*
X-17750Y-81140D01*
X-17601Y-81239D01*
X-17426Y-81274D01*
X-17250Y-81239D01*
X-17101Y-81140D01*
X-17072Y-81096D01*
X-7592D01*
X-7549Y-81223D01*
X-7701Y-81339D01*
X-7865Y-81553D01*
X-7963Y-81790D01*
X-14871D01*
X-14901Y-81746D01*
X-15050Y-81646D01*
X-15225Y-81611D01*
X-15401Y-81646D01*
X-15550Y-81746D01*
X-15649Y-81894D01*
X-15684Y-82070D01*
X-15649Y-82246D01*
X-15550Y-82394D01*
X-15401Y-82494D01*
X-15225Y-82529D01*
X-15050Y-82494D01*
X-14901Y-82394D01*
X-14871Y-82350D01*
X-7963D01*
X-7865Y-82587D01*
X-7701Y-82801D01*
X-7487Y-82965D01*
X-7238Y-83069D01*
X-6970Y-83104D01*
X-6702Y-83069D01*
X-6453Y-82965D01*
X-6239Y-82801D01*
X-6075Y-82587D01*
X-5971Y-82338D01*
X-5936Y-82070D01*
X-5971Y-81802D01*
X-6075Y-81553D01*
X-6239Y-81339D01*
X-6391Y-81223D01*
X-6348Y-81096D01*
X-5801D01*
X-5331Y-81566D01*
X-5429Y-81802D01*
X-5464Y-82070D01*
X-5429Y-82338D01*
X-5325Y-82587D01*
X-5161Y-82801D01*
X-4947Y-82965D01*
X-4698Y-83069D01*
X-4430Y-83104D01*
X-4162Y-83069D01*
X-3913Y-82965D01*
X-3699Y-82801D01*
X-3535Y-82587D01*
X-3431Y-82338D01*
X-3396Y-82070D01*
X-3431Y-81802D01*
X-3535Y-81553D01*
X-3699Y-81339D01*
X-3913Y-81175D01*
X-4162Y-81071D01*
X-4430Y-81036D01*
X-4698Y-81071D01*
X-4934Y-81169D01*
X-5487Y-80617D01*
X-5577Y-80556D01*
X-5685Y-80535D01*
X-6397D01*
X-6414Y-80501D01*
X-6430Y-80408D01*
X-6239Y-80261D01*
X-6075Y-80047D01*
X-5971Y-79798D01*
X-5936Y-79530D01*
X-5971Y-79262D01*
X-6075Y-79013D01*
X-6239Y-78799D01*
X-6391Y-78682D01*
X-6348Y-78555D01*
X-5801D01*
X-5331Y-79026D01*
X-5429Y-79262D01*
X-5464Y-79530D01*
X-5429Y-79798D01*
X-5325Y-80047D01*
X-5161Y-80261D01*
X-4947Y-80425D01*
X-4698Y-80529D01*
X-4430Y-80564D01*
X-4162Y-80529D01*
X-3913Y-80425D01*
X-3699Y-80261D01*
X-3535Y-80047D01*
X-3431Y-79798D01*
X-3396Y-79530D01*
X-3431Y-79262D01*
X-3535Y-79013D01*
X-3699Y-78799D01*
X-3913Y-78635D01*
X-4162Y-78531D01*
X-4430Y-78496D01*
X-4698Y-78531D01*
X-4934Y-78629D01*
X-5487Y-78077D01*
X-5578Y-78016D01*
X-5685Y-77995D01*
X-6396D01*
X-6413Y-77962D01*
X-6430Y-77868D01*
X-6239Y-77721D01*
X-6075Y-77507D01*
X-5971Y-77258D01*
X-5936Y-76990D01*
X-5971Y-76722D01*
X-6075Y-76473D01*
X-6239Y-76259D01*
X-6404Y-76132D01*
X-6361Y-76005D01*
X-5811D01*
X-5331Y-76486D01*
X-5429Y-76722D01*
X-5464Y-76990D01*
X-5429Y-77258D01*
X-5325Y-77507D01*
X-5161Y-77721D01*
X-4947Y-77885D01*
X-4698Y-77989D01*
X-4430Y-78024D01*
X-4162Y-77989D01*
X-3913Y-77885D01*
X-3699Y-77721D01*
X-3535Y-77507D01*
X-3431Y-77258D01*
X-3396Y-76990D01*
X-3431Y-76722D01*
X-3535Y-76473D01*
X-3699Y-76259D01*
X-3913Y-76095D01*
X-4162Y-75991D01*
X-4430Y-75956D01*
X-4698Y-75991D01*
X-4934Y-76089D01*
X-5497Y-75527D01*
X-5588Y-75466D01*
X-5695Y-75445D01*
X-6374D01*
X-6417Y-75318D01*
X-6239Y-75181D01*
X-6075Y-74967D01*
X-5971Y-74718D01*
X-5936Y-74450D01*
X-5971Y-74182D01*
X-6075Y-73933D01*
X-6239Y-73719D01*
X-6352Y-73632D01*
X-6309Y-73505D01*
X-5771D01*
X-5331Y-73946D01*
X-5429Y-74182D01*
X-5464Y-74450D01*
X-5429Y-74718D01*
X-5325Y-74967D01*
X-5161Y-75181D01*
X-4947Y-75345D01*
X-4698Y-75449D01*
X-4430Y-75484D01*
X-4162Y-75449D01*
X-3913Y-75345D01*
X-3699Y-75181D01*
X-3535Y-74967D01*
X-3431Y-74718D01*
X-3396Y-74450D01*
X-3431Y-74182D01*
X-3535Y-73933D01*
X-3699Y-73719D01*
X-3913Y-73555D01*
X-4162Y-73451D01*
X-4430Y-73416D01*
X-4698Y-73451D01*
X-4934Y-73549D01*
X-5457Y-73027D01*
X-5548Y-72966D01*
X-5655Y-72945D01*
X-6457D01*
X-6483Y-72818D01*
X-6453Y-72805D01*
X-6239Y-72641D01*
X-6075Y-72427D01*
X-5971Y-72178D01*
X-5936Y-71910D01*
X-5971Y-71642D01*
X-6075Y-71393D01*
X-6239Y-71179D01*
X-6397Y-71057D01*
X-6354Y-70930D01*
X-5806D01*
X-5331Y-71406D01*
X-5429Y-71642D01*
X-5464Y-71910D01*
X-5429Y-72178D01*
X-5325Y-72427D01*
X-5161Y-72641D01*
X-4947Y-72805D01*
X-4698Y-72909D01*
X-4430Y-72944D01*
X-4162Y-72909D01*
X-3913Y-72805D01*
X-3699Y-72641D01*
X-3535Y-72427D01*
X-3431Y-72178D01*
X-3396Y-71910D01*
X-3431Y-71642D01*
X-3535Y-71393D01*
X-3699Y-71179D01*
X-3913Y-71015D01*
X-4162Y-70911D01*
X-4430Y-70876D01*
X-4698Y-70911D01*
X-4934Y-71009D01*
X-5492Y-70452D01*
X-5583Y-70391D01*
X-5690Y-70370D01*
X-6389D01*
X-6423Y-70243D01*
X-6239Y-70101D01*
X-6075Y-69887D01*
X-5971Y-69638D01*
X-5936Y-69370D01*
X-5971Y-69102D01*
X-6075Y-68853D01*
X-6239Y-68639D01*
X-6453Y-68475D01*
X-6702Y-68371D01*
X-6970Y-68336D01*
D02*
G37*
G36*
X-12600Y-83006D02*
X-12776Y-83041D01*
X-12924Y-83140D01*
X-12954Y-83184D01*
X-35996D01*
X-36026Y-83140D01*
X-36174Y-83041D01*
X-36350Y-83006D01*
X-36526Y-83041D01*
X-36674Y-83140D01*
X-36774Y-83289D01*
X-36809Y-83464D01*
X-36774Y-83640D01*
X-36674Y-83789D01*
X-36526Y-83888D01*
X-36350Y-83923D01*
X-36174Y-83888D01*
X-36026Y-83789D01*
X-35996Y-83745D01*
X-12954D01*
X-12924Y-83789D01*
X-12776Y-83888D01*
X-12600Y-83923D01*
X-12424Y-83888D01*
X-12276Y-83789D01*
X-12176Y-83640D01*
X-12141Y-83464D01*
X-12176Y-83289D01*
X-12276Y-83140D01*
X-12424Y-83041D01*
X-12600Y-83006D01*
D02*
G37*
G36*
X-4430Y-68336D02*
X-4698Y-68371D01*
X-4947Y-68475D01*
X-5161Y-68639D01*
X-5325Y-68853D01*
X-5429Y-69102D01*
X-5464Y-69370D01*
X-5429Y-69638D01*
X-5325Y-69887D01*
X-5161Y-70101D01*
X-4947Y-70265D01*
X-4698Y-70369D01*
X-4430Y-70404D01*
X-4162Y-70369D01*
X-3913Y-70265D01*
X-3699Y-70101D01*
X-3535Y-69887D01*
X-3431Y-69638D01*
X-3396Y-69370D01*
X-3431Y-69102D01*
X-3535Y-68853D01*
X-3699Y-68639D01*
X-3913Y-68475D01*
X-4162Y-68371D01*
X-4430Y-68336D01*
D02*
G37*
G36*
X-38570Y-65525D02*
X-40620D01*
Y-67575D01*
X-38570D01*
Y-65525D01*
D02*
G37*
G36*
X-4330Y-63244D02*
Y-64190D01*
X-3384D01*
X-3407Y-64016D01*
X-3513Y-63760D01*
X-3681Y-63541D01*
X-3900Y-63373D01*
X-4156Y-63267D01*
X-4330Y-63244D01*
D02*
G37*
G36*
X-40725Y-57364D02*
X-40949Y-57408D01*
X-41140Y-57535D01*
X-41267Y-57726D01*
X-41311Y-57950D01*
X-41267Y-58174D01*
X-41140Y-58365D01*
X-40949Y-58492D01*
X-40725Y-58536D01*
X-40501Y-58492D01*
X-40310Y-58365D01*
X-40183Y-58174D01*
X-40139Y-57950D01*
X-40183Y-57726D01*
X-40310Y-57535D01*
X-40501Y-57408D01*
X-40725Y-57364D01*
D02*
G37*
G36*
X-4530Y-63244D02*
X-4704Y-63267D01*
X-4960Y-63373D01*
X-5179Y-63541D01*
X-5347Y-63760D01*
X-5453Y-64016D01*
X-5476Y-64190D01*
X-4530D01*
Y-63244D01*
D02*
G37*
G36*
Y-64390D02*
X-5476D01*
X-5453Y-64564D01*
X-5347Y-64820D01*
X-5179Y-65039D01*
X-4960Y-65207D01*
X-4704Y-65313D01*
X-4530Y-65336D01*
Y-64390D01*
D02*
G37*
G36*
X-3384D02*
X-4330D01*
Y-65336D01*
X-4156Y-65313D01*
X-3900Y-65207D01*
X-3681Y-65039D01*
X-3513Y-64820D01*
X-3407Y-64564D01*
X-3384Y-64390D01*
D02*
G37*
G36*
X-50559Y-3982D02*
Y-4700D01*
X-49934D01*
X-49935Y-4662D01*
X-49938Y-4624D01*
X-49943Y-4587D01*
X-49950Y-4549D01*
X-49958Y-4512D01*
X-49969Y-4476D01*
X-49982Y-4440D01*
X-49996Y-4405D01*
X-50013Y-4371D01*
X-50031Y-4337D01*
X-50051Y-4305D01*
X-50072Y-4274D01*
X-50095Y-4244D01*
X-50120Y-4215D01*
X-50146Y-4187D01*
X-50174Y-4161D01*
X-50203Y-4136D01*
X-50233Y-4113D01*
X-50264Y-4092D01*
X-50296Y-4072D01*
X-50330Y-4054D01*
X-50364Y-4037D01*
X-50399Y-4023D01*
X-50435Y-4010D01*
X-50471Y-3999D01*
X-50508Y-3991D01*
X-50546Y-3984D01*
X-50559Y-3982D01*
D02*
G37*
G36*
X-46309D02*
X-46322Y-3984D01*
X-46360Y-3991D01*
X-46397Y-3999D01*
X-46433Y-4010D01*
X-46469Y-4023D01*
X-46504Y-4037D01*
X-46538Y-4054D01*
X-46572Y-4072D01*
X-46604Y-4092D01*
X-46635Y-4113D01*
X-46665Y-4136D01*
X-46694Y-4161D01*
X-46722Y-4187D01*
X-46748Y-4215D01*
X-46773Y-4244D01*
X-46796Y-4274D01*
X-46817Y-4305D01*
X-46837Y-4337D01*
X-46855Y-4371D01*
X-46872Y-4405D01*
X-46886Y-4440D01*
X-46899Y-4476D01*
X-46910Y-4512D01*
X-46918Y-4549D01*
X-46925Y-4587D01*
X-46930Y-4624D01*
X-46933Y-4662D01*
X-46934Y-4700D01*
X-46309D01*
Y-3982D01*
D02*
G37*
G36*
X-50759D02*
X-50772Y-3984D01*
X-50810Y-3991D01*
X-50847Y-3999D01*
X-50883Y-4010D01*
X-50919Y-4023D01*
X-50954Y-4037D01*
X-50988Y-4054D01*
X-51022Y-4072D01*
X-51054Y-4092D01*
X-51085Y-4113D01*
X-51115Y-4136D01*
X-51144Y-4161D01*
X-51172Y-4187D01*
X-51198Y-4215D01*
X-51223Y-4244D01*
X-51246Y-4274D01*
X-51267Y-4305D01*
X-51287Y-4337D01*
X-51305Y-4371D01*
X-51322Y-4405D01*
X-51336Y-4440D01*
X-51349Y-4476D01*
X-51360Y-4512D01*
X-51368Y-4549D01*
X-51375Y-4587D01*
X-51380Y-4624D01*
X-51383Y-4662D01*
X-51384Y-4700D01*
X-50759D01*
Y-3982D01*
D02*
G37*
G36*
X-22275Y-5100D02*
X-22700D01*
Y-5450D01*
X-22275D01*
Y-5100D01*
D02*
G37*
G36*
X-22300Y-4525D02*
X-22700D01*
Y-4900D01*
X-22300D01*
Y-4525D01*
D02*
G37*
G36*
X-13475Y-3982D02*
X-13488Y-3984D01*
X-13526Y-3991D01*
X-13563Y-3999D01*
X-13599Y-4010D01*
X-13635Y-4023D01*
X-13670Y-4037D01*
X-13704Y-4054D01*
X-13738Y-4072D01*
X-13770Y-4092D01*
X-13801Y-4113D01*
X-13831Y-4136D01*
X-13860Y-4161D01*
X-13888Y-4187D01*
X-13914Y-4215D01*
X-13939Y-4244D01*
X-13962Y-4274D01*
X-13983Y-4305D01*
X-14003Y-4337D01*
X-14021Y-4371D01*
X-14038Y-4405D01*
X-14052Y-4440D01*
X-14065Y-4476D01*
X-14076Y-4512D01*
X-14084Y-4549D01*
X-14091Y-4587D01*
X-14096Y-4624D01*
X-14099Y-4662D01*
X-14100Y-4700D01*
X-13475D01*
Y-3982D01*
D02*
G37*
G36*
X-13275D02*
Y-4700D01*
X-12650D01*
X-12651Y-4662D01*
X-12654Y-4624D01*
X-12659Y-4587D01*
X-12666Y-4549D01*
X-12674Y-4512D01*
X-12685Y-4476D01*
X-12698Y-4440D01*
X-12712Y-4405D01*
X-12729Y-4371D01*
X-12747Y-4337D01*
X-12767Y-4305D01*
X-12788Y-4274D01*
X-12811Y-4244D01*
X-12836Y-4215D01*
X-12862Y-4187D01*
X-12890Y-4161D01*
X-12919Y-4136D01*
X-12949Y-4113D01*
X-12980Y-4092D01*
X-13012Y-4072D01*
X-13046Y-4054D01*
X-13080Y-4037D01*
X-13115Y-4023D01*
X-13151Y-4010D01*
X-13187Y-3999D01*
X-13224Y-3991D01*
X-13262Y-3984D01*
X-13275Y-3982D01*
D02*
G37*
G36*
X-17725D02*
Y-4700D01*
X-17100D01*
X-17101Y-4662D01*
X-17104Y-4624D01*
X-17109Y-4587D01*
X-17116Y-4549D01*
X-17124Y-4512D01*
X-17135Y-4476D01*
X-17148Y-4440D01*
X-17162Y-4405D01*
X-17179Y-4371D01*
X-17197Y-4337D01*
X-17217Y-4305D01*
X-17238Y-4274D01*
X-17261Y-4244D01*
X-17286Y-4215D01*
X-17312Y-4187D01*
X-17340Y-4161D01*
X-17369Y-4136D01*
X-17399Y-4113D01*
X-17430Y-4092D01*
X-17462Y-4072D01*
X-17496Y-4054D01*
X-17530Y-4037D01*
X-17565Y-4023D01*
X-17601Y-4010D01*
X-17637Y-3999D01*
X-17674Y-3991D01*
X-17712Y-3984D01*
X-17725Y-3982D01*
D02*
G37*
G36*
X-46109D02*
Y-4700D01*
X-45484D01*
X-45485Y-4662D01*
X-45488Y-4624D01*
X-45493Y-4587D01*
X-45500Y-4549D01*
X-45508Y-4512D01*
X-45519Y-4476D01*
X-45532Y-4440D01*
X-45546Y-4405D01*
X-45563Y-4371D01*
X-45581Y-4337D01*
X-45601Y-4305D01*
X-45622Y-4274D01*
X-45645Y-4244D01*
X-45670Y-4215D01*
X-45696Y-4187D01*
X-45724Y-4161D01*
X-45753Y-4136D01*
X-45783Y-4113D01*
X-45814Y-4092D01*
X-45846Y-4072D01*
X-45880Y-4054D01*
X-45914Y-4037D01*
X-45949Y-4023D01*
X-45985Y-4010D01*
X-46021Y-3999D01*
X-46058Y-3991D01*
X-46096Y-3984D01*
X-46109Y-3982D01*
D02*
G37*
G36*
X-17925D02*
X-17938Y-3984D01*
X-17976Y-3991D01*
X-18013Y-3999D01*
X-18049Y-4010D01*
X-18085Y-4023D01*
X-18120Y-4037D01*
X-18154Y-4054D01*
X-18188Y-4072D01*
X-18220Y-4092D01*
X-18251Y-4113D01*
X-18281Y-4136D01*
X-18310Y-4161D01*
X-18338Y-4187D01*
X-18364Y-4215D01*
X-18389Y-4244D01*
X-18412Y-4274D01*
X-18433Y-4305D01*
X-18453Y-4337D01*
X-18471Y-4371D01*
X-18488Y-4405D01*
X-18502Y-4440D01*
X-18515Y-4476D01*
X-18526Y-4512D01*
X-18534Y-4549D01*
X-18541Y-4587D01*
X-18546Y-4624D01*
X-18549Y-4662D01*
X-18550Y-4700D01*
X-17925D01*
Y-3982D01*
D02*
G37*
G36*
X-26675Y-5075D02*
X-27175D01*
Y-5600D01*
X-26675D01*
Y-5075D01*
D02*
G37*
G36*
X-27875Y-6750D02*
X-28275D01*
Y-7000D01*
X-27875D01*
Y-6750D01*
D02*
G37*
G36*
X-29000Y-6300D02*
X-29350D01*
Y-6725D01*
X-29000D01*
Y-6300D01*
D02*
G37*
G36*
X-27275Y-6750D02*
X-27675D01*
Y-7100D01*
X-27775D01*
Y-7200D01*
X-28275D01*
Y-7450D01*
X-28250D01*
Y-7470D01*
X-28475D01*
Y-7350D01*
X-28450D01*
Y-7350D01*
Y-6925D01*
X-29350D01*
Y-7350D01*
X-29325D01*
Y-7419D01*
X-29680D01*
X-29682Y-7415D01*
X-29740Y-7340D01*
X-29815Y-7282D01*
X-29926Y-7208D01*
X-30150Y-7164D01*
X-30374Y-7208D01*
X-30565Y-7335D01*
X-30692Y-7526D01*
X-30736Y-7750D01*
X-30692Y-7974D01*
X-30565Y-8165D01*
X-30374Y-8292D01*
X-30150Y-8336D01*
X-29926Y-8292D01*
X-29735Y-8165D01*
X-29680Y-8081D01*
X-29325D01*
Y-8275D01*
X-28475D01*
Y-8030D01*
X-28250D01*
Y-8075D01*
Y-8725D01*
X-28081D01*
Y-9250D01*
X-28700D01*
Y-11100D01*
X-28156D01*
Y-11500D01*
X-28575D01*
Y-12800D01*
Y-12800D01*
X-27490D01*
X-27400Y-12890D01*
Y-13250D01*
X-27442Y-13268D01*
X-27475Y-13276D01*
X-27476Y-13276D01*
X-27612Y-13368D01*
X-27749Y-13276D01*
X-27925Y-13241D01*
X-28101Y-13276D01*
X-28249Y-13376D01*
X-28349Y-13524D01*
X-28384Y-13700D01*
X-28349Y-13876D01*
X-28249Y-14024D01*
X-28101Y-14124D01*
X-27925Y-14159D01*
X-27749Y-14124D01*
X-27612Y-14032D01*
X-27476Y-14124D01*
X-27300Y-14159D01*
X-27124Y-14124D01*
X-26986Y-14031D01*
X-26775D01*
X-26648Y-14006D01*
X-26541Y-13934D01*
X-25966Y-13359D01*
X-25894Y-13252D01*
X-25869Y-13125D01*
Y-12800D01*
X-25525D01*
Y-11500D01*
X-26700D01*
Y-11125D01*
X-26300D01*
Y-10175D01*
Y-9225D01*
X-27075D01*
Y-9250D01*
X-27469D01*
Y-8725D01*
X-27425D01*
Y-8750D01*
X-26825D01*
Y-7750D01*
Y-6750D01*
X-27275D01*
Y-6750D01*
D02*
G37*
G36*
X-24175Y-7900D02*
X-25025D01*
Y-8675D01*
X-24175D01*
Y-7900D01*
D02*
G37*
G36*
X-3975Y-7250D02*
X-4250D01*
Y-7775D01*
X-3975D01*
Y-7250D01*
D02*
G37*
G36*
X-22275Y-5650D02*
X-22700D01*
Y-6000D01*
X-22275D01*
Y-5650D01*
D02*
G37*
G36*
X-27375Y-5075D02*
X-27875D01*
Y-5600D01*
X-27375D01*
Y-5075D01*
D02*
G37*
G36*
X-26675Y-5800D02*
X-27175D01*
Y-6325D01*
X-26675D01*
Y-5800D01*
D02*
G37*
G36*
X-28450Y-6300D02*
X-28800D01*
Y-6725D01*
X-28450D01*
Y-6300D01*
D02*
G37*
G36*
X-27375Y-5800D02*
X-27875D01*
Y-6325D01*
X-27375D01*
Y-5800D01*
D02*
G37*
G36*
X-41700Y-1600D02*
X-42429D01*
X-42414Y-1718D01*
X-42329Y-1921D01*
X-42196Y-2096D01*
X-42021Y-2229D01*
X-41818Y-2314D01*
X-41700Y-2329D01*
Y-1600D01*
D02*
G37*
G36*
X-40771D02*
X-41500D01*
Y-2329D01*
X-41382Y-2314D01*
X-41179Y-2229D01*
X-41004Y-2096D01*
X-40871Y-1921D01*
X-40786Y-1718D01*
X-40771Y-1600D01*
D02*
G37*
G36*
X-23875Y-2150D02*
X-24400D01*
Y-2650D01*
X-23875D01*
Y-2275D01*
Y-2150D01*
D02*
G37*
G36*
X-27175D02*
X-27700D01*
Y-2650D01*
X-27175D01*
Y-2275D01*
Y-2150D01*
D02*
G37*
G36*
X-24600D02*
X-25125D01*
Y-2275D01*
Y-2650D01*
X-24600D01*
Y-2150D01*
D02*
G37*
G36*
X-41700Y-671D02*
X-41818Y-686D01*
X-42021Y-771D01*
X-42196Y-904D01*
X-42329Y-1079D01*
X-42414Y-1282D01*
X-42429Y-1400D01*
X-41700D01*
Y-671D01*
D02*
G37*
G36*
X-41500D02*
Y-1400D01*
X-40771D01*
X-40786Y-1282D01*
X-40871Y-1079D01*
X-41004Y-904D01*
X-41179Y-771D01*
X-41382Y-686D01*
X-41500Y-671D01*
D02*
G37*
G36*
X-26000Y-683D02*
X-26211Y-711D01*
X-26408Y-792D01*
X-26578Y-922D01*
X-26708Y-1092D01*
X-26789Y-1289D01*
X-26817Y-1500D01*
X-26789Y-1711D01*
X-26708Y-1908D01*
X-26578Y-2078D01*
X-26408Y-2208D01*
X-26246Y-2275D01*
X-26211Y-2289D01*
X-26000Y-2317D01*
X-25789Y-2289D01*
X-25591Y-2208D01*
X-25422Y-2078D01*
X-25292Y-1908D01*
X-25148Y-1892D01*
X-25101Y-1924D01*
X-24925Y-1959D01*
X-24749Y-1924D01*
X-24601Y-1824D01*
X-24501Y-1676D01*
X-24466Y-1500D01*
X-24501Y-1324D01*
X-24601Y-1176D01*
X-24749Y-1076D01*
X-24925Y-1041D01*
X-25101Y-1076D01*
X-25148Y-1108D01*
X-25292Y-1092D01*
X-25422Y-922D01*
X-25591Y-792D01*
X-25789Y-711D01*
X-26000Y-683D01*
D02*
G37*
G36*
X-33000D02*
X-33211Y-711D01*
X-33409Y-792D01*
X-33578Y-922D01*
X-33708Y-1092D01*
X-33789Y-1289D01*
X-33817Y-1500D01*
X-33789Y-1711D01*
X-33708Y-1908D01*
X-33578Y-2078D01*
X-33409Y-2208D01*
X-33211Y-2289D01*
X-33000Y-2317D01*
X-32789Y-2289D01*
X-32591Y-2208D01*
X-32422Y-2078D01*
X-32292Y-1908D01*
X-32250Y-1805D01*
X-30429D01*
X-30399Y-1849D01*
X-30251Y-1949D01*
X-30075Y-1984D01*
X-29899Y-1949D01*
X-29751Y-1849D01*
X-29651Y-1701D01*
X-29616Y-1525D01*
X-29651Y-1349D01*
X-29751Y-1201D01*
X-29899Y-1101D01*
X-30075Y-1066D01*
X-30251Y-1101D01*
X-30399Y-1201D01*
X-30429Y-1245D01*
X-32229D01*
X-32292Y-1092D01*
X-32422Y-922D01*
X-32591Y-792D01*
X-32789Y-711D01*
X-33000Y-683D01*
D02*
G37*
G36*
X-7600Y-1059D02*
X-7776Y-1094D01*
X-7924Y-1194D01*
X-8024Y-1342D01*
X-8059Y-1518D01*
X-8024Y-1694D01*
X-7924Y-1842D01*
X-7776Y-1942D01*
X-7600Y-1977D01*
X-7424Y-1942D01*
X-7276Y-1842D01*
X-7176Y-1694D01*
X-7141Y-1518D01*
X-7176Y-1342D01*
X-7276Y-1194D01*
X-7424Y-1094D01*
X-7600Y-1059D01*
D02*
G37*
G36*
X-27900Y-2150D02*
X-28425D01*
Y-2275D01*
Y-2650D01*
X-27900D01*
Y-2150D01*
D02*
G37*
G36*
X-27175Y-2850D02*
X-27700D01*
Y-3350D01*
X-27175D01*
Y-2850D01*
D02*
G37*
G36*
X-23875D02*
X-24400D01*
Y-3350D01*
X-23875D01*
Y-2850D01*
D02*
G37*
G36*
X-27900D02*
X-28425D01*
Y-3350D01*
X-27900D01*
Y-2850D01*
D02*
G37*
G36*
X-22300Y-3950D02*
X-22700D01*
Y-4325D01*
X-22300D01*
Y-3950D01*
D02*
G37*
G36*
X-26750Y-3200D02*
X-27000D01*
Y-3725D01*
X-26750D01*
Y-3200D01*
D02*
G37*
G36*
X-18000Y-1775D02*
X-18200D01*
Y-2625D01*
X-19150D01*
Y-2825D01*
X-18694D01*
X-18658Y-2824D01*
X-18621Y-2821D01*
X-18585Y-2817D01*
X-18550Y-2810D01*
X-18514Y-2802D01*
X-18510Y-2800D01*
X-18200D01*
X-18183Y-2799D01*
X-18166Y-2797D01*
X-18149Y-2793D01*
X-18133Y-2787D01*
X-18117Y-2780D01*
X-18103Y-2771D01*
X-18089Y-2760D01*
X-18076Y-2749D01*
X-18065Y-2736D01*
X-18054Y-2722D01*
X-18045Y-2708D01*
X-18038Y-2692D01*
X-18032Y-2676D01*
X-18028Y-2659D01*
X-18026Y-2642D01*
X-18025Y-2625D01*
Y-2315D01*
X-18023Y-2311D01*
X-18015Y-2275D01*
X-18008Y-2240D01*
X-18004Y-2204D01*
X-18001Y-2167D01*
X-18000Y-2131D01*
Y-1775D01*
D02*
G37*
G36*
X-13000D02*
X-13200D01*
Y-2131D01*
X-13199Y-2167D01*
X-13196Y-2204D01*
X-13192Y-2240D01*
X-13185Y-2275D01*
X-13177Y-2311D01*
X-13175Y-2315D01*
Y-2625D01*
X-13174Y-2642D01*
X-13172Y-2659D01*
X-13168Y-2676D01*
X-13162Y-2692D01*
X-13155Y-2708D01*
X-13146Y-2722D01*
X-13135Y-2736D01*
X-13124Y-2749D01*
X-13111Y-2760D01*
X-13097Y-2771D01*
X-13083Y-2780D01*
X-13067Y-2787D01*
X-13051Y-2793D01*
X-13034Y-2797D01*
X-13017Y-2799D01*
X-13000Y-2800D01*
X-12690D01*
X-12686Y-2802D01*
X-12650Y-2810D01*
X-12615Y-2817D01*
X-12579Y-2821D01*
X-12542Y-2824D01*
X-12506Y-2825D01*
X-12050D01*
Y-2625D01*
X-13000D01*
Y-1775D01*
D02*
G37*
G36*
X-45834D02*
X-46034D01*
Y-2131D01*
X-46033Y-2167D01*
X-46030Y-2204D01*
X-46026Y-2240D01*
X-46019Y-2275D01*
X-46011Y-2311D01*
X-46009Y-2315D01*
Y-2625D01*
X-46008Y-2642D01*
X-46006Y-2659D01*
X-46002Y-2676D01*
X-45996Y-2692D01*
X-45989Y-2708D01*
X-45980Y-2722D01*
X-45969Y-2736D01*
X-45958Y-2749D01*
X-45945Y-2760D01*
X-45931Y-2771D01*
X-45917Y-2780D01*
X-45901Y-2787D01*
X-45885Y-2793D01*
X-45868Y-2797D01*
X-45851Y-2799D01*
X-45834Y-2800D01*
X-45524D01*
X-45520Y-2802D01*
X-45484Y-2810D01*
X-45449Y-2817D01*
X-45413Y-2821D01*
X-45376Y-2824D01*
X-45340Y-2825D01*
X-44884D01*
Y-2625D01*
X-45834D01*
Y-1775D01*
D02*
G37*
G36*
X-26750Y-2475D02*
X-27000D01*
Y-3000D01*
X-26750D01*
Y-2475D01*
D02*
G37*
G36*
X-50834Y-1775D02*
X-51034D01*
Y-2625D01*
X-51984D01*
Y-2825D01*
X-51528D01*
X-51492Y-2824D01*
X-51455Y-2821D01*
X-51419Y-2817D01*
X-51384Y-2810D01*
X-51348Y-2802D01*
X-51344Y-2800D01*
X-51034D01*
X-51017Y-2799D01*
X-51000Y-2797D01*
X-50983Y-2793D01*
X-50967Y-2787D01*
X-50951Y-2780D01*
X-50937Y-2771D01*
X-50923Y-2760D01*
X-50910Y-2749D01*
X-50899Y-2736D01*
X-50888Y-2722D01*
X-50879Y-2708D01*
X-50872Y-2692D01*
X-50866Y-2676D01*
X-50862Y-2659D01*
X-50860Y-2642D01*
X-50859Y-2625D01*
Y-2315D01*
X-50857Y-2311D01*
X-50849Y-2275D01*
X-50842Y-2240D01*
X-50838Y-2204D01*
X-50835Y-2167D01*
X-50834Y-2131D01*
Y-1775D01*
D02*
G37*
G36*
X-11650Y-8500D02*
Y-8875D01*
X-11250D01*
Y-8500D01*
X-11650D01*
D02*
G37*
G36*
X-12600Y-16050D02*
X-13350D01*
Y-16450D01*
X-12600D01*
Y-16050D01*
D02*
G37*
G36*
X-50000Y-15550D02*
X-50900D01*
Y-15875D01*
X-50000D01*
Y-15550D01*
D02*
G37*
G36*
X-26075Y-16100D02*
X-26500D01*
Y-16450D01*
X-26075D01*
Y-16100D01*
D02*
G37*
G36*
X-11900Y-16100D02*
X-12275D01*
Y-16500D01*
X-11900D01*
Y-16100D01*
D02*
G37*
G36*
X-11325D02*
X-11700D01*
Y-16500D01*
X-11325D01*
Y-16100D01*
D02*
G37*
G36*
X-56850Y-15275D02*
X-57375D01*
Y-15775D01*
X-56850D01*
Y-15275D01*
D02*
G37*
G36*
Y-14575D02*
X-57375D01*
Y-15075D01*
X-56850D01*
Y-14575D01*
D02*
G37*
G36*
X-12600Y-15450D02*
X-13350D01*
Y-15850D01*
X-12600D01*
Y-15450D01*
D02*
G37*
G36*
X-48900Y-15550D02*
X-49800D01*
Y-15875D01*
X-48900D01*
Y-15550D01*
D02*
G37*
G36*
X-13550Y-15450D02*
X-14300D01*
Y-15850D01*
X-13550D01*
Y-15450D01*
D02*
G37*
G36*
X-4430Y-14996D02*
X-4698Y-15031D01*
X-4947Y-15135D01*
X-5161Y-15299D01*
X-5325Y-15513D01*
X-5429Y-15762D01*
X-5464Y-16030D01*
X-5429Y-16298D01*
X-5325Y-16547D01*
X-5161Y-16761D01*
X-4947Y-16925D01*
X-4698Y-17029D01*
X-4430Y-17064D01*
X-4162Y-17029D01*
X-3913Y-16925D01*
X-3699Y-16761D01*
X-3535Y-16547D01*
X-3431Y-16298D01*
X-3396Y-16030D01*
X-3431Y-15762D01*
X-3535Y-15513D01*
X-3699Y-15299D01*
X-3913Y-15135D01*
X-4162Y-15031D01*
X-4430Y-14996D01*
D02*
G37*
G36*
X-56075Y-18275D02*
X-56600D01*
Y-18775D01*
X-56075D01*
Y-18275D01*
D02*
G37*
G36*
X-54250Y-18025D02*
X-55150D01*
Y-18350D01*
X-54250D01*
Y-18025D01*
D02*
G37*
G36*
X-56800Y-18275D02*
X-57325D01*
Y-18775D01*
X-56800D01*
Y-18275D01*
D02*
G37*
G36*
X-8340Y-21022D02*
X-8429Y-21034D01*
X-8606Y-21107D01*
X-8757Y-21223D01*
X-8873Y-21374D01*
X-8946Y-21551D01*
X-8958Y-21640D01*
X-8340D01*
Y-21022D01*
D02*
G37*
G36*
X-32250Y-18450D02*
X-32675D01*
Y-18800D01*
X-32250D01*
Y-18450D01*
D02*
G37*
G36*
X-56800Y-17575D02*
X-57325D01*
Y-18075D01*
X-56800D01*
Y-17575D01*
D02*
G37*
G36*
X-56075D02*
X-56600D01*
Y-18075D01*
X-56075D01*
Y-17575D01*
D02*
G37*
G36*
X-41776Y-16266D02*
X-42044Y-16301D01*
X-42293Y-16405D01*
X-42507Y-16569D01*
X-42671Y-16783D01*
X-42775Y-17032D01*
X-42810Y-17300D01*
X-42775Y-17568D01*
X-42671Y-17817D01*
X-42507Y-18031D01*
X-42293Y-18195D01*
X-42044Y-18299D01*
X-41776Y-18334D01*
X-41508Y-18299D01*
X-41259Y-18195D01*
X-41045Y-18031D01*
X-40881Y-17817D01*
X-40777Y-17568D01*
X-40742Y-17300D01*
X-40777Y-17032D01*
X-40881Y-16783D01*
X-41045Y-16569D01*
X-41259Y-16405D01*
X-41508Y-16301D01*
X-41776Y-16266D01*
D02*
G37*
G36*
X-53150Y-18025D02*
X-54050D01*
Y-18350D01*
X-53150D01*
Y-18025D01*
D02*
G37*
G36*
X-48900D02*
X-49800D01*
Y-18350D01*
X-48900D01*
Y-18025D01*
D02*
G37*
G36*
X-25325Y-10275D02*
X-26100D01*
Y-11125D01*
X-25325D01*
Y-10275D01*
D02*
G37*
G36*
X-1600Y-10625D02*
Y-11000D01*
X-1200D01*
Y-10625D01*
X-1600D01*
D02*
G37*
G36*
X-1200Y-11200D02*
X-1600D01*
Y-11575D01*
X-1200D01*
Y-11200D01*
D02*
G37*
G36*
X-41270Y-9916D02*
X-41538Y-9951D01*
X-41787Y-10055D01*
X-42001Y-10219D01*
X-42165Y-10433D01*
X-42269Y-10682D01*
X-42304Y-10950D01*
X-42269Y-11218D01*
X-42165Y-11467D01*
X-42001Y-11681D01*
X-41787Y-11845D01*
X-41538Y-11949D01*
X-41270Y-11984D01*
X-41002Y-11949D01*
X-40753Y-11845D01*
X-40539Y-11681D01*
X-40375Y-11467D01*
X-40271Y-11218D01*
X-40236Y-10950D01*
X-40271Y-10682D01*
X-40375Y-10433D01*
X-40539Y-10219D01*
X-40753Y-10055D01*
X-41002Y-9951D01*
X-41270Y-9916D01*
D02*
G37*
G36*
X-38730D02*
X-38998Y-9951D01*
X-39247Y-10055D01*
X-39461Y-10219D01*
X-39625Y-10433D01*
X-39729Y-10682D01*
X-39764Y-10950D01*
X-39729Y-11218D01*
X-39625Y-11467D01*
X-39461Y-11681D01*
X-39247Y-11845D01*
X-38998Y-11949D01*
X-38730Y-11984D01*
X-38462Y-11949D01*
X-38213Y-11845D01*
X-37999Y-11681D01*
X-37835Y-11467D01*
X-37731Y-11218D01*
X-37696Y-10950D01*
X-37731Y-10682D01*
X-37835Y-10433D01*
X-37999Y-10219D01*
X-38213Y-10055D01*
X-38462Y-9951D01*
X-38730Y-9916D01*
D02*
G37*
G36*
X-11250Y-9075D02*
X-11650D01*
Y-9450D01*
X-11250D01*
Y-9075D01*
D02*
G37*
G36*
X-21450D02*
X-22400D01*
Y-9350D01*
X-21450D01*
Y-9075D01*
D02*
G37*
G36*
X-29300Y-9391D02*
X-29476Y-9426D01*
X-29624Y-9526D01*
X-29724Y-9674D01*
X-29759Y-9850D01*
X-29748Y-9902D01*
X-29948Y-10102D01*
X-30009Y-10193D01*
X-30030Y-10300D01*
Y-11421D01*
X-30074Y-11451D01*
X-30174Y-11599D01*
X-30209Y-11775D01*
X-30174Y-11951D01*
X-30074Y-12099D01*
X-29926Y-12199D01*
X-29750Y-12234D01*
X-29574Y-12199D01*
X-29426Y-12099D01*
X-29326Y-11951D01*
X-29291Y-11775D01*
X-29326Y-11599D01*
X-29426Y-11451D01*
X-29470Y-11421D01*
Y-10416D01*
X-29352Y-10298D01*
X-29300Y-10309D01*
X-29124Y-10274D01*
X-28976Y-10174D01*
X-28876Y-10026D01*
X-28841Y-9850D01*
X-28876Y-9674D01*
X-28976Y-9526D01*
X-29124Y-9426D01*
X-29300Y-9391D01*
D02*
G37*
G36*
X-45900Y-10000D02*
Y-10375D01*
X-45500D01*
Y-10000D01*
X-45900D01*
D02*
G37*
G36*
X-2200Y-9825D02*
X-2475D01*
Y-10350D01*
X-2200D01*
Y-9825D01*
D02*
G37*
G36*
X-53450Y-11625D02*
X-54200D01*
Y-12025D01*
X-53450D01*
Y-11625D01*
D02*
G37*
G36*
X-16650Y-14300D02*
X-17000D01*
Y-14725D01*
X-16650D01*
Y-14300D01*
D02*
G37*
G36*
X-3384Y-13590D02*
X-4330D01*
Y-14536D01*
X-4156Y-14513D01*
X-3900Y-14407D01*
X-3681Y-14239D01*
X-3513Y-14020D01*
X-3407Y-13764D01*
X-3384Y-13590D01*
D02*
G37*
G36*
X-17200Y-14300D02*
X-17550D01*
Y-14725D01*
X-17200D01*
Y-14300D01*
D02*
G37*
G36*
X-22400Y-14650D02*
X-22825D01*
Y-15000D01*
X-22400D01*
Y-14650D01*
D02*
G37*
G36*
X-49575Y-12600D02*
X-51225D01*
Y-13550D01*
X-50731D01*
Y-13698D01*
X-50750Y-13714D01*
X-50974Y-13758D01*
X-51165Y-13885D01*
X-51292Y-14076D01*
X-51336Y-14300D01*
X-51292Y-14524D01*
X-51165Y-14715D01*
X-50974Y-14842D01*
X-50750Y-14886D01*
X-50526Y-14842D01*
X-50335Y-14715D01*
X-50208Y-14524D01*
X-50164Y-14300D01*
X-50183Y-14202D01*
X-50166Y-14184D01*
X-50094Y-14077D01*
X-50069Y-13950D01*
Y-13550D01*
X-49575D01*
Y-12600D01*
D02*
G37*
G36*
X-36625Y-10864D02*
X-36849Y-10908D01*
X-37040Y-11035D01*
X-37167Y-11226D01*
X-37211Y-11450D01*
X-37167Y-11674D01*
X-37040Y-11865D01*
X-36849Y-11992D01*
X-36625Y-12036D01*
X-36401Y-11992D01*
X-36210Y-11865D01*
X-36083Y-11674D01*
X-36039Y-11450D01*
X-36083Y-11226D01*
X-36210Y-11035D01*
X-36401Y-10908D01*
X-36625Y-10864D01*
D02*
G37*
G36*
X-54400Y-11625D02*
X-55150D01*
Y-12025D01*
X-54400D01*
Y-11625D01*
D02*
G37*
G36*
Y-12225D02*
X-55150D01*
Y-12625D01*
X-54400D01*
Y-12225D01*
D02*
G37*
G36*
X-11550Y-13450D02*
X-12300D01*
Y-13850D01*
X-11550D01*
Y-13450D01*
D02*
G37*
G36*
Y-12850D02*
X-12300D01*
Y-13250D01*
X-11550D01*
Y-12850D01*
D02*
G37*
%LPD*%
D10*
X-21875Y-18175D02*
X-21400Y-17700D01*
Y-17300D01*
X-20300Y-16200D01*
X-21350Y-19200D02*
X-20300D01*
X-21626Y-19476D02*
X-21350Y-19200D01*
X-21930Y-19476D02*
X-21626D01*
X-22100Y-18500D02*
X-22017D01*
X-22012Y-18505D01*
X-21738D01*
X-21733Y-18500D01*
X-21712D01*
X-21032Y-17820D01*
X-21030D01*
X-20610Y-17400D01*
X-22100Y-19150D02*
X-22073D01*
X-22068Y-19145D01*
X-21820D01*
X-20875Y-18200D01*
X-20300D01*
X-19600D01*
X-19600Y-18200D02*
X-19600Y-18200D01*
X-19600Y-18200D02*
X-19600D01*
X-20610Y-17400D02*
X-19085D01*
D17*
X-26725Y-7750D02*
D03*
D26*
X-30258Y-64201D02*
D03*
X-28558D02*
D03*
X-26200Y-12150D02*
D03*
D28*
X-30875Y-22375D02*
D03*
Y-21425D02*
D03*
X-30000Y-22375D02*
D03*
Y-21425D02*
D03*
X-28900Y-7775D02*
D03*
Y-6825D02*
D03*
X-40600Y-35300D02*
D03*
Y-34350D02*
D03*
X-40600Y-32400D02*
D03*
Y-33350D02*
D03*
X-52250Y-35050D02*
D03*
Y-36000D02*
D03*
X-53075Y-35050D02*
D03*
Y-36000D02*
D03*
X-46975Y-42300D02*
D03*
Y-41350D02*
D03*
Y-40400D02*
D03*
Y-39450D02*
D03*
X-55650Y-16650D02*
D03*
Y-15700D02*
D03*
X-16900Y-21225D02*
D03*
Y-22175D02*
D03*
X-17800Y-18375D02*
D03*
Y-17425D02*
D03*
X-17100Y-14200D02*
D03*
Y-13250D02*
D03*
X-51650Y-24500D02*
D03*
Y-25450D02*
D03*
X-57550Y-27975D02*
D03*
Y-28925D02*
D03*
X-16900Y-20275D02*
D03*
Y-19325D02*
D03*
D29*
X-24050Y-38775D02*
D03*
Y-37775D02*
D03*
X-39575Y-20625D02*
D03*
Y-21625D02*
D03*
X-38750Y-21625D02*
D03*
Y-20625D02*
D03*
X-17100Y-11600D02*
D03*
Y-10600D02*
D03*
X-11800Y-16000D02*
D03*
Y-15000D02*
D03*
X-1200Y-9700D02*
D03*
Y-8700D02*
D03*
X-5200Y-8700D02*
D03*
Y-9700D02*
D03*
X-46125Y-40425D02*
D03*
Y-39425D02*
D03*
Y-42325D02*
D03*
Y-41325D02*
D03*
X-23175Y-38775D02*
D03*
Y-37775D02*
D03*
X-16900Y-18400D02*
D03*
Y-17400D02*
D03*
X-20300Y-18200D02*
D03*
Y-19200D02*
D03*
Y-17200D02*
D03*
Y-16200D02*
D03*
X-56500Y-22575D02*
D03*
Y-23575D02*
D03*
X-39750Y-22675D02*
D03*
Y-23675D02*
D03*
X-57550Y-26950D02*
D03*
Y-25950D02*
D03*
D30*
X-56700Y-19575D02*
D03*
Y-18175D02*
D03*
X-56750Y-15175D02*
D03*
Y-16575D02*
D03*
X-24500Y-2750D02*
D03*
Y-4150D02*
D03*
X-27800Y-2750D02*
D03*
Y-4150D02*
D03*
X-39325Y-31800D02*
D03*
Y-33200D02*
D03*
X-52750Y-26125D02*
D03*
Y-24725D02*
D03*
X-48125Y-16625D02*
D03*
Y-18025D02*
D03*
X-39325Y-35900D02*
D03*
Y-34500D02*
D03*
D31*
X-23325Y-13550D02*
D03*
X-22325D02*
D03*
Y-12400D02*
D03*
X-23325D02*
D03*
X-22200Y-4425D02*
D03*
X-21200D02*
D03*
X-11750Y-8975D02*
D03*
X-12750D02*
D03*
X-21200Y-3275D02*
D03*
X-22200D02*
D03*
X-19525Y-14525D02*
D03*
X-18525D02*
D03*
X-10482Y-14834D02*
D03*
X-9482D02*
D03*
X-39175Y-29775D02*
D03*
X-38175D02*
D03*
X-39175Y-28875D02*
D03*
X-38175D02*
D03*
X-55600Y-23600D02*
D03*
X-54600D02*
D03*
X-48175Y-26675D02*
D03*
X-49175D02*
D03*
X-44600D02*
D03*
X-45600D02*
D03*
X-41050D02*
D03*
X-42050D02*
D03*
X-43000Y-21850D02*
D03*
X-42000D02*
D03*
X-46550Y-21825D02*
D03*
X-45550D02*
D03*
X-50125D02*
D03*
X-49125D02*
D03*
X-4200Y-11100D02*
D03*
X-5200D02*
D03*
X-1700D02*
D03*
X-2700D02*
D03*
X-46000Y-10475D02*
D03*
X-47000D02*
D03*
X-47900Y-10850D02*
D03*
X-48900D02*
D03*
X-37525Y-26400D02*
D03*
X-38525D02*
D03*
X-37525Y-25625D02*
D03*
X-38525D02*
D03*
X-55850Y-30900D02*
D03*
X-56850D02*
D03*
X-54950D02*
D03*
X-53950D02*
D03*
X-47850Y-39425D02*
D03*
X-48850D02*
D03*
X-45200Y-19300D02*
D03*
X-44200D02*
D03*
D32*
X-54625Y-22775D02*
D03*
X-55575D02*
D03*
X-24900Y-26400D02*
D03*
X-25850D02*
D03*
X-24900Y-25500D02*
D03*
X-25850D02*
D03*
X-19325Y-21300D02*
D03*
X-20275D02*
D03*
X-22925Y-16000D02*
D03*
X-23875D02*
D03*
X-22925Y-15100D02*
D03*
X-23875D02*
D03*
X-25975Y-16000D02*
D03*
X-25025D02*
D03*
X-25975Y-15100D02*
D03*
X-25025D02*
D03*
X-32150Y-18900D02*
D03*
X-31200D02*
D03*
X-22175Y-5550D02*
D03*
X-21225D02*
D03*
X-53975Y-31725D02*
D03*
X-54925D02*
D03*
D33*
X-31375Y-20000D02*
D03*
X-32775D02*
D03*
D35*
X-52500Y-38550D02*
D03*
Y-37150D02*
D03*
D36*
X-27275Y-5700D02*
D03*
X-25875D02*
D03*
X-46550Y-19475D02*
D03*
X-47950D02*
D03*
X-49750D02*
D03*
X-51150D02*
D03*
D37*
X-46850Y-16500D02*
Y-15400D01*
X-46575Y-17850D02*
Y-16775D01*
X-46850Y-16500D02*
X-46575Y-16775D01*
X-46575Y-14275D02*
Y-13950D01*
Y-14275D02*
X-45625Y-15225D01*
Y-15750D02*
Y-15225D01*
X-48225Y-13950D02*
X-46575D01*
X-48125Y-15425D02*
Y-14200D01*
Y-16625D02*
Y-15425D01*
X-30150Y-7750D02*
X-28900D01*
X-58225Y-21125D02*
X-56700Y-19600D01*
X-58225Y-25275D02*
Y-21125D01*
Y-25275D02*
X-57550Y-25950D01*
X-44735Y-42800D02*
Y-41325D01*
X-58075Y-15250D02*
Y-14250D01*
X-52950Y-20525D02*
X-52400D01*
X-47825Y-39425D02*
X-46125D01*
X-50050Y-25100D02*
Y-24025D01*
Y-25100D02*
X-49225Y-24275D01*
X-22500Y-7675D02*
X-21350D01*
X-22887Y-7288D02*
X-22500Y-7675D01*
X-22887Y-7288D02*
Y-6463D01*
X-18375Y-7025D02*
X-17075Y-8325D01*
X-21350Y-7025D02*
X-18375D01*
X-17075Y-8325D02*
X-15650D01*
X-18750Y-7675D02*
X-17100Y-9325D01*
X-21350Y-7675D02*
X-18750D01*
X-21100Y-5550D02*
Y-4425D01*
Y-5550D02*
X-19850D01*
X-21175D02*
X-21100D01*
X-15550Y-10500D02*
X-7600D01*
X-5700Y-12400D01*
X-21350Y-6450D02*
X-21175Y-6275D01*
Y-5550D01*
X-21350Y-7025D02*
Y-6450D01*
X-24075Y-6150D02*
X-23200D01*
X-22887Y-6463D01*
X-19610Y-9675D02*
Y-8650D01*
X-21350Y-8325D02*
X-19935D01*
X-19610Y-8650D01*
X-20973Y-9848D02*
X-20800Y-9675D01*
X-20986Y-9848D02*
X-20973D01*
X-21162Y-10023D02*
X-20986Y-9848D01*
X-21162Y-10037D02*
Y-10023D01*
X-22525Y-11400D02*
X-21162Y-10037D01*
X-20800Y-9675D02*
X-19610D01*
Y-11212D02*
Y-9675D01*
X-18631Y-14319D02*
X-18400Y-14550D01*
X-18631Y-14319D02*
Y-13123D01*
X-18579Y-13175D01*
X-17100D01*
X-18631Y-13123D02*
Y-12190D01*
X-12925Y-26975D02*
X-11950D01*
X-12925Y-25750D02*
X-11950D01*
X-12925Y-24525D02*
X-11950D01*
X-29524Y-4148D02*
X-28751D01*
X-29524D02*
X-29522Y-4150D01*
X-28751Y-4148D02*
X-27800D01*
X-27598Y-4350D01*
X-11450Y-11450D02*
X-10325D01*
X-50750Y-14300D02*
X-50400Y-13950D01*
Y-13075D01*
X-50825D02*
X-50400D01*
X-49900Y-12125D02*
X-48300D01*
X-50175Y-11850D02*
X-49900Y-12125D01*
X-50750Y-11850D02*
X-50175D01*
X-51800Y-12125D02*
X-51525Y-11850D01*
X-52200Y-12525D02*
X-51800Y-12125D01*
X-51525Y-11850D02*
X-50750D01*
X-58400Y-38100D02*
X-57075Y-39425D01*
X-48850D01*
X-43700Y-24275D02*
X-42950Y-25025D01*
X-45750Y-24275D02*
X-43700D01*
X-46537Y-25062D02*
X-45750Y-24275D01*
X-47325D02*
X-46537Y-25062D01*
X-42325Y-25025D02*
X-40975Y-23675D01*
X-42950Y-25025D02*
X-42325D01*
X-40975Y-23675D02*
X-39750D01*
X-42950Y-25300D02*
Y-25025D01*
X-45200Y-20950D02*
Y-19300D01*
Y-20950D02*
X-45150Y-21000D01*
X-49225Y-24275D02*
X-47325D01*
X-44600Y-26675D02*
Y-25300D01*
X-48175Y-26675D02*
Y-25325D01*
X-41050Y-26675D02*
Y-25300D01*
X-42000Y-23200D02*
Y-21850D01*
X-45550Y-23200D02*
Y-21825D01*
X-47825Y-39425D02*
X-47825Y-39425D01*
X-52250Y-36900D02*
Y-36000D01*
X-53075D02*
X-52250D01*
X-52101Y-35851D01*
X-50649D01*
X-53824Y-35051D02*
X-50649D01*
X-46975Y-41350D02*
X-46150D01*
X-46125Y-41325D02*
X-44735D01*
X-46125D02*
Y-40425D01*
X-46124Y-39424D02*
X-46123Y-39425D01*
X-44735D01*
X-46124Y-39424D02*
Y-37176D01*
X-46575Y-19300D02*
X-46400Y-19475D01*
X-46575Y-19300D02*
Y-17850D01*
X-52200Y-13075D02*
Y-12525D01*
X-25876Y-6424D02*
Y-5700D01*
X-24525D02*
X-24075Y-6150D01*
X-25876Y-5700D02*
X-24525D01*
X-24652Y-4300D02*
X-24500Y-4148D01*
X-24075Y-5675D02*
Y-5250D01*
X-24500Y-4825D02*
Y-4148D01*
Y-4825D02*
X-24075Y-5250D01*
X-13450Y-11450D02*
X-11450D01*
X-8068Y-12400D02*
X-6978Y-13490D01*
X-9350Y-12400D02*
X-8068D01*
X-6978Y-16030D02*
X-5700Y-14752D01*
Y-12400D01*
X-19610Y-11212D02*
X-18631Y-12190D01*
X-49575Y-19450D02*
X-48125D01*
X-56675Y-19575D02*
X-55050D01*
X-51300Y-19475D02*
Y-17650D01*
X-50925Y-17275D01*
X-49900D01*
Y-16625D02*
X-48125D01*
X-50050Y-25300D02*
Y-25100D01*
X-15650Y-8325D02*
X-14550D01*
X-14325Y-8100D01*
X-12500D01*
X-11125Y-6725D01*
X-17000Y-10500D02*
X-15550D01*
X-17100Y-10600D02*
X-17000Y-10500D01*
X-18559Y-10600D02*
X-17100D01*
X-18631Y-10673D02*
X-18559Y-10600D01*
X-17100D02*
Y-9325D01*
X-49125Y-22875D02*
Y-21825D01*
X-52500Y-37150D02*
X-52250Y-36900D01*
X-52400Y-20525D02*
X-52125Y-20800D01*
X-51550D01*
X-51450D02*
Y-19625D01*
X-51300Y-19475D01*
X-26775Y-13700D02*
X-26200Y-13125D01*
Y-12150D01*
X-27925Y-13700D02*
X-26775D01*
D38*
X-48189Y-79700D02*
G03*
X-48189Y-80450I-561J-375D01*
G01*
X-27460Y-94300D02*
X-22900D01*
X-28730Y-93030D02*
X-27460Y-94300D01*
X-8950Y-40333D02*
X-7883D01*
X-7675Y-40125D01*
X-11075Y-40850D02*
Y-40400D01*
X-27248Y-57023D02*
X-11075Y-40850D01*
X-31502Y-57023D02*
X-27248D01*
X-9979Y-39304D02*
X-9979D01*
X-11075Y-40400D02*
X-9979Y-39304D01*
X-9565Y-38890D02*
X-6970D01*
X-9979Y-39304D02*
X-9565Y-38890D01*
X-27711Y-56464D02*
X-8672Y-37425D01*
X-7451D01*
X-32625Y-54975D02*
X-30000D01*
X-12450Y-37425D01*
X-7675Y-40125D02*
X-5665D01*
X-8725Y-33575D02*
X-7675Y-32525D01*
X-8725Y-34450D02*
Y-33575D01*
X-29775Y-55500D02*
X-8725Y-34450D01*
X-7675Y-32525D02*
X-5685D01*
X-33625Y-55500D02*
X-29775D01*
X-8200Y-34500D02*
X-7660D01*
X-29725Y-56025D02*
X-8200Y-34500D01*
X-35200Y-56025D02*
X-29725D01*
X-34125Y-57050D02*
X-33550Y-56475D01*
X-34125Y-57625D02*
Y-57050D01*
X-32375Y-57025D02*
X-31502D01*
X-33075Y-57550D02*
X-22925D01*
X-16375Y-51000D01*
X-8470Y-31270D02*
X-6970D01*
X-16375Y-39175D02*
X-8470Y-31270D01*
X-5665Y-40125D02*
X-4430Y-38890D01*
X-7451Y-37425D02*
X-7426Y-37450D01*
X-5530D02*
X-4430Y-36350D01*
X-7426Y-37450D02*
X-5530D01*
X-36825Y-57650D02*
X-35200Y-56025D01*
X-36825Y-58750D02*
Y-57650D01*
X-34450Y-54400D02*
X-33250D01*
X-37700Y-57650D02*
X-34450Y-54400D01*
X-37700Y-62034D02*
Y-57650D01*
X-33550Y-56475D02*
X-29425D01*
X-34854Y-14779D02*
X-34275Y-14200D01*
X-37000Y-55250D02*
Y-53700D01*
X-41725Y-13075D02*
X-35850D01*
X-33058Y-16000D02*
X-32275Y-15217D01*
Y-15200D01*
X-33075Y-16000D02*
X-33058D01*
X-33500Y-16425D02*
X-33075Y-16000D01*
X-40444Y-29344D02*
Y-29219D01*
X-41351Y-30251D02*
X-40444Y-29344D01*
X-42399Y-30251D02*
X-41351D01*
X-40444Y-29219D02*
X-40100Y-28875D01*
X-23100Y-30900D02*
Y-28375D01*
X-23325Y-31125D02*
X-23100Y-30900D01*
X-23325Y-36850D02*
Y-31125D01*
X-49324Y-28324D02*
X-48325Y-27325D01*
X-39575D01*
X-39300Y-27050D01*
X-37775Y-27675D02*
X-37525Y-27425D01*
X-47949Y-27675D02*
X-37775D01*
X-48524Y-28250D02*
X-47949Y-27675D01*
X-41050Y-26675D02*
X-40175D01*
X-44600D02*
X-43725D01*
X-38175Y-24975D02*
X-37525Y-25625D01*
X-38925Y-24975D02*
X-38175D01*
X-39300Y-25350D02*
X-38925Y-24975D01*
X-39300Y-27050D02*
Y-25350D01*
X-38525Y-27025D02*
Y-26400D01*
X-37525Y-27425D02*
Y-26400D01*
X-29750Y-10300D02*
X-29300Y-9850D01*
X-29750Y-11775D02*
Y-10300D01*
X-36275Y-25700D02*
Y-24950D01*
X-36975Y-26400D02*
X-36275Y-25700D01*
X-37525Y-26400D02*
X-36975D01*
X-37525Y-25625D02*
X-36950Y-25050D01*
Y-23775D01*
X-23175Y-37775D02*
Y-37000D01*
X-23325Y-36850D02*
X-23175Y-37000D01*
X-23675Y-28125D02*
X-23275Y-27725D01*
X-23675Y-36800D02*
Y-28125D01*
X-24050Y-37175D02*
X-23675Y-36800D01*
X-22050Y-31100D02*
Y-26575D01*
X-22550Y-31600D02*
X-22050Y-31100D01*
X-40350Y-31700D02*
X-39325D01*
X-38400Y-31525D02*
Y-30650D01*
X-38675Y-31800D02*
X-38400Y-31525D01*
X-39325Y-31800D02*
X-38675D01*
X-43724Y-28926D02*
X-41125D01*
X-23175Y-41275D02*
Y-38775D01*
X-24050Y-37775D02*
Y-37175D01*
X-23275Y-27725D02*
X-22625D01*
X-30225Y-54500D02*
X-19425Y-43700D01*
X-20900Y-33500D02*
Y-26050D01*
Y-33500D02*
X-20350Y-34050D01*
X-18150Y-32572D02*
Y-28600D01*
X-43724Y-37176D02*
Y-35875D01*
X-43950Y-35649D02*
X-43724Y-35875D01*
X-43950Y-35649D02*
Y-34525D01*
X-44524Y-37176D02*
Y-33850D01*
X-37525Y-25625D02*
X-37525D01*
X-22125Y-33400D02*
X-21700Y-32975D01*
X-22750Y-23700D02*
X-20225Y-26225D01*
Y-32700D02*
Y-26225D01*
X-23400Y-23700D02*
X-23390Y-23710D01*
Y-23731D02*
Y-23710D01*
X-23400Y-23740D02*
X-23390Y-23731D01*
X-21350Y-35050D02*
Y-26150D01*
X-19425Y-43700D02*
Y-28600D01*
X-28913Y-42475D02*
Y-27525D01*
X-38175Y-29775D02*
X-36500D01*
X-44524Y-30326D02*
X-43800Y-31050D01*
X-45324Y-30326D02*
X-43800Y-31850D01*
X-45324Y-30326D02*
Y-28926D01*
X-45763Y-30688D02*
Y-30362D01*
Y-30688D02*
X-43800Y-32650D01*
X-46199Y-31051D02*
X-43800Y-33450D01*
X-50649Y-31051D02*
X-46199D01*
X-33500Y-44000D02*
Y-16425D01*
X-38175Y-28875D02*
X-36500D01*
X-39325Y-31800D02*
X-39225Y-31700D01*
X-46578Y-31851D02*
X-45352Y-33077D01*
X-48750Y-80075D02*
X-44025D01*
X-33375Y-69425D01*
X-40100Y-30775D02*
Y-30150D01*
X-41176Y-31851D02*
X-40100Y-30775D01*
X-42399Y-31851D02*
X-41176D01*
X-40600Y-31950D02*
X-40350Y-31700D01*
X-38925Y-35800D02*
X-38200D01*
X-55800Y-18175D02*
X-55550Y-17925D01*
X-56700Y-18175D02*
X-55800D01*
X-55650Y-15700D02*
Y-15075D01*
X-55674Y-15052D02*
X-55650Y-15075D01*
X-56750Y-15052D02*
X-55674D01*
X-8595Y-43970D02*
X-6970D01*
X-22775Y-58150D02*
X-8595Y-43970D01*
X-35250Y-58150D02*
X-22775D01*
X-9050Y-45250D02*
X-5710D01*
X-22475Y-58675D02*
X-9050Y-45250D01*
X-33650Y-58675D02*
X-22475D01*
X-9535Y-46510D02*
X-6970D01*
X-22225Y-59200D02*
X-9535Y-46510D01*
X-35300Y-59200D02*
X-22225D01*
X-10050Y-47800D02*
X-5720D01*
X-22000Y-59750D02*
X-10050Y-47800D01*
X-32650Y-59750D02*
X-22000D01*
X-10575Y-49050D02*
X-6970D01*
X-21775Y-60250D02*
X-10575Y-49050D01*
X-34350Y-60250D02*
X-21775D01*
X-11045Y-50320D02*
X-5700D01*
X-21525Y-60800D02*
X-11045Y-50320D01*
X-35925Y-60800D02*
X-21525D01*
X-15275Y-59755D02*
Y-56500D01*
X-21375Y-19975D02*
X-19225D01*
X-18900Y-19650D01*
X-36640Y-9125D02*
X-29925Y-15840D01*
X-30500Y-18152D02*
Y-17800D01*
X-42325Y-22875D02*
X-42000Y-23200D01*
X-43225Y-22875D02*
X-42325D01*
X-40100Y-30150D02*
X-39725Y-29775D01*
X-39175D01*
X-40100Y-28875D02*
X-39175D01*
X-54950Y-26625D02*
Y-25125D01*
Y-26625D02*
X-52850Y-28725D01*
X-47724Y-30151D02*
Y-28926D01*
Y-30151D02*
X-47450Y-30425D01*
X-58075Y-17650D02*
Y-16450D01*
X-52825Y-23425D02*
X-52625Y-23225D01*
Y-21725D01*
X-57425Y-23575D02*
X-56500D01*
X-53700Y-37150D02*
X-52500D01*
X-48875Y-40450D02*
X-47850Y-39425D01*
X-39325Y-33100D02*
X-37925D01*
X-58525Y-26950D02*
X-57550D01*
X-53950Y-30900D02*
X-52975D01*
X-54925Y-31725D02*
Y-29400D01*
Y-32700D02*
Y-31725D01*
X-10482Y-17383D02*
Y-14767D01*
X-26525Y-34500D02*
X-25900Y-35125D01*
X-23400Y-18500D02*
X-23075Y-18175D01*
X-26325Y-21425D02*
X-26000Y-21100D01*
X-26976Y-18174D02*
X-26650Y-18500D01*
X-27625Y-18175D02*
X-27300Y-18500D01*
X-27625Y-18825D02*
X-27300Y-19150D01*
X-26975Y-19475D02*
X-26650Y-19800D01*
X-27625Y-20125D02*
X-27300Y-19800D01*
X-27625Y-20775D02*
X-27300Y-20450D01*
X-27625Y-21425D02*
X-27300Y-21100D01*
X-27625Y-22075D02*
X-27300Y-21750D01*
X-27628Y-22729D02*
X-27300Y-22400D01*
X-26650Y-23050D02*
X-26325Y-23375D01*
X-25675Y-23375D02*
X-25350Y-23050D01*
X-23400Y-19800D02*
X-23075Y-20125D01*
X-22750Y-21100D02*
X-22425Y-21425D01*
X-22750Y-21750D02*
X-22425Y-22075D01*
X-23722Y-22072D02*
X-23400Y-21750D01*
Y-23050D02*
X-23075Y-23375D01*
X-54300Y-29950D02*
Y-29375D01*
X-2700Y-12250D02*
Y-11100D01*
X-3225Y-10575D02*
Y-9725D01*
Y-10575D02*
X-2700Y-11100D01*
X-1650Y-11050D02*
X-1600Y-11100D01*
X-1700D02*
Y-10175D01*
X-2150Y-9725D02*
X-1700Y-10175D01*
X-2575Y-8425D02*
Y-7875D01*
Y-8425D02*
X-1200Y-9800D01*
X-42399Y-35851D02*
X-41774D01*
X-41600Y-7500D02*
X-39975Y-9125D01*
X-14790Y-24275D02*
X-13915Y-25150D01*
X-10750Y-24525D02*
X-10050D01*
X-13915Y-25150D02*
X-11350D01*
X-26075Y-25275D02*
X-25850Y-25500D01*
X-26075Y-25275D02*
Y-24675D01*
X-29975Y-26900D02*
X-26975Y-23900D01*
X-25350Y-22400D02*
X-25025Y-22075D01*
X-25025Y-22725D02*
X-24700Y-22400D01*
X-25675Y-22075D02*
X-25350Y-21750D01*
X-32775Y-20950D02*
X-32300Y-21425D01*
X-15600Y-34625D02*
Y-28600D01*
X-16875Y-34600D02*
Y-28600D01*
X-38375Y-57730D02*
X-34520Y-53875D01*
X-32250D01*
X-8512Y-36350D02*
X-6970D01*
X-38375Y-61975D02*
Y-57730D01*
X-37700Y-62034D02*
X-37271Y-62463D01*
X-40725Y-56525D02*
X-40700Y-56550D01*
X-24075Y-7800D02*
X-23050D01*
X-22550Y-8875D02*
X-22450Y-8975D01*
X-21350D01*
X-17350Y-7025D02*
X-15650D01*
X-23925Y-4148D02*
X-23052Y-3275D01*
X-22300D01*
X-15650Y-7675D02*
X-14675D01*
X-9925Y-9200D02*
Y-6900D01*
X-15650Y-8975D02*
X-14500D01*
X-11875Y-9200D02*
X-11650Y-8975D01*
X-11875Y-9775D02*
Y-9200D01*
X-23325Y-4425D02*
X-22300D01*
X-22275Y-5550D02*
Y-4450D01*
X-23129Y-9000D02*
X-23101D01*
X-23425Y-9297D02*
X-23129Y-9000D01*
X-23425Y-12400D02*
Y-9297D01*
X-24625Y-12400D02*
X-23425D01*
Y-13550D02*
Y-12400D01*
X-21659D02*
X-21334Y-12075D01*
X-22400Y-12400D02*
X-21659D01*
X-21334Y-12075D02*
X-20537Y-11278D01*
Y-10673D01*
X-22400Y-13550D02*
X-22175D01*
X-21175Y-14550D01*
X-20537Y-13912D02*
Y-13123D01*
X-21175Y-14550D02*
X-20537Y-13912D01*
X-22100Y-15975D02*
X-21350Y-15225D01*
X-20750Y-15600D02*
X-18550D01*
X-22100Y-16950D02*
X-20750Y-15600D01*
X-24050Y-17850D02*
Y-16175D01*
X-23875Y-16000D01*
X-22100Y-17850D02*
Y-16950D01*
X-17725Y-16425D02*
X-16100D01*
X-18550Y-15600D02*
X-17725Y-16425D01*
X-17100Y-15300D02*
Y-14275D01*
X-19625Y-13163D02*
X-19584Y-13123D01*
X-19625Y-14525D02*
Y-13163D01*
X-17350Y-14525D02*
X-17100Y-14275D01*
X-16400Y-12400D02*
X-15800D01*
X-17100Y-11700D02*
X-16400Y-12400D01*
X-11385Y-23010D02*
X-8240D01*
X-11875Y-23500D02*
X-11385Y-23010D01*
X-17525Y-23500D02*
X-11875D01*
X-9485Y-25750D02*
X-8585Y-26650D01*
X-10750Y-25750D02*
X-9485D01*
X-11350Y-23925D02*
X-10750Y-24525D01*
X-3160Y-24235D02*
Y-23010D01*
X-3650Y-24725D02*
X-3160Y-24235D01*
X-5300Y-24725D02*
X-3650D01*
X-11350Y-25150D02*
X-10750Y-25750D01*
X-11350Y-26375D02*
X-10750Y-26975D01*
X-3230Y-93030D02*
X-1500Y-91300D01*
X-11450Y-13350D02*
Y-12650D01*
X-53850Y-19825D02*
X-53125D01*
X-26976Y-17684D02*
X-26975Y-17685D01*
X-52025Y-15975D02*
X-49900D01*
X-54150D02*
X-52025D01*
X-19325Y-21300D02*
X-19225Y-21400D01*
X-18525D01*
X-24900Y-26400D02*
X-24050D01*
X-24700Y-23050D02*
X-24700D01*
X-18950Y-22075D02*
X-17525Y-23500D01*
X-21800Y-22075D02*
X-18950D01*
X-22750Y-21100D02*
Y-20450D01*
X-23400Y-21100D02*
X-23075Y-21425D01*
X-41226Y-31051D02*
X-40900Y-30725D01*
X-42399Y-31051D02*
X-41226D01*
X-45175Y-13950D02*
X-44675D01*
X-47000Y-12125D02*
X-45175Y-13950D01*
X-47000Y-12125D02*
Y-10475D01*
X-54000Y-13350D02*
X-50675Y-10025D01*
X-47450D01*
X-47000Y-10475D01*
X-45300D02*
X-44825Y-10000D01*
X-46000Y-10475D02*
X-45300D01*
X-27276Y-4975D02*
X-27274Y-4978D01*
Y-5700D02*
Y-4978D01*
X-26650Y-3100D02*
X-26150D01*
X-32775Y-20950D02*
Y-20000D01*
X-55625Y-12125D02*
X-54300D01*
Y-14975D02*
Y-14025D01*
X-52699Y-32651D02*
X-50649D01*
X-52700Y-32650D02*
X-52699Y-32651D01*
X-50649Y-30251D02*
Y-28374D01*
X-48175Y-26675D02*
X-48175D01*
X-48524Y-28926D02*
Y-28250D01*
X-49324Y-28926D02*
Y-28324D01*
X-44200Y-20225D02*
Y-19300D01*
X-51650Y-26250D02*
Y-25450D01*
X-55050Y-21025D02*
X-53850Y-19825D01*
X-55050Y-21475D02*
Y-21025D01*
X-49675Y-10850D02*
X-48900D01*
X-51625Y-23425D02*
Y-22500D01*
X-49925Y-26675D02*
X-49175D01*
X-46350D02*
X-45600D01*
X-42800D02*
X-42050D01*
X-39325Y-34600D02*
X-38175D01*
X-42399Y-35051D02*
X-41411D01*
X-52500Y-38550D02*
X-51550D01*
X-41050Y-32400D02*
X-40600D01*
X-41301Y-32651D02*
X-41050Y-32400D01*
X-42399Y-32651D02*
X-41301D01*
X-39575Y-33350D02*
X-39325Y-33100D01*
X-40600Y-33350D02*
X-39575D01*
X-40701Y-33451D02*
X-40600Y-33350D01*
X-42399Y-33451D02*
X-40701D01*
X-39575Y-34350D02*
X-39325Y-34600D01*
X-40600Y-34350D02*
X-39575D01*
X-40699Y-34251D02*
X-40600Y-34350D01*
X-42399Y-34251D02*
X-40699D01*
X-40550Y-22675D02*
X-39750D01*
X-50900Y-21825D02*
X-50125D01*
X-43775Y-21850D02*
X-43000D01*
X-47700Y-40400D02*
X-46975D01*
X-42635Y-40375D02*
Y-39540D01*
X-57600Y-30900D02*
X-56850D01*
X-58250Y-28925D02*
X-57550D01*
X-52750Y-27150D02*
Y-26124D01*
X-56500Y-22575D02*
Y-21775D01*
X-53975Y-33025D02*
Y-31725D01*
Y-33025D02*
X-52749Y-34251D01*
X-50649D01*
X-46950Y-43075D02*
X-46950Y-43075D01*
X-46950Y-43075D02*
Y-42325D01*
X-46125D01*
X-47900Y-12075D02*
Y-10850D01*
X-47950Y-12125D02*
X-47900Y-12075D01*
X-48300Y-12125D02*
X-47950D01*
X-24925Y-10675D02*
Y-10300D01*
X-25050Y-10175D02*
X-24925Y-10300D01*
X-26200Y-10175D02*
X-25050D01*
X-25225Y-4300D02*
Y-3200D01*
X-25325Y-3100D02*
X-25225Y-3200D01*
X-25650Y-3100D02*
X-25325D01*
X-24500Y-4148D02*
X-23925D01*
X-32563Y-66142D02*
X-8117D01*
X-44775Y-9000D02*
X-43350Y-10425D01*
X-27950Y-18500D02*
X-27950Y-18500D01*
X-44675Y-18275D02*
Y-17850D01*
Y-18275D02*
X-44200Y-18750D01*
Y-19300D02*
Y-18750D01*
X-9382Y-14834D02*
Y-14113D01*
X-10325Y-13170D02*
X-9382Y-14113D01*
X-10325Y-13170D02*
Y-11450D01*
X-10649Y-14900D02*
X-10582Y-14834D01*
X-11800Y-14900D02*
X-10649D01*
X-12227D02*
X-11800D01*
X-13077Y-14050D02*
X-12227Y-14900D01*
X-13450Y-14050D02*
X-13077D01*
X-5690Y-70650D02*
X-4430Y-71910D01*
X-23875Y-15100D02*
Y-14675D01*
X-24175Y-14375D02*
X-23875Y-14675D01*
X-24500Y-14375D02*
X-24175D01*
X-6970Y-64290D02*
X-1918Y-59238D01*
X-5670Y-35050D02*
X-4430Y-33810D01*
X-21800Y-20800D02*
X-18275D01*
X-21825Y-21425D02*
X-21100D01*
X-32300D02*
X-30875D01*
X-14525Y-58500D02*
Y-55975D01*
X-5720Y-47800D02*
X-4430Y-46510D01*
X-31270Y-77000D02*
X-31260Y-76990D01*
X-26650Y-22400D02*
X-26325Y-22725D01*
X-1600Y-11100D02*
X-775D01*
X-25350Y-19150D02*
X-25025Y-19475D01*
X-15600Y-27400D02*
Y-26200D01*
X-27575Y-27375D02*
Y-26175D01*
X-16875Y-27400D02*
Y-26200D01*
X-18150Y-27400D02*
Y-26200D01*
X-19425Y-27400D02*
Y-26200D01*
X-32975Y-18900D02*
X-32150D01*
X-18570Y-93030D02*
X-3230D01*
X-2575Y-9725D02*
X-2150D01*
X-2575Y-7875D02*
Y-6550D01*
X-6350Y-10050D02*
X-5300Y-11100D01*
X-24700Y-23050D02*
X-24375Y-22725D01*
X-5200Y-9800D02*
X-4550D01*
X-4550Y-9800D01*
X-6970Y-74450D02*
X-6970Y-74450D01*
X-5200Y-8600D02*
X-3375D01*
X-3225Y-8450D01*
Y-7875D01*
X-6350Y-8750D02*
X-5350D01*
X-5200Y-8600D01*
X-25975Y-16900D02*
Y-16000D01*
X-25025D02*
X-24987Y-16038D01*
X-4100Y-12025D02*
Y-11100D01*
X-4100Y-11100D02*
X-4100Y-11100D01*
X-3875Y-10875D02*
Y-9725D01*
X-4100Y-11100D02*
X-3875Y-10875D01*
X-17800Y-17425D02*
X-16925D01*
X-17800Y-18375D02*
X-16900D01*
X-17800Y-19100D02*
Y-18375D01*
X-16700Y-19525D02*
X-14125D01*
X-16900Y-19325D02*
X-16700Y-19525D01*
X-18025Y-20450D02*
X-16900Y-19325D01*
Y-20275D02*
X-16125D01*
Y-20975D02*
Y-20275D01*
X-16375Y-21225D02*
X-16125Y-20975D01*
X-16900Y-21225D02*
X-16375D01*
X-16900Y-22175D02*
X-15425D01*
X-22100Y-21100D02*
X-21800Y-20800D01*
X-18275D02*
X-16900Y-22175D01*
X-25850Y-26400D02*
Y-25500D01*
X-24900Y-26400D02*
Y-25500D01*
X-30875Y-21425D02*
X-30000D01*
X-30875Y-22375D02*
X-30000D01*
X-30875Y-23175D02*
Y-22375D01*
X-31125Y-20250D02*
X-29850D01*
X-31375Y-20000D02*
X-31125Y-20250D01*
X-32975Y-1525D02*
X-30075D01*
X-27950Y-17850D02*
Y-16175D01*
X-25025Y-16000D02*
Y-15100D01*
X-25975Y-16000D02*
Y-15100D01*
X-26800D02*
X-25975D01*
X-23875Y-16000D02*
Y-15100D01*
X-22925Y-16000D02*
Y-15100D01*
X-22100D01*
X-24050Y-18500D02*
Y-17850D01*
X-21100Y-21425D02*
X-20400D01*
X-20275Y-21300D01*
X-23400Y-22400D02*
X-23075Y-22075D01*
X-25025Y-21425D02*
X-24700Y-21100D01*
X-25350D02*
X-25025Y-20775D01*
X-24700Y-20450D01*
X-24375Y-20775D02*
X-24050Y-20450D01*
X-25350D02*
X-25025Y-20125D01*
X-25675Y-20125D02*
X-25350Y-19800D01*
X-26325Y-20125D02*
X-26000Y-19800D01*
X-26975Y-18825D02*
X-26650Y-19150D01*
X-24050D02*
X-23725Y-18825D01*
X-23075Y-18825D02*
X-23075D01*
X-23400Y-19150D02*
X-23075Y-18825D01*
X-14125Y-19525D02*
X-13100Y-18500D01*
X-25025Y-18175D02*
X-24700Y-18500D01*
X-13450Y-15950D02*
X-11950D01*
X-11800Y-16100D01*
X-11100D01*
X-41600Y-1500D02*
X-40500D01*
X-41600Y-3500D02*
X-40600Y-4500D01*
X-26000Y-1500D02*
X-24925D01*
X-5710Y-45250D02*
X-4430Y-43970D01*
X-5660Y-65600D02*
X-4430Y-66830D01*
X-5700Y-50320D02*
X-4430Y-49050D01*
X-5695Y-75725D02*
X-4430Y-76990D01*
X-40600Y-4500D02*
X-38275D01*
X-5655Y-73225D02*
X-4430Y-74450D01*
X-24987Y-17563D02*
X-24700Y-17850D01*
X-24987Y-17563D02*
Y-16038D01*
X-25975Y-16900D02*
X-25350Y-17525D01*
Y-17850D02*
Y-17525D01*
X-25675Y-18175D02*
X-25350Y-18500D01*
X-18475Y-19225D02*
Y-18100D01*
X-17800Y-17425D01*
X-25575Y-14100D02*
X-25025Y-14650D01*
Y-15100D02*
Y-14650D01*
X-19584Y-13123D02*
Y-12075D01*
X-5672Y-85852D02*
X-4430Y-84610D01*
X-27914Y-88766D02*
X-23650Y-93030D01*
X-5685Y-80815D02*
X-4430Y-82070D01*
X-8117Y-66142D02*
X-7575Y-65600D01*
X-5660D01*
X-30675Y-75725D02*
X-5695D01*
X-31260Y-76990D02*
X-6970D01*
X-55600Y-29375D02*
Y-27600D01*
X-56250Y-26950D02*
X-55600Y-27600D01*
X-56250Y-26950D02*
Y-25125D01*
X-55850Y-30900D02*
X-54950D01*
X-53975Y-31725D02*
Y-30925D01*
X-53950Y-30900D02*
Y-30300D01*
X-54300Y-29950D02*
X-53950Y-30300D01*
X-55600Y-22800D02*
X-55575Y-22775D01*
X-55600Y-23600D02*
Y-22800D01*
Y-25125D02*
Y-23600D01*
X-56500D02*
X-55600D01*
X-54950Y-25125D02*
Y-23950D01*
X-54600Y-23600D01*
Y-22800D01*
X-54625Y-22775D02*
X-54600Y-22800D01*
X-52825Y-24652D02*
Y-23425D01*
X-52523Y-24500D02*
X-51650D01*
X-52750Y-24726D02*
X-52523Y-24500D01*
X-53376Y-24726D02*
X-52750D01*
X-53775Y-25125D02*
X-53376Y-24726D01*
X-54300Y-25125D02*
X-53775D01*
X-57550Y-26950D02*
X-56250D01*
X-56250Y-26950D01*
X-57550Y-27975D02*
Y-26950D01*
X-54150Y-17275D02*
X-53050D01*
X-55625Y-16625D02*
X-54150D01*
X-55650Y-16650D02*
X-55625Y-16625D01*
X-56548Y-16650D02*
X-55650D01*
X-56750Y-16448D02*
X-56548Y-16650D01*
X-58074Y-16448D02*
X-56750D01*
X-58075Y-16450D02*
X-58074Y-16448D01*
X-55650Y-15700D02*
X-55375Y-15975D01*
X-54150D01*
X-55550Y-17925D02*
X-54150D01*
X-50175D02*
X-49900D01*
X-50400Y-18150D02*
X-50175Y-17925D01*
X-50400Y-18625D02*
Y-18150D01*
X-29850Y-20250D02*
X-29325Y-20775D01*
X-28115D01*
X-31375Y-19075D02*
X-31200Y-18900D01*
X-31375Y-20000D02*
Y-19075D01*
X-28450Y-23050D02*
X-27950D01*
X-30775Y-27375D02*
Y-26175D01*
Y-25375D01*
X-28450Y-23050D01*
X-14500Y-8975D02*
X-12850D01*
X-3875Y-7875D02*
Y-7025D01*
X-28900Y-7750D02*
X-27775D01*
X-36850Y-59750D02*
X-35250Y-58150D01*
X-27975Y-73225D02*
X-5655D01*
X-28175Y-74450D02*
X-6970D01*
X-29425Y-71910D02*
X-6970D01*
X-22900Y-94300D02*
X-22375Y-93775D01*
X-30000Y-94300D02*
X-28730Y-95570D01*
X-30000Y-94300D02*
Y-92262D01*
X-32175Y-90087D02*
X-30000Y-92262D01*
X-33375Y-66825D02*
X-33370Y-66830D01*
X-6970D01*
X-22375Y-93775D02*
Y-91800D01*
X-36850Y-60750D02*
X-35300Y-59200D01*
X-37271Y-62463D02*
X-33312D01*
X-15800Y-12400D02*
X-15550D01*
X-15900Y-12500D02*
X-15800Y-12400D01*
X-15900Y-13775D02*
Y-12500D01*
X-15800Y-15000D02*
X-15550D01*
X-15900Y-14900D02*
X-15800Y-15000D01*
X-15900Y-14900D02*
Y-13775D01*
X-45550Y-23200D02*
Y-22950D01*
X-45625Y-22875D02*
X-45550Y-22950D01*
X-46775Y-22875D02*
X-45625D01*
X-49125Y-23175D02*
X-49100Y-23200D01*
X-49125Y-23175D02*
Y-22875D01*
X-50325D02*
X-49125D01*
X-50325Y-22875D02*
X-50325Y-22875D01*
X-53050Y-17275D02*
X-52600Y-17725D01*
Y-19300D02*
Y-17725D01*
X-53125Y-19825D02*
X-52600Y-19300D01*
X-40600Y-35300D02*
X-40550Y-35350D01*
X-47450Y-30425D02*
X-46475D01*
X-40600Y-32400D02*
Y-31950D01*
X-50649Y-28374D02*
X-49675Y-27400D01*
X-48900D01*
X-48175Y-26675D01*
X-34750Y-12725D02*
X-32275Y-15200D01*
X-41550Y-12725D02*
X-34750D01*
X-43350Y-11450D02*
Y-10425D01*
Y-11450D02*
X-41725Y-13075D01*
X-42900Y-11375D02*
X-41550Y-12725D01*
X-42900Y-11375D02*
Y-9625D01*
X-44325Y-8200D02*
X-42900Y-9625D01*
X-46584Y-8200D02*
X-44325D01*
X-49084Y-5700D02*
X-46584Y-8200D01*
X-39693Y-64200D02*
X-30258D01*
X-42237Y-61655D02*
X-39693Y-64200D01*
X-10050Y-24525D02*
X-8375Y-26200D01*
X-8700Y-27000D02*
X-6970Y-28730D01*
X-10750Y-26975D02*
X-10725Y-27000D01*
X-8700D01*
X-8585Y-26650D02*
X-3925D01*
X-1918Y-28657D01*
Y-59238D02*
Y-28657D01*
X-8375Y-26200D02*
X-3700D01*
X-1500Y-28400D01*
Y-91300D02*
Y-28400D01*
X-34524Y-88766D02*
X-27914D01*
X-38375Y-61975D02*
X-37475Y-62875D01*
X-32998D01*
X-36875Y-61750D02*
X-35925Y-60800D01*
X-32998Y-62875D02*
X-31749Y-61626D01*
X-26030D01*
X-23774Y-63881D01*
X-33312Y-62463D02*
X-32075Y-61225D01*
X-25541D01*
X-23038Y-63729D01*
X-27575Y-35550D02*
Y-28575D01*
X-41774Y-35851D02*
X-40100Y-37525D01*
X-38275D01*
X-36425Y-35675D01*
X-41175Y-35900D02*
X-40000Y-37075D01*
X-41175Y-35900D02*
Y-35287D01*
X-41411Y-35051D02*
X-41175Y-35287D01*
X-26150Y-4400D02*
Y-4350D01*
X-26175Y-4400D02*
X-26125Y-4450D01*
X-29101Y-2751D02*
X-27800D01*
X-41600Y-5500D02*
X-40625Y-6475D01*
X-38225D01*
X-26976Y-17684D02*
Y-16224D01*
X-28475Y-15250D02*
Y-15245D01*
X-39975Y-9125D02*
X-36640D01*
X-21350Y-15225D02*
X-18375D01*
X-22925Y-16000D02*
X-22750Y-16175D01*
Y-17850D02*
Y-16175D01*
X-23525Y-17725D02*
X-23400Y-17850D01*
X-23525Y-17725D02*
Y-17250D01*
X-18900Y-19650D02*
X-18475Y-19225D01*
X-14900Y-24700D02*
X-13225Y-26375D01*
X-11350D01*
X-29025Y-25325D02*
X-27628Y-23928D01*
X-28913Y-27525D02*
Y-26538D01*
X-26325Y-23950D01*
X-32235Y-63750D02*
X-30750Y-62265D01*
X-41875Y-61400D02*
X-39525Y-63750D01*
X-32235D01*
X-40000Y-37075D02*
X-38600D01*
X-36650Y-35125D01*
X-35975D01*
X-57550Y-29650D02*
Y-28925D01*
Y-29650D02*
X-56950D01*
X-56675Y-29375D01*
X-56250D01*
X-38600Y-7500D02*
X-37787Y-8312D01*
X-35700Y-7500D02*
X-26976Y-16224D01*
X-35700Y-7500D02*
Y-4400D01*
X-38600Y-1500D02*
X-35700Y-4400D01*
X-36125Y-7595D02*
X-28475Y-15245D01*
X-36125Y-7595D02*
Y-5975D01*
X-38600Y-3500D02*
X-36125Y-5975D01*
X-36550Y-7700D02*
X-28825Y-15425D01*
X-36550Y-7700D02*
Y-6225D01*
X-38275Y-4500D02*
X-36550Y-6225D01*
X-36925Y-7850D02*
X-29175Y-15600D01*
X-36925Y-7850D02*
Y-7175D01*
X-38600Y-5500D02*
X-36925Y-7175D01*
X-37325Y-7945D02*
X-29550Y-15720D01*
X-37325Y-7945D02*
Y-7375D01*
X-38225Y-6475D02*
X-37325Y-7375D01*
X-21100Y-3275D02*
X-20550D01*
X-19825Y-4000D01*
X-19000Y-5375D02*
X-17350Y-7025D01*
X-19000Y-5375D02*
Y-4825D01*
X-19825Y-4000D02*
X-19000Y-4825D01*
X-13200Y-6200D02*
X-10625D01*
X-14675Y-7675D02*
X-13200Y-6200D01*
X-10625D02*
X-9925Y-6900D01*
X-29625Y-25325D02*
X-29025D01*
X-23050Y-7800D02*
X-22800Y-8050D01*
Y-8225D02*
Y-8050D01*
Y-8225D02*
X-22550Y-8475D01*
Y-8875D02*
Y-8475D01*
X-18025Y-23925D02*
X-11350D01*
X-19225Y-22725D02*
X-18025Y-23925D01*
X-21875Y-22725D02*
X-19225D01*
X-18400Y-24275D02*
X-14790D01*
X-19300Y-23375D02*
X-18400Y-24275D01*
X-21825Y-23375D02*
X-19300D01*
X-18600Y-24700D02*
X-14900D01*
X-19375Y-23925D02*
X-18600Y-24700D01*
X-22100Y-23700D02*
X-21875Y-23925D01*
X-19375D01*
X-24675Y-35675D02*
Y-28100D01*
X-18375Y-15225D02*
X-17700Y-15900D01*
X-15450D02*
X-14475Y-16875D01*
X-17700Y-15900D02*
X-15450D01*
X-46001Y-33450D02*
X-46000Y-33451D01*
X-50649D02*
X-46000D01*
X-50649Y-31851D02*
X-46578D01*
X-46124Y-30001D02*
Y-28926D01*
Y-30001D02*
X-45763Y-30362D01*
X-21700Y-32975D02*
Y-26307D01*
X-24050Y-24575D02*
X-22050Y-26575D01*
X-44524Y-30326D02*
Y-28926D01*
X-30575Y-53375D02*
X-30250Y-53700D01*
X-33250Y-54400D02*
X-32250D01*
X-32150Y-54500D01*
X-30225D01*
X-8000Y-35050D02*
X-5670D01*
X-7660Y-34500D02*
X-6970Y-33810D01*
X-5685Y-32525D02*
X-4430Y-31270D01*
X-28626Y-56464D02*
X-8512Y-36350D01*
X-29425Y-56475D02*
X-8000Y-35050D01*
X-1300Y-8700D02*
X-1200D01*
X-1300D02*
Y-7250D01*
X-31450Y-40425D02*
Y-25500D01*
X-31989Y-41050D02*
Y-25514D01*
X-38525Y-26400D02*
Y-25625D01*
X-40600Y-35300D02*
X-40050D01*
Y-35875D02*
Y-35300D01*
Y-35875D02*
X-39350D01*
X-39325Y-35900D01*
Y-36200D02*
X-38925Y-35800D01*
X-46924Y-38424D02*
Y-37176D01*
X-47100Y-38600D02*
X-46924Y-38424D01*
X-47724Y-38574D02*
Y-37176D01*
X-50550Y-38600D02*
X-47100D01*
X-24050Y-41400D02*
Y-38775D01*
X-29975Y-44875D02*
Y-26900D01*
X-54300Y-14025D02*
X-54025D01*
X-54000Y-14000D01*
Y-13350D01*
X-32225Y-47125D02*
X-29975Y-44875D01*
X-42237Y-61655D02*
Y-53327D01*
X-28350Y-36045D02*
X-27120Y-37275D01*
X-28350Y-36045D02*
Y-28475D01*
X-27575Y-35550D02*
X-25850Y-37275D01*
X-26525Y-28225D02*
X-25750Y-27450D01*
X-26525Y-34500D02*
Y-28225D01*
X-25750Y-32175D02*
Y-28200D01*
X-30575Y-53375D02*
Y-48675D01*
X-23175Y-41275D01*
X-31025Y-53975D02*
Y-48375D01*
X-24050Y-41400D01*
X-38750Y-22700D02*
Y-21625D01*
X-40275Y-20625D02*
X-39575D01*
X-38750Y-20625D02*
Y-19835D01*
X-39575Y-21625D02*
X-38750D01*
X-37000Y-53700D02*
X-34443Y-51143D01*
X-35850Y-13075D02*
X-35309Y-13616D01*
X-34443Y-51143D02*
Y-16068D01*
X-33875Y-15500D01*
X-42237Y-53327D02*
X-36035Y-47125D01*
X-28558Y-64201D02*
X-27484D01*
X-27200Y-64486D01*
Y-65225D02*
Y-64486D01*
X-36035Y-47125D02*
X-35309Y-46399D01*
Y-13616D01*
X-41875Y-61400D02*
Y-54485D01*
X-34854Y-47464D01*
Y-14779D01*
X-29225Y-70650D02*
X-5690D01*
X-19975Y-62275D02*
X-17795D01*
X-15275Y-59755D01*
X-33807Y-79527D02*
X-33805Y-79530D01*
X-33147Y-78283D02*
X-33139Y-78275D01*
X-5685D02*
X-4430Y-79530D01*
X-30775Y-39684D02*
Y-28575D01*
X-36350Y-83464D02*
X-12600D01*
X-14567Y-78275D02*
X-5685D01*
X-15225Y-82070D02*
X-6970D01*
X-37575Y-85852D02*
X-19611D01*
X-5672D01*
X-35250Y-80815D02*
X-18830D01*
X-5685D01*
X-33139Y-78275D02*
X-14567D01*
X-33805Y-79530D02*
X-6970D01*
X-38887Y-84610D02*
X-6970D01*
X-22375Y-91800D02*
X-19370Y-88795D01*
X-15796D01*
X-58350Y-86074D02*
X-54749Y-89675D01*
X-58350Y-88196D02*
X-56871Y-89675D01*
X-58350D02*
Y-77475D01*
Y-83953D02*
X-52628Y-89675D01*
X-58350Y-81832D02*
X-50507Y-89675D01*
X-58350D02*
X-46150D01*
X-58350Y-77589D02*
X-46264Y-89675D01*
X-58350Y-79711D02*
X-48386Y-89675D01*
X-58350Y-77589D02*
X-46264Y-89675D01*
X-58350Y-83419D02*
X-52406Y-77475D01*
X-58350Y-85540D02*
X-50285Y-77475D01*
X-58350Y-79176D02*
X-56649Y-77475D01*
X-58350Y-81298D02*
X-54527Y-77475D01*
X-58242Y-89675D02*
X-49170Y-80603D01*
X-58242Y-89675D02*
X-49170Y-80603D01*
X-58350Y-87662D02*
X-48163Y-77475D01*
X-56343D02*
X-46150Y-87668D01*
X-58350Y-77475D02*
X-46150D01*
X-51878Y-89675D02*
X-46150Y-83947D01*
X-47635Y-89675D02*
X-46150Y-88190D01*
X-56121Y-89675D02*
X-46896Y-80450D01*
X-53999Y-89675D02*
X-46150Y-81826D01*
X-49757Y-89675D02*
X-46150Y-86068D01*
X-48830Y-80745D02*
X-46150Y-83425D01*
X-54222Y-77475D02*
X-46150Y-85547D01*
Y-89675D02*
Y-80450D01*
X-47004D02*
X-46150Y-81304D01*
X-52100Y-77475D02*
X-49420Y-80155D01*
X-49979Y-77475D02*
X-47754Y-79700D01*
X-46150D02*
Y-77475D01*
X-48189Y-79700D02*
X-46150D01*
X-48189Y-80450D02*
X-46150D01*
X-48222Y-79655D02*
X-46150Y-77583D01*
X-48222Y-79655D02*
X-46150Y-77583D01*
X-47858Y-77475D02*
X-46150Y-79183D01*
D39*
X-27598Y-4350D02*
X-26650D01*
X-25676Y-8975D02*
Y-8401D01*
X-25225Y-4300D02*
X-24652D01*
X-25650D02*
X-25225D01*
X-25876Y-6424D02*
X-25675Y-6625D01*
Y-7100D02*
Y-6625D01*
X-27775Y-10100D02*
Y-8400D01*
X-27850Y-10175D02*
X-27775Y-10100D01*
X-27850Y-12100D02*
Y-10175D01*
X-27900Y-12150D02*
X-27850Y-12100D01*
D40*
X-42120Y-14730D02*
X-36696D01*
X-45000Y-11850D02*
X-42120Y-14730D01*
X-45625Y-11850D02*
X-45000D01*
X-45150Y-21000D02*
X-42765D01*
X-47375D02*
X-45150D01*
X-48100Y-20275D02*
X-47375Y-21000D01*
X-48100Y-20275D02*
Y-19475D01*
X-48125Y-19450D02*
X-48100Y-19475D01*
X-48125Y-19450D02*
Y-18000D01*
X-42765Y-21000D02*
X-41575Y-19810D01*
X-36696D01*
D43*
X-29408Y-64201D02*
D03*
X-27049Y-12150D02*
D03*
D44*
X-44784Y-1675D02*
D03*
X-52084D02*
D03*
X-11950D02*
D03*
X-19250D02*
D03*
D45*
X-50659Y-4800D02*
D03*
X-13375D02*
D03*
D46*
X-46209D02*
D03*
X-17825D02*
D03*
D47*
X-37055Y-66550D02*
D03*
X-6970Y-16030D02*
D03*
X-4430D02*
D03*
Y-79530D02*
D03*
X-6970D02*
D03*
X-4430Y-82070D02*
D03*
X-6970D02*
D03*
X-4430Y-84610D02*
D03*
X-6970D02*
D03*
Y-74450D02*
D03*
Y-71910D02*
D03*
X-4430D02*
D03*
X-6970Y-69370D02*
D03*
X-4430D02*
D03*
X-6970Y-66830D02*
D03*
X-4430D02*
D03*
Y-74450D02*
D03*
X-38730Y-10950D02*
D03*
X-41270D02*
D03*
X-6970Y-41430D02*
D03*
X-4430D02*
D03*
Y-43970D02*
D03*
X-6970D02*
D03*
X-4430Y-46510D02*
D03*
X-6970D02*
D03*
X-4430Y-49050D02*
D03*
X-6970D02*
D03*
Y-38890D02*
D03*
Y-36350D02*
D03*
X-4430D02*
D03*
X-6970Y-33810D02*
D03*
X-4430D02*
D03*
X-6970Y-31270D02*
D03*
X-4430D02*
D03*
Y-38890D02*
D03*
X-28730Y-95570D02*
D03*
X-21110D02*
D03*
Y-93030D02*
D03*
X-23650Y-95570D02*
D03*
Y-93030D02*
D03*
X-26190Y-95570D02*
D03*
Y-93030D02*
D03*
X-28730D02*
D03*
X-36350D02*
D03*
X-47156Y-51861D02*
D03*
X-41776Y-14760D02*
D03*
D48*
X-39595Y-66550D02*
D03*
D49*
X-6970Y-13490D02*
D03*
Y-64290D02*
D03*
Y-28730D02*
D03*
X-47156Y-49321D02*
D03*
X-41776Y-19840D02*
D03*
D50*
X-4430Y-13490D02*
D03*
Y-87150D02*
D03*
X-6970Y-76990D02*
D03*
X-4430D02*
D03*
X-6970Y-87150D02*
D03*
X-4430Y-64290D02*
D03*
Y-51590D02*
D03*
X-6970D02*
D03*
X-4430Y-28730D02*
D03*
X-18570Y-95570D02*
D03*
X-41430Y-93030D02*
D03*
X-38890D02*
D03*
Y-95570D02*
D03*
X-36350D02*
D03*
X-33810Y-93030D02*
D03*
Y-95570D02*
D03*
X-31270D02*
D03*
Y-93030D02*
D03*
X-41430Y-95570D02*
D03*
X-47156Y-54401D02*
D03*
X-41776Y-17300D02*
D03*
X-36696Y-14760D02*
D03*
Y-17300D02*
D03*
D51*
X-18570Y-93030D02*
D03*
D52*
X-8240Y-21740D02*
D03*
X-5700Y-23010D02*
D03*
X-6970D02*
D03*
Y-21740D02*
D03*
X-5700D02*
D03*
X-4430D02*
D03*
X-3160D02*
D03*
D53*
X-8240Y-23010D02*
D03*
X-3160D02*
D03*
X-4430D02*
D03*
D54*
X-2350Y-2350D02*
D03*
X-57650D02*
D03*
X-2350Y-97650D02*
D03*
X-57650D02*
D03*
D55*
X-33495Y-47125D02*
D03*
X-32225D02*
D03*
X-36035D02*
D03*
X-25850Y-37275D02*
D03*
X-27120D02*
D03*
D56*
X-36696Y-19840D02*
D03*
D57*
X-26725Y-8150D02*
D03*
Y-7350D02*
D03*
X-8950Y-40333D02*
D03*
X-22100Y-54675D02*
D03*
X-32625Y-54975D02*
D03*
X-12450Y-37425D02*
D03*
X-34125Y-57625D02*
D03*
X-32375Y-57025D02*
D03*
X-33075Y-57550D02*
D03*
X-16375Y-51000D02*
D03*
Y-39175D02*
D03*
X-37002Y-55278D02*
D03*
X-33875Y-15500D02*
D03*
X-34275Y-14200D02*
D03*
X-38525Y-27025D02*
D03*
X-41125Y-28926D02*
D03*
X-19425Y-30450D02*
D03*
X-18150Y-32572D02*
D03*
X-38400Y-30650D02*
D03*
X-43950Y-34525D02*
D03*
X-44524Y-33850D02*
D03*
X-28350Y-28475D02*
D03*
X-36500Y-29775D02*
D03*
X-43800Y-31050D02*
D03*
Y-31850D02*
D03*
Y-32650D02*
D03*
Y-33450D02*
D03*
X-36500Y-28875D02*
D03*
X-45352Y-33077D02*
D03*
X-31750Y-67700D02*
D03*
X-33375Y-69425D02*
D03*
X-15275Y-56500D02*
D03*
X-8550Y-28850D02*
D03*
X-23100Y-28375D02*
D03*
X-46550Y-23900D02*
D03*
X-27200Y-65225D02*
D03*
X-26075Y-24675D02*
D03*
X-58075Y-14250D02*
D03*
X-18950Y-22075D02*
D03*
X-50050Y-24025D02*
D03*
X-36425Y-35675D02*
D03*
X-51625Y-22500D02*
D03*
X-50900Y-21825D02*
D03*
X-22625Y-27725D02*
D03*
X-22600Y-26800D02*
D03*
X-35975Y-35125D02*
D03*
X-39225Y-43775D02*
D03*
X-28925Y-42475D02*
D03*
X-30025Y-48975D02*
D03*
X-28250Y-49100D02*
D03*
X-31025Y-53975D02*
D03*
X-32250Y-53875D02*
D03*
X-31989Y-41050D02*
D03*
X-40700Y-56550D02*
D03*
X-18725Y-8825D02*
D03*
X-11875Y-9775D02*
D03*
X-23325Y-4425D02*
D03*
X-23101Y-9000D02*
D03*
X-24625Y-12400D02*
D03*
X-21334Y-12075D02*
D03*
X-22100Y-15975D02*
D03*
X-17100Y-15300D02*
D03*
X-12925Y-25750D02*
D03*
Y-24525D02*
D03*
X-5300Y-24725D02*
D03*
X-12925Y-26975D02*
D03*
X-29522Y-4150D02*
D03*
X-58400Y-38100D02*
D03*
X-52025Y-15975D02*
D03*
X-24050Y-26400D02*
D03*
X-40900Y-30725D02*
D03*
X-44825Y-10000D02*
D03*
X-25676Y-8975D02*
D03*
X-25876Y-6424D02*
D03*
X-28751Y-4148D02*
D03*
X-27276Y-4975D02*
D03*
X-29125Y-5675D02*
D03*
X-32775Y-20950D02*
D03*
X-55625Y-12125D02*
D03*
X-50650Y-8100D02*
D03*
X-54300Y-14975D02*
D03*
X-51650Y-26250D02*
D03*
X-49675Y-10850D02*
D03*
X-49925Y-26675D02*
D03*
X-46350D02*
D03*
X-51550Y-38550D02*
D03*
X-40550Y-22675D02*
D03*
X-43775Y-21850D02*
D03*
X-47700Y-40400D02*
D03*
X-42635Y-39540D02*
D03*
X-57600Y-30900D02*
D03*
X-58250Y-28925D02*
D03*
X-52750Y-27150D02*
D03*
X-56500Y-21775D02*
D03*
X-53824Y-35051D02*
D03*
X-46950Y-43075D02*
D03*
X-27950Y-16175D02*
D03*
X-29300Y-9850D02*
D03*
X-44775Y-9000D02*
D03*
X-49084Y-5700D02*
D03*
X-24925Y-10675D02*
D03*
X-36825Y-58750D02*
D03*
X-18525Y-21400D02*
D03*
X-21100Y-21425D02*
D03*
X-29250Y-22050D02*
D03*
X-14525Y-55975D02*
D03*
Y-58500D02*
D03*
X-31270Y-77000D02*
D03*
X-36850Y-59750D02*
D03*
X-36875Y-61750D02*
D03*
X-775Y-11100D02*
D03*
X-26800Y-15100D02*
D03*
X-30875Y-23175D02*
D03*
X-22100Y-15100D02*
D03*
X-16125Y-20275D02*
D03*
X-10325Y-11450D02*
D03*
X-30075Y-1525D02*
D03*
X-24925Y-1500D02*
D03*
X-34125Y-2150D02*
D03*
X-11125Y-6725D02*
D03*
X-40500Y-1500D02*
D03*
X-11100Y-16100D02*
D03*
X-11450Y-12650D02*
D03*
X-7600Y-1518D02*
D03*
X-3875Y-7025D02*
D03*
X-4550Y-9800D02*
D03*
X-17800Y-19100D02*
D03*
X-39925Y-53775D02*
D03*
X-29125Y-1525D02*
D03*
X-36850Y-60750D02*
D03*
X-30675Y-75725D02*
D03*
X-24500Y-14375D02*
D03*
X-16100Y-16425D02*
D03*
X-19584Y-12075D02*
D03*
X-32175Y-90087D02*
D03*
X-37575Y-85852D02*
D03*
X-35250Y-80815D02*
D03*
X-27711Y-56464D02*
D03*
X-49759Y-66040D02*
D03*
X-52375Y-63424D02*
D03*
Y-68656D02*
D03*
X-12600Y-83464D02*
D03*
X-19611Y-85852D02*
D03*
X-17426Y-80815D02*
D03*
X-28626Y-56464D02*
D03*
X-30750Y-62265D02*
D03*
X-23774Y-63881D02*
D03*
X-23038Y-63729D02*
D03*
X-2921Y-56312D02*
D03*
X-4430D02*
D03*
X-55550Y-17925D02*
D03*
X-50400Y-18625D02*
D03*
X-32975Y-18900D02*
D03*
X-30500Y-17800D02*
D03*
X-31375D02*
D03*
X-42800Y-26675D02*
D03*
X-38450Y-55575D02*
D03*
X-33250Y-54400D02*
D03*
X-33625Y-55500D02*
D03*
X-28526Y-74450D02*
D03*
X-29425Y-71925D02*
D03*
X-33375Y-66825D02*
D03*
X-20652Y-61451D02*
D03*
X-15600Y-34625D02*
D03*
X-16875Y-34600D02*
D03*
X-34350Y-60250D02*
D03*
X-33650Y-58675D02*
D03*
X-32650Y-59725D02*
D03*
X-38200Y-35800D02*
D03*
X-34524Y-88766D02*
D03*
X-31450Y-40425D02*
D03*
X-29750Y-11775D02*
D03*
X-29101Y-2751D02*
D03*
X-22100Y-53725D02*
D03*
X-38175Y-34600D02*
D03*
X-19085Y-17400D02*
D03*
X-19600Y-18200D02*
D03*
X-32563Y-66142D02*
D03*
X-31750Y-64800D02*
D03*
X-37787Y-8312D02*
D03*
X-27925Y-13700D02*
D03*
X-27300D02*
D03*
X-22800Y-8225D02*
D03*
X-24675Y-28100D02*
D03*
X-14475Y-16875D02*
D03*
X-46001Y-33450D02*
D03*
X-46475Y-30425D02*
D03*
X-30250Y-53700D02*
D03*
X-50550Y-38600D02*
D03*
X-33500Y-44000D02*
D03*
X-25750Y-28200D02*
D03*
Y-27450D02*
D03*
X-31625Y-48675D02*
D03*
X-31625Y-50900D02*
D03*
X-40275Y-20625D02*
D03*
X-29250Y-70650D02*
D03*
X-27975Y-73225D02*
D03*
X-19975Y-62275D02*
D03*
X-33807Y-79527D02*
D03*
X-13850Y-79524D02*
D03*
X-33147Y-78283D02*
D03*
X-14567Y-78275D02*
D03*
X-15225Y-82070D02*
D03*
X-30775Y-39725D02*
D03*
X-38887Y-84610D02*
D03*
X-13225Y-84606D02*
D03*
X-36350Y-83464D02*
D03*
X-15796Y-88795D02*
D03*
X-25275Y-69608D02*
D03*
X-23802Y-69898D02*
D03*
X-23535Y-62365D02*
D03*
D59*
X-25025Y-22725D02*
D03*
X-25025Y-22075D02*
D03*
X-25675Y-22075D02*
D03*
X-23525Y-16625D02*
D03*
Y-17250D02*
D03*
X-23075Y-21425D02*
D03*
X-23075Y-22075D02*
D03*
X-23725Y-18825D02*
D03*
X-23075Y-18825D02*
D03*
X-26325Y-22725D02*
D03*
X-25675Y-20125D02*
D03*
X-25675Y-18175D02*
D03*
X-25025D02*
D03*
X-24375Y-22725D02*
D03*
X-24375Y-20775D02*
D03*
X-26325Y-20125D02*
D03*
X-25025Y-19475D02*
D03*
X-25025Y-21425D02*
D03*
X-25025Y-20775D02*
D03*
X-26975Y-18825D02*
D03*
X-25025Y-20125D02*
D03*
D77*
X-33000Y-1500D02*
D03*
X-38600Y-7500D02*
D03*
X-26000Y-1500D02*
D03*
X-41600D02*
D03*
X-38600D02*
D03*
X-41600Y-3500D02*
D03*
Y-5500D02*
D03*
X-38600D02*
D03*
X-41600Y-7500D02*
D03*
X-38600Y-3500D02*
D03*
D78*
X-13100Y-22150D02*
D03*
Y-18350D02*
D03*
X-15400D02*
D03*
Y-22150D02*
D03*
D79*
X-26150Y-3100D02*
D03*
Y-4350D02*
D03*
X-25650Y-3100D02*
D03*
X-26650D02*
D03*
Y-4350D02*
D03*
D80*
X-25650Y-4300D02*
D03*
D81*
X-27950Y-17850D02*
D03*
X-27300D02*
D03*
X-26650D02*
D03*
X-26000D02*
D03*
X-25350D02*
D03*
X-24700D02*
D03*
X-24050D02*
D03*
X-23400D02*
D03*
X-22750D02*
D03*
X-22100D02*
D03*
X-27950Y-18500D02*
D03*
X-27300D02*
D03*
X-26650D02*
D03*
X-26000D02*
D03*
X-25350D02*
D03*
X-24700D02*
D03*
X-24050D02*
D03*
X-23400D02*
D03*
X-22750D02*
D03*
X-22100D02*
D03*
X-27950Y-19150D02*
D03*
X-27300D02*
D03*
X-26650D02*
D03*
X-26000D02*
D03*
X-25350D02*
D03*
X-24700D02*
D03*
X-24050D02*
D03*
X-23400D02*
D03*
X-22750D02*
D03*
X-27950Y-19800D02*
D03*
X-27300D02*
D03*
X-26650D02*
D03*
X-26000D02*
D03*
X-25350D02*
D03*
X-24700D02*
D03*
X-24050D02*
D03*
X-23400D02*
D03*
X-22750D02*
D03*
X-27950Y-20450D02*
D03*
X-27300D02*
D03*
X-26650D02*
D03*
X-26000D02*
D03*
X-25350D02*
D03*
X-24700D02*
D03*
X-24050D02*
D03*
X-23400D02*
D03*
X-22750D02*
D03*
X-27950Y-21750D02*
D03*
X-27300D02*
D03*
X-26650D02*
D03*
X-26000D02*
D03*
X-25350D02*
D03*
X-24700D02*
D03*
X-24050D02*
D03*
X-23400D02*
D03*
X-22750D02*
D03*
X-27950Y-22400D02*
D03*
X-27300D02*
D03*
X-26650D02*
D03*
X-26000D02*
D03*
X-25350D02*
D03*
X-24700D02*
D03*
X-24050D02*
D03*
X-23400D02*
D03*
X-22750D02*
D03*
X-27950Y-23050D02*
D03*
X-27300D02*
D03*
X-26650D02*
D03*
X-26000D02*
D03*
X-25350D02*
D03*
X-24700D02*
D03*
X-24050D02*
D03*
X-23400D02*
D03*
X-22750D02*
D03*
X-27950Y-23700D02*
D03*
X-27300D02*
D03*
X-26650D02*
D03*
X-26000D02*
D03*
X-25350D02*
D03*
X-24700D02*
D03*
X-24050D02*
D03*
X-23400D02*
D03*
X-22750D02*
D03*
X-27950Y-21100D02*
D03*
X-27300D02*
D03*
X-26650D02*
D03*
X-26000D02*
D03*
X-25350D02*
D03*
X-24700D02*
D03*
X-24050D02*
D03*
X-23400D02*
D03*
X-22750D02*
D03*
X-22100D02*
D03*
Y-19150D02*
D03*
Y-19800D02*
D03*
Y-20450D02*
D03*
Y-21750D02*
D03*
Y-22400D02*
D03*
Y-23050D02*
D03*
Y-23700D02*
D03*
D82*
X-25675Y-8400D02*
D03*
Y-7750D02*
D03*
Y-7100D02*
D03*
X-27775D02*
D03*
Y-7750D02*
D03*
Y-8400D02*
D03*
D83*
X-49900Y-15975D02*
D03*
Y-16625D02*
D03*
Y-17275D02*
D03*
Y-17925D02*
D03*
X-54150Y-15975D02*
D03*
Y-16625D02*
D03*
Y-17275D02*
D03*
Y-17925D02*
D03*
D84*
X-18631Y-13123D02*
D03*
X-19584D02*
D03*
X-20537D02*
D03*
Y-10673D02*
D03*
X-18631D02*
D03*
D85*
X-42399Y-35851D02*
D03*
Y-35051D02*
D03*
Y-34251D02*
D03*
Y-33451D02*
D03*
Y-32651D02*
D03*
Y-31851D02*
D03*
Y-31051D02*
D03*
Y-30251D02*
D03*
X-50649D02*
D03*
Y-31051D02*
D03*
Y-31851D02*
D03*
Y-32651D02*
D03*
Y-33451D02*
D03*
Y-34251D02*
D03*
Y-35051D02*
D03*
Y-35851D02*
D03*
D86*
X-43724Y-28926D02*
D03*
X-44524D02*
D03*
X-45324D02*
D03*
X-46124D02*
D03*
X-46924D02*
D03*
X-47724D02*
D03*
X-48524D02*
D03*
X-49324D02*
D03*
Y-37176D02*
D03*
X-48524D02*
D03*
X-47724D02*
D03*
X-46924D02*
D03*
X-46124D02*
D03*
X-45324D02*
D03*
X-44524D02*
D03*
X-43724D02*
D03*
D87*
X-15650Y-7025D02*
D03*
Y-7675D02*
D03*
Y-8325D02*
D03*
Y-8975D02*
D03*
X-21350Y-7025D02*
D03*
Y-7675D02*
D03*
Y-8325D02*
D03*
Y-8975D02*
D03*
D88*
X-44735Y-41325D02*
D03*
Y-39425D02*
D03*
X-42635Y-40375D02*
D03*
X-11450Y-13350D02*
D03*
Y-11450D02*
D03*
X-9350Y-12400D02*
D03*
X-15550Y-12400D02*
D03*
Y-10500D02*
D03*
X-13450Y-11450D02*
D03*
Y-14050D02*
D03*
Y-15950D02*
D03*
X-15550Y-15000D02*
D03*
X-54300Y-14025D02*
D03*
Y-12125D02*
D03*
X-52200Y-13075D02*
D03*
X-48300Y-12125D02*
D03*
Y-14025D02*
D03*
X-50400Y-13075D02*
D03*
X-55050Y-21475D02*
D03*
Y-19575D02*
D03*
X-52950Y-20525D02*
D03*
D89*
X-3875Y-7875D02*
D03*
X-3225D02*
D03*
X-2575D02*
D03*
Y-9725D02*
D03*
X-3225D02*
D03*
X-3875D02*
D03*
D90*
X-58075Y-16450D02*
D03*
Y-15250D02*
D03*
X-30775Y-27375D02*
D03*
Y-28575D02*
D03*
X-15600Y-28600D02*
D03*
Y-27400D02*
D03*
X-16875Y-28600D02*
D03*
Y-27400D02*
D03*
X-18150Y-28600D02*
D03*
Y-27400D02*
D03*
X-19425Y-28600D02*
D03*
Y-27400D02*
D03*
X-27575Y-28575D02*
D03*
Y-27375D02*
D03*
D91*
X-11950Y-26975D02*
D03*
X-10750D02*
D03*
X-11950Y-24525D02*
D03*
X-10750D02*
D03*
X-11950Y-25750D02*
D03*
X-10750D02*
D03*
X-52825Y-23425D02*
D03*
X-51625D02*
D03*
D92*
X-27850Y-10175D02*
D03*
X-26200D02*
D03*
D93*
X-27900Y-12150D02*
D03*
D94*
X-24075Y-6150D02*
D03*
Y-7800D02*
D03*
D95*
X-44675Y-13950D02*
D03*
X-46575D02*
D03*
X-45625Y-11850D02*
D03*
X-44675Y-17850D02*
D03*
X-46575D02*
D03*
X-45625Y-15750D02*
D03*
X-41050Y-25300D02*
D03*
X-42950D02*
D03*
X-42000Y-23200D02*
D03*
X-44600Y-25300D02*
D03*
X-46500D02*
D03*
X-45550Y-23200D02*
D03*
X-48150Y-25300D02*
D03*
X-50050D02*
D03*
X-49100Y-23200D02*
D03*
D96*
X-54300Y-29375D02*
D03*
X-54950D02*
D03*
X-55600D02*
D03*
X-56250D02*
D03*
X-54300Y-25125D02*
D03*
X-54950D02*
D03*
X-55600D02*
D03*
X-56250D02*
D03*
D97*
X-24050Y-40088D02*
D03*
X-23175Y-41275D02*
D03*
X-46850Y-15400D02*
D03*
X-40100Y-28875D02*
D03*
Y-30150D02*
D03*
X-30150Y-7750D02*
D03*
X-58075Y-17650D02*
D03*
X-30775Y-26175D02*
D03*
X-57425Y-23575D02*
D03*
X-44735Y-42800D02*
D03*
X-50649Y-28374D02*
D03*
X-51450Y-20800D02*
D03*
X-53700Y-37150D02*
D03*
X-48875Y-40450D02*
D03*
X-37925Y-33100D02*
D03*
X-52625Y-21725D02*
D03*
X-58525Y-26950D02*
D03*
X-52975Y-30900D02*
D03*
X-54925Y-32700D02*
D03*
X-10482Y-17383D02*
D03*
X-19825Y-4000D02*
D03*
X-19850Y-5550D02*
D03*
X-15900Y-13775D02*
D03*
X-48125Y-15425D02*
D03*
X-52600Y-19300D02*
D03*
X-58225Y-21125D02*
D03*
X-50750Y-11850D02*
D03*
X-18900Y-19650D02*
D03*
X-25575Y-14100D02*
D03*
X-4100Y-12025D02*
D03*
X-2575Y-6550D02*
D03*
X-21175Y-14550D02*
D03*
X-43225Y-22875D02*
D03*
X-46775D02*
D03*
X-50325D02*
D03*
X-14150Y-8975D02*
D03*
X-40175Y-26675D02*
D03*
X-43725D02*
D03*
X-36275Y-24950D02*
D03*
X-36950Y-23775D02*
D03*
X-20225Y-32700D02*
D03*
X-22550Y-31600D02*
D03*
X-25750Y-32175D02*
D03*
X-22125Y-33400D02*
D03*
X-20350Y-34050D02*
D03*
X-21350Y-35050D02*
D03*
X-52850Y-28725D02*
D03*
X-29625Y-25325D02*
D03*
X-29075Y-49725D02*
D03*
X-27350Y-49775D02*
D03*
X-2700Y-12250D02*
D03*
X-32275Y-15200D02*
D03*
X-24675Y-35675D02*
D03*
X-25900Y-35125D02*
D03*
X-28913Y-27525D02*
D03*
X-48750Y-80075D02*
D03*
X-40725Y-57950D02*
D03*
X-9925Y-9200D02*
D03*
X-22525Y-11400D02*
D03*
X-36625Y-11450D02*
D03*
X-52700Y-32650D02*
D03*
X-44200Y-20225D02*
D03*
X-50750Y-14300D02*
D03*
X-15600Y-26200D02*
D03*
X-27575Y-26175D02*
D03*
X-16875Y-26200D02*
D03*
X-18150D02*
D03*
X-19425Y-26200D02*
D03*
X-1300Y-7250D02*
D03*
X-6350Y-8750D02*
D03*
Y-10050D02*
D03*
X-29850Y-20250D02*
D03*
X-13275Y-7400D02*
D03*
X-38750Y-22700D02*
D03*
D98*
X-23075Y-23875D02*
X-20900Y-26050D01*
X-23400Y-24100D02*
Y-23740D01*
X-22100Y-20450D02*
X-18025D01*
X-29550Y-18165D02*
Y-15720D01*
Y-18165D02*
X-28565Y-19150D01*
X-29925Y-18250D02*
Y-15840D01*
Y-18250D02*
X-28700Y-19475D01*
X-30500Y-18152D02*
X-28852Y-19800D01*
X-31375Y-17800D02*
X-29050Y-20125D01*
X-28150D01*
X-28852Y-19800D02*
X-27950D01*
X-28700Y-19475D02*
X-28225D01*
X-24050Y-24575D02*
Y-23700D01*
X-23725Y-24282D02*
Y-23865D01*
X-25350Y-24050D02*
X-22600Y-26800D01*
X-26075Y-24675D02*
X-25675Y-24275D01*
Y-24050D01*
X-25350Y-24050D02*
Y-23700D01*
X-29250Y-22050D02*
X-28950Y-21750D01*
X-30000Y-21425D02*
X-28159D01*
X-28550Y-22075D02*
X-28200D01*
X-28250Y-18500D02*
X-27950D01*
X-28350Y-22400D02*
X-27950D01*
X-28475Y-17815D02*
X-28115Y-18175D01*
X-28475Y-17815D02*
Y-15250D01*
X-28825Y-17925D02*
X-28250Y-18500D01*
X-28825Y-17925D02*
Y-15425D01*
X-29175Y-18081D02*
Y-15600D01*
Y-18081D02*
X-28431Y-18825D01*
X-28200D01*
X-28565Y-19150D02*
X-27950D01*
X-23725Y-24282D02*
X-21700Y-26307D01*
X-23400Y-24100D02*
X-21350Y-26150D01*
X-28950Y-21750D02*
X-27950D01*
X-31450Y-25500D02*
X-28350Y-22400D01*
X-31989Y-25514D02*
X-28550Y-22075D01*
D99*
X-21525Y-20125D02*
X-21375Y-19975D01*
X-23525Y-16625D02*
X-23250D01*
X-22402Y-18175D02*
X-21875D01*
X-25675Y-24050D02*
Y-23375D01*
X-23075Y-23875D02*
Y-23375D01*
X-22750Y-23050D02*
X-22425Y-23375D01*
X-22750Y-22400D02*
X-22425Y-22725D01*
X-26976Y-18174D02*
Y-17684D01*
X-28200Y-22075D02*
X-27625D01*
X-23722Y-23865D02*
Y-22072D01*
X-23075Y-20125D02*
X-21525D01*
X-22425Y-21425D02*
X-21825D01*
X-22425Y-22075D02*
X-21800D01*
X-22751Y-18524D02*
X-22402Y-18175D01*
X-28159Y-21425D02*
X-27625D01*
X-26975Y-21575D02*
X-26825Y-21425D01*
X-26325D01*
X-22751Y-19174D02*
X-22448Y-19476D01*
X-26975Y-23900D02*
Y-21575D01*
X-28115Y-20775D02*
X-27625D01*
X-28115Y-18175D02*
X-27625D01*
X-28200Y-18825D02*
X-27625D01*
X-28225Y-19475D02*
X-26975D01*
X-22448Y-19476D02*
X-21930D01*
X-28150Y-20125D02*
X-27625D01*
X-23075Y-18175D02*
Y-16800D01*
X-23250Y-16625D02*
X-23075Y-16800D01*
X-27628Y-23928D02*
Y-22729D01*
X-26325Y-23950D02*
Y-23375D01*
X-22425Y-22725D02*
X-21875D01*
X-22425Y-23375D02*
X-21825D01*
M02*
