G04 Layer_Color=8388736*
%FSLAX43Y43*%
%MOMM*%
G71*
G01*
G75*
%ADD57C,0.550*%
%ADD112R,0.510X0.900*%
%ADD113R,0.900X0.510*%
%ADD114R,1.050X1.100*%
%ADD115R,0.500X1.450*%
%ADD116R,3.300X3.300*%
%ADD117R,4.100X4.100*%
%ADD118R,1.100X2.350*%
%ADD119R,1.100X1.700*%
%ADD120R,3.100X2.600*%
%ADD121O,0.400X1.750*%
%ADD122O,1.750X0.400*%
%ADD123R,1.300X1.300*%
%ADD124R,1.200X0.700*%
%ADD125R,1.200X1.100*%
%ADD126R,0.800X3.400*%
%ADD127R,1.000X0.700*%
%ADD128R,1.100X1.050*%
%ADD129R,1.700X1.400*%
%ADD130R,0.600X0.750*%
%ADD131R,0.650X0.700*%
%ADD132R,0.950X0.900*%
%ADD133R,0.700X0.650*%
%ADD134R,0.750X0.600*%
%ADD135R,0.800X0.800*%
%ADD136R,1.300X1.300*%
%ADD137R,0.800X0.800*%
%ADD138R,0.900X0.950*%
%ADD139R,1.900X2.000*%
G04:AMPARAMS|DCode=140|XSize=2.2mm|YSize=2mm|CornerRadius=0.544mm|HoleSize=0mm|Usage=FLASHONLY|Rotation=0.000|XOffset=0mm|YOffset=0mm|HoleType=Round|Shape=RoundedRectangle|*
%AMROUNDEDRECTD140*
21,1,2.200,0.912,0,0,0.0*
21,1,1.112,2.000,0,0,0.0*
1,1,1.088,0.556,-0.456*
1,1,1.088,-0.556,-0.456*
1,1,1.088,-0.556,0.456*
1,1,1.088,0.556,0.456*
%
%ADD140ROUNDEDRECTD140*%
G04:AMPARAMS|DCode=141|XSize=1.15mm|YSize=1.35mm|CornerRadius=0.575mm|HoleSize=0mm|Usage=FLASHONLY|Rotation=180.000|XOffset=0mm|YOffset=0mm|HoleType=Round|Shape=RoundedRectangle|*
%AMROUNDEDRECTD141*
21,1,1.150,0.200,0,0,180.0*
21,1,0.000,1.350,0,0,180.0*
1,1,1.150,0.000,0.100*
1,1,1.150,0.000,0.100*
1,1,1.150,0.000,-0.100*
1,1,1.150,0.000,-0.100*
%
%ADD141ROUNDEDRECTD141*%
G04:AMPARAMS|DCode=142|XSize=1.15mm|YSize=1.35mm|CornerRadius=0.575mm|HoleSize=0mm|Usage=FLASHONLY|Rotation=180.000|XOffset=0mm|YOffset=0mm|HoleType=Round|Shape=RoundedRectangle|*
%AMROUNDEDRECTD142*
21,1,1.150,0.200,0,0,180.0*
21,1,0.000,1.350,0,0,180.0*
1,1,1.150,0.000,0.100*
1,1,1.150,0.000,0.100*
1,1,1.150,0.000,-0.100*
1,1,1.150,0.000,-0.100*
%
%ADD142ROUNDEDRECTD142*%
%ADD143C,1.800*%
%ADD144R,1.800X1.800*%
%ADD145R,1.800X1.800*%
%ADD146C,1.800*%
%ADD147R,1.800X1.800*%
%ADD148C,1.150*%
%ADD149C,1.150*%
%ADD150C,3.700*%
%ADD151O,1.150X1.140*%
%ADD152R,1.800X1.800*%
G36*
X-44232Y-675D02*
X-44230Y-675D01*
X-44182Y-679D01*
X-44181Y-679D01*
X-44179Y-679D01*
X-44126Y-686D01*
X-44123Y-687D01*
X-44119Y-688D01*
X-44066Y-703D01*
X-44064Y-703D01*
X-44062Y-704D01*
X-44019Y-720D01*
X-44017Y-721D01*
X-44015Y-722D01*
X-43973Y-742D01*
X-43971Y-743D01*
X-43968Y-745D01*
X-43924Y-773D01*
X-43922Y-774D01*
X-43921Y-775D01*
X-43883Y-804D01*
X-43881Y-805D01*
X-43880Y-806D01*
X-43841Y-840D01*
X-43838Y-843D01*
X-43835Y-846D01*
X-43806Y-882D01*
X-43805Y-883D01*
X-43805Y-884D01*
X-43777Y-921D01*
X-43775Y-923D01*
X-43774Y-926D01*
X-43750Y-967D01*
X-43749Y-969D01*
X-43748Y-970D01*
X-43728Y-1012D01*
X-43727Y-1014D01*
X-43726Y-1016D01*
X-43710Y-1058D01*
X-43709Y-1061D01*
X-43708Y-1064D01*
X-43696Y-1115D01*
X-43696Y-1117D01*
X-43695Y-1119D01*
X-43688Y-1164D01*
X-43688Y-1166D01*
X-43688Y-1168D01*
X-43684Y-1221D01*
X-43684Y-1223D01*
X-43684Y-1225D01*
Y-2125D01*
X-43684Y-2127D01*
X-43684Y-2129D01*
X-43688Y-2184D01*
X-43688Y-2186D01*
X-43689Y-2189D01*
X-43697Y-2234D01*
X-43697Y-2235D01*
X-43697Y-2237D01*
X-43709Y-2287D01*
X-43710Y-2290D01*
X-43711Y-2294D01*
X-43727Y-2334D01*
X-43740Y-2366D01*
X-43742Y-2370D01*
X-43744Y-2373D01*
X-43769Y-2416D01*
X-43770Y-2418D01*
X-43771Y-2420D01*
X-43797Y-2457D01*
X-43798Y-2458D01*
X-43799Y-2460D01*
X-43830Y-2498D01*
X-43833Y-2500D01*
X-43835Y-2503D01*
X-43880Y-2544D01*
X-43882Y-2546D01*
X-43884Y-2547D01*
X-43924Y-2577D01*
X-43926Y-2578D01*
X-43927Y-2579D01*
X-43973Y-2609D01*
X-43976Y-2610D01*
X-43979Y-2612D01*
X-44032Y-2636D01*
X-44035Y-2637D01*
X-44039Y-2638D01*
X-44126Y-2664D01*
X-44131Y-2665D01*
X-44135Y-2666D01*
X-44135Y-2666D01*
X-44135Y-2666D01*
X-44135D01*
X-44229Y-2675D01*
X-44232Y-2675D01*
X-44234Y-2675D01*
X-45834D01*
X-45844Y-2674D01*
X-45853Y-2671D01*
X-45862Y-2667D01*
X-45870Y-2661D01*
X-45876Y-2653D01*
X-45880Y-2644D01*
X-45883Y-2635D01*
X-45884Y-2625D01*
Y-725D01*
X-45883Y-715D01*
X-45880Y-706D01*
X-45876Y-697D01*
X-45870Y-689D01*
X-45862Y-683D01*
X-45853Y-679D01*
X-45844Y-676D01*
X-45834Y-675D01*
X-44234D01*
X-44232Y-675D01*
D02*
G37*
G36*
X-28790Y-45376D02*
X-28781Y-45379D01*
X-28772Y-45383D01*
X-28764Y-45389D01*
X-28758Y-45397D01*
X-28754Y-45406D01*
X-28751Y-45415D01*
X-28750Y-45425D01*
Y-48725D01*
X-28751Y-48735D01*
X-28754Y-48744D01*
X-28758Y-48753D01*
X-28764Y-48761D01*
X-28772Y-48767D01*
X-28781Y-48771D01*
X-28790Y-48774D01*
X-28800Y-48775D01*
X-29500D01*
X-29501Y-48775D01*
X-29502Y-48775D01*
X-29506Y-48775D01*
X-29510Y-48774D01*
X-29511Y-48774D01*
X-29512Y-48774D01*
X-29516Y-48772D01*
X-29519Y-48771D01*
X-29520Y-48771D01*
X-29521Y-48770D01*
X-29525Y-48769D01*
X-29528Y-48767D01*
X-29529Y-48766D01*
X-29530Y-48765D01*
X-29533Y-48763D01*
X-29536Y-48761D01*
X-29536Y-48760D01*
X-29537Y-48759D01*
X-29539Y-48756D01*
X-29542Y-48753D01*
X-29542Y-48752D01*
X-29543Y-48751D01*
X-29993Y-48001D01*
X-29995Y-47997D01*
X-29996Y-47994D01*
X-29997Y-47993D01*
X-29997Y-47992D01*
X-29998Y-47988D01*
X-29999Y-47985D01*
X-29999Y-47984D01*
X-30000Y-47982D01*
X-30000Y-47979D01*
X-30000Y-47975D01*
Y-46175D01*
X-30000Y-46171D01*
X-30000Y-46168D01*
X-29999Y-46166D01*
X-29999Y-46165D01*
X-29998Y-46162D01*
X-29997Y-46158D01*
X-29997Y-46157D01*
X-29996Y-46156D01*
X-29995Y-46153D01*
X-29993Y-46149D01*
X-29543Y-45399D01*
X-29542Y-45398D01*
X-29542Y-45397D01*
X-29539Y-45394D01*
X-29537Y-45391D01*
X-29536Y-45390D01*
X-29536Y-45389D01*
X-29533Y-45387D01*
X-29530Y-45385D01*
X-29529Y-45384D01*
X-29528Y-45383D01*
X-29525Y-45381D01*
X-29521Y-45380D01*
X-29520Y-45379D01*
X-29519Y-45379D01*
X-29516Y-45378D01*
X-29512Y-45376D01*
X-29511Y-45376D01*
X-29510Y-45376D01*
X-29506Y-45375D01*
X-29502Y-45375D01*
X-29501Y-45375D01*
X-29500Y-45375D01*
X-28800D01*
X-28790Y-45376D01*
D02*
G37*
G36*
X-27099Y-45375D02*
X-27098Y-45375D01*
X-27094Y-45375D01*
X-27090Y-45376D01*
X-27089Y-45376D01*
X-27088Y-45376D01*
X-27084Y-45378D01*
X-27081Y-45379D01*
X-27080Y-45379D01*
X-27079Y-45380D01*
X-27075Y-45381D01*
X-27072Y-45383D01*
X-27071Y-45384D01*
X-27070Y-45385D01*
X-27067Y-45387D01*
X-27064Y-45389D01*
X-27064Y-45390D01*
X-27063Y-45391D01*
X-27061Y-45394D01*
X-27058Y-45397D01*
X-27058Y-45398D01*
X-27057Y-45399D01*
X-26607Y-46149D01*
X-26605Y-46153D01*
X-26604Y-46156D01*
X-26603Y-46157D01*
X-26603Y-46158D01*
X-26602Y-46162D01*
X-26601Y-46165D01*
X-26601Y-46166D01*
X-26600Y-46168D01*
X-26600Y-46171D01*
X-26600Y-46175D01*
Y-47975D01*
X-26600Y-47979D01*
X-26600Y-47982D01*
X-26601Y-47984D01*
X-26601Y-47985D01*
X-26602Y-47988D01*
X-26603Y-47992D01*
X-26603Y-47993D01*
X-26604Y-47994D01*
X-26605Y-47997D01*
X-26607Y-48001D01*
X-27057Y-48751D01*
X-27058Y-48752D01*
X-27058Y-48753D01*
X-27061Y-48756D01*
X-27063Y-48759D01*
X-27064Y-48760D01*
X-27064Y-48761D01*
X-27067Y-48763D01*
X-27070Y-48765D01*
X-27071Y-48766D01*
X-27072Y-48767D01*
X-27075Y-48769D01*
X-27079Y-48770D01*
X-27080Y-48771D01*
X-27081Y-48771D01*
X-27084Y-48772D01*
X-27088Y-48774D01*
X-27089Y-48774D01*
X-27090Y-48774D01*
X-27094Y-48775D01*
X-27098Y-48775D01*
X-27099Y-48775D01*
X-27100Y-48775D01*
X-27800D01*
X-27810Y-48774D01*
X-27819Y-48771D01*
X-27828Y-48767D01*
X-27836Y-48761D01*
X-27842Y-48753D01*
X-27846Y-48744D01*
X-27849Y-48735D01*
X-27850Y-48725D01*
Y-45425D01*
X-27849Y-45415D01*
X-27846Y-45406D01*
X-27842Y-45397D01*
X-27836Y-45389D01*
X-27828Y-45383D01*
X-27819Y-45379D01*
X-27810Y-45376D01*
X-27800Y-45375D01*
X-27100D01*
X-27099Y-45375D01*
D02*
G37*
G36*
X-18190Y-676D02*
X-18181Y-679D01*
X-18172Y-683D01*
X-18164Y-689D01*
X-18158Y-697D01*
X-18154Y-706D01*
X-18151Y-715D01*
X-18150Y-725D01*
Y-2625D01*
X-18151Y-2635D01*
X-18154Y-2644D01*
X-18158Y-2653D01*
X-18164Y-2661D01*
X-18172Y-2667D01*
X-18181Y-2671D01*
X-18190Y-2674D01*
X-18200Y-2675D01*
X-19800D01*
X-19802Y-2675D01*
X-19804Y-2675D01*
X-19852Y-2671D01*
X-19853Y-2671D01*
X-19855Y-2671D01*
X-19908Y-2664D01*
X-19911Y-2663D01*
X-19915Y-2662D01*
X-19968Y-2647D01*
X-19970Y-2647D01*
X-19972Y-2646D01*
X-20015Y-2630D01*
X-20017Y-2629D01*
X-20019Y-2628D01*
X-20061Y-2608D01*
X-20063Y-2607D01*
X-20066Y-2605D01*
X-20110Y-2577D01*
X-20112Y-2576D01*
X-20113Y-2575D01*
X-20151Y-2546D01*
X-20153Y-2545D01*
X-20154Y-2544D01*
X-20193Y-2510D01*
X-20196Y-2507D01*
X-20199Y-2504D01*
X-20228Y-2468D01*
X-20229Y-2467D01*
X-20229Y-2466D01*
X-20257Y-2429D01*
X-20259Y-2427D01*
X-20260Y-2424D01*
X-20284Y-2383D01*
X-20285Y-2381D01*
X-20286Y-2380D01*
X-20306Y-2338D01*
X-20307Y-2336D01*
X-20308Y-2334D01*
X-20324Y-2292D01*
X-20325Y-2289D01*
X-20326Y-2286D01*
X-20338Y-2235D01*
X-20338Y-2233D01*
X-20339Y-2231D01*
X-20346Y-2186D01*
X-20346Y-2184D01*
X-20346Y-2182D01*
X-20350Y-2129D01*
X-20350Y-2127D01*
X-20350Y-2125D01*
Y-1225D01*
X-20350Y-1223D01*
X-20350Y-1221D01*
X-20346Y-1166D01*
X-20346Y-1164D01*
X-20345Y-1161D01*
X-20337Y-1116D01*
X-20337Y-1115D01*
X-20337Y-1113D01*
X-20325Y-1063D01*
X-20324Y-1060D01*
X-20323Y-1056D01*
X-20307Y-1016D01*
X-20294Y-984D01*
X-20292Y-980D01*
X-20290Y-977D01*
X-20265Y-934D01*
X-20264Y-932D01*
X-20263Y-930D01*
X-20237Y-893D01*
X-20236Y-892D01*
X-20235Y-890D01*
X-20204Y-852D01*
X-20201Y-850D01*
X-20199Y-847D01*
X-20154Y-806D01*
X-20152Y-804D01*
X-20150Y-803D01*
X-20110Y-773D01*
X-20108Y-772D01*
X-20107Y-771D01*
X-20061Y-742D01*
X-20058Y-740D01*
X-20055Y-738D01*
X-20002Y-714D01*
X-19999Y-713D01*
X-19995Y-712D01*
X-19908Y-686D01*
X-19903Y-685D01*
X-19899Y-684D01*
X-19899Y-684D01*
X-19899Y-684D01*
X-19899D01*
X-19805Y-675D01*
X-19802Y-675D01*
X-19800Y-675D01*
X-18200D01*
X-18190Y-676D01*
D02*
G37*
G36*
X-51024D02*
X-51015Y-679D01*
X-51006Y-683D01*
X-50998Y-689D01*
X-50992Y-697D01*
X-50988Y-706D01*
X-50985Y-715D01*
X-50984Y-725D01*
Y-2625D01*
X-50985Y-2635D01*
X-50988Y-2644D01*
X-50992Y-2653D01*
X-50998Y-2661D01*
X-51006Y-2667D01*
X-51015Y-2671D01*
X-51024Y-2674D01*
X-51034Y-2675D01*
X-52634D01*
X-52636Y-2675D01*
X-52638Y-2675D01*
X-52686Y-2671D01*
X-52687Y-2671D01*
X-52689Y-2671D01*
X-52742Y-2664D01*
X-52745Y-2663D01*
X-52749Y-2662D01*
X-52802Y-2647D01*
X-52804Y-2647D01*
X-52806Y-2646D01*
X-52849Y-2630D01*
X-52851Y-2629D01*
X-52853Y-2628D01*
X-52895Y-2608D01*
X-52897Y-2607D01*
X-52900Y-2605D01*
X-52944Y-2577D01*
X-52946Y-2576D01*
X-52947Y-2575D01*
X-52985Y-2546D01*
X-52987Y-2545D01*
X-52988Y-2544D01*
X-53027Y-2510D01*
X-53030Y-2507D01*
X-53033Y-2504D01*
X-53062Y-2468D01*
X-53063Y-2467D01*
X-53063Y-2466D01*
X-53091Y-2429D01*
X-53093Y-2427D01*
X-53094Y-2424D01*
X-53118Y-2383D01*
X-53119Y-2381D01*
X-53120Y-2380D01*
X-53140Y-2338D01*
X-53141Y-2336D01*
X-53142Y-2334D01*
X-53158Y-2292D01*
X-53159Y-2289D01*
X-53160Y-2286D01*
X-53172Y-2235D01*
X-53172Y-2233D01*
X-53173Y-2231D01*
X-53180Y-2186D01*
X-53180Y-2184D01*
X-53180Y-2182D01*
X-53184Y-2129D01*
X-53184Y-2127D01*
X-53184Y-2125D01*
Y-1225D01*
X-53184Y-1223D01*
X-53184Y-1221D01*
X-53180Y-1166D01*
X-53180Y-1164D01*
X-53179Y-1161D01*
X-53171Y-1116D01*
X-53171Y-1115D01*
X-53171Y-1113D01*
X-53159Y-1063D01*
X-53158Y-1060D01*
X-53157Y-1056D01*
X-53141Y-1016D01*
X-53128Y-984D01*
X-53126Y-980D01*
X-53124Y-977D01*
X-53099Y-934D01*
X-53098Y-932D01*
X-53097Y-930D01*
X-53071Y-893D01*
X-53070Y-892D01*
X-53069Y-890D01*
X-53038Y-852D01*
X-53035Y-850D01*
X-53033Y-847D01*
X-52988Y-806D01*
X-52986Y-804D01*
X-52984Y-803D01*
X-52944Y-773D01*
X-52942Y-772D01*
X-52941Y-771D01*
X-52895Y-742D01*
X-52892Y-740D01*
X-52889Y-738D01*
X-52836Y-714D01*
X-52833Y-713D01*
X-52829Y-712D01*
X-52742Y-686D01*
X-52737Y-685D01*
X-52733Y-684D01*
X-52733Y-684D01*
X-52733Y-684D01*
X-52733D01*
X-52639Y-675D01*
X-52636Y-675D01*
X-52634Y-675D01*
X-51034D01*
X-51024Y-676D01*
D02*
G37*
G36*
X-11398Y-675D02*
X-11396Y-675D01*
X-11348Y-679D01*
X-11347Y-679D01*
X-11345Y-679D01*
X-11292Y-686D01*
X-11289Y-687D01*
X-11285Y-688D01*
X-11232Y-703D01*
X-11230Y-703D01*
X-11228Y-704D01*
X-11185Y-720D01*
X-11183Y-721D01*
X-11181Y-722D01*
X-11139Y-742D01*
X-11137Y-743D01*
X-11134Y-745D01*
X-11090Y-773D01*
X-11088Y-774D01*
X-11087Y-775D01*
X-11049Y-804D01*
X-11047Y-805D01*
X-11046Y-806D01*
X-11007Y-840D01*
X-11004Y-843D01*
X-11001Y-846D01*
X-10972Y-882D01*
X-10971Y-883D01*
X-10971Y-884D01*
X-10943Y-921D01*
X-10941Y-923D01*
X-10940Y-926D01*
X-10916Y-967D01*
X-10915Y-969D01*
X-10914Y-970D01*
X-10894Y-1012D01*
X-10893Y-1014D01*
X-10892Y-1016D01*
X-10876Y-1058D01*
X-10875Y-1061D01*
X-10874Y-1064D01*
X-10862Y-1115D01*
X-10862Y-1117D01*
X-10861Y-1119D01*
X-10854Y-1164D01*
X-10854Y-1166D01*
X-10854Y-1168D01*
X-10850Y-1221D01*
X-10850Y-1223D01*
X-10850Y-1225D01*
Y-2125D01*
X-10850Y-2127D01*
X-10850Y-2129D01*
X-10854Y-2184D01*
X-10854Y-2186D01*
X-10855Y-2189D01*
X-10863Y-2234D01*
X-10863Y-2235D01*
X-10863Y-2237D01*
X-10875Y-2287D01*
X-10876Y-2290D01*
X-10877Y-2294D01*
X-10893Y-2334D01*
X-10906Y-2366D01*
X-10908Y-2370D01*
X-10910Y-2373D01*
X-10935Y-2416D01*
X-10936Y-2418D01*
X-10937Y-2420D01*
X-10963Y-2457D01*
X-10964Y-2458D01*
X-10965Y-2460D01*
X-10996Y-2498D01*
X-10999Y-2500D01*
X-11001Y-2503D01*
X-11046Y-2544D01*
X-11048Y-2546D01*
X-11050Y-2547D01*
X-11090Y-2577D01*
X-11092Y-2578D01*
X-11093Y-2579D01*
X-11139Y-2609D01*
X-11142Y-2610D01*
X-11145Y-2612D01*
X-11198Y-2636D01*
X-11201Y-2637D01*
X-11205Y-2638D01*
X-11292Y-2664D01*
X-11297Y-2665D01*
X-11301Y-2666D01*
X-11301Y-2666D01*
X-11301Y-2666D01*
X-11301D01*
X-11395Y-2675D01*
X-11398Y-2675D01*
X-11400Y-2675D01*
X-13000D01*
X-13010Y-2674D01*
X-13019Y-2671D01*
X-13028Y-2667D01*
X-13036Y-2661D01*
X-13042Y-2653D01*
X-13046Y-2644D01*
X-13049Y-2635D01*
X-13050Y-2625D01*
Y-725D01*
X-13049Y-715D01*
X-13046Y-706D01*
X-13042Y-697D01*
X-13036Y-689D01*
X-13028Y-683D01*
X-13019Y-679D01*
X-13010Y-676D01*
X-13000Y-675D01*
X-11400D01*
X-11398Y-675D01*
D02*
G37*
D57*
X-26725Y-8150D02*
D03*
Y-7350D02*
D03*
D112*
X-41920Y-51475D02*
D03*
X-20634Y-68129D02*
D03*
D113*
X-24562Y-74081D02*
D03*
D114*
X-41925Y-50625D02*
D03*
Y-52325D02*
D03*
X-20629Y-67279D02*
D03*
Y-68979D02*
D03*
D115*
X-48434Y-4475D02*
D03*
X-47784D02*
D03*
X-49734D02*
D03*
X-49084D02*
D03*
X-47134D02*
D03*
X-15600D02*
D03*
X-14950D02*
D03*
X-16900D02*
D03*
X-16250D02*
D03*
X-14300D02*
D03*
D116*
X-52375Y-73940D02*
D03*
Y-58140D02*
D03*
D117*
Y-66040D02*
D03*
D118*
X-28000Y-7650D02*
D03*
Y-2150D02*
D03*
X-24000D02*
D03*
Y-7650D02*
D03*
X-35000D02*
D03*
Y-2150D02*
D03*
X-31000D02*
D03*
Y-7650D02*
D03*
D119*
X-37925Y-52075D02*
D03*
X-40525D02*
D03*
D120*
X-39225Y-45825D02*
D03*
D121*
X-33750Y-52425D02*
D03*
X-33250D02*
D03*
X-32750D02*
D03*
X-32250D02*
D03*
X-31750D02*
D03*
X-31250D02*
D03*
X-30750D02*
D03*
X-30250D02*
D03*
X-29750D02*
D03*
X-29250D02*
D03*
X-28750D02*
D03*
X-28250D02*
D03*
X-27750D02*
D03*
X-27250D02*
D03*
X-26750D02*
D03*
X-26250D02*
D03*
Y-63575D02*
D03*
X-26750D02*
D03*
X-27250D02*
D03*
X-27750D02*
D03*
X-28250D02*
D03*
X-28750D02*
D03*
X-29250D02*
D03*
X-29750D02*
D03*
X-30250D02*
D03*
X-30750D02*
D03*
X-31250D02*
D03*
X-31750D02*
D03*
X-32250D02*
D03*
X-32750D02*
D03*
X-33250D02*
D03*
X-33750D02*
D03*
D122*
X-24425Y-54250D02*
D03*
Y-54750D02*
D03*
Y-56250D02*
D03*
Y-56750D02*
D03*
Y-57250D02*
D03*
Y-57750D02*
D03*
Y-58250D02*
D03*
Y-58750D02*
D03*
Y-59250D02*
D03*
Y-59750D02*
D03*
Y-60250D02*
D03*
Y-60750D02*
D03*
Y-61250D02*
D03*
Y-61750D02*
D03*
X-35575D02*
D03*
Y-61250D02*
D03*
Y-60750D02*
D03*
Y-60250D02*
D03*
Y-59750D02*
D03*
Y-59250D02*
D03*
Y-58750D02*
D03*
Y-58250D02*
D03*
Y-57750D02*
D03*
Y-57250D02*
D03*
Y-56750D02*
D03*
Y-56250D02*
D03*
Y-55750D02*
D03*
Y-55250D02*
D03*
Y-54750D02*
D03*
Y-54250D02*
D03*
X-24425Y-55250D02*
D03*
Y-55750D02*
D03*
D123*
X-8750Y-1450D02*
D03*
Y-3550D02*
D03*
X-6500Y-1450D02*
D03*
Y-3550D02*
D03*
D124*
X-49150Y-8878D02*
D03*
X-47050D02*
D03*
Y-6978D02*
D03*
X-16316Y-9300D02*
D03*
X-14216D02*
D03*
Y-7400D02*
D03*
D125*
X-49150Y-7178D02*
D03*
X-16316Y-7600D02*
D03*
D126*
X-29150Y-47075D02*
D03*
X-27450D02*
D03*
D127*
X-23802Y-67057D02*
D03*
X-22702D02*
D03*
X-25762Y-67044D02*
D03*
X-26862D02*
D03*
D128*
X-23712Y-74086D02*
D03*
X-25412D02*
D03*
D129*
X-22662Y-70858D02*
D03*
X-26462D02*
D03*
Y-68558D02*
D03*
X-22662D02*
D03*
D130*
X-22775Y-62300D02*
D03*
Y-61350D02*
D03*
X-11225Y-9575D02*
D03*
Y-8625D02*
D03*
X-12525Y-9575D02*
D03*
Y-8625D02*
D03*
X-17825Y-6425D02*
D03*
Y-7375D02*
D03*
X-31750Y-66525D02*
D03*
Y-65575D02*
D03*
X-22800Y-54675D02*
D03*
Y-53725D02*
D03*
X-28250Y-49850D02*
D03*
Y-50800D02*
D03*
X-37225Y-56775D02*
D03*
Y-57725D02*
D03*
X-50650Y-6228D02*
D03*
Y-7178D02*
D03*
D131*
X-33495Y-44825D02*
D03*
Y-45825D02*
D03*
X-4430Y-58440D02*
D03*
Y-57440D02*
D03*
X-2921Y-58440D02*
D03*
Y-57440D02*
D03*
X-18725Y-7400D02*
D03*
Y-6400D02*
D03*
X-35675Y-11450D02*
D03*
Y-12450D02*
D03*
X-51550Y-7203D02*
D03*
Y-6203D02*
D03*
X-33375Y-68700D02*
D03*
Y-67700D02*
D03*
X-45650Y-10000D02*
D03*
Y-9000D02*
D03*
Y-7975D02*
D03*
Y-6975D02*
D03*
D132*
X-38450Y-56575D02*
D03*
Y-57975D02*
D03*
X-21600Y-62850D02*
D03*
Y-61450D02*
D03*
D133*
X-31150Y-9850D02*
D03*
X-30150D02*
D03*
X-24100Y-9800D02*
D03*
X-23100D02*
D03*
X-20811D02*
D03*
X-21811D02*
D03*
Y-10700D02*
D03*
X-20811D02*
D03*
D134*
X-24075Y-10675D02*
D03*
X-23125D02*
D03*
X-38950Y-53775D02*
D03*
X-38000D02*
D03*
X-40900D02*
D03*
X-41850D02*
D03*
X-30950Y-50900D02*
D03*
X-30000D02*
D03*
D135*
X-11125Y-7500D02*
D03*
X-12525D02*
D03*
D136*
X-34150Y-12000D02*
D03*
X-32050D02*
D03*
D137*
X-39700Y-56550D02*
D03*
Y-57950D02*
D03*
D138*
X-31425Y-49800D02*
D03*
X-30025D02*
D03*
D139*
X-47284Y-1675D02*
D03*
X-49584D02*
D03*
X-14450D02*
D03*
X-16750D02*
D03*
D140*
X-44784Y-1675D02*
D03*
X-52084D02*
D03*
X-11950D02*
D03*
X-19250D02*
D03*
D141*
X-50659Y-4800D02*
D03*
X-13375D02*
D03*
D142*
X-46209D02*
D03*
X-17825D02*
D03*
D143*
X-37055Y-66550D02*
D03*
X-6970Y-16030D02*
D03*
X-4430D02*
D03*
Y-79530D02*
D03*
X-6970D02*
D03*
X-4430Y-82070D02*
D03*
X-6970D02*
D03*
X-4430Y-84610D02*
D03*
X-6970D02*
D03*
Y-74450D02*
D03*
Y-71910D02*
D03*
X-4430D02*
D03*
X-6970Y-69370D02*
D03*
X-4430D02*
D03*
X-6970Y-66830D02*
D03*
X-4430D02*
D03*
Y-74450D02*
D03*
X-6970Y-41430D02*
D03*
X-4430D02*
D03*
Y-43970D02*
D03*
X-6970D02*
D03*
X-4430Y-46510D02*
D03*
X-6970D02*
D03*
X-4430Y-49050D02*
D03*
X-6970D02*
D03*
Y-38890D02*
D03*
Y-36350D02*
D03*
X-4430D02*
D03*
X-6970Y-33810D02*
D03*
X-4430D02*
D03*
X-6970Y-31270D02*
D03*
X-4430D02*
D03*
Y-38890D02*
D03*
X-28730Y-95570D02*
D03*
X-21110D02*
D03*
Y-93030D02*
D03*
X-23650Y-95570D02*
D03*
Y-93030D02*
D03*
X-26190Y-95570D02*
D03*
Y-93030D02*
D03*
X-28730D02*
D03*
X-36350D02*
D03*
X-47156Y-51861D02*
D03*
X-41776Y-14760D02*
D03*
D144*
X-39595Y-66550D02*
D03*
D145*
X-6970Y-13490D02*
D03*
Y-64290D02*
D03*
Y-28730D02*
D03*
X-47156Y-49321D02*
D03*
X-41776Y-19840D02*
D03*
D146*
X-4430Y-13490D02*
D03*
Y-87150D02*
D03*
X-6970Y-76990D02*
D03*
X-4430D02*
D03*
X-6970Y-87150D02*
D03*
X-4430Y-64290D02*
D03*
Y-51590D02*
D03*
X-6970D02*
D03*
X-4430Y-28730D02*
D03*
X-18570Y-95570D02*
D03*
X-41430Y-93030D02*
D03*
X-38890D02*
D03*
Y-95570D02*
D03*
X-36350D02*
D03*
X-33810Y-93030D02*
D03*
Y-95570D02*
D03*
X-31270D02*
D03*
Y-93030D02*
D03*
X-41430Y-95570D02*
D03*
X-47156Y-54401D02*
D03*
X-41776Y-17300D02*
D03*
X-36696Y-14760D02*
D03*
Y-17300D02*
D03*
D147*
X-38730Y-10950D02*
D03*
X-41270D02*
D03*
X-18570Y-93030D02*
D03*
D148*
X-8240Y-21740D02*
D03*
X-5700Y-23010D02*
D03*
X-6970D02*
D03*
Y-21740D02*
D03*
X-5700D02*
D03*
X-4430D02*
D03*
X-3160D02*
D03*
D149*
X-8240Y-23010D02*
D03*
X-3160D02*
D03*
X-4430D02*
D03*
D150*
X-2350Y-2350D02*
D03*
X-57650D02*
D03*
X-2350Y-97650D02*
D03*
X-57650D02*
D03*
D151*
X-33495Y-47125D02*
D03*
X-32225D02*
D03*
X-36035D02*
D03*
X-25850Y-37275D02*
D03*
X-27120D02*
D03*
D152*
X-36696Y-19840D02*
D03*
M02*
