G04 Layer_Color=128*
%FSLAX43Y43*%
%MOMM*%
G71*
G01*
G75*
%ADD28R,0.500X0.650*%
%ADD29R,0.550X0.600*%
%ADD30R,0.850X0.800*%
%ADD31R,0.600X0.550*%
%ADD32R,0.650X0.500*%
%ADD33R,0.700X0.700*%
%ADD35R,0.700X0.700*%
%ADD36R,0.800X0.850*%
%ADD78R,1.300X1.600*%
%ADD81C,0.280*%
%ADD83R,1.600X0.450*%
%ADD84R,0.650X1.050*%
%ADD85O,1.750X0.550*%
%ADD86O,0.550X1.750*%
%ADD87R,1.700X0.350*%
%ADD88R,1.300X0.600*%
%ADD89R,0.350X0.850*%
%ADD90R,0.650X0.800*%
%ADD91R,0.800X0.650*%
%ADD92R,1.350X1.500*%
%ADD94R,1.500X1.350*%
%ADD95R,0.600X1.300*%
%ADD96R,0.450X1.600*%
%ADD174R,0.250X0.800*%
%ADD175R,0.250X0.900*%
%ADD176R,0.900X1.500*%
%ADD177R,0.550X0.250*%
D28*
X-30875Y-22375D02*
D03*
Y-21425D02*
D03*
X-30000Y-22375D02*
D03*
Y-21425D02*
D03*
X-28900Y-7775D02*
D03*
Y-6825D02*
D03*
X-40600Y-35300D02*
D03*
Y-34350D02*
D03*
X-40600Y-32400D02*
D03*
Y-33350D02*
D03*
X-52250Y-35050D02*
D03*
Y-36000D02*
D03*
X-53075Y-35050D02*
D03*
Y-36000D02*
D03*
X-46975Y-42300D02*
D03*
Y-41350D02*
D03*
Y-40400D02*
D03*
Y-39450D02*
D03*
X-55650Y-16650D02*
D03*
Y-15700D02*
D03*
X-16900Y-21225D02*
D03*
Y-22175D02*
D03*
X-17800Y-18375D02*
D03*
Y-17425D02*
D03*
X-17100Y-14200D02*
D03*
Y-13250D02*
D03*
X-51650Y-24500D02*
D03*
Y-25450D02*
D03*
X-57550Y-27975D02*
D03*
Y-28925D02*
D03*
X-16900Y-20275D02*
D03*
Y-19325D02*
D03*
D29*
X-24050Y-38775D02*
D03*
Y-37775D02*
D03*
X-39575Y-20625D02*
D03*
Y-21625D02*
D03*
X-38750Y-21625D02*
D03*
Y-20625D02*
D03*
X-17100Y-11600D02*
D03*
Y-10600D02*
D03*
X-11800Y-16000D02*
D03*
Y-15000D02*
D03*
X-1200Y-9700D02*
D03*
Y-8700D02*
D03*
X-5200Y-8700D02*
D03*
Y-9700D02*
D03*
X-46125Y-40425D02*
D03*
Y-39425D02*
D03*
Y-42325D02*
D03*
Y-41325D02*
D03*
X-23175Y-38775D02*
D03*
Y-37775D02*
D03*
X-16900Y-18400D02*
D03*
Y-17400D02*
D03*
X-20300Y-18200D02*
D03*
Y-19200D02*
D03*
Y-17200D02*
D03*
Y-16200D02*
D03*
X-56500Y-22575D02*
D03*
Y-23575D02*
D03*
X-39750Y-22675D02*
D03*
Y-23675D02*
D03*
X-57550Y-26950D02*
D03*
Y-25950D02*
D03*
D30*
X-56700Y-19575D02*
D03*
Y-18175D02*
D03*
X-56750Y-15175D02*
D03*
Y-16575D02*
D03*
X-24500Y-2750D02*
D03*
Y-4150D02*
D03*
X-27800Y-2750D02*
D03*
Y-4150D02*
D03*
X-39325Y-31800D02*
D03*
Y-33200D02*
D03*
X-52750Y-26125D02*
D03*
Y-24725D02*
D03*
X-48125Y-16625D02*
D03*
Y-18025D02*
D03*
X-39325Y-35900D02*
D03*
Y-34500D02*
D03*
D31*
X-23325Y-13550D02*
D03*
X-22325D02*
D03*
Y-12400D02*
D03*
X-23325D02*
D03*
X-22200Y-4425D02*
D03*
X-21200D02*
D03*
X-11750Y-8975D02*
D03*
X-12750D02*
D03*
X-21200Y-3275D02*
D03*
X-22200D02*
D03*
X-19525Y-14525D02*
D03*
X-18525D02*
D03*
X-10482Y-14834D02*
D03*
X-9482D02*
D03*
X-39175Y-29775D02*
D03*
X-38175D02*
D03*
X-39175Y-28875D02*
D03*
X-38175D02*
D03*
X-55600Y-23600D02*
D03*
X-54600D02*
D03*
X-48175Y-26675D02*
D03*
X-49175D02*
D03*
X-44600D02*
D03*
X-45600D02*
D03*
X-41050D02*
D03*
X-42050D02*
D03*
X-43000Y-21850D02*
D03*
X-42000D02*
D03*
X-46550Y-21825D02*
D03*
X-45550D02*
D03*
X-50125D02*
D03*
X-49125D02*
D03*
X-4200Y-11100D02*
D03*
X-5200D02*
D03*
X-1700D02*
D03*
X-2700D02*
D03*
X-46000Y-10475D02*
D03*
X-47000D02*
D03*
X-47900Y-10850D02*
D03*
X-48900D02*
D03*
X-37525Y-26400D02*
D03*
X-38525D02*
D03*
X-37525Y-25625D02*
D03*
X-38525D02*
D03*
X-55850Y-30900D02*
D03*
X-56850D02*
D03*
X-54950D02*
D03*
X-53950D02*
D03*
X-47850Y-39425D02*
D03*
X-48850D02*
D03*
X-45200Y-19300D02*
D03*
X-44200D02*
D03*
D32*
X-54625Y-22775D02*
D03*
X-55575D02*
D03*
X-24900Y-26400D02*
D03*
X-25850D02*
D03*
X-24900Y-25500D02*
D03*
X-25850D02*
D03*
X-19325Y-21300D02*
D03*
X-20275D02*
D03*
X-22925Y-16000D02*
D03*
X-23875D02*
D03*
X-22925Y-15100D02*
D03*
X-23875D02*
D03*
X-25975Y-16000D02*
D03*
X-25025D02*
D03*
X-25975Y-15100D02*
D03*
X-25025D02*
D03*
X-32150Y-18900D02*
D03*
X-31200D02*
D03*
X-22175Y-5550D02*
D03*
X-21225D02*
D03*
X-53975Y-31725D02*
D03*
X-54925D02*
D03*
D33*
X-31375Y-20000D02*
D03*
X-32775D02*
D03*
D35*
X-52500Y-38550D02*
D03*
Y-37150D02*
D03*
D36*
X-27275Y-5700D02*
D03*
X-25875D02*
D03*
X-46550Y-19475D02*
D03*
X-47950D02*
D03*
X-49750D02*
D03*
X-51150D02*
D03*
D78*
X-13100Y-22150D02*
D03*
Y-18350D02*
D03*
X-15400D02*
D03*
Y-22150D02*
D03*
D81*
X-27950Y-17850D02*
D03*
X-27300D02*
D03*
X-26650D02*
D03*
X-26000D02*
D03*
X-25350D02*
D03*
X-24700D02*
D03*
X-24050D02*
D03*
X-23400D02*
D03*
X-22750D02*
D03*
X-22100D02*
D03*
X-27950Y-18500D02*
D03*
X-27300D02*
D03*
X-26650D02*
D03*
X-26000D02*
D03*
X-25350D02*
D03*
X-24700D02*
D03*
X-24050D02*
D03*
X-23400D02*
D03*
X-22750D02*
D03*
X-22100D02*
D03*
X-27950Y-19150D02*
D03*
X-27300D02*
D03*
X-26650D02*
D03*
X-26000D02*
D03*
X-25350D02*
D03*
X-24700D02*
D03*
X-24050D02*
D03*
X-23400D02*
D03*
X-22750D02*
D03*
X-27950Y-19800D02*
D03*
X-27300D02*
D03*
X-26650D02*
D03*
X-26000D02*
D03*
X-25350D02*
D03*
X-24700D02*
D03*
X-24050D02*
D03*
X-23400D02*
D03*
X-22750D02*
D03*
X-27950Y-20450D02*
D03*
X-27300D02*
D03*
X-26650D02*
D03*
X-26000D02*
D03*
X-25350D02*
D03*
X-24700D02*
D03*
X-24050D02*
D03*
X-23400D02*
D03*
X-22750D02*
D03*
X-27950Y-21750D02*
D03*
X-27300D02*
D03*
X-26650D02*
D03*
X-26000D02*
D03*
X-25350D02*
D03*
X-24700D02*
D03*
X-24050D02*
D03*
X-23400D02*
D03*
X-22750D02*
D03*
X-27950Y-22400D02*
D03*
X-27300D02*
D03*
X-26650D02*
D03*
X-26000D02*
D03*
X-25350D02*
D03*
X-24700D02*
D03*
X-24050D02*
D03*
X-23400D02*
D03*
X-22750D02*
D03*
X-27950Y-23050D02*
D03*
X-27300D02*
D03*
X-26650D02*
D03*
X-26000D02*
D03*
X-25350D02*
D03*
X-24700D02*
D03*
X-24050D02*
D03*
X-23400D02*
D03*
X-22750D02*
D03*
X-27950Y-23700D02*
D03*
X-27300D02*
D03*
X-26650D02*
D03*
X-26000D02*
D03*
X-25350D02*
D03*
X-24700D02*
D03*
X-24050D02*
D03*
X-23400D02*
D03*
X-22750D02*
D03*
X-27950Y-21100D02*
D03*
X-27300D02*
D03*
X-26650D02*
D03*
X-26000D02*
D03*
X-25350D02*
D03*
X-24700D02*
D03*
X-24050D02*
D03*
X-23400D02*
D03*
X-22750D02*
D03*
X-22100D02*
D03*
Y-19150D02*
D03*
Y-19800D02*
D03*
Y-20450D02*
D03*
Y-21750D02*
D03*
Y-22400D02*
D03*
Y-23050D02*
D03*
Y-23700D02*
D03*
D83*
X-49900Y-15975D02*
D03*
Y-16625D02*
D03*
Y-17275D02*
D03*
Y-17925D02*
D03*
X-54150Y-15975D02*
D03*
Y-16625D02*
D03*
Y-17275D02*
D03*
Y-17925D02*
D03*
D84*
X-18631Y-13123D02*
D03*
X-19584D02*
D03*
X-20537D02*
D03*
Y-10673D02*
D03*
X-18631D02*
D03*
D85*
X-42399Y-35851D02*
D03*
Y-35051D02*
D03*
Y-34251D02*
D03*
Y-33451D02*
D03*
Y-32651D02*
D03*
Y-31851D02*
D03*
Y-31051D02*
D03*
Y-30251D02*
D03*
X-50649D02*
D03*
Y-31051D02*
D03*
Y-31851D02*
D03*
Y-32651D02*
D03*
Y-33451D02*
D03*
Y-34251D02*
D03*
Y-35051D02*
D03*
Y-35851D02*
D03*
D86*
X-43724Y-28926D02*
D03*
X-44524D02*
D03*
X-45324D02*
D03*
X-46124D02*
D03*
X-46924D02*
D03*
X-47724D02*
D03*
X-48524D02*
D03*
X-49324D02*
D03*
Y-37176D02*
D03*
X-48524D02*
D03*
X-47724D02*
D03*
X-46924D02*
D03*
X-46124D02*
D03*
X-45324D02*
D03*
X-44524D02*
D03*
X-43724D02*
D03*
D87*
X-15650Y-7025D02*
D03*
Y-7675D02*
D03*
Y-8325D02*
D03*
Y-8975D02*
D03*
X-21350Y-7025D02*
D03*
Y-7675D02*
D03*
Y-8325D02*
D03*
Y-8975D02*
D03*
D88*
X-44735Y-41325D02*
D03*
Y-39425D02*
D03*
X-42635Y-40375D02*
D03*
X-11450Y-13350D02*
D03*
Y-11450D02*
D03*
X-9350Y-12400D02*
D03*
X-15550Y-12400D02*
D03*
Y-10500D02*
D03*
X-13450Y-11450D02*
D03*
Y-14050D02*
D03*
Y-15950D02*
D03*
X-15550Y-15000D02*
D03*
X-54300Y-14025D02*
D03*
Y-12125D02*
D03*
X-52200Y-13075D02*
D03*
X-48300Y-12125D02*
D03*
Y-14025D02*
D03*
X-50400Y-13075D02*
D03*
X-55050Y-21475D02*
D03*
Y-19575D02*
D03*
X-52950Y-20525D02*
D03*
D89*
X-3875Y-7875D02*
D03*
X-3225D02*
D03*
X-2575D02*
D03*
Y-9725D02*
D03*
X-3225D02*
D03*
X-3875D02*
D03*
D90*
X-58075Y-16450D02*
D03*
Y-15250D02*
D03*
X-30775Y-27375D02*
D03*
Y-28575D02*
D03*
X-15600Y-28600D02*
D03*
Y-27400D02*
D03*
X-16875Y-28600D02*
D03*
Y-27400D02*
D03*
X-18150Y-28600D02*
D03*
Y-27400D02*
D03*
X-19425Y-28600D02*
D03*
Y-27400D02*
D03*
X-27575Y-28575D02*
D03*
Y-27375D02*
D03*
D91*
X-11950Y-26975D02*
D03*
X-10750D02*
D03*
X-11950Y-24525D02*
D03*
X-10750D02*
D03*
X-11950Y-25750D02*
D03*
X-10750D02*
D03*
X-52825Y-23425D02*
D03*
X-51625D02*
D03*
D92*
X-27850Y-10175D02*
D03*
X-26200D02*
D03*
D94*
X-24075Y-6150D02*
D03*
Y-7800D02*
D03*
D95*
X-44675Y-13950D02*
D03*
X-46575D02*
D03*
X-45625Y-11850D02*
D03*
X-44675Y-17850D02*
D03*
X-46575D02*
D03*
X-45625Y-15750D02*
D03*
X-41050Y-25300D02*
D03*
X-42950D02*
D03*
X-42000Y-23200D02*
D03*
X-44600Y-25300D02*
D03*
X-46500D02*
D03*
X-45550Y-23200D02*
D03*
X-48150Y-25300D02*
D03*
X-50050D02*
D03*
X-49100Y-23200D02*
D03*
D96*
X-54300Y-29375D02*
D03*
X-54950D02*
D03*
X-55600D02*
D03*
X-56250D02*
D03*
X-54300Y-25125D02*
D03*
X-54950D02*
D03*
X-55600D02*
D03*
X-56250D02*
D03*
D174*
X-26150Y-3100D02*
D03*
Y-4350D02*
D03*
X-25650Y-3100D02*
D03*
X-26650D02*
D03*
Y-4350D02*
D03*
D175*
X-25650Y-4300D02*
D03*
D176*
X-26725Y-7750D02*
D03*
D177*
X-25675Y-8400D02*
D03*
Y-7750D02*
D03*
Y-7100D02*
D03*
X-27775D02*
D03*
Y-7750D02*
D03*
Y-8400D02*
D03*
M02*
